<?xml version="1.0" ?><svg fill="#c0392b" data-name="Layer 4" id="Layer_4" viewBox="0 0 600 600" xmlns="http://www.w3.org/2000/svg"><title/><path d="M362.886,187.948a2.311,2.311,0,0,0,4.139-2.014c-28.8-76.353-50.042-179.78-49.915-180.521a3.58,3.58,0,0,1,6.808-.825c.394.815,35.1,131.448,74.629,213.875,36.553,76.231,8.07,206.05-127.022,184.313-55.819-8.981-102.65-57-80.647-123.99,17.494-53.258,46.824-102.25,67.969-154.212C272.475,91.58,287.96,38.723,297.736,13.649a3.991,3.991,0,0,1,7.656.846C319.817,104.967,347.619,162.8,362.886,187.948ZM210.626,310.562c-.188,15.227,10.794,35.216,23.48,37.184,39.437,6.117,44.957-79.415,18.067-86.359C240.623,258.3,211.231,261.6,210.626,310.562Zm56.743-86.292c12.83-22.639.241-43.978-14.745-21.858C232.433,232.216,260.141,237.024,267.369,224.27Z" style="fill:#c0392b"/><path d="M96.54,418.858a1.874,1.874,0,0,0-1.557,3.4c53.305,28.953,47.6,94.813,68.8,112.851a2.978,2.978,0,0,0,4.815-3.054c-3.686-13.222-6.241-26.535-2.919-40.238,2.32-10.45,7.293-21.222,19.129-22.965,14.873-3.1,23.318,6.03,29.783,17.47,10.619,20.556,18.034,44.732,37.963,58.335C273.184,559.132,290.5,562.2,313.486,555.6a2.813,2.813,0,0,1,3.145,4.221C299.836,585.779,284.866,597,229.923,597c-57.514,0-115.179,1.154-172.664.125-20.148-.36-36.745-16.772-36.256-36.918q.021-.865.08-1.727c.126-19.559,10.938-28.948-3-47.284C-12.139,470.535,6.326,413.9,54.96,405.641c53.161-9.028,83.59,28.1,93.878,56.225.851,2.327-2.743,3.872-3.632,1.559C139.926,449.687,126.221,426.9,96.54,418.858ZM70.018,431.921c-10.654-.007-21.794,9.361-11.058,21.956A89.182,89.182,0,0,0,75.5,468.927c5.061,3.545,11.182,3.126,16.212-1.084C106.608,453.958,86.949,431.619,70.018,431.921Z" style="fill:#c0392b"/><path d="M430.106,478.517A142.863,142.863,0,0,1,441.314,466.3a2.1,2.1,0,0,1,3.345,2.369c-12.922,32.345-47.84,58.765-54.207,64.812-1.7,1.613-.132,3.532,2.558,3.053,62.817-31.775,86.759-111.759,156.426-132.914,34.144-8.931,55.026,33.986,44.363,62.051-3.891,13.519-8.56,27.1-15.087,39.493-6.277,11.921-8.139,23.112-4.139,35.837a56.6,56.6,0,0,1,1.458,26.921c-2.9,15.838-17.016,27.156-33.117,27.156H314.646a3.327,3.327,0,0,1-2.482-5.543c38.5-43.01,48.6-94.228,58.675-108.568,12.523-19.434,45.079-28.344,53.35-3.612A3.463,3.463,0,0,0,430.106,478.517ZM502.7,489.525c14.06.015,33.37-17.352,34.762-31.3.8-7.331-1.732-14.113-10.169-13.647-12.29-.074-20.669,7.716-28.381,15.639C490.323,469.083,483.936,489.421,502.7,489.525Z" style="fill:#c0392b"/><path d="M502.257,273.248a1.975,1.975,0,0,1-1.1-3.727c8.632-4.238,20.951-1.693,27.6,5.527,25.435,26.237-11.186,74.673-36.7,88.993-5.287,3.379-10.918,6.027-17.845,4.8-18.63-3.308-24.584-18.424-21.188-36.1,4.147-23.559,26.024-56.877,51.853-52.439,21.305,3.661,18.056,23.794,14.557,34.8a1.743,1.743,0,0,0,3.071,1.548C532.893,302.062,536.637,269.136,502.257,273.248Z" style="fill:#c0392b"/><path d="M174.281,394.684c.656,21.239-18.866,23.876-33.391,13.177-12.947-10.838-20.854-24.412-21.058-41.7-1.077-18.321,16.911-26.111,31.1-15.778C164.051,359.03,174.416,378.951,174.281,394.684Z" style="fill:#c0392b"/><path d="M296.793,528.764c-10.152,5.4-24.288-8.858-28.139-17.841-2.456-6.891,1.085-12.576,8.836-12.155C286.072,499.462,306.178,523.772,296.793,528.764Z" style="fill:#c0392b"/><path d="M456.616,440.439c2.814-.428,5.287-4.018,6.512-7.151,1.214-2.98-.333-7.708-3.711-6.05C455.543,428.35,450.931,439.708,456.616,440.439Z" style="fill:#c0392b"/></svg>