<?xml version="1.0" ?><svg fill="#c0392b" data-name="1" id="_1" viewBox="0 0 600 600" xmlns="http://www.w3.org/2000/svg"><title/><path d="M218.236,289.239a2.67,2.67,0,0,0-1.928,4.908c150.769,90.029,81.738,262.875-31.873,275.146-53.218,5.749-83.92-3.5-104.887-8.872a2.677,2.677,0,0,0-2.128,4.832c21.218,13.877,54.4,22.953,75.527,25.484,161.84,19.385,214.445-129.4,174.417-211.774C295.48,313.348,241.341,294.446,218.236,289.239Z" style="fill:#c0392b"/><path d="M566.312,222.422C541.9,243.07,463.281,296.141,328.268,264.614c-15.9-3.712-17.768,15.117-5.439,19.821,130.685,49.867,219.412,2.394,244.494-14.1a16.092,16.092,0,0,0,7.256-13.45V226.254A5.021,5.021,0,0,0,566.312,222.422Z" style="fill:#c0392b"/><path d="M278.848,262.085c21.479-24.57,8.167-31.76,8.167-31.76a14.48,14.48,0,0,0-18,3.675l-.051.063c-1.375,1.692-2.677,3.215-3.779,4.47a5.711,5.711,0,0,1-6.974,1.273C137.88,175.357,104.213,74.316,98.8,21.914A16.451,16.451,0,0,0,82.817,7.539H63.154a4.937,4.937,0,0,0-4.984,5.38C69.761,165.73,217.205,248.273,261.113,269.572,268.176,273,273.682,267.994,278.848,262.085Z" style="fill:#c0392b"/><path d="M25.421,423.345A125.429,125.429,0,1,0,150.85,297.917,125.428,125.428,0,0,0,25.421,423.345Zm48.391-59.081c13.538-15.676,34.066-20.134,45.851-9.957s10.364,31.135-3.173,46.811-34.065,20.135-45.851,9.958S60.275,379.941,73.812,364.264Z" style="fill:#c0392b"/></svg>