<?xml version="1.0" ?><svg fill="#c0392b" id="icon" viewBox="0 0 512 512" xmlns="http://www.w3.org/2000/svg"><title/><path d="M414.32,134.15l31.23-30.35a5.84,5.84,0,0,1,9.87,3.48c3.56,28.87,8.71,106.05-28.49,156.94-4.83,6.6-15.25,2.31-14-5.77,4.13-27,7.76-70.55-2.63-109.77A14.91,14.91,0,0,1,414.32,134.15Z"/><path d="M467.52,35.35C251.82,147.13,83.87,388.17,36.65,466.29c-4,6.65,3.79,14.12,10.26,9.83l32.94-21.86a79.16,79.16,0,0,1,63.27-10.81C318,488,377.63,377.38,396.28,321.12c2.47-7.45-6.75-13-12.28-7.41-81.1,81.6-172.49,70.67-203.33,60.14a8.16,8.16,0,0,1-3.46-13.17c14-15.68,28.84-31.94,43.08-47.69a19.63,19.63,0,0,1,24.07-4,78,78,0,0,0,10.07,4.66A9,9,0,0,0,265,310.33l25.34-36.82a3.89,3.89,0,0,1,7.08,1.83l3.24,33.7a6.06,6.06,0,0,0,8,5.16,78.73,78.73,0,0,0,36.81-121.12,14.09,14.09,0,0,1,1.1-18C388,131.14,430.49,87.69,474.71,45,479.47,40,473.63,32.18,467.52,35.35Zm-147,205.71a16.4,16.4,0,0,1-10.89,11.08A20.9,20.9,0,0,1,305,253a5.22,5.22,0,0,1-5.3-7,67.38,67.38,0,0,1,10.57-18.8,5.78,5.78,0,0,1,9.91,1.76A19.5,19.5,0,0,1,320.47,241.06Z"/></svg>