<?xml version="1.0" ?><svg fill="#c0392b" data-name="Layer 5" id="Layer_5" viewBox="0 0 600 600" xmlns="http://www.w3.org/2000/svg"><title/><path d="M173.892,456.6c22.151,1.688,75.5,11.753,80.274,69.389a9.8,9.8,0,0,0,9.77,8.962l103.052.157a9.833,9.833,0,0,0,9.819-9.279c1.173-19.969,7.985-65.879,45.552-74.693,77.436-18.169,90.721-71.853,92.678-96.184a11.357,11.357,0,0,0-11.343-12.233H172.336a10.667,10.667,0,0,0-10.664,10.943l2.405,92.583A10.647,10.647,0,0,0,173.892,456.6Z" style="fill:#c0392b"/><path d="M205.646,238.655l91.875,42.3A23.615,23.615,0,0,0,328.4,270.312L422.622,87.206a23.616,23.616,0,0,0-10.836-32.123L318.073,10.405a23.616,23.616,0,0,0-31.208,10.6l-26.619,52.28A11.469,11.469,0,0,1,246.813,79.1c-10.952-3.19-29.46-4.843-39.209,15.435-9.5,19.768,1.461,31.979,10.028,38a11.48,11.48,0,0,1,3.88,14.129l-27.5,60.81A23.616,23.616,0,0,0,205.646,238.655Z" style="fill:#c0392b"/><path d="M405.878,176.59l-13.126,26.362a7.76,7.76,0,0,0,3.477,10.4l139.24,69.614a23.009,23.009,0,1,0,20.439-41.229L416.247,173.085A7.76,7.76,0,0,0,405.878,176.59Z" style="fill:#c0392b"/><path d="M127.57,438.063a10.159,10.159,0,0,0,10.981-10.117V352.868A10.146,10.146,0,0,0,128.4,342.722H44.413A13.161,13.161,0,0,0,31.95,360.143C40.918,386.269,65.533,433.088,127.57,438.063Z" style="fill:#c0392b"/><path d="M365.9,555.367l-102.182.149a46.3,46.3,0,0,0-34.169,15.124l-11.762,12.913a4.93,4.93,0,0,0,3.642,8.25l187.148.1a4.929,4.929,0,0,0,3.642-8.255l-12.065-13.2A46.312,46.312,0,0,0,365.9,555.367Z" style="fill:#c0392b"/></svg>