<?xml version="1.0" ?><svg fill="#c0392b" data-name="Layer 4" id="Layer_4" viewBox="0 0 600 600" xmlns="http://www.w3.org/2000/svg"><title/><path d="M462.268,66.923a1.966,1.966,0,0,0,.513,3.739c9.416,1.325,22.773,5.545,24.549,17.971,2.4,19.186-17.372,27.013-12,31.705l7.568,7.366a3.236,3.236,0,0,0,4.571-.056L534.1,79.975a1.564,1.564,0,0,1,2.469,1.882l-19.443,33.317a5.079,5.079,0,0,0,1.259,6.316,35.162,35.162,0,0,1,10.6,22.558,1.955,1.955,0,0,0,3.709.666L600.028,5.072Z" style="fill:#c0392b"/><path d="M455.145,104.932c3.156-.624,6.255-4.516,3.014-6.426-3.058-2.626-15.082-.236-12.568,4.915C447.5,105.537,451.854,105.63,455.145,104.932Z" style="fill:#c0392b"/><path d="M520.885,176.191c-26.58,77.215-88.978,117.716-162.24,119.423a1.815,1.815,0,0,0-.466,3.553c24.269,7.19,81.617,18.983,120.411-.327a1.365,1.365,0,0,1,1.5,2.258c-39.195,33.891-99.179,36.612-148.567,4.986a12.872,12.872,0,0,1-2.092-19.922C363.85,251.7,469.344,146.173,469.344,146.173a3.033,3.033,0,0,0-.051-4.292l-8.356-8.153a3.033,3.033,0,0,0-4.238,0L312.725,274.418c-1.4-5.677-2.552-11.707-3.44-17.91-7.746-54.1,19.282-107.327,68.165-131.77a188.268,188.268,0,0,1,51.231-16.8c3.61-.974,2.191-6.577-1.554-5.635-35.465,6.491-70.27,22.273-95.487,48.251a1.989,1.989,0,0,1-3.072-2.5c31.3-47.248,88.113-60.287,110.919-63.7A1.809,1.809,0,0,0,439.6,80.8c-47.544-8.876-98.152-11.575-141.731,7.123-34.656,15.443-53.065,44.3-54.16,81.431a1.435,1.435,0,0,0,2.456,1.059,12.2,12.2,0,0,0,3.252-6.522c6.589-40.858,30.564-62.068,61.027-71.132a.965.965,0,0,1,.705,1.786c-74.121,38.025-28.8,128.579-11.247,192.4,0,0,32.459,115.77,5.191,161.759C234.611,567.585,93.212,577.156,51.533,581.9a3.394,3.394,0,0,1-2.8-5.747C127.41,491,206.448,407.99,274.414,345.444c12.054-9.108,16.456,9.043,17.973,19.025a2.334,2.334,0,0,0,4.623-.507c.182-16.12-3.818-42.262-5.513-52.568a8.173,8.173,0,0,0-5.1-6.3c-26.86-10.428-88.551-12.484-88.551-12.484a1.555,1.555,0,0,1-.313-3.08c23.846-4.848,47.634-3.825,74.659-.9,2.727.085,5.705-1.91-1.96-7.38-40.551-28.939-102.245-35.767-121.047-35.529-64.113.813-111.849,25.653-145.98,71.164C1.08,319.061.492,326.014.333,329.157a.434.434,0,0,0,.8.253c44.176-67.158,132.256-86.693,190.815-71.249a.73.73,0,0,1-.284,1.429c-62.328-7.922-141.472,7.766-187.948,115.189A44.784,44.784,0,0,0,.028,392.553V550.94A1.923,1.923,0,0,0,3.3,552.315L27.342,528.8l28.305-27.678a2.675,2.675,0,0,0-2.715-4.453,54.46,54.46,0,0,1-7.045,1.928,8.313,8.313,0,0,1-9.94-9C40.667,445.781,59,367.777,128.275,322.864a103.089,103.089,0,0,1,48.346-16.182c38.438-2.888,69.827.909,86.088,4.9a5.481,5.481,0,0,1,2.519,9.246C181.571,410.457,94.132,495.06,4,576.092-1.174,580.407.173,589.018.028,594.911c47.994.138,235.737,2.144,312.285-144.713.887-1.848,3.828-.886,3.3,1.094C294.908,529.553,216.414,573.605,148,592.5a1.23,1.23,0,0,0,.332,2.415H273.011a63.42,63.42,0,0,0,24.795-4.931c24.173-10.262,39.371-28.5,48.234-51.085a1.386,1.386,0,0,1,2.668.578c-1.353,34.652-21,49.243-29.025,53.779a.9.9,0,0,0,.438,1.676h13.127a14.155,14.155,0,0,0,12.3-7.035c33.738-58.753,4.708-178.618,4.708-178.618l0,0c-6.723-37.91-17.426-72.773-24.939-94.7,53.114,40.861,148.8,22.4,177.784-29.418a1.136,1.136,0,0,1,2.072.9c-7.278,22.689-27.712,65.613-79.682,75.192-12.643,2.33-26.166,1.341-39.04-.366-2.2-.3-4.388-.633-6.566-1.007a12.715,12.715,0,0,0-8.737,1.644,1.517,1.517,0,0,0,.468,2.768c65.985,14.457,123.34-9.782,142.636-78.485,9.274-32.2,11.814-78.556,10.167-109.153A1.814,1.814,0,0,0,520.885,176.191Z" style="fill:#c0392b"/><path d="M247.322,202.3c2.868-2.833,1.469-15.012-3.87-12.928-2.265,1.725-2.714,6.061-2.287,9.4C241.528,201.966,245.153,205.374,247.322,202.3Z" style="fill:#c0392b"/></svg>