<?xml version="1.0" ?><svg fill="#c0392b" data-name="Layer 4" id="Layer_4" viewBox="0 0 600 600" xmlns="http://www.w3.org/2000/svg"><title/><path d="M433.461,49c38.272-18.25,77.854-35.6,119.98-41.482,13.106-.11,26.213.046,39.318-.112,3.239-.039,4.633.512,4.622,4.241-.038,12.139.088,11.932-12.551,14.352C478.7,45.268,373.912,97.389,306.768,183.2a2.152,2.152,0,0,0,2.96,3.062C390.058,128.615,463.915,70.559,564.1,49.2q14.406-3.788,28.753-7.8c3.145-.876,4.542-.665,4.525,3.363q-.242,56.737-.038,113.477c.007,3.041-.685,4.165-3.987,4.526A633.915,633.915,0,0,0,458.71,192.328a596.774,596.774,0,0,0-118.034,54.385c-21.958,13.382-43.866-8.607-61.112-21.134-11.118-7.7-15.173-11.766-6.246-27.949,43.639-79.1,111.518-137.513,188.872-184.18,11.924-7.747,21.333-7.093,35.322-6.9-23.2,12.546-45.055,25.37-65.355,40.28A1.274,1.274,0,0,0,433.461,49Z" style="fill:#c0392b"/><path d="M566.171,298.636c-95.755-.629-186.165,21.177-270.782,66.257-3.287,1.751-4.2,1.3-5.383-2.027-3.924-12.9-.829-27.547,4.582-40.563a52.123,52.123,0,0,1,18.36-22.6c70.122-49.046,152.743-78.068,236.734-94.914,14.007-2.555,28.19-4.125,42.275-6.257,3.925-.595,5.592.286,5.434,4.775-.349,9.943-.207,19.908-.05,29.861.047,2.952-.737,3.908-3.848,4.079-46.157,2.542-90.921,11.995-135.588,24.029l-.407.111c-3.95,1.09-2.765,6.981,1.3,6.488,32.468-3.938,101.671-11.975,134.575-13.1,4.076-.14,4.344,1.278,3.7,7.325a146.051,146.051,0,0,0,.149,30.855c.569,5.329-.638,5.866-4.209,5.77C584.076,298.481,575.121,298.636,566.171,298.636ZM403.829,280.9a4.423,4.423,0,0,0,1.746,7.013c2.936.989,6.45-1.142,9.647-2.578,3.8-1.708,4.2-4.628,3.749-5.987C417.249,274.125,407.612,276.314,403.829,280.9Z" style="fill:#c0392b"/><path d="M196.389,490.262c-82.229-.379-118.98-64.395-145.958-132.506-1.525-3.339-1.392-4.926,2.853-6.194,16.711-4.994,31.362-13.889,45.1-24.569,7.592-5.9,11.974-6.4,17.724-1.256,11.328,10.127,22.97,19.934,33.839,30.534,9,8.781,16.944,18.643,25.646,27.749,10.873,10.188-21.615,33.16,13.606,73.912a246.2,246.2,0,0,0,20.5,20.19c3.217,2.883,2.963,5.928,1.659,8.847C208.052,490.754,201.3,489.748,196.389,490.262Z" style="fill:#c0392b"/><path d="M428.362,7.477C360.946,55.784,280.143,113.225,248.121,191.469c-2.545,5.617-7.36,11.446-14.027,6.753-8.152-5.046-16.85-9.224-25.413-13.581-2.347-1.194-3.705-2.126-2.62-5.139C242.818,77.473,291.584,28.859,309.868,13.327a24.288,24.288,0,0,1,15.663-5.793C356.494,7.452,399.4,7.477,428.362,7.477Z" style="fill:#c0392b"/><path d="M427.627,537.58a6.554,6.554,0,0,1-.9,6c-4.266,5.8-13.064,12.186-18.439,15.93-4.213,2.935-10.036.954-10.28-3.595-.4-7.429-5.786-10.386-10.327-14.186-40.58-32.789-212.679-181.723-262.678-232.321-12.274-12.422-22.9,1.554-31.779-18.079-4.894-10.308-10.952-20.059-16.122-30.246-2.791-6.162.048-12.584,7.515-7.925,12.621,6.609,25.274,13.161,37.845,19.864,1.486.792,3.2,2.169,3.693,3.648,3.593,10.691,11.625,18.215,19.546,25.141,42.215,36.25,212.066,188.639,259.078,223.538,5.132,3.988,10.341,8.133,17.7,8C425.19,533.3,426.758,535.049,427.627,537.58Z" style="fill:#c0392b"/><path d="M204.435,547.119c.221,3.969-1.606,5.647-5.153,5.359-7.074-.575-14.266-.833-21.156-2.362C90.792,527.882,7.437,439.332,2.466,347.832a11.139,11.139,0,0,1,2.881,1.308c6.521,5.653,13.823,9.742,22.438,11.018,3.554.526,4.325,3.054,5.223,5.787,29.511,81.7,78.379,134.7,167.794,143.049,3.747.542,5.223,2.12,4.969,5.839C205.4,520.288,204.141,541.833,204.435,547.119Z" style="fill:#c0392b"/><path d="M519.006,354.448a1.65,1.65,0,0,0-.375,3.272c26.128,4.707,51.75,10.344,75.892,22.147,2.521,1.029,3,7.057,3.011,11.289a2.767,2.767,0,0,1-3.876,2.543c-21.717-9.47-134.322-54.421-243.142-19.966-3.551,1.125-11.493-7.835,4.269-13.566,75.22-27.348,155.189-42.4,235.178-38.117,7.313.4,7.319.314,7.319,7.476,0,10.119-.121,20.24.066,30.356.066,3.59-.34,4.813-4.578,3.955A527.064,527.064,0,0,0,519.006,354.448Z" style="fill:#c0392b"/><path d="M234.835,267.993a8.241,8.241,0,0,1-2.056,11.475c-9.067,6.263-26.242,15.974-20.361,51.894.609,3.718-1.162,2.957-2.809,1.882-18.823-12.1-40.5-31.825-55.666-53.475-.889-1.27.014-4.419,1.158-5.314,12.42-10.077,16.267-25.421,19.523-40.145.709-3.736,2.5-4.852,6.347-3.761C203.036,236.98,221.83,249.23,234.835,267.993Z" style="fill:#c0392b"/><path d="M186.651,190.488c40.262,16.784,77.077,37.714,105.924,71.9a1.779,1.779,0,0,1-1.726,2.884c-12.076-2.416-23.044-1.053-35.265.9-3.1.5-4.6.236-6.456-2.34-15.195-21.91-36.636-38.6-63.191-44.269-4.344-1.066-6.335-3.008-6-7.938.374-5.431.281-10.893.2-16.74A4.7,4.7,0,0,1,186.651,190.488Z" style="fill:#c0392b"/><path d="M184.478,172.628c5.883-41.524,21.2-84.768,40.153-113.3,4.641-6.989,17.668-14.421,23.7-17.251a1.24,1.24,0,0,1,1.639,1.666c-3.283,6.81-32.681,55.293-54.837,131.136-.843,2.886-1.73,2.866-4.043,2.244C184.86,175.443,184.465,175.249,184.478,172.628Z" style="fill:#c0392b"/><path d="M441.684,593.446a15.636,15.636,0,0,1-7.557-.95c-3.05-1.23-4.972-3.136-7.583-6.527-8.9-9.8-2.764-17.744,8.465-27.394,5.681-4.883,21.018-1.854,31.846,16.547a7.792,7.792,0,0,1-3.656,11.132C456.446,589.118,446.841,592.875,441.684,593.446Z" style="fill:#c0392b"/><path d="M253.551,22.8c2.713.822,6.475-1.345,8.919-3.635,2.368-2.158,3-7.071-.743-7.028C257.769,11.474,248.756,19.7,253.551,22.8Z" style="fill:#c0392b"/><path d="M315.856,383.635c2.392,1.521,6.6.447,9.567-1.1,2.862-1.441,4.8-6,1.176-6.968C322.965,373.863,312.07,379.365,315.856,383.635Z" style="fill:#c0392b"/></svg>