<?xml version="1.0" ?><svg fill="#c0392b" data-name="1" id="_1" viewBox="0 0 600 600" xmlns="http://www.w3.org/2000/svg"><title/><path d="M119.666,560.639a3.737,3.737,0,0,0,3.665-5.336,139.823,139.823,0,0,1-9.072-26.6,7.427,7.427,0,0,0-6.289-5.655c-11.516-1.455-39.543-7.158-55.11-28.908-45.768-63.947,90.2-105.518,131.546-153.8a2.033,2.033,0,0,1,3.561,1.582c-11.433,90.388-64.228,105.168-56.824,178.276,7.273,71.814,105.17,72.32,134.408,70.853a5.263,5.263,0,0,0,4.516-7.477,117.23,117.23,0,0,1-10.305-55.492c1.854-34.32,8.125-68.124,17.078-101.039,18.959-69.707,16.18-138.527,14.008-165.675a16.441,16.441,0,0,0-13.535-14.882c-11.752-2.07-28.465-4.31-39.163-5.678-7.56-.967-30.73-.042-40.97,23.805C155.982,360.553,3.812,388.722,9.3,484.256,10.966,547.714,95.04,558.763,119.666,560.639Z" style="fill:#c0392b"/><path d="M590.243,503.186c3.649-16.987-10.247-41.7-17.683-56.9-7.595-11.023-13.882-36.65-79.816-17.123-39.537,11.709-148.339,44.969-173.15,29.149-9.165-5.844-14.04-13.032-18.95-21.352a3.637,3.637,0,0,0-6.628.836c-8.349,29.358-16.4,89.139-10.569,111.96,8.948,35.028,33.008,41.643,48,43.708,52.385,7.214,162.192-23.413,209.223-37.889C550.393,552.568,581.909,541.986,590.243,503.186Z" style="fill:#c0392b"/><path d="M561.96,30.252a18.987,18.987,0,0,0-24.229-8.478c-27.767,12.121-60.3,16.235-78.748,17.63a8.216,8.216,0,0,0-6.407,12.482c10.04,16.364,26.241,50.471,31.862,106.507a8.253,8.253,0,0,0,8.938,7.357c29.718-2.417,54.44,11.078,68.418,11.828C584.34,178.788,597.993,96.871,561.96,30.252Z" style="fill:#c0392b"/><path d="M335.317,439.419c15.683,8,101.322-14.727,156.984-30.864a69.083,69.083,0,0,0,49.864-67.814c-1.11-50.624-9.734-121.187-47.981-135.846a5.134,5.134,0,0,0-6.978,4.748c-.044,5.735-.079,14.244,0,22.434a11.147,11.147,0,0,1-10.912,11.244h0a11.141,11.141,0,0,1-11.378-10.73C463.429,191.6,453.749,49.385,390.861,43.256c-13.985-1.363-45.838-7.127-62.767-10.284a4.276,4.276,0,0,0-4.246,6.721c13.823,18.945,44.788,67.041,55.61,130.509a9.3,9.3,0,0,0,8.7,7.756l45.8,2.226a11.234,11.234,0,0,1,10.713,9.515h0a11.234,11.234,0,0,1-11.255,12.945l-41.1-.56a6.915,6.915,0,0,0-6.987,7.462c.585,7.414,1.38,18.908,1.519,28.113a10.037,10.037,0,0,1-10.1,10.185l-3.072-.019a10.015,10.015,0,0,1-9.952-9.329c-6.081-93.212-45.868-165.231-66.362-196.648a56.415,56.415,0,0,0-30.922-23.18c-15.614-4.723-36.393-8.3-49.484-10.275a7.88,7.88,0,0,0-8.726,10.06c9.62,31.931,31.623,119.2-6.761,143.447-24.343,15.374-72.736-50.34-46.783-122.016,5.3-14.632,35.649-38.547,35.223,64.245a2.642,2.642,0,0,1-4.946,1.284c-4.857-8.73-12.447-19.435-18.134-13.872-8.974,8.779,3.906,32.3,15.02,47.275a11.4,11.4,0,0,0,19.936-3.008c5.194-14.6,8.49-41.8-3.449-89.947C186.721-1,163.314-1.292,147.6,15.853c-32.762,35.736-18.625,120.89,9.482,154.058,12.742,17.219,35.539,34.073,57.568,24.3,6.146-2.757,62.248-24.419,104.754-6.729a2.913,2.913,0,0,1-.689,5.583c-20.049,2.776-67.026,9.82-90.271,17.817a5.579,5.579,0,0,0,.852,10.779l64.5,11.065a17.51,17.51,0,0,1,14.481,15.3c4.745,43.489,1.5,90.672.18,133.509C307.057,404.57,313.923,428.508,335.317,439.419ZM480.39,277.161a10.852,10.852,0,0,1,10,10.046c.312,4.3.587,9.386.8,13.854a10.84,10.84,0,0,1-10.685,11.357l-.234,0a10.842,10.842,0,0,1-10.979-10.4l-.552-13.607A10.842,10.842,0,0,1,480.39,277.161ZM375.5,283.338a10.853,10.853,0,0,1,10.112,9.935c.36,4.291.691,9.379.954,13.844a10.84,10.84,0,0,1-10.558,11.475l-.234.006a10.843,10.843,0,0,1-11.094-10.28l-.7-13.6A10.843,10.843,0,0,1,375.5,283.338Z" style="fill:#c0392b"/></svg>