<svg fill="#c0392b" xmlns="http://www.w3.org/2000/svg" x="0px" y="0px" width="100" height="100" viewBox="0 0 128 128">
<path d="M 63.705078 9.1992188 A 3.925 3.925 0 0 0 59.796875 12.091797 C 59.084875 14.483797 58.422438 20.590875 58.148438 27.296875 C 58.126438 27.944875 56.676844 46.890078 56.589844 48.080078 A 82.312 82.312 0 0 1 66.513672 48.792969 C 66.436672 43.283969 67.214844 18.390813 67.214844 15.882812 C 67.214844 11.750813 66.042703 9.5034688 64.095703 9.2304688 A 3.925 3.925 0 0 0 63.705078 9.1992188 z M 44.650391 12.894531 A 3.041 3.041 0 0 0 42.480469 13.917969 C 40.128469 16.490969 40.796594 23.090078 41.808594 33.080078 C 42.208594 37.074078 43.117531 48.197203 43.144531 48.908203 C 58.820531 56.020203 85.363719 56.590812 90.511719 56.632812 C 90.511719 56.632812 91.441781 49.156266 91.675781 47.697266 C 93.213781 38.029266 92.624641 28.872438 90.306641 26.398438 A 1.557 1.557 0 0 0 88.9375 25.818359 C 88.1725 25.889359 87.079828 26.218266 86.423828 28.197266 C 85.879828 29.839266 86.414734 32.268437 86.052734 35.398438 A 152.747 152.747 0 0 1 83.011719 51.740234 C 85.135719 52.217234 86.457656 52.552641 86.472656 52.556641 A 1 1 0 0 1 87.195312 53.771484 A 0.973 0.973 0 0 1 86.226562 54.525391 C 85.265563 54.470391 65.583328 50.045609 55.361328 50.099609 C 55.041328 50.099609 51.761328 50.350641 50.736328 50.556641 A 1 1 0 0 1 50.34375 48.595703 A 25 25 0 0 1 53.154297 48.212891 C 52.385297 43.582891 50.266359 30.842719 49.568359 24.886719 C 49.480359 24.139719 49.387141 23.347625 49.369141 23.140625 C 48.905141 18.634625 48.22475 15.855031 47.21875 14.332031 A 3 3 0 0 0 44.955078 12.900391 A 3.041 3.041 0 0 0 44.650391 12.894531 z M 75.353516 13.480469 A 3.481 3.481 0 0 0 74.769531 13.546875 A 2.806 2.806 0 0 0 72.697266 16.025391 C 72.412266 17.803391 71.911234 25.746156 71.365234 33.535156 C 70.896234 40.235156 70.393844 46.815531 69.964844 49.269531 C 72.844844 49.701531 75.881359 50.244922 79.193359 50.919922 C 79.293359 47.826922 79.492062 40.781 79.539062 33.75 C 79.589063 26.057 79.440469 18.380063 78.730469 15.914062 A 3.057 3.057 0 0 0 78.115234 14.722656 A 3.481 3.481 0 0 0 75.353516 13.480469 z M 43.216797 51.128906 A 51.844 51.844 0 0 1 42.976562 57.730469 C 56.820563 61.900469 77.01875 64.864891 90.09375 59.962891 L 90.259766 58.628906 C 84.559766 58.590906 59.295797 58.021906 43.216797 51.128906 z M 42.707031 59.742188 C 42.630031 60.189188 42.543312 60.61625 42.445312 61.03125 C 51.145312 70.64025 73.929141 74.947266 76.744141 75.447266 A 95.085 95.085 0 0 0 88.845703 68.636719 C 88.845703 68.636719 89.574641 63.979359 89.806641 62.193359 A 52.051 52.051 0 0 1 73.40625 64.505859 A 112.8 112.8 0 0 1 42.707031 59.742188 z M 109.82031 60.966797 A 2.943 2.943 0 0 0 106.88086 63.90625 L 106.88086 64.410156 A 0.634 0.634 0 0 1 106.24609 65.044922 L 105.74023 65.044922 A 2.943 2.943 0 0 0 102.80078 67.984375 L 102.80078 70.021484 A 2.943 2.943 0 0 0 105.74023 72.960938 L 106.24609 72.960938 A 0.635 0.635 0 0 1 106.88086 73.595703 L 106.88086 74.099609 A 2.943 2.943 0 0 0 109.82031 77.039062 L 111.85352 77.039062 A 2.943 2.943 0 0 0 114.79492 74.099609 L 114.79492 73.591797 A 0.634 0.634 0 0 1 115.42773 72.957031 L 115.93555 72.957031 A 2.943 2.943 0 0 0 118.87695 70.017578 L 118.87695 67.986328 A 2.943 2.943 0 0 0 115.93555 65.048828 L 115.42773 65.048828 A 0.634 0.634 0 0 1 114.79492 64.414062 L 114.79492 63.90625 A 2.943 2.943 0 0 0 111.85352 60.966797 L 109.82031 60.966797 z M 41.787109 63.238281 A 7.036 7.036 0 0 1 40.097656 65.853516 C 48.099656 70.888516 51.607891 80.489219 52.462891 83.199219 A 88.178 88.178 0 0 0 73.587891 76.882812 C 66.620891 75.437813 49.924109 71.272281 41.787109 63.238281 z M 15.84375 63.671875 C 13.275039 63.649258 11.282578 64.147422 10.189453 65.138672 A 3.662 3.662 0 0 0 9.1621094 68.470703 C 9.3081094 69.849703 12.310109 71.012375 15.787109 72.359375 C 20.851109 74.320375 27.757609 76.999594 33.099609 82.808594 A 50.085 50.085 0 0 0 50.443359 83.476562 C 49.443359 80.498563 45.805953 71.276812 38.126953 67.007812 C 33.626953 68.948813 29.687906 67.408437 25.878906 65.898438 A 30.139 30.139 0 0 0 21.021484 64.279297 C 19.134109 63.885547 17.384977 63.685445 15.84375 63.671875 z M 88.378906 71.333984 C 75.687906 79.374984 62.017141 83.883313 51.869141 85.320312 A 61.147 61.147 0 0 1 43.386719 85.933594 A 49.236 49.236 0 0 1 35.400391 85.300781 C 38.541391 88.646781 41.926641 91.990641 44.431641 94.431641 C 44.564641 94.462641 44.692359 94.491672 44.818359 94.513672 C 58.340359 97.485672 77.251359 92.605672 84.818359 86.388672 A 130.273 130.273 0 0 0 88.378906 71.333984 z M 99.626953 86.34375 A 2.131 2.131 0 0 0 97.5 88.46875 L 97.5 88.833984 A 0.46 0.46 0 0 1 97.041016 89.292969 L 96.675781 89.292969 A 2.131 2.131 0 0 0 94.546875 91.421875 L 94.546875 92.900391 A 2.131 2.131 0 0 0 96.675781 95.029297 L 97.041016 95.029297 A 0.46 0.46 0 0 1 97.5 95.488281 L 97.5 95.853516 A 2.131 2.131 0 0 0 99.628906 97.982422 L 101.09961 97.982422 A 2.131 2.131 0 0 0 103.22852 95.853516 L 103.22852 95.486328 A 0.46 0.46 0 0 1 103.6875 95.027344 L 104.05664 95.027344 A 2.132 2.132 0 0 0 106.18555 92.898438 L 106.18555 91.427734 A 2.132 2.132 0 0 0 104.05469 89.300781 L 103.68555 89.300781 A 0.46 0.46 0 0 1 103.22656 88.841797 L 103.22656 88.472656 A 2.131 2.131 0 0 0 101.09766 86.34375 L 99.626953 86.34375 z M 83.8125 89.574219 C 76.8465 94.036219 64.961344 97.423828 53.902344 97.423828 A 47.052 47.052 0 0 1 46.917969 96.921875 C 47.056969 97.097875 47.978297 98.743375 48.029297 98.859375 C 59.146297 104.68637 77.724422 100.90553 81.607422 100.01953 A 25.872 25.872 0 0 1 82.472656 93.552734 C 82.951656 92.159734 83.3955 90.847219 83.8125 89.574219 z M 48.880859 101.4707 C 50.033859 106.2807 49.903547 112.83622 49.685547 116.69922 A 2 2 0 0 0 51.685547 118.80469 L 80.146484 118.80469 A 2 2 0 0 0 82.134766 116.59375 A 122.016 122.016 0 0 1 81.539062 102.0918 A 83.544 83.544 0 0 1 64.230469 104.07617 C 59.030469 104.07617 53.530859 103.4297 48.880859 101.4707 z"></path>
</svg>