<svg fill="#c0392b" xmlns="http://www.w3.org/2000/svg" x="0px" y="0px" width="100" height="100" viewBox="0 0 64 64">
<path d="M 31.507812 3 L 31.507812 9 L 29.007812 9 L 29.007812 11.042969 C 25.52335 12.278264 22.884594 15.293544 22.193359 19 L 21.007812 19 L 21.007812 21 L 22.007812 21 L 43.005859 21 L 44.007812 21 L 44.007812 19 L 42.820312 19 C 42.129192 15.294158 39.491419 12.278652 36.007812 11.042969 L 36.007812 9 L 33.507812 9 L 33.507812 3 L 31.507812 3 z M 11.007812 18 L 11.007812 23.099609 C 8.7261946 23.563082 7.0078125 25.582244 7.0078125 28 L 7.0078125 28.033203 L 17.007812 28.033203 L 17.007812 28 C 17.007812 25.58301 15.288352 23.565873 13.007812 23.101562 L 13.007812 18 L 11.007812 18 z M 52.007812 18 L 52.007812 23.099609 C 49.726195 23.563082 48.007812 25.582244 48.007812 28 L 48.007812 28.033203 L 58.007812 28.033203 L 58.007812 28 C 58.007812 25.58301 56.287871 23.565873 54.007812 23.101562 L 54.007812 18 L 52.007812 18 z M 22.007812 23 L 22.007812 30 L 22 30 L 22 33 L 17.007812 33 L 17.007812 30 L 7.0078125 30 L 7.0078125 59 L 16.507812 59 L 17.007812 59 L 27.007812 59 L 27.007812 49.498047 C 27.007812 46.462047 29.468859 44 32.505859 44 L 32.507812 44 C 35.544812 44 38.007812 46.462 38.007812 49.5 L 38.007812 59 L 48.007812 59 L 48.507812 59 L 58.007812 59 L 58.007812 30 L 48.007812 30 L 48.007812 33 L 43.007812 33 L 43.007812 30.142578 L 43.007812 30 L 43.007812 24 L 22.007812 23 z M 26.507812 25 C 27.335812 25 28.007813 25.672 28.007812 26.5 L 28.007812 29.224609 L 25.007812 29.224609 L 25.007812 26.5 C 25.007812 25.672 25.679812 25 26.507812 25 z M 32.503906 25 L 32.509766 25 C 32.906766 25 33.287359 25.158453 33.568359 25.439453 C 33.849359 25.720453 34.007813 26.101047 34.007812 26.498047 L 34.007812 29.224609 L 31.007812 29.224609 L 31.007812 26.498047 C 31.007812 26.101047 31.164312 25.720453 31.445312 25.439453 C 31.726312 25.158453 32.106906 25 32.503906 25 z M 38.507812 25 C 39.335813 25 40.007812 25.672 40.007812 26.5 L 40.007812 29.224609 L 37.007812 29.224609 L 37.007812 26.5 C 37.007812 25.672 37.678812 25 38.507812 25 z M 12.007812 34 L 13.007812 36 L 13.007812 40 L 11.007812 40 L 11.007812 36 L 12.007812 34 z M 53.007812 34 L 54.007812 36 L 54.007812 40 L 52.007812 40 L 52.007812 36 L 53.007812 34 z M 32.507812 35 L 45.007812 41 L 45.007812 42 L 32.507812 38 L 20.007812 42 L 20.007812 41 L 32.507812 35 z M 22.007812 45 L 23.007812 47 L 23.007812 51 L 21.007812 51 L 21.007812 47 L 22.007812 45 z M 43.007812 45 L 44.007812 47 L 44.007812 51 L 42.007812 51 L 42.007812 47 L 43.007812 45 z"></path>
</svg>