<svg fill="#c0392b" xmlns="http://www.w3.org/2000/svg" x="0px" y="0px" width="100" height="100" viewBox="0 0 64 64">
<path d="M 23 7 C 13.902 7 7 14.318 7 21 C 7 31.644 14 31 14 31 A 5 5 0 0 0 14 21 A 5 5 0 0 0 10.054688 22.933594 C 10.020192 22.642926 10 22.333286 10 22 C 10 16 16.107 11 23 11 C 29.893 11 35 17.107 35 24 C 35 46.652 8 56 8 56 L 10 60 C 10 60 41 47.895 41 24 C 41 13.937 32.098 7 23 7 z M 53 14 A 4 4 0 0 0 53 22 A 4 4 0 0 0 53 14 z M 53 30 A 4 4 0 0 0 53 38 A 4 4 0 0 0 53 30 z"></path>
</svg>