<?xml version="1.0" ?><svg fill="#c0392b" data-name="Layer 4" id="Layer_4" viewBox="0 0 600 600" xmlns="http://www.w3.org/2000/svg"><title/><path d="M512.032,97.775c16.611,1.591,52.2,8.337,80.448,36.676a1.228,1.228,0,0,0,2.1-.887l-.109-8.56a13.669,13.669,0,0,0-5.28-10.68c-32.8-25.2-81.458-28.711-112.794-35.255-19.962-3.731-39.97-7.217-59.949-10.857-13.062-2.257-35.536-6.362-47.045-8.475a4.463,4.463,0,0,0-5.145,5.485c5.853,22.228,1.529,42.709-2.122,54.136a1.8,1.8,0,0,1-3.511-.5c-.532-21.767-6.208-73.3-46.7-94.059a1.829,1.829,0,0,1,.538-3.426c4.77-.783,12.151-.535,20.932,4.707a1.981,1.981,0,0,0,2.715-2.723c-2.99-5.006-9.835-11.057-25.36-9.828-15.832,1.254-28,10.958-38.7,22.215-8.636,9.763-13.405,22.148-20.665,32.9-1.728,2.837-4.116,4.948-7.722,4.538-14.105-1.6-27.161,2.151-33.862,4.614a1.809,1.809,0,0,1-2.051-2.8c3.8-5.082,12.593-12.811,31.877-15.684,2.966-.442,4.408-2.735,5.834-5.022a4.153,4.153,0,0,0,.029-4.358c-4.609-7.573-21.474-30.474-50.019-16.361-15.155,7.493-17.375,30.475-14.538,47.69a6.554,6.554,0,0,1-4.027,7.12c-10.373,4.206-34.97,16.92-58.97,49.628-35.651,48.587-66.073,49.044-95.35,65.108-20.247,11.11-24.621,38.825-1.992,49.967,1.925.862,3.483.54,5.656-.18,17.628-5.839,16.116-21.513,13.272-31.083A1.587,1.587,0,0,1,42.3,220.4c19.163,23.956,9.829,37.82,1.219,44.5-4.64,3.6-5.891,10.683-2.468,15.452,9.45,13.164,24.105,20.376,35.237,23.716a.776.776,0,0,0,.777-1.22c-2.791-4.032-9.665-15.4-4.558-23.175,7.089-10.791,27.2-13.608,39.668-11.061,30.112,4.369,51.857,46.131,27.076,66.4-16.357,13.379-27.64,8.3-31.115.932-.517-1.1-1.408-1.227-1.927-.132-4.762,10.046,7.61,14.921-5.678,22.652-2.611,1.519-1.962,5.692-.455,8.309,2.718,4.717,6.774,11.412,8.941,13.317,18.25,16.037,41.954,22.219,49.484,21.7a1.952,1.952,0,0,0,1.432-3.133,63.8,63.8,0,0,1-5.343-8.522,1.5,1.5,0,0,1,2-2.04,103.994,103.994,0,0,0,41.931,10.012,2.719,2.719,0,0,0,2.683-3.365l-1.5-6.183a4.294,4.294,0,0,1,3.879-5.292c52.876-3.59,75.464,4.025,84.259,8.917a2.315,2.315,0,0,1-.883,4.325l-44.727,4.8a3.36,3.36,0,0,0-2.4,5.241,48.441,48.441,0,0,1,8.031,27.137c.052,19.088-.392,38.19-.691,57.268-.108,5.081.783,9.6,4.879,13.5,4.918,4.8,11.512,11.736,16.69,17.262a6.518,6.518,0,0,0,11.1-2.961l6.175-26.133a6.8,6.8,0,0,1,8.515-4.967l30.286,8.788A8.056,8.056,0,0,0,334.5,491.8l12.951-31.144a6.8,6.8,0,0,1,7.756-4.028l35.541,7.9a5.078,5.078,0,0,0,6.054-3.836l14.017-61.93a1.213,1.213,0,0,1,2.4.28l-.879,86a5.474,5.474,0,0,1-6.861,5.239l-32.821-8.6a7.066,7.066,0,0,0-8.446,4.459l-13.752,38.506a8.057,8.057,0,0,1-9.743,5.053l-31.8-8.834a6.386,6.386,0,0,0-8.033,5.268l-7.822,55.882c0,3.088.968,4.088,4.059,4.615H587.968a6.6,6.6,0,0,0,6.6-6.609l-.434-417.3a9.925,9.925,0,0,0-4.841-8.526c-32.18-19.11-44.7-41.336-77.967-53.56A1.489,1.489,0,0,1,512.032,97.775ZM210.87,154c-5.751,17.085-22.91,28.629-40.6,30.256-16.529-.654-20.334-13.274-10.1-25.212,9.76-11.7,24.291-19.6,39.7-19.477C208.176,139.436,213.188,146.022,210.87,154Zm98.113-62.013c-1.217,5.115-3.334,7.576-8.73,5.292a226.85,226.85,0,0,0-34.108-9.464c-3.272-.617-3.67-1.148-3.075-4.3,1.558-18.936,33.868-55.419,46.042-27.729C313.565,65.913,310.155,84.453,308.983,91.989Zm129.75,348.748c-8.827,5.733-4.678-58.456-2.371-87.561a2.739,2.739,0,0,1,5.365-.531C448.679,376.924,459.874,427.007,438.733,440.737Z" style="fill:#c0392b"/><path d="M97.126,276.635c-3.693-.188-13.607,3.411-10.33,8.434a33.308,33.308,0,0,0,12.352,10.857.858.858,0,0,0,1.247-.822,48.9,48.9,0,0,1,1.132-13.423C102.423,277.711,101.053,276.426,97.126,276.635Z" style="fill:#c0392b"/></svg>