<?xml version="1.0" ?><svg fill="#c0392b" data-name="Layer 4" id="Layer_4" viewBox="0 0 600 600" xmlns="http://www.w3.org/2000/svg"><title/><path d="M95.863,308.441a2.282,2.282,0,0,0-3.072-2.506A77.519,77.519,0,0,1,70.484,310.9,2.63,2.63,0,0,0,68,312.792C65.948,325.417,70,339.4,79.776,347.928c2.448,2.271,18.1,13.085,17.374,4.793C91.711,338.121,92.827,323.831,95.863,308.441Z" style="fill:#c0392b"/><path d="M222.233,422.136a2.655,2.655,0,0,0-1.908-3.292c-31.377-6.137-53.394,13.051-60.993,21.035a4.364,4.364,0,0,0,.26,6.309c2.95,1.926,9.178,8.264,11.927,4.211,14.732-24.512,35.394-26.52,47.477-26.135A2.537,2.537,0,0,0,222.233,422.136Z" style="fill:#c0392b"/><path d="M130.654,289.378c-5.323,1.719-11.848,5.749-16.917,8.3a2.627,2.627,0,0,0-1.2,2.95c3.3,8.54,11.714,14.875,20,18.187,2.6.68,3.969-2.229,2.785-4.308a100.231,100.231,0,0,1-2.52-22.253C133,290.892,132.465,289.337,130.654,289.378Z" style="fill:#c0392b"/><path d="M47.924,238.026c4.049,18.229-13.879,53.163,13.137,59.449,20.643,3.694,41.569-5.883,58.328-17.2,83.355-56.51,121.607,8.3,198.3,24.779,31.873,5.412,77.438-19.728,55.962-56.061-5.28-9.058-13.416-16.155-19.683-24.514-39.259-46.7,14.394-95.859,64.555-85.054,14.2,2.292,26.075,11.1,39.8,14.821a59.447,59.447,0,0,0,53.883-13.453c2.014-1.818-.152-4.746-2.482-4.263-30.047,5.384-48.066-40.81-86.007-48.024a43.307,43.307,0,0,0,12.768-15.632,2.573,2.573,0,0,0-3.49-3.49c-12.451,6.28-30.907-4.631-44.815-5.641-22.993-3.51-46.421-3.214-69.551-1.32,20.647-94.916-91.9-73-103.489,50.1.667,2.182,1.881,3.939,3.743,2.879,5.344-3.04,20.544-14.082,25.955-17.031a2.076,2.076,0,0,1,3.055,1.7c1.3,22.772-20.085,51.718-43.7,56.433a2.63,2.63,0,0,0-1.872,2.46c-2.7,21.245-6.4,46.752-26.639,58.647,4.176-18.969,8.136-36.075,12.609-54.976a2.632,2.632,0,0,0-2.459-3.228c-6.763-.73-20.7-2.875-25.919-7.976a2.373,2.373,0,0,1,.51-3.732c8.387-4.858,22.389-13.614,30.79-18.448,2.027-1.166,3.554-1.716,4.247-4.036l10.141-45.079c.646-2-1.93-4.2-3.747-2.88-37.744,22.551-38.636,14.983-62.956,56.7C126.661,153.332,109,169.8,86.351,175.5c-7.956,3.925-4.239,11.06-3.033,17.646,2.317,13.465-5.949,23.611-19.326,25.413,4.787-7.908,9.1-16.7,7.01-26.172C66.952,158.463-2.5,202.245,47.924,238.026ZM252.851,61.181c9.42-38.62,68.282-49.037,45.579-2.233a7.108,7.108,0,0,1-5.646,3.83l-36.037,3.358A3.753,3.753,0,0,1,252.851,61.181Z" style="fill:#c0392b"/><path d="M160.17,274.616c-3.5,1.317-9.143,3.447-11.644,4.416a2.679,2.679,0,0,0-1.824,3.213c1.96,6.513,7.411,11.548,13.224,14.766,1.88.974,4.568-.662,3.808-2.929-.158-.508-.143-1.057-.332-1.576l.014.034a41.668,41.668,0,0,1-.828-16A1.8,1.8,0,0,0,160.17,274.616Z" style="fill:#c0392b"/><path d="M253.363,515.922c-5.843,4.314-14.262,6.1-16.841,13.677-3.306,9.534,3.771,19.211,7.657,27.585,12.023,22.382,35.054,38.41,60.743,39.319,2.869.173,3.582-4.208.814-4.99-23.527-5.956-37.749-26.888-38.036-49.922a3.138,3.138,0,0,1,5.8-1.713c24.41,39.634,67.389,42.447,108.768,21.41,2.236-1.078,1.36-4.879-1.157-4.785-32.676,2.356-71.1-8.282-77.949-41.383a3.138,3.138,0,0,1,5.357-2.783c30.117,32.187,66.2,45.134,101.115,6.737,2.022-1.944-.477-5.7-2.98-4.087-27.168,16.3-58.222,7.09-75.68-18.395-8.893-12.8-18.369-25.429-30.489-35.38-3-2.212-17.25-14.458-18.34-7.073C284.325,477.962,273.231,502.431,253.363,515.922Zm78.145,33.047Z" style="fill:#c0392b"/><path d="M488.6,172.1c-21.353,6.9-44.2-1.855-64.268-9.6-17.279-5.983-38.865-2.23-51.3,11.739-36.54,46.044,52.439,76.21,22.931,113.729-29.851,42.51-84.644,40.865-125.7,16.071-11.991-5.368-27.755-16.825-40.774-8.971-3.693,2.774-5.419,7.37-7.5,11.336-16.153,32.017-32.214,57.219-72.683,47.41,5.6-24.951,28.192-38.955,45.5-55.595.969-1.163,1.121-4.692-.517-4.007C108.365,330.149,89.352,440.18,99.755,437.931a85.173,85.173,0,0,1,35.6-4.1c10.354,1.805,13.26.372,19.915-7.534,32.014-36.825,115.3-19.889,104.737,36.565-4.312,14.781-23.116,25.976-38.545,32.858a4.23,4.23,0,0,0-2.113,5.672,93.965,93.965,0,0,0,5.01,9.372c.756,1.528,2.664,1.674,4.029,1.057,33.826-14.808,53.149-49.98,37.983-81.83-15.19-38.783,61.533-54.141-4.145-106.285a1.885,1.885,0,0,1,1.688-3.311c48.983,15.134,28.7,51.294,70.336,73.651,25.636,13.764,58.152,20.273,86.7,11.74,3.387-1.013,1.966-5.545-1.434-5.2-28.472,2.852-53.692-3.318-76.4-21.432-15.026-11.987,4.047-14.7,19.171-12.142,17.467,1.065,30,8.76,45.224,12.786C484.8,408.82,471,305.684,547.046,329.4c1.444.337,3.43-.734,3.228-2.462l-7.035-60.188a6.687,6.687,0,0,1,7.724-7.375l16.2,2.655a2.588,2.588,0,0,0,2.881-3.746C562.955,246.419,525.787,158.418,488.6,172.1Z" style="fill:#c0392b"/><path d="M477.943,390.587c-67.569,65.805-150.753,21.462-175.754-7.661a4.219,4.219,0,0,0-6.927.69c-4.95,8.644-9.873,16.033-13.956,25.529a22.418,22.418,0,0,0,9.352,27.834c14.695,8.7,27.855,19.59,46.921,41.49,31.406,33.69,75.32,23.487,98.119-6.66,1.672-2.033-.6-5.907-3.091-4.005-12.268,8.805-57.666,36.359-84.786-5.938-2.663-4.154-2.958-7.81,4.706-5.769,57.847,15.413,92.307-1.656,129.255-63.306C481.58,391.086,479.488,389.084,477.943,390.587Z" style="fill:#c0392b"/><path d="M220.637,285.833c2.547-6.978-8.182-4.983-10.929-1.2-1.831,3.054-.93,4.754,1.6,5.684C214.72,291.474,219.5,288.962,220.637,285.833Z" style="fill:#c0392b"/></svg>