<?xml version="1.0" ?><svg fill="#c0392b" data-name="Layer 4" id="Layer_4" viewBox="0 0 600 600" xmlns="http://www.w3.org/2000/svg"><title/><path d="M121.249,273.157c20.4,3.815,41.95,10.331,57.585,24.6-17.507-3.4-32.684,5.741-45.149,17.181a1.009,1.009,0,0,0,.707,1.706c19.885-1.067,42.077,1.951,56.826,16.58-7.819,1.91-14.954,7.54-19.521,14.037a1.006,1.006,0,0,0,.6,1.469c110.734,14.889,62.449,107.42,128.1,115.022,47.046-.882,24.783-103.78,130.9-115.019a1.008,1.008,0,0,0,.6-1.472c-4.565-6.5-11.7-12.124-19.514-14.035,14.847-14.493,36.847-17.686,56.82-16.582a1.01,1.01,0,0,0,.707-1.707c-12.462-11.438-27.649-20.58-45.15-17.18,15.636-14.267,37.186-20.783,57.586-24.6a1.009,1.009,0,0,0,.239-1.827c-16.653-8.6-35.458-11.975-53.832-14.773,2.559-2.971,24.358-39.628,18.448-39.138-5.693,2.39-12.489,2.476-17.649,5.98-3.436,3.006-6.783,14.157-15.811,23.443-10.715,11.021-23.547,20.376-27.255,36.017-3.6,14.3-8.244,31.972-23.043,38.54-12.849,6.149-25.885,13.565-33.806,25.815-4.607,9.082-4.545-6.275-4.842-9.233-.182-12.086,5.042-23.3,11.731-33.095,14.562-23.118,39.256-35.891,59.269-53.426,25.843-23.221,32.4-60.271,26.787-93.309-.135-.9-1.418-.906-1.827-.238-7.4,10.96-18.693,18.983-30.756,24.122-.138-22.792-5.723-46.3-19.181-64.986a1.009,1.009,0,0,0-1.863.5c-.309,31.126-15.006,64.535-43.38,79.071a1.466,1.466,0,0,1-1.782-2.257c3.382-3.821,18.29-25.341,10.433-28.2-1.918-.938-4.212-.037-6.18.307-17.89,3.065-36.268,2.116-54.136-.639-14.716-3.584-4.406,14.782-1.777,21.113a1.608,1.608,0,0,1-2.271,2.093c-23.756-14.645-34.09-44.494-35.216-71.483a1.009,1.009,0,0,0-1.863-.5C219.3,135.6,213.624,159.337,213.6,182.035c-12.062-5.142-23.356-13.161-30.755-24.122-.406-.663-1.692-.66-1.828.238-4.68,29.253-.9,61.482,18.778,84.8,16.941,20.019,41.989,30.8,58.842,50.983,11.906,13.719,22.842,31.418,19.658,50.344-.165,1.142-.5,6.218-2.156,5.784-20.1-31.314-45.135-19.873-55.528-54.972-2.659-8.025-3.91-16.5-8.348-23.831-3.777-6.234-21.008-17.8-30.406-36.024-5.491-10.65-7.1-13.469-19.483-15.945-1.6-.064-7.642-3.559-7.205-.641,4.327,13.58,11.835,26.074,19.678,37.908-18.374,2.8-37.18,6.173-53.832,14.773A1.009,1.009,0,0,0,121.249,273.157Z" style="fill:#c0392b"/><path d="M68.791,539.1a1.007,1.007,0,0,0,1.369,1.368c30.17-19.859,62.563-36.106,95.45-50.933a1.007,1.007,0,0,0-.505-1.863c-4.839-.069-39.434,3.816-31.765-6.987,0,0,50.5-48.771,59.121-57.1,1.986-2.216-2.382-5.905-4.466-3.827l-58.758,56.87c-10.485,6.792-5.947-22.9-5.517-27.526-.171-.844-1.475-1.174-1.837-.291C105.316,479.534,88.272,510.094,68.791,539.1Z" style="fill:#c0392b"/><path d="M490.69,81.438a1.009,1.009,0,0,0-1.863-.5c-12.1,17.575-18.079,23.432-18.011,45.533a65.562,65.562,0,0,1-6.477,21.5,384.081,384.081,0,0,1-27.955,26.4c-1.711,1.145-1.246,7.723-1.6,9.547a.705.705,0,0,0,1.2.557c25.142-26.716,58.48-55.069,85.038-82.475,11.506-9.88,9.714-46.513,7.864-61.027a.958.958,0,0,0-1.669-.158,194.6,194.6,0,0,0-24.748,21.781c-3.866,3.465-5.081,8.412-4.049,13.4.748,10.924,2.038,22.509-1.814,33.018C491.543,100.863,490.949,90.784,490.69,81.438Z" style="fill:#c0392b"/><path d="M559.763,134.924c7.775-1.094,12.89-8.37,18.543-13.193a191.417,191.417,0,0,0,13.153-14c.394-.537.432-1.409-.353-1.636-10.443-2.157-48.134-6.066-55.592.912-21.221,20.885-43.852,40.294-66.257,59.886-.862.742.257,2.171,1.212,1.57,14.17-9.42,29.834-10.55,46.29-10.138,11.961-1.259,21.7-9.3,31.989-14.857a1.009,1.009,0,0,0-.5-1.864c-9.283-.891-19.279-2.174-27.036-7.762C533.846,130.134,547.061,133.736,559.763,134.924Z" style="fill:#c0392b"/><path d="M531.222,539.061c-19.526-28.972-36.489-59.585-53.092-90.3-.48-1.073-2.087-.325-1.849.732.563,4.6,4.942,33.783-5.6,26.906-30.242-29.506-60.593-59.958-91.174-88.893a1.557,1.557,0,0,0-2.187.031c-1.385,1.839-3.678,3.574-2.257,5.377,7.305,6.942,60.57,57.587,91.56,87.7,7.656,10.886-26.777,6.924-31.716,7.019a1.006,1.006,0,0,0-.5,1.862c32.9,14.806,65.269,31.1,95.45,50.933A1.007,1.007,0,0,0,531.222,539.061Z" style="fill:#c0392b"/><path d="M82.162,105.353c5.71,6.043,11.644,11.873,17.735,17.532,19.886,16.922,60.768,58.29,67.422,64.591a.707.707,0,0,0,1.2-.512v-7.63a3.65,3.65,0,0,0-1.146-2.661c-3.928-3.7-17.449-16.458-32.769-31.028a65.983,65.983,0,0,1-5.123-17.143c-1.241-11.439-.108-21.434-7.4-31.337-3.511-5.5-7.166-10.913-10.9-16.268a1.009,1.009,0,0,0-1.863.5c-.259,9.348-.853,19.433-5.919,27.576-3.651-9.987-2.623-20.971-1.955-31.373.852-4.926.907-10.219-2.927-13.952C90.824,55.14,81.934,47.7,72.8,40.773a.958.958,0,0,0-1.668.157,153.119,153.119,0,0,0,1.376,49.245C73.369,96.4,77.968,101.042,82.162,105.353Z" style="fill:#c0392b"/><path d="M32.054,131.041c3.722,3.656,8.751,4.553,13.686,3.183,10.849-1.5,22.312-3.518,33.059-.414-7.759,5.583-17.747,6.865-27.029,7.756a1.008,1.008,0,0,0-.5,1.863c18.36,10.747,24.1,16.452,46.481,14.93a65.731,65.731,0,0,1,31.8,10.066c.945.595,2.083-.82,1.212-1.57C108.846,147.79,86.91,128.7,66.027,108.511c-3.223-4.843-8.844-4.3-13.974-4.9a162.1,162.1,0,0,0-42.694,2.35c-.671-.015-1.306.594-1.022,1.25A169.9,169.9,0,0,0,32.054,131.041Z" style="fill:#c0392b"/><path d="M299.053,158.918h7.737a.915.915,0,0,0,.921-.908c.041-5.75.274-37.668.643-63.129a5.141,5.141,0,0,1,8.6-3.714,95.747,95.747,0,0,1,13.675,15.66,1.033,1.033,0,0,0,1.527.209c-7.931-33.689-18.886-68.186-24.6-102.768a1.008,1.008,0,0,0-1.929,0c-7.783,35.271-19.678,69.5-32.917,103.06-.366.924,1.043,1.71,1.672.973,4.425-5.182,10.68-12.215,17.328-17.549a5.127,5.127,0,0,1,8.3,4.19c-.764,26.633-1.7,57.318-1.87,63.034A.913.913,0,0,0,299.053,158.918Z" style="fill:#c0392b"/><path d="M265.918,583.645q-.735,4.471-1.471,8.942c-.148.9.9,2.054,1.615.639l23.606-21.564c15.11-5.484,9.906-22.766,10.753-35.226v-57.9a1.35,1.35,0,0,0-1.234-1.443c-1.381.2-4.4-.776-4.409,1.442-.172,7.855,1.234,17.136-4.123,23.863-6.93,9.552-15.021,17.431-17.243,35.694-.151.913.563,1.476,1.256,1.129q8.547-4.284,17.179-8.328c-2.645,5.394-6.572,9.9-10.787,14.04C267.369,557.253,269.091,566.827,265.918,583.645Z" style="fill:#c0392b"/><path d="M315.179,567.022c10.929,9.669,21.632,19.712,32.629,29.268.511.458,1.325-.161,1.287-.863-2.417-44.353-24.149-42.164-29.874-63.884a38.747,38.747,0,0,1,20.443,13.322c.619.787,1.582-.058,1.429-.973-3.162-25.03-17.508-30.517-30.087-48.564a.847.847,0,0,0-1.593.5c-.029,5.472.02,53.319,0,57.449A18.3,18.3,0,0,0,315.179,567.022Z" style="fill:#c0392b"/><path d="M206,402.367c.515,7.057,9.519.983,10.514-3.358C217.435,389.984,205,396.475,206,402.367Z" style="fill:#c0392b"/></svg>