<svg width="600" height="600" viewBox="0 0 600 600" fill="none" xmlns="http://www.w3.org/2000/svg">
<g clip-path="url(#clip0_624_1991)">
<path d="M487.841 83.2972C482.523 80.0042 476.159 78.8253 470.007 79.9934C463.854 81.1614 458.359 84.5916 454.608 89.6062C430.886 121.714 396.457 147.84 376.317 161.587C374.781 162.63 373.539 164.051 372.71 165.711C371.88 167.371 371.492 169.216 371.582 171.068C371.672 172.92 372.237 174.717 373.224 176.287C374.21 177.856 375.584 179.145 377.214 180.029C399.437 192.055 440.363 220.234 483.636 280.367C485.311 282.672 487.827 284.224 490.641 284.69C493.455 285.156 496.341 284.498 498.677 282.858C531.009 260.52 568.104 259.602 584.553 251.245C611.084 237.765 572.788 135.445 487.841 83.2972Z" fill="white"/>
<path d="M301.163 210.374C284.3 218.033 244.137 232.435 222.73 239.983C221.665 240.357 220.736 241.042 220.065 241.951C219.394 242.86 219.012 243.95 218.968 245.079C218.923 246.209 219.219 247.326 219.817 248.286C220.414 249.246 221.286 250.005 222.319 250.464C250.601 263.011 316.735 292.988 370.976 358.408C372.754 360.568 378.868 363.248 381.605 363.818C384.342 364.388 403 356.243 405.487 354.972C410.538 351.244 415.692 347.654 420.657 343.81C426.104 339.591 431.275 335.034 436.671 330.753C445.461 323.78 454.58 317.249 463.425 310.35C418.044 251.993 352.848 186.901 301.163 210.374Z" fill="white"/>
<path d="M193.509 270.382C177.883 262.446 159.966 260.279 142.915 264.262C121.975 269.153 95.8966 278.758 79.6504 285.128C78.0193 285.766 76.5765 286.807 75.4564 288.154C74.3362 289.501 73.575 291.11 73.2436 292.832C72.9122 294.553 73.0214 296.331 73.5609 298C74.1005 299.669 75.0529 301.175 76.3296 302.378C108.384 332.539 191.095 417.798 163.285 470.811C145.645 504.428 47.0371 461.2 29.3561 362.162C25.7489 341.943 44.6072 294.605 111.962 412.39C112.345 413.058 112.496 413.835 112.392 414.597C112.287 415.36 111.934 416.067 111.386 416.607C110.838 417.146 110.126 417.489 109.363 417.582C108.599 417.674 107.826 417.511 107.164 417.117C95.858 410.339 80.1293 403.103 77.3094 413.21C72.86 429.16 103.085 447.559 125.655 457.353C128.162 458.45 130.919 458.841 133.63 458.486C136.342 458.13 138.904 457.041 141.04 455.336C143.177 453.631 144.808 451.374 145.757 448.808C146.706 446.243 146.937 443.466 146.425 440.776C142.718 420.664 128.529 387.399 83.1249 340.229C38.9396 294.315 12.0291 309.407 5.40781 339.362C-8.40312 401.803 63.9336 489.828 117.907 509.22C143.815 520.507 180.96 524.749 199.655 499.06C203.427 493.832 230.674 459.865 268.353 438.66L296.84 424.291C305.095 419.851 313.422 415.55 321.68 411.117C332.386 405.371 342.844 399.133 353.069 392.551C293.492 326.695 228.315 288.056 193.509 270.382Z" fill="white"/>
</g>
<defs>
<clipPath id="clip0_624_1991">
<rect width="600" height="600" fill="white"/>
</clipPath>
</defs>
</svg>
