<?xml version="1.0" ?><svg fill="#c0392b" id="icon" viewBox="0 0 512 512" xmlns="http://www.w3.org/2000/svg"><title/><path d="M408.46,214.52l-13.07-9.39-.12-.09a10,10,0,0,0-14.81,4.36c-5.34,11.9-15.43,31.14-32.92,54.19a10.3,10.3,0,0,1-1.3,1.41,9.9,9.9,0,0,1-13.42-.21,10.22,10.22,0,0,1-.88-13.53,273.25,273.25,0,0,0,27.89-44.62,15.17,15.17,0,0,0-2.34-16.75C319.18,147.07,225.91,56.49,140.58,80.07a24,24,0,0,1-16.44-1.27L123,78.27a33.55,33.55,0,0,0-36.43,5.49h0A33.83,33.83,0,0,0,77,119.45l.39,1.22a24.22,24.22,0,0,1-.62,16.55C43.67,219.6,122.65,322.9,160.67,366A15,15,0,0,0,177,370.23a276.51,276.51,0,0,0,51.69-25.32,10.14,10.14,0,0,1,13.37,2.27,10,10,0,0,1-2.69,14.53c-27,16.68-49,25.28-62.11,29.48a10,10,0,0,0-6.64,12.51,11,11,0,0,0,.8,1.86l7.81,14.11a15.89,15.89,0,0,0,16.51,8.06c59.39-10.24,130.64-74,130.64-74S397.66,290,414.56,231.9A16,16,0,0,0,408.46,214.52ZM298.87,312.14a9.69,9.69,0,0,1-.31,1.94,9.38,9.38,0,0,1-.68,1.83,8.56,8.56,0,0,1-1,1.66,10.5,10.5,0,0,1-1.3,1.44,10.06,10.06,0,0,1-1.59,1.15,8.77,8.77,0,0,1-1.76.81,9.41,9.41,0,0,1-1.88.47,9.8,9.8,0,0,1-1.95.08A10,10,0,0,1,279.05,311a11.4,11.4,0,0,1,.3-1.93,10.56,10.56,0,0,1,.68-1.83,9.09,9.09,0,0,1,1-1.66,9.9,9.9,0,0,1,6.54-3.87,10.62,10.62,0,0,1,1.95-.09,9.94,9.94,0,0,1,9.34,10.51Z"/><path d="M339.61,368.59c-1.24,1.11-13.83,12.29-32.62,26a5.31,5.31,0,0,0,.48,8.88,49.86,49.86,0,0,0,70.32-62.94,5.27,5.27,0,0,0-8.74-1.49C353.36,356.2,340.85,367.48,339.61,368.59Z"/><path d="M50.87,304.78c18.08,9.71,41.74,26.79,55,54,.37.76.71,1.53,1,2.31,2.21,5.36,11,27.33,14.55,47.08a55.41,55.41,0,0,0,25.59,37.27,118.72,118.72,0,0,0,25.2,11.64c6.37,2.06,6.18,11.19-.24,11.95a89.29,89.29,0,0,1-52.09-9.24A58.6,58.6,0,0,1,90.8,424C87,410.5,83.65,391.88,82,374.43c-2.5-26.18-20.25-47.27-35.86-62.78C42.43,308,46.34,302.34,50.87,304.78Z"/><ellipse cx="209.46" cy="463.91" rx="9.88" ry="9.92"/><path d="M29.74,367a5.29,5.29,0,0,1,7.83-6.76c12.21,9.26,25.36,24.42,27.5,47.5l2.39,31.36a37.19,37.19,0,0,0,12.86,25.52,54.71,54.71,0,0,0,10.23,6.92,5,5,0,0,1-2,9.42c-15.68,1.1-36.06-2.55-43.64-26.41a27.46,27.46,0,0,1-1.17-6.86c-.37-7.74-1.46-28.08-3.12-44.92A94.89,94.89,0,0,0,31,369.49C30.62,368.66,30.19,367.83,29.74,367Z"/><path d="M314.5,80.11c10.35,17.76,28.25,40.85,55.84,53.15.78.34,1.56.66,2.34,1,5.43,2,27.63,10,47.43,12.81a55.2,55.2,0,0,1,38.08,24.26,119.67,119.67,0,0,1,12.54,24.83c2.28,6.31,11.37,5.78,11.89-.69a90.21,90.21,0,0,0-11.18-51.9,58.41,58.41,0,0,0-36.76-27.86c-13.55-3.34-32.22-6-49.65-7-26.16-1.52-47.84-18.52-63.87-33.59C317.38,71.52,311.91,75.65,314.5,80.11Z"/><ellipse cx="283.72" cy="58.61" rx="9.88" ry="9.92"/><path d="M328.81,31.46a6.21,6.21,0,0,0-7.21,9.77c11.83,13.54,30.62,27.7,57.71,28.24l36.77.13a43.31,43.31,0,0,1,30.84,12.93,64.91,64.91,0,0,1,8.94,11.41c3.09,5,10.82,2.72,10.8-3.2-.05-18.5-6-42.13-34.51-49a30.93,30.93,0,0,0-8.08-.79c-9.06.22-32.87.68-52.64.16a110.15,110.15,0,0,1-39.6-8.36C330.83,32.34,329.82,31.91,328.81,31.46Z"/></svg>