<svg fill="#c0392b" xmlns="http://www.w3.org/2000/svg" x="0px" y="0px" width="100" height="100" viewBox="0 0 96 96">
<path d="M 1 7.8203125 L 1 17.359375 A 33.3 33.3 0 0 0 6.1503906 35.199219 A 20.84 20.84 0 0 1 19.339844 27.580078 L 14 22.230469 A 1.0040916 1.0040916 0 0 1 15.419922 20.810547 L 22 27.359375 A 19.9 19.9 0 0 1 26.650391 27.730469 A 23 23 0 0 1 32.929688 16.349609 A 33.42 33.42 0 0 0 10.539062 7.8203125 L 1 7.8203125 z M 47.710938 12.005859 C 39.008887 12.304102 30.701563 18.380469 28.539062 28.199219 A 21 21 0 0 1 43.400391 46.619141 A 21.61 21.61 0 0 1 63.210938 47 A 21.4 21.4 0 0 0 62.560547 18.150391 C 58.296797 13.729141 52.932168 11.826914 47.710938 12.005859 z M 50.855469 18.052734 A 3.59 3.59 0 0 1 53 18.859375 A 3.63 3.63 0 0 1 55.240234 18.080078 A 3.58 3.58 0 0 1 58 23.900391 A 3.59 3.59 0 0 1 53 28.900391 A 3.58 3.58 0 0 1 48 23.900391 A 3.54 3.54 0 0 1 47.140625 21.660156 L 47.140625 21.619141 A 3.59 3.59 0 0 1 50.855469 18.052734 z M 50.699219 20.060547 A 1.5803876 1.5803876 0 0 0 49.609375 22.759766 L 49.849609 23 A 1.26 1.26 0 0 1 49.849609 24.759766 L 49.609375 25 A 1.5803876 1.5803876 0 0 0 51.839844 27.240234 L 52.080078 27 A 1.24 1.24 0 0 1 53.839844 27 L 54.080078 27.240234 A 1.5839192 1.5839192 0 1 0 56.320312 25 L 56.080078 24.759766 A 1.26 1.26 0 0 1 56.080078 23 L 56.320312 22.759766 A 1.58 1.58 0 0 0 56.320312 20.519531 A 1.6 1.6 0 0 0 54.080078 20.519531 L 53.839844 20.759766 A 1.24 1.24 0 0 1 52.080078 20.759766 L 51.839844 20.519531 A 1.5803876 1.5803876 0 0 0 50.699219 20.060547 z M 22.226562 29.306641 A 19 19 0 1 0 35.929688 61.720703 A 19 19 0 0 0 35.929688 34.890625 A 19 19 0 0 0 22.226562 29.306641 z M 70.380859 34.849609 A 23 23 0 0 1 65 48 A 20.11 20.11 0 0 1 67.460938 49.890625 L 75.660156 49.890625 A 1 1 0 0 1 75.660156 51.890625 L 69.429688 51.890625 A 23.09 23.09 0 0 1 75.119141 65.740234 A 33.22 33.22 0 0 0 88.25 57.640625 L 95 50.890625 L 88.25 44.150391 A 33.28 33.28 0 0 0 70.380859 34.849609 z M 18.408203 37.980469 A 3.74 3.74 0 0 1 21.269531 44.130859 A 3.74 3.74 0 0 1 21.119141 49.210938 A 3.72 3.72 0 0 1 16.029297 49.390625 A 3.73 3.73 0 0 1 10.769531 44.130859 A 3.73 3.73 0 0 1 16 38.859375 A 3.74 3.74 0 0 1 18.408203 37.980469 z M 18.513672 39.900391 A 1.73 1.73 0 0 0 17.259766 40.449219 L 16.990234 40.720703 A 1.36 1.36 0 0 1 15.070312 40.720703 L 14.810547 40.449219 A 1.74 1.74 0 0 0 12.359375 40.449219 A 1.73 1.73 0 0 0 12.359375 42.900391 L 12.619141 43.169922 A 1.36 1.36 0 0 1 12.619141 45.089844 L 12.359375 45.349609 A 1.7324116 1.7324116 0 0 0 14.810547 47.800781 L 15.070312 47.539062 A 1.36 1.36 0 0 1 16.990234 47.539062 L 17.259766 47.800781 A 1.73 1.73 0 1 0 19.699219 45.349609 L 19.439453 45.089844 A 1.36 1.36 0 0 1 19.439453 43.169922 L 19.699219 42.900391 A 1.73 1.73 0 0 0 18.513672 39.900391 z M 52.238281 46.396484 A 19.67 19.67 0 0 0 43.470703 48.820312 A 21 21 0 0 1 32.740234 66.630859 A 21.18 21.18 0 0 0 38.660156 82.060547 A 19.78 19.78 0 0 0 67.269531 82.060547 C 77.209531 71.790547 74.14 54.530937 61.75 48.460938 A 19.67 19.67 0 0 0 52.238281 46.396484 z M 60.179688 54.712891 A 3.73 3.73 0 0 1 63.070312 60.910156 A 3.75 3.75 0 0 1 62.890625 66 A 3.72 3.72 0 0 1 57.800781 66.179688 A 3.73 3.73 0 0 1 52.539062 60.910156 A 3.73 3.73 0 0 1 57.800781 55.650391 A 3.73 3.73 0 0 1 60.179688 54.712891 z M 60.232422 56.710938 A 1.73 1.73 0 0 0 59.029297 57.220703 L 58.759766 57.480469 A 1.36 1.36 0 0 1 56.839844 57.480469 L 56.580078 57.220703 A 1.7324116 1.7324116 0 0 0 54.130859 59.669922 L 54.390625 59.929688 A 1.37 1.37 0 0 1 54.390625 61.859375 L 54.130859 62.119141 A 1.73 1.73 0 0 0 54.130859 64.570312 A 1.74 1.74 0 0 0 56.580078 64.570312 L 56.839844 64.310547 A 1.34 1.34 0 0 1 58.759766 64.310547 L 59.029297 64.570312 A 1.7324116 1.7324116 0 0 0 61.480469 62.119141 L 61.210938 61.859375 A 1.37 1.37 0 0 1 61.210938 59.929688 L 61.480469 59.669922 A 1.74 1.74 0 0 0 61.480469 57.220703 A 1.73 1.73 0 0 0 60.232422 56.710938 z"></path>
</svg>