<?xml version="1.0" ?><svg fill="#c0392b" data-name="Layer 4" id="Layer_4" viewBox="0 0 600 600" xmlns="http://www.w3.org/2000/svg"><title/><path d="M593.252,279.583a22.458,22.458,0,0,0-7.794-17c-19.721-16.979-58.65-47.718-75.136-60.666a1.464,1.464,0,0,1,1.456-2.507c14.32,5.834,44.192,19.306,80.172,42.936a1.046,1.046,0,0,0,1.621-.885c-.123-7-2.12-12.682-8.416-16.467-5.641-3.392-118.181-65.138-132.721-87.393C368.584,9.262,299.907,40.121,277.929,45.939c-25.77,6.83-49.62,19.324-74.329,29.136-40.953,17.842-61.746-6.7-99.386-9-52.8-3.229-86.32,22.882-97.357,33.158a1.559,1.559,0,0,0,1.441,2.65C111.654,77.163,117.771,136.959,188.049,171.9c0,0-55.521,45.037-136.689,78.868-10.042,6.279,1.061,7.754,6.587,7.143,36.234-4.009,62.622-11.931,76.977-17.14a29.73,29.73,0,0,1,24.592,1.978c12.59,7,32.133,17.119,44.733,20.057,30.712,7.163,49.046,9.42,88.7,75.076,22.1,36.6,48.893,41.665,56.454,44.651a3.881,3.881,0,0,0,4.965-2l11.557-25.388a3.988,3.988,0,0,1,5.377-1.932l31.953,15.259a3.876,3.876,0,0,0,5.182-1.784l32.424-52.9a1.74,1.74,0,0,1,3.271,1.1l-24.722,81.413a3.952,3.952,0,0,1-5.694,2.755L384.37,383.893a3.984,3.984,0,0,0-5.533,2.059c-3.05,7.638-7.26,20.132-9.476,26.83a3.935,3.935,0,0,1-5.706,2.172c-35.4-20.365-66.213-15.931-108.437-95.8-6-11.346-13.295-14.58-10.1-1.363,2.167,8.958,6.141,18.324,2.75,27.751-8.991,26.112-21.965,51.9-28.538,78.721-15.393,62.812,7.326,108.376,19.8,127.4a21.661,21.661,0,0,0,18.132,9.821q166.3-.156,332.61-.081c4.084.06,3.773-.118,3.767-3.982ZM324.353,127.49c-6.758,9.227-15.742,13.972-27.22,13.881-19.514.6-36.648-15.623-31.171-35.522,2.816-10.081,12.456-22.367,23.724-23.363C326.007,79.274,337.95,108.925,324.353,127.49ZM483.145,293.252a421.133,421.133,0,0,1-22.749,66.71c-3.615,6.272-11.862,2.017-10.4-4.513,8-35.665,22-66.38,30.256-79.2a2.111,2.111,0,0,1,3.861.833A43.168,43.168,0,0,1,483.145,293.252Z" style="fill:#c0392b"/><path d="M191.629,442.1c-37.272,41.582-55.5,98.076-58.644,113.867a4.37,4.37,0,0,0,4.3,5.193h76.637a1.461,1.461,0,0,0,1.218-2.269c-6.74-10.247-32.429-54.376-20.175-115.412C195.365,441.511,192.968,440.605,191.629,442.1Z" style="fill:#c0392b"/></svg>