<?xml version="1.0" ?><svg fill="#c0392b" data-name="Layer 4" id="Layer_4" viewBox="0 0 600 600" xmlns="http://www.w3.org/2000/svg"><title/><path d="M188.388,271.831c-4.586,5.093-3.54,10.413,3.163,11.844,17.669,3.772,45.891,29.628,19.183,82.12-1.291,2.537,2.52,4.778,4.611,2.847,28.336-26.177,122.849-113.574,200.819-162.961,126.61-80.2,162.555-107.2,175.606-168.439,2.788-13.077-5.489-35.635-26.312-26.158C344.88,111.468,221.085,235.514,188.388,271.831Z" style="fill:#c0392b"/><path d="M540.55,188.8A13.324,13.324,0,0,0,520.6,177.361c-49.892,28.749-177.585,99.868-307.038,227-4.356,4.278-4.184,8.287,1.5,10.25,29.157,10.071,29.147,36.032,23.429,53.222-1.245,3.743,3.687,6.776,6.222,3.755,36.447-43.425,97.712-95.526,189.979-144.558C528.4,277.23,540.967,220.581,540.55,188.8Z" style="fill:#c0392b"/><path d="M408.577,436.843c16.734-19.383,29.037-53.014,9.861-62.042a19.5,19.5,0,0,0-14.156-.73c-41.041,12.8-107.474,76.283-154.821,123.438-9.015,8.979-16.712,19.316-25.056,28.988-2.608,3.659-6.514,10.134-2.644,13.863,16.51,15.906,13.905,37.244,11.3,47.607a4.856,4.856,0,0,0,4.517,6.164H305.94a21.274,21.274,0,0,0,10.745-2.941c11.745-6.867,34.127-21.9,39.789-44.863,1.98-8.033-1.872-13.324-9.615-15.192-19.081-4.678-36.442,6.366-53.4,14.644-1.928.94-3.671-1.639-2.171-3.217C304.816,528.324,377.283,473.09,408.577,436.843Z" style="fill:#c0392b"/><path d="M205.493,589.816c20.394-49.2-25.259-54.384-65.889.619-1.06,1.434.017,3.7,1.546,3.7H200.9C203.039,594.131,204.493,592.228,205.493,589.816Z" style="fill:#c0392b"/><path d="M7.706,450.516V579.507a14.624,14.624,0,0,0,14.623,14.624H90.957a49.631,49.631,0,0,0,33.313-12.818c33.418-30.246,110.117-105.822,78.955-136.573a27.565,27.565,0,0,0-23.04-7.526c-25.2,3.424-57.808,31.731-78.41,52.121-3.99,3.949-10.225-1.473-6.841-5.951,25.692-34.006,83.76-72.867,97.3-133.556,3.409-15.281,3.228-47.059-18.553-47.138-11.078-.793-28.177,9.6-43.4,21.087-5.249,3.961-11.978-2.513-8.279-7.95,30.989-45.56,69.1-89.186,107.986-126.644A1195.421,1195.421,0,0,1,472.774,22.405c4.148-1.78,30.575-16.233-4.883-16.233-21.634.031-36.445.078-57.956-.045a18,18,0,0,0-9.5,2.635C364.541,30.724,313.985,68,276.723,100.749a2.584,2.584,0,0,1-3.639-3.656c26.8-29.858,81.318-76.249,96.2-88.158a1.722,1.722,0,0,0-1.1-3.065l-19.169.269A9.764,9.764,0,0,0,342.306,8.5C206.348,118.247,93.532,257.884,16.1,414.664A80.979,80.979,0,0,0,7.706,450.516Z" style="fill:#c0392b"/></svg>