<svg width="600" height="600" viewBox="0 0 600 600" fill="none" xmlns="http://www.w3.org/2000/svg">
<g clip-path="url(#clip0_1360_2015)">
<path fill-rule="evenodd" clip-rule="evenodd" d="M213.4 121.273C153.171 89.8635 91.1892 57.5403 36.4634 18.9392C31.2875 15.2872 22.9882 22.5582 27.7808 26.7021C77.808 69.9652 85.2486 139.415 86.6139 189.323C86.6823 191.822 86.7374 194.549 86.7968 197.487C87.3465 224.688 88.261 269.936 103.454 319.79L145.805 248.5C141.801 204.16 147.561 165.613 150.803 148.664C151.012 147.574 151.47 146.547 152.14 145.663C152.81 144.779 153.675 144.061 154.667 143.566C155.659 143.071 156.752 142.812 157.86 142.809C158.968 142.805 160.062 143.059 161.056 143.548C199.469 162.426 241.037 183.792 282 209.824L325.705 155.749C259.369 107.417 189.841 67.9833 156.203 56.3985C150.365 54.3873 152.325 59.2367 154.035 60.3318C196.475 87.5219 233.074 111.015 253.147 133.17C253.794 133.876 254.171 134.788 254.211 135.746C254.252 136.703 253.954 137.645 253.369 138.404C252.785 139.164 251.951 139.693 251.016 139.897C250.081 140.102 249.103 139.97 248.257 139.524C236.748 133.448 225.107 127.378 213.4 121.273ZM447.933 270.5C454.769 278.988 461.275 287.546 467.465 296.154L420 306.251L416.679 299.5L447.933 270.5ZM493.988 336.393C549.334 428.241 572.324 522.221 581.12 595.013C581.243 596.021 581.082 597.044 580.654 597.966C580.226 598.888 579.549 599.671 578.7 600.228C577.85 600.785 576.862 601.092 575.847 601.115C574.833 601.138 573.832 600.877 572.959 600.359L554.576 589.465C522.201 568.956 483.752 563.844 439.977 558.025C383.109 550.465 317.252 541.709 244.049 496.447L304.5 466.158C334.193 481.158 380.643 491.154 416.679 451.314C421.77 445.602 425.955 439.141 429.085 432.157C429.315 431.667 429.368 431.112 429.234 430.587C429.1 430.063 428.789 429.602 428.352 429.283C427.916 428.964 427.382 428.807 426.842 428.839C426.302 428.871 425.79 429.09 425.394 429.459C417.343 437.103 407.313 442.332 396.444 444.552C385.576 446.772 374.307 445.893 363.919 442.016L408 398.403L408 382.5L493.988 336.393ZM498.264 503.898C463.496 507.968 428.328 506.963 393.858 500.914C391.443 500.489 391.225 496.866 393.642 496.447C424.27 491.126 465.642 461.361 465.396 400.899C465.402 400.293 465.608 399.705 465.982 399.228C466.356 398.751 466.878 398.411 467.465 398.262C468.052 398.113 468.672 398.162 469.227 398.403C469.783 398.643 470.243 399.062 470.536 399.592C486.238 427.593 498.992 457.153 508.591 487.798C509.14 489.538 509.299 491.378 509.057 493.188C508.816 494.997 508.18 496.732 507.194 498.268C506.209 499.805 504.898 501.106 503.354 502.079C501.811 503.052 500.073 503.673 498.264 503.898Z" fill="white"/>
<path d="M541.932 73.3221C536.198 76.3838 529.891 79.9571 523.074 84.0128C510.374 91.5133 498.997 101.042 489.396 112.22C458.94 147.964 420.61 185.786 376.756 214.203C364.704 222.04 352.059 228.933 338.935 234.817L381.044 156.388C383.623 151.602 377.047 147.209 373.593 151.404C318.433 218.303 227.423 322.49 227.423 322.49C148.194 403.765 87.2178 485.679 58.5114 531.803C52.4161 541.576 63.2715 553.08 73.4477 547.677C85.1055 541.455 370.932 403.245 370.932 403.245C375.859 400.947 373.256 393.529 367.962 394.796L202.254 434.562C229.399 405.07 261.422 375.612 297.238 352.406C310.298 343.919 324.049 336.54 338.348 330.349C355.431 322.858 370.911 312.168 383.95 298.859C464.457 217.432 527.959 135.542 556.786 89.1835C562.933 79.3911 552.161 67.8789 541.932 73.3221Z" fill="white"/>
<path d="M475.792 320.861C476.444 320.463 476.935 319.85 477.18 319.129C477.425 318.407 477.407 317.623 477.131 316.913C476.855 316.202 476.337 315.611 475.668 315.243C475 314.874 474.222 314.751 473.472 314.895L413.099 326.561C406.172 327.887 399.687 330.912 394.228 335.363L373.298 352.452C372.628 353.002 372.143 353.743 371.907 354.575C371.67 355.408 371.695 356.293 371.976 357.111C372.258 357.93 372.783 358.643 373.482 359.156C374.181 359.67 375.021 359.958 375.888 359.983L397.623 360.548C405.834 360.759 413.929 358.596 420.932 354.319L475.792 320.861Z" fill="white"/>
<path d="M138.942 376.384L151.509 358.705C156.251 352.019 158.952 344.109 159.288 335.927L161.896 271.843C161.934 271.078 161.699 270.324 161.233 269.715C160.768 269.106 160.102 268.68 159.352 268.512C158.602 268.345 157.818 268.446 157.136 268.799C156.454 269.152 155.919 269.733 155.625 270.441L131.766 326.942C129.029 333.415 127.953 340.465 128.633 347.457L131.227 374.366C131.319 375.224 131.67 376.034 132.235 376.688C132.799 377.342 133.55 377.809 134.387 378.028C135.224 378.247 136.108 378.207 136.922 377.913C137.735 377.619 138.44 377.086 138.942 376.384Z" fill="white"/>
</g>
<defs>
<clipPath id="clip0_1360_2015">
<rect width="600" height="600" fill="white"/>
</clipPath>
</defs>
</svg>
