<?xml version="1.0" ?><svg fill="#c0392b" data-name="Layer 4" id="Layer_4" viewBox="0 0 600 600" xmlns="http://www.w3.org/2000/svg"><title/><path d="M308,219.469C301.781,155.384,282.24,90.077,267.65,33.813c-.866-3.341-.953-7.471,3.551-8.377,4.149-.835,4.052,3.659,4.971,5.924,4.211,10.375,8.026,20.915,11.793,31.464,1.037,2.9,2.259,4.031,5.286,2.531,6.23-3.087,12.519-6.059,18.817-9.008,19.594-9.174,38.94-18.766,56.411-32.114a4.2,4.2,0,0,1,6.746,3.107c.5,9.664,1.111,25.681,1.2,34.935.021,2.1-1.03,5.089-2.614,6.205-21.312,15.393-43.221,30.162-67.849,39.881-2.1.879-2.925,1.762-2.152,4.365,3.531,11.893,3.472,12.042,14.87,7,21.471-9.508,40.243-17.338,59.283-31.019,4-2.878,7.474-2.7,11.03.412,28.31,26.677,64.614,41.912,99.486,53.02,3.06.974,4.489,2.725,4.243,6.022C488.535,204.373,468.261,274.8,468.261,274.8c8.845.658,12.009-1.135,14.391-8.7,14.546-41.187,21.571-84.121,26.253-127.42.665-4.9-1.069-7.025-6.008-8.492-24.447-7.26-47.237-18.323-68.62-32.119-43.446-29.133-46.348-30.526-43.488-78.033a4.69,4.69,0,0,1,7.486-3.478c38.867,29.02,81.633,60.17,145.758,92.047,5.71,2.839,9.265,6.371,8.707,13.4-3.9,49.1-10.459,82.508-19.975,128.055-1.519,7.27,4.072,11.205,9.5,13.283a2.426,2.426,0,0,1-.236,4.617c-14.156,3.715-40.94,10.763-54.586,14.481-17.805,4.852-49.277,13.925-66.65,18.959a2.243,2.243,0,0,0,.546,4.395,206.632,206.632,0,0,0,21.095-.163,3.759,3.759,0,0,1,3.517,5.646c-13.6,23.084-34.831,51.658-59.137,66.094-2.684,1.717-4.316,1.474-6.341-1.153a740.446,740.446,0,0,0-79.256-86.923A55.619,55.619,0,0,1,286.3,265.86a590.25,590.25,0,0,1-25.574-121.976c-.569-4.539.247-6.894,5.639-7.726,11.218-1.729,10.967-2.1,14.19,8.788,7.773,25.073,14.622,50.5,22.63,75.5Z" style="fill:#c0392b"/><path d="M373.367,425.832a1.953,1.953,0,0,0-3.421,1.872c34.9,73.333,46.182,151.1,46.967,159.378.627,6.621-2.548,9.907-9.142,10.36H303.212c-9.541-.416-14.321-.438-11.063-9.394,18.375-57.4,13.7-122.855-13.691-176.656a55.167,55.167,0,0,0-39.638-29.341c-27.192-4.756-74.312-10.05-132.233-4.457a9.787,9.787,0,0,0-6.968,15.5A125.179,125.179,0,0,0,119.4,414.624a2.17,2.17,0,0,1-2.121,3.694C85.13,407.335,46.92,394.489,15.165,390.294c-9.752-1.289-10.3-2.513-4.647-10.9C33.764,344.418,60.35,312.2,93.3,286.007a2.18,2.18,0,0,1,3.315,2.664c-8.888,18.313-12.765,33.14-14.407,43.511a9.762,9.762,0,0,0,13.193,10.6c57.219-22.49,163.186-39.308,189.1-42.036a11.241,11.241,0,0,1,9.013,3.1c21.647,20.993,132.6,134.625,155.774,279.406,1.219,7.618-1.18,11.818-7.885,11.672a4.422,4.422,0,0,1-3.118-2.467C417.791,506.852,390.315,453.008,373.367,425.832ZM129.934,368.045c45.207-4.188,84.613-.289,126.632,7.707a2.393,2.393,0,0,0,1.567-4.467c-53.372-28.432-107.027-14.655-128.961-6.543A1.709,1.709,0,0,0,129.934,368.045Z" style="fill:#c0392b"/><path d="M275.4,277.875a3.321,3.321,0,0,1-3.155,4.727c-12.6-.58-36.011-1.4-37.931-9.068-4.553-15.37-9.713-30.594-13.484-46.154a582.9,582.9,0,0,1-16.11-126.709c-.03-1.576,1.449-4.222,2.76-4.623,12.553-3.839,33.243-11.767,44.834-16.3a7.967,7.967,0,0,1,10.672,5.631c2.059,8.928,4.967,22.118,5.632,28.153a8.4,8.4,0,0,1-5.978,8.971c-3.669,1.084-8.06,2.312-11.043,2.918-3.348.68-4.345,2.141-4.071,5.235C251.5,180.659,254.042,231.765,275.4,277.875Z" style="fill:#c0392b"/><path d="M512.83,291.891a3.021,3.021,0,0,1,3.313,4.393c-22.424,41.1-49.84,73.861-82.772,107.225A127.382,127.382,0,0,1,420.83,414.3c-3.22,2.557-6.092,3.4-9.217-1.017-4.485-6.346-9.813-12.1-14.806-18.083-1.876-2.248-2.679-4.506-.07-6.71,21.678-18.32,52.856-55.323,67.336-83.577a8.047,8.047,0,0,1,4.938-3.889C480.971,299,502.2,294.294,512.83,291.891Z" style="fill:#c0392b"/><path d="M576.647,99.136a35.051,35.051,0,0,1-24.5-3.163C511.4,74.374,421.852,14.1,416,9.718c-1.947-1.551-4.273-4.314-2.814-6.87.293-.453,2-.315,2.919.006C440,11.25,523.913,55.109,543.383,65.526c13.758,7.288,27.7,14.229,41.442,21.546,1.567.835,3.8,3.387,3.259,4.671C586.176,96.253,579.182,98.533,576.647,99.136Z" style="fill:#c0392b"/><path d="M593.1,118.732c-5.5,67.934-7.392,86.263-18.024,129.029-.494,1.986-2.719,4.6-4.662,5-7.835,1.135-24.658,4.641-21.623-5.887,13.328-46.224,20.083-112.388,21.687-129.695.238-2.571,2.39-4.769,5.365-5.489C584.106,109.7,592.849,108.285,593.1,118.732Z" style="fill:#c0392b"/><path d="M425.457,422.667C467.63,391.174,503.379,349.79,527.122,302.7c4.637-10.138,13.76-12.074,22.738-14.383,7.253-1.865,6.745,4.992,3.938,8.5-13.846,24.159-29.31,45.622-49.033,65.6-10.718,10.857-20.127,23.2-31.786,32.88a331.274,331.274,0,0,1-45.706,30.208A1.691,1.691,0,0,1,425.457,422.667Z" style="fill:#c0392b"/><path d="M479.189,510.218a2.16,2.16,0,0,1-3.6,2.113c-22.693-22.073-32.285-46.053-38.08-59.346-.672-1.54-1.029-5.192.037-5.232C454.029,447.139,474.322,492.9,479.189,510.218Z" style="fill:#c0392b"/><path d="M144.437,237.25c-25.883-25.092,30.551,2.557,51.945,26.669a3.006,3.006,0,0,1-3.154,4.9C177.9,263.66,156.417,248.864,144.437,237.25Z" style="fill:#c0392b"/><path d="M186.62,209.466a3.54,3.54,0,0,1-5.773,3.832c-12.754-12.542-35.736-46.889-47.4-66.978l-.075-.132c-2.443-4.341,3.028-8.814,6.9-5.676C155.608,152.956,180.262,193.324,186.62,209.466Z" style="fill:#c0392b"/><path d="M522.356,469.4c2.372,3.962-4.821,5.832-8.9,4.292-9.082-3.1-24.379-15.957-31.094-22.759a1.947,1.947,0,0,1,1.767-3.277C493.783,449.569,514.171,455.731,522.356,469.4Z" style="fill:#c0392b"/><path d="M136.954,283.976c.073-.443,0-4.3,7.95-3.008,4.114.668,31.352,11.336,9.762,9.041C152.457,289.775,137.269,289.9,136.954,283.976Z" style="fill:#c0392b"/></svg>