<?xml version="1.0" ?><svg fill="#c0392b" data-name="Layer 4" id="Layer_4" viewBox="0 0 600 600" xmlns="http://www.w3.org/2000/svg"><title/><path d="M332.827,262.544C141.063,203.526,113.726,130.731,78.1,86.18c-3.529-1.54-58.561-30-58.561-30,69.935,231.349,448.939,276.511,556.6,299.63a3.522,3.522,0,0,0,4.258-3.449V325.209a6.451,6.451,0,0,0-5.543-6.393C518.424,310.8,438.031,294.682,332.827,262.544Z" style="fill:#c0392b"/><path d="M216.661,191.755c118.633,64.467,266.61,94.764,359.774,110.116a3.4,3.4,0,0,0,3.96-3.358V254.794a7.049,7.049,0,0,0-5.951-6.962c-54.268-8.561-107.63-16.941-156.279-33.868a1506.5,1506.5,0,0,0,157.443,19.089c4.911.254,4.936-4.758,4.828-8.651a2.407,2.407,0,0,0-2.306-2.343c-167.422-7.434-371.258-82.96-460.24-119.138C135.454,133.338,165.98,164.215,216.661,191.755Z" style="fill:#c0392b"/><path d="M195.016,330.806c-4.225-11.436-5.671-36.488-3.028-50.032a8.044,8.044,0,0,0-5.015-9.009C117.218,244.559,76.832,190.421,52.7,161.933a2.84,2.84,0,0,0-5.107,1.661c-1.823,29.556.853,72.729,4.607,82.775,17.287,43.005,51.775-.252,68.694,51.435,6.6,27.354-3.691,56.533,3.765,83.942C145.613,454.03,232.663,432.642,195.016,330.806Zm-40.42,68.5c-22.992-.457-26.214-65.556,2.039-50.994C174,361.507,175.314,399.648,154.6,399.31Z" style="fill:#c0392b"/><path d="M531.157,368.116c-109.1-13.587-197.373-38.871-257.2-60.129a3.93,3.93,0,0,0-4.569,5.906c26.8,39.743,27.388,71.789,24.945,86.086-7.836,42.77-48.088,95.862-8.719,133.833,39.605,29.817,79.1-12.471,73.139-54.64-2.572-28.664-19.027-61.357-1.311-87.951,8.565-12.392,27.008-18.686,39.388-10.1,19.633,16.515,14.652,47.7,51.293,46.192,32.019-3.477,30.508-31.566,49.469-46.884,11.084-7.254,23.946-4.051,33.671-5.58A3.4,3.4,0,0,0,531.157,368.116Zm-211.664,122.4c-.777,17.638-18.838,31.834-31.062,13.721-11.7-17.831,10.71-67.461,29.017-34.473C320.355,476.172,320.435,483.532,319.493,490.513Z" style="fill:#c0392b"/></svg>