<?xml version="1.0" ?><svg fill="#c0392b" data-name="Layer 5" id="Layer_5" viewBox="0 0 600 600" xmlns="http://www.w3.org/2000/svg"><title/><path d="M51.649,203.85a5.5,5.5,0,0,0-2.15,8.683c17.758,20.868,80.645,90.921,128.557,95.887,46.1,4.778,125.438-32.18,146.493-42.491a4.86,4.86,0,0,0,1.719-7.327c-13.085-17.017-60.337-75.069-105.639-88.344C175.023,156.9,78.419,193.171,51.649,203.85Zm187.925,30.336c29.215-1.177,29.312,25.136,11.693,25.136C218.418,259.323,222.43,237,239.574,234.186Z" style="fill:#c0392b"/><path d="M304.39,3.986a5.5,5.5,0,0,0-7.646,1.742C286.2,22.789,250.541,83,245.72,124.858a43.066,43.066,0,0,0,14.61,37.211c28.555,24.975,54.972,45.829,81.36,86.286a4.859,4.859,0,0,0,7.85.432c12.652-15.623,48.791-64.945,48.761-118.593C398.266,68.167,324.02,16.549,304.39,3.986Zm18.719,167.831c-5.48-6.341-6.095-15.13-5.536-23.093.748-12.332,17.673-14.5,21.9-3.294a38.731,38.731,0,0,1,2.724,14.18C342.468,171.087,333.611,181.584,323.109,171.817Z" style="fill:#c0392b"/><path d="M574.257,194.752c-15.926-11.534-75.041-50.476-141.908-46.183a15.72,15.72,0,0,0-14.109,11.486c-5.762,20.684-21.413,67.806-51.064,97.97A4.856,4.856,0,0,0,369,266.034c18.2,6.346,66.755,20.9,107.346,11.894,52.153-11.575,88.99-60.576,99.232-75.611A5.5,5.5,0,0,0,574.257,194.752ZM425.781,253.77c-11.836-1.28-14.914-18.324-5.27-23.962,8.328-4.92,23.189-8.719,28.37,2.217C454.07,244.784,436.635,255.189,425.781,253.77Z" style="fill:#c0392b"/><path d="M508.121,462.024c1.208-22.576,2.872-99.352-27.312-135.167-30.927-36.7-103.663-41.335-122.271-41.92a4.841,4.841,0,0,0-4.965,4.262c-2.156,17.837-8.6,86.039,13.955,119.208,22.412,32.954,109.787,53.562,133.95,58.712A5.5,5.5,0,0,0,508.121,462.024ZM402.584,356.032c-10.323-6.229-23.56-28.275-4.3-31.608,11.2-.041,21.434,11.442,22.582,22.152C420.864,356.013,410.694,361.406,402.584,356.032Z" style="fill:#c0392b"/><path d="M321.74,413.759c21.192-34.2,15.193-105.245,12.93-125.684a4.85,4.85,0,0,0-6.168-4.129c-16.613,4.793-67.334,21.665-101.941,57.347-34.91,35.994-40.635,109.561-41.573,133.114a5.5,5.5,0,0,0,6.963,5.53C217.03,473.023,300.641,447.813,321.74,413.759Zm-37.851-54.04c-25.252.269-8.422-40.875,8.924-32.062C305.811,334.262,294.155,360.373,283.889,359.719Z" style="fill:#c0392b"/><path d="M142.138,587.47a26.494,26.494,0,0,0,20.174,9.27H187.9a2.484,2.484,0,0,0,1.446-4.5c-52.339-37.918-79.5-176.331-4.15-237.954a35.952,35.952,0,0,0,10.521-14.526l3.416-8.535a3.14,3.14,0,0,0-4.146-4.055c-76.539,32.971-81.926,118.352-81.926,118.352s-12.849-34.591-47.053-54.726a12.411,12.411,0,0,0-9.486-1.236l-2.573.685a3.375,3.375,0,0,0-1.049,6.035C117.105,441.367,98.593,536.355,142.138,587.47Z" style="fill:#c0392b"/><path d="M307.467,596.883l23.974-.019a9.567,9.567,0,0,0,8.6-5.383c6.97-14.311,23.827-53.864,10.406-77.775a3.554,3.554,0,0,0-6.632,2.008c2.872,35.695-15.622,60.059-37.608,77.61A2,2,0,0,0,307.467,596.883Z" style="fill:#c0392b"/><path d="M30.219,410.738c2.5-12.917-18.093-17.338-21.6-5.253C4.048,421.2,26.067,428.252,30.219,410.738Z" style="fill:#c0392b"/><path d="M296.332,556.762c14.812,6.1,22.339-17.836,5.492-19.816C289.945,536.144,285.907,552.176,296.332,556.762Z" style="fill:#c0392b"/><path d="M341.8,488.124c14.147.244,12.749-20.41.366-20.882C328.247,468.431,326.336,487.547,341.8,488.124Z" style="fill:#c0392b"/><path d="M83.655,368.77c14.488-.374,16.788-21.256.454-21.222C70.591,347.577,71.157,369.232,83.655,368.77Z" style="fill:#c0392b"/><path d="M313.832,494.881c-12.743-.218-15.228,19.029-1.194,19.424C326.029,514.542,327.322,495.676,313.832,494.881Z" style="fill:#c0392b"/><path d="M36.308,361.787c11.774-.174,14.068-18.977.738-18.709C24.521,342.847,23.737,361.821,36.308,361.787Z" style="fill:#c0392b"/><path d="M47.285,452.619c12.282.34,16.245-18.418.436-19.213C35.177,432.838,35.19,452.4,47.285,452.619Z" style="fill:#c0392b"/><path d="M375.16,492.119c-11.747.692-12,19.119.562,18.878C387.816,510.7,386.4,492.118,375.16,492.119Z" style="fill:#c0392b"/><path d="M382.6,554.393c12.947-.06,12.186-19.165-.656-19C369.587,536.371,370.489,554.459,382.6,554.393Z" style="fill:#c0392b"/></svg>