<svg width="100" height="100" viewBox="0 0 100 100" fill="none" xmlns="http://www.w3.org/2000/svg">
<path d="M62.0162 37.1214C62.1546 37.1501 62.2801 37.2058 62.3844 37.2849C62.4887 37.3639 62.5693 37.4645 62.6208 37.5798L66.3494 45.792C66.4022 45.9065 66.4249 46.0333 66.4159 46.1639C66.407 46.2946 66.3666 46.426 66.2975 46.5495C66.2284 46.676 66.1314 46.7918 66.013 46.8891C65.8946 46.9863 65.7575 47.0629 65.611 47.1135C56.9036 50.1768 48.4662 54.0344 40.4489 58.6175C40.3153 58.6949 40.1686 58.7482 40.0185 58.7739C39.8684 58.7996 39.7184 58.7972 39.5785 58.7667C39.4402 58.7378 39.3148 58.682 39.2106 58.603C39.1064 58.5239 39.0259 58.4234 38.9743 58.3081L35.2456 50.0956C35.1926 49.9809 35.1699 49.8539 35.1789 49.723C35.1879 49.5922 35.2284 49.4605 35.2977 49.3368C35.3225 49.2927 35.3506 49.2498 35.382 49.2084C35.4179 49.1687 35.4523 49.128 35.4858 49.0863C35.6225 48.9476 35.7946 48.8397 35.9833 48.7742C40.0333 47.3541 44.0276 45.7595 47.9505 43.9967C52.457 41.9698 56.8619 39.7242 61.1423 37.2718C61.2763 37.1939 61.4237 37.1402 61.5744 37.1143C61.7251 37.0884 61.8757 37.0908 62.0162 37.1214ZM41.529 49.2499C41.2827 49.3631 41.0836 49.5527 40.9752 49.7771C40.8669 50.0015 40.8582 50.2423 40.951 50.4468L40.9519 50.4488C40.9983 50.5501 41.0683 50.6393 41.1578 50.7114C41.2474 50.7835 41.3549 50.837 41.474 50.8689C41.5932 50.9008 41.7217 50.9104 41.8523 50.8973C41.9829 50.8842 42.113 50.8485 42.2351 50.7924L54.7299 45.0486C54.9762 44.9354 55.1753 44.7458 55.2836 44.5214C55.392 44.2971 55.4007 44.0562 55.3078 43.8517L55.3069 43.8497C55.2606 43.7485 55.1906 43.6592 55.101 43.5872C55.0114 43.5151 54.904 43.4616 54.7848 43.4297C54.6657 43.3978 54.5371 43.3881 54.4065 43.4012C54.276 43.4144 54.1459 43.45 54.0237 43.5062L41.529 49.2499ZM57.9861 41.6847C57.7398 41.798 57.5406 41.9876 57.4323 42.2119C57.324 42.4363 57.3153 42.6771 57.4081 42.8816L57.409 42.8836C57.4554 42.9849 57.5253 43.0742 57.6149 43.1463C57.7044 43.2184 57.8118 43.2719 57.931 43.3038C58.0501 43.3357 58.1787 43.3454 58.3093 43.3323C58.4399 43.3192 58.57 43.2836 58.6921 43.2274L61.1194 42.1114C61.3656 41.9981 61.5648 41.8085 61.6731 41.5842C61.7815 41.3598 61.7902 41.1189 61.6973 40.9145L61.6964 40.9125C61.65 40.8112 61.5801 40.7219 61.4905 40.6499C61.4009 40.5778 61.2935 40.5243 61.1743 40.4924C61.0552 40.4605 60.9266 40.4508 60.796 40.4639C60.6654 40.4771 60.5353 40.5127 60.4132 40.5689L57.9861 41.6847Z" fill="#c0392b"/>
<path d="M91.7963 43.0487C93.1391 43.0949 94.4768 43.2365 95.7995 43.4726C92.4965 38.3264 88.7547 38.2525 86.7051 38.7296C86.5126 38.7744 86.3414 38.8841 86.2201 39.0401C86.2009 39.0703 86.1802 39.0991 86.16 39.1284C86.0608 39.2913 86.0234 39.4845 86.0547 39.6727C86.3427 41.3282 87.5008 42.391 89.4974 42.8313C90.2579 42.9555 91.026 43.0281 91.7963 43.0487Z" fill="#c0392b"/>
<path d="M87.3117 44.2483C86.1439 43.7288 85.1864 42.8291 84.5952 41.6959C84.4009 41.3167 84.2493 40.9171 84.1429 40.5045C83.7501 40.6558 83.3578 40.8096 82.966 40.9659C82.9379 41.6611 83.0412 42.3553 83.2707 43.0121C83.5501 43.7278 83.8778 44.4239 84.2513 45.0954C84.8932 46.2704 85.4508 47.4896 85.9198 48.7437C86.7195 47.1557 87.1839 45.6516 87.3117 44.2483Z" fill="#c0392b"/>
<path d="M91.2397 24.1102C91.3781 24.1389 91.5036 24.1946 91.6078 24.2737C91.712 24.3528 91.7926 24.4533 91.8441 24.5686L95.5727 32.7808C95.6255 32.8953 95.6482 33.0221 95.6393 33.1527C95.6304 33.2833 95.5901 33.4148 95.5211 33.5382C95.4519 33.6648 95.3549 33.7806 95.2365 33.8778C95.1181 33.9751 94.981 34.0516 94.8345 34.1023C86.1271 37.1656 77.6897 41.0231 69.6724 45.6063C69.5388 45.6836 69.3921 45.737 69.242 45.7627C69.0919 45.7884 68.9419 45.7859 68.802 45.7554C68.6637 45.7266 68.5383 45.6708 68.4342 45.5918C68.33 45.5127 68.2495 45.4122 68.1979 45.297L64.4691 37.0843C64.4162 36.9697 64.3934 36.8427 64.4024 36.7118C64.4114 36.581 64.4518 36.4493 64.521 36.3257C64.5902 36.1994 64.6871 36.0838 64.8055 35.9869C64.9238 35.8899 65.0607 35.8137 65.207 35.7634C69.2569 34.3431 73.2512 32.7485 77.1742 30.9857C81.6807 28.9588 86.0855 26.7133 90.366 24.2608C90.4999 24.1829 90.6472 24.1292 90.7979 24.1032C90.9486 24.0772 91.0993 24.0796 91.2397 24.1102Z" fill="#c0392b"/>
<path d="M6.95865 64.115C6.25053 68.549 7.88143 71.7427 8.91953 73.0464C9.50452 71.1236 10.2597 66.9189 6.95865 64.115Z" fill="#c0392b"/>
<path d="M8.42352 62.7562C11.5655 61.4315 14.8633 59.7943 18.3246 58.0749L19.0263 57.7261C23.2675 55.6196 27.4058 53.3201 31.4218 50.8381C31.5528 50.7561 31.6982 50.6975 31.8483 50.6663C31.9983 50.6351 32.1497 50.6321 32.2921 50.6574C32.432 50.6809 32.5603 50.7317 32.6683 50.8063C32.7763 50.8809 32.8615 50.9777 32.9181 51.0901L37.0386 59.1174C37.0971 59.2297 37.1257 59.3554 37.1226 59.486C37.1196 59.6166 37.0849 59.7491 37.0209 59.8747C36.9572 60.0029 36.865 60.1214 36.7505 60.2223C36.636 60.3231 36.5018 60.404 36.3569 60.4596C31.758 62.2517 27.2442 64.2696 22.8391 66.503C21.804 67.0281 20.6156 67.6172 19.3573 68.241C16.5655 69.625 13.4987 71.1455 11.0712 72.4769C11.3196 71.4347 11.4365 70.3877 11.4197 69.356C11.3771 66.9816 10.5842 64.9566 9.10355 63.3946C8.89208 63.1715 8.66352 62.9608 8.42352 62.7562Z" fill="#c0392b"/>
</svg>
