<?xml version="1.0" ?><svg fill="#c0392b" data-name="Layer 4" id="Layer_4" viewBox="0 0 600 600" xmlns="http://www.w3.org/2000/svg"><title/><path d="M432.3,348.316c-3.409-27.34-18.381-76.79-89.846-107.023-13.258-5.609-20.96-20.178-24.522-31.031a17.355,17.355,0,0,1,4.719-18.031c7.785-7.289,11.261-12.96,12.81-16.483a4.852,4.852,0,0,0-1.906-6.086c-33.429-20.2-95.781-4.176-113.854,34.905-1.842,3.982,4.357,7.53,6.729,3.805a61.373,61.373,0,0,1,10.51-12.688,22.42,22.42,0,0,1,28.908-.519c8.434,6.678,17.68,9.263,28.521,9.1a1.914,1.914,0,0,1,1.052,3.518c-11.14,7.205-26.405,6.58-36.674.679a3.413,3.413,0,0,0-5.136,2.772c-3.53,65.9-60.563,39.616-69.4,143-.38,4.45-1.47,13.795-9.9,10.15-9.588-4.146-9.049-58.22,25.9-106.263a3.266,3.266,0,0,0-2.528-5.206c-10.85-.287-32.8-3.085-55.661,16.125-17.426,14.641-18.77,67.326-35.927,105.663a7.869,7.869,0,0,1-14.073.648C84.51,362.005,79.572,341.9,79.572,341.9a4.353,4.353,0,0,0-8.318,2.16c3.431,38.712,14.343,101.909,72.024,139.222a3.669,3.669,0,0,0,5.561-3.821c-1.795-9.292-2.815-24.207,3.744-39.628a186.217,186.217,0,0,1,17.9-33.107,9.153,9.153,0,0,1,15.121.091c10.15,14.986,32.437,40.05,65.568,51.867,51.146,18.242,90.51-2.687,107.95-34.628,1.992-5.32,7.73-8.963,10.6-2.083,1.017,1.876.259,3.629-.4,5.686-30.758,95.839-122.649,59.819-151.709,37.2-2.694-2.1-6.6.728-6.247,4.122.575,5.448.684,12.38-1.406,17.431-1.775,4.98-4.339,12.951-6.321,19.23a12.623,12.623,0,0,0,5.807,14.787c25.837,14.642,112.462,58.471,174.28-6.878a15.2,15.2,0,0,0,3.639-14.341c-3.1-11.7-7.039-32.865-.9-40.647A164.031,164.031,0,0,0,409.6,418.4c2.893-7.384,11.295-11.273,18.612-8.217a14.09,14.09,0,0,1,7.375,7.1c.181.387.35.765.5,1.131a14.575,14.575,0,0,0,24.48,3.851C542.716,326.742,491.38,191.47,417,135.473c-2.628-1.978-7.758,2.1-5.013,5,47.113,49.831,69.785,111.538,66.254,148.37-.882,9.2-8.468,11.17-12.073,2.6-6.295-14.971-20.66-36.274-46.284-38.666-3.888-.363-6.441,4.74-3.395,7.183,18.31,14.689,37.15,48.94,22.459,89.037A3.433,3.433,0,0,1,432.3,348.316Zm-63.015,45.529c.3-8.721,12.279-9.645,12.583-.46C381.93,402.346,369.352,402.728,369.286,393.845Zm12.045-28.835c-.645,4.962-8.278,5.751-9.175.829-5.121-28.094-13.594-45.978-42.452-59.513-35.152-16.488-81.476,8.011-84.923,49.16-2.105,25.131,25.332,51.146,50.335,48.565,18.12-1.87,40.16-22.754,28.251-44.083-5.166-9.252-18.238-12.89-26.933,7.952-2.317,5.555-10.043,9.769-21.027,3.623-7.664-4.289-10.718-15.577-2.009-26.021,13.491-16.176,34.125-23.071,55.492-12.922,10.563,5.018,18.332,17.737,21.458,33.443,10.846,54.49-60.713,99.4-113.538,40.287-13.564-15.178-21.314-42.528-14.593-64.115,18.471-59.333,69.172-76.8,115.479-54.844S383.751,346.369,381.331,365.01Z" style="fill:#c0392b"/><path d="M205.672,105.31c-12.228-7.9-33.408,2.488-8.126,36.729A35.654,35.654,0,0,0,219.077,155.9c4.459.878,8.759,4.5,11.678,8.444a5.406,5.406,0,0,0,7.729.907c50.885-41.093,107.341-8.047,126.178,4.8,3.766,2.567,9.94-3.123-5.575-13.607a4.812,4.812,0,0,1-.111-7.928c8.4-5.928,12.347-12.446,13.465-19.181,3.5-21.077-7.992-18.328-13.206-16.105a1.49,1.49,0,0,1-2.07-1.563c.386-2.9.976-7.289,1.259-9.181a7.841,7.841,0,0,1,9.45-6.5c2.933.649,6.092,1.316,8.409,1.723a7.306,7.306,0,0,0,3.273-.1c6.029-1.718.711-8.988-7.3-12.589C292.1,48.99,229.173,76.261,212.366,86.95a9.462,9.462,0,0,0-4.353,7.264c-.09,1.16.085,6.019.238,9.637A1.665,1.665,0,0,1,205.672,105.31Zm120.3,3.612c.583,14.564-15.232,29.278-26.034,13.819C285.025,96.768,322.32,70.578,325.971,108.922Zm-83.445-5.234c2.436-12.1,17.192-16.019,23.213-3.687,14.406,29.511-5.564,37.855-15.726,30.079C242.782,124.882,240.757,112.469,242.526,103.688Z" style="fill:#c0392b"/><path d="M414.145,598.021a8.048,8.048,0,0,0,7.583-10.809c-6.369-17.4-12.163-33.238-18.535-50.65a6.835,6.835,0,0,0-10.494-3.127c-64.944,48.053-116.178,38.616-189.837,12.97a9.019,9.019,0,0,0-11.732,6.433c-2.853,11.992-5.683,23.892-8.535,35.878a7.022,7.022,0,0,0,6.807,8.647Z" style="fill:#c0392b"/><path d="M516.5,398.857a3.743,3.743,0,0,0-7.288-.005C503.955,420.84,482,462.477,428.351,502.159c-3.937,2.912-2.753,10.71,2.381,9.25a95.692,95.692,0,0,0,21.923-9.264,6.85,6.85,0,0,1,10.287,5.467c.994,15.235,4.032,40.686,14.035,62.257a7.587,7.587,0,0,0,11.654,2.757c12.646-10.193,32.664-30.676,39.371-55.395a20.965,20.965,0,0,0-2.049-15.725c-4.977-8.866-13-24.661-13-34.376C512.956,428.859,519.068,410.892,516.5,398.857Z" style="fill:#c0392b"/><path d="M70.858,550.969c12.258,21.916,30.062,43.395,55.265,46.18a8.839,8.839,0,0,0,9.568-6.666l11.371-46.336a8.362,8.362,0,0,1,9.2-6.3c2.632.341,5.555.621,8.362.852a2.977,2.977,0,0,0,1.856-5.468c-33.051-21.659-63.168-54.617-76.7-70.421a5.54,5.54,0,0,0-9.651,2.556c-3.728,19.394-9.476,45.8-12.854,61.066A34.845,34.845,0,0,0,70.858,550.969Z" style="fill:#c0392b"/><path d="M221.734,33.574a50.057,50.057,0,0,1-18.4,17.82c-33.083,18.774-118.39,78.471-136.4,202.667-.643,4.429-1.544,15.884,4.718,16.56,4.294.411,5.036-4.184,5.517-7.448C89.9,195.478,119.3,132.768,177.666,89.579c76.36-56.5,142.493-43.085,165.821-34.1a3.044,3.044,0,0,0,4.064-3.589c-8.2-30.7-35.827-50.019-66.745-50.018C269.26,1.869,238.225,5.844,221.734,33.574Z" style="fill:#c0392b"/><path d="M596.973,209.725l-.839-38.517a34.488,34.488,0,0,0-2.038-11.014c-15.923-43.908-67.479-120.432-147.139-154a34.374,34.374,0,0,0-13.2-2.654l-16.536-.069a.987.987,0,0,0-.388,1.9c25.021,10.316,138.337,64.049,177.532,204.74A1.329,1.329,0,0,0,596.973,209.725Z" style="fill:#c0392b"/><path d="M576.22,464.418c-.037-4.158,1.8-11.576-3.74-12.336a4.266,4.266,0,0,0-4.824,3.5c-19.843,86.722-53.051,123.776-68.071,136.693a3.315,3.315,0,0,0,2.164,5.829l46.134.03a11.018,11.018,0,0,0,10.439-7.271c2.066-5.88,3.4-14.975-1.158-25.981a22.079,22.079,0,0,1,.247-17.586C564.319,532.055,576.532,500.009,576.22,464.418Z" style="fill:#c0392b"/><path d="M3.605,495.439c7.488,46.319,35.65,68.41,36.668,94.02.187,4.681,1.8,8.322,7.062,7.9l26.521-.024a3.655,3.655,0,0,0,2.563-6.262C64,578.876,21.84,536.4,12.585,480.559,10.608,468.626.533,476.433,3.605,495.439Z" style="fill:#c0392b"/><path d="M110.307,2.726c-8.909.329-28.986,2.823-43.242,17.786A443.422,443.422,0,0,0,7.191,94.421C5.735,96.7,4.454,98.87,4.5,101.778c.125,8.167.075,16.337.058,25.291a1.207,1.207,0,0,0,2.235.63C34.847,82.229,71.475,40.567,111.476,5.677A1.68,1.68,0,0,0,110.307,2.726Z" style="fill:#c0392b"/><path d="M72.57,311.13a5.315,5.315,0,0,0,3.4-3.145c1.606-3.722.867-8.84-2.444-10.908a3.527,3.527,0,0,0-3.161-.337C63.932,299.246,66.055,312.852,72.57,311.13Z" style="fill:#c0392b"/><path d="M395.166,183.569c.492-7.076-10.71-9.646-11.135-1.934C383.461,186.663,394.923,190.515,395.166,183.569Z" style="fill:#c0392b"/></svg>