<?xml version="1.0" ?><svg fill="#c0392b" data-name="Layer 5" id="Layer_5" viewBox="0 0 600 600" xmlns="http://www.w3.org/2000/svg"><title/><path d="M585.991,75.559a2.26,2.26,0,0,0-4.315.225c-28.53,114.5-92.525,338.116-113.328,410.384a49.637,49.637,0,0,1-39.335,35.173c-16.084,2.764-38.279,3.165-66.958-3.7l5.123-12.787c71.561,11.109,80.485-5.776,98.719-64.112,40.156-128.472,73.2-256.592,108.874-381.684,3.89-13.13-5.138-24.3-9.091-10.589C496.491,288.413,458.412,411.8,442.745,461.383a42.849,42.849,0,0,1-41.525,29.948c-44.7-.7-121.378-10.326-179.7-16.06,3.513-5.9,6-15.05,12.741-13.77,19.064,1.637,113.254,11.978,142.291,14.236,20.02,2.04,27.529-1.86,30.246-5.739a4.3,4.3,0,0,0-3.147-6.681C302,452.785,199.354,442.491,97.832,431.581a133.214,133.214,0,0,1-18.379-3.143,3.417,3.417,0,0,1,.728-6.719c23.341-.957,86.66,2.851,116.232,6.525A9.316,9.316,0,0,0,202.5,426.9l20.213-10.884a4.071,4.071,0,0,1,5.689,2.021l5.235,12.581a9.323,9.323,0,0,0,6.674,3.72c54.64,4.725,108.619,10.2,163.381,13.1,22.109,1.172,27.1-15.99,29.869-21.94,7.813-22.649,15.416-45.371,22.961-68.111,35.519-110.024,70.081-220.1,102.54-331.123C564.7,6.989,544.491,6.852,530.191,6.814A16.39,16.39,0,0,0,520.9,9.673L494.74,27.545a2.732,2.732,0,0,1-4.263-2.494l.822-9.43a4.579,4.579,0,0,0-4.868-4.973c-60.706,4.092-145.845.92-166.4.052a12.011,12.011,0,0,0-8.161,2.745L294.31,27.963a3.294,3.294,0,0,1-5.336-1.933l-2.026-10.854a7.664,7.664,0,0,0-7.179-6.249c-12.92-.6-43.763-1.89-65.761-1.613A15.635,15.635,0,0,0,200.3,15.76c-6.238,12.069-18.81,35.673-33.094,58.505-2.042,3.263.593,6.4,4.033,4.935,23.05-9.824,45.737-8.217,60.769-4.729A9.767,9.767,0,0,1,238.879,87.7l-12.293,29.835a12.288,12.288,0,0,1-13.245,7.476c-18.865-2.957-60.57-6.239-73.7,19.418q-27.333,61.566-54.7,123.114c-1.458,3.281.049,7.587,3.509,6.589,21.342-6.155,55.129-3.3,68.251-1.014a6.2,6.2,0,0,1,4.837,8L146.2,315.2a11.342,11.342,0,0,1-12.628,7.509c-20.617-3.471-68.93-8.024-82,22.349-8.69,20.521-29.3,61.759-38.168,79.33A31.115,31.115,0,0,0,10.26,441.85l4.669,45.417A12.742,12.742,0,0,0,26,498.61c22.3,2.841,75.7,9.58,96.805,11.71a5.528,5.528,0,0,0,5.962-4.357c.867-4.064,2.162-9.76,3.3-13.254a2.023,2.023,0,0,0-1.52-2.6c-16.016-3.246-48.633-6.172-65.332-11.966-4.009-1.39-1.685-7.847,2.551-7.6,16.124.943,48.446,4.773,64.492,6.846a5.636,5.636,0,0,0,6-3.607l2.3-6.1a2,2,0,0,0-1.692-2.7c-13.582-1.187-56.55-5.038-80.367-10.854a4.251,4.251,0,0,1,.953-8.384c38.494-.6,99.8,8.872,99.8,8.872-20.662,36.818-21.2,80.882-20.644,96.536a2.2,2.2,0,0,0,3.922,1.287c6.011-7.573,18.379-22.713,27.776-31.3l23.417,32.882a2.218,2.218,0,0,0,3.97-.8l7.016-31.159a7.785,7.785,0,0,1,8.454-6.029c10.159,1.128,37.99,4.834,51.843,6.634a5.633,5.633,0,0,0,6.024-3.673,53.415,53.415,0,0,1,3.834-8.274,2.121,2.121,0,0,0-1.576-3.161c-17.866-2.272-63.206-7.974-63.206-7.974l2.372-6.056a7.8,7.8,0,0,1,8.2-4.9l80.128,9.649s-20.384,30.959-24.035,80.672a2.784,2.784,0,0,0,4.74,2.185c5.448-5.446,14.28-13.958,21.822-19.765a5.939,5.939,0,0,1,8.034.708l27.325,30.193a2.783,2.783,0,0,0,4.837-1.629c1.01-12.043,3.938-38.18,11.194-54.671l62.341,8.264c39.374,4.763,60.531-19.7,69.02-49.983,28.726-102.484,90.67-338.9,103.121-393.542C592.011,88.235,585.991,75.559,585.991,75.559ZM506.534,37.734c15.857-1.765,16.927,20.887,1,21.327C492.581,57.554,491.86,39.908,506.534,37.734Zm-121.7,350.889c15.034.3,15.044,22.337-.515,22.164C369.111,410.508,370.911,388.93,384.833,388.623Z" style="fill:#c0392b"/></svg>