<?xml version="1.0" ?><svg fill="#c0392b" data-name="Layer 5" id="Layer_5" viewBox="0 0 600 600" xmlns="http://www.w3.org/2000/svg"><title/><path d="M567.2,362.9C513.916,281.548,459.014,196.317,398.814,28.828,394.024,15.5,381.078-.718,359.168,5.374,250.158,35.684,125.606,38.065,74.119,38.015A32.036,32.036,0,0,0,44.361,57.89c-14.8,36.435-20.147,85.549-22.218,106.462a36.05,36.05,0,0,0,3.071,18.511c33.427,73.4,138.162,306.5,163.336,368.823,4.789,11.686,17.145,18.2,29.154,17.271,71.177-5.488,166.41-9.455,185.017-10.205A2.578,2.578,0,0,0,405.1,555.5l-2.6-9.636a8.866,8.866,0,0,0-8.711-5.638c-25.313,1.283-119.63,6-168.8,7.5-30.868-2.268-5.037-70.754,3.063-87.345,6.112-12.5,13.6-24.293,27.918-24.256,79.068-.875,244.248-18.811,296.983-36.385C570.032,394.054,574.773,374.464,567.2,362.9ZM211.751,408.76c-5.389,17.592-14.352,49.3-17.564,75.154-.5,4.008-8.081,5.915-10.46,1.788C121.389,377.572,59.856,226.389,42.018,185.824a32.713,32.713,0,0,1-2.841-12.2c-.6-20.671,7.52-48.791,13.881-67.437a8.331,8.331,0,0,1,15.52-.645c44.508,101.993,98.918,211.262,139.91,277.869A31.016,31.016,0,0,1,211.751,408.76Zm302.9-32.718c-43.131,10.871-133.59,30.505-231.2,32.581,0,0-31.3,6.142-47.584-39.191C221.049,328.158,130.25,141.23,103.132,85.073c-3.52-7.063,1.61-17.241,7.519-17.659,61.327-2.73,184.776-25.245,236.455-35.085,13.835-2.634,28.566,4.137,33.534,17.315,39.183,103.92,87.729,189.28,147.2,295.812A20.989,20.989,0,0,1,514.652,376.042Z" style="fill:#c0392b"/><path d="M272.124,467.777c87.063-4.706,192.016-13.817,274.709-33.756a11.128,11.128,0,0,0,7.181-5.251l5.153-11.553a1.629,1.629,0,0,0-1.7-2.416C424.729,443.5,312.024,449.27,269.74,450.426c-8.072.221-18.265,5.957-22.593,12.774-11.715,18.453-17.638,42.253-20.363,56.792a10.543,10.543,0,0,0,10.894,12.489l154.532-7.96a2.459,2.459,0,0,0,2.163-3.416,98.923,98.923,0,0,0-7.524-14.063,6.3,6.3,0,0,0-5.882-2.895c-73.265,6.6-113.493,9.422-126.141,8.37-2.741-.227-4.441-2.989-4.209-7.161s4.5-6.093,6.467-6.135c30.365-.661,66.456-.279,127.034-6.95,5.136-.566,10.2,3.509,12.768,8,8.26,14.46,24.544,49.912,24.319,92.826a2.833,2.833,0,0,0,4.269,2.461c8.545-4.976,25.3-19.866,37.09-36.247a4.84,4.84,0,0,1,6.817-1.111c7.694,5.68,23.259,17.781,36.5,31.893a2.866,2.866,0,0,0,4.963-2.11c-2.608-41.706-23.82-87.607-31.248-102.551a4.279,4.279,0,0,1,2.993-6.1c10.448-2.106,33.355-6.906,48.667-11.451A18.373,18.373,0,0,0,543.032,457.2l2.59-6.343a1.762,1.762,0,0,0-2.064-2.382C434.366,476.085,289.6,479.547,271.6,479.877a7.036,7.036,0,0,1-4.853-1.693C262.638,474.493,265.258,468.148,272.124,467.777Z" style="fill:#c0392b"/><path d="M574.783,501.375A120.891,120.891,0,0,0,555.7,475.77a5.623,5.623,0,0,0-9.18,6.211c15.715,34.4-14.215,42.215-26.049,43.938a4.055,4.055,0,0,0-3.32,5.047l2.353,8.981a4.84,4.84,0,0,0,4.959,3.6,240.043,240.043,0,0,0,32.309-3.958A26.137,26.137,0,0,0,574.783,501.375Z" style="fill:#c0392b"/><path d="M528.618,485.812a135.407,135.407,0,0,1-26.539,6.056,2.5,2.5,0,0,0-1.733,3.766,82.531,82.531,0,0,1,6.3,13.14,2.945,2.945,0,0,0,3.405,1.906c10.232-2.252,24.4-6.592,25.517-18.791A5.224,5.224,0,0,0,528.618,485.812Z" style="fill:#c0392b"/><path d="M364.436,57.8a15.882,15.882,0,0,0-17.527-8.9c-73.43,14.718-176.27,26.816-213.462,30.962a10.236,10.236,0,0,0-8.166,14.46c25.306,54.9,123.042,266.7,132.069,282.89,6.249,12.587,19.33,14.23,31.976,13.422,0-.008-.008-.024,0-.025,91.395-6.173,138.659-11.482,204.761-32.877,15.818-5.12,13.1-20.227,8.522-27.887C452.627,246.159,383.834,99.625,364.436,57.8Zm-12.41,16.674c12.178-.509,13.931,15.651.475,15.628C341.128,90.082,339.025,75.782,352.026,74.473ZM319.408,63.22c8.852-.54,13.781,13.613,3.472,16.187C310.054,82.608,303.867,64.466,319.408,63.22ZM276.55,351.863c-13.73,0-12.65-18.466-.608-18.466C290.5,333.4,289.09,351.863,276.55,351.863Zm38.488,11.792c-3.112,6.905-10.751,7.975-15.878,2.842-6.242-6.248-1.366-16.558,6.911-15.743C315.038,350.709,317.892,357.322,315.038,363.655Zm72.579-112.369a7.121,7.121,0,0,1,.4,8.947l-10.9,14.864a3.187,3.187,0,0,1-5.419-.449c-5.037-10.023-16.965-32.386-21.844-29.654-5.1,2.857,1.38,28.312,3.958,37.651a3.189,3.189,0,0,1-2.556,4l-17,2.8a3.186,3.186,0,0,1-3.592-2.292c-2.345-8.481-9.767-33.57-15.423-33.225-5.245.321-5.4,19.905-5.191,28.865a3.192,3.192,0,0,1-4.1,3.128l-17.85-5.287a7.123,7.123,0,0,1-5.066-7.643c.662-5.679.7-14.648-3.568-22.934-12.561-24.392-66.661-8.515-65.968-60.94,5.31-94.611,151.6-102.583,177.294-10.5,3.693,13.232-6.843,26.624-14.181,37.728C368.938,227.735,380.961,243.807,387.617,251.286Z" style="fill:#c0392b"/><path d="M66.419,132.47a2.95,2.95,0,0,0-5.578.318c-7.438,26.063-7.051,47.748-3.179,56.622,16.11,36.914,72.142,164.977,119.183,254.4a4.139,4.139,0,0,0,7.744-1.253l7.46-42.678a15.113,15.113,0,0,0-1.672-9.072C109.14,239.253,76.57,157.78,66.419,132.47Z" style="fill:#c0392b"/><path d="M329.357,144.416c-23.552-1.319-24.947,21.1-17.468,37.51,15.018,32.946,45.233,15.159,53.209,3.875C378.62,166.671,352.863,146.479,329.357,144.416Z" style="fill:#c0392b"/><path d="M235.437,187.075c-1.974,26.379,35.847,30.5,48.108,12.369,10.216-13.449,5.3-32.077-3.313-41.567C273.6,149.151,238.473,150.8,235.437,187.075Z" style="fill:#c0392b"/><path d="M312.6,205.886c-6.508-5.128-12.4,1.8-9.15,23.162,2.218,14.567,24.234,4.87,20.327-6.595A34.116,34.116,0,0,0,312.6,205.886Z" style="fill:#c0392b"/></svg>