<?xml version="1.0" ?><svg fill="#c0392b" data-name="Layer 4" id="Layer_4" viewBox="0 0 600 600" xmlns="http://www.w3.org/2000/svg"><title/><path d="M12.42,533.848c93.633-9.881,190.286-.782,278.122,33.44,3.7-1.251,2.84-5.205.668-7.61-38.678-62.529-108.519-105.606-182.435-107.926-18.724-2.41-38.034-7.322-53.63-18.408-.767-.339-1.4-1.664-2.167-.955q-2.917,4.992-5.707,10.054c44.567,34.59,79.712,11.935,119.864,31.946,1.42,1.189,2.519,4.455-2.666,2.825-52.258-16.424-73.7,12.5-124.937-20.033a162.669,162.669,0,0,0-10.173,22.866c59.937,46.271,123.318-12.444,187.4,31.417,3.09,2.1,26.67,17.5,23.268,20.005-.855,1.6-8.992-4.658-10.862-5.213-84.749-49.341-121.518,16.029-207.537-27.03a286.561,286.561,0,0,0-9.7,33.985C11.872,533.5,12.074,533.887,12.42,533.848Z" style="fill:#c0392b"/><path d="M590.284,548.661c-93.282-8.583-187.6,6.242-277.572,30.512-6.258-.134-22.163.227-28.185-.13A591.591,591.591,0,0,0,9.334,551.167,107.248,107.248,0,0,0,7.96,565.859a.507.507,0,0,0,.5.5c90.687-8.256,184.709-.447,270.538,29.747,5.078.037,10.158,0,15.235,0,10.835-.687,28.506,2.033,38.513-2.957,81.579-30.285,172.705-33.261,258.786-26.789a.507.507,0,0,0,.5-.5A114.529,114.529,0,0,0,590.284,548.661Z" style="fill:#c0392b"/><path d="M445.079,481.137c-3.96,1.379-4.087-2.812-.756-4.119,33.524-19.956,73.733,6.206,108.659-30.466q-2.911-5.3-5.96-10.514a.493.493,0,0,0-.791-.1c-24.888,29.372-81.714,16.819-123.091,31.993-46.36,17-85.2,50.227-112,91.72-2.049,2.2-2.569,6.166.748,7.479,88.6-26.635,183.573-37.982,275.41-33.712-3.41-12.787-6.488-27.08-12.373-38.507-58.6,51.9-143.161-10.115-202.877,37.685-.8.381-4.465-.584.5-5.75,55.127-60.7,143.378,11.922,195.486-49.659l-8.818-17.373C519.784,501.462,487.962,471.781,445.079,481.137Z" style="fill:#c0392b"/><path d="M550.766,82.343c-4.354-.084-12.438,8.349-9.8,12.579C546.2,101,562.22,82.974,550.766,82.343Z" style="fill:#c0392b"/><path d="M137.4,349.984c5.249,29.167,19.188,58,42.165,77.218,11.4,8.161,28.833-2.038,56.37,39.246.959,1.53,3.214,2.163,4.381.485,1.193-2.549-1.158-5.48-1.491-8.1-7.7-30-23.752-50.219-53.5-60.329-29.983-13.731-37.908-38.9-44.321-53.727a2.215,2.215,0,0,0-4.262.418A37.731,37.731,0,0,0,137.4,349.984Z" style="fill:#c0392b"/><path d="M380.172,446.618c-4.353.116-12.043,8.908-9.213,13.013C376.464,465.463,391.644,446.725,380.172,446.618Z" style="fill:#c0392b"/><path d="M404.377,425.087c77-83.044,80.23-14.869,143.4-86.32,2-13.482-33.33,27.543-79.983,21.416-14.72-2.05-28.8,14.441-40.907,27.793A287.773,287.773,0,0,0,400.515,422.7,2.338,2.338,0,0,0,404.377,425.087Z" style="fill:#c0392b"/><path d="M232.262,396.426c.853,1.2,2.069,2.412,3.719,1.838,3.631-1.87-.018-8.306-.273-11.435-2.626-13.527-6.195-27.039-8.4-40.582,3.729-15.372,28.589,17.528,30.987,23.291,21.569,35.812-1.741,68.919,12.195,103.008,7.631,16.964,22.756,30.7,25.423,49.754.293,1.9-.114,5.108,1.073,6.719a2.658,2.658,0,0,0,4.676-1.537c3.987-14.078.5-29.169-4.356-42.587-3.454-8.5-8-16.734-8.5-26.1-1.607-16.634,2.177-36.724,14.034-49.2,2.907-3.06,8.864-8.429,12.21-2.781,1.463,2.47,0,5.015-.676,7.471-4.13,16.286-2.831,33.591.542,49.9.478,2.108.848,7.353,4.172,6.667,3.182-1.271,2.743-6.091,3.946-8.853,7.851-24.991,17.992-50.223,34.4-70.917,33.668-39.612,62.226-22.778,100.743-80.874,9.81-13.928,17.885-29.382,21.616-46.1.523-2.356,2.226-7.827-2.094-7.77-1.516.02-2.263,1.139-3.093,2.238-14,18.71-36.987,42.425-62.575,33.109-12.467-8.579-4.267-29.616,1.3-40.409,15.711-30.067,51.281-44.3,63.447-76.743.849-1.485.259-3.7-1.787-3.5-10.028,1.114-19.2,2.805-29.264,4.9-75.289,17.034-52.391,121.349-141.67,108.224-2.17-1.336-2.076-3.584-1.72-5.784,6.533-41.4,38.564-75.324,77.454-89.115,65.65-19.13,35.364-52.393,97.828-50.633,14.678,1.139,29.417-3.219,40.323-13.3,3.65-2.943,14.977-15.339,5.856-14.746-13.987,8.909-34,16.286-47.908,3.129-6.426-7.148-10.97-15.791-16.186-23.828-16.594-27.709-50.223-15.526-66.886-6.709a2.483,2.483,0,0,1-3.162-3.658c12.858-21.213,59.232-61.321,113.976-69.233a2.972,2.972,0,0,0,.329-5.21c-1.423-.842-3.64-.636-5.229-.77C426.244-.644,353.177,28.865,298.426,75.445c-26.014,25.875-49.243,38.725-41.374-11.518.07-3.3,2.855-7.673-.356-10.121-3.461-2.152-6.558,3.146-8.417,5.359C172.141,188.781,144.8,258.843,232.262,396.426ZM208.954,189.379c.156-2.086,2.894-3.055,4.027-1.117.659,1.114,1.221,2.281,1.907,3.383a43.465,43.465,0,0,0,11.14,11.913c6.9,5.172,14.73,8.944,21.3,14.577,17.359,15.137,24.842,39.907,21.426,62.394-.124,2.449-1.3,5.155-4.05,5.394C213.73,289.442,196.226,230.1,208.954,189.379Z" style="fill:#c0392b"/></svg>