<?xml version="1.0" ?><svg fill="#c0392b" data-name="Layer 5" id="Layer_5" viewBox="0 0 600 600" xmlns="http://www.w3.org/2000/svg"><title/><path d="M570.611,502.348a3.639,3.639,0,0,0-5.795,2.816c-.959,46.06-90.983,30.3-326.817,64.344-12.155,1.755-31.647-.291-33.019-16.266-2.964-27.944,12.6-73.048,35.986-88.795,26.15-17.607,267.239-19.292,339.106-44.669a15.957,15.957,0,0,0,7.919-24.065c-49.217-71.81-75.643-126.06-75.643-126.06-6.6-15.027-23.075-15.636-88.849-.687-29.9,6.8-41.539-25.725-41.7-60.746a2.962,2.962,0,0,1,5.785-.9c21.113,65.741,26.189,42.512,98.259,34.772,35.237-3.785,40.532,33.051,49.977,19.847,7.25-11.546-16.776-73.786-53.376-80.67-18.987-3.572-57.675,4.169-66.261,5.983a6.319,6.319,0,0,1-4.26-.523c-8.1-4.278,20.47-13.775,37.523-18.871a9.785,9.785,0,0,0,5.769-14.079A660.152,660.152,0,0,1,404.49,31.6C400.874,19.629,388.416.68,349.506,9.885,255.1,32.22,156.739,18.85,62.183,37.247c-5.406,1.682-7.281,5.984-5.227,11.163C92.838,137.649,203.139,386.044,223.579,432c2.651,5.959-5.971,10.506-9.233,4.858-.026-.045-.052-.09-.077-.135C186.628,386.848,69.945,132.713,41.92,71.521a6.247,6.247,0,0,0-11.482.279C24.923,85.6,14.58,115.2,7.412,134.328A22.619,22.619,0,0,0,9,153.559C28.841,188.035,100.151,319.1,175.811,545.534c7.46,22.324,20.169,53.15,57.535,45.958C370.981,565,470.991,571.841,586.087,546.212,605.4,537.922,585.229,513,570.611,502.348Zm-143.3-296.892c24.409-6.567,34.72,15.383,8.55,18.438C421.228,226.281,414.71,208.847,427.312,205.456ZM203.305,157.6c-9.71-.695-22.974-.785-30.651-9.85-20.968-24.76-40.921-59.564-3.141-67.475,50.581-6.917,101.688-9.693,152.662-11.958,12.985-.333,28.291.418,35.862,12.725,9.01,17.245,39.558,55.857,7.944,65.5C311.506,152.817,258.381,153.722,203.305,157.6Z" style="fill:#c0392b"/><path d="M551.949,461.078a13.789,13.789,0,0,0,10.692-9.183l2.628-7.8a2.738,2.738,0,0,0-3.2-3.546C453.04,464.7,329.565,462.929,273.561,471.512A43.28,43.28,0,0,0,240.9,495.135c-12.832,25.122-18.783,55.694,2.859,56.856,12.373.664,228.476-23.666,279.878-30.679a16.9,16.9,0,0,0,14.5-12.977,4.115,4.115,0,0,0-4.4-5.4c-187.2,22.789-280.638,35.445-279.09,24.455,1.286-9.132,211.644-23.9,285.045-37.352a11.524,11.524,0,0,0,8.758-7.411l1.924-5.3a1.923,1.923,0,0,0-2.063-2.556C374.113,497.837,260.641,507,265.433,497.059,273.69,479.932,431.808,482.087,551.949,461.078Z" style="fill:#c0392b"/></svg>