<?xml version="1.0" ?><svg fill="#c0392b" data-name="Layer 4" id="Layer_4" viewBox="0 0 600 600" xmlns="http://www.w3.org/2000/svg"><title/><path d="M594.754,4.51C566.245,28.1,535.616,49.065,504.1,68.418Q478.876,83.8,452.618,97.408a1.008,1.008,0,0,0,.5,1.864,127.609,127.609,0,0,1,20.03,2.518,7.788,7.788,0,0,1,3.832,13.052c-6.817,6.971-13.322,12.9-20.609,20.153a35.373,35.373,0,0,1-47.906,2.055c-80.225-69.429-177.318-37.864-278.459-22.938-25.941,1.549-70.731-15.537-69.4-46.43,4.139-18.621,29.05-15.837,43.622-14.785a1,1,0,0,0,.864-1.5c-8.161-12.732-23.03-19.579-37.313-22.856C52.359,24.312,5.644,23.359,3.505,44.592c1.458,19.452,12.343,37.383,25.67,51.62a36.878,36.878,0,0,1,8.619,15.708c21.938,81.969,47.337,162.94,71.094,244.387,4.869,30.359,2.373,74.79-34.908,81.577-1.118.233-.843,1.965.267,1.965,23.462-.7,47.116-6.2,68.008-17.023,2.137-.276,32.269-20.534,24.106-20.171-11.18,4.5-27.117,9.945-37.093.324C108.2,328.9,87.79,257.35,66.652,183.3c-3.281-11.492-7.243-25.411-5.49-37.233.333-11.416,10.464-20.936,22.005-17.1,68.889,24.12,142.054,1,212.428,12.666,22.21,4.14,62.648,13.59,76.237,32.775,8.3,11.712-25.126,34.419-29,38.932a2.863,2.863,0,0,0,.744,4.284c2.071,1.178,3.942-1.237,5.367-2.405q8.044-6.6,16.561-12.6c9.873-5.825,19.615-16.437,32.116-12.523a3.067,3.067,0,0,1,1.224,5.149c-78.08,75.258-155.261,156.55-235.9,228.27-33.57,24.4-70.572,43.693-108.729,59.764a.969.969,0,0,0,.8,1.611,109.624,109.624,0,0,0,16.014,2.044,2.631,2.631,0,0,1,2.074,4.072c-13.913,21.232-25.819,41.507-34.313,65.787-.368.984,1,1.613,1.671.973,71.791-71.278,344.611-340.847,443.2-438.595,18.349-11.914,15.651,26.4,14.727,35.96a1.007,1.007,0,0,0,1.864.5C523.97,105.888,555.084,60,588.23,16.11c2.618-3.413,5.358-6.746,7.938-10.186a.865.865,0,0,0-.043-1.383A.84.84,0,0,0,594.754,4.51ZM391.135,133.933c-49.57-23.523-106.925-25.885-160.844-20.355-24.132,2.865-44.558,6.712-65.634,4.2a1.217,1.217,0,0,1-.093-2.4C239.4,100.3,327.281,84.145,392.3,131.96A1.152,1.152,0,0,1,391.135,133.933Z" style="fill:#c0392b"/><path d="M243.173,383.9c.578-3.433-.849-4.658-3.484-4.6-3.518.164-6.968,4.154-6.892,7.409C232.967,393.968,242.022,388.325,243.173,383.9Z" style="fill:#c0392b"/><path d="M95.821,551.889c27.209-16.838,24.557-29.768,40.288-47.867a2.375,2.375,0,0,1,4.155,1.706L139.1,525.74q-.12,2.07-.241,4.139a1.007,1.007,0,0,0,1.863.5c10.989-23.847,21.391-45.319,51.229-45.212,89.187,2.928,173.35,38.1,259.648,57.736a22.268,22.268,0,0,1,13.419,9.975,106.364,106.364,0,0,0,26.708,30.153c2.6,1.968,6.008-2.428,3.5-4.54-54.961-46.907-48.188-121.283-39.283-187.47a1.272,1.272,0,0,1,2.533.194c-2.739,70.953,5.006,192.808,97.58,203.261,12.218-2.876,14-18.124,15.926-28.512,2.783-22.9-.923-48.978-16.908-66.6-1.138-1.037-8.615-8.945-9.051-5.39,2.764,18.313.907,52.35-26.2,41.933-85.514-66.705,8.861-235.118-54.789-333.132-11.656-14.8-7.43-33.1,3.438-47.139-67.19,62.849-141.7,139.794-212.1,206.582-2.564,2.518,1.353,6.423,3.942,3.942q57.693-55.382,115.058-111.1a53.612,53.612,0,0,1,22.849-13.345c19.744-5.894,40.215,3.131,47.453,23.135C480,350.176,413.954,446.462,456.01,535.172c-87.236-23.8-172.882-43.4-260.2-66.906-7.628-2.054-11.927-10.489-8.6-17.655,10.878-17.473,22.706-34.388,34.661-51.146.983-.862-.427-2.363-1.394-1.455l-5.207,5.245c-7.463,8.862-186.537,185.218-189.48,192.291a.965.965,0,0,0,1.165.162q5.972-3.552,11.9-7.182C58.106,576.735,77.3,564.8,95.821,551.889Z" style="fill:#c0392b"/><path d="M535.176,466.909c-3.051-1.677-4.678-.734-5.5,1.772-1,3.376,1.626,7.949,4.724,8.949C541.316,479.863,538.973,469.454,535.176,466.909Z" style="fill:#c0392b"/></svg>