<?xml version="1.0" ?><svg fill="#c0392b" data-name="Layer 4" id="Layer_4" viewBox="0 0 600 600" xmlns="http://www.w3.org/2000/svg"><title/><path d="M304.529,222.85c-33.072-18.765-50.161-43.88-57.936-58.718A22.1,22.1,0,0,0,226.21,152.4c-35.705,1.213-71.629-1.762-106.083-11.068-39.242-10.6-76.575-29.653-106.017-57.679v66.5a17.308,17.308,0,0,0,10.111,15.745c56.771,25.941,125.706,39.778,154.529,44.787A77.1,77.1,0,0,1,207.171,221.7c11.3,7.239,22.21,15.267,31.558,22.579a15.807,15.807,0,0,1,3.956,20.363c-8.166,14.13-16.536,29.034-22.544,39.822a2.8,2.8,0,0,0,4.368,3.411l71.582-67.037h0l9.537-8.931A5.656,5.656,0,0,0,304.529,222.85Z" style="fill:#c0392b"/><path d="M450.654,374.564a30.535,30.535,0,0,0-16.143-26.99c-50.053-26.822-71.472-85.2-71.483-85.226,20.156-18.819,35.777-33.132,44.6-41.247a21.354,21.354,0,0,0,5.336-24.268c-4.034-9.059-11.9-9.645-17.891-8.487a21.349,21.349,0,0,0-11.273,6.182C247.438,335.723,14.11,564.359,14.11,564.359v15.436H59.753c58.51-75.278,142.322-161.946,213.926-232.076A47.548,47.548,0,0,1,333.1,341.98c7.773,5.116,14.7,10.075,18.324,13.561a148.624,148.624,0,0,1,44.09,86.049,26.95,26.95,0,0,1,.125,6.167c-1.308,14.786-5.708,81.173,15.549,127.95a7,7,0,0,0,6.382,4.088h6.823s-21.766-30.3-16.962-76.146a1.178,1.178,0,0,1,2.311-.171c8.227,31.651,16.657,54.87,23.6,66.919a18.747,18.747,0,0,0,16.251,9.4h69.071C457.384,510.718,450.563,414.867,450.654,374.564Z" style="fill:#c0392b"/><path d="M361.027,150.389a2.7,2.7,0,0,0,.845,5.2,219.807,219.807,0,0,1,42.855,7.114c5.073,1.449,31.513,8.445,38.966,54.646.99,6.135,2.274,12.218,3.551,18.3a3.061,3.061,0,0,0,5.709.793c14.917-28.566,82.117-144.6,132.27-211.169a3.143,3.143,0,0,0-4.453-4.362C520.2,68.515,438.048,119.068,361.027,150.389Z" style="fill:#c0392b"/></svg>