<?xml version="1.0" ?><svg fill="#c0392b" data-name="1" id="_1" viewBox="0 0 600 600" xmlns="http://www.w3.org/2000/svg"><title/><path d="M174.523,163.046c-3.833-15.166-29.083-18.951-36.91-19.766a1.784,1.784,0,0,0-1.935,2.073c32.641,197.465,71.276,332.236,116.166,448.06a4.941,4.941,0,0,0,4.613,3.153h6.374a2.313,2.313,0,0,0,2.144-3.182c-20.865-51.777-36.93-105.193-45.481-135.684a1.984,1.984,0,0,1,3.723-1.341c22.021,49.368,47.6,101.7,59.689,126.125a25.307,25.307,0,0,0,22.68,14.082h50.836a2.315,2.315,0,0,0,1.976-3.526C341.318,565.246,228.6,376.96,174.523,163.046Z" style="fill:#c0392b"/><path d="M593.352,585.7A39.064,39.064,0,0,0,583.09,559.3C532.3,503.876,304.036,254.431,147.613,77.863a2.191,2.191,0,0,0-3.792,1.4,66.1,66.1,0,0,1-14.416,38.067,4.805,4.805,0,0,0-.792,4.7l3.354,9.107a3.283,3.283,0,0,0,3.259,2.155,49.381,49.381,0,0,1,31.6,9.425,1.165,1.165,0,0,0,1.739-1.436,142.328,142.328,0,0,1-9.422-27.38,1.811,1.811,0,0,1,3.085-1.652C335.438,297.73,565.67,564.444,591.052,593.9a1.309,1.309,0,0,0,2.3-.86Z" style="fill:#c0392b"/><path d="M100.806,62.9a1.739,1.739,0,0,0,3.115-.229,165.855,165.855,0,0,1,7.8-17.035,5.617,5.617,0,0,0-.68-6.468c-11.535-13.06-55.285-58.825-93.45-21.195C-1.934,37.231,9.559,65.952,14.856,76.538a.834.834,0,0,0,1.573-.476C8.172,8.23,74.713,19.076,100.806,62.9Z" style="fill:#c0392b"/><path d="M133.6,67.746a13.442,13.442,0,0,0-2.666-6.058l-6.5-8.337a1.993,1.993,0,0,0-3.233.136c-4.121,6.15-6.874,14.682-8.282,19.833a13.485,13.485,0,0,0,.428,8.439L121.7,103.28a1.984,1.984,0,0,0,3.517.365C129.038,97.724,136.291,83.915,133.6,67.746Z" style="fill:#c0392b"/></svg>