<?xml version="1.0" ?><svg fill="#c0392b" data-name="Layer 4" id="Layer_4" viewBox="0 0 600 600" xmlns="http://www.w3.org/2000/svg"><title/><path d="M3.294,182.979C4.761,196.166,14.431,259.8,63.88,251.442a1.536,1.536,0,0,0,.806-2.616c-7.968-7.731-31.639-35.519-40.352-45.807a.91.91,0,0,1,1.172-1.362c22.249,13.454,52.491,44.427,64.2,68.905,10.931,22.851,30.2,16.765,30.259,22.8.133,14.744-59.995,1.342-86.845,43.436a2.193,2.193,0,0,0,.923,3.174c35.5,16.4,66.591-16.743,78.246-28.4,23.752-23.751,39.65-14.284,77.47-76,15.641-25.524,39.811-47.7,69.819-56.3,12.232-3.746,24.731-4.949,36.117,2.684,27.017,18.112,5.53,40.168-3.862,45.672-35.422,21.732-73.051,40.726-103.59,69.355-35.553,30.752-57.226,90.208,2.289,113.652,26.745,9.912,55.328,11.025,83.4,14.114,14.117.92,40.138,4.561,57.908,7.579a1.522,1.522,0,0,0,1.043-2.8c-16.673-10.022-53.213-36.717-50.084-76.7,4.258-54.42,60.76-79.5,97.157-110.965,35.975-29.571,53.71-74.586,11.2-107.722-13.381-10.994-45.2-26.725-86.393-29.669a1.154,1.154,0,0,0-.592,2.178c87.869,40.964,72.51,89.551,28.72,126.25-29.713,28.068-80.547,49.689-100.81,89.6a2.129,2.129,0,0,1-4.017-1.123c7.661-58.488,91.528-75.682,114.308-120.227,12.358-24.165,10.72-49.055-7.912-62.044-33.613-27.782-79.188-39.769-121.64-29.26-21.973,5.439-74.811,24.982-105-.521-6.463-5.459-14.851-21.236-10.6-34.432,14.847-35.287,54.183,15.149,95.31.7,28.865-10.138,29.155-24.155,48.986-24.462a1.437,1.437,0,0,0,.7-2.675c-10.4-6.082-37.268-18.015-60.706,3.618-31.262,28.761-56.166-8.776-81.218,8.952C65.195,90.389,112.868,160.2,171.06,164.062c11.643,1.014,23.3,1.864,34.93.738,18.829-2.106,35.628-6.275,54.13-4.517a1.761,1.761,0,0,1,.467,3.4c-47.413,17.861-57.617,66.422-94.33,71-5.024.627-17.939.179-28.774-22.352-9.139-19-41.936-21.618-52.206-21.968a1.993,1.993,0,0,0-1.877,2.8c33.741,76.712,98.166,41.516,98.166,41.516-13.154,25.839-54.26,73.642-82.884,38.871-6.41-7.788-24.573-29.933-27.366-43.991-7.853-39.539-54.781-47.394-65.893-48.707A1.919,1.919,0,0,0,3.294,182.979Zm373.118-50.9c32.973,17.026,45.012,47.9,17.519,83.362a1.1,1.1,0,0,1-1.885-1.045c12.3-39.153-2.816-68.229-16.5-81.087A.759.759,0,0,1,376.412,132.08ZM189.071,403.251c-26.109-6.959-46.747-37.983-15.337-81.859a1.012,1.012,0,0,1,1.788.891c-11.671,37.133-12.288,50.111,14.917,78.6A1.423,1.423,0,0,1,189.071,403.251Z" style="fill:#c0392b"/><path d="M365.442,594.931c27.558.787,76.792.4,76.792.4a12.532,12.532,0,0,0,5.705-1.407c130.94-70.3,82.823-155.229-4.906-196-40.08-18.629-55.773-16.866-82.136-53.911-2.224-3.011-4.565-4.327-8.356-3.92-11.1,1.507-30.522-10.647-27.375-25.4,2.6-12.191,10.229-21.229,14.681-25.641a1.52,1.52,0,0,0-1.729-2.453c-31.508,16.114-53.508,62.085-36.933,90.573,15.448,28.334,60.683,46.395,84.267,78.617,34.055,46.526-16.1,108.109-82.9,135.666a1.72,1.72,0,0,0,.592,3.309c6.041.232,13.974.51,18.618.559a22.032,22.032,0,0,0,15.319-5.921c30.277-28.392,73.664-55.066,68.322-112.911a1.473,1.473,0,0,1,2.834-.687c19.463,47.737-12.849,81.362-36.937,107.315A22.074,22.074,0,0,0,365.442,594.931Z" style="fill:#c0392b"/><path d="M532.918,352.856c-34.44-23.1-69.5-22.048-108.613-20.024-11.4.968-28.806-1.967-38.763-6.255-4.721-2.033-8.683-7.734-8.739-12.939-.569-12.184,10.628-27.212,49.877-32.412,21.322-2.825,40.66.08,56.607,16.269,16.715,15.887,55.541,28.543,86.03,20.1a2.163,2.163,0,0,0,.794-3.787c-7.848-6.169-27.976-21.583-35.686-23.62-14.2-4.487-31.009,2.164-45.6.844-7.2-.306-13.1-5.794-17.08-11.324a3.8,3.8,0,0,1,1.006-5.427c34.5-22.35-5.395-36.008,8.06-78.687a.924.924,0,0,1,1.758-.016c3.112,9.841,2.7,21.468,5.691,31.8a1.211,1.211,0,0,0,2.241.194c4.305-8.569,7.148-18.026,7.078-26.963-.148-11.526-9.343-41.987-12.665-52.631a1.688,1.688,0,0,0-3.1-.3c-16.624,30.821-26.021,76-4.966,94.846,5.839,5.082,6.98,14.535.491,21.336a31.1,31.1,0,0,1-19.354,9.425c-14.95,1.8-28.671,2.652-43.778,5.383,45.357-33.624,28.676-64.009,22.568-72.457a1.9,1.9,0,0,0-3.176.138c-4.765,8.051-11.945,13.709-16.8,34.778-3.029,13.143,2.115,31.077-12.4,38.506-14.3,7.843-30.361,15.1-37.241,30.976-8.075,18.65,14.128,41.609,28.544,51.114,22.575,15.036,48.8,21.967,72.249,35.9,149.821,89.037,39.395,178.042,15.949,194.864a1.577,1.577,0,0,0,.913,2.858c13.4.062,50.344.234,70.836.366,7.346-.02,13.05-3.632,17.031-9.609C608.537,534.712,611.066,405.268,532.918,352.856Zm46.087,93.933c-31.309-81.735-98.7-102.071-128.7-107.1a1.3,1.3,0,0,1,.186-2.587c101.411-2.942,124.8,77.866,130.76,109.059A1.171,1.171,0,0,1,579.005,446.789Z" style="fill:#c0392b"/><path d="M224.48,507.818c-7.175,4.136-17.811,12.756-9.219,12.953,70.205,1.6,78.3-55.23,79.24-68.366a1.568,1.568,0,0,0-2.244-1.526,453.194,453.194,0,0,1-61.569,24.094c-17.991,5.363-26.965,21.095-32.856,38.926a31.911,31.911,0,0,1-5.33,10.067c-8.235,10.053-16.573,22.41-20.916,34.683-1.155,3.264-3.643,3.638-6.588,1.757-16.609-10.6-34.725-10.318-49.063-22.686-21.913-18.9-30.971-44.75-34.382-58.15A.874.874,0,0,1,83.2,479c7.126,15.871,24.753,49.968,48.987,61.377a1,1,0,0,0,1.273-1.42c-2.732-4.559-8.083-14.155-10.15-22.562-10.1-41.108-44.881-63.6-54.281-69.026a1.571,1.571,0,0,0-2.358,1.382c.142,11.188,2.156,54.8,24.353,81.066,8.486,10.04,15.8,17.375,28.541,20.928,13.873,3.869,26.213,5.72,37.308,10.885,15.4,7.171,7.788,25,15.758,34.08h9.419c-35.952-53.865,77.074-122.875,88.59-123.444a1.193,1.193,0,0,1,1.3,1.942C264.459,481.885,246.711,495,224.48,507.818Z" style="fill:#c0392b"/><path d="M94.011,165.712c35.114,27.468,79.536,17.334,94.859,12.609a1.256,1.256,0,0,0-.244-2.449c-8.323-.83-23.775-2.383-33.112-3.4C52.851,161.295,75.73,2.147,55.331,4.313c-7.889.058-26.355.15-34.8.073a2.044,2.044,0,0,0-1.474,3.483,75.331,75.331,0,0,1,18.453,31.4C51.09,85.528,54.979,135.177,94.011,165.712Z" style="fill:#c0392b"/></svg>