<?xml version="1.0" ?><svg fill="#c0392b" data-name="Layer 4" id="Layer_4" viewBox="0 0 600 600" xmlns="http://www.w3.org/2000/svg"><title/><path d="M305.516,484.393C286.093,520.723,273.3,558.074,265.865,600h56.123a12.145,12.145,0,0,0,11.828-9.253A316.111,316.111,0,0,1,369.674,502.1a3.824,3.824,0,0,0-1.924-5.537c-15.212-5.773-31.834-11.541-50.027-17.165A10.377,10.377,0,0,0,305.516,484.393Z" style="fill:#c0392b"/><path d="M442.683,345.926c7.32,13.088,15.92,28.219,25.374,44.4a3.825,3.825,0,0,0,5.487,1.2c35.657-24.676,73.153-40.605,116.827-49.7A12.135,12.135,0,0,0,600,329.934V274.548c-57.668,8.739-107.131,27.187-153.979,57.7A10.313,10.313,0,0,0,442.683,345.926Z" style="fill:#c0392b"/><path d="M419.576,532.739c-13.332,22.172-20.544,41.615-27.264,67.261h63.75a12.178,12.178,0,0,0,11.284-7.626c4.392-10.859,9.12-21.173,16.192-32.028a4.06,4.06,0,0,0-1.405-5.774c-13.12-7.321-28.97-16.255-48.514-25.976A10.791,10.791,0,0,0,419.576,532.739Z" style="fill:#c0392b"/><path d="M505.488,453.655c9.823,15.548,19.914,30.955,29.962,45.506a4.063,4.063,0,0,0,5.745.957,182.156,182.156,0,0,1,50.534-26.4A12.2,12.2,0,0,0,600,462.2V400.025c-34.531,7.693-63.112,19.761-91.46,38.982A10.76,10.76,0,0,0,505.488,453.655Z" style="fill:#c0392b"/><path d="M574.528,560.664,584.837,581.7c1.6,2.586,0,5.019-2.987,2.09-20.422-20.021-111.734-112-178.893-244.717a1.275,1.275,0,0,0-2.4.712c1.135,10.238,2.876,29.652,2.222,47.769a7.5,7.5,0,0,1-12.575,5.278A2229.606,2229.606,0,0,1,217.854,215.665C169.4,159.855,122.863,83.556,93.163,5.568A8.611,8.611,0,0,0,85.124,0H72.147c13.569,27.452,35.873,74.9,65.741,121.457a1.466,1.466,0,0,1-2.352,1.749A1002.832,1002.832,0,0,1,46.183,2.645,5.768,5.768,0,0,0,41.327,0H0V48.922a8.569,8.569,0,0,0,2.9,6.434C73.3,117.51,240.993,273.925,370.167,423.529a7.473,7.473,0,0,1-4.714,12.214c-16.289,2.3-34.652,1.758-44.42,1.2a1.272,1.272,0,0,0-.594,2.43c95.445,43.927,186.348,98.371,233.049,127.58a4.228,4.228,0,0,1,.86,6.451A143.58,143.58,0,0,0,535.044,600H600V539.883A143.422,143.422,0,0,0,576.464,553.7,5.8,5.8,0,0,0,574.528,560.664Z" style="fill:#c0392b"/><path d="M280.151,394.192q-20.124-21.5-41.308-41.985a6.275,6.275,0,0,0-9.369.761C175.592,424.55,141.316,506.679,129.058,600H190.08a12.179,12.179,0,0,0,11.988-10.134c12.126-70.1,38.332-131.6,78.579-187.31A6.589,6.589,0,0,0,280.151,394.192Z" style="fill:#c0392b"/><path d="M303.51,234.309h0a8,8,0,0,0,11.018,2.6c19.322-11.993,78.052-46.245,150.16-67.3a1.072,1.072,0,0,1,.688,2.028c-51.909,20.219-96.822,46.209-139.294,80.734a6.256,6.256,0,0,0-1.413,8.065q15.117,25.143,32.675,48.709a6.565,6.565,0,0,0,9.456,1.151c63.435-52.668,137.761-86.512,222.8-99.379A12.186,12.186,0,0,0,600,198.882V138.39c-165.2,4.728-285.369,86.873-296.206,94.516A1.042,1.042,0,0,0,303.51,234.309Z" style="fill:#c0392b"/></svg>