<?xml version="1.0" ?><svg fill="#c0392b" data-name="Layer 4" id="Layer_4" viewBox="0 0 600 600" xmlns="http://www.w3.org/2000/svg"><title/><path d="M589.384,218.116c-8.536-1.217-33.671-2.79-54.507-.735-29.283,2.888-47.137-19.761-74.293-32.111a12.045,12.045,0,0,0-14.362,3.372c-7.754,9.605-17.543,26.169-22.187,34.274a1.484,1.484,0,0,1-2.774-.772c.253-8.766,2.071-27.439,13.526-50.945,29.191-59.9,18.592-116.455-26.475-144.571-121.363-75.712-163.673,69.4-242.819,30.764-11.624-5.675-13.708-19.673-13.821-27.486a2.343,2.343,0,0,0-4.071-1.529C137.156,39.718,136.494,61.1,141.46,72.625c10.886,28.816,50.283,44.553,78.684,38.252C243.551,106.1,260.682,92.72,281.9,82c54.742-27.665,102.6,39.842,21.409,85.87a6.969,6.969,0,0,0-3.267,4.892,1.305,1.305,0,0,0-.021.175c-2.329,43.777,33.865,61.029,48.939,66.294a2.229,2.229,0,0,1-.222,4.271c-7.61,1.833-21.482,2.912-40.2-5.036a56.8,56.8,0,0,1-33.895-45.335,201.261,201.261,0,0,1-1.651-21.135,7.829,7.829,0,0,0-8.337-7.6c-11.92.754-34.031,3.294-48.256,11.845-37.385,22.473-59.472,56.715-86.879,90.125a29.228,29.228,0,0,1-10.195,8.535C82.357,292.5,47.149,313.72,9.988,330.67a10.887,10.887,0,0,0-4.123,14.441c2.041,3.947,6.273,10.559,9.626,15.648a24.855,24.855,0,0,0,14.858,10.56c29.3,7.069,38.354-18.177,41.121-32.652a2.068,2.068,0,0,1,4.037-.108c4.594,18.093,9.314,55.641-32.637,50.41-1.693-.211-3.391-.468-5.281-.751a1.755,1.755,0,0,0-1.6,2.873c9.145,10.723,24.318,26.4,35.677,37.9a21.757,21.757,0,0,0,22.793,5.186C220,389.437,270.764,444.838,368.377,426.794c3.886-.718,3.423,7.273-3.85,13.69-14.006,12.359-36.364,14.974-61.1,14.119-2.437.585-3.224,3.316-1.961,5.481,15.363,26.324,9.223,67.946,8.685,73.072-1.34,12.748-3.935,40.313-3.265,56.784a5.818,5.818,0,0,0,5.819,5.582h2.472c-.612-19.753,2-39.391,3.946-50.891a1.6,1.6,0,0,1,3.164.071c1.412,11.458,3.921,30.172,6.793,44.149a8.472,8.472,0,0,0,8.22,6.755l258.081-.171L594.912,224.5A6.445,6.445,0,0,0,589.384,218.116ZM213.921,284.882c-5.929,3.811-12.063,3.608-18.062.925-6.221-2.783-8.06-8.4-7.865-17.8,1.794-11.593,8.159-23.287,21.816-29.755,12.706-6.018,22.222,4.138,22.437,14.142C232.337,265.408,224.535,277.6,213.921,284.882Z" style="fill:#c0392b"/><path d="M82.249,61.652c-18.373,21.5-32.164,61.683-10.2,106.076,20.034,40.5,67.98,52.035,92.369,20.225,13.878-18.1,24.547-22.946,32.89-28.688a5.245,5.245,0,0,0,.844-7.951c-7.226-7.594-17.3-6.719-51.278-.853C92.153,159.909,85.854,96.4,88.4,64.066A3.485,3.485,0,0,0,82.249,61.652Z" style="fill:#c0392b"/></svg>