<?xml version="1.0" ?><svg fill="#c0392b" data-name="Layer 5" id="Layer_5" viewBox="0 0 600 600" xmlns="http://www.w3.org/2000/svg"><title/><path d="M281.122,388.22c131.6.628,154.63-92.767,160.373-127.215a1.937,1.937,0,0,0-3.465-1.478c-9.014,12.084-29.243,34.074-45.317,14.134-16.953-21.031,9.212-64.229,15.417-81.131,23.3-63.463-88.194-73.023-107.736-98.591-19.881-26.012,24.65-57.964,44.727-70.506a2.753,2.753,0,0,0-1.646-5.079c-100.115,6.329-191.333,99.63-124.352,118.368,60.75,17,59.612,53.35,41.3,70.36-12.362,11.052-37.674,28.516-54.185,24.516-20.458-4.956-9.312-27-2.387-37.805a2.364,2.364,0,0,0-2.85-3.469c-41,15.841-63.287,43.474-63.287,82.869C137.71,346.632,214.318,385.9,281.122,388.22ZM321.96,172.2c7.5-1.6,10.936,1.42,10.912,9.879-3.582,19.49-19.32,22.7-27.357,23.04a4.9,4.9,0,0,1-5.121-4.851C300.409,183.031,315.51,173.736,321.96,172.2Zm-43.626,92.625c34.6,1.584,49.136-24.472,53.967-36.447a3.28,3.28,0,0,1,5.781-.6c7.576,11.464,22.834,39.931,9.716,67.6-14.274,30.109-37.389,45.778-62.966,46.254-21.186.223-41.5-8.185-49.553-25.473C223.819,291.559,236.827,262.924,278.334,264.825Z" style="fill:#c0392b"/><path d="M560.45,565.428,581.2,525.66a8.235,8.235,0,0,0-5.112-11.749c-78.8-21.729-160.451-43.61-196.3-58.814a1.983,1.983,0,0,1,1.11-3.779l46.641,7.825a15.508,15.508,0,0,0,9.452-1.388c24.715-12.254,73.024-32.683,93.647-41.311a2,2,0,0,0-.817-3.85l-122.846,2.251a85.9,85.9,0,0,0-25.613,4.4c-9.248,3.083-23.109,7.335-38.477,10.781a134.242,134.242,0,0,1-49.681,1.61c-60.4-9.241-223.618-34.67-257.279-39.916a9.1,9.1,0,0,0-9.252,4.394L11.722,421.663a2.932,2.932,0,0,0,2.681,4.413c29.073-1.536,168.435-6.674,272.141,28.78C337.1,472.139,392.336,492.01,436.77,517.839c30.041,17.462,92.484,43.046,113.309,51.422A8.233,8.233,0,0,0,560.45,565.428Z" style="fill:#c0392b"/><path d="M493,565.712c-26.38-16.03-97.357-58.1-140.06-73.372-49.28-17.62-129.888-44.4-188.524-51.474-22.087-2.663-50.059-3.726-72.145-4.2A1.81,1.81,0,0,0,92,440.268C242.991,459.91,388.812,538,491.665,568.714A1.656,1.656,0,0,0,493,565.712Z" style="fill:#c0392b"/><path d="M65.477,556.743c5.809,6.885,14.03,18.3,18.816,25.069a8.44,8.44,0,0,0,10.117,2.939c19.536-8.067,75.5-37.2,109.549-46.56,49.98-13.742,86.135-17.015,99.221-20.139a1.294,1.294,0,0,0-.171-2.546c-13.788-1.478-45.674-3.712-80.226,2.055-39.114,6.53-79.778-1.935-118.949,5.647-12.537,1.77-48.551,8.381-62.472,11.628a3.624,3.624,0,0,0-2.468,5.055c5.515,11.913,18.987,37.481,23.963,46.871a6.682,6.682,0,0,0,5.91,3.552H74.29a1.472,1.472,0,0,0,1.34-2.1c-2.582-5.5-9.547-20.582-12.815-29.952A1.559,1.559,0,0,1,65.477,556.743Z" style="fill:#c0392b"/><path d="M408.542,396.676a2.206,2.206,0,0,0,.881,4.261l130.3-4.6a52.518,52.518,0,0,0,14.432-2.557L585.369,383.6a4.8,4.8,0,0,0,2.695-6.926l-28.756-51.017a4.8,4.8,0,0,0-6.6-1.8c-14.67,8.518-63.825,36.935-84.562,47.362C450.753,379.968,424.065,390.651,408.542,396.676Z" style="fill:#c0392b"/><path d="M62.037,515.4c24.455-3.048,73.252-7.564,124.12-4.748a223.818,223.818,0,0,0,37.863-1.17l37.321-5.654a1.718,1.718,0,0,0,.263-3.338c-21.634-6.773-87.378-26.066-108.883-17.554-29.878,11.826-61.316,18.177-91.485,29.126A1.728,1.728,0,0,0,62.037,515.4Z" style="fill:#c0392b"/><path d="M53.328,352.689l-11.32,17.759a4.375,4.375,0,0,0,2.855,6.646l148.611,28.887a1.1,1.1,0,0,0,.619-2.1L60.428,350.4A5.846,5.846,0,0,0,53.328,352.689Z" style="fill:#c0392b"/><path d="M444.171,11.139C435.489,6.251,414.72,14.653,407.8,22.11c-7.965,8.594-2.485,19.465,10.56,19.209C443.951,39.732,459.864,19.974,444.171,11.139Z" style="fill:#c0392b"/></svg>