<?xml version="1.0" ?><svg fill="#c0392b" data-name="1" id="_1" viewBox="0 0 600 600" xmlns="http://www.w3.org/2000/svg"><title/><path d="M39.243,460.485l-1.978,24.98a6.878,6.878,0,0,0,8.416,7.242l24.985-5.818a15.1,15.1,0,0,1,17.694,9.774l11.585,33.545a6.878,6.878,0,0,0,9.689,3.849l39.792-20.814a15.1,15.1,0,0,1,17.4,2.441l26.431,25.151a6.875,6.875,0,0,0,11.562-5.815c-19.3-161.757,16.982-309.385,33.872-373.93,5.066-19.36,12.682-35.8-17.3-51.979-38.2-20.608-21.964-41.867,47.732-40.033,0,0,133.523,4.4,46.255,42.627-19.49,8.537-30.846,29.21-31.08,50.486-.781,70.9,1.409,231.8,31.856,374.625a7.577,7.577,0,0,0,11.61,4.726l40.325-26.86a14.571,14.571,0,0,1,16.946.565l35.643,27.338a7.572,7.572,0,0,0,11.054-2.037l24.684-40.073a14.571,14.571,0,0,1,19.052-5.326l40.064,20.53a7.571,7.571,0,0,0,10.826-5.02l7.223-31a14.573,14.573,0,0,1,16.44-11.091l35.779,5.586a7.579,7.579,0,0,0,8.549-9.2C558.493,309.9,410.632,193.816,354.264,153.077c-11.094-8.018-14.326-25.421-3.731-34.086C433.1,51.47,207.867,38.632,174.328,77.94c-4.886,5.727,7.742,21.084,17.041,32.189a28.286,28.286,0,0,1,.6,35.471C79.766,290.323,21.674,401.6,6.165,433.051a6.878,6.878,0,0,0,5.518,9.894l13.933,1.319A15.1,15.1,0,0,1,39.243,460.485Z" style="fill:#c0392b"/></svg>