<svg fill="#c0392b" xmlns="http://www.w3.org/2000/svg" x="0px" y="0px" width="100" height="100" viewBox="0 0 72 72">
<path d="M 18 11.992188 C 14.686 11.992188 12 14.678187 12 17.992188 L 12 50.992188 C 12 54.306187 14.686 56.992188 18 56.992188 L 43 56.992188 C 46.314 56.992187 49 54.306188 49 50.992188 L 49 17.992188 C 49 14.678187 46.314 11.992188 43 11.992188 L 18 11.992188 z M 53 19.794922 L 53 50.992188 C 53 56.515187 48.523 60.992188 43 60.992188 L 42.011719 60.992188 L 50.560547 62.564453 C 53.819547 63.164453 56.947875 61.007047 57.546875 57.748047 L 63.068359 27.699219 C 63.671359 24.420219 61.485172 21.280078 58.201172 20.705078 L 53 19.794922 z M 30.5 25 C 30.5 25 38 30.3815 38 34.6875 C 38 37.3775 36.393 38.992188 34.25 38.992188 C 32.894 38.992187 31.755563 38.132047 31.101562 37.498047 C 31.377563 39.051047 32.213219 40.393313 32.824219 41.195312 C 33.073219 41.522312 32.832875 41.992188 32.421875 41.992188 L 28.578125 41.992188 C 28.166125 41.992188 27.927734 41.522312 28.177734 41.195312 C 28.788734 40.393313 29.622438 39.051047 29.898438 37.498047 C 29.243437 38.131047 28.106 38.992188 26.75 38.992188 C 24.607 38.992187 23 37.3785 23 34.6875 C 23 30.3825 30.5 25 30.5 25 z"></path>
</svg>