<svg fill="#c0392b" xmlns="http://www.w3.org/2000/svg" x="0px" y="0px" width="100" height="100" viewBox="0 0 64 64">
<path d="M18 34c5.349 0 7.925.812 12.565 2.482 2.787 1.003 4.179 1.363 6.477 2.285C38.655 39.415 40 40.092 40 42.423c0 1.136-1.382 3.924-5.842 2.499-2.5-.799-4.83-1.478-4.83-1.478l-.243.73 6.007 4.396 8.089-.103C50.898 43.381 52.781 42 55 42c1.657 0 3 1.343 3 3 0 1.126-.59 1.797-1.538 2.62s-10.299 7.517-10.299 7.517-7.115 1.802-8.349 2.216C37.454 57.473 36.31 58 35 58c-.46 0-2.568-.726-3.438-1.122-.871-.396-13.99-5.653-13.99-5.653-1.006-.412-2.134-.398-3.13.034L6 54V37.035C6 37.035 14.876 34 18 34zM51 6c-4.563 0-7.5 3.287-7.5 3.287S40.563 6 36 6c-4.971 0-9 4.013-9 8.964C27 23.929 43.5 34 43.5 34S60 23.929 60 14.964C60 10.013 55.971 6 51 6z"></path>
</svg>