<svg width="600" height="600" viewBox="0 0 600 600" fill="none" xmlns="http://www.w3.org/2000/svg">
<g clip-path="url(#clip0_228_685)">
<path d="M227.338 352.352C230.05 357.712 234.125 362.265 239.156 365.556C244.186 368.848 249.995 370.76 256 371.103C267.572 371.751 283.124 372.767 294.632 374.063C295.252 374.135 295.829 374.418 296.263 374.867C296.698 375.315 296.963 375.899 297.014 376.521C297.065 377.142 296.899 377.762 296.543 378.275C296.188 378.788 295.665 379.162 295.065 379.333C282.896 382.626 269.46 390.254 260.068 396.268C256.274 398.699 253.065 401.937 250.671 405.751C248.278 409.565 246.758 413.86 246.222 418.328C241.102 460.903 242.171 504.882 212.99 594.579C212.862 594.97 212.829 595.386 212.893 595.793C212.957 596.2 213.117 596.586 213.359 596.919C213.6 597.253 213.918 597.525 214.285 597.712C214.652 597.9 215.058 597.999 215.471 598H218.46C219.903 598.001 221.311 597.559 222.494 596.732C223.676 595.905 224.574 594.735 225.065 593.38C228.721 583.303 237.493 558.198 243.794 532.686C243.851 532.449 243.996 532.241 244.198 532.105C244.401 531.968 244.647 531.912 244.889 531.946C245.131 531.981 245.352 532.105 245.507 532.293C245.663 532.481 245.743 532.721 245.731 532.965L242.991 592.501C242.96 593.156 243.063 593.81 243.293 594.424C243.523 595.038 243.875 595.599 244.328 596.073C244.781 596.547 245.326 596.925 245.93 597.183C246.533 597.441 247.183 597.574 247.839 597.574L368.431 597.969C369.55 597.971 370.657 597.726 371.671 597.252C372.685 596.778 373.582 596.087 374.298 595.227C375.013 594.367 375.53 593.36 375.811 592.277C376.092 591.195 376.13 590.064 375.922 588.966C367.371 542.894 363.425 487.598 358.563 442.224C358.363 427.988 347.403 394.774 374.588 375.578C396.627 360.017 397.995 312.469 396.627 278.744C396.289 270.431 394.777 255.728 384.515 255.973C376.904 255.293 343.461 270.084 327.398 277.435C323.482 279.209 320.045 281.887 317.37 285.248C314.695 288.609 312.858 292.556 312.012 296.765C309.784 308.1 309.152 323.138 309.025 334.108C309.021 334.586 308.85 335.048 308.543 335.414C308.235 335.78 307.81 336.029 307.339 336.116C306.868 336.204 306.382 336.126 305.963 335.895C305.543 335.665 305.217 335.296 305.04 334.852C299.995 322.467 289.177 305.141 266.873 297.743C262.488 296.331 258.652 293.594 255.893 289.91C252.22 284.916 251.971 281.602 256.641 281.097C308.797 275.499 326.272 254.415 332.09 241.953C332.563 240.956 332.774 239.855 332.705 238.753C332.637 237.651 332.289 236.585 331.696 235.654C331.102 234.723 330.282 233.957 329.312 233.428C328.342 232.899 327.253 232.624 326.148 232.629C289.544 232.745 250.155 231.055 229.672 230.021C221.308 229.6 213.68 235.516 212.722 243.823C207.194 291.544 215.752 329.562 227.338 352.352Z" fill="#c0392b"/>
<g clip-path="url(#clip1_228_685)">
<path d="M551.172 248.943C552.096 249.145 553.056 249.111 553.964 248.846C554.872 248.58 555.699 248.09 556.369 247.422L558.003 245.788C558.128 245.663 558.217 245.507 558.261 245.336C558.306 245.165 558.304 244.985 558.255 244.815C558.207 244.645 558.114 244.491 557.987 244.369C557.859 244.247 557.701 244.161 557.529 244.12L489.652 230.988C489.444 230.95 489.258 230.835 489.13 230.665C489.003 230.496 488.944 230.285 488.966 230.074C488.987 229.864 489.087 229.669 489.245 229.528C489.403 229.388 489.609 229.312 489.821 229.316C505.064 229.583 536.659 230.863 562.884 236.662C564.151 236.73 565.418 236.531 566.603 236.077C567.787 235.624 568.863 234.926 569.76 234.029L582.669 221.12C583.003 220.786 583.191 220.333 583.191 219.86C583.191 219.388 583.003 218.935 582.669 218.601L572.642 208.574C570.289 206.222 567.44 204.424 564.303 203.314C561.167 202.204 557.822 201.808 554.512 202.157C506.639 207.187 457.721 209.91 412.445 211.244L411.053 230.988C456.198 233.477 504.572 238.819 551.172 248.943Z" fill="#c0392b"/>
<path d="M169.514 289.538L168.2 265.446C168.131 264.174 167.68 262.951 166.906 261.938C166.132 260.925 165.071 260.169 163.861 259.768C158.106 257.951 152.914 254.686 148.782 250.287C147.262 248.64 146.238 246.596 145.827 244.392C145.417 242.188 145.637 239.913 146.463 237.828C147.288 235.744 148.685 233.935 150.493 232.609C152.301 231.283 154.447 230.495 156.683 230.334C163.413 229.859 172.766 230.537 185.576 233.807C186.871 234.079 188.22 233.942 189.434 233.414C190.648 232.885 191.667 231.993 192.351 230.859C197.477 221.654 199.079 212.236 196.521 202.563C196.138 201.1 195.219 199.833 193.945 199.016C192.672 198.199 191.138 197.891 189.648 198.153C173.326 201.099 162.198 199.438 154.882 196.702C152.946 195.969 151.235 194.745 149.916 193.15C148.597 191.555 147.716 189.644 147.36 187.606C147.003 185.567 147.184 183.471 147.883 181.523C148.582 179.575 149.776 177.843 151.348 176.496C155.343 173.058 160.065 170.569 165.159 169.215C166.439 168.868 167.58 168.13 168.42 167.103C169.26 166.076 169.758 164.812 169.844 163.488L171.316 140.23C171.337 139.886 171.263 139.543 171.103 139.239C170.943 138.934 170.702 138.679 170.407 138.502C170.112 138.325 169.773 138.232 169.429 138.234C169.085 138.236 168.748 138.332 168.454 138.512C110.921 174.325 24.1274 203.689 4.15536 210.212C3.86224 210.306 3.60632 210.491 3.42406 210.739C3.2418 210.987 3.14248 211.286 3.14024 211.594C3.138 211.902 3.23296 212.203 3.4116 212.454C3.59023 212.704 3.84344 212.892 4.13516 212.991C22.9037 219.516 101.379 248.089 166.598 291.207C166.889 291.399 167.227 291.507 167.575 291.518C167.923 291.529 168.268 291.444 168.57 291.271C168.872 291.098 169.121 290.844 169.287 290.538C169.454 290.232 169.533 289.886 169.514 289.538Z" fill="#c0392b"/>
</g>
<path d="M371.48 160.475C366.742 161.379 364.459 163.94 363.682 168.616C359.28 189.358 354.796 223.77 356.295 242.261C356.61 246.132 358.273 246.568 361.957 245.491C375.152 241.635 382.789 237.431 386.996 234.423C388.427 233.404 389.632 232.105 390.539 230.606C391.445 229.107 392.033 227.439 392.267 225.706C394.162 211.479 395.34 191.058 396.982 178.345C397.573 164.294 383.727 158.167 371.48 160.475Z" fill="#c0392b"/>
<path d="M213.154 167.494C212.951 176.951 212.814 191.854 213.654 201.495C213.882 204.16 215.112 206.633 217.088 208.401C219.063 210.17 221.634 211.097 224.266 210.992C226.317 210.907 228.366 210.873 230.411 210.933C246.939 209.834 244.057 171.814 243.376 165.863C242.634 156.29 233.459 152.754 224.056 154.382C221.025 154.949 218.283 156.566 216.295 158.957C214.307 161.348 213.197 164.365 213.154 167.494Z" fill="#c0392b"/>
<path d="M324.134 214.924C331.843 215.756 339.987 209.687 341.501 200.919C343.109 191.607 349.507 162.874 339.511 159.106C334.399 156.999 328.916 155.951 323.391 156.025C313.973 155.505 311.002 163.246 309.8 171.278C307.967 181.893 307.031 192.644 307 203.418C307.234 214.767 315.274 214.542 324.134 214.924Z" fill="#c0392b"/>
<path d="M277.684 155.243C274.275 155.601 271.072 157.068 268.553 159.423C266.035 161.779 264.337 164.897 263.712 168.312C262.015 177.498 261.233 190.148 261.005 200.123C260.961 201.663 261.222 203.196 261.772 204.632C262.322 206.067 263.15 207.377 264.207 208.484C265.264 209.591 266.529 210.472 267.928 211.076C269.326 211.68 270.829 211.994 272.349 212C283.904 211.962 299.46 204.385 293.799 161.313C292.978 155.066 284.716 154.529 277.684 155.243Z" fill="#c0392b"/>
</g>
<defs>
<clipPath id="clip0_228_685">
<rect width="600" height="600" fill="white"/>
</clipPath>
<clipPath id="clip1_228_685">
<rect width="418.017" height="418.017" fill="white" transform="translate(-4.42578 211.583) rotate(-45)"/>
</clipPath>
</defs>
</svg>
