<?xml version="1.0" ?><svg fill="#c0392b" id="icon" viewBox="0 0 512 512" xmlns="http://www.w3.org/2000/svg"><title/><path d="M341.2,200.28a36.4,36.4,0,0,1-9.45-12.74c-8.78-20-34.58-73.85-72.27-108.65a48.28,48.28,0,0,0-69,3.82l-.27.3a230,230,0,0,0-40.68,67.21c-8.64,22-17.6,48.88-20.48,71.5a90.82,90.82,0,0,1-9.58,31.18c-.8,1.5-1.65,3-2.52,4.41A10.4,10.4,0,0,1,101.61,260a10.63,10.63,0,0,1-2.24-13.82c.6-1,1.18-2,1.73-3.05a70.07,70.07,0,0,0,7.32-24.06c.53-4.15,1.24-8.41,2.09-12.74A5.78,5.78,0,0,0,101,200.9c-18.45,16.15-40.1,43.4-47.73,85.89a112.86,112.86,0,0,1-9.12,28.76C34.38,336.1,17.84,377.25,18,421a25,25,0,0,0,25,24.83h323.8A35.75,35.75,0,0,0,402,416.74c3.92-21.25,3-51.81-19.67-83.6C382.35,333.14,387.48,240.93,341.2,200.28ZM179.35,254.56c-4.24,15.95-7.63,30.62-10.09,43.61-.48,3-5.47,30.3-26.88,52.55a86.82,86.82,0,0,1-12.46,10.54c-6.1,4.34-20.33,16.45-20.78,35.12a10.4,10.4,0,0,1-10.39,10.14H98.5a10.4,10.4,0,0,1-10.14-10.64c.69-28.06,20.87-45.4,29.51-51.55a67.06,67.06,0,0,0,9.54-8c17.46-18.15,21.31-41.29,21.35-41.52s0-.24.06-.33c2.55-13.52,6.06-28.74,10.45-45.24a10.39,10.39,0,0,1,20.08,5.34Zm18.2-60.27s-.36,1-1,2.88a10.39,10.39,0,0,1-19.7-6.63c.66-2,1-3,1-3a10.39,10.39,0,0,1,19.64,6.79Zm163.63,216.3a13.69,13.69,0,0,1-13.53,11.85,3.54,3.54,0,0,1-3.55-3.6A134.53,134.53,0,0,0,342,390.76c-1.08-5.69-6.34-9.83-12-8.86a10.39,10.39,0,0,0-8.46,12.24,100.32,100.32,0,0,1,1.6,12.59,14.81,14.81,0,0,1-14.81,15.71h-84A13.65,13.65,0,0,1,210.93,406c2.55-11.94,8.16-29.55,20.51-50a143.27,143.27,0,0,0,9.36-18c1.36-3.18,2.86-6.9,4.39-11.05,2.06-5.56,10.33-4.25,10.52,1.68,0,.2,0,.39,0,.59a67.83,67.83,0,0,0,10.22,33.91c4.13,6.67,9.23,17.25,10.06,29.73a10.39,10.39,0,0,0,10.36,9.7c.23,0,.46,0,.7,0a10.39,10.39,0,0,0,9.68-11.05c-1.12-16.75-7.76-30.62-13.13-39.3a46.91,46.91,0,0,1-7.11-23.48c-.43-17.41-5.21-30.71-10.92-40.49a60.6,60.6,0,0,1-8.36-26.69l-.05-.81s-.26-4.84.1-11.7l.1-.15c6.07-9.6,20.18-9.42,26.25.18a65,65,0,0,1,9.89,31.11v40.69a69.9,69.9,0,0,0,8.16,33.2A10.37,10.37,0,0,0,316.21,358a10.69,10.69,0,0,0,3.57-14.14,49.27,49.27,0,0,1-5.49-23v-41c0-.19,0-.39,0-.58A85.52,85.52,0,0,0,301.37,238a5.18,5.18,0,0,1,3.36-7.77l.1,0a5.05,5.05,0,0,1,5,1.81c12.63,16,26.36,32.6,28.28,81.8.44,11,4.32,21.67,9.79,31.27C355.65,358.7,365.14,382.07,361.18,410.59Z"/><path d="M453,181.39a17.88,17.88,0,0,1-12.92-9.6,43.83,43.83,0,0,0-20.93-20.54c-19.85-9.05-43.57-1.13-54.46,17.77q-.76,1.33-1.5,2.76A12.38,12.38,0,0,0,365.34,186c11.09,11.51,34.18,41.12,35,88.61a12.33,12.33,0,0,0,12.35,12.08h31.93a43.28,43.28,0,0,0,36.53-19.88,85,85,0,0,0,12-30.5,44.37,44.37,0,0,0-5.87-31.79C481.35,195.06,470.84,184.49,453,181.39Z"/><path d="M483.54,311.18a10.4,10.4,0,0,0-13.06,6.74l-4,12.64a29.58,29.58,0,0,1-13.78,16.89,48.56,48.56,0,0,0-5,3.25V316.54a10.39,10.39,0,0,0-20.78,0V435.43a10.39,10.39,0,1,0,20.78,0V391.49a29.71,29.71,0,0,1,15.19-25.91,50.33,50.33,0,0,0,23.42-28.7l4-12.64A10.39,10.39,0,0,0,483.54,311.18Z"/></svg>