<?xml version="1.0" ?><svg fill="#c0392b" data-name="Layer 4" id="Layer_4" viewBox="0 0 600 600" xmlns="http://www.w3.org/2000/svg"><title/><path d="M238.934,181.394c4.757.661,4.854.79,3.471,5.229-11.668,40.083-26.937,79.178-35.385,120.131-.856,5.171.762,8.753,4.673,11.683l70.9,37.138a4.243,4.243,0,0,0,5.882-3.364C290,295.326,298.705,237.2,298.705,237.2a1.946,1.946,0,0,1,3.869-.07c15.085,93.638,7.418,198.974,1.7,246.44a2.094,2.094,0,0,1-4.152.174c-4.9-29.86-7.686-75.017-9.287-92.1-.68-7.4-8.147-13.5-8.147-13.5L217.19,342.419a2.972,2.972,0,0,0-4,3.68C239.2,422.211,288.464,564.221,298.7,592.151a2.054,2.054,0,0,0,3.848.032C313,564.8,362.732,426.727,389.319,347.671a3.375,3.375,0,0,0-4.876-4l-56.308,35.306a2.371,2.371,0,0,1-3.5-2.543l1.719-16.507a10.894,10.894,0,0,1,4.45-7.7l56.837-41.1a9.486,9.486,0,0,0,3.408-10.311c-10.057-33.715-17.687-61.755-27.716-95.513-1.722-5.813-2.565-5.014-6.818-4.623-25.347,2.163-54.872-1.554-76.794-12.3a1.642,1.642,0,0,1,.741-3.112c61.214.347,126.824-2.1,179.789-35.956,13.975-9.635,26.612-20.728,12.375-37.23C455.642,93.215,411.4,69.026,345.11,68.089a1.993,1.993,0,0,0-1.945,2.522c1.071,3.872,2.87,10.2,4.076,14.436a6.035,6.035,0,0,0,5.71,4.457c75.586-.1,139.7,49.151.42,60.906-4.494.379-6.621-1.64-7.986-6.074C331.289,98.92,317.7,53.716,303.432,8.348A2.649,2.649,0,0,0,298.4,8.3c-15.15,45.331-28.412,91.334-43,136.9-.953,3.094-2.346,3.614-5.417,3.265-100.113-11.368-74.062-33.47-69.942-35.834C205.4,98.07,241.112,93.412,254.35,92.133a1.411,1.411,0,0,0,.026-2.8,6.855,6.855,0,0,0-1.055-.033c-42.361,2.349-68.958,13.872-77.771,18.308a.73.73,0,0,1-.847-1.167c5.906-5.973,29.778-19.574,80.1-23.326a6.834,6.834,0,0,0,5.651-3.868l4.483-9.373a1.006,1.006,0,0,0-.956-1.444c-45.557,2.461-115.17,11.539-140.911,47.833-3.413,4.813-1.339,12.309,2.181,16.662C151.852,165.121,199.525,174.805,238.934,181.394Z" style="fill:#c0392b"/><path d="M60.369,315.316c4.053,3.115,2.995,10.751-4.281,7.661-10.185-4.325-21.169-14.5-28.059-21.614a2.493,2.493,0,0,0-4.123,2.614,71.119,71.119,0,0,0,17.986,26.886c9.151,8.586,15.435,16.854,21.181,31.1,15.322,37.974,73.681,49.571,96.451,14.686,18.134-27.781,13.211-75.261-38.044-109.218-47.9-31.732-95.074-70.316-93.14-131.637a26.283,26.283,0,0,0-1.475-9.664l-.506-1.418a1.475,1.475,0,0,0-2.817.136c-36.5,141.951,83.849,147.121,110.416,192.01a33.072,33.072,0,0,1,4,11.872c3.091,20.321-12.473,39.064-33.005,38.072a22.483,22.483,0,0,1-5.975-1.041c-11.168-3.7-20.248-12.7-18.84-25.758,1.415-13.12,9.452-9.917,9.324-7.462-.956,18.275,14.655,22.466,21.963,19.3,19.488-8.443,11.231-36.327-16.066-50.436C31.5,268.391,12.941,228.328,7.869,204.983a1.377,1.377,0,0,0-2.545-.374C-3.941,221-1.8,267.518,60.369,315.316Z" style="fill:#c0392b"/><path d="M594.676,204.609a1.377,1.377,0,0,0-2.545.374c-5.072,23.345-23.63,63.408-87.492,96.417-27.3,14.109-35.554,41.993-16.067,50.436,7.309,3.166,22.92-1.025,21.964-19.3-.128-2.455,7.909-5.658,9.324,7.462,1.408,13.058-7.672,22.059-18.84,25.758a22.483,22.483,0,0,1-5.975,1.041c-20.532.992-36.1-17.751-33-38.072a33.072,33.072,0,0,1,4-11.872c26.567-44.889,146.912-50.059,110.416-192.01a1.475,1.475,0,0,0-2.817-.136l-.506,1.418a26.283,26.283,0,0,0-1.475,9.664c1.934,61.321-45.241,99.905-93.14,131.637-51.256,33.957-56.178,81.437-38.044,109.218,22.77,34.885,81.129,23.288,96.451-14.686,5.746-14.241,12.03-22.509,21.181-31.1a71.119,71.119,0,0,0,17.986-26.886,2.494,2.494,0,0,0-4.124-2.614c-6.889,7.118-17.873,17.289-28.058,21.614-7.276,3.09-8.334-4.546-4.281-7.661C601.8,267.518,603.941,221,594.676,204.609Z" style="fill:#c0392b"/></svg>