<?xml version="1.0" ?><svg fill="#c0392b" data-name="Layer 4" id="Layer_4" viewBox="0 0 600 600" xmlns="http://www.w3.org/2000/svg"><title/><path d="M598.422,499.807c-47.978,41.406-102.735,73.953-161.457,97.672H598.422Z" style="fill:#c0392b"/><path d="M409.059,597.479C479.2,572.53,543.009,532.47,598.422,482.864V471.9c-62.373,58.175-137.992,102.532-220.26,125.578Z" style="fill:#c0392b"/><path d="M58.65,514.234c1.285-2.142,1.914-2.267,3.949-.944,6.812,4.429,11.24,7.133,18.058,11.553,1.134.735,1.643,1.543,1.074,2.883-10.092,33.493,13.073,53.96,44.336,59.852,19.175,3.613,43.6,9.027,68.307.712,3.8-1.353,23.035-11.824,25.864-37.365a2.6,2.6,0,0,1,2.6-2.494c8.227-.934,58.651-10.112,75.329-15.021,4.811-1.378,9.414-3.288,13.267-6.608,8.144-7.018,7.855-19.5-.607-25.494-5.97-4.542-13.3-3.459-20.095-1.808-2.452.417-3.048-.074-2.788-2.547,1.091-10.373,5.866-18.284,15.8-22.3,16.02-6.367,31.958-13.249,48.731-17.324,18.037-4.382,26.935,6.193,30.909,13.928a6.393,6.393,0,0,1-3.558,8.949c-6.629,2.309-15.762,7.341-13.471,17.18,2.742,11.779,15.387,15.491,26.134,9.831,3.834-2.218,8.3,4.173,7.584,8.571-3.092,18.9-39.188,27.761-57.391,32.755-10.671,2.568-23.565,4.255-33.457-1.562-3.491-2.542-7.017-2.71-10.812-1.765-9.046,2.35-17.869,4.422-26.8,7.114a2.561,2.561,0,0,0-1.455,3.752c25.034,41.929,86.4,21.96,123.057,7.556,39.862-15.665,36.641-45.573,32.472-59.679a10.23,10.23,0,0,1,4.944-11.851,442.852,442.852,0,0,0,41.553-26.061c2.181-1.587,3.605-1.367,5.716-.021,46.482,32.436,81.369-.353,115.737-32.489a11.947,11.947,0,0,0,3.682-9.183q-.171-72.767-.074-145.466a.841.841,0,0,0-1.549-.456c-14.116,21.871-28.821,43.268-46.665,62.408-9.006,8.3-15.011,20.734-5.92,30.978,5.828,6.419,15.967,7.289,23.61,1.78l15.253-15.749s13.877,22.871-1.025,39.522a241.815,241.815,0,0,1-46.771,40.637c-7.47,4.967-15.111,5.313-23.219,2.1-8.092-3.2-5.983-3.31-1.827-7.932,12.043-11.057,12.386-32.593-7.794-32.055-9.606,1.152-15.72,8.706-23.369,14.088-4.092-11.107-7.286-22.069-.977-32.778,10.532-20.1,26.239-36.932,43.712-51.152,5.407-4.37,10.408-8.86,17.82-5.444,3.418,1.427,8.341-1.567,10.537-3.837,6.222-6.434,12.069-15.123,14.719-19.257a2.474,2.474,0,0,0-1.026-3.566c-4.787-2.291-6.99-3.485-12.019-5.512-14.613-6.173-32.8-2.261-44.478,8.411-25.945,20.691-51.677,44.377-64.839,75.541-7,17.885-2.332,36.207,4.458,53.25a11.07,11.07,0,0,1-2.031,11.6c-4.23,4.61-12.282,11.129-27.069,17.025-4.175,1.664-9.52-2.954-12.1-6.632-10.442-14.868-34.574-52.5-134.812,3.485-15.734,8.788-14.465,39.761-13.51,50.517a4.278,4.278,0,0,1-3.409,4.574c-7.831,1.6-19.563,3.232-25.744,4.536-3.561.751-3.818.583-4.313-2.716-1.545-10.282-7.171-18.437-14.651-24.862C190.2,471.9,118.058,449.866,94.567,495.208c-1.641,3.168-1.976,2.918-5.427.791s-6.861-4.368-10.186-6.708c-5.262-3.7-5.174-3.834-.752-9.058,12.682-14.011,21.984-60.492-65.244-113.324C10.369,365.341.9,354.088,1.625,362.729c-.036,6.656.243,21.076.049,30.278-.066,3.1.764,6.442,3.2,8.352,10.887,8.516,71.773,42.789,51.511,67.322-1.116,1.352-1.874,1.626-3.187.491a84.437,84.437,0,0,0-7.659-6.36,33.161,33.161,0,0,0-8.31-4.291c-6.625-2.1-16.2,3.179-16.154,12.348-.425,8.547,9.9,16.245,15.226,19.633,1.622,1.031,1.145,2.867.254,4.57-4.522,8.649-8.984,14.422-21.318,8.911-6.658-2.974-13.621-9.448-13.621-9.448s.015,22.69-.043,31.006C1.578,525.541,35.8,552.344,58.65,514.234Zm47.735,23.313c.417-3.675.736-3.81,4.422-3.3,11.117,1.819,30.668-6.35,18.373-18.891a68.78,68.78,0,0,0-6.469-4.817,6.035,6.035,0,0,1-1.253-8.9c19.422-22.384,75.8-6.431,74.543,16.877-.153,2.841-.109,3.1-2.928,3.425-8.828,1.353-18.566.682-26.63,4.907-13.147,8.829-4.591,23.124,8.991,24.516a20.159,20.159,0,0,0,4.45.45c9.744.423,7.3,16.921-1.59,17.536C111.017,574.005,105.22,547.822,106.385,537.547Z" style="fill:#c0392b"/><path d="M461.458,71.352A327.873,327.873,0,0,0,458.883,6.26c-.6-4.107-1.079-3.6-4.32-3.6l-26.912.32a3.289,3.289,0,0,0-3.124,4.163c17.9,66.141,13.824,135.565-6.584,186.2a.916.916,0,0,1-1.744-.538C429.746,129.594,426.37,68.1,407.454,5.754c-.562-2.261-1.615-3.225-4.1-3.153-11.351.213-22.043.012-33.462.047a1.562,1.562,0,0,0-1.322,2.381c21.367,35.109,27.373,73.95,28.254,114.31a1.117,1.117,0,0,1-2.182.36C382.4,80.782,367.375,41.664,340.986,9.851c-5.561-6.668-6.91-7.8-13.871-7.185A1.564,1.564,0,0,0,326.1,5.279c17.608,19.4,30.457,42.137,40.74,66.165a273.705,273.705,0,0,1,20,61.446c10.959,54.237,1.7,110.869-27.872,157.634-13.636,21.563-31.551,40.035-52.083,55.685C222.978,410.163,109.573,408.4,79.1,302.162c-8.4-31.016-10.685-67.293,4.39-96.164,45.016-86.216,110.081-76.273,127.223-65.829,34,19.127,29.2,71.55,12.43,100.972-14.3,20.089-45.882,45.039-71.166,32.252-9.282-4.695-9.082-13.679-7.628-19.756a.6.6,0,0,0-1.022-.564,17.335,17.335,0,0,0-4.927,13.912c1.815,15.67,24.253,20.117,43.642,14.408,50.392-14.836,68.339-47.436,73.631-60.378a.59.59,0,0,0-1.053-.522c-10.088,16.292-17.867,23.729-22.324,27.029a.857.857,0,0,1-1.19-1.21c7.759-10.174,27.528-40.772,24.3-84.961-2.318-31.766-28.452-53.8-64.343-54.014-31.082-.186-62.374,11.74-85.694,32.017C50.582,186.248,24.153,262.827,48.453,332.182,68.657,400.11,137.957,449.055,209.24,436c4.139-.423,5.81-1.35,5.266-3.06-.93-2.919-3.58-2.455-5.84-2.5-6.642-.145-13.285-.175-19.926-.343-36.06-1.046-74.138-16.174-97.348-44.187a1.474,1.474,0,0,1,1.889-2.209c33.083,20.062,72.035,32.527,110.841,27.418,43.289-7.98,64.965-15.32,100.086-42.847C392.687,296.371,456.562,186.5,461.458,71.352ZM97.939,358.233c-14.887-10.1-27.91-25.52-34.463-42.754-18.9-49.711-.288-89.207,8.6-103.911a.976.976,0,0,1,1.759.816C47.363,295.126,89.088,343.9,99.7,356.514,100.959,358.016,99.563,359.334,97.939,358.233Z" style="fill:#c0392b"/><path d="M597.352,38.324a1.015,1.015,0,0,0-2-.236C588.441,64.352,559.188,159.9,480.9,245.9a1.87,1.87,0,0,1-2.923-2.319c27.207-39.844,77.68-125.641,98.29-238.818.266-1.462-.523-2.146-1.994-2.1q-30.428-.03-60.822-.008A2.589,2.589,0,0,0,510.884,5.6c19.337,146.464-76.719,275.933-182.693,366.407-20.423,18.108-43.731,32.333-66.346,47.493-2.345,1.559-2.977,2.816-2,4.329,1.228,1.9,2.872,1.008,4.42.47,4.386-1.522,8.848-2.846,13.146-4.594C460.219,345.318,560.245,189.773,594.753,72.969,597.483,63.728,597.572,47.642,597.352,38.324Z" style="fill:#c0392b"/><path d="M594.645,153.13c-22.8,23.728-38.777,64.191-16.982,92.95,4.89,6.458,10.626,12.088,16.9,17.881a1.5,1.5,0,0,0,2.517-1.1V154.12A1.42,1.42,0,0,0,594.645,153.13Z" style="fill:#c0392b"/><path d="M233.614,430.511c-.154,4.968,8.438,4.622,8.011-.276C241.575,424.8,233.4,425.123,233.614,430.511Z" style="fill:#c0392b"/><path d="M46.047,124.673a5.317,5.317,0,0,0,1.084-6.611c-3.534-6.271-8.63-2.936-10.831-1.12-1.856,1.531-3.889,2.328-5.315.39a7.887,7.887,0,0,1-.653-1.045c-6.239-12.061,21.351-31.359,36.636-37.015a8.013,8.013,0,0,1,1.371-.379c4.409-.793,6.947,4.9,3.517,7.779l-3.562,2.991a5.767,5.767,0,0,0-1.328,7.42,5.6,5.6,0,0,0,8.062,1.524l2.456-1.813a4.431,4.431,0,0,1,6.509,1.418l.51.921s10.7,22.055-37.12,35.841c-2.636.76-3.681,3.473-3.569,6.111,0,5.355,5.97,7.066,10.408,6.553,16.674-1.179,30.9-13.11,40.728-25.031,7.868-9.545,5.084-22.235,2.526-33.055-1.549-4.845.9-7.465,4.548-9.438a2.055,2.055,0,0,1,2.581.49c5.488,6.8,12.854,11.374,21.975,7.863,12.984-4.472,26.131-8.48,39.266-12.5,7.241-1.708,10.646-8.81,12.912-15.147,2.829-9.861,1.044-7.531,10.556-6.6,1.683.124,2.878.876,2.741,2.751C190.7,67.1,195.7,78.044,205.944,81.059c9.506,2.931,19.077,5.648,28.6,8.539a21.482,21.482,0,0,0,20.607-3.936c8.043-6.337,8.81-10.627,16.471-3.683a1.924,1.924,0,0,1-.307,3.081c-8.477,4.918-10.059,13.253-6.5,23.669,5.913,16.886,11.745,36.425,31.5,33.222,3.822-.62,6.118,2.009,7.034,5.223.921,3.237.265,4.253-3.17,5.072-4.983,1.049-10.414,3.29-11.631,8.778-2.266,9.7-4.251,19.451-4.019,29.5.072,7.141,4.731,12.833,10.534,16.457,3.052,1.873.816,4.649-.2,7.2-14.668-8.96-23.508,8.085-29.48,18.93-3.914,6.856-.249,13.793,5,19.192,2.124,2.743-3.118,8.978-6.52,6.245-3.949-2.847-9.21-5.759-13.053-2.266-4.523,3.891-9.1,7.759-13.26,12.02-8.818,8.4,5.244,18.83-2.5,22.24s-4.331-7.741-16.749-3.486c-6.452,2.21-15.259,4.405-16.933,12.114-.591,4.208-4.834,4.2-6.4.661-4.116-8.415-9.112-9.322-18.343-7.78-7.254,1.211-7.534,11.144-14.127,10.592-38.55-3.228-49.189-50.02-11.368-68.177a2.734,2.734,0,0,1,3.881,2.6c-.245,11.682,15.192,10.514,15.516,1.314.264-7.524-4.564-14.5-12.194-15.6-9.767-1.774-20.724,4.685-26.259,11.916-34.983,45.695,2.243,76.672,31.282,76.622,8.189-.084,2.412,8.493,12.836,10.628,7.176,1.223,18.808.676,20.271-8.322.37-3.115.62-3.343,3.342-3.308,2.316.031,3.563,1.077,4.325,3.3,3.924,11.325,21.605,9.8,28.892,4.582,3.307-2.369,5.2-4.826,4.451-9.166a1.833,1.833,0,0,0-2.317-1.444l-4.343,1.27a1.9,1.9,0,0,0-1.3,1.493c-1.288,6.246-15.189,7.455-17.415,1.5a1.634,1.634,0,0,1,1.344-2.3c1.675-.239,3.948-.792,4.186-2.037.737-3.871-1.326-4.535-5.962-4.3-6.572.336-1.964-10.907,10.621-8.349,2.077.422,3,.307,3.457,2.86.913,8.248,9.068,2.254,13.158.042,2.914-2.07,5.277-1.609,8.07.305,5.607,3.843,12.575,3.832,17.747-.236,5.385-4.874,10.044-9.307,13.179-17.188,1.742-4.384-3.241-10.93-6.267-5.666-2.877,5-8.2,18.339-18.843,14.639-3.063-1.065.488-3.5,1.2-4.964.933-1.686,1.273-3.566-.192-5.09-2.884-2.772-6.19.545-8.755,2.218-2.021-3.456-1.687-7.841.79-10.4,5.038-5.2,7.493-8.261,12.257-8.294,1.738.423,4.331.369.7,5.066-2.337,3.027,3.431,6.4,6.315,4.163a101.3,101.3,0,0,0,11.219-9.024c1.886-1.8,3.27-1.894,5.537-.553,15.544,9.98,24.088-8.715,30.611-19.951,3.134-6.046,4.605-15.153-2.8-18.854-6.142-3.226-6.055-3.231-3.28-9.571.913-2.087,2.022-2.878,4.442-2.856,15.124.137,21.438-9.479,23.188-19.451,1.243-11.825,7.78-28.717-5.092-36.246-5.2-2.415-8.892,4.189-5.874,8.317,4.074,6.824-.751,18.55-1.578,26.257-.749,3.54-3.912,7.811-7.871,7.316-2.011-.41-.408-2.506-.462-3.824-.141-3.462-1.368-5.587-3.934-6.114-4.78-1.25-6.924,4.284-8.3,8.291-6.632-3.587-4.117-10.971-3.6-16.877,1.291-4.277.326-15.789,5.762-16.245,2.028-.019,1.762,1.783,2.015,2.938,1.255,5.748,4.535,5.565,6.717,5.051,5.647-1.331,5.232-18.951,5.491-24.7-.116-7.123,13.2-1.369,14.94-17.169,1.865-15.142-7.037-28.6-15.145-40.537-14.568-20.7-24.344-7.047-32.255-12.786-3.83-3.175-7.819-6.165-11.838-9.1-1.605-1.171-2.269-2.163-1.965-4.431,1.714-12.8-3.842-21.961-15.734-26.692C244.5,31.189,235.55,27.3,224.2,24.9c-9.583-2.895-22.968,3.724-26.652,13.1-.828,2.113-1.921,2.665-4.128,2.226-3.733-.741-7.524-1.237-11.311-1.634-3.411-.008-3.7-3.6-5.209-5.874-13.881-25.7-48.972-13.271-69.014-2.059C99.193,36.108,90,47.267,93.89,57.907c2.787,6.891-.627,9.772-5.725,12.82-1.4,1.378-2.6,1.512-4.241.064-9.187-7.742-22.864-3.845-32.234,1.664-16.238,11.4-46.8,31.574-31.934,52.344,2.891,4.039,7.405,8.163-1.512,14.973-2.9,2.214-9.457-.813-11.9.138a4.263,4.263,0,0,0-2.727,4.02c.077,6.765.252,23.256.252,32.577l7.518-7.563a3.47,3.47,0,0,1,5.705,1.233c1.574,4.172,2.114,8.116-.409,12.713a82.3,82.3,0,0,1-10.8,16.061c-1.007,1.2-2.13,2.79-2.172,4.23-.191,6.693-.122,13.393-.1,20.838a1.213,1.213,0,0,0,2.059.87c16.221-15.881,38.364-35.361,27.709-59.617C31.2,158.646,22.739,145.053,46.047,124.673ZM180.56,316.537c-2.241-.2-6.013-.475-6.68-5.934-.041-3.165,7.148.644,6.9-4.145-.224-4.4-6.9-1.408-6.9-4.132,0-7.943,17.727-7.062,17.124,1.789l-2.222.213a2.108,2.108,0,0,0-1.791,2.854c.943,2.254,3.934,3.025,3.934,3.025S193.536,316.537,180.56,316.537Zm118.275-86.019a2.17,2.17,0,0,1,3.014-.6c3.219,2.208,6.182,5.452,3.41,9.063-2.97,4.97-5.737,8.673-9.068,13.408-1.957,2.781-5.219,4.111-8.082,3.03-2.57-.97-2.8-2.408-2.243-5.463,1.4-6.012-3.373-6.9-6.982-3.693a1.677,1.677,0,0,1-2.243-.059c-1.877-1.749-3.287-4.311-1.906-6.855,2.539-4.811,5.128-9.6,7.893-14.283a3.734,3.734,0,0,1,4.68-1.717c4.406.775,1.63,4.227,2.142,7.221a4.186,4.186,0,0,0,7.534,2.465A26.552,26.552,0,0,0,298.835,230.518ZM282.021,97.266c1.444-.954,2.943-1.7,3.958.69a6.255,6.255,0,0,0,7.715,3.82c3.77-.895,3.7-6.848,3.016-10.983-.355-4.223,3.491-2.569,5.506-.572,19.524,19.348,23.745,38.866,13.1,40.848-3.386.683-2.939-7.224-8.21-11.75-3.983-4.492-9.752.038-8.628,5.429.977,4.442-1.307,5.642-5.634,4.5-7.267-1.5-10.617-11.024-14.465-18.254C275.512,103.964,278.741,99.431,282.021,97.266ZM206.572,60.321c.221-4.359,6.217-.377,8.864-.966,8.084.615,9.912-9.612,2.781-12.442-2.873-1.206-5.949-1.93-8.964-2.876,1.84-3.685,5.448-7.5,8.869-7.528,12.326-.111,41.281,6.074,38.547,19.554l-.71,1.745a2.375,2.375,0,0,1-2.888,1.374c-11.34-3.459-12.283,7.332-4.472,10.905a2.176,2.176,0,0,1,.925,3.164C242.053,84.962,217.8,72.5,209.9,69.559,206.957,68.462,206.355,63.343,206.572,60.321ZM107.955,47.412c6.712-11.524,45.787-30.072,53.582-10.7a2.646,2.646,0,0,1-1.621,3.467c-4.933,1.675-11.35,3.4-10.378,9.095,1.578,6.3,8.978,4.722,14.449,4.171a1.49,1.49,0,0,1,1.593,1.835c-1.357,5.706-6.646,8-12.069,9.176-9.974,2.441-20.369,4.008-29.431,8.926-5.14,2.789-7.4-3.34-6.15-4.137,17.117-7.891,7.988-22.2-7.085-13.854C106.265,57.513,106.809,49.378,107.955,47.412Z" style="fill:#c0392b"/></svg>