<?xml version="1.0" ?><svg fill="#c0392b" data-name="Layer 4" id="Layer_4" viewBox="0 0 600 600" xmlns="http://www.w3.org/2000/svg"><title/><path d="M202.977,247.435c3.555,6.14,13.534,2.8,13.557-3.619C216.391,235.669,199.707,240.849,202.977,247.435Z" style="fill:#c0392b"/><path d="M8.464,328.17c37.065-41.712,127.218-126.691,161.342-158.594a3.911,3.911,0,0,1,6.276,4.376c-8.073,19.135-26.132,63.389-36.041,87.726-.73,1.793,1.92,3.162,2.811,1.444C213.922,126.029,310.389,31.1,332.693,7.6a1.914,1.914,0,0,0-2.036-3.12c-38.238,13.806-197.649,81.4-262.9,114.173a2.5,2.5,0,0,0,2.131,4.312c174.536-62.037,71,43-57.107,129.526a13.438,13.438,0,0,0-5.905,11.14v29.346a2.005,2.005,0,0,0,3.441,1.4c30.616-31.624,69.048-63.67,96.608-84.189a1.169,1.169,0,0,1,1.516,1.772C86.025,234,35.6,284.025,10.283,312.755a13.641,13.641,0,0,0-3.4,9.026v5.781A.908.908,0,0,0,8.464,328.17Z" style="fill:#c0392b"/><path d="M120.28,314.758c-29.4,20.433-56.063,45.943-85.137,67.323-7.616,5.945-14.612,10.6-20.806,14.91a17.354,17.354,0,0,0-7.458,14.251v11.493A1.387,1.387,0,0,0,9.2,423.761c37.005-33.944,85.61-74.131,113.653-105.668C123.761,315.921,122.5,314.227,120.28,314.758Z" style="fill:#c0392b"/><path d="M11.51,594.745C90.671,505.618,188.673,396.977,273.1,316.2a5.31,5.31,0,0,1,8.8,5.211L250.841,432.7c-2.163,4.1-1.886,10.721,1.289,7.435,76.151-144.5,158.864-265.33,303.075-412.846,1.8-1.841-.863-4.777-3.14-3.575-106.193,56.055-205.831,127.671-306.55,193.8-2.449,2.288-13.687,8.65-10.4,12.38,1.289,1.718,2.921,1.25,4.453.353,21.75-11.749,46.412-26.406,71.141-35.369,8.738-3.167,16.209,7.1,10.442,14.393C312.705,219.94,134.792,388.461,11.815,487.414a13.242,13.242,0,0,0-4.937,10.319V500a.9.9,0,0,0,1.467.7c27.2-22.072,82.711-67.627,117.614-96.3a1.757,1.757,0,0,1,2.344,2.614L21.4,522.494a45.519,45.519,0,0,0-14.517,33.34v37.152A2.649,2.649,0,0,0,11.51,594.745Z" style="fill:#c0392b"/><path d="M434.911,551.359C499.871,398.5,579.122,319.167,592.605,299a2.9,2.9,0,0,0-4.248-3.855c-73.685,60.493-161.2,113.557-239.5,166.38a2.216,2.216,0,0,0,1.677,4.011c14.418-2.934,39.72-8,54.31-10.45a3.7,3.7,0,0,1,3.147,6.34c-39.974,37.615-99.112,88.14-141.4,129.53a2.735,2.735,0,0,0,1.921,4.686h24.852a25.451,25.451,0,0,0,18.229-7.674c26.213-26.878,73.051-67.884,91.68-84.018a1.233,1.233,0,0,1,1.788,1.678c-15.371,20.228-55.246,70.612-70.816,88.154a1.119,1.119,0,0,0,.844,1.86h7.7a7.553,7.553,0,0,0,5.859-2.791c26.415-32.482,59.787-76.725,83.544-101.294,5.358-3.633,15.078,3.887.541,58.961C432.38,551.875,434.362,552.651,434.911,551.359Z" style="fill:#c0392b"/><path d="M211.39,592.733a2,2,0,0,0,1.782,2.909h7.905a5.624,5.624,0,0,0,5.147-3.383c45.8-104.612,130.266-179.608,176.056-246.517a3.71,3.71,0,0,0-5.6-4.806c-52.963,49.618-199.27,185.635-280.937,251.169A1.987,1.987,0,0,0,117,595.642H180.71a17.1,17.1,0,0,0,14.814-8.492c15.075-26.029,37.194-51.433,45.933-61.075a1.3,1.3,0,0,1,2.157,1.375C238.182,540.353,221.409,573.2,211.39,592.733Z" style="fill:#c0392b"/></svg>