<?xml version="1.0" ?><svg fill="#c0392b" data-name="Layer 5" id="Layer_5" viewBox="0 0 600 600" xmlns="http://www.w3.org/2000/svg"><title/><rect height="33.69" rx="9.434" style="fill:#c0392b" width="208.84" x="6.204" y="259.299"/><path d="M424.8,57.957A47.4,47.4,0,0,0,405.818,53.9c-35.3-.326-176.338-.326-211.636,0A47.4,47.4,0,0,0,175.2,57.957c-35,15.7-59.137,66.241-68.838,105.464a10.707,10.707,0,0,0,10.4,13.288H483.236a10.707,10.707,0,0,0,10.4-13.288C483.933,124.2,459.8,73.66,424.8,57.957Z" style="fill:#c0392b"/><path d="M41.127,240.755c45.088.477,139.155.218,166.146.13a11.54,11.54,0,0,0,10.239-6.271c4.932-9.628,11.392-16.771,20.053-20.337a2.967,2.967,0,0,1,3.743,4.078,75.124,75.124,0,0,0-7.3,25.625c-1.427,14.608-.7,40.133.4,62.118a44.048,44.048,0,0,0,42.906,41.875h45.38A44.048,44.048,0,0,0,365.6,306.1c1.095-21.985,1.824-47.51.4-62.118a75.124,75.124,0,0,0-7.3-25.625,2.967,2.967,0,0,1,3.743-4.078c8.661,3.566,15.121,10.709,20.053,20.337a11.54,11.54,0,0,0,10.239,6.271c26.991.088,121.058.347,166.146-.13,9.644,1.024,18.729-4.331,17.227-13.827C572.143,159.1,542.647,87.294,474.463,62.812a4.213,4.213,0,0,0-2.01-.2A4.165,4.165,0,0,0,470,69.576c26.756,28.923,43.88,70.933,49.955,110.342a12.835,12.835,0,0,1-12.728,14.741H92.775a12.835,12.835,0,0,1-12.728-14.741C86.122,140.509,103.246,98.5,130,69.576a4.165,4.165,0,0,0-2.455-6.967,4.213,4.213,0,0,0-2.01.2C57.353,87.294,27.857,159.1,23.9,226.928,22.4,236.424,31.483,241.779,41.127,240.755ZM557.2,210.516c0,12.854-18.263,15.387-18.263,1.311C538.8,200.529,556.575,198.721,557.2,210.516ZM300,224.951c29.816,0,30.415,32.6,10.508,38.937a5.158,5.158,0,0,0-3.375,6.625l11.194,31.541a5.878,5.878,0,0,1-5.383,7.842L300,310.242l-12.944-.346a5.878,5.878,0,0,1-5.383-7.842l11.194-31.541a5.158,5.158,0,0,0-3.375-6.625C269.585,257.548,270.184,224.951,300,224.951ZM61.064,211.827c0,14.076-18.263,11.543-18.263-1.311C43.425,198.721,61.2,200.529,61.064,211.827Z" style="fill:#c0392b"/><path d="M572.13,519.5l-.009-202.529a6.526,6.526,0,0,0-6.525-6.524H392.381a6.519,6.519,0,0,0-6.519,6.3c-.762,22.341-4.319,56.891-85.862,56.891s-85.1-34.55-85.862-56.891a6.519,6.519,0,0,0-6.519-6.3H34.4a6.526,6.526,0,0,0-6.525,6.524L27.87,519.5a26.781,26.781,0,0,0,26.74,26.785c54.7.081,436.085.081,490.78,0A26.781,26.781,0,0,0,572.13,519.5Zm-516.055,7.07c-11.728.056-11.127-18.767-.217-19.341C67.328,507.379,68.789,526.817,56.075,526.567ZM525.3,456.029a44.906,44.906,0,0,1-44.946,44.322H119.644A44.906,44.906,0,0,1,74.7,456.029L73.147,336.606a4.536,4.536,0,0,1,4.439-4.594l8.167-.129a4.53,4.53,0,0,1,4.632,4.532c-.01,16.882.683,72.573,2.746,100.544,0,44.412,32.033,42.176,43.5,42.961,55.351-.038,269.816-.551,325.168-.513,11.464-.785,41.8,4.025,40.816-35.287,2.063-27.971,4.8-90.823,4.791-107.7a4.531,4.531,0,0,1,4.632-4.532l10.378.129a4.536,4.536,0,0,1,4.439,4.594Zm18.84,51.2c10.91.574,11.511,19.4-.217,19.341C531.211,526.817,532.672,507.379,544.142,507.226Z" style="fill:#c0392b"/><rect height="33.69" rx="9.434" style="fill:#c0392b" width="208.84" x="384.956" y="259.299"/></svg>