<?xml version="1.0" ?><svg fill="#c0392b" data-name="Layer 4" id="Layer_4" viewBox="0 0 600 600" xmlns="http://www.w3.org/2000/svg"><title/><path d="M589.751,173.022a15.927,15.927,0,0,1-6.209,12.618C533.909,223.9,479.8,273.876,440.89,374.166c-1.693,4.363-4.652,10.791-8.823,8.846,0,0-17.317-7.857-29-14.491-3.805-2.708-5.088-10.367-4.2-14.988,5.983-30.963,5.879-49.009,32.488-107.28.764-1.674-1.922-2.82-2.87-1.243C418.033,262.4,387.24,307.555,377.419,388.4c-2.34,19.266,30.858,24.985,47.392,34.975,4.3,2.561,4.889,2.751,2.46,7.24C404.823,472.1,390.1,520.207,383.233,545.621c-.409,2.516-1.563,2.8-3.8,1.742-19.152-9.485-38.856-17.7-58.688-25.622-20.108-8.03-29.546-3.822-44.888-2.235C194.049,527.969,170.472,467,51.1,402.79c-4.5-2.423-18.911-10.485-18.89-23.712,0-1.7.751-4.278,3.5-6.691,3.654-3.2,10.262-3.806,14.528-1.482C98.208,397.039,149.28,420.373,161,423.8c36.947,10.785,69.49-15.405,84.668-35.381,5.456-7.18,9.615-7.969,9.105.618-1.734,29.21,17.008,49.679,33.473,49.93,7.7.117,7.217-2.622,3.611-4.126-15.75-6.564-37.108-38.767-20.905-83.92.446-1.243-.578-2.479-1.8-1.97-3.255,1.358-9,8-14.826,15-29.033,34.874-53.3,37.349-63.811,36.241A3.916,3.916,0,0,1,187.2,395c6.031-17.075,29.477-75.687,48.09-95.4,7.171-7.6,19.185-6.648,26.293-3.249a579.043,579.043,0,0,1,54.2,28.847,11.4,11.4,0,0,0,16.24-4.9c28.1-59.6,62.376-116.816,104.3-167.75,41.96-51.405,96.917-100.346,150.515-128.16a2,2,0,0,1,2.914,1.784v2.5a7.949,7.949,0,0,1-3.5,6.576C514.12,84.176,451.827,147.911,408.133,223.688c-14.094,24.366-25.672,50.008-37.778,75.382-22.742,48.208-33.973,100.451-45.316,152.207-2.579,11.84-3.916,23.953-5.763,35.95l-.016.105a2.565,2.565,0,0,0,5,1.106c17.777-60.866,33.174-122.594,55.024-182.164C420.334,204.2,494.045,116.113,586.67,56.849a2.006,2.006,0,0,1,3.081,1.693v79.83c0,4.987-3.583,11.026-7.951,13.431-70.972,39.073-102.89,97.9-114.519,125.243a2.022,2.022,0,0,0,3.5,1.976c19.087-26.351,65.828-85.829,116.054-111.908a1.991,1.991,0,0,1,2.918,1.757Z" style="fill:#c0392b"/><path d="M365.287,2.892a1.9,1.9,0,0,1,1.369,3.215c-33.03,34.257-67.022,68.219-92.006,109.028-9.252,15.2-17.4,31.074-25.914,46.717-20.836,36.2-35.217,75.359-47.269,115.227-4.8,14.645-4.565,23.759-8.775,37.173-.633,2.016-3.4,4.094-7.945,1.526-18.435-10.419-34.739-19.022-52.626-30.314,0,0-5.816,12.309,3.472,17.239,15.753,8.363,51.133,29,49.56,37.085-1.5,7.725-3.03,13.112-4.889,21.314a2.791,2.791,0,0,1-3.983,1.869c-15.408-7.845-46.365-21.465-46.365-21.465-3.832-1.965-4.039-1.759-4.146,2.49-.282,11.2-.33,11.3,9.6,16.167,9.568,4.688,19.249,9.145,28.876,13.714,4.992,2.263,11.551,4.988,10.077,11.691-2.061,10.064-1.546,21.588-15.041,21.839-4.7.26-8.365-1.644-12.221-3.492-31.38-15.039-117.186-60.768-128.412-69.574-10.917-8.563-9.659-18.219-4.87-26.764,8-14.268,64.133,22.639,83.256,32.783a4.28,4.28,0,0,1,2.7,4.2c.079,3.648.5,7.291.86,10.927.1.978.423,5.885,5.063,5.479,2.086-.183,2.994-1.739,3.123-3.778.359-5.649.593-11.309,1.095-16.945,9.235-91.553,32.535-184.189,84.516-261a1.789,1.789,0,0,0-2.679-2.333,175.917,175.917,0,0,0-35.953,46.773C145.4,143.43,135.68,163.518,125.759,183.5c-2.467,4.968-5.848,7.219-9.577,5.831-3.933-1.464-5.836-5.949-3.666-11.018,13.337-28.926,34.413-90.736,120.126-169.85a21.059,21.059,0,0,1,14.285-5.569h75.261a1.894,1.894,0,0,1,1.332,3.236C262.109,68.113,219.2,139.351,193.353,222.956c-1.542,4.535-6.735,8.154-10.807,5.933-10.814-5.9-19.559-10.71-30.39-16.58-4.6-2.49-3.314-1.587-6.028,6.848a175.46,175.46,0,0,0-4.5,17.157c-2.035,9.534-3.435,8.735,2.032,11.907,13.195,7.415,25.961,15.394,39.211,22.651a6.38,6.38,0,0,0,9.167-3.794c7.743-26.069,16.446-51.65,28.616-76.026,7.819-15.8,17.177-30.83,25.171-46.548,26.9-52.95,66.187-97.313,107.088-139.7a6.248,6.248,0,0,1,4.5-1.908Z" style="fill:#c0392b"/><path d="M510.019,6.326C351.056,122.491,298.812,244.759,287.425,276.276c-1.527,4.226-6.643,6.576-10.422,4.144-24.511-15.776-41.355-8.524-44.546-4.832-6.867,7.945-10.1,15.691-15.055,23.668a2.32,2.32,0,0,1-4.222-1.786C223.844,255.006,265.5,121.045,387.8,7.28a16.336,16.336,0,0,1,11.12-4.388h31.821a1.89,1.89,0,0,1,1.087,3.435c-90.4,63.6-132.416,151.807-147.852,192.239a3,3,0,0,0,5.279,2.754c30.864-45.255,112.9-158.227,187.377-197.046a12.024,12.024,0,0,1,5.558-1.382h26.72A1.9,1.9,0,0,1,510.019,6.326Z" style="fill:#c0392b"/><path d="M463.51,420.642a2.367,2.367,0,0,1,3.074-3.363c11.64,5.837,97.753,51.818,115.276,59.511,6.66,2.923,6.695,7.972,6.695,15.1l0,94.358c0,5.5-3.958,11.133-12.323,10.854H396.985c-6.8,0-7.055-2.549-6.788-6.492,9.261-41.411,24.921-97.319,59.824-153.446a10.8,10.8,0,0,1,12.6-4.505s45.492,22.742,46.923,19.88S467.86,427.524,463.51,420.642Z" style="fill:#c0392b"/><path d="M100.475,323.3a2.9,2.9,0,0,1-4.18,2.159c-12.47-6.286-24.618-11.909-36.185-19.487-14.752-8.214-38.291-24.419-41.76-39.79-3.249-14.392,7.1-22.152,18.934-20.906a22.709,22.709,0,0,1,8.019,2.53q28.23,15.962,56.262,32.273c5.848,3.407,5.1,3.278,4.1,9.024C103.735,300.166,102.229,311.3,100.475,323.3Z" style="fill:#c0392b"/><path d="M306.265,285.342c34.668-96.9,108.294-191.253,193.626-248.852,2.118-1.793,5.8-2.989,7.927-1.017,1.8,3.941-3.051,7.323-5.483,9.873-38.3,32.9-76.456,66.142-107.3,106.391a590.29,590.29,0,0,0-78.83,135.592C314.035,293.594,306.544,294.152,306.265,285.342Z" style="fill:#c0392b"/><path d="M79.54,209.946c11.231,4.967,21.431,12,32.135,18.02,2.446.942,5.08,3.1,4.724,5.836-2.745,11.283-5.754,22.5-8.584,33.767-.634,2.52-1.792,2.294-3.546,1.225C86.508,257.3,55.339,240.9,55.343,223.5,55.345,215.464,64.038,203.091,79.54,209.946Z" style="fill:#c0392b"/><path d="M534.122,21.768c2.26-2.29,2.635-7.251-1.12-7.008-4-.453-12.6,8.284-7.63,11.13C528.137,26.569,531.793,24.2,534.122,21.768Z" style="fill:#c0392b"/></svg>