<svg fill="#c0392b" xmlns="http://www.w3.org/2000/svg" x="0px" y="0px" width="100" height="100" viewBox="0 0 48 48">
<path d="M 40.001953 1 C 39.745953 1 39.490422 1.0974687 39.294922 1.2929688 C 38.903922 1.6839687 38.903922 2.3160312 39.294922 2.7070312 L 39.630859 3.0449219 C 38.593859 5.7079219 36.971906 8.032 35.003906 10 L 33.001953 12.001953 L 33.710938 12.707031 L 35.710938 10.707031 C 37.448937 8.9700313 38.937578 6.9557813 40.017578 4.6757812 L 40.369141 3.7832031 L 41.6875 5.1015625 C 40.4265 7.4985625 38.364734 9.4887813 36.427734 11.425781 L 34.427734 13.425781 L 35.294922 14.292969 L 33.294922 16.292969 L 32.427734 15.425781 L 28.71875 19.132812 C 28.25875 18.954813 27.744203 18.957766 27.283203 19.134766 L 31.710938 14.707031 L 31.001953 14 L 12.001953 33 L 12.710938 33.707031 L 17.132812 29.285156 C 16.956812 29.745156 16.956813 30.25875 17.132812 30.71875 L 13.427734 34.423828 L 14.296875 35.291016 L 12.296875 37.291016 L 11.427734 36.423828 C 10.064734 37.785828 8.8152344 39.276313 7.6152344 40.820312 C 7.4872344 40.920312 7.3575156 41.020141 7.2285156 41.119141 L 3.9609375 44.039062 L 6.5996094 40.488281 C 7.8916094 38.807281 9.2349375 37.181078 10.710938 35.705078 L 10.003906 34.998047 C 6.9859062 38.016047 4.4989063 41.664094 2.0039062 44.996094 L 3.0039062 45.996094 C 6.3369062 43.500094 9.9879063 41.015953 13.003906 38.001953 L 19.646484 31.357422 L 20.294922 32.001953 L 19.148438 33.146484 C 18.953437 33.342484 18.953437 33.659469 19.148438 33.855469 C 19.344437 34.050469 19.661422 34.050469 19.857422 33.855469 L 24.353516 29.359375 L 30.359375 23.353516 L 31.857422 21.853516 C 32.052422 21.657516 32.052422 21.342484 31.857422 21.146484 C 31.661422 20.951484 31.344438 20.951484 31.148438 21.146484 L 30.001953 22.292969 L 29.355469 21.648438 L 38.003906 13 C 39.971906 11.032 42.294031 9.4080938 44.957031 8.3710938 L 45.294922 8.7070312 C 45.685922 9.0980313 46.319938 9.0980313 46.710938 8.7070312 C 47.101938 8.3160312 47.101937 7.6839688 46.710938 7.2929688 L 40.710938 1.2929688 C 40.515437 1.0974687 40.257953 1 40.001953 1 z M 28.003906 19.996094 C 28.555906 19.996094 29.003906 20.444094 29.003906 20.996094 C 29.003906 21.548094 28.555906 21.996094 28.003906 21.996094 C 27.451906 21.996094 27.001953 21.548094 27.001953 20.996094 C 27.001953 20.444094 27.451906 19.996094 28.003906 19.996094 z M 26.134766 20.28125 C 25.957766 20.74325 25.958766 21.256797 26.134766 21.716797 L 25.722656 22.128906 C 25.262656 21.952906 24.748109 21.952906 24.287109 22.128906 L 26.134766 20.28125 z M 28.648438 22.353516 L 29.294922 22.998047 L 27.003906 25.291016 L 26.355469 24.646484 L 28.648438 22.353516 z M 25.003906 22.996094 C 25.555906 22.996094 26.005859 23.444094 26.005859 23.996094 C 26.005859 24.548094 25.555906 24.996094 25.003906 24.996094 C 24.451906 24.996094 24.003906 24.548094 24.003906 23.996094 C 24.003906 23.444094 24.451906 22.996094 25.003906 22.996094 z M 23.132812 23.285156 C 22.956813 23.745156 22.956813 24.25875 23.132812 24.71875 L 22.720703 25.130859 C 22.260703 24.952859 21.744203 24.955813 21.283203 25.132812 L 23.132812 23.285156 z M 25.648438 25.353516 L 26.294922 25.998047 L 24.003906 28.291016 L 23.355469 27.646484 L 25.648438 25.353516 z M 22.003906 25.996094 C 22.555906 25.996094 23.003906 26.444094 23.003906 26.996094 C 23.003906 27.548094 22.555906 27.996094 22.003906 27.996094 C 21.451906 27.996094 21.001953 27.548094 21.001953 26.996094 C 21.001953 26.444094 21.451906 25.996094 22.003906 25.996094 z M 20.134766 26.28125 C 19.957766 26.74325 19.958766 27.256797 20.134766 27.716797 L 19.722656 28.128906 C 19.262656 27.952906 18.748109 27.952906 18.287109 28.128906 L 20.134766 26.28125 z M 22.648438 28.353516 L 23.294922 28.998047 L 21.003906 31.291016 L 20.355469 30.646484 L 22.648438 28.353516 z M 19.003906 28.996094 C 19.555906 28.996094 20.005859 29.444094 20.005859 29.996094 C 20.005859 30.548094 19.555906 30.996094 19.003906 30.996094 C 18.451906 30.996094 18.003906 30.548094 18.003906 29.996094 C 18.003906 29.444094 18.451906 28.996094 19.003906 28.996094 z M 5.0039062 46.996094 C 3.6169063 46.996094 0.00390625 47.216094 0.00390625 47.496094 C 0.00390625 47.775094 3.6169063 47.996094 5.0039062 47.996094 C 13.323906 47.996094 35.003906 47.775094 35.003906 47.496094 C 35.003906 47.216094 13.323906 46.996094 5.0039062 46.996094 z"></path>
</svg>