<?xml version="1.0" ?><svg fill="#c0392b" data-name="Layer 4" id="Layer_4" viewBox="0 0 600 600" xmlns="http://www.w3.org/2000/svg"><title/><path d="M273.809,282.06c-18.816-11.841-28.1-33.673-41.626-50.936-11.395-13.909-26.732-18.9-43.833-25.493C110.653,175.67,56,94.131,10.038,35.43A2.152,2.152,0,0,0,6.2,36.772c.045,10.812.162,21.433-.125,32.043a16.965,16.965,0,0,0,5.071,12.9c37.775,41.5,75,90.664,121.211,122.954a5.752,5.752,0,0,1-1.364,10.15C92.04,228.3,90.664,271.217,111.34,307.838c14.525,25.726,35.216,49.752,64.683,58.046,8.543,1.891,21.767,1.2,15.579-11.176-6.135-9.882-7.887-20.758-9.318-32.235-4.885-39.194,21.04-42.107,34.665-41.022a3.145,3.145,0,0,1,1.827,5.508c-8.908,7.735-23.244,26.946-12.106,65.544,6.1,21.151,19.075,45.907,37.533,57.483,0,0,185.887,125.1,335.288,179.192a4.357,4.357,0,0,0,4.835-6.891C543.991,534.186,390.168,355.286,273.809,282.06Z" style="fill:#c0392b"/><path d="M570.77,407.923C525.977,329,479.028,249.507,411.453,187.719a96.632,96.632,0,0,0-12.7-11.209c-21.668-17.25-11.139-30.553-45.34-66.857-30.038-31.885-72.843-40.854-106.26-10.7-17.878,16.134-14.225,45.331-12.412,62.734,2.761,18.21,10.022,43.123,29.555,49.13,3.387,1.6,14.3,6.116,13.624-.628-2.512-25.112-2.92-53.925,22.145-67.947,19.361-10.833,37.019-6.541,46.8,3.382a1.789,1.789,0,0,1-1.459,3.028c-4.75-.463-12.084-.941-15.686.039-69.519,11.5-9.195,112.519,25.076,134.813,77.049,48.548,150.579,102.239,223.345,156.886a3.765,3.765,0,0,0,5.72-4.5C579.95,426.853,574.7,415.145,570.77,407.923Z" style="fill:#c0392b"/><path d="M176.792,537.9c92.729,63.018,227.316,55.512,254.466,53.436A3.332,3.332,0,0,0,433.68,586a13.364,13.364,0,0,0-5.6-4.232c-181.313-71.471-229.645-142.71-242.164-170.79a81.717,81.717,0,0,0-46.85-43.59c-4.093-1.477-7.817-2.6-10.841-3.429a44.6,44.6,0,0,1-15.714-7.937C65.562,319.3,33.8,280.553,10.941,227c-1.267-2.969-5.962-1.455-5.96,1.773.008,9.961,0,24.41-.066,33.138a14.089,14.089,0,0,0,2.3,7.95,570.583,570.583,0,0,0,64.21,84.728c5.533,6.464,16.427,4.083,26.526,6.748a2.812,2.812,0,0,1,.493,5.239c-18.3,8.94-53.29,36.606-39,94.538,6.105,24.75,31.137,43.819,57.482,44.325,17.454.758,10.3-18.938,11.473-29.836,2.976-27.6,17.218-38,32.424-41.258a3.156,3.156,0,0,1,2.923,5.281C139.379,463.948,149.558,519.4,176.792,537.9Z" style="fill:#c0392b"/><path d="M471.489,16.932a36.182,36.182,0,0,0-22.911-8.077h-24.6a1.381,1.381,0,0,0-.737,2.55c5.62,3.521,15.581,9.945,20.852,14.445a7.732,7.732,0,0,0,4.958,1.861c4.963.038,19.033-.569,29.03,6.712a2.115,2.115,0,0,1-1.333,3.839c-9.381-.545-27.712-.282-39.5,8.473-23.055,17.118-39.379,53.988-19.653,79.293,8.1,7.456,14.2,15.8,24.165,21.179-.959-15.177-2.927-35.144,11.942-43.787,10.222-8,45.576-9.458,53.826,1.581,2.068,2.6,1.935,2.577-.715,4.356-2.805,1.883-5.639,1.5-8.623,1.058-9.23-1.352-18.249-1.382-26.329,4.345-3.225,2.177-7.754,3.624-8.5,7.891-1.3,5.479-3.117,11.03-3.185,16.57-1.336,44.353,79.516,22.637,130.468,188.927a2.244,2.244,0,0,0,4.388-.593C596.356,279.916,591.669,115.124,471.489,16.932Z" style="fill:#c0392b"/><path d="M124.6,59.712c-20.033-14.181-71.712-49.359-92.527-50.2a1.353,1.353,0,0,0-.686,2.539C97.524,48.88,154.431,94.323,206.653,148.243a2.98,2.98,0,0,0,5.087-2.512c-2.615-17.785-11.281-57.993-37.884-81.188C153.934,47.173,129,28.215,107.8,11.548A13.787,13.787,0,0,0,99.275,8.6H75.27a1.852,1.852,0,0,0-1.238,3.228A233.751,233.751,0,0,1,126.551,57.6,1.452,1.452,0,0,1,124.6,59.712Z" style="fill:#c0392b"/><path d="M247.814,69.168C265,59.523,283.868,60.616,293.86,62.2a2.916,2.916,0,0,0,2.8-4.622c-12.114-16.485-27.178-31.9-44.419-46.534a15.861,15.861,0,0,0-10.513-3.772l-41.519.672A2.2,2.2,0,0,0,199.043,12c8.848,5.746,25.086,17.353,36.721,31.853a2.132,2.132,0,0,1-2.889,3.07c-16.683-11.536-37.269-27.995-53.081-35.483-4.061-2.014-11.565-1.627-16.243-1.123a1.456,1.456,0,0,0-.6,2.689c26.318,16.246,61.218,44.414,74.307,55.185A9.4,9.4,0,0,0,247.814,69.168Z" style="fill:#c0392b"/><path d="M40.971,199.8c-7.054-5.847-21.489-21.146-29.4-34.724a1.542,1.542,0,0,0-2.863.959C10.843,185.823,38.829,224,72.955,250.26a2.406,2.406,0,0,0,3.814-1.308c1.218-4.9,3.85-13.255,8.795-19.939a9.592,9.592,0,0,0-.684-12.085c-22.983-25.6-49.5-59.71-69.825-87.032a2.365,2.365,0,0,0-4.263,1.479c.7,19.572,27.466,57.528,32.56,66.444A1.575,1.575,0,0,1,40.971,199.8Z" style="fill:#c0392b"/><path d="M416.659,43.662a4.275,4.275,0,0,0,.644-5.82A165.839,165.839,0,0,0,396,14.771,19.689,19.689,0,0,0,382.84,9.738H345.9a2.944,2.944,0,0,0-1.975,5.131c10.9,9.816,35.019,31.738,51.518,48.177a4.268,4.268,0,0,0,6.867-1.152A56.629,56.629,0,0,1,416.659,43.662Z" style="fill:#c0392b"/><path d="M26.226,353.433c-5.109-3.907-14.362-15.06-19.182-22.158a1.093,1.093,0,0,0-2.057.5l.053,16.926a24.9,24.9,0,0,0,6.3,16.482c9.775,10.988,28.009,31.395,32.6,35.923a2.309,2.309,0,0,0,3.85-1.03,84.55,84.55,0,0,1,6.995-17.852,8.383,8.383,0,0,0-.841-9.475c-11.3-13.621-37.676-54.33-47.191-68.822a1.052,1.052,0,0,0-1.871.925c3.367,10.227,21.236,35.99,25.284,45.318C31.22,352.6,28.325,355.038,26.226,353.433Z" style="fill:#c0392b"/></svg>