<?xml version="1.0" ?><svg fill="#c0392b" data-name="1" id="_1" viewBox="0 0 600 600" xmlns="http://www.w3.org/2000/svg"><title/><path d="M571.7,179.741c-35.009-29.2-68.874-85.323-86.142-116.57A63.724,63.724,0,0,0,448.4,33.041L400.816,18.5a13.9,13.9,0,0,0-16.884,7.926c-13.352,31.884-34.344,130.8-86.224,130.8-50.275,0-72.128-95.907-82.112-128.858a13.906,13.906,0,0,0-17.145-9.346L161.409,29.665A63.667,63.667,0,0,0,119.8,67.34C93.12,134.535,53.138,166.952,33.23,179.674,17.212,189.909,7.391,207.761,8.314,226.748c2,41.187,47.882,74.01,72.088,83.379,15.895,5.662,36.889,9.394,50.687-3.064,6.176-5.821,27.078-25.666,26.169-67.209-.345-15.808,3.154-48.015,5.676-68.841a3.749,3.749,0,0,1,7.377-.386c5.831,25.425,14.012,72.073,7.6,113.371-6.059,39.046,48.5,49.257,79.748,57.221,6.792,1.732,9.166,10.214,10.154,16.654a3.119,3.119,0,0,1-3.924,3.493c-18.026-5.1-50.223-14.892-65.172-19.462a9.7,9.7,0,0,0-11.55,5c-9.467,19.326-37.854,72.486-82.569,115.305-6.159,5.9-12.113,13.775-9.7,22.014,14.545,49.593,115.011,86.919,146.307,97.45a8.24,8.24,0,0,0,10.757-6.414c5.038-29.5,24.412-124.372,79.073-227.633a27.124,27.124,0,0,1,17.349-13.663c17.6-4.417,48.975-13.095,63.295-22.048,8.925-5.286,16.071-14.18,15.628-24.29-1.9-43.453,2.939-84.243,5.071-109.981,1.3-15.74,9.238-11.754,9.715-7.328,1.221,11.324,2.687,42.3,3.616,63.971A119.775,119.775,0,0,0,456.935,280.1q.321.683.644,1.365c12.48,26.348,44.016,37.992,70.361,25.506,22.568-10.7,42.7-30.816,55.816-52.388C597.994,231.177,592.736,197.293,571.7,179.741ZM287.478,379.849c-1.772,18.871-24.011,44.8-35.876,45.53-18.753.546,14.907-41.515,24.555-49.987a4.162,4.162,0,0,1,3.518-.945l4.4.826A4.226,4.226,0,0,1,287.478,379.849Zm-4.289-16.507c-4.753-4.25-14.288-26-3.063-27.228,5.836-.484,13.083,12.663,13.1,23.314C293.242,366.235,286.1,366.644,283.189,363.342Zm20.421-4.595c-2.581-3.758-6.428-12.018-6.977-16.677-1.211-4.6,8.406-9.985,10.95-5.091,2.336,5.305,6.792,13.607,8.109,19.215C315.806,363.834,307.583,364.533,303.61,358.747Z" style="fill:#c0392b"/><path d="M375.438,578.6c25.25-9.271,96.037-41.195,125.029-76.226a14.848,14.848,0,0,0-1.45-20.5C430.052,419.864,412.09,345.59,412.09,345.59a11.964,11.964,0,0,0-12.683-5l-34.836,8.178a40.19,40.19,0,0,0-26.685,20.987c-5.46,10.793-18.833,38.545-25.772,53.179a16.425,16.425,0,0,0,.552,15.149c10.548,18.607,37.968,71.026,50.9,133.923A8.961,8.961,0,0,0,375.438,578.6Z" style="fill:#c0392b"/></svg>