<svg width="600" height="600" viewBox="0 0 600 600" fill="none" xmlns="http://www.w3.org/2000/svg">
<path d="M331.44 415.228C521.565 405.651 532.67 254.328 478.386 179.828C449.109 139.651 389.991 73.6 264.193 93.809C211.46 102.282 103.893 152.081 113.502 267.801C121.622 365.549 242.452 416.177 331.44 415.228Z" fill="#c0392b"/>
<path d="M251.593 576.542C418.299 601.342 510.441 496.098 544.993 444.309C546.888 441.468 543.134 438.531 540.641 440.864C379.127 592.064 103.411 543.234 16.5977 366.212C16.2956 365.589 15.7721 365.1 15.1295 364.842C14.4869 364.584 13.7711 364.574 13.1217 364.815C12.4724 365.056 11.936 365.53 11.6173 366.145C11.2985 366.76 11.2202 367.472 11.3977 368.141C50.8907 518.77 170.493 564.474 251.593 576.542Z" fill="#c0392b"/>
<path d="M574.437 220.337L538.737 222.677C537.721 222.742 536.733 223.031 535.841 223.522C534.95 224.013 534.178 224.695 533.58 225.518C532.983 226.342 532.574 227.287 532.383 228.286C532.193 229.286 532.225 230.315 532.478 231.301C541.534 266.365 564.43 405.177 369.439 433.982C368.274 434.157 367.157 434.564 366.153 435.179C365.148 435.793 364.277 436.603 363.591 437.56C362.905 438.517 362.418 439.601 362.158 440.75C361.899 441.898 361.872 443.087 362.08 444.246L370.444 491.266C370.653 492.449 371.103 493.577 371.764 494.581C372.426 495.584 373.286 496.442 374.29 497.101C375.295 497.76 376.424 498.207 377.608 498.414C378.792 498.621 380.006 498.584 381.175 498.305C562.007 454.74 608.553 341.205 581.646 225.705C581.275 224.101 580.346 222.681 579.026 221.698C577.706 220.715 576.079 220.233 574.437 220.337Z" fill="#c0392b"/>
<path d="M159.97 51.207C159.172 51.5336 158.461 52.0413 157.893 52.6901C157.325 53.3388 156.915 54.1107 156.697 54.9448C156.479 55.7789 156.457 56.6524 156.634 57.4962C156.811 58.3401 157.182 59.1311 157.718 59.807L183.68 91.22C184.544 92.2992 185.724 93.081 187.055 93.4558C188.386 93.8306 189.801 93.7796 191.101 93.31C323.431 42.133 448.634 73.846 522.031 198.435C522.887 199.969 524.185 201.208 525.756 201.992C527.328 202.776 529.099 203.067 530.839 202.828C542.21 201.064 553.639 199.869 565.122 199.052C565.842 198.987 566.538 198.755 567.152 198.374C567.767 197.992 568.285 197.473 568.663 196.857C569.042 196.241 569.272 195.545 569.334 194.824C569.396 194.103 569.289 193.378 569.022 192.706C514.173 36.319 319.379 -22.348 159.97 51.207Z" fill="#c0392b"/>
<path d="M125.862 459.136C148.283 473.025 223.427 513.927 319.229 505.616C321.223 505.438 323.067 504.486 324.367 502.963C325.666 501.44 326.317 499.469 326.18 497.472L322.472 443.066C322.359 441.489 321.648 440.015 320.485 438.944C319.322 437.874 317.794 437.287 316.214 437.305C244.938 437.932 185.005 403.437 169.285 393.533C168.177 392.837 166.847 392.587 165.563 392.832C164.278 393.077 163.134 393.8 162.361 394.855L123.71 448.155C123.093 449.005 122.658 449.972 122.432 450.998C122.205 452.023 122.193 453.084 122.395 454.114C122.597 455.144 123.009 456.122 123.605 456.986C124.202 457.85 124.97 458.582 125.862 459.136Z" fill="#c0392b"/>
<path d="M83.7008 210.547C85.3716 210.939 87.128 210.71 88.6429 209.904C90.1578 209.098 91.3281 207.768 91.9358 206.163C97.7358 190.791 116.877 148.345 160.078 119.074C161.165 118.334 162.077 117.367 162.752 116.239C163.427 115.11 163.848 113.849 163.986 112.541C164.123 111.234 163.975 109.912 163.549 108.668C163.124 107.424 162.433 106.288 161.524 105.338L130.901 73.3C129.575 71.9028 127.837 70.9667 125.941 70.6289C124.045 70.2912 122.091 70.5694 120.365 71.423C75.6698 93.828 36.5088 137.975 19.1008 187.37C18.7646 188.312 18.6312 189.314 18.7091 190.311C18.7871 191.307 19.0747 192.276 19.5531 193.154C20.0316 194.032 20.69 194.799 21.4854 195.405C22.2809 196.011 23.1953 196.442 24.1688 196.67L83.7008 210.547Z" fill="#c0392b"/>
<path d="M11.942 256.394C13.1635 284.383 18.8261 312 28.718 338.211C29.2171 339.511 29.9736 340.698 30.9422 341.699C31.9108 342.7 33.0716 343.495 34.3549 344.036C35.6382 344.578 37.0177 344.855 38.4106 344.851C39.8035 344.846 41.1812 344.561 42.461 344.011L100.474 319.239C101.119 318.961 101.7 318.554 102.181 318.043C102.663 317.532 103.035 316.928 103.275 316.268C103.514 315.608 103.617 314.906 103.575 314.205C103.534 313.504 103.35 312.819 103.034 312.192C90.807 287.455 88.654 260.811 88.307 249.973C88.2622 248.633 87.6942 247.364 86.7248 246.437C85.7554 245.511 84.4618 245.001 83.121 245.017L22.191 245.673C20.8088 245.686 19.4432 245.976 18.1748 246.526C16.9063 247.075 15.7607 247.873 14.8055 248.872C13.8503 249.871 13.1049 251.052 12.6131 252.343C12.1213 253.635 11.8931 255.013 11.942 256.394Z" fill="#c0392b"/>
<path d="M85.4322 426.916C86.6781 428.15 88.3486 428.86 90.1014 428.901C91.8541 428.943 93.5564 428.312 94.8592 427.139L141.782 373.348C142.177 372.905 142.479 372.388 142.669 371.825C142.859 371.263 142.933 370.668 142.887 370.077C142.842 369.485 142.677 368.909 142.402 368.383C142.128 367.857 141.75 367.391 141.291 367.015C133.152 360.435 125.83 352.903 119.482 344.581C118.804 343.673 117.8 343.063 116.681 342.878C115.563 342.694 114.416 342.95 113.482 343.593L59.4652 380.508C58.0228 381.492 57.0091 382.988 56.6304 384.693C56.2516 386.397 56.5362 388.182 57.4262 389.684C62.4112 398.077 72.7892 414.286 85.4322 426.916Z" fill="#c0392b"/>
<path d="M568.325 414.7C566.362 406.314 556.025 411.675 556.655 418.443C558.275 428.451 568.818 422.346 568.325 414.7Z" fill="#c0392b"/>
</svg>
