<svg width="512" height="512" viewBox="0 0 512 512" fill="none" xmlns="http://www.w3.org/2000/svg">
<path d="M373.119 300.631L432.313 270.079C436.12 268.143 440.533 267.773 444.609 269.05C448.685 270.327 452.101 273.149 454.128 276.914C455.11 278.798 455.709 280.857 455.891 282.974C456.074 285.091 455.835 287.223 455.19 289.247C454.545 291.271 453.506 293.147 452.132 294.766C450.759 296.385 449.079 297.716 447.189 298.681L407.912 318.923L441.625 336.658C443.507 337.639 445.178 338.983 446.539 340.614C447.9 342.245 448.925 344.13 449.555 346.16C450.185 348.189 450.407 350.324 450.209 352.44C450.011 354.557 449.396 356.613 448.4 358.49C446.353 362.273 442.902 365.098 438.793 366.356C434.684 367.613 430.246 367.201 426.438 365.21L392.725 347.492L398.126 391.173C398.383 393.291 398.22 395.439 397.646 397.494C397.071 399.548 396.096 401.469 394.778 403.145C393.459 404.821 391.822 406.219 389.961 407.258C388.101 408.298 386.053 408.958 383.937 409.202C383.282 409.202 382.628 409.317 381.989 409.317C378.032 409.324 374.209 407.881 371.24 405.26C368.271 402.64 366.361 399.023 365.87 395.09L357.932 329.233L319.932 309.105L279.019 345.886V392.074L333.826 429.772C335.577 430.971 337.073 432.505 338.229 434.287C339.384 436.068 340.176 438.061 340.558 440.15C340.939 442.24 340.904 444.384 340.454 446.46C340.004 448.536 339.147 450.501 337.934 452.244C335.456 455.759 331.697 458.158 327.468 458.921C323.24 459.685 318.881 458.752 315.333 456.325L279.019 431.313V469.241C278.885 473.466 277.115 477.473 274.083 480.414C271.052 483.355 266.997 485 262.776 485C258.555 485 254.5 483.355 251.469 480.414C248.437 477.473 246.667 473.466 246.534 469.241V431.379L210.203 456.39C208.465 457.681 206.487 458.609 204.385 459.119C202.284 459.63 200.101 459.714 197.967 459.365C195.832 459.016 193.789 458.241 191.959 457.087C190.128 455.934 188.548 454.424 187.311 452.647C186.073 450.87 185.204 448.863 184.755 446.744C184.306 444.625 184.286 442.438 184.697 440.311C185.107 438.184 185.939 436.162 187.143 434.363C188.348 432.564 189.901 431.025 191.71 429.838L246.534 392.14V345.886L205.375 309.122L167.325 329.118L159.388 394.975C158.897 398.908 156.987 402.525 154.018 405.146C151.049 407.766 147.226 409.209 143.268 409.202C142.63 409.202 141.976 409.202 141.321 409.087C139.204 408.844 137.157 408.183 135.296 407.143C133.436 406.104 131.799 404.706 130.48 403.03C129.161 401.354 128.187 399.434 127.612 397.379C127.037 395.324 126.874 393.176 127.132 391.058L132.402 347.426L98.6892 365.144C96.8144 366.182 94.7521 366.836 92.6225 367.068C90.4929 367.3 88.3385 367.106 86.2847 366.496C84.2309 365.886 82.3187 364.873 80.6595 363.516C79.0002 362.159 77.627 360.485 76.6198 358.592C75.6127 356.698 74.9916 354.623 74.7928 352.487C74.5941 350.351 74.8216 348.196 75.462 346.149C76.1025 344.101 77.1432 342.202 78.5235 340.561C79.9039 338.921 81.5963 337.572 83.5022 336.592L117.215 318.858L77.938 298.615C76.0497 297.649 74.371 296.317 72.9989 294.697C71.6267 293.078 70.5882 291.202 69.9432 289.179C69.2982 287.156 69.0594 285.024 69.2406 282.908C69.4218 280.792 70.0195 278.732 70.9991 276.849C73.0151 273.051 76.4407 270.199 80.537 268.909C84.6333 267.618 89.072 267.991 92.8959 269.948L152.089 300.5L190.891 280.094V231.775L152.171 211.369L92.9777 241.92C91.0933 242.966 89.0192 243.623 86.8775 243.853C84.7357 244.083 82.5696 243.882 80.5066 243.262C78.4435 242.641 76.5253 241.614 74.8646 240.24C73.204 238.866 71.8346 237.173 70.8369 235.261C69.8392 233.349 69.2335 231.256 69.0553 229.106C68.8772 226.956 69.1302 224.792 69.7995 222.742C70.4688 220.691 71.5408 218.795 72.9525 217.166C74.3643 215.536 76.0872 214.206 78.0198 213.253L117.297 193.011L83.584 175.277C81.7041 174.301 80.0351 172.963 78.6729 171.34C77.3108 169.717 76.2823 167.84 75.6467 165.817C75.011 163.795 74.7806 161.666 74.9688 159.554C75.1571 157.442 75.7601 155.388 76.7433 153.51C78.7904 149.727 82.241 146.901 86.35 145.644C90.459 144.387 94.8969 144.798 98.7056 146.79L132.418 164.508L127.149 120.876C126.785 116.667 128.07 112.48 130.732 109.203C133.395 105.925 137.226 103.812 141.415 103.312C145.604 102.812 149.823 103.963 153.181 106.522C156.538 109.081 158.77 112.847 159.405 117.025L167.342 182.882L204.786 202.55L246.386 165.262V118.992L191.562 81.2933C189.813 80.0931 188.319 78.558 187.165 76.7767C186.01 74.9953 185.22 73.0028 184.838 70.914C184.456 68.8252 184.491 66.6814 184.94 64.6061C185.389 62.5307 186.244 60.5649 187.455 58.8219C189.933 55.3064 193.692 52.908 197.92 52.1444C202.149 51.3808 206.507 52.3133 210.055 54.7407L246.386 79.7526V41.7594C246.52 37.5343 248.29 33.5272 251.322 30.5859C254.353 27.6446 258.408 26 262.629 26C266.85 26 270.905 27.6446 273.936 30.5859C276.968 33.5272 278.738 37.5343 278.871 41.7594V79.7526L315.186 54.6751C318.734 52.2478 323.093 51.3152 327.321 52.0788C331.55 52.8424 335.309 55.2409 337.787 58.7563C339 60.4986 339.856 62.4644 340.307 64.5401C340.757 66.6158 340.792 68.7603 340.41 70.8497C340.028 72.9391 339.237 74.932 338.081 76.7133C336.926 78.4946 335.43 80.0289 333.679 81.2277L278.871 118.926V165.131L320.472 202.436L357.932 182.767L365.87 116.91C366.504 112.733 368.736 108.966 372.093 106.407C375.451 103.848 379.67 102.697 383.859 103.197C388.048 103.698 391.879 105.81 394.542 109.088C397.204 112.366 398.489 116.552 398.126 120.762L392.856 164.393L426.569 146.675C430.377 144.684 434.815 144.272 438.924 145.529C443.033 146.787 446.484 149.612 448.531 153.395C449.527 155.272 450.142 157.328 450.34 159.445C450.538 161.561 450.316 163.696 449.686 165.725C449.056 167.755 448.031 169.64 446.67 171.271C445.309 172.902 443.638 174.247 441.756 175.227L408.043 192.962L447.32 213.204C449.205 214.182 450.879 215.525 452.243 217.155C453.608 218.784 454.636 220.668 455.269 222.699C455.902 224.729 456.127 226.864 455.931 228.982C455.735 231.1 455.122 233.157 454.128 235.036C452.109 238.831 448.682 241.679 444.586 242.967C440.49 244.255 436.053 243.879 432.231 241.92L373.103 211.369L334.284 231.791V280.143L373.119 300.631Z" fill="#c0392b"/>
</svg>
