<?xml version="1.0" ?><svg fill="#c0392b" data-name="1" id="_1" viewBox="0 0 600 600" xmlns="http://www.w3.org/2000/svg"><title/><path d="M361.714,546.528c31.008.9,148.729-3.7,196.47-121.044C573.9,386.853,594.166,161.159,383.421,90.166c-148.332-49.967-248.974,15.4-281.668,63.307C79.363,186.285,44.179,276.1,98.5,378.967c20.874,39.527,49.858,66.279,64.058,78.716a10.627,10.627,0,0,0,14.845-.833c11.021-12.061,19.089-21.261,24.23-27.235a10.6,10.6,0,0,0-.731-14.606c-18.349-17.368-64.2-69.152-68.026-155.864-2.7-61.231,50.873-180.194,213.566-146.98,144,29.4,180.872,153.965,184.827,226.359,3.226,59.042-22.49,170.387-166.177,155.907a7.348,7.348,0,0,0-8.053,6.843L354.609,538.7A7.351,7.351,0,0,0,361.714,546.528Z" style="fill:#c0392b"/><path d="M196.213,571.061c55.681,24.713,161.2,38.8,253.02-13.631,4.258-2.431,1.211-8.988-3.494-7.611-79.357,23.232-158.489,9.52-233.483-31.907-37.627-20.784-71.221-48.3-97.9-82C54.4,360.149,40.484,274.466,70.06,193.8a3.086,3.086,0,0,0-5.561-2.628C54.74,208.117,44.145,233.394,38.27,265.81,1.213,470.29,160.369,555.152,196.213,571.061Z" style="fill:#c0392b"/><path d="M502.81,379.014a2.989,2.989,0,0,0,5.954.292c7.454-60.367.772-196.892-144.021-245.723-90.281-30.447-153.268,7.589-178.726,28.293a2.787,2.787,0,0,0,2.839,4.73c170.769-70.415,289.771,39.621,310.138,156.426C501.257,336.016,502.316,359.69,502.81,379.014Z" style="fill:#c0392b"/><path d="M173.468,33.831c23.381-14.96,47.756,13.519,55.186,24.742a9.218,9.218,0,0,0,8.431,4.077l9.227-.743A3.468,3.468,0,0,0,249,56.643c-9.43-15.392-42.563-61.5-93.721-47.055-19.6,5.532-32.115,25.379-28.976,53.771.938,8.483,4.735,19.757,8.569,28.337a3.448,3.448,0,0,0,4.9,1.568c5.345-3.138,16.442-9.325,26.863-13.086a6.951,6.951,0,0,0,4.2-8.905C166.905,60.519,160.788,41.944,173.468,33.831Z" style="fill:#c0392b"/><path d="M247.224,514.864c12.038,5.831,39.663,18.307,64.3,22.833a6.576,6.576,0,0,0,7.656-5.327l7.109-40.057a6.572,6.572,0,0,0-4.7-7.482c-10.1-2.82-31.559-9.356-48.456-18.234a6.587,6.587,0,0,0-8.865,2.651L244.328,505.8A6.57,6.57,0,0,0,247.224,514.864Z" style="fill:#c0392b"/><path d="M328.317,323.174a34.452,34.452,0,0,1-7.212-5.395,1.824,1.824,0,0,0-2.706.179L289.721,354.33a10.238,10.238,0,0,1-6.362,3.775L269.674,360.4a16.651,16.651,0,0,0-8.269,3.938L256.8,368.4a1.975,1.975,0,0,0,1.4,3.454l21.352-.99-6.066,7.049a11.145,11.145,0,0,1-6.891,3.766L248.743,384.2a16.662,16.662,0,0,0-9.2,4.47l-5.35,5.128a1.975,1.975,0,0,0,1.508,3.4l30.06-2.159a5,5,0,0,1,5.261,3.98L277.17,428.8a1.975,1.975,0,0,0,3.623.624l2.595-4.285a16.664,16.664,0,0,0,2.337-10.19l-2.25-23.958a8.037,8.037,0,0,1,1.57-5.571l5.265-7.026,3.613,22.8a1.974,1.974,0,0,0,3.7.6l4.207-8.11a16.649,16.649,0,0,0,1.768-9.524c-.576-5.146-1.31-11.469-1.776-15.453a10.216,10.216,0,0,1,1.811-7.092l25.325-35.764A1.835,1.835,0,0,0,328.317,323.174Z" style="fill:#c0392b"/><path d="M344.8,317.262c18.559-2.033,20.666-17.228,15.065-27.321a7.735,7.735,0,0,1,.364-7.912c18.424-28.647,28.574-39.6,33.379-43.754a24.042,24.042,0,0,0,6.168-8.132l8.059-17.539a1.436,1.436,0,0,0-2.184-1.736l-14.459,11.19a23.567,23.567,0,0,0-6.888,8.577c-3.247,6.873-11.837,21.45-33.615,44.615a10.063,10.063,0,0,1-8,2.645c-9.119-1.424-19.4,3.8-20.866,13.57C319.273,308.5,333.257,318.526,344.8,317.262Z" style="fill:#c0392b"/><path d="M374.2,451.864a2.336,2.336,0,0,0-3.372.988l-2.043,4.4a2.358,2.358,0,0,0,.87,2.974c16.214,10.41,33.574,2.058,33.49-10.937-.067-10.412-11.515-13.408-19.844-14.906-7.8-1.4-9.368-8.677-3.2-10.079,4-.909,7.475.349,10.588,2.14a2.042,2.042,0,0,0,2.839-.8l2.052-3.879a2.048,2.048,0,0,0-.51-2.532c-12.443-10.317-33.013-6.23-31.269,10.333a14.814,14.814,0,0,0,7.648,11.333c9.307,4.884,12.508,2.343,18.317,5.013C399.6,450.433,388.248,460.819,374.2,451.864Z" style="fill:#c0392b"/><path d="M300.879,191.129l14.008,10.962a7.792,7.792,0,0,0,6.273,1.516l2.645-.507a2.511,2.511,0,0,0,1.961-3.078l-7.286-28.969a2.509,2.509,0,0,0-2.838-1.865l-5.138.837a2.511,2.511,0,0,0-2.077,2.861l1.577,10.2a.88.88,0,0,1-1.33.884l-15.512-9.514A7.793,7.793,0,0,0,288,173.379l-2.887.407a2.509,2.509,0,0,0-2.09,3.077l7.591,31.274a2.51,2.51,0,0,0,3.013,1.852l6.524-1.531a2.51,2.51,0,0,0,1.892-2.911l-2.571-13.561A.88.88,0,0,1,300.879,191.129Z" style="fill:#c0392b"/><path d="M195.8,485.1a216.985,216.985,0,0,0,19.03,12.952c2.558,1.511,6.464.14,7.908-2.455,6.956-12.5,16.2-31.778,20.971-40.139a4.98,4.98,0,0,0-1.42-6.512l-10.8-6.936a4.982,4.982,0,0,0-6.793.915c-6.627,8.227-23.526,26.6-29.884,35.27A5.1,5.1,0,0,0,195.8,485.1Z" style="fill:#c0392b"/><path d="M171.429,317.226c1.111,4.682,6.33,5.7,10.583,4.681,6.231-.9,39.071-4.678,37.015-12.389s-32.719-3.278-40.91-2.055C173.645,308.189,169.89,312.682,171.429,317.226Z" style="fill:#c0392b"/><path d="M459.137,385.9c-9.265-6.734-17.937-14.469-27.688-20.454-1.783-.867-3.592-.99-5.056.573-3.239,3.99,19.2,25.209,26.474,31.8,4.276,3.842,10.91,2.072,10.843-4.829C463.838,390.209,461.692,387.867,459.137,385.9Z" style="fill:#c0392b"/><path d="M199.465,210.482c-9.292-6.2-17.315,6.039-6.873,11.139l30.316,10.934c4.907.134,6.819-4.812,2.747-7.639C217.211,219.662,208.153,215.345,199.465,210.482Z" style="fill:#c0392b"/><path d="M458.6,284.52c-4.623.126-35.57,2.639-34.084,9,1.563,6.7,32.813,4.187,37.433,3.626C471.479,294.951,467.782,283.458,458.6,284.52Z" style="fill:#c0392b"/></svg>