<?xml version="1.0" ?><svg fill="#c0392b" data-name="Layer 5" id="Layer_5" viewBox="0 0 600 600" xmlns="http://www.w3.org/2000/svg"><title/><path d="M366.886,281.071a110.8,110.8,0,0,0,1.661,19.873,5.991,5.991,0,0,0,5.916,4.922h91.221c2.931,0,5.554,2.562,4.959,5.432-3.278,15.809-15.913,41.079-46.872,60.712-2.39,1.516-2.928,4.649-.46,6.033a109.774,109.774,0,0,0,54.247,14.025c60.012-.212,109.246-49.089,109.873-109.1a110.277,110.277,0,1,0-220.545-1.9Zm51.329-46.937c6.922,0,12.534,7.569,12.534,16.905s-5.612,16.905-12.534,16.905-12.533-7.569-12.533-16.905S411.293,234.134,418.215,234.134Z" style="fill:#c0392b"/><path d="M88.457,360.532A83.812,83.812,0,1,0,4.645,276.72,83.811,83.811,0,0,0,88.457,360.532ZM49.153,290h80.808a4.772,4.772,0,0,1,4.7,5.607c-1.925,10.9-10.13,33.872-45.1,33.872S46.379,306.5,44.454,295.6A4.772,4.772,0,0,1,49.153,290Z" style="fill:#c0392b"/><path d="M537.027,447.982c-32.63-31.294-87.1-31.294-119.733,0a161.851,161.851,0,0,0-44.441,74.7,634.193,634.193,0,0,0-13.393,63.441,8.151,8.151,0,0,0,8.05,9.443h219.3a8.151,8.151,0,0,0,8.05-9.443,634.193,634.193,0,0,0-13.393-63.441A161.851,161.851,0,0,0,537.027,447.982Z" style="fill:#c0392b"/><path d="M191.416,161.967a14.658,14.658,0,0,1,4.181,17.506l-14.106,30.682a4.05,4.05,0,0,0,5.081,5.492l57.882-21.338a45.678,45.678,0,0,1,21.195-2.594,173.59,173.59,0,0,0,20.592,1.219c70.673,0,127.965-42.2,127.965-94.251S356.914,4.431,286.241,4.431s-127.965,42.2-127.965,94.252C158.276,123.041,170.824,145.24,191.416,161.967Zm156.768-80.3a13.84,13.84,0,1,1-13.84,13.841A13.84,13.84,0,0,1,348.184,81.669Zm-58.341,0A13.84,13.84,0,1,1,276,95.51,13.84,13.84,0,0,1,289.843,81.669Zm-58.342,0a13.84,13.84,0,1,1-13.84,13.841A13.841,13.841,0,0,1,231.5,81.669Z" style="fill:#c0392b"/><path d="M156.99,465.04a115.35,115.35,0,0,0-29.2-52.423,54.968,54.968,0,0,0-78.668,0,115.341,115.341,0,0,0-29.2,52.423C9.811,505.2,5.551,549.5,3.987,587.1a8.14,8.14,0,0,0,8.141,8.466H164.785a8.141,8.141,0,0,0,8.142-8.466C171.363,549.5,167.1,505.2,156.99,465.04Z" style="fill:#c0392b"/></svg>