<svg fill="#c0392b" xmlns="http://www.w3.org/2000/svg" x="0px" y="0px" width="100" height="100" viewBox="0 0 48 48">
<path d="M24.001 46.997c10.488 0 19 .224 19 .5s-8.512.5-19 .5c-10.488 0-19-.224-19-.5S13.513 46.997 24.001 46.997zM9.204 32.576c-.677.277-1.392.421-2.203.421-3.509 0-6-3.551-6-7.5 0-.188.005-.379.017-.572.42-.153.755-.492.904-.919h1.221c-.093.464-.143.963-.143 1.491 0 3.259 2.021 5.5 4 5.5.744 0 1.356-.171 2.025-.561.213-2.357 1.751-4.439 3.975-4.439h3v-2h3v2h1v-2h3v2c.351 0 .685.052 1 .148v-2.148h3v10h5c2.008 0 4-2.276 4-5.5 0-3.257-1.964-5.5-3.996-5.5h-31l-.004.509c0 .276-.225.5-.5.5-.276 0-.5-.224-.5-.5v-3.019c0-.275.224-.5.5-.5.275 0 .5.225.5.5l.004.509h15L16 18.999h.001v-2.001h1v-2h-.5c-.276 0-.5-.224-.5-.5 0-.275.224-.5.5-.5h2c.275 0 .5.225.5.5 0 .276-.225.5-.5.5h-.5v2h1v4H20v-2h.001v-2h1v-2h-.5c-.276 0-.5-.224-.5-.5 0-.275.224-.5.5-.5h2c.275 0 .5.225.5.5 0 .276-.225.5-.5.5h-.5v2h1v4H24v-2h.001v-2h1v-2h-.5c-.276 0-.5-.224-.5-.5 0-.275.224-.5.5-.5h2c.275 0 .5.225.5.5 0 .276-.225.5-.5.5h-.5v2h1v4h5c3.055 0 5.34 2.696 5.879 6h2.623c1.379 0 2.499 1.121 2.499 2.5s-1.119 2.5-2.499 2.5H37.3c-.981 2.319-2.913 4-5.299 4h-19C11.088 35.997 9.703 34.472 9.204 32.576zM16.001 33.997v-1.999h-3.84c-.095-.277-.156-.612-.156-1.001 0-.389.061-.723.156-.999h3.84v-1.001h3v5h1v-5h3v5h1v-2.489c.005.272.228.489.501.489.276 0 .501-.224.501-.5l-.003-.5c0-1.9-1.085-3-2-3h-10c-.889 0-2 1.137-2 3 0 1.901 1.084 3 2 3H16.001zM28.001 31.997v-2h6.821c-.184.745-.495 1.384-.873 1.876-.033.044-.067.085-.1.124H28.001zM41.001 29.497c0-.276-.225-.5-.499-.5h-2.516c-.019.339-.055.673-.109 1h2.625C40.775 29.997 41.001 29.773 41.001 29.497zM28.001 28.997v-2h6.82c.115.463.18.967.18 1.5 0 .171-.007.337-.02.5H28.001zM46 25.997v-1.001c-1.648-2.228-5.813-3.365-10.391-3.792-.133-.097-.272-.191-.412-.279-.937-.581-2.027-.928-3.196-.928h-4v-3h3c6.148 0 12.807-1.029 14.999-3.997v-1.003c0-.551.448-1 1-1 .551 0 1 .449 1 1v14c0 .552-.449 1-1 1C46.448 26.997 46 26.549 46 25.997zM7.001 16.997h8l.004 3L2.548 20.007C3.6 18.265 5.139 16.997 7.001 16.997zM46 17.997v-3.525c-2.691 2.397-8.003 3.319-12.999 3.525H46z"></path>
</svg>