<?xml version="1.0" ?><svg fill="#c0392b" data-name="Layer 4" id="Layer_4" viewBox="0 0 600 600" xmlns="http://www.w3.org/2000/svg"><title/><path d="M592.027,585.038a1.383,1.383,0,0,0,2.637-.584V515.336a32.344,32.344,0,0,0-7.18-20.289c-32.424-40.229-66.963-61.269-86.687-130.86-17.478-61.663-31.841-75.3-54.106-86.172-4.956-2.648-14.5-7.584-22.073-11.808a7.508,7.508,0,0,1,.1-13.17c35.5-19.033,30.057-2.2,68.093,1.585,50.944,5.072,86.741-36.885,77.621-86.04-6.167-33.242-37.639-54.854-68.728-56.6a8.666,8.666,0,0,1-6.447-3.556c-4.411-5.969-14.341-17.739-24.93-19.118a4.728,4.728,0,0,0-5.477,4.593l-.378,11.078a6.128,6.128,0,0,1-4.3,5.644l-7.187,2.24c-7.741,2.379-8.509,5-3.029,10.756,8.106,8.045,11,22.317,1.847,32.432-5.426,6-19.512,8.557-26.011,3.853-9.855-7.133-9.395-17.779-8.464-27.112a3.009,3.009,0,0,0-4.075-3.1,144.631,144.631,0,0,0-22.112,10.669,5.234,5.234,0,0,0-2.1,6.573L407.7,189.952c14.149,34.735-37.856,32.443-58.395,31.053A12.73,12.73,0,0,0,337.6,227.05l-30.9,50.322a3.329,3.329,0,0,1-6.11-2.355C317.806,182.676,387.249,46.775,405.705,9.63a3.586,3.586,0,0,0-3.219-5.18h0a29.325,29.325,0,0,0-26.034,15.828c-33.944,65.432-69.1,163.516-81.687,202-18.5,56.561-29.271,60.847-42.094,8.548-6.769-27.607-35.02-122.12-45.994-223.538a3.179,3.179,0,0,0-3.159-2.841h-6.165a3.18,3.18,0,0,0-3.143,3.684c2.388,14.87,11.539,71.666,18.7,113.625a2.358,2.358,0,0,1-4.532,1.223L167.809,14.92A15.969,15.969,0,0,0,152.794,4.564l-47.345.2a3.944,3.944,0,0,0-3.385,5.949C126.045,51.337,264.269,287.82,242.391,304.134,219.5,321.2,119.31,257.962,11.627,106.613A2.4,2.4,0,0,0,7.266,108v73.973a4.841,4.841,0,0,0,2.764,4.75c64.771,35.38,127.6,89.218,158.617,118.612,9.383,8.891,2.718,24.824-10.189,24.124-6.917-.375-15.68-2.979-26.65-9.559L11.918,256.016a2.67,2.67,0,0,0-3.924,2.358c.014,4.091.727,9.9,4.426,11.878,0,0,137.892,73.332,152.715,84.4a2.669,2.669,0,0,1-2.333,4.7c-25.075-6.989-84.5-30.156-107.9-38.445-3.365-1.193-8.193-.373-9.036,3.315-1.46,4.454,3.79,6.993,7.418,8.17,13.437,5.295,25.564,11.551,38.416,17.523a6.661,6.661,0,0,1,2.218,10.4C62.7,396.349,33.16,434.98,12.228,478.187A69.018,69.018,0,0,0,5.336,508.28V587.8a6.6,6.6,0,0,0,6.6,6.6H58.959c3.243,0,5.719-2.421,6.513-5.565,10.594-41.935,22.93-72.851,33.353-88.976a9.253,9.253,0,0,1,16.36,1.651A206.132,206.132,0,0,1,129.211,587.5a6.586,6.586,0,0,0,6.592,6.907h95.072a6.586,6.586,0,0,0,6.6-6.516c.294-50.965-8.827-100.26,4.74-147.593,23.277-81.2,133.626-57,154.288-53.346a2.325,2.325,0,0,0,2.833-2.4c-.114-12.389-6.07-29.195-6.07-29.195-.6-1.715,1.712-3.311,2.834-1.883C514.846,504.607,549.374,494.627,592.027,585.038ZM496.349,132.822c14.478-.759,29.353,12.544,20.414,25.805-8.415,12.077-25.556,4.534-32.478-5.426C478.071,142.864,486.25,134.083,496.349,132.822Z" style="fill:#c0392b"/><path d="M52.343,4.456c-5.545.176-32.5.059-41.866.012a3.2,3.2,0,0,0-3.211,3.2V47.705a9.211,9.211,0,0,0,3.115,7.287c57.145,55.9,109.206,109.4,166.279,180.346,4.684,5.823,12.255-.96,7.4-6.525C153.553,179.729,85.21,88.49,57.607,7.724,56.747,5.208,55.077,4.369,52.343,4.456Z" style="fill:#c0392b"/><path d="M393.045,408.417c-13.2-6.65-34.62-8.024-44.273-8.337-2.128-.07-3.457,2.055-2.3,3.667,43.846,61.019,72.569,104.673,90.979,187.586a5.708,5.708,0,0,0,5.71,4.217h30.705a5.544,5.544,0,0,0,5.689-6.388C473.316,546.613,447.465,435.834,393.045,408.417Z" style="fill:#c0392b"/><path d="M284.729,4.451c-3.41,0-5.9,4.036-6.684,9.159L267.066,213.792c.55,5.283,2.925,13.67,5.447,10,10.21-14.857,19.474-136.971,46.4-213.614.911-2.594-.489-5.727-2.4-5.727Z" style="fill:#c0392b"/><path d="M19.116,317.489c4.528,1.584,9.368,1.6,10.4-1.737,1.77-5.725-8.058-10.373-14-9.7C8.4,306.861,9.413,313.957,19.116,317.489Z" style="fill:#c0392b"/><path d="M204.659,264.939a6.73,6.73,0,0,0,.348-4.6c-3.056-12.093-14.669-8.789-13.42-1.574a7.169,7.169,0,0,0,1.617,3.285C196.374,265.9,202.308,269.747,204.659,264.939Z" style="fill:#c0392b"/></svg>