<svg width="600" height="600" viewBox="0 0 600 600" fill="none" xmlns="http://www.w3.org/2000/svg">
<g clip-path="url(#clip0_727_1946)">
<path d="M145.345 431.316C144.919 424.254 144.154 412.283 143.459 405.151C142.491 393.238 139.84 381.429 139.148 369.507C139.393 366.868 142.192 366.275 143.951 367.8C144.658 368.562 148.672 387.494 151.086 399.129C151.17 399.523 151.388 399.875 151.704 400.126C152.019 400.376 152.412 400.509 152.814 400.501C153.217 400.493 153.604 400.344 153.909 400.082C154.215 399.819 154.418 399.458 154.486 399.061C159.497 369.255 161.155 350.375 160.744 328.227C160.602 321.171 162.18 314.188 165.344 307.879C165.563 307.444 165.878 307.064 166.267 306.769C166.655 306.474 167.105 306.272 167.584 306.178C168.062 306.084 168.556 306.1 169.027 306.226C169.498 306.352 169.934 306.584 170.302 306.904C171.999 308.45 173.783 309.897 175.646 311.237C178.056 312.739 178.396 312.543 178.903 309.815C179.398 306.777 180.049 299.835 184.113 300.919C186.292 301.649 186.601 303.509 186.394 305.481C183.453 342.172 178.536 377.073 178.405 398.996C178.402 399.504 178.579 399.997 178.905 400.387C179.23 400.778 179.684 401.04 180.185 401.127C180.685 401.214 181.201 401.122 181.64 400.865C182.078 400.608 182.412 400.204 182.581 399.725C191.094 375.469 199.799 317.095 200.994 312.868C204.758 299.556 209.595 305.98 209.068 310.821C207.435 321.448 151.704 624 151.704 624L115.62 624L145.345 431.316Z" fill="white" fill-opacity="0.7"/>
<path d="M394.99 186.841C395.462 186.63 395.851 186.267 396.094 185.809C396.336 185.352 396.419 184.827 396.328 184.317C396.237 183.807 395.978 183.342 395.593 182.997C395.207 182.651 394.717 182.445 394.2 182.41C375.726 181.312 328.95 182.898 264.774 216.171C258.83 219.252 252.133 215.937 260.065 211.801C276.376 203.297 300.81 189.328 300.81 189.328C300.81 189.328 271.103 192.234 256.376 194.643L255.803 193.832C258.702 188.871 261.902 184.093 265.384 179.523C267.567 176.615 270.772 174.641 274.353 174.002L330.745 163.872C331.045 163.829 331.317 163.674 331.507 163.439C331.697 163.203 331.791 162.905 331.77 162.603C331.749 162.301 331.615 162.019 331.395 161.812C331.174 161.604 330.884 161.488 330.581 161.486C313.423 160.802 281.028 159.767 278.511 160.028C276.545 160.235 276.235 159.343 276.409 157.754C276.825 153.994 279.335 151.792 283.14 151.737C300.964 151.475 360.323 154.774 354.147 142.458C347.991 130.183 332.119 106.958 325.567 97.5206C325.207 97.0108 324.994 96.4124 324.95 95.7899C324.905 95.1675 325.032 94.5448 325.317 93.9894C325.601 93.4339 326.032 92.9668 326.563 92.6385C327.093 92.3103 327.704 92.1335 328.328 92.1272C329.315 92.2219 330.277 92.4943 331.167 92.9313C416.458 126.215 532.286 147.228 579.634 155.183C580.423 155.315 581.14 155.722 581.658 156.332C582.176 156.942 582.461 157.715 582.462 158.515C582.463 159.315 582.181 160.09 581.665 160.702C581.149 161.313 580.434 161.722 579.645 161.856C525.125 171.051 429.312 196.937 327.943 261.04C324.675 263.108 322.663 260.834 324.246 257.521C327.028 252.523 354.452 211.482 360.108 204.087C361.49 202.281 363.305 200.852 365.385 199.934L394.99 186.841Z" fill="white" fill-opacity="0.7"/>
<path d="M239.017 151.73C239.457 151.811 239.869 152.003 240.214 152.288C240.559 152.572 240.826 152.94 240.99 153.356C241.154 153.772 241.21 154.223 241.152 154.666C241.094 155.11 240.924 155.531 240.658 155.891C238.569 158.722 236.651 161.319 234.732 163.916C232.685 166.555 231.273 169.669 227.734 170.584C222.69 172.23 217.726 174.124 212.709 175.854C209.243 177.049 208.512 176.523 208.954 173.075C209.763 166.759 210.678 160.456 211.548 154.148C211.993 150.735 211.99 146.803 216.532 147.542C223.947 148.978 231.163 150.277 239.017 151.73Z" fill="white" fill-opacity="0.7"/>
<path d="M123.712 237.254C121.44 238.526 119.897 238.782 118.657 235.976C117.05 231.337 115.721 226.602 114.143 221.951C112.532 216.927 109.989 212.131 108.791 206.996C107.503 200.609 115.701 199.568 119.812 196.97C131.094 192.694 129.523 205.488 128.28 212.51C126.769 220.827 125.774 229.029 123.712 237.254Z" fill="white" fill-opacity="0.7"/>
<path d="M113.637 113.762C109.741 109.26 113.168 103.104 114.544 98.2099C116.156 93.9779 120.65 93.07 123.85 96.2624C127.648 100.546 137.674 124.382 137.944 131.342C137.852 134.15 136.622 134.506 134.368 132.844C130.942 130.317 116.999 117.691 113.637 113.762Z" fill="white" fill-opacity="0.7"/>
<path d="M109.607 321.716C109.146 322.8 108.284 323.663 107.201 324.126C100.687 327.034 95.758 327.92 90.0154 327.29C84.6215 326.62 82.3729 320.648 86.375 316.102C92.4213 309.524 101.699 296.067 107.882 310.386C109.387 314.202 111.193 317.782 109.607 321.716Z" fill="white" fill-opacity="0.7"/>
<path d="M100.104 233.903C100.483 234.192 100.763 234.59 100.907 235.045C101.051 235.499 101.052 235.986 100.909 236.441C100.766 236.895 100.487 237.294 100.109 237.585C99.7309 237.875 99.2728 238.041 98.7968 238.062C88.363 238.498 68.2919 238.579 66.1805 232.983C63.8293 227.061 68.61 214.705 76.4545 217.868C82.1399 220.484 93.5537 228.912 100.104 233.903Z" fill="white" fill-opacity="0.7"/>
<path d="M391.656 264.781C397.165 268.11 396.648 281.496 388.003 278.415C384.205 276.84 381.575 270.15 384.281 266.496C385.068 265.333 386.265 264.51 387.632 264.192C389 263.875 390.437 264.085 391.656 264.781Z" fill="white" fill-opacity="0.7"/>
<path d="M748.028 739.007C577.57 600.967 420.038 428.64 397.774 404.022C397.441 403.656 397.036 403.363 396.585 403.161C396.133 402.96 395.645 402.853 395.151 402.849C394.656 402.844 394.166 402.942 393.711 403.135C393.256 403.329 392.846 403.614 392.506 403.974C385.859 410.883 375.385 417.994 369.556 421.723C369.076 422.03 368.677 422.447 368.39 422.939C368.103 423.431 367.937 423.984 367.906 424.553C367.875 425.122 367.979 425.69 368.211 426.21C368.443 426.731 368.795 427.188 369.238 427.546C398.283 451.014 580.659 601.944 697.152 783.102C697.885 784.245 698.894 785.186 700.085 785.838C701.276 786.489 702.612 786.832 703.97 786.833L707.287 786.833C707.541 786.833 707.79 786.765 708.008 786.636C708.227 786.508 708.407 786.323 708.531 786.102C708.654 785.881 708.716 785.63 708.711 785.377C708.705 785.123 708.632 784.876 708.499 784.66L652.936 702.44C652.763 702.19 652.691 701.884 652.734 701.583C652.777 701.282 652.931 701.008 653.166 700.816C653.402 700.623 653.701 700.527 654.005 700.545C654.308 700.563 654.593 700.695 654.804 700.914C670.004 716.656 700.773 750.022 721.504 782.525C722.72 783.88 724.208 784.964 725.871 785.706C727.534 786.448 729.334 786.831 731.155 786.831L757.359 786.831C758.037 786.831 758.687 786.562 759.166 786.082C759.646 785.603 759.915 784.953 759.915 784.275L759.915 763.921C759.915 759.145 758.847 754.429 756.791 750.119C754.734 745.808 751.74 742.012 748.028 739.007Z" fill="white"/>
<path d="M264.377 449.574L287.495 423.788C288.717 422.426 289.5 420.728 289.743 418.914C289.985 417.1 289.676 415.256 288.855 413.621C284.858 405.936 282.902 397.353 283.173 388.695C283.302 385.479 284.337 382.366 286.157 379.712C287.978 377.059 290.511 374.973 293.464 373.695C296.417 372.417 299.672 371.999 302.852 372.488C306.033 372.978 309.011 374.355 311.443 376.462C318.756 382.81 327.561 392.992 337.243 409.311C338.282 410.902 339.79 412.131 341.558 412.827C343.326 413.523 345.267 413.652 347.112 413.196C361.657 409.056 372.842 401.123 380.063 388.71C381.16 386.835 381.511 384.617 381.048 382.495C380.585 380.374 379.341 378.504 377.563 377.257C358.007 363.682 348.398 350.702 343.75 340.499C342.53 337.791 342.035 334.811 342.315 331.854C342.596 328.897 343.641 326.063 345.348 323.632C347.055 321.201 349.366 319.257 352.052 317.989C354.739 316.722 357.709 316.176 360.671 316.405C368.215 316.97 375.534 319.236 382.078 323.032C383.73 323.98 385.637 324.388 387.532 324.198C389.427 324.008 391.215 323.23 392.646 321.974L417.746 299.863C418.116 299.535 418.389 299.113 418.536 298.641C418.682 298.169 418.696 297.666 418.576 297.186C418.457 296.707 418.208 296.27 417.857 295.922C417.505 295.574 417.066 295.33 416.585 295.215C321.843 273.17 203.95 214.882 177.059 201.232C176.666 201.03 176.219 200.957 175.782 201.024C175.345 201.091 174.941 201.294 174.626 201.604C174.311 201.915 174.102 202.316 174.029 202.752C173.956 203.188 174.022 203.636 174.218 204.032C186.644 229.704 237.292 338.352 259.724 448.308C259.824 448.798 260.058 449.25 260.4 449.615C260.742 449.98 261.178 450.242 261.661 450.374C262.143 450.505 262.653 450.5 263.132 450.358C263.612 450.217 264.043 449.946 264.377 449.574Z" fill="white"/>
</g>
<defs>
<clipPath id="clip0_727_1946">
<rect width="600" height="600" fill="white"/>
</clipPath>
</defs>
</svg>
