<svg width="600" height="600" viewBox="0 0 600 600" fill="none" xmlns="http://www.w3.org/2000/svg">
<path d="M164.63 554.391C104.451 555.303 66.63 572.524 54.942 578.71C54.4494 578.972 54.0185 579.337 53.6785 579.779C53.3385 580.221 53.0971 580.732 52.9706 581.275C52.8442 581.818 52.8355 582.383 52.9453 582.93C53.0551 583.477 53.2807 583.994 53.607 584.447L59.596 592.783C60.1459 593.551 60.9554 594.094 61.8747 594.311C62.794 594.528 63.7608 594.404 64.596 593.963C81.903 584.827 172.988 542.472 290.153 593.363C292.33 594.313 294.682 594.792 297.057 594.77C299.432 594.748 301.775 594.225 303.934 593.235C327.405 582.442 411.392 551.572 530.121 595.605C530.839 595.872 531.627 595.881 532.351 595.631C533.075 595.381 533.689 594.886 534.088 594.233L541.312 582.295C541.555 581.891 541.709 581.44 541.763 580.972C541.817 580.504 541.77 580.029 541.625 579.581C541.481 579.132 541.242 578.72 540.924 578.372C540.607 578.023 540.219 577.747 539.786 577.561C502.848 561.593 456.425 554.51 435.972 552.004C435.572 551.954 435.203 551.762 434.934 551.463C434.664 551.163 434.511 550.777 434.503 550.374C434.495 549.971 434.633 549.578 434.891 549.269C435.148 548.959 435.509 548.752 435.907 548.687C474.094 542.718 513.192 547.77 548.607 563.251C549.287 563.551 550.048 563.614 550.767 563.428C551.487 563.241 552.122 562.818 552.571 562.226L561.942 549.764C562.224 549.388 562.421 548.956 562.523 548.497C562.624 548.039 562.626 547.564 562.529 547.104C562.432 546.644 562.238 546.211 561.96 545.832C561.681 545.454 561.326 545.139 560.916 544.909C492.232 505.909 389.598 510.901 304.973 560.893C302.618 562.303 299.959 563.125 297.219 563.29C294.479 563.456 291.74 562.959 289.233 561.843C159.451 503.143 56.394 538.59 34.033 547.699C33.4858 547.921 32.9959 548.263 32.5998 548.701C32.2038 549.139 31.9118 549.661 31.7458 550.227C31.5798 550.794 31.5441 551.39 31.6412 551.973C31.7384 552.555 31.966 553.108 32.307 553.59L41.107 566.02C41.6454 566.774 42.4331 567.314 43.3311 567.544C44.229 567.774 45.1793 567.679 46.014 567.276C97.454 542.731 142.771 546.476 164.971 550.795C165.417 550.877 165.816 551.123 166.089 551.485C166.363 551.847 166.49 552.298 166.448 552.749C166.405 553.201 166.195 553.619 165.858 553.923C165.522 554.227 165.083 554.394 164.63 554.391Z" fill="#c0392b"/>
<path d="M292.391 84.0507C292.528 82.9362 292.813 81.845 293.238 80.8055L293.691 79.707C294.693 77.2649 294.887 74.5661 294.246 72.0056C293.604 69.4451 292.159 67.1572 290.123 65.4767L280.242 57.3285C278.544 55.9308 276.407 55.1779 274.208 55.2027C272.009 55.2276 269.889 56.0287 268.224 57.4646C263.013 61.9544 255.818 69.1754 251.867 77.6208C250.23 81.1345 249.477 84.995 249.673 88.8664C249.868 92.7377 251.007 96.5025 252.991 99.833C254.52 102.409 256.192 104.897 257.999 107.286C261.143 111.533 265.76 114.453 270.945 115.474C274.809 116.153 278.74 116.373 282.656 116.129H282.802C289.05 115.741 293.555 110.007 292.769 103.794C291.938 97.122 291.615 90.2588 292.391 84.0507Z" fill="#c0392b"/>
<path d="M234.296 101.758C232.783 100.456 231.006 99.4981 229.087 98.9494C227.168 98.4008 225.153 98.2747 223.18 98.5798C221.208 98.8849 219.325 99.6139 217.662 100.717C215.998 101.82 214.594 103.27 213.545 104.968C213.273 105.416 213.142 105.693 213.142 105.693C209.982 111.617 207.932 118.069 207.095 124.731C206.459 129.889 207.184 135.124 209.198 139.915C211.212 144.706 214.444 148.887 218.574 152.043C219.303 152.604 220.049 153.153 220.811 153.69C224.066 155.996 228.064 157.005 232.023 156.521C235.983 156.036 239.619 154.093 242.222 151.07L242.358 150.909C247.115 145.23 251.061 141.007 253.525 136.648C255.114 133.771 255.76 130.467 255.372 127.202C254.984 123.938 253.582 120.878 251.363 118.452C246.036 112.529 240.336 106.952 234.296 101.758Z" fill="#c0392b"/>
<path d="M336.599 60.6088C332.336 58.4016 326.102 56.8194 321.033 62.191C320.233 63.0594 319.539 64.0203 318.967 65.0532C316.825 68.8174 309.816 81.284 306.611 89.0946C306.611 89.0946 299.783 108.596 314.543 112.778C321.461 114.738 325.825 116.91 328.506 118.664C329.837 119.548 331.421 119.971 333.015 119.87C334.61 119.768 336.127 119.146 337.334 118.099C343.648 112.582 353.928 102.146 355.022 91.9618C355.022 91.9618 355.117 79.2382 343.795 66.3432C341.773 64.0009 339.333 62.0562 336.599 60.6088Z" fill="#c0392b"/>
<path d="M347.992 126.076C353.409 120.634 362.011 111.659 368.652 103.174C372.598 98.1346 380.096 97.5451 384.616 102.07C390.431 107.885 396.332 118.296 395.304 136.336C395.166 138.814 394.329 141.202 392.89 143.224C389.443 148.052 381.754 156.326 369.207 157.137C367.062 157.26 364.928 156.76 363.063 155.695C361.197 154.631 359.68 153.049 358.695 151.141C356.498 146.898 352.905 140.921 347.972 135.802C346.697 134.503 345.985 132.755 345.989 130.935C345.993 129.115 346.712 127.37 347.992 126.076Z" fill="#c0392b"/>
<path d="M209.927 95.3935C210.904 94.2446 212.033 93.01 213.308 91.7654C214.221 90.8741 215.316 90.1903 216.518 89.7607C217.72 89.3311 219 89.1658 220.272 89.2761C220.725 89.3164 221.209 89.3668 221.708 89.4374C222.187 89.4992 222.673 89.4357 223.12 89.2531C223.567 89.0704 223.958 88.7749 224.256 88.3955C224.554 88.016 224.749 87.5657 224.821 87.0885C224.893 86.6112 224.839 86.1236 224.666 85.6732C221.847 78.2782 220.493 70.4054 220.68 62.4935C220.711 61.8441 220.531 61.2021 220.168 60.6627C219.805 60.1233 219.278 59.7154 218.665 59.4993C218.052 59.2832 217.385 59.2705 216.764 59.4631C216.143 59.6557 215.601 60.0434 215.218 60.5686C213.245 63.1894 211.473 65.9553 209.917 68.8427C207.77 72.8261 206.304 77.1401 205.578 81.6066C204.913 85.5139 204.576 89.4699 204.57 93.4333C204.562 94.0592 204.749 94.6721 205.105 95.1874C205.46 95.7027 205.967 96.095 206.554 96.3101C207.142 96.5252 207.782 96.5526 208.386 96.3884C208.99 96.2242 209.529 95.8766 209.927 95.3935Z" fill="#c0392b"/>
<path d="M262.252 45.275C262.807 38.2203 265.246 24.3881 275.601 15.5042C276.093 15.0882 276.692 14.8177 277.329 14.723C277.966 14.6282 278.618 14.7131 279.21 14.968C279.802 15.2228 280.311 15.6377 280.68 16.1659C281.049 16.6941 281.264 17.3148 281.3 17.9582C281.643 24.0807 282.681 33.7456 285.739 42.574C285.903 43.0444 285.931 43.5514 285.82 44.0368C285.708 44.5223 285.462 44.9664 285.109 45.318C284.756 45.6697 284.312 45.9146 283.826 46.0247C283.34 46.1347 282.833 46.1054 282.363 45.9401L279.415 44.8819C278.137 44.42 276.78 44.2172 275.422 44.2856C274.065 44.3539 272.735 44.692 271.509 45.28L266.062 47.8852C265.64 48.0908 265.171 48.1809 264.703 48.1464C264.235 48.1119 263.785 47.9539 263.398 47.6887C263.01 47.4234 262.7 47.0603 262.499 46.6363C262.298 46.2123 262.213 45.7426 262.252 45.275Z" fill="#c0392b"/>
<path d="M342.661 45.2801C341.401 37.8273 337.491 23.3652 325.639 14.9147C325.077 14.5182 324.415 14.2866 323.728 14.246C323.042 14.2053 322.357 14.3572 321.752 14.6846C321.147 15.012 320.646 15.5018 320.304 16.0989C319.962 16.696 319.794 17.3766 319.819 18.0641C320.03 24.6149 319.849 34.9752 317.44 44.6451C317.31 45.163 317.329 45.7071 317.495 46.2147C317.661 46.7222 317.967 47.1723 318.378 47.5129C318.79 47.8536 319.289 48.0707 319.818 48.1393C320.348 48.2079 320.886 48.125 321.371 47.9004L324.394 46.4945C325.71 45.8831 327.134 45.5388 328.584 45.4818C330.033 45.4247 331.48 45.6558 332.84 46.1619L338.886 48.4144C339.353 48.587 339.856 48.6337 340.347 48.55C340.837 48.4662 341.296 48.2548 341.679 47.9372C342.061 47.6195 342.353 47.2066 342.526 46.7402C342.698 46.2738 342.745 45.7702 342.661 45.2801Z" fill="#c0392b"/>
<path d="M390.648 89.9564C389.554 83.4863 386.163 70.9441 375.883 63.6122C375.395 63.2734 374.823 63.0766 374.229 63.0439C373.636 63.0112 373.045 63.1438 372.523 63.4269C372.001 63.71 371.567 64.1326 371.271 64.6475C370.974 65.1624 370.827 65.7495 370.844 66.3434C371.031 72.0174 370.874 81.0171 368.783 89.4072C368.669 89.8567 368.684 90.3294 368.828 90.7704C368.972 91.2113 369.238 91.6024 369.596 91.898C369.953 92.1936 370.387 92.3817 370.847 92.4403C371.307 92.4989 371.775 92.4256 372.195 92.229L374.82 91.0096C375.96 90.4803 377.194 90.1823 378.45 90.133C379.705 90.0837 380.959 90.284 382.137 90.7224L387.377 92.6775C387.782 92.8258 388.218 92.8651 388.643 92.7916C389.067 92.7182 389.465 92.5345 389.796 92.2589C390.127 91.9833 390.38 91.6256 390.53 91.2215C390.679 90.8174 390.72 90.3812 390.648 89.9564Z" fill="#c0392b"/>
<path d="M379.295 199.077C379.012 195.852 377.92 192.75 376.118 190.059C374.317 187.369 371.865 185.177 368.99 183.688C363.207 180.677 357.908 176.818 353.268 172.239C348.442 167.38 344.517 161.702 341.678 155.469C337.647 146.802 325.765 128.082 298.65 128.082C271.534 128.082 259.657 146.802 255.616 155.469C252.777 161.702 248.853 167.38 244.026 172.239C239.387 176.819 234.087 180.679 228.304 183.688C225.43 185.178 222.978 187.37 221.177 190.06C219.376 192.75 218.283 195.852 217.999 199.077C216.8 212.824 218.629 223.839 221.92 232.587C228.758 250.763 250.824 257.394 266.903 246.495C282.983 235.595 298.65 234.31 298.65 234.31C298.65 234.31 314.321 235.61 330.396 246.495C346.47 257.379 368.541 250.763 375.379 232.587C378.665 223.839 380.494 212.824 379.295 199.077Z" fill="#c0392b"/>
<path d="M28.889 521.146C56.736 512.619 161.55 486.372 276.117 532.423C276.827 532.709 277.596 532.819 278.357 532.741C279.119 532.664 279.85 532.402 280.487 531.979C281.125 531.555 281.65 530.983 282.016 530.311C282.383 529.639 282.581 528.888 282.592 528.123L285.592 319.479C285.63 317.108 285.012 314.772 283.807 312.729C282.602 310.686 280.857 309.015 278.763 307.901C164.489 247.445 84.384 274.04 62.83 283.432C61.0674 284.198 59.5286 285.399 58.3584 286.923C57.1882 288.448 56.4252 290.245 56.141 292.145L22.822 515.917C22.7031 516.708 22.7866 517.516 23.0647 518.266C23.3428 519.016 23.8065 519.684 24.4124 520.206C25.0184 520.728 25.7468 521.088 26.5296 521.253C27.3124 521.417 28.1242 521.38 28.889 521.146ZM163.368 325.5L164.454 316.551C164.592 315.652 165.042 314.83 165.724 314.229C166.407 313.629 167.279 313.287 168.188 313.264C197.665 312.576 229.046 327.583 236.788 331.543C237.32 331.815 237.757 332.242 238.042 332.767C238.328 333.292 238.448 333.891 238.388 334.485L237.495 345.229C237.449 345.7 237.29 346.154 237.033 346.552C236.775 346.949 236.426 347.279 236.015 347.514C235.604 347.749 235.142 347.882 234.669 347.902C234.196 347.922 233.725 347.829 233.295 347.629C223.013 342.861 193.486 330.298 167.095 329.957C166.545 329.945 166.004 329.816 165.507 329.577C165.011 329.339 164.572 328.997 164.219 328.575C163.866 328.153 163.607 327.66 163.461 327.13C163.314 326.599 163.282 326.044 163.368 325.5ZM117.693 311.059C131.929 311.72 130.011 330.219 117.761 330.201C101.437 330.857 104.838 310.456 117.693 311.054V311.059ZM92.537 386.34L93.6 375.021C93.7602 373.914 94.2684 372.887 95.0512 372.088C95.834 371.289 96.8506 370.761 97.954 370.578C114.271 367.87 180.097 359.649 237.604 391.209C238.511 391.702 239.269 392.429 239.798 393.315C240.327 394.202 240.608 395.214 240.612 396.246V409.735C240.612 410.178 240.493 410.613 240.268 410.995C240.042 411.376 239.719 411.691 239.331 411.905C238.943 412.12 238.505 412.226 238.062 412.214C237.619 412.201 237.187 412.071 236.812 411.835C184.578 379.215 113.712 387.193 96.046 389.841C95.5694 389.913 95.0827 389.872 94.6248 389.721C94.167 389.571 93.7508 389.315 93.4096 388.974C93.0684 388.634 92.8118 388.218 92.6602 387.761C92.5087 387.303 92.4665 386.817 92.537 386.34ZM85.206 449.24L86.265 437.921C86.4252 436.814 86.9334 435.787 87.7162 434.988C88.499 434.189 89.5156 433.661 90.619 433.478C106.936 430.77 177.895 422.549 235.402 454.109C236.309 454.602 237.067 455.329 237.596 456.215C238.126 457.102 238.407 458.114 238.41 459.146V472.635C238.41 473.078 238.291 473.513 238.066 473.895C237.84 474.276 237.517 474.591 237.129 474.805C236.741 475.02 236.303 475.126 235.86 475.114C235.417 475.101 234.985 474.971 234.61 474.735C182.376 442.115 106.375 450.093 88.71 452.742C88.2336 452.813 87.7474 452.771 87.2901 452.62C86.8328 452.469 86.4173 452.213 86.0767 451.872C85.7361 451.532 85.48 451.116 85.3288 450.659C85.1776 450.202 85.1356 449.716 85.206 449.24Z" fill="#c0392b"/>
<path d="M310.714 319.556L310.053 526.656C310.049 527.484 310.264 528.298 310.675 529.017C311.087 529.736 311.681 530.333 312.397 530.749C313.113 531.165 313.926 531.384 314.754 531.386C315.582 531.387 316.396 531.17 317.113 530.756C382.355 492.88 479.506 482.387 570.629 522.112C571.414 522.449 572.275 522.567 573.122 522.454C573.968 522.341 574.768 522.001 575.437 521.471C576.106 520.94 576.62 520.238 576.922 519.44C577.225 518.641 577.306 517.776 577.157 516.935L540.017 305.605C539.696 303.771 538.927 302.045 537.779 300.579C536.63 299.114 535.138 297.955 533.434 297.205C428.31 251.151 340.862 294.494 317.108 308.453C315.169 309.588 313.56 311.21 312.439 313.157C311.318 315.104 310.723 317.309 310.714 319.556ZM515.942 408.978L516.749 420.421C516.803 420.9 516.744 421.384 516.577 421.836C516.41 422.288 516.14 422.694 515.788 423.023C515.435 423.351 515.011 423.593 514.549 423.728C514.086 423.863 513.599 423.888 513.125 423.801C495.563 420.542 419.884 409.94 366.553 440.733C366.17 440.955 365.734 441.071 365.29 441.068C364.847 441.065 364.413 440.943 364.032 440.715C363.652 440.488 363.34 440.162 363.128 439.773C362.916 439.383 362.813 438.944 362.828 438.501L363.154 424.926C363.193 423.894 363.509 422.892 364.068 422.025C364.628 421.157 365.41 420.456 366.334 419.995C424.898 390.444 495.534 401.116 511.745 404.387C512.841 404.607 513.839 405.171 514.594 405.997C515.348 406.822 515.82 407.866 515.942 408.978ZM357.5 367.865C357.543 366.833 357.863 365.832 358.426 364.967C358.989 364.101 359.774 363.403 360.7 362.946C419.373 333.611 489.966 344.546 506.168 347.873C507.263 348.098 508.259 348.666 509.01 349.494C509.762 350.322 510.23 351.368 510.348 352.48L511.128 363.927C511.18 364.406 511.12 364.89 510.951 365.341C510.783 365.792 510.511 366.198 510.157 366.525C509.804 366.852 509.379 367.092 508.916 367.225C508.453 367.358 507.965 367.381 507.492 367.292C489.942 363.97 414.303 353.092 360.858 383.683C360.474 383.904 360.038 384.019 359.594 384.014C359.151 384.01 358.717 383.887 358.337 383.658C357.958 383.428 357.647 383.102 357.436 382.712C357.226 382.321 357.124 381.882 357.141 381.439L357.5 367.865Z" fill="#c0392b"/>
</svg>
