<?xml version="1.0" ?><svg fill="#c0392b" data-name="Layer 4" id="Layer_4" viewBox="0 0 600 600" xmlns="http://www.w3.org/2000/svg"><title/><path d="M595.436,18.363C519.956,32.5,468.768,75.369,468.768,75.369c-144,130.477-416.841,377.686-461.13,417.814a18.7,18.7,0,0,0-6.144,13.859v53.091a3.135,3.135,0,0,0,5.29,2.276L495.7,99.558a287.746,287.746,0,0,1,32.478-26.536l7.2-5.058a1.462,1.462,0,0,1,1.925,2.177l-13.8,15.274q-5.207,5.761-10.717,11.236L29.909,576.278a3.135,3.135,0,0,0,2.209,5.359H68.1A18.709,18.709,0,0,0,81.9,575.568L192.208,460.7a1.466,1.466,0,0,1,2.323,1.756c-26.2,44.138-77.377,99.083-92.361,114.8a2.593,2.593,0,0,0,1.881,4.381h3.711a11.694,11.694,0,0,0,9.161-4.426C243.349,434.323,382.728,282.485,531.234,124.34,572.011,77.01,595.436,18.363,595.436,18.363Z" style="fill:#c0392b"/><path d="M352.59,355.142,304.3,408.964a1.763,1.763,0,0,0,2.066,2.772l19.31-9.128a11.514,11.514,0,0,1,13.376,2.593L496.6,575.568a18.709,18.709,0,0,0,13.793,6.069h73.128a2.605,2.605,0,0,0,1.836-4.453l-223.81-222.3A6.184,6.184,0,0,0,352.59,355.142Z" style="fill:#c0392b"/><path d="M307.794,191.559a2.1,2.1,0,0,0-2.285-3.472L291.2,194.976a14.648,14.648,0,0,1-16.188-2.345c-47.567-43.1-92.686-83.979-129.418-117.262,0,0-51.188-42.87-126.668-57.006,0,0,23.425,58.647,64.2,105.977L217.017,270.458l27.191-23.633a5.615,5.615,0,0,0,.274-8.222L101.566,96.651q-5.508-5.472-10.717-11.236l-13.8-15.274a1.462,1.462,0,0,1,1.925-2.177l7.2,5.058a287.638,287.638,0,0,1,32.478,26.536L256.4,229.959a5.241,5.241,0,0,0,7.042.149Z" style="fill:#c0392b"/><path d="M333.5,170.444c3.838.594,12.459-7.474,7.783-10.412-2.634-.763-6.247,1.376-8.585,3.621C330.432,165.768,329.875,170.528,333.5,170.444Z" style="fill:#c0392b"/><path d="M592.353,484.994c-17.769-16.1-55.282-54.916-123.521-116.745l-22.2,12.208a125.918,125.918,0,0,1,8.542-18.506,5.748,5.748,0,0,0-1.127-7.1l-51.212-46.4a6.2,6.2,0,0,0-8.769.451l-24.927,27.785L594.088,554.95a2.6,2.6,0,0,0,4.418-1.869V498.86A18.706,18.706,0,0,0,592.353,484.994Z" style="fill:#c0392b"/></svg>