<svg width="600" height="600" viewBox="0 0 600 600" fill="none" xmlns="http://www.w3.org/2000/svg">
<path fill-rule="evenodd" clip-rule="evenodd" d="M449.365 594.859C450.879 596.482 452.71 597.775 454.744 598.66C456.779 599.544 458.974 600 461.192 600H463.546C463.989 600 464.422 599.87 464.792 599.624C465.161 599.379 465.449 599.031 465.621 598.622C465.793 598.214 465.841 597.763 465.758 597.328C465.675 596.892 465.466 596.491 465.156 596.174C451.923 582.641 408.535 537.425 411.622 529.417C413.44 524.701 464.833 573.357 484.774 592.48C489.807 597.307 496.51 600.002 503.483 600H572.914C573.364 600 573.804 599.866 574.176 599.613C574.549 599.361 574.837 599.003 575.004 598.586C575.172 598.168 575.21 597.709 575.114 597.27C575.019 596.83 574.794 596.429 574.468 596.118C555.805 578.319 455.585 479.529 365 390L314 450C369.536 510.695 434.846 579.303 449.365 594.859ZM62.4936 72.3826C58.1571 76.1796 101.927 124.367 165.611 190.21L117.231 225.591C91.7124 195.017 72.2598 170.162 63.0082 155.272C38.9595 113.52 24.5806 67.5298 13.0911 20.8931C12.9497 20.3187 12.9733 19.7161 13.159 19.1545C13.3448 18.593 13.6852 18.0953 14.1411 17.7188C14.597 17.3422 15.1499 17.1021 15.7361 17.0261C16.3224 16.95 16.9182 17.0411 17.4549 17.2889C30.7287 23.4455 44.1748 29.1118 57.5942 34.7669C86.9186 47.1246 116.116 59.4287 143.112 76.6789C173.108 97.1872 204.067 125.315 231.9 151.66L188.255 178.344C118.583 113.66 66.9344 68.4943 62.4936 72.3826ZM395.5 370C488.288 459.791 578.075 553.521 596.173 571.336C596.49 571.647 596.891 571.857 597.327 571.94C597.762 572.024 598.213 571.977 598.622 571.805C599.03 571.633 599.379 571.344 599.625 570.974C599.87 570.604 600 570.17 600 569.727V505.847C600 503.37 599.496 500.919 598.519 498.643C597.542 496.366 596.113 494.313 594.317 492.608C574.922 474.184 508.639 411.252 438.469 344.977L395.5 370Z" fill="white"/>
<path d="M268 399.261L321.5 347C315.426 340.99 309.429 335.054 303.5 329.179L245.859 374.5C253.175 382.72 260.559 390.977 268 399.261Z" fill="white"/>
<path d="M111.734 592.289C158.147 542.565 256.911 452.438 272.985 437.82C273.613 437.249 274.42 436.915 275.268 436.875C276.116 436.835 276.951 437.092 277.63 437.601C278.027 437.899 278.359 438.275 278.606 438.706C278.852 439.137 279.009 439.614 279.065 440.107C279.121 440.601 279.076 441.1 278.932 441.576C278.789 442.051 278.55 442.492 278.23 442.872C266.959 456.265 203.792 538.446 174.324 576.857C169.592 583.026 163.498 588.018 156.518 591.442C149.537 594.866 141.86 596.629 134.085 596.593C126.735 596.559 119.15 596.493 113.445 596.36C112.978 596.349 112.525 596.204 112.139 595.941C111.753 595.678 111.451 595.309 111.27 594.879C111.089 594.449 111.037 593.975 111.119 593.515C111.202 593.056 111.415 592.63 111.734 592.289Z" fill="white"/>
<path d="M290.066 415.351C288.073 417.857 288.228 422.806 291.918 422.167C295.929 422.189 303.511 412.632 298.287 410.343C295.479 409.965 292.113 412.7 290.066 415.351Z" fill="white"/>
<path d="M417.828 214.705C419.834 210.908 421.513 206.947 422.849 202.866C422.936 202.545 422.931 202.207 422.837 201.889C422.743 201.571 422.562 201.285 422.315 201.063C422.067 200.842 421.763 200.693 421.437 200.634C421.11 200.575 420.773 200.608 420.464 200.729C397.09 210.002 363.685 235.247 363.685 235.247C357.753 237.336 363.226 247.365 365.463 249.633C381.206 262.785 397.563 275.911 413.314 289.054C422.738 296.585 451.946 288.123 466.526 284.654C467.007 284.54 467.506 284.525 467.994 284.608C468.481 284.691 468.947 284.871 469.364 285.138C469.78 285.404 470.139 285.752 470.418 286.16C470.697 286.568 470.892 287.028 470.99 287.513C472.549 294.816 472.614 302.36 471.182 309.689C469.804 316.016 463.031 317.848 457.226 318.519C437.707 320.776 418.871 325.864 400.12 331.419C393.16 333.479 375.664 337.392 358.783 350.819C346.012 360.976 330.248 380.033 317.783 391.738C317.254 392.234 316.557 392.511 315.832 392.514C315.107 392.516 314.409 392.243 313.877 391.75C313.335 391.25 313.006 390.56 312.96 389.823C312.913 389.087 313.152 388.361 313.626 387.796C313.626 387.796 379.934 312.057 374.439 308.089C371.012 305.613 344.221 329.455 344.221 329.455C342.157 331.314 340.549 331.445 338.102 330.249C307.926 316.23 281.718 304.407 251.227 292.649C250.791 292.481 250.312 292.46 249.864 292.59C249.415 292.72 249.021 292.993 248.742 293.367C248.463 293.742 248.314 294.198 248.319 294.665C248.323 295.132 248.48 295.585 248.766 295.954L260.143 310.611C263.803 313.793 263.598 317.157 259.743 319.974C150.88 399.574 26.441 566.955 7.28097 593.153C7.10766 593.389 6.86379 593.565 6.5845 593.653C6.30522 593.742 6.00493 593.74 5.72691 593.647C5.44889 593.555 5.20749 593.376 5.03749 593.137C4.86749 592.899 4.77767 592.612 4.78097 592.319L4.83597 584.528C4.85891 581.25 5.74682 578.035 7.40997 575.21C15.616 561.265 43.875 515.662 94.549 457.793C94.8821 457.366 95.0443 456.83 95.0039 456.29C94.9635 455.75 94.7234 455.244 94.3305 454.871C93.9375 454.498 93.4198 454.285 92.8783 454.273C92.3367 454.261 91.8101 454.451 91.401 454.806C91.401 454.806 50.751 481.956 11.038 529.6C10.5667 530.168 9.93176 530.576 9.21977 530.769C8.50778 530.962 7.75352 530.931 7.06005 530.679C6.36657 530.428 5.76772 529.968 5.3453 529.363C4.92288 528.758 4.69751 528.038 4.69997 527.3L5.04697 368.126C5.06074 360.566 6.96107 353.129 10.5757 346.488C14.1903 339.848 19.405 334.215 25.747 330.1C90.857 287.851 158.717 241.728 224.834 201.428C236.182 194.488 248.186 188.684 260.673 184.1C311.029 165.7 362.253 149.443 413.035 132.232C419.414 130.11 422.724 131.744 426.27 137.249C448.23 172.517 474.26 205.524 506.788 231.649C511.043 235.305 511.348 236.962 507.896 241.565C506.479 243.454 503.209 246.994 500.249 250.106C496.494 254.087 491.856 257.129 486.709 258.987C468.135 265.606 448.982 270.192 429.669 274.131C426.874 274.676 423.992 274.588 421.235 273.873C418.478 273.158 415.916 271.835 413.738 270C403.564 261.768 393.638 253.225 383.724 244.68C381.089 242.41 381.344 240.366 383.801 237.951C400.917 221.125 433.308 243.935 437.115 239.472C440.459 235.553 427.549 226.989 419.197 220.643C418.31 219.97 417.688 219.007 417.438 217.922C417.188 216.837 417.326 215.699 417.828 214.705Z" fill="white"/>
</svg>
