<?xml version="1.0" ?><svg fill="#c0392b" id="icon" viewBox="0 0 512 512" xmlns="http://www.w3.org/2000/svg"><title/><path d="M161.13,33.72c2.72,9.27,8.9,23,22.6,30.93a1.86,1.86,0,0,1,.05,3.16,41,41,0,0,0-20.06,29.63,1.59,1.59,0,0,1-3.12.29c-3.3-9.26-10.28-23.18-23.36-28.39a1.86,1.86,0,0,1-.19-3.32c6.35-3.24,17.28-11.67,20.94-32.14A1.59,1.59,0,0,1,161.13,33.72Z"/><path d="M354.81,41.88c2.25,9.39,7.73,23.37,21,32a1.86,1.86,0,0,1-.11,3.15,41.09,41.09,0,0,0-21.53,28.6,1.59,1.59,0,0,1-3.12.13c-2.84-9.41-9.11-23.67-21.91-29.53a1.85,1.85,0,0,1,0-3.32C335.64,70,347,62.14,351.66,41.88A1.59,1.59,0,0,1,354.81,41.88Z"/><path d="M235.7,356.5l12.79,19.43a2.63,2.63,0,0,0,4.72-.72l47.5-165.27,10.84-41.46A2.3,2.3,0,0,0,308,166l-30.2,21.59a9.38,9.38,0,0,0-3.64,5.34C268.85,214,240,328.64,234.61,350.06A8.09,8.09,0,0,0,235.7,356.5Z"/><path d="M312.52,133.87,276.73,67a2.47,2.47,0,0,0-4.65,1.26L275.24,157a4.23,4.23,0,0,0,6.68,3.29l29.33-21A4.23,4.23,0,0,0,312.52,133.87Z"/><path d="M184.25,278.35,215,325.08a3.19,3.19,0,0,0,5.75-1l32.6-129.81a6.7,6.7,0,0,0-3.54-7.64L185,154.74a3.66,3.66,0,0,0-5.28,3.37l2.71,114.44A11.05,11.05,0,0,0,184.25,278.35Z"/><path d="M110.07,479.54h35.75a3.28,3.28,0,0,0,3.13-4.28l-16.84-52.51a3.28,3.28,0,0,0-6.21-.11L107,475.15A3.28,3.28,0,0,0,110.07,479.54Z"/><path d="M453.7,249.48l18.72-61.36a17.66,17.66,0,0,0-.68-12.15l-42.5-98.28a6.5,6.5,0,0,0-11.6-.65l-55.07,96.08a7.92,7.92,0,0,0,1.79,10l81.83,68.56A4.7,4.7,0,0,0,453.7,249.48Z"/><path d="M176.11,302.08a4,4,0,0,0-7.1.84l-27.2,76.4a12.91,12.91,0,0,0-.14,8.26L170,475.83a5.35,5.35,0,0,0,5.1,3.71h44.12a5.36,5.36,0,0,0,5.14-3.87l18.89-65.73a9.31,9.31,0,0,0-1.17-7.7Z"/><path d="M88,189.17l50-36.57a8.19,8.19,0,0,0,2.1-11l-42.3-67a6.5,6.5,0,0,0-11,0L38.1,153.27a7.8,7.8,0,0,0,2.26,10.56L78,189.34A8.68,8.68,0,0,0,88,189.17Z"/><path d="M86.43,473.65l59.84-166.17a37.93,37.93,0,0,0,2.25-12.07L151,181.07a6.73,6.73,0,0,0-10.69-5.58L97.24,207a14.66,14.66,0,0,0-5.82,9.48L57.62,424.8A80.91,80.91,0,0,0,57,445.94l2.58,25.18a9.36,9.36,0,0,0,9.32,8.42h9.15A8.89,8.89,0,0,0,86.43,473.65Z"/><path d="M30.42,187.26,45.7,367.72a2.48,2.48,0,0,0,4.92.13L71.47,216.54a11.33,11.33,0,0,0-4.86-10.92l-31.3-21.23A3.14,3.14,0,0,0,30.42,187.26Z"/><path d="M414.36,479.54h57.86a9.36,9.36,0,0,0,9.37-9.37V247.11a3.13,3.13,0,0,0-6.13-.91L407.21,469.88A7.47,7.47,0,0,0,414.36,479.54Z"/><path d="M365,209.6a3.38,3.38,0,0,0-5.54,2.86L372.6,385.1a30,30,0,0,0,.42,3.26l11.77,65.1a3.38,3.38,0,0,0,6.56.39l51.72-169.53a11.73,11.73,0,0,0-3.69-12.42Z"/><path d="M340.8,329.45l-31-55.58a3.84,3.84,0,0,0-7.06.81l-57.48,200a3.85,3.85,0,0,0,3.7,4.91H364.72a3.85,3.85,0,0,0,3.79-4.53L343.62,337.33A25.55,25.55,0,0,0,340.8,329.45Z"/><path d="M255.49,160.37l-4.22-118.8a2.47,2.47,0,0,0-4.54-1.27c-12.36,18.78-47.93,73.7-57.82,89a4.22,4.22,0,0,0,1.68,6.09l58.81,29A4.23,4.23,0,0,0,255.49,160.37Z"/></svg>