<?xml version="1.0" ?><svg fill="#c0392b" data-name="Layer 4" id="Layer_4" viewBox="0 0 600 600" xmlns="http://www.w3.org/2000/svg"><title/><path d="M102.774,84.334c-6.04-.307-11.748,11.38-5.119,15.2C106.087,104.041,114.048,84.293,102.774,84.334Z" style="fill:#c0392b"/><path d="M306.992,331.2c-1.2,1.741,1.049,2.582,2.319.893C361.029,263.323,580.4,222.645,576.222,7.693a2.727,2.727,0,0,0-2.615-2.859H543.658A2.75,2.75,0,0,0,541,7.841C548.251,197.091,382.469,221.539,306.992,331.2Z" style="fill:#c0392b"/><path d="M594.031,300.349c-164.687.706-232.172,240.824-315.338,179.727-9.781-7.186-15.837-18.359-18.1-30.283-17.582-92.546,70.24-168.124,135.352-221.829,55.351-47.013,139.038-141.37,116.769-221.19a2.677,2.677,0,0,0-2.582-1.94H480.3a2.674,2.674,0,0,0-2.545,3.5c25.324,77.48-29,151.459-89.173,194.176a2.849,2.849,0,0,1-3.754-4.242C430.663,148.15,472.605,75.605,441.139,6.4A2.685,2.685,0,0,0,438.7,4.834H426.3a2.7,2.7,0,0,0-2.541,3.519C477.046,189.79,208,261.194,203.464,422.908c-8.128,53.433,10.059,120.356,66.695,137.019,129.938,44.907,211.6-77.348,324.4-88.987a4.49,4.49,0,0,0,4.012-4.475V440.8a4.52,4.52,0,0,0-4.463-4.512C475.087,434.675,409.3,561.266,316.183,543.207a2.208,2.208,0,0,1,.053-4.342C443.269,516.39,446.029,423.181,594.614,405.488a4.5,4.5,0,0,0,3.958-4.471V345.468a4.52,4.52,0,0,0-4.6-4.512c-73.749,1.169-123.233,47.383-173.794,83.536a2.768,2.768,0,0,1-3.793-3.953c39.845-50.426,102.8-105.971,177.589-104.276a4.49,4.49,0,0,0,4.594-4.5v-6.905A4.518,4.518,0,0,0,594.031,300.349Z" style="fill:#c0392b"/><path d="M332.328,9.314a2.591,2.591,0,0,0-1.782-4.48h-31.8a21.831,21.831,0,0,0-15.482,6.438C165.193,130.1,119.152,282.206,111.7,327.964a2.623,2.623,0,0,0,4.987,1.478c10.943-24.616,35.127-77.205,41.079-75.079,11.368,4.06-55.069,251.979-70.37,269.107-7.84,8.776-22.361,5.123-25.355-6.252-6.405-24.334-11.439-76.737,17.92-169.29C116.66,232.24,177.036,102.557,259.121,9.155a2.6,2.6,0,0,0-1.946-4.321h-11.91A21.789,21.789,0,0,0,229.276,11.8C143.12,104.837,84.175,233.479,56.827,317.108c-1.6,4.908-8.9,3.44-8.495-1.707a581.4,581.4,0,0,1,33.53-151.818c2.189-5.939,11.1-22.712,3.234-26.117-6.24-2.573-9.661,7.568-11.974,12.287C21.134,248.008-2.824,354.393,2.046,464.263c2.481,55.985,13.341,90.15,23.715,110.4A37.666,37.666,0,0,0,77.245,590.6c60.693-32.884,70.146-117.447,81.684-181.663C178.85,315.292,213.28,223.3,266.053,143.1c8.691-11.6,17.328-23.23,27.2-33.883a4.9,4.9,0,0,0,1.257-2.286,4.516,4.516,0,0,0-7.323-4.387c-37.637,31.418-81.527,124.483-100.213,171.268-1.269,3.177-6.149,1.28-5.118-1.982C211.159,179.107,261.554,75.911,332.328,9.314ZM174.3,223.217a43.085,43.085,0,0,1-3.761,10.021,3.614,3.614,0,0,1-6.658-2.338c.409-3.248,2.333-7.128,3.716-10.086a3.576,3.576,0,0,1,6.7,2.4Z" style="fill:#c0392b"/></svg>