<?xml version="1.0" ?><svg fill="#c0392b" data-name="Layer 4" id="Layer_4" viewBox="0 0 600 600" xmlns="http://www.w3.org/2000/svg"><title/><path d="M522.871,361.5a102.989,102.989,0,0,1-25.9,17.532,5.945,5.945,0,0,1-7.392-8.865C524.891,322.1,619.916,179.406,596.113,64.749,576.141-31.457,314.187-4.2,8.923,287.146A28.47,28.47,0,0,0,.107,307.732v26.815a3,3,0,0,0,5.265,1.972C75.428,255.664,218.459,107.1,349.5,70.647a2.089,2.089,0,0,1,1.628,3.807C224.663,150.546,88.886,288.319,10.968,388.366A51.544,51.544,0,0,0,.107,420.045V585.108H42.173a7.192,7.192,0,0,0,6.954-5.339c6.1-22.962,19.461-66.894,40.616-104.087a1.767,1.767,0,0,1,3.25,1.291c-7.392,30.72-14.042,67.393-15.12,102.855a5.115,5.115,0,0,0,5.107,5.28h8.251a4.416,4.416,0,0,0,4.425-4.412c-.127-91.668,38.565-221.8,189.595-379.582C374.139,115.384,448.426,70.32,509.958,60.748c30.738-4.781,73.591-6.442,63.579,87.681a2.166,2.166,0,0,1-4.317-.077c-1.112-17.509-4.3-39.325-12.857-52.706-1.484-2.32-1.912-5.17-3.645-7.314a1.755,1.755,0,0,0-3.01,1.641C577.624,186.6,526.629,285.021,488.981,341.5c-2.66,3.992-9.363,4.137-5.436-4.623,6.683-14.909,9.5-31.594,10.672-41.891a1.514,1.514,0,0,0-2.906-.743c-28.062,67.43-71.689,138.429-91.615,169.516a3.5,3.5,0,0,0,5.034,4.694c29.3-21.856,92.127-70.239,120.573-103.675C526.746,363.081,524.479,359.956,522.871,361.5Z" style="fill:#c0392b"/><path d="M188.7,579.051c-11.287-70,2.525-161.965,32.7-217.681a2.055,2.055,0,0,1,3.8,1.5c-9.625,36.652-30.324,134.469-3.916,218.7a5.09,5.09,0,0,0,4.865,3.544h11.8a3.73,3.73,0,0,0,3.441-5.191c-38.762-89.608-9.125-271.984,70.762-376.549a1.52,1.52,0,0,0-2.239-2.037c-44.023,40.127-181.85,181.611-173.9,373.8a10.369,10.369,0,0,0,10.34,9.975h37.21A5.214,5.214,0,0,0,188.7,579.051Z" style="fill:#c0392b"/><path d="M503.634,262.109c3.575-1.863,5.826-13.913.108-13.495-2.673.981-4.38,4.992-4.955,8.307C498.193,260.083,500.654,264.408,503.634,262.109Z" style="fill:#c0392b"/></svg>