<?xml version="1.0" ?><svg fill="#c0392b" data-name="Layer 4" id="Layer_4" viewBox="0 0 600 600" xmlns="http://www.w3.org/2000/svg"><title/><path d="M413.646,230.905c-25.837-53.269-87.548-77.64-141.788-72.426a6.083,6.083,0,0,1-5.978-8.781,47.086,47.086,0,0,1,10.848-14.39A1.791,1.791,0,0,0,275.4,132.2c-36.729,2.441-78.783,29-107.483,72.844a3.947,3.947,0,0,0,4.256,5.978c21.544-5.257,58.491-8.185,106.392-.264a1.782,1.782,0,0,0,1.349-3.194,48.087,48.087,0,0,1-13.129-15.123,6.069,6.069,0,0,1,5.436-8.959c37.116.456,105.062,13.733,104.231,105a183.555,183.555,0,0,1-13.589,66.931c-17.719,43.92-63.34,130.512-167.86,207.9a3.66,3.66,0,0,0,2.163,6.61h92.676a15.044,15.044,0,0,0,11.638-5.5c47.494-57.923,94.677-143.848,110.257-204.44a1.65,1.65,0,0,1,3.243.558c-3.622,38.66-19.149,122.319-84.749,203.4a3.663,3.663,0,0,0,2.837,5.976h1.137a15.066,15.066,0,0,0,12.483-6.623C418.122,457.607,452.59,314.793,413.646,230.905Z" style="fill:#c0392b"/><path d="M306.372,129.727a3.431,3.431,0,0,0,1.118,3.218c2.5,2.289,7.209,3.149,11.039,3.056,4.26-.044,9.241-4.355,5.486-7.63C321.008,124.625,307.56,124.4,306.372,129.727Z" style="fill:#c0392b"/><path d="M576.554,263.341v0c-20.445-77.376-74.794-140.95-144.426-185.82a2.124,2.124,0,0,1,1.767-3.819c92.786,28,147.053,127.7,160.855,159.023a2.1,2.1,0,0,0,4.028-.853v-23.76a36.3,36.3,0,0,0-4.842-18.093C496.122,20,285.607,30.2,285.607,30.2l.08.022c-86.45.951-157.964,41.029-194.11,65.885a7,7,0,0,1-10.762-4.125A93.368,93.368,0,0,1,77.9,70.586a2.785,2.785,0,0,0-4.912-1.769C23.423,127.89,8.267,190.93,4.192,213.732a3.932,3.932,0,0,0,6.023,3.98c64.1-41.492,141.1-65.312,170.867-73.549a2.212,2.212,0,0,0-.665-4.344c-16.629.679-40.551,5.393-61-.611a7.014,7.014,0,0,1-1.353-12.939c62.75-33.34,165.816-69.4,275.849-4.129C568.1,225.477,436.474,472.1,379.958,564.345a3.661,3.661,0,0,0,3.127,5.573h22.642a12.539,12.539,0,0,0,10.406-5.568c118.246-176.282,89.589-316.737,73.919-364.8a1.849,1.849,0,0,1,3.374-1.469c54.287,98.563,26.069,257.9-36.147,366.367a3.658,3.658,0,0,0,3.182,5.471h62.9a15.937,15.937,0,0,0,13.874-8.117c21.149-37.443,37.611-93.4,45.059-138.762a1.714,1.714,0,0,1,3.4.36c-2.47,61.722-21.368,124.261-27.016,141.732a3.661,3.661,0,0,0,3.488,4.787h6.679A13.925,13.925,0,0,0,582.444,559.1C622.362,382.872,576.554,263.341,576.554,263.341ZM481.3,177.187c-4.3,6.255-14.892-6.043-13.86-11.279.088-4.982,6.593-3.948,9.371-.717C479.763,168.529,482.5,173.612,481.3,177.187Z" style="fill:#c0392b"/><path d="M348.6,315.966c-10.076-34.032-41.018-59.63-77.287-62.974a2.2,2.2,0,0,0-1.525,3.95c17.711,13.566,24.356,39.2,22.407,61.8a1.294,1.294,0,0,0,2.108,1.118c1-.808,2.275-1.781,3.8-2.809a6.627,6.627,0,0,1,10.059,7.285c-20.6,76.3-149.933,166.106-298.562,163.046a8.189,8.189,0,0,0-8.376,8.177v66.954a5.086,5.086,0,0,0,6.8,4.79C34.824,557.725,135.8,515.077,215,459.577a1.769,1.769,0,0,1,2.377,2.576C203.6,478.794,165.878,516.866,78.619,565.067a2.586,2.586,0,0,0,1.245,4.851h3.969a58.894,58.894,0,0,0,31.058-8.854c44.646-27.7,149.715-97.851,199.168-191.95,8.244-15.687,13.233-33.7,13.107-51.39a6.584,6.584,0,0,1,8.939-6.2,45.171,45.171,0,0,1,10.445,5.866A1.315,1.315,0,0,0,348.6,315.966Z" style="fill:#c0392b"/></svg>