<?xml version="1.0" ?><svg fill="#c0392b" data-name="1" id="_1" viewBox="0 0 600 600" xmlns="http://www.w3.org/2000/svg"><title/><path d="M409.506,582.838a83.194,83.194,0,0,0,42.082,11.374l78.59-.169a2.7,2.7,0,0,0,.926-5.229C455.017,561.064,145.879,428.252,80.886,91.279c-1.558-8.079-3.212-15.187-10.617-19.97C30.7,45.754,11.826,14.078,6.044,6.231a1.1,1.1,0,0,0-1.978.69C48.061,406.628,377.061,563.9,409.506,582.838Z" style="fill:#c0392b"/><path d="M587.742,569.286c-192.849-84.47-260.427-190.007-282.017-220.5a13.34,13.34,0,0,0-11.441-5.563c-25.613.957-46.584-8.93-61.889-24.684-24.616-25.34-31.5-63.4-15.595-94.939a74.885,74.885,0,0,1,19.571-24.515,8.139,8.139,0,0,0,2.88-7.238l-.474-2.516a1.38,1.38,0,0,0-2.163-.866c-5.675,4.065-23.452,18.092-30.644,38.883a1.093,1.093,0,0,1-2.117-.469c2.1-25.172,15.223-41.514,30.834-54.721a4.964,4.964,0,0,0,1.769-4.028l-.907-18.746a8.976,8.976,0,0,0-7.541-8.421c-40.577-6.617-108.217-37.079-125.262-53.757a1.91,1.91,0,0,0-3.152,1.779c11.367,63.268,86.073,368.952,492.068,503.073a3.261,3.261,0,0,0,4.279-3.094v-7.14A13.69,13.69,0,0,0,587.742,569.286Z" style="fill:#c0392b"/></svg>