<?xml version="1.0" ?><svg fill="#c0392b" data-name="Layer 4" id="Layer_4" viewBox="0 0 600 600" xmlns="http://www.w3.org/2000/svg"><title/><path d="M230.513,594.625l11.557.075C133.909,454.827,98.306,319.064,88.331,269.888a1.758,1.758,0,0,1,3.373-.952c42.761,114.627,94.629,225.7,174.244,318.967,4.545,5.025,8.953,7.428,15.746,6.963l26.331-.14C-9.033,165.862,150.348,4.084,259.6,71.344l18.373,12.221a3.914,3.914,0,0,0,4.988-5.975c-18.933-19.628-47.837-47.3-77.313-66.8a11.454,11.454,0,0,0-6.724-2.138q-62.822.078-125.644-.035c-3.1-.008-4.9.967-5.744,3.828C-11.053,277.944,190.83,552.8,221.418,590.277A11.829,11.829,0,0,0,230.513,594.625Z" style="fill:#c0392b"/><path d="M595.222,564.713c-21.22,14.205-214.686,5.693-287.2-242.575-56.375-193.019,52.905-69.946,97.149-15.3a3.7,3.7,0,0,0,6.224-3.88c-16.538-35.614-50.639-99.082-97.324-134.671-27.02-20.6-84.86-36.5-93.868,8.211-20.5,101.757,94.161,252.062,165.067,324.885,53.7,54.113,129.119,95.7,207.445,86.287a2.575,2.575,0,0,0,2.525-2.916C595.189,578.164,595.222,571.575,595.222,564.713ZM274.355,160.119c-39.969-.662-44.959,40.914-16.814,138.705a1.317,1.317,0,0,1-2.487.858c-65.58-153.374-1.278-148.62,19.668-141.575A1.034,1.034,0,0,1,274.355,160.119Z" style="fill:#c0392b"/><path d="M60.466,485.038C36.01,456.569,21.514,417.99,12.718,378.055a1.8,1.8,0,0,0-3.568.385l0,212.319c0,3.934.035,3.934,4.072,3.967h146.25a3.263,3.263,0,0,0,2.58-5.254C88.08,492.306,39.369,368.769,11.479,250.017a1.183,1.183,0,0,0-2.336.268c-.007,9.972-.017,20.316.016,30.741A90.667,90.667,0,0,0,11.115,299.4C16.576,325.4,27.6,403.315,65.083,482.015A2.786,2.786,0,0,1,60.466,485.038Z" style="fill:#c0392b"/><path d="M414.253,590.394c-31.133-14.9-140.645-78.727-210.586-265.346-1.165-3.109-2.339-6.067-5.631-6.574-4.305-.122-4.093,5.541-3.228,8.58,24.9,88.182,67,175.639,123.278,248.872a48.3,48.3,0,0,0,38.755,18.784L413.4,594.2A2,2,0,0,0,414.253,590.394Z" style="fill:#c0392b"/><path d="M595.188,220.924l.063-45.987c.028-3.307-1.323-5.571-2.972-8.37C576.689,140.1,504.657,52.09,461.329,12.187a12.07,12.07,0,0,0-9.012-3.576l-38.454.326a1.223,1.223,0,0,0-.7,2.221C431.515,24.065,513.809,96.38,593.1,221.489A1.124,1.124,0,0,0,595.188,220.924Z" style="fill:#c0392b"/><path d="M590.883,88.252c-14.273-19.76-54.718-68.876-87.93-79.841-2.107-.695-3.684,2.277-2.044,3.914,35.459,35.4,69.433,79.4,91.993,121.416a1.241,1.241,0,0,0,2.3-.788c.014-7.833.043-23.726.063-30.773A23.727,23.727,0,0,0,590.883,88.252Z" style="fill:#c0392b"/><path d="M474.324,124.523a4.545,4.545,0,0,0,3.806,1.323c1.939-.19,2.664-1.4,2.865-3.39a5.374,5.374,0,0,0-1.036-3.744c-11.128-14.951-48.113-61.037-99.913-106.785a7.264,7.264,0,0,0-4.769-2.018H354.816a1.161,1.161,0,0,0-.768,2.049C404.472,48.189,452.337,100.175,474.324,124.523Z" style="fill:#c0392b"/><path d="M591.786,263.753C570,231.021,521,159.737,509.106,161.656c-6.4,1.033,3.038,11.256,6.038,15.042,29.381,30.6,54.32,73.076,78.307,108.539a1.088,1.088,0,0,0,1.988-.547C595.744,279.461,595.785,268.944,591.786,263.753Z" style="fill:#c0392b"/><path d="M495.238,146.308c8.237.049,5.176-11.522-1.241-11.331C486.318,135.724,487.811,146.207,495.238,146.308Z" style="fill:#c0392b"/><path d="M184.743,287.886c-1.081,6.687,7.029,12.224,9.342,4.277C195.812,284.916,186.806,279.946,184.743,287.886Z" style="fill:#c0392b"/><path d="M595.293,423.6a54.665,54.665,0,0,0-2.4-14.558c-15.54-46.027-76.532-137.59-113.5-190.823-3.369-4.852,3.374-10.25,7.385-5.915,32.957,35.621,69.264,85.188,105.567,150.632a1.574,1.574,0,0,0,2.949-.765V345.212a43.094,43.094,0,0,0-4.457-17.4c-25.267-46.25-119.711-191.04-244.572-292.019-16.446-13.3-34.24-26.024-55.388-26.322l-51.671-.727a1.014,1.014,0,0,0-.628,1.819c103.03,82.683,186.508,206.366,210.579,248.05,17.6,33.445,71.147,138.4,33.733,170.9a32.5,32.5,0,0,1-22.743,7.561c-48-1.985-86.8-54.365-99-72.8-1.83-2.765-6.092-.262-4.526,2.661l.045.083C406.516,502.48,520.787,555.338,561.754,522.728c13.991-11.467,14.144-29,12.375-40.316a1.263,1.263,0,0,0-2.509.121c-.737,13.241-5.2,34.431-25.482,41.472a1.381,1.381,0,0,1-1.49-2.205c5.084-5.963,14.31-15.389,14.578-35.372-1.847-56.525-18.886-112-42.453-167.469-1.987-4.676,4.593-8.115,7.313-3.824,22.178,34.992,53.348,92.294,68.526,153.43a1.36,1.36,0,0,0,2.681-.328ZM456.647,190.928a10.309,10.309,0,0,1-2.332-5.278,4.772,4.772,0,0,1,7.953-3.982,12.677,12.677,0,0,1,2.878,3.645A5.106,5.106,0,0,1,456.647,190.928Zm29.36,265.664c-31.412,13.608-54.835-9.322-63.079-19.235a1.372,1.372,0,0,1,1.576-2.146c40.378,16.715,73.611,11.217,77.823-36.868a1.372,1.372,0,0,1,2.68-.269C509.157,411.967,515.018,444.024,486.007,456.592Z" style="fill:#c0392b"/><path d="M390.761,346.012c9.045,11.069,15.861,1.643,7.928-9.475C389.943,324.6,384.3,337.021,390.761,346.012Z" style="fill:#c0392b"/><path d="M41.218,266.224C31.2,220.2,9.136,77.343,35.5,5.077H4.438V133.6c0,71.561,26.393,117.592,32.893,133.8A2.039,2.039,0,0,0,41.218,266.224Z" style="fill:#c0392b"/></svg>