<?xml version="1.0"?><svg fill="#c0392b" id="icon" viewBox="0 0 512 512" xmlns="http://www.w3.org/2000/svg"><title/><path d="M485.1,364.38c-61.56-18.8-149.79-12.18-208.72-4.28A27.14,27.14,0,0,0,257,372.56c-2.56,4.09-5,7.86-7.15,11.26a20.45,20.45,0,0,1-2,3.57l-8,11.52-12.31,17.71A29.66,29.66,0,0,1,194.6,428a13.52,13.52,0,0,0-14.74,5.12s-11.09,15.05-19.36,26.1a5.31,5.31,0,0,0,5.38,8.37l28.61-6.23a8.79,8.79,0,0,1,10.45,6.72l2.64,12.13a8.54,8.54,0,0,0,10.17,6.53l20.43-4.44,13.29-2.9,1.25-.6c42.91-10.79,170.11-46.4,234.71-103.63A6.35,6.35,0,0,0,485.1,364.38Z"/><path d="M192.82,399l7.91,5.46a8.72,8.72,0,0,0,12.13-2.22L225,384.66l7.88-11.42.52-1.32C257.78,334,327.65,218.8,335.83,131.17a6.48,6.48,0,0,0-9.28-6.4c-59.23,29.07-120.62,96-158.94,143a21.94,21.94,0,0,0-4.92,15c.19,3.69.35,7.2.49,10.49.26,6.5.63,28.81.63,35.3v12.05A32,32,0,0,1,141.53,371a11.75,11.75,0,0,0-8.35,11.41c.4,16.47,1.23,48.4,2,56.68a6.92,6.92,0,0,0,12.57,3.3L176.06,402A12.08,12.08,0,0,1,192.82,399Z"/><path d="M103.15,488.07a19.63,19.63,0,0,0,19.64-19.63V445.12a6.62,6.62,0,0,0-6.62-6.62h-64a6.62,6.62,0,0,0-6.62,6.62v23.32a19.64,19.64,0,0,0,19.64,19.63Z"/><path d="M54.54,409.8a7.6,7.6,0,0,0,7.6,7.6h44a7.6,7.6,0,0,0,7.6-7.6V346.66h20.1a12,12,0,0,0,12-12V322.12a7.26,7.26,0,0,0-7.25-7.25H29.68a7.26,7.26,0,0,0-7.25,7.25v12.53a12,12,0,0,0,12,12h20.1Z"/><path d="M32.38,295.92H63.64a5.18,5.18,0,0,0,5.18-5.22c-.52-81.11,7.39-137.95,12.05-167.06a3.33,3.33,0,0,1,6.57,0c4.66,29.11,12.58,86,12,167.06a5.18,5.18,0,0,0,5.18,5.22h31.26a9.29,9.29,0,0,0,9.3-9.67c-2.2-54.2-11.95-181.8-55.1-258.82a6.85,6.85,0,0,0-11.95,0c-43.14,77-52.9,204.62-55.1,258.82A9.29,9.29,0,0,0,32.38,295.92Z"/></svg>