<?xml version="1.0" ?><svg fill="#c0392b" data-name="1" id="_1" viewBox="0 0 600 600" xmlns="http://www.w3.org/2000/svg"><title/><path d="M581.069,545.093c-170.458-138.04-327.99-310.367-350.254-334.985a3.593,3.593,0,0,0-5.268-.048c-6.647,6.909-17.121,14.02-22.95,17.749a3.593,3.593,0,0,0-.318,5.823C231.324,257.1,413.7,408.03,530.193,589.188a8.108,8.108,0,0,0,6.818,3.731h3.317a1.425,1.425,0,0,0,1.212-2.173l-55.563-82.22A1.21,1.21,0,0,1,487.845,507c15.2,15.742,45.969,49.108,66.7,81.611a12.968,12.968,0,0,0,9.651,4.306H590.4a2.556,2.556,0,0,0,2.556-2.556V570.007A32.058,32.058,0,0,0,581.069,545.093Z" style="fill:#c0392b"/><path d="M97.418,255.66l23.118-25.786a9.106,9.106,0,0,0,1.36-10.167,50.587,50.587,0,0,1-5.682-24.926,17.093,17.093,0,0,1,28.27-12.233c7.313,6.348,16.118,16.53,25.8,32.849a9.158,9.158,0,0,0,9.869,3.885c14.545-4.14,25.73-12.073,32.951-24.486a8.652,8.652,0,0,0-2.5-11.453c-19.556-13.575-29.165-26.555-33.813-36.758a17.114,17.114,0,0,1,16.921-24.094,50.133,50.133,0,0,1,21.407,6.627,9.129,9.129,0,0,0,10.568-1.058l25.1-22.111a2.7,2.7,0,0,0-1.161-4.648C154.884,79.256,36.991,20.968,10.1,7.318a2.1,2.1,0,0,0-2.841,2.8c12.426,25.672,63.074,134.32,85.506,244.276A2.7,2.7,0,0,0,97.418,255.66Z" style="fill:#c0392b"/></svg>