<?xml version="1.0" ?><svg fill="#c0392b" data-name="Layer 4" id="Layer_4" viewBox="0 0 600 600" xmlns="http://www.w3.org/2000/svg"><title/><path d="M159.365,592.476A15.857,15.857,0,0,0,172.86,600h60.172a3.738,3.738,0,0,0,3.163-5.737c-67.957-106.917-151.5-220.408-229.03-321.55a3.779,3.779,0,0,0-6.779,2.3v58.81A34.8,34.8,0,0,0,6.25,353.163C56.972,429.072,111.825,515.467,159.365,592.476Z" style="fill:#c0392b"/><path d="M58.726,591.768A15.849,15.849,0,0,0,72.634,600h36.323a3.737,3.737,0,0,0,3.152-5.746C78.228,541.082,38.15,480.47,4.827,425.615a2.4,2.4,0,0,0-4.441,1.25v54.008a30.408,30.408,0,0,0,3.949,15C21.9,526.878,42.1,561.4,58.726,591.768Z" style="fill:#c0392b"/><path d="M15.693,593.979A12.622,12.622,0,0,0,26.437,600h4.732a3.737,3.737,0,0,0,3.269-5.552c-8.758-15.793-19.516-33.465-29.326-49.969a2.542,2.542,0,0,0-4.726,1.3v15.323a30.436,30.436,0,0,0,4.937,16.619C8.875,583.175,12.445,588.7,15.693,593.979Z" style="fill:#c0392b"/><path d="M458.079,376.044,593.635,483.18a3.7,3.7,0,0,0,5.979-2.923V416.3a26.022,26.022,0,0,0-9.287-19.906c-140.192-118-280.933-256.948-422.839-375.023A92.547,92.547,0,0,0,108.288,0H9.2A8.814,8.814,0,0,0,.386,8.814V86.625a30.427,30.427,0,0,0,4.183,15.427C100.756,265.677,223.448,431.97,324.26,592.561A15.862,15.862,0,0,0,337.7,600h9.948a3.7,3.7,0,0,0,3.1-5.709L177.631,315.451c-3.772-6.076,5.1-11.929,9.2-6.069,80.9,115.638,178.079,254.361,199.459,284.044A15.821,15.821,0,0,0,399.136,600h60.8a4.4,4.4,0,0,0,3.578-6.948L292.046,355.935c-3.048-4.216,2.791-9.109,6.408-5.37l235.7,243.6a18.686,18.686,0,0,0,13.56,5.83H593.08a6.534,6.534,0,0,0,6.534-6.535V536.6A18.656,18.656,0,0,0,593.2,522.5c-30.5-26.483-93.55-88.6-142.816-137.813C445.218,379.535,452.355,371.52,458.079,376.044ZM228.514,278.392c-9.478.061-35.475-33.484-28.7-38.709a6.1,6.1,0,0,1,6.16-.654C217.953,244.34,240.421,278.315,228.514,278.392Z" style="fill:#c0392b"/><path d="M594,292.947C546.186,252.24,475.335,194.111,420.5,149.936a2.847,2.847,0,0,1,3.44-4.534l172,118.113a2.328,2.328,0,0,0,3.683-1.893V215.166a20.708,20.708,0,0,0-9.42-17.369C535.363,162.142,388.515,66.288,295.677,5.185A31.492,31.492,0,0,0,278.361,0H220.833a3.6,3.6,0,0,0-2.319,6.363C339.405,107.518,472.85,215.8,596.578,312.5a1.88,1.88,0,0,0,3.036-1.488v-5.924A15.946,15.946,0,0,0,594,292.947Z" style="fill:#c0392b"/><path d="M594.058,101.208a3.833,3.833,0,0,0,5.556-3.427V6.049A6.048,6.048,0,0,0,593.566,0H414.151a2.141,2.141,0,0,0-1.029,4.019C471.2,35.7,536.146,71.988,594.058,101.208Z" style="fill:#c0392b"/><path d="M596.638,138.02C558.219,115.942,439.981,47.207,370.784,2.208A13.674,13.674,0,0,0,363.326,0H348.649a1.3,1.3,0,0,0-.7,2.4C424.6,50.83,553.685,127.17,597.04,152.584a1.71,1.71,0,0,0,2.574-1.478v-7.934A5.935,5.935,0,0,0,596.638,138.02Z" style="fill:#c0392b"/></svg>