<?xml version="1.0" ?><svg fill="#c0392b" data-name="Layer 4" id="Layer_4" viewBox="0 0 600 600" xmlns="http://www.w3.org/2000/svg"><title/><path d="M308.641,550.838c-.048-19.446-.067-44.21-.11-63.426.206-12.825-11.272-12.286-18.945-17.441a1.385,1.385,0,0,0-2.056,1.3c.708,27.5,1.4,57.905,18.778,80.633C307.115,552.882,308.644,552.092,308.641,550.838Z" style="fill:#c0392b"/><path d="M239.758,460.065c3.4,9.507,3.637,20.105,9.39,28.715,7.7,12.3,20.573,20.741,26.662,34.13.716,1.585,3.153.442,2.742-1.155a174.921,174.921,0,0,1-3.636-20.457c-1.539-11.474-2.614-23-3.9-34.5a25.116,25.116,0,0,0-8.384-15.915c-19.65-18.661-43.348-33.9-70.611-37.825a1.5,1.5,0,0,0-.8,2.893C212.369,423.208,231.853,438.67,239.758,460.065Z" style="fill:#c0392b"/><path d="M417.936,330.1c-10.362,13.506-43.02,39.9-76.36,19.46-.705-.621-2.2-.806-2.42.253-6.456,31.488-3.475,76.957-2.452,95.719a5.319,5.319,0,0,0,7.864,4.375c6.386-3.491,30.629-18.707,42-25.672a1.84,1.84,0,0,1,2.486,2.6c-7.133,10.264-21.648,21.043-25.143,25.2-4.036,4.766-2.374,11.4-2.814,17.153q-.2,20.659.706,41.307c.059,1.349,2.154,2.218,2.8.757,9.232-27.629,35.259-28.9,34.66-47.24-.514-78.6,73.64-99.035,76.4-160.616.013-1.28-1.86-2.16-2.561-1.061-26.555,42.435-61.978,60.579-59.3,50.887C414.535,351.832,424.568,326.123,417.936,330.1Z" style="fill:#c0392b"/><path d="M326.768,554.91C341.21,529.1,344.7,497.825,345.86,468.38c.151-.877-.369-1.824-1.109-1.858-5.007,1.688-9.011,5.949-17.1,11.584a8.619,8.619,0,0,0-3.269,6.973c.145,18.2.036,49-.02,69.074A1.282,1.282,0,0,0,326.768,554.91Z" style="fill:#c0392b"/><path d="M5.687,31.428c3.739,6.147,10.674,9.386,16.007,13.98,34.36,26.881,68.218,55.114,96.338,88.637,2.4,3.271,5.4,6.118,6.676,10.046,3.547,20.193-23.728,45.837-34.581,61.819-10.886,15.436-7.59,37.8-3.85,55.226.633,2.624,1.314,5.258,2.194,7.811a1.507,1.507,0,0,0,2.946-.4c-.074-27.947,9.17-50.477,28.848-70.239,7.351-9.608,16.453-6.868,24.645-.194q8.2,5.429,16.519,10.67a1.536,1.536,0,0,0,2.052-.538c5.075-6.952,10.38-13.793,16.116-20.212a1.515,1.515,0,0,0,0-2.121q-6.024-4.864-11.929-9.873c-3.292-3.418-8.786-5.821-9.575-10.9a6.932,6.932,0,0,1,7.267-7.448c4.464.6,7.192,4.835,10.676,7.312q6.819,5.817,13.646,11.623a1.527,1.527,0,0,0,2.122,0c6.045-6.642,12.315-13.116,18.87-19.254a1.507,1.507,0,0,0,0-2.121c-7.039-6.475-24.043-21.176-22.99-31.11.373-6.158,5.693-10.139,9.5-14.4,15.137-16.05,34.62-30.505,57.477-31.275a1.507,1.507,0,0,0,.4-2.946c-17.627-4.514-40.336-9.7-54.121,5.695-11.769,10.318-35.964,46.988-52.72,41.9-17.682-9.233-31.966-23.906-46.883-36.926C78.638,64.1,53.515,42.9,37.922,14.991,22.52-5.42-4.117,6.646,5.687,31.428Z" style="fill:#c0392b"/><path d="M514.547,534.063c-31.367-30.915-61.868-62.7-91.944-94.867a1.49,1.49,0,0,0-2.506.661c-1.991,8.486-7.128,20.935-1.037,28.523,33.6,34.439,69.6,66.816,108.171,95.655a412.612,412.612,0,0,0,47.983,31.139c1.442.782,3.14-1.184,1.818-2.356C555.641,573.844,534.912,554.13,514.547,534.063Z" style="fill:#c0392b"/><path d="M501.08,348.565a59.871,59.871,0,0,0,2.229-6.943,1.507,1.507,0,0,0-2.741-1.156A181.586,181.586,0,0,1,481.239,363.3c-10.509,11.54-60.913,46.249-48,63.216,46.023,51.386,95.142,99.974,139.824,152.546,1.144,1.378,3.071-.376,2.355-1.818-29.066-58.7-71.36-109.324-113.853-158.626-5.28-8.393-2.5-18.569,3.9-25.479C478.336,379.177,494.219,366.955,501.08,348.565Z" style="fill:#c0392b"/><path d="M282.413,326.007c-3.457-3.083-9.171,2.076-5.62,5.621C280.267,335.179,285.549,329.385,282.413,326.007Z" style="fill:#c0392b"/><path d="M450.691,86.959c-19.395,32.4-41.545,15.12-69.082,34.147-12.254,11.729-24.131,20.063-41.817,19.265-120.076-.672-188.7,75.283-173.716,192.292,2.71,19.062,12.572,37.955,28.159,49.754,6.727,4.875,14.5,7.866,21.95,11.456a1.617,1.617,0,0,1-.973,3.051c-16.459-2.859-33.328-3.116-49.833-5.681-33.081-3.5-32.672-16.445-7.884-38.033a6.236,6.236,0,0,0,1.911-6.519,62.482,62.482,0,0,1-1.947-9.507,1.212,1.212,0,0,0-1.983-.766c-10.308,8.579-24.828,30.915-22.615,44.119,5.239,29.155,91.461,10.684,115.027,36.569,4.093,4.292,41.992,40.1,44.091,32.106-.63-24.186-3.449-78.368-4.264-93.77a3.221,3.221,0,0,0-4.132-2.923c-33.167,10.2-78.869,20.666-91.692-24.531-11.932-55.455,42.161-91.959,88.957-97.781,51.079-15.941,70.384-74.958,112.647-103.375,18.65-9.975,45.083-1.955,59.551-38.057C453.711,87.316,451.777,85.494,450.691,86.959Z" style="fill:#c0392b"/><path d="M593.931,140.252c-19.415,24.235-29.513,18.523-55.816,23.183-32.3,8.949-53.4,39.18-66.1,68.465a50.363,50.363,0,0,1-27.833,24.084,38.864,38.864,0,0,1-14.574,2.192c-48.337-1.827-68.641,16.587-76.428,36.5-.951,2.432,1.574,4.579,3.458,2.77,13.908-13.345,40.323-33.735,72.722-10.516,9.862,7.068,7.289,21.074,6.4,30.828-.139,1.351,1.7,1.9,2.561,1.06,4.819-4.7,9.416-9.6,13.758-14.747,24.17-28.749,41.937-62.1,58.446-95.644,7.093-14.067,18.14-25.98,33.594-30.565,24.166-7.5,40.283-10.552,52.168-35.792C596.955,140.654,595.07,138.822,593.931,140.252Z" style="fill:#c0392b"/><path d="M417.57,248.166c25.1,2.668,32.688-17.825,33.219-22.512,2.394-21.14-21.9-38.417-32.967-45.874-11.583-7.855-23.919-10.9-37.92-7.176-1.542.414-2.255-1.157-1.531-2.578,5.837-11.451,12.444-14.978,18.9-21.091,2.63-2.493,1.214-6.867-3.945-3.945-42.554,16.309-50.753,93.569-109.6,98.8-54.749,5.53-77.575,35.25-80.556,64.111a1.437,1.437,0,0,0,2.647.911c7.356-11.938,32.162-42.3,74.327-10.4,40.741,32.09,14.752,125.362,34.357,170.4a1.65,1.65,0,0,0,3.087-.216c2.444-8.394,6.743-23.28,6.594-33.612.456-22.536-1.76-60.452-.4-82.024C333.074,270,376.493,243.8,417.57,248.166Z" style="fill:#c0392b"/><path d="M511.539,322.177c3.06-1.763,4.3-6.9,2.738-9.769-3.488-6.392-8.964,2.8-7.957,7.268C507.382,323,509.217,323.437,511.539,322.177Z" style="fill:#c0392b"/></svg>