<?xml version="1.0" ?><svg fill="#c0392b" data-name="Layer 4" id="Layer_4" viewBox="0 0 600 600" xmlns="http://www.w3.org/2000/svg"><title/><path d="M279.031,70.889C352.7,54.987,363.37,14.07,364.862,4.616a1.706,1.706,0,0,0-1.693-1.969H348.792a7.883,7.883,0,0,0-7.3,4.889c-5.334,13.01-15.164,41.565-54.509,45.744-17.413,1.85-32.533,12.24-38.166,16.566a.757.757,0,0,1-1.108-.988c6.373-11.517,28.786-22.119,41.936-27.366,21.149-8.437,25.915-21.571,31.39-36.46a1.772,1.772,0,0,0-1.663-2.384H266.24a3.1,3.1,0,0,0-3.02,2.388c-11.149,47.614-70.814,45.251-82.515,98.74-12.769,58.37,6.756,83.066,17.086,98.214a2.582,2.582,0,0,0,4.125.2c9.293-11.191,24.664-29.11,31.138-36.639a7.017,7.017,0,0,0,.98-7.608C207.96,103.319,259.379,75.131,279.031,70.889Z" style="fill:#c0392b"/><path d="M6.925,245.413a3.97,3.97,0,0,0-3.181,3.959l.3,26.192a2.74,2.74,0,0,0,3.521,2.591C41.71,268.13,65.2,255.4,81.952,224.553c26.515-48.828,61.909-59.315,82.434-50.5a1.678,1.678,0,0,0,2.22-2.177c-5.872-13.878-5.619-32.644-3.022-45.1a4.086,4.086,0,0,0-2.393-4.345c-18.925-9.243-56.414-13.073-88.695,17.321-22.711,21.384-56.664,20.269-66.219,19.47a2.388,2.388,0,0,0-2.583,2.388l.01,25.316a3.755,3.755,0,0,0,3.242,3.727c9.181,1.232,36.976,2.724,71.875-16.482C67.017,214.678,32.054,240.578,6.925,245.413Z" style="fill:#c0392b"/><path d="M593.155,287.541c-7.217-6.987-27.586-20.939-55.571-36.673A1.575,1.575,0,0,1,538.8,248c9.963,2.667,26.238,3.8,57.176,21.413l-.061-6.856a4.773,4.773,0,0,0-2.449-4.121c-42.964-23.9-74.341-37.659-155.418-49.278-59.016-8.457-117.53-4.885-139.8-.5a2.107,2.107,0,0,1-1.672-3.755c7.663-5.694,20.073-14.356,31.608-19.92,32.578-15.713,31.529-49.847,31.233-71a2.681,2.681,0,0,0-3.46-2.53c-39.7,12.2-77.17,32.719-107.221,61.652-23.179,23.416-43.458,49.465-64.19,75.013-9.325,11.521-16.965,24.256-25.391,36.417-23.758,33.921-56,60.643-83.1,91.755-4.065,4.6,1.673,11.034,5.876,14.258,14.493,11.118,34.832,4.815,30.42-15.938a1.082,1.082,0,0,1,1.888-.938c4.49,5.416,11.519,14.4,3.183,25.14-2.186,2.816-7.392,5.491-12.674,5.94-1.6.136-1.936,2.448-.7,3.47,10.077,8.322,45.159,33.832,72.245,10.777,72.335-61.568,156.987-59.948,232.946,35.868,13.719,17.307,29.128,37.564,41.521,71.075.824,2.228-1.307,3.465-3.432,2.4-9.859-4.927-42.194-64.656-76.449-84.434-4.4-2.539-6.841-.074-7.772,4.984-5.5,26.778-6.872,56.1-25.156,78.005-18.38,22.448-45.33,34.834-69.936,49.049-8.052,4.594-16,9.359-23.954,14.133a3.912,3.912,0,0,0,2.012,7.268h343.1a6.456,6.456,0,0,0,6.446-6.563c-.244-17.573.026-35.163-.057-52.734.1-1.568-.725-2.134-2.069-2.839-6.638-3.633-13.079-6.895-19.407-10.931a3.927,3.927,0,0,0-5.574,1.42c-5.1,9.414-9.243,19.085-14.048,28.681-1.3,2.7-4.994,6.719-17.123-.085a407.256,407.256,0,0,1-36.7-23,3.917,3.917,0,0,0-5.477.932c-2.317,3.3-4.584,6.534-6.869,9.756-2.589,3.65-5.812,4.214-9.194,1.371a18.811,18.811,0,0,1-4.208-4.794,241.784,241.784,0,0,1-21.511-39.328c-.4-1.849.567-3.188,2.088-4.1,2.825-1.629,4.647,1.691,6.105,3.583,4.95,6.666,9.36,13.607,15.557,19.19a2.362,2.362,0,0,0,3.749-.868c2.841-6.813,6.476-14.9,14.89-9.4,11.153,7.329,23.063,13.349,34.655,19.909,8.026,4.733,14.268,3.634,19.552-4.117,5.731-8.458,10.13-17.724,14.977-26.7,2.763-5.068,6.3-5.655,10.732-2.02,3.565,2.925,7.244,5.71,10.81,8.634a3.392,3.392,0,0,0,4.466.279c3.158-1.933,4.727-4.184,4.712-8.321-.168-45.1.5-174.9.63-200.264A10.361,10.361,0,0,0,593.155,287.541Zm-383.1,8.91c-7.592.168-11.086-7.944-10.626-14.805.459-13.926,6.1-30.051,19.981-33.853a14.573,14.573,0,0,1,18.006,12.821C239.052,276.641,227.382,296.483,210.053,296.451Z" style="fill:#c0392b"/></svg>