<svg width="600" height="600" viewBox="0 0 600 600" fill="none" xmlns="http://www.w3.org/2000/svg">
<g clip-path="url(#clip0_203_542)">
<path d="M293.301 332.796C336.362 354.712 366.286 310.57 375.077 286.276C375.332 285.574 375.399 284.818 375.272 284.082C375.144 283.346 374.827 282.656 374.351 282.08C373.875 281.505 373.257 281.063 372.558 280.8C371.859 280.537 371.103 280.46 370.365 280.579C352.026 283.767 336.092 271.522 327.828 263.434C327.204 262.825 326.439 262.378 325.601 262.133C324.763 261.888 323.878 261.853 323.024 262.031C322.169 262.209 321.372 262.594 320.701 263.152C320.03 263.711 319.507 264.425 319.177 265.233C312.197 282.686 296.139 301.245 284.692 313.711C276.898 320.811 281.075 326.379 293.301 332.796Z" fill="#c0392b"/>
<path d="M418.006 35.575C397.655 36.6225 353.448 42.7889 302.794 73.9226C300.105 75.5607 298.101 78.1183 297.154 81.1212C296.206 84.1242 296.38 87.3688 297.642 90.2535C307.034 111.569 332.708 161.456 380.306 197.725C387.604 203.273 395.96 207.271 404.859 209.471C413.759 211.671 423.015 212.028 432.058 210.52C446.406 208.228 460.518 204.646 474.222 199.818C482.378 196.88 489.288 191.247 493.808 183.849C500.252 173.056 505.606 161.648 509.79 149.793C511.258 145.71 511.845 141.361 511.51 137.034C511.176 132.708 509.928 128.501 507.849 124.692C490.71 93.5298 464.319 65.9777 437.997 42.5703C432.511 37.7031 425.33 35.1902 418.006 35.575Z" fill="#c0392b"/>
<path d="M483.859 -6.17356C529.141 31.1915 556.001 60.7328 563.07 109.797C563.27 111.097 563.779 112.33 564.553 113.393C565.328 114.456 566.346 115.318 567.522 115.906C568.698 116.495 569.998 116.794 571.313 116.777C572.628 116.761 573.92 116.429 575.081 115.811C584.64 110.864 594.465 108.425 604.213 107.072L604.213 -6.17356L483.859 -6.17356Z" fill="#D9D9D9"/>
<path d="M470.92 9.30297C469.045 8.03203 466.921 7.17526 464.688 6.78975C462.456 6.40424 460.167 6.49884 457.975 7.06725C452.083 8.53259 446.745 11.6838 442.616 16.1352C442.026 16.7814 441.582 17.5473 441.315 18.3807C441.047 19.2141 440.963 20.0954 441.067 20.9644C441.171 21.8334 441.462 22.6697 441.919 23.4161C442.376 24.1626 442.989 24.8016 443.715 25.2896C459.709 35.9782 508.176 71.9699 530.825 129.016C531.571 130.929 532.958 132.523 534.749 133.527C536.541 134.53 538.625 134.88 540.646 134.517C542.666 134.153 544.498 133.099 545.827 131.534C547.157 129.97 547.901 127.992 547.934 125.939C548.78 66.4664 489.023 21.5383 470.92 9.30297Z" fill="#c0392b"/>
<path d="M223.164 277.666C235.852 285.465 257.839 292.848 282.335 265.01C286.97 259.743 291.377 251.961 295.837 245.144C296.375 244.318 296.712 243.377 296.819 242.397C296.926 241.417 296.8 240.426 296.452 239.504C296.105 238.581 295.544 237.754 294.817 237.088C294.09 236.423 293.216 235.938 292.266 235.673C275.525 230.795 264.297 216.302 258.899 207.683C258.383 206.868 257.686 206.182 256.862 205.681C256.037 205.179 255.108 204.875 254.147 204.791C253.186 204.708 252.218 204.848 251.32 205.201C250.421 205.554 249.617 206.109 248.969 206.824C237.054 219.766 237.621 232.468 219.364 255.527C218.044 257.187 217.09 259.107 216.563 261.161C216.037 263.215 215.95 265.357 216.309 267.447C216.668 269.537 217.464 271.528 218.645 273.289C219.827 275.05 221.367 276.542 223.164 277.666Z" fill="#c0392b"/>
<path d="M120.577 380.739C121.215 381.05 121.947 381.112 122.628 380.911C123.31 380.71 123.891 380.262 124.259 379.654C132.725 365.497 137.74 351.191 138.514 336.701C138.598 334.833 138.127 332.982 137.162 331.381C136.196 329.78 134.778 328.501 133.087 327.704C88.8817 306.514 40.5919 280.949 -3.99973 256.369L-3.99974 320.06C57.4414 350.016 108.935 375.108 120.577 380.739Z" fill="#D9D9D9"/>
<path d="M68.5274 435.961C70.0679 436.647 71.7632 436.911 73.4392 436.724C75.1151 436.537 76.711 435.908 78.0628 434.9C90.0081 425.876 100.52 415.099 109.242 402.932C109.486 402.592 109.652 402.203 109.73 401.792C109.808 401.382 109.795 400.959 109.693 400.553C109.591 400.148 109.402 399.77 109.139 399.445C108.876 399.12 108.545 398.856 108.169 398.672L-4.00002 343.94L-4.00002 402.721C30.1641 418.5 57.5401 431.075 68.5274 435.961Z" fill="#D9D9D9"/>
<path d="M31.1057 485.177C30.6981 485.376 30.3403 485.663 30.0583 486.018C29.7764 486.373 29.5775 486.786 29.4764 487.228C29.3752 487.67 29.3743 488.129 29.4738 488.571C29.5732 489.014 29.7704 489.428 30.051 489.784L46.5741 511.076C46.9367 511.558 47.3988 511.956 47.929 512.244C48.4592 512.532 49.0451 512.703 49.647 512.744C50.2489 512.785 50.8526 512.697 51.4172 512.484C51.9819 512.272 52.4942 511.94 52.9195 511.512C92.8577 467.67 148.649 440.715 148.649 440.715C153.408 438.205 157.808 435.068 161.733 431.389L196.628 398.606C197.459 397.828 198.048 396.826 198.324 395.721C198.6 394.616 198.551 393.455 198.184 392.377C184.268 351.614 188.386 295.141 190.01 278.509C190.069 277.907 190.001 277.3 189.809 276.727C189.617 276.154 189.306 275.628 188.896 275.184C188.486 274.739 187.987 274.386 187.432 274.148C186.876 273.91 186.277 273.792 185.672 273.802L165.436 274.144C165.022 274.158 164.615 274.254 164.24 274.428C163.864 274.602 163.528 274.85 163.25 275.157C162.972 275.464 162.759 275.823 162.623 276.214C162.488 276.605 162.432 277.019 162.459 277.432C167.74 418.143 50.7844 475.623 31.1057 485.177Z" fill="#c0392b"/>
<path d="M365.922 556.046C379.311 573.721 399.408 585.813 424.687 580.639C456.774 572.75 468.016 540.21 457.679 514.215C446.598 484.027 414.516 470.491 386.782 484.149C384.424 485.328 382.324 486.963 380.603 488.96C378.882 490.957 377.574 493.275 376.756 495.781L362.886 537.556C361.855 540.653 361.592 543.955 362.121 547.176C362.65 550.397 363.955 553.441 365.922 556.046ZM405.111 507.709C436.221 498.025 449.28 543.425 417.518 552.994C385.866 561.337 376.835 518.79 405.111 507.709Z" fill="#c0392b"/>
<path d="M292.662 508.099L334.013 531.231C334.453 531.477 334.942 531.624 335.445 531.66C335.948 531.696 336.453 531.62 336.923 531.439C337.394 531.258 337.819 530.975 338.168 530.611C338.517 530.247 338.781 529.811 338.942 529.333L353.362 486.602C353.743 485.474 353.706 484.248 353.259 483.145C352.811 482.043 351.983 481.138 350.925 480.595L330.52 470.12C329.598 469.646 328.552 469.473 327.527 469.624C326.502 469.776 325.55 470.244 324.804 470.963L291.955 502.635C291.57 503.007 291.277 503.464 291.1 503.969C290.923 504.474 290.867 505.014 290.936 505.545C291.004 506.076 291.196 506.583 291.496 507.027C291.796 507.47 292.195 507.838 292.662 508.099Z" fill="#c0392b"/>
<path d="M246.609 484.907L266.714 495.259C267.622 495.726 268.653 495.903 269.664 495.764C270.676 495.625 271.621 495.177 272.369 494.481L307.598 461.757C308.013 461.372 308.326 460.891 308.51 460.356C308.694 459.821 308.743 459.249 308.653 458.69C308.562 458.132 308.335 457.604 307.991 457.155C307.647 456.705 307.198 456.348 306.683 456.114L261.054 435.432C260.607 435.23 260.121 435.125 259.63 435.126C259.139 435.127 258.654 435.234 258.208 435.438C257.761 435.642 257.364 435.94 257.043 436.311C256.721 436.682 256.483 437.118 256.344 437.589L244.117 479.086C243.791 480.195 243.861 481.383 244.316 482.445C244.771 483.507 245.582 484.378 246.609 484.907Z" fill="#c0392b"/>
<path d="M226.772 469.835L237.969 428.9C238.255 427.854 238.192 426.743 237.788 425.736C237.383 424.73 236.661 423.883 235.73 423.326L215.709 411.325C214.757 410.754 213.641 410.519 212.539 410.656C211.437 410.794 210.414 411.297 209.631 412.084L178.601 443.327C178.226 443.704 177.944 444.164 177.777 444.67C177.61 445.175 177.563 445.713 177.639 446.24C177.716 446.767 177.914 447.268 178.218 447.706C178.522 448.143 178.923 448.503 179.39 448.759L221.814 471.942C222.269 472.191 222.774 472.333 223.292 472.358C223.809 472.384 224.326 472.292 224.803 472.089C225.28 471.886 225.705 471.578 226.046 471.187C226.387 470.797 226.635 470.335 226.772 469.835Z" fill="#c0392b"/>
<path d="M526.95 171.879C526.87 171.219 526.579 170.603 526.12 170.121C525.662 169.64 525.06 169.319 524.405 169.207C523.75 169.095 523.076 169.197 522.483 169.499C521.891 169.8 521.411 170.285 521.116 170.88C516.16 180.711 510.263 190.038 503.508 198.731C496.687 207.617 487.344 214.238 476.7 217.729C470.704 219.69 464.579 221.229 458.368 222.335C456.542 222.652 454.877 223.575 453.641 224.955C452.405 226.336 451.67 228.093 451.556 229.942L451.137 237.07C450.988 239.726 451.844 242.341 453.536 244.395C455.227 246.449 457.629 247.791 460.264 248.155C479.233 250.866 498.963 245.894 508.9 242.744C511.065 242.055 513.062 240.923 514.766 239.421C516.47 237.918 517.842 236.077 518.796 234.015C529.555 210.865 528.628 185.602 526.95 171.879Z" fill="#c0392b"/>
<path d="M497.738 266.634C483.533 269.528 469.181 269.168 459.878 268.395C456.953 268.155 454.042 269.001 451.702 270.772C449.362 272.543 447.756 275.114 447.192 277.994C443.035 299.242 436.557 344.404 456.409 345.121C486.022 346.196 500.234 295.765 504.977 274.028C505.198 273.025 505.165 271.983 504.882 270.996C504.599 270.009 504.075 269.108 503.356 268.374C502.638 267.64 501.748 267.097 500.767 266.793C499.786 266.49 498.745 266.435 497.738 266.634Z" fill="#c0392b"/>
<path d="M315.745 215.275C322.623 206.562 330.526 198.71 339.285 191.89C339.811 191.478 340.239 190.955 340.54 190.359C340.84 189.762 341.005 189.106 341.021 188.438C341.038 187.77 340.907 187.107 340.638 186.496C340.368 185.885 339.966 185.341 339.462 184.903C328.346 175.323 318.559 164.302 310.359 152.131C309.955 151.525 309.41 151.024 308.771 150.673C308.132 150.321 307.418 150.128 306.689 150.111C305.96 150.094 305.237 150.253 304.583 150.574C303.928 150.895 303.36 151.369 302.927 151.956C289.668 169.758 277.985 171.034 271.129 177.694C270.052 178.753 269.277 180.081 268.886 181.541C268.495 183 268.502 184.537 268.906 185.993C273.237 201.717 292.376 217.45 308.232 218.648C309.666 218.753 311.103 218.499 312.415 217.911C313.726 217.322 314.871 216.416 315.745 215.275Z" fill="#c0392b"/>
<path d="M212.981 208.529C228.292 203.327 243.129 188.744 250.659 180.46C251.212 179.849 251.609 179.113 251.816 178.315C252.022 177.517 252.032 176.681 251.845 175.878C251.658 175.075 251.279 174.33 250.74 173.705C250.202 173.081 249.52 172.597 248.753 172.294C232.242 165.679 224.854 152.041 221.829 144.063C221.514 143.222 220.982 142.48 220.287 141.911C219.592 141.342 218.758 140.967 217.872 140.824C216.985 140.681 216.076 140.775 215.238 141.097C214.399 141.418 213.66 141.956 213.096 142.655C207.522 149.636 201.7 162.732 196.808 171.227C192.131 179.352 183.782 185.685 176.153 191.367C168.02 197.649 181.114 219.354 212.981 208.529Z" fill="#c0392b"/>
<path d="M403.126 233.363C403.549 232.772 403.822 232.086 403.921 231.365C404.02 230.644 403.943 229.911 403.695 229.227C403.447 228.543 403.037 227.929 402.499 227.439C401.961 226.949 401.313 226.597 400.609 226.414C380.364 221.152 365.508 209.244 358.528 202.708C358.014 202.227 357.393 201.874 356.716 201.678C356.039 201.482 355.326 201.448 354.634 201.579C353.942 201.711 353.29 202.003 352.732 202.433C352.174 202.863 351.725 203.419 351.422 204.054C348.333 210.519 342.855 221.096 336.539 229.276C335.402 230.73 334.74 232.499 334.642 234.342C334.544 236.185 335.016 238.014 335.992 239.581C349.573 261.006 378.017 265.712 386.69 260.985C391.352 251.316 396.852 242.074 403.126 233.363Z" fill="#c0392b"/>
<path d="M235.342 133.884C237.729 143.354 245.116 151.5 254.551 155.898C261.745 159.253 266.84 155.823 270.356 152.432C277.334 145.709 287.129 140.807 292.964 137.689C293.512 137.397 293.993 136.995 294.379 136.509C294.764 136.023 295.046 135.463 295.207 134.864C295.368 134.265 295.403 133.639 295.312 133.025C295.221 132.411 295.005 131.823 294.677 131.296C287.234 119.35 280.866 103.949 277.739 95.8542C277.491 95.2101 277.098 94.6313 276.592 94.1617C276.086 93.6921 275.479 93.3442 274.818 93.1443C274.157 92.9445 273.46 92.898 272.778 93.0084C272.097 93.1189 271.449 93.3833 270.885 93.7816C263.337 99.1096 251.619 106.989 244.033 112.054C240.515 114.357 237.792 117.689 236.237 121.595C234.681 125.502 234.369 129.793 235.342 133.884Z" fill="#c0392b"/>
<path d="M317.946 42.4664C309.662 41.3367 301.264 41.3201 292.976 42.417C288.004 43.0732 283.269 44.94 279.187 47.8536C275.105 50.7672 271.801 54.6384 269.565 59.1272C267.514 63.2632 265.768 67.3879 264.41 70.8493C264.136 71.5501 264.083 72.3173 264.256 73.0492C264.429 73.7811 264.821 74.443 265.379 74.947C265.938 75.451 266.636 75.7733 267.382 75.871C268.128 75.9688 268.885 75.8373 269.555 75.4942L319.256 50.0622C320.02 49.6691 320.64 49.0422 321.024 48.2725C321.408 47.5029 321.536 46.6309 321.39 45.7833C321.244 44.9358 320.831 44.157 320.211 43.5604C319.592 42.9638 318.798 42.5805 317.946 42.4664Z" fill="#c0392b"/>
<path d="M214.381 100.229C214.363 101.05 214.571 101.86 214.982 102.571C215.394 103.282 215.993 103.865 216.714 104.258C217.435 104.651 218.25 104.838 219.071 104.798C219.891 104.759 220.685 104.494 221.364 104.034L238.274 92.6217C240.762 90.9198 242.595 88.4205 243.471 85.5364C246.674 75.2643 253.492 64.0931 258.149 57.1685C258.467 56.6967 258.626 56.135 258.601 55.5663C258.576 54.9976 258.368 54.4519 258.01 54.0099C257.651 53.5678 257.16 53.2528 256.608 53.1112C256.057 52.9696 255.475 53.009 254.947 53.2236C241.37 58.7642 215.21 72.9499 214.381 100.229Z" fill="#c0392b"/>
</g>
<defs>
<clipPath id="clip0_203_542">
<rect width="600" height="600" fill="white"/>
</clipPath>
</defs>
</svg>
