<?xml version="1.0" ?><svg fill="#c0392b" data-name="Layer 4" id="Layer_4" viewBox="0 0 600 600" xmlns="http://www.w3.org/2000/svg"><title/><path d="M272.578,134.835l32.234,2.434c3.518.541,3.248,4.326,0,4.461l-32.241,2.125A48.453,48.453,0,0,0,228.7,189.239l-4.411,74.642c.106,2.8-3.468,2.233-3.631,0l-3.8-74.642A48.452,48.452,0,0,0,173,143.855L140.754,141.3c-2.588-.3-2.707-3.865,0-3.924l32.235-2.544a48.452,48.452,0,0,0,43.869-45.393l4.418-74.953a1.51,1.51,0,0,1,3.015,0l4.417,74.953A48.453,48.453,0,0,0,272.578,134.835Z" style="fill:#c0392b"/><path d="M480.9,466.07l29.532,2.361c3.2.211,2.853,3.792,0,3.722L480.9,474.334a44.391,44.391,0,0,0-40.191,41.579L436.665,584.3c.146,3.166-3.12,3.632-3.4,0l-3.4-68.383a44.389,44.389,0,0,0-40.19-41.579l-29.538-2.372c-2.836-.251-3.086-3.675,0-3.591l29.531-2.3a44.391,44.391,0,0,0,40.192-41.587l3.423-68.668c.235-4.032,3.978-4.032,3.99,0l3.443,68.668A44.391,44.391,0,0,0,480.9,466.07Z" style="fill:#c0392b"/><path d="M596.087,15.919S207.123,438.8,97.026,536.535l-7.1,5.568a1.534,1.534,0,0,1-2.215-2.07c45.177-67.1,484.083-536.96,484.083-536.96h-40.5A20.988,20.988,0,0,0,515.4,10.344l-91.181,105.6a1.523,1.523,0,0,1-2.5-1.706c20.324-38.775,57.707-86.02,78.559-111.164H489.967a7.673,7.673,0,0,0-6.007,2.892C389.708,124.277,288.078,248.287,180.714,376.724a17.234,17.234,0,0,1-13.651,6.176l-22.445-.562A50.893,50.893,0,0,1,98.539,334.66l-4.084-78.728c0-2.928-3.973-3.193-4.3,0L86.092,334.66a50.892,50.892,0,0,1-46.078,47.678L6.156,384.986a2.1,2.1,0,1,0,0,4.192l33.865,2.635A50.892,50.892,0,0,1,86.1,439.483l.689,41.025a25.551,25.551,0,0,1-4.649,15.076C48.2,544.074,30.268,596.927,30.268,596.927c77.516-18.811,128.256-66.09,128.256-66.09C285.023,403.4,512.2,174.549,591.616,94.546a15.406,15.406,0,0,0,4.471-10.857ZM98.533,439.483a50.891,50.891,0,0,1,46.078-47.67l39.636-2.782a3.092,3.092,0,0,1,2.915,4.605,16.152,16.152,0,0,1-9.878,7.743c-3.976,1.122-10.823,2.795-17.949,4.475a11.567,11.567,0,0,0-6.209,3.823q-19.482,23.233-39.2,46.652a16.034,16.034,0,0,0-3.66,8.437c-1.55,13.058-3.325,28.463-4.051,36.455-.694,7.632-4.115,12.146-7.412,14.763a2.677,2.677,0,0,1-4.311-2.271Z" style="fill:#c0392b"/><path d="M90.57,141.5c2.765,2.934,14.973,1.822,13.016-3.567-1.672-2.305-6-2.857-9.342-2.508C91.039,135.718,87.547,139.263,90.57,141.5Z" style="fill:#c0392b"/><path d="M562.159,467.819c-2.765-2.934-14.973-1.821-13.016,3.567,1.672,2.306,6,2.857,9.342,2.508C561.69,473.606,565.181,470.061,562.159,467.819Z" style="fill:#c0392b"/></svg>