<?xml version="1.0" ?><svg fill="#c0392b" data-name="Layer 4" id="Layer_4" viewBox="0 0 600 600" xmlns="http://www.w3.org/2000/svg"><title/><path d="M447.628,440.942c-10.016-5.557-20.761,6.432-13.872,15.768,5.867,7.329,12.982,13.646,19.325,20.576,3.209,3.358,3.153,3.362-.371,6.2-27.6,21.5-58.2,39.577-91.695,49.919-15.755,3.583-30.736,6.626-32.913,24.481-1.135,10.723,4.006,5.388,9.7,5.916,31-1.024,79.761-21.765,112.445-37.436a55.251,55.251,0,0,1,61.915,9.764c19.749,18.73,41.017,37.588,60.726,52.835,8.418,6.725,16.909-2.534,9.605-10.518C538.919,531.465,495.129,483.8,447.628,440.942Zm-48.183,88.375a1.748,1.748,0,0,1-1.124-3.285,406.259,406.259,0,0,0,60.627-36.526,4.727,4.727,0,0,1,6.182.489l5.042,5.12C447.5,516.275,416.694,525.558,399.445,529.317Z" style="fill:#c0392b"/><path d="M10.589,399.435a342.558,342.558,0,0,0,65.6,82.027c1.676,1.632,3.195,2.078,4.868.011,4.364-5.39,2.545-19.87.834-28.98a2.23,2.23,0,0,1,3.748-2.006c5.027,4.908,12.178,10.6,15.363,6.976,1.637-1.656,1.014-3.908-1.474-6.419C49.035,400.3,21.969,332.056,6.253,263.333a.935.935,0,0,0-1.839.095,121.351,121.351,0,0,0,7.635,58.213,885.5,885.5,0,0,0,37,87.386,1.223,1.223,0,0,1-2.084,1.262c-18.057-24.3-30.674-51.556-40.622-80.933a1.054,1.054,0,0,0-2.036.159S2.979,363.137,3.3,380.389C3.687,387.675,7.488,393.057,10.589,399.435Z" style="fill:#c0392b"/><path d="M594.3,83.986C580.044,55.421,561.01,30.2,539.505,6.763a5.877,5.877,0,0,0-3.8-1.78c-9.811-.13-19.624-.089-30.455-.081a.932.932,0,0,0-.549,1.687c26.116,18.826,52.227,42.629,64.665,73.171a1.558,1.558,0,0,1-2.628,1.6c-12.376-14.758-43.282-49.833-75.78-72.973C485.155,4.257,479.218,4.679,471.945,5c51.964,34.456,98.921,90.07,120.227,150.424a2.189,2.189,0,0,0,4.258-.719l0-61.27A22.531,22.531,0,0,0,594.3,83.986Z" style="fill:#c0392b"/><path d="M596.52,334.113a1.264,1.264,0,0,0-2.468-.39c-6.5,20.474-27.58,73.691-82.926,125l-.119.113a11.831,11.831,0,0,0,.178,17.144l6.229,5.866a3.4,3.4,0,0,0,4.561.094c30.838-26.975,53.754-57.874,72.506-94.462a15.936,15.936,0,0,0,1.945-6.524C596.535,365.342,596.529,349.727,596.52,334.113Z" style="fill:#c0392b"/><path d="M109.786,4.894,76.478,4.839A31.167,31.167,0,0,0,52.978,15.5C32.741,38.6,2.891,92.746,2.043,142.717l1.14.185C23.655,77.85,109.786,4.894,109.786,4.894Z" style="fill:#c0392b"/><path d="M2.048,214.854l1.235.465C19.967,131.1,65.662,66.877,136.865,20.242c-.491-.362-.726-.686-.963-.687-6.145.378-12.985-1.438-18.1,2.891C64.515,59.373-3.946,147.3,2.048,214.854Z" style="fill:#c0392b"/><path d="M591.958,276.246c-14.469,58.662-46.045,113.226-86.383,157.988a4.16,4.16,0,0,0,1.347,6.549,4.294,4.294,0,0,0,4.954-1.1c81.669-87.4,86.673-163.33,86.348-163.388C599.116,265.522,593.547,268.154,591.958,276.246Z" style="fill:#c0392b"/><path d="M441.017,121.234c-2.414,3.821-5.7,10.812-1.273,15.552,19.237,23.412,31.38,47.087,37.121,76.8.666,6.875,4.307,5.865,10.082,5.841,4.14-.482,5.028-1.793,4.313-5.926-6.684-37.63-20.343-64.214-46.107-92.629A2.611,2.611,0,0,0,441.017,121.234Z" style="fill:#c0392b"/><path d="M98,279.038c-.393-4.36-3.039-7.614-6.391-7.739-3.467-.437-2.969,2.206-2.635,4.223,5.313,51.009,26.012,100.724,67.744,132.377,4.16,4.219,8.1,1.243,2.986-3.654C125.169,371.411,102.085,326.75,98,279.038Z" style="fill:#c0392b"/><path d="M307.085,18.76c.384-17.6-12.559-19.256-16.9-7.377-1.9,7.823-2.1,23.819,8.915,23.837C306.708,34.844,307.171,18.772,307.085,18.76Z" style="fill:#c0392b"/><path d="M154.709,435.2c1.38,12.684,18.659,7.385,18.5-3.26C172.058,418.743,154.432,424.364,154.709,435.2Z" style="fill:#c0392b"/><path d="M449.67,391.182c-5.7.36-7.528,9.192-.873,9.251C453.788,400.62,455.911,390.815,449.67,391.182Z" style="fill:#c0392b"/><path d="M172.383,91.157c28.359-23.707,62.957-37.715,98.382-47.075l.1-.037a2.957,2.957,0,0,0-1.266-5.719c-31.111,2.3-81.055,28.319-101.649,45.3-4.156,3.282-4.188,3.158-7.885-.636-9.1-8.421-16.441-19.5-27.772-25.058-9.757-3.589-14.945,8.223-7.731,14.783,7.051,7.878,14.207,15.662,21.352,23.454,3.642,3.972,4.078,4.335.284,7.976C112.5,136.484,96.13,183.925,87.8,230.594c-.779,4.367-3.251,6.671-7.554,7.061-15.957,1.562-47.937,1.963-47.937,1.963-21.052,1.228-13.3,16.55-2.386,16.464,44.808-.352,98.429.286,139.158,1.233a11.322,11.322,0,0,1,10.976,9.884c8.073,63.684,61.488,92.848,96.2,98.933l-.629-4.153a4.98,4.98,0,0,0-3.717-4.087c-34.593-8.6-49.11-21.554-55.125-33.247a1.794,1.794,0,0,1,2.57-2.324c12.085,7.888,27.811,22.181,54.9,24.439l-1.736-16.823a7.836,7.836,0,0,0-5.879-6.781c-22.575-5.76-50.495-19.842-49.241-57.032a8.784,8.784,0,0,1,8.748-8.413c18.038-.147,43.03-.2,55.279,15.545,21.137,38.149,4.992,152.713,4.992,152.713.136,2.509-.673,3.727-3.386,3.346-79-6.219-148.373-69.9-160.663-148.3-.545-3.778-2.45-6.357-4.925-8.813-1.43-1.419-8.351-2.887-9.175-1.536-3.27,7.676,4.184,31.739,7,40.447,25.735,70.427,75,113.969,148.5,129.683a22.86,22.86,0,0,1,4.805,1.519,2.172,2.172,0,0,1-1.15,4.115c-22.789-2.109-44.183-10.667-65.538-18.568l-.039-.013a1.951,1.951,0,0,0-1.95,3.269c13.464,12.734,63.311,26.974,78.707,27.679,6.983-.223,7.453,5.753,7.58,11.33.238,20.15.989,36.946,1.192,57.1.05,5.053-.1,5.4-5.373,4.881-49.544-3.532-96.056-21.329-136.312-50.12-9.483-5.682,6.589-4.787,3.661-20.392-.673-8.1-11.615-13.5-16.962-6.06-39.055,38.314-76.725,77.932-114,117.963-3.72,3.966-10.16,10.458-5.527,15.591,5.122,5.838,12.413-1.245,17-4.875,14.662-11.948,37.107-32.482,54.9-49.083a49.971,49.971,0,0,1,58.181-7.235c34.522,18.987,84.122,38.709,139.417,38.709,5.092,0,5.127.16,5.167,5.423,1.018,8.952-3.108,15.888,5.55,21.618,7.4,6.441,19.175.048,17.948-9.47-.1-39.161-.2-75.711-.17-114.872.011-11.494-1.946-9.194,9.619-10.588,39.455-5.659,78.8-18.448,109.859-43.874,7.567-7.415.508-10.643-5.768-4.909-30.148,20.756-69.918,34.235-106.964,38.655a7.681,7.681,0,0,1-8.606-7.139c-1.286-21.041-2.982-71.985,20.766-72.811,53.753-1.871,93.879-38.641,92.938-100.467A1.335,1.335,0,0,0,421.4,266.8l-3.6.008a4.575,4.575,0,0,0-4.573,4.44c.258,64.844-45.735,84.13-86.66,86.165a19.739,19.739,0,0,1-3.194.079c-2.827-.338-2.612-6.782.23-6.962,49.348-3.128,75.472-37.4,74.874-80.766-.035-2.507-.623-4.288-3.6-3.862-.7.1-4.17.384-6.9.6a3.709,3.709,0,0,0-3.539,3.551c.462,28.732-14.867,63.871-65.467,59.773-3.164-.256-5.073-3.761-5.271-6.611-3.293-47.3,12.928-84.612,162.42-71.6,3.092.269,4.124,1.109,3.8,4.07-1.839,82.664-73.7,155.606-155.424,169.677A6.844,6.844,0,0,0,318.8,431.9l-.176,6.024a2.3,2.3,0,0,0,2.613,2.344c87.8-12.741,163.643-80.918,174.715-175.7.867-7.42,5.043-13.131,11.782-12.265,8.546,1.1-3.225,80.537-39.651,118.612-1.689,1.765-3.2,4.133-1.011,6.6,1.663,2.417,5.42-1,7.72-3.2,35.813-34.253,42.227-97.525,44.517-115.181,1.614-12.444,33.754-7.837,45.2-9.349,15.933-2.1,30.437-14.96-23.84-13.977-41.289.748-71.3-.086-112.58-.471-4.7.038-5.331.352-5.017-4.26,3.316-48.808-29.977-97.07-82.568-100.545-10.076-.665-22,4.091-8.229,6.042,81.962,11.612,79.541,97.778,79.541,97.778h-4.716a6.3,6.3,0,0,1-6.3-6.257c-.5-63.284-50.4-80.748-72.266-80.139a3.064,3.064,0,0,0-2.134,1.949c-1.391,7.05,4.848,8,11.818,10.166,22.238,6.924,47.916,23.156,47.228,67.862-.071,4.632-3.334,4.734-7.772,5.294-45.727,5.773-84.066-29.73-71.465-159.927.249-2.576,1.034-3.607,3.568-3.31,35.014,2.426,68.169,13.712,96.48,34.613,2.145,1.553,2.225,2.65.781,4.758-3.731,5.449-6.987,11.231-10.841,16.587-3.265,4.539-3.2,9.155-1.655,14.087,1.467,6.534,7.1,4.41,10.11.252q15.771-18.783,31.517-37.587c4.523-5.394,4.586-5.454,10.147-.73,19.82,18.339,39.529,38.606,49.288,64.227q5.868,14.445,11.012,29.18c2.443,6.816,2.4,14.825,5.871,21.245,2.166,3.335,6.314,2.61,7.7-1.142,1.552-5.225-.615-10.824-1.6-16-10.4-43.3-35.92-78.073-66.253-109.721-4.893-5.149,9.412-21.765,10.737-25.8,1.445-4.4-7.527-15.6-18.445-.05-.78,1.111-8.025,11.207-13.218,7.728C397.6,48.993,361.725,31.72,327.748,31.15c-2.555-.042-1.339,5.158,3.91,6.587,36.688,9.989,59.431,16.714,86.733,38.814,11.322,8.987,10.387,4.975,1.4,16.558-1.044,1.472-2.4,2.61-4,1.078-65.955-50.407-161.2-50.894-228.464-2.65-7.515,4.912,8.068,12.333,12.365,8.59A180.451,180.451,0,0,1,285.7,70.281c2.137-.211,4.63-1.1,5.11,3.177,1.478,13.165,2.94,46.609-10.037,48.333-60.814,8.077-98.493,49.354-98.757,102.027,0,.112-.079.22.409.349a3.46,3.46,0,0,0,4.231-2.577c2.722-11.634,10.527-38.446,23.979-50.3a1.855,1.855,0,0,1,2.95,2.056c-3.636,9.631-14,32.815-13.391,49.591a3.119,3.119,0,0,0,3.106,3.016l9.5-.069a8.112,8.112,0,0,0,7.969-7.71c.867-26.72,19.865-55.921,58.992-57.827,4.5-.219,9.3,1.8,9.435,6.171.683,22.632-4.388,52.971-33.475,68.844-18.247,9.957-40.533,4.661-130.069,4.661-5.1,0-5.1-.063-5.106-5.252.591-14.051,3.717-27.777,8.032-41.141,8.488-25.647,22.227-48.12,40.5-67.933,1.992-2.16,3.348-2.54,5.554-.281,6.1,6.01,12.109,12.243,18.586,17.828,2.652,1.774,5.8,1.624,7.776-.313,3.993-3.615.908-8.487-1.79-11.819-9.049-11.789-18.072-23.6-27.267-35.274C170.31,93.782,170.329,92.754,172.383,91.157ZM271.8,541.5c-48.61-3.068-96.119-20.209-137.349-45.97-5.785-3.71-5.577-3.467-.966-8.272,2.671-2.783,4.207-1.078,6.212.36a276.306,276.306,0,0,0,132.2,52.488Zm17.39-402.265a4.214,4.214,0,0,1-4.176,4.233c-15.234,0-29.6,4.512-43.038,11.912a.983.983,0,0,1-1.187-1.493c10.576-14.279,31.993-22.314,48.4-24.014ZM193.9,257.729a2.464,2.464,0,0,1,2.382,2.582,79.289,79.289,0,0,0,11.643,43.478c3.248,5.345-.636,5.475-2.453,3.891-14.262-12.435-17.356-32.79-17.264-50.116Q191.105,257.645,193.9,257.729ZM158.806,116.066a195.4,195.4,0,0,0-51.893,109.9c-.972,4.149-.615,10.465-7.087,9.248-1.617-.22-3.981.371-3.546-2.592,8.512-58.019,24.731-92.485,57.332-124.388,1.4-1.372,2.387-1.517,3.645-.079C160.3,111.424,163.023,112.361,158.806,116.066Z" style="fill:#c0392b"/></svg>