<?xml version="1.0" ?><svg fill="#c0392b" data-name="Layer 4" id="Layer_4" viewBox="0 0 600 600" xmlns="http://www.w3.org/2000/svg"><title/><path d="M500.218,598.719a5.139,5.139,0,0,0,4.892-6.707c-3.517-10.993-7.421-21.861-11.814-32.579-12.226-28.672-22.021-62.372-53.041-75.967-23.376-11.435-44.1-18.9-68.7-27.375-2.8-1.069-4.855-.742-7.475.673-25.879,12.783-75.982,36.43-103.3,49.274a3.759,3.759,0,0,1-4.083-6.224c15.362-13.561,44.32-34.94,94.213-58.591,3.842-1.822,10.99-4.857,9.517-10.182a6.2,6.2,0,0,0-8.712-1.909c-4.215,1.81-17.457,5.523-23.42.588-27.427-22.7-30.155-57.5-32.591-90.937a19.269,19.269,0,0,1,5.707-14.5c7.084-7.3,14.57-20.122,19.689-31.512a23.61,23.61,0,0,1,13.2-12.529c10.983-4.1,28.139-17.155,28.139-58.708,0-18.46-24.87-5.347-24.87-5.347,9.853-49.427-4.336-120.251-75.711-135C214.473,70,167,104.038,153.805,149.178c-7.872,24.716-9.088,49.988-8.285,75.772-12.346-5.178-23.2.753-22.562,13.947,1.785,37.078,20.316,46.134,31.724,48.172a23.793,23.793,0,0,1,14.779,9.211c17.954,23.951,63.511,69.025,82.816,58.213,4.705-2.223,14.344-9.491,21.067-12.209a2.71,2.71,0,0,1,3.5,3.633c-4.294,9.132-19.115,29.115-24.158,32.02-12.071,7.751-33.531-10.86-48.591-21.5a4.077,4.077,0,0,0-6.423,3.42c.914,47.334-10.483,57.634-25.646,67.665-37.343,24.949-79.677,40.744-119.933,60.22C39.586,493.548,31.45,503.169,27.4,516.37c-8.285,25.11-15.927,50.39-22.668,75.915a5.134,5.134,0,0,0,4.971,6.434ZM216.409,255.909c-6.167,5.076-12.547,5.4-19.324,1.041-13.2-8.481-18.385-22.684-13.28-36.364,5.254-14.081,21.912-17.269,31.778-5.879,6.133,7.081,8.668,15.67,8.985,24.176C223.942,246.17,221.505,251.714,216.409,255.909Zm44.367-4.868c-5.486-10.861-1.08-32.111,8.814-39.306,14.09-11.319,28.062,2.206,27.586,17.022.06,10.6-3.322,18.964-9.615,26.042C279.733,263.605,266.065,261.514,260.776,251.041Z" style="fill:#c0392b"/><path d="M378.62,191.8c-.3,3.826-.61,7.56,3.26,9.4,29.726,14.12,8.373,57.759-4.152,75.569C350.2,316.406,357.415,386.135,383.9,417.241c6.117,6.955,13.472,1.022,20.107-1.9-6.145-4.419-10.771-8.927-12.923-13.355-9.772-20.1-32.167-76.19,4.511-127.917,9.9-13.968,18.354-38.281,16.494-55.582a31.574,31.574,0,0,0-12.377-21.837c-3.043-2.352-5.218-5.9-5.092-9.739,1.4-42.932-24.793-131.131-121.174-138.132-2.283-.165-7.342,0-7.129,8.041.086,3.235,2.427,3.97,5.023,4.36C333.793,68.324,385.378,128.733,378.62,191.8Z" style="fill:#c0392b"/><path d="M435.544,125.758c5.7,22.026,7.175,23.207,5.381,45.9-.3,3.827-.61,7.56,3.261,9.4,29.726,14.12,8.373,57.759-4.152,75.569-26.346,37.817-20.045,100.913.332,132.665,5.723,7.583,12.123,3.289,18.934.154-16.709-20.057-38.317-83.3-1.4-135.523,13.673-19.48,27.292-61.514,4.117-77.42-3.042-2.352-5.218-5.9-5.092-9.739,1.406-42.932-24.792-131.131-121.173-138.131-2.283-.166-7.342,0-7.129,8.04.085,3.235,2.427,3.97,5.022,4.36C379.978,46.674,421.9,81.1,435.544,125.758Z" style="fill:#c0392b"/><path d="M396.842,13.714C459.3,20.865,510.88,81.271,504.122,144.341c-.3,3.826-.609,7.56,3.261,9.4,29.726,14.12,8.373,57.759-4.152,75.569-26.273,37.748-20.01,100.248-.069,132.071,5.539,7.611,12.23,3.3,19.058.484-16.426-20.476-38.057-82.711-1.123-135.259,9.9-13.969,18.355-38.282,16.5-55.583a31.574,31.574,0,0,0-12.377-21.837c-3.043-2.352-5.218-5.9-5.092-9.739C521.528,96.513,495.33,8.314,398.949,1.313c-2.283-.165-7.342,0-7.129,8.041C391.905,12.589,394.247,13.324,396.842,13.714Z" style="fill:#c0392b"/><path d="M460.505,442.81c-6.283-2.357-17.176-7-24.5-10.169a21.005,21.005,0,0,0-15.4-.5c-6.372,2.276-10.971,3.964-13.183,4.782a211.478,211.478,0,0,0,36.15,16.9c34.04,12.39,63.208,35.638,82.011,66.6,11.821,19.467,21.943,43.3,25.026,70.487a8.805,8.805,0,0,0,8.75,7.811h11.927C568.321,553.761,535.269,467.687,460.505,442.81Z" style="fill:#c0392b"/><path d="M522.9,422.7c-8.16-3.059-16.96-6.6-25.495-10.448a20.915,20.915,0,0,0-14.815-.888c-4.863,1.515-9.649,3.037-14.309,4.544a209.234,209.234,0,0,0,37.483,17.727,160.1,160.1,0,0,1,89.673,80.239V482.591a15.443,15.443,0,0,0-3.289-9.56A159.211,159.211,0,0,0,522.9,422.7Z" style="fill:#c0392b"/><path d="M591.125,397.364c-4.974-2.039-9.832-3.74-14.925-5.814a21,21,0,0,0-11.106-1.266c-6.98,1.113-14.6,2.648-22.616,4.489,15.31,8.4,37.149,14.221,52.96,23.936v-14.9A6.978,6.978,0,0,0,591.125,397.364Z" style="fill:#c0392b"/></svg>