<svg width="600" height="600" viewBox="0 0 600 600" fill="none" xmlns="http://www.w3.org/2000/svg">
<g clip-path="url(#clip0_727_1942)">
<path d="M512.957 257.864C510 263.51 506.437 268.818 502.33 273.693C502.243 273.793 502.178 273.911 502.139 274.039C502.1 274.167 502.089 274.301 502.106 274.433C502.122 274.566 502.167 274.693 502.236 274.807C502.306 274.921 502.398 275.019 502.508 275.094C624.608 202.504 610.872 238.774 488.141 222.507C487.234 222.402 486.873 223.835 487.675 224.218C493.316 226.909 501.028 230.779 507.332 235.401C508.05 235.937 508.6 236.666 508.917 237.504C509.234 238.342 509.305 239.252 509.122 240.129C508.939 241.005 508.509 241.811 507.883 242.452C507.257 243.093 506.462 243.541 505.589 243.745L481.341 250.196C465.58 201.125 428.825 171.177 383.484 150.038C410.254 130.495 428.46 117.231 432.246 114.541C432.986 114.018 433.862 113.719 434.768 113.681C435.673 113.643 436.571 113.867 437.353 114.326C438.135 114.785 438.768 115.459 439.176 116.269C439.584 117.078 439.751 117.988 439.655 118.889C438.943 125.223 437.544 131.461 435.482 137.492C435.437 137.618 435.419 137.751 435.429 137.884C435.439 138.017 435.477 138.147 435.54 138.264C435.604 138.381 435.691 138.484 435.797 138.565C435.903 138.646 436.025 138.704 436.155 138.735C523.767 26.7189 524.125 65.6376 403.719 94.9185C403.534 94.9938 403.378 95.1274 403.275 95.2991C403.172 95.4708 403.128 95.6713 403.149 95.8704C403.17 96.0695 403.255 96.2564 403.391 96.4029C403.528 96.5494 403.708 96.6475 403.905 96.6825C410.138 97.1472 418.729 97.9625 426.277 99.9889C427.14 100.228 427.917 100.709 428.515 101.375C429.114 102.041 429.51 102.864 429.657 103.747C429.804 104.63 429.695 105.537 429.344 106.361C428.993 107.185 428.414 107.891 427.675 108.397L375.667 146.363C346.179 132.945 315.543 122.246 284.751 112.252C255.949 103.672 222.526 95.0213 210.477 63.9189C208.562 58.9699 207.711 53.5931 210.641 48.8295C214.827 42.1867 223.556 42.4277 227.583 49.223C231.942 55.1081 240.511 56.9647 247.218 54.4407C254.932 51.7526 258.267 42.6421 255.234 35.2884C248.133 16.7974 223.531 8.87073 207.195 20.4297C195.496 27.4703 192.749 36.5819 188.953 48.7924C156.857 142.024 124.368 236.335 92.2733 329.57C91.1134 335.789 99.4859 337.355 100.725 330.515C131.999 246.169 156.459 157.963 201.382 79.5537C235.068 126.589 292.713 143.765 340.424 172.089C341.011 174.06 119.651 328.625 125.904 331.153C130.017 330.871 134.789 331.592 138.4 329.238C204.502 280.875 286.619 220.806 347.347 176.431C380.594 198.32 413.433 226.231 426.706 264.733L114.341 347.845C110.138 348.661 105.895 349.261 101.63 349.643C86.1576 352.218 76.8049 342.98 62.5083 341.854C55.8205 341.471 49.1869 343.057 42.9476 345.353C42.1154 345.659 41.8763 347.077 42.9447 347.275C49.4491 348.638 55.3586 352.413 60.0017 357.087C53.7766 357.157 47.5182 356.624 41.326 356.14C37.8588 355.869 34.4119 355.307 31.3286 357.358C28.0628 359.786 26.2859 363.652 24.2159 367.058C15.162 386.24 16.6313 381.824 34.3521 377.346C111.189 356.825 487.186 256.288 507.62 251.13C508.5 250.909 509.425 250.947 510.284 251.238C511.142 251.53 511.899 252.063 512.462 252.774C513.026 253.485 513.372 254.343 513.46 255.246C513.548 256.149 513.373 257.058 512.957 257.864ZM342.569 165.788C325.799 155.402 309.488 147.95 291.198 139.048C290.881 138.892 290.636 138.622 290.511 138.291C290.387 137.961 290.394 137.596 290.529 137.27C290.665 136.944 290.92 136.682 291.242 136.538C291.564 136.393 291.929 136.377 292.263 136.492C313.039 143.744 333.177 152.71 352.468 163.297C349.716 165.527 346.077 168.217 342.569 165.788ZM432.987 263.062C420.093 223.592 386.028 195.069 352.802 172.447C355.143 170.737 357.447 169.054 359.716 167.396C396.047 189.08 432.197 218.302 446.612 259.442L432.987 263.062Z" fill="white"/>
<path d="M381.889 581.571C392.416 572.609 399.748 553.104 388.395 542.136C380.367 535.422 368.007 540.43 363.856 549.162C362.216 552.81 362.965 557.34 360.265 560.525C356.156 565.16 348.666 564.108 344.829 559.654C324.941 520.519 367.577 486.006 390.595 459.269C407.311 440.369 423.594 421.049 438.494 400.675C456.959 374.442 478.601 338.469 483.603 306.358C484.285 303.277 487.135 273.598 483.679 274.64C476.945 276.263 468.911 278.287 462.115 279.935C455.857 280.776 450.085 285.125 449.227 291.661C446.645 326.913 432.815 360.374 414.881 390.512C402.636 409.844 384.463 435.306 369.256 452.407C369.073 452.612 368.821 452.743 368.547 452.773C368.274 452.804 367.999 452.733 367.775 452.573C367.551 452.414 367.394 452.177 367.333 451.909C367.273 451.641 367.313 451.36 367.447 451.119C377.303 433.756 387.514 416.686 398.483 399.979C417.919 369.996 440.197 324.362 437.78 287.922C437.511 284.239 431.918 284.096 431.971 287.879C432.909 324.432 413.746 365.969 393.585 395.85C369.733 434.429 329.51 494.288 324.964 538.819L324.957 538.821C246.351 493.083 180.524 428.661 110.969 370.718C114.741 368.383 118.534 366.084 122.404 363.915C122.605 363.789 122.754 363.596 122.825 363.37C122.897 363.144 122.886 362.9 122.794 362.682C122.703 362.464 122.537 362.285 122.326 362.177C122.115 362.07 121.873 362.041 121.642 362.095C95.2251 370.807 68.6776 379.109 41.9999 387.002C34.4799 389.238 26.952 391.451 19.4162 393.639C18.6544 393.86 18.3549 395.087 19.1801 395.462C41.9588 404.544 45.9433 405.223 64.2181 388.316C63.6468 392.883 62.3943 397.338 60.5026 401.534C60.4121 401.705 60.3725 401.898 60.3885 402.091C60.4045 402.284 60.4754 402.468 60.5928 402.622C60.7103 402.776 60.8694 402.892 61.0512 402.959C61.233 403.025 61.43 403.037 61.6188 402.995C68.3223 402.14 74.5773 399.165 79.472 394.506C88.3064 386.463 99.7971 373.103 112.018 383.318L325.647 568.453C329.805 571.608 333.096 575.442 336.446 579.392C348.27 590.838 369.079 592.009 381.889 581.571Z" fill="white"/>
<path d="M175.828 370.706C183.096 365.311 169.963 360.513 166.343 365.159C161.463 370.239 171.953 372.861 175.828 370.706Z" fill="white"/>
</g>
<defs>
<clipPath id="clip0_727_1942">
<rect width="600" height="600" fill="white"/>
</clipPath>
</defs>
</svg>
