<svg fill="#c0392b" xmlns="http://www.w3.org/2000/svg" x="0px" y="0px" width="100" height="100" viewBox="0 0 50 50">
<path d="M 1.984375 8.9863281 A 1.0001 1.0001 0 0 0 1 10 L 1 40 A 1.0001 1.0001 0 1 0 3 40 L 3 10 A 1.0001 1.0001 0 0 0 1.984375 8.9863281 z M 5.984375 8.9863281 A 1.0001 1.0001 0 0 0 5 10 L 5 40 A 1.0001 1.0001 0 1 0 7 40 L 7 25 L 7 10 A 1.0001 1.0001 0 0 0 5.984375 8.9863281 z M 7 25 C 7 33.822 15.075 41 25 41 C 34.925 41 43 33.823 43 25 C 43 16.178 34.925 9 25 9 C 15.075 9 7 16.178 7 25 z M 43 25 L 43 40 A 1.0001 1.0001 0 1 0 45 40 L 45 10 A 1.0001 1.0001 0 0 0 43.984375 8.9863281 A 1.0001 1.0001 0 0 0 43 10 L 43 25 z M 47.984375 8.9863281 A 1.0001 1.0001 0 0 0 47 10 L 47 40 A 1.0001 1.0001 0 1 0 49 40 L 49 10 A 1.0001 1.0001 0 0 0 47.984375 8.9863281 z M 22.896484 14.998047 C 25.670484 14.998047 28.940984 18.736266 30.333984 23.697266 C 31.353984 27.336266 31.194016 30.962109 29.916016 33.162109 C 29.363016 34.114109 28.6555 34.704062 27.8125 34.914062 C 24.9065 35.650063 21.180016 31.694781 19.666016 26.300781 C 18.646016 22.662781 18.805984 19.035937 20.083984 16.835938 C 20.636984 15.884937 21.3445 15.293984 22.1875 15.083984 C 22.4185 15.025984 22.656484 14.998047 22.896484 14.998047 z"></path>
</svg>