<?xml version="1.0" ?><svg fill="#c0392b" id="icon" viewBox="0 0 512 512" xmlns="http://www.w3.org/2000/svg"><title/><path d="M113.65,242.16c2.73,11.8,7,32.74,7.93,51.17a4.72,4.72,0,0,0,8.07,3.23,42.08,42.08,0,0,0,9.78-15.92,32,32,0,0,0-3.12-26.8c-3.52-5.78-8.72-12.58-15.57-17C117.16,234.53,112.66,237.92,113.65,242.16Z"/><path d="M230.07,121.85a3.49,3.49,0,0,0-4.93,3.63c.9,8.06,4.86,20.45,20.34,23.65a83,83,0,0,1,17.71,5.34,4.82,4.82,0,0,0,6.6-5.56c-1.59-7.52-5.83-16.63-16.77-20C239.25,124.63,234,123.74,230.07,121.85Z"/><ellipse cx="337.15" cy="128.45" rx="9.95" ry="10.26"/><path d="M462.22,436.27A9.11,9.11,0,0,1,448,435c-2.55-3.83-4.88-10-5.06-19.89-.25-14.05,6.89-26.77,12.27-34.32a5.26,5.26,0,0,1,9.31,1.44,109.64,109.64,0,0,1,5.61,27.12,40.53,40.53,0,0,1-2.91,18.91A27.32,27.32,0,0,1,462.22,436.27Z"/><path d="M351,429.87c.39,1.83.86,3.87,1.43,6,4.73,18,22.19,29.31,39.88,25.66l.59-.12a6.39,6.39,0,0,0,4.15-9.14c-4.92-9.89-16.52-26.85-39.15-30A6.27,6.27,0,0,0,351,429.87Z"/><path d="M475.41,109.85c-5-13.64-13.51-28.85-27.85-39.2,0,0-22.58-18.2-30.46-36.85a3.77,3.77,0,0,0-7.19.69,78.89,78.89,0,0,0-1.64,10.36A8.14,8.14,0,0,1,397.6,52C379.35,45.73,339.71,37.54,299,64.42c-4.48,3-3.07,10,2.19,10.82,23.44,3.54,68.71,16.8,92.15,66.29a18.08,18.08,0,0,1,1.53,5c.72,4.93.76,14.22-8.19,17.61a16.3,16.3,0,0,1-12.49-.42,16.91,16.91,0,0,1-5.77-4.17,3.46,3.46,0,0,0-6,2.64c.63,8.48,3.7,19.27,13,30.1a42.43,42.43,0,0,1,10.29,24.55c.91,12.86-2.62,29.2-23,37.73a30.69,30.69,0,0,1-8.58,2.14,61,61,0,0,1-9.85.2c-15.55-1-27.41-14.5-27.58-30.57-.16-15.82-4.52-38.82-25.78-52.68-4.22-2.75-9.66,1.11-8.69,6.17,2.21,11.59,2.36,27.44-12.86,28.89a24.15,24.15,0,0,1-18.42-6.46L44.91,32C36.52,24.37,24.68,35.9,31.6,45c55.34,72.67,146.23,170.06,176,216.23a28,28,0,0,1,4.52,17.44,22,22,0,0,1-3.6,10.64c-8.2,12-26,10.51-33-2.31a45.53,45.53,0,0,1-2.72-6.05,3.26,3.26,0,0,0-6.28.57c-2.46,12.33-2.81,31.87,14.77,44a40.48,40.48,0,0,0,29.62,6.55A87.68,87.68,0,0,1,229.93,331c23.53,1.42,36.33,29.29,21.94,48.56a48.59,48.59,0,0,1-15.19,13.31,49.29,49.29,0,0,1-30.11,6.09c-15.92-1.89-40.94-11-57.16-47a7.31,7.31,0,0,0-13.46,0,58.16,58.16,0,0,0-2.44,6.42,7.28,7.28,0,0,1-11.66,3.55c-13.24-11-35.48-39-34-101.53.2-8.78-11.1-12.14-15.31-4.5-7.68,13.92-14.81,34.62-13.78,62.72,0,0-8.34,2.65-18.56-5.39-4.16-3.28-10.19-.27-10.42,5.13-1.56,36.12,2.62,126.44,79.33,156.14a122.75,122.75,0,0,0,44.36,8H306.83c8.54,0,11.8-11.51,4.59-16.23a56.22,56.22,0,0,0-10.93-5.35,60.75,60.75,0,0,1-12.12-6.06,67.73,67.73,0,0,1-14.71-13c-7.84-9.41-2-24.07,10-25.42a176.09,176.09,0,0,1,36.27-.49c8.35.81,14.63-7.63,11.6-15.69C325.76,385,318.9,372.58,300.14,345l-41.42-67.47c-4.52-7.36,3.93-15.87,10.95-11,28.41,19.62,69.81,49,92.92,69a6.41,6.41,0,0,0,10.52-4,125.51,125.51,0,0,1,4.73-19.6,10.17,10.17,0,0,1,17.11-4,103.14,103.14,0,0,1,14.81,20.44,85.28,85.28,0,0,1,4.64,9.75c1.92,4.67,7,13.93,19.25,21.71a5.49,5.49,0,0,0,8.37-5.24c-.78-9.58-1-24.53,2.71-39.11a8.84,8.84,0,0,1,16.41-2.31,275.38,275.38,0,0,1,12.32,25.45,4.68,4.68,0,0,0,9-1.92V150.89A119.06,119.06,0,0,0,475.41,109.85ZM244.28,238a8.91,8.91,0,0,1-16,5.73l-40-47.72c-3.16-4.13,2.28-9.38,6.07-5.85l47,40.55a9.38,9.38,0,0,1,2.95,6.86ZM215.87,454.35c-3.11,5.55-10.51,7.14-16.54,3.55s-8.4-11-5.3-16.55,10.51-7.14,16.54-3.55S219,448.8,215.87,454.35ZM445.93,221a4.74,4.74,0,0,1-8.05-2.91A90.2,90.2,0,0,0,433,199.7c-5.46-15.29,2.72-25.25,8.9-30.25a3.46,3.46,0,0,1,5.59,2.44c.48,4.43,2.49,9.52,6.17,23.86C456.62,207.15,451.3,215.64,445.93,221Z"/></svg>