<?xml version="1.0" ?><svg fill="#c0392b" data-name="Layer 5" id="Layer_5" viewBox="0 0 600 600" xmlns="http://www.w3.org/2000/svg"><title/><path d="M588.2,10.958c-92.014-.048-253.791,38.768-462.225,190.721-8.926,6.507-27.711,12.044-21.883,26.356,11.272,27.679,6.724,49.6-1,63.729a11.969,11.969,0,0,0,6.672,17.063c50.4,17.117,213.762,75.078,333.87,146.088,43.305,25.6,84.425,55.021,126.239,82.719,4.1,2.718,8.675-2.764,5.24-6.287-83.968-86.1-282.751-183.256-359.85-219.088-4.943-2.3-2.3-10.169,2.912-8.573,151.347,46.376,279.493,134.77,314.917,160.543a3.889,3.889,0,0,0,5.79-4.825c-14.423-30.966-60.837-57.832-58.266-87.907.858-10.025,9.546-4.14,15.847,1.574,1.73,1.569,4.781-.285,3.727-2.368-16.772-33.129-20.013-62.732-20.6-75.01a5.864,5.864,0,0,0-6-5.557c-33.975.634-26-37.447-1.308-34.932a5.8,5.8,0,0,0,6.468-5.418,205.391,205.391,0,0,1,.471-51.754,5.829,5.829,0,0,0-4.048-6.382c-9.722-3.032-24.485-8.25-34.889-11.994a2.947,2.947,0,0,1,.717-5.705l38.105-3.71a5.826,5.826,0,0,0,4.547-2.993c15.73-28.6,34.461-63.938,60.17-93.613,3.26-3.763-.784-9.535-5.662-8.537C381.532,97.147,233.932,181.952,183.542,212.991A49.088,49.088,0,0,0,161.8,242.615c-2.024,7.867-5.087,16.963-9.575,24.368-3.272,5.4-11.558,2.756-11.265-3.548a195.057,195.057,0,0,1,3.285-25.015,53.777,53.777,0,0,1,23.432-35.071C222.066,167.685,387.8,66.511,551.451,42.538c5.5-.806,16.7-3.158,22.557-7.493a2.192,2.192,0,0,0-1.361-3.942c-6.29.115-18.183.384-31.724.946a1.923,1.923,0,0,1-.566-3.783c11.184-2.879,26.182-6,37.85-5.746a11.2,11.2,0,0,0,8.721-3.835L590,15.148A2.521,2.521,0,0,0,588.2,10.958Z" style="fill:#c0392b"/><path d="M534.648,533.989c-49.007-32.472-210.98-134.282-411.1-201.534a4.43,4.43,0,0,0-5.7,5.283c5,19.959,14.327,75.108-13.914,137.473-20.409,45.071-42.992,77.274-76.264,113.831,52.69,0,86.187-1.665,110.651-18.755a3.569,3.569,0,0,0-.372-6.05c-8.475-4.584-15.917-9.213-24.459-14.329-4.283-7.617,21.659,1.691,33.47,5.626a11.829,11.829,0,0,0,9.614-.961c6.742-3.853,20.564-11.064,34.864-14.429a3.308,3.308,0,0,0,2.122-4.8c-10.429-19.64,20.709-20.728,36.932-11.34a10.313,10.313,0,0,0,10.963-.375c73.03-49.228,237.273-2.5,291.043,14.825A2.5,2.5,0,0,0,534.648,533.989Zm-291.8-96.364q-12.227-2.251-24.53-4.081c-8.386-1.266-17.919-.246-24.45-6.753-8.6-7.183-.571-17.793,9.147-15.991l.049-.329c15.818,2.812,32.659,8.257,44.263,19.8C251.326,434.232,247.367,439.113,242.852,437.625Z" style="fill:#c0392b"/><path d="M103.1,349.233a6.183,6.183,0,0,0-6.16,6.882c3.545,30.293-12.539,116.818-65.715,181.713a93.808,93.808,0,0,0-18.817,37.614l-.835,3.494A2.546,2.546,0,0,0,16,581.159c79.092-90.61,93.286-151.134,93.308-225.7A6.213,6.213,0,0,0,103.1,349.233Z" style="fill:#c0392b"/><path d="M45.583,281.454c17.383-7.121,21.864,10.608,29.7,5.1,12.731-7.555,20.2-21.849,16.433-34.783C88.085,236.1,76.23,229.311,58.137,234.637c-17.3,5.09-32.2,12.872-41.253,41.6-4.232,13.436-2.367,28.723,3.831,41.915a2.1,2.1,0,0,0,4-.624C26.016,307.115,30.46,288.111,45.583,281.454Z" style="fill:#c0392b"/></svg>