<?xml version="1.0" ?><svg fill="#c0392b" id="icon" viewBox="0 0 512 512" xmlns="http://www.w3.org/2000/svg"><title/><path d="M47.66,229l1.82,2.05A19.54,19.54,0,0,0,51.39,233c1.34,1.23,2.69,2.45,4,3.64a39.71,39.71,0,0,0,4.3,3.28L62,241.46l1.12.76c.37.26.75.51,1,.67,2.5,1.49,5,2.94,7.56,4.25a181.4,181.4,0,0,0,30.85,12.56,244.9,244.9,0,0,0,31.1,7.42,281.07,281.07,0,0,0,62.91,3.76,292.34,292.34,0,0,0,61.51-10,317,317,0,0,0,57.65-21.61c18.48-9.22,36.17-20.83,51.12-35.74a10.65,10.65,0,0,0-14.16-15.87l-.1.09c-14.24,11.33-30.7,19.91-47.95,26.63a306.48,306.48,0,0,1-53.88,14.95,266.19,266.19,0,0,1-54.89,4.63A246.89,246.89,0,0,1,141.92,227c-17.54-4.35-34.59-10.3-48.54-18.77-1.76-1-3.43-2.16-5.07-3.27a2.38,2.38,0,0,1-.47-.37l-.37-.32-.75-.63a8.93,8.93,0,0,1-1.46-1.27c-.43-.48-.87-.93-1.32-1.37a2.82,2.82,0,0,1-.6-.73l-.55-.76a24.41,24.41,0,0,1-2-3.11,23.67,23.67,0,0,1-2.44-7,30.5,30.5,0,0,1-.48-3.72c0-.63.07-1.26.07-1.88v-.94l.16-.92c.1-.62.15-1.24.22-1.85s.32-1.2.45-1.8a6.88,6.88,0,0,1,.2-.9l.33-.85c.23-.57.36-1.17.61-1.73a25,25,0,0,1,1.74-3.17c.34-.5.6-1,1-1.53s.8-.91,1.18-1.38a7.72,7.72,0,0,1,.56-.72c.24-.2.47-.4.69-.62.45-.43.88-.87,1.3-1.33l4.73-4a29.4,29.4,0,0,1,2.42-1.91l2.47-1.84c1.62-1.28,3.34-2.36,5-3.49a120.29,120.29,0,0,1,21.23-11.34,110.05,110.05,0,0,1,11-3.79c.93-.28,1.83-.49,2.74-.71s1.79-.44,2.67-.62,1.69-.34,2.52-.51l1.1-.18.41-.06.17,0h-.26a23.56,23.56,0,0,0-1.36-47.11l-1.92.08-1.43.09-2.55.23c-1.59.18-3.23.35-4.73.6s-3.07.46-4.54.77-3,.59-4.43,1c-2.93.66-5.77,1.46-8.61,2.29s-5.59,1.82-8.31,2.86A154.57,154.57,0,0,0,74,114.18c-2.38,1.59-4.76,3.18-7,4.94l-3.4,2.59c-1.14.85-2.26,1.73-3.32,2.66l-6.47,5.55c-1.3,1.28-2.6,2.58-3.87,3.89l-1.9,2c-.61.68-1.15,1.43-1.73,2.15q-1.7,2.18-3.33,4.4c-1.05,1.52-2,3.14-2.91,4.72A72.94,72.94,0,0,0,35.21,157c-.67,1.71-1.18,3.48-1.74,5.23l-.8,2.64c-.26.88-.4,1.79-.6,2.69-.36,1.79-.71,3.6-1,5.4s-.35,3.64-.48,5.46l-.17,2.73.06,2.74c.07,1.82.11,3.65.25,5.46a75.53,75.53,0,0,0,1.91,10.76,70.46,70.46,0,0,0,8.48,20.1A64.91,64.91,0,0,0,47.66,229Z"/><path d="M481.37,256c-.1-.92-.2-1.86-.34-2.77s-.35-1.75-.55-2.63a50.8,50.8,0,0,0-8.07-17.79l-.89-1.24a16.84,16.84,0,0,1-2.31-15.63,94.08,94.08,0,0,0,5.41-29.6l.05-4.11c0-1.37-.12-2.74-.19-4.11-.09-2.74-.46-5.45-.79-8.17s-.92-5.4-1.47-8.08l-1.06-4a35.57,35.57,0,0,0-1.22-3.92,78.77,78.77,0,0,0-16.6-28.12,72,72,0,0,0-26.43-18.17,78.15,78.15,0,0,0-7.5-2.35,63.07,63.07,0,0,0-7.61-1.39c-1.27-.15-2.56-.22-3.82-.31a26.6,26.6,0,0,0-3.79-.05,58.5,58.5,0,0,0-7.75.68,10.33,10.33,0,0,0-8.07,6.75,10.92,10.92,0,0,0,2.12,10.62l1.7,2a57,57,0,0,0,4,4.13c1.38,1.25,2.59,2.7,3.83,3.93a21.81,21.81,0,0,1,1.76,2c.56.66,1.13,1.26,1.68,1.88l3.06,3.8a91.91,91.91,0,0,1,9.19,14.95c.63,1.22,1.11,2.53,1.72,3.72.25.64.48,1.29.75,1.9a13.8,13.8,0,0,1,.73,1.88c.22.64.47,1.26.71,1.89s.38,1.29.61,1.91c.47,1.25.78,2.56,1.16,3.83a53.6,53.6,0,0,1,2.26,15.81,47.34,47.34,0,0,1-2.8,15.5,46.4,46.4,0,0,1-3.18,7.13c-.71,1.09-1.33,2.24-2.08,3.31s-1.46,2.18-2.38,3.14l-1.27,1.52c-.41.52-.94,1-1.38,1.45l-1.38,1.46-1.52,1.35c-.52.44-1,.95-1.54,1.35l-1.65,1.27c-.88.77-2.7,1.94-4.21,3s-3.11,2.14-4.69,3.17l-4.79,3c-3.15,2.11-6.45,4-9.68,6-26.14,15.56-54.53,27.86-84.14,37.46-14.78,4.94-30,8.74-45.39,12.28-3.87.8-7.73,1.68-11.61,2.53l-11.72,2.16-5.89,1.13-5.91.94c-4,.63-7.92,1.26-11.89,2l-.4.07a10,10,0,0,0-8.2,9.76,10.23,10.23,0,0,0,9.3,10.05,362.12,362.12,0,0,0,100.84-4c33.64-6.09,67.13-16.26,97.82-32.72a296.35,296.35,0,0,0,35.32-21.83,2.51,2.51,0,0,1,3.88,2.81c-3.89,11.52-13.54,20.2-21.86,25.81a67.57,67.57,0,0,0-5.47,4.16l-.71.6a10.35,10.35,0,0,0-3.63,9.16,10.67,10.67,0,0,0,10.95,9.14c2.41,0,4.83-.2,7.24-.44a37.08,37.08,0,0,0,3.88-.58c1.3-.22,2.59-.49,3.88-.75a34.73,34.73,0,0,0,3.89-1c1.3-.38,2.6-.77,3.89-1.2,2.6-.83,5.19-2.07,7.78-3.18,5.15-2.72,10.38-5.74,15.16-10.61a37.79,37.79,0,0,0,3.48-3.81c.57-.68,1.13-1.36,1.67-2.05l1.52-2.31a33.29,33.29,0,0,0,2.73-4.92,33.77,33.77,0,0,0,2.13-5.39,36.14,36.14,0,0,0,1.38-5.7,34.87,34.87,0,0,0,.58-5.8c0-1,0-1.93,0-2.89S481.45,256.91,481.37,256Z"/><path d="M368.18,321.14l-.15.05L357,324.66l-11.27,3.39q-11.28,3.33-22.6,6.33c-7.55,2-15.08,3.91-22.64,5.62s-15.1,3.37-22.64,4.86c-30.14,5.87-60.37,9.4-89.49,8.43a214.58,214.58,0,0,1-21.53-1.65A192.73,192.73,0,0,1,146,348.05c-1.7-.37-3.36-.85-5-1.26l-5-1.37L131,343.9c-1.71-.58-3.45-1.12-5.12-1.73-3.4-1.17-6.69-2.45-9.94-3.76s-6.36-2.7-9.39-4.12c-6-2.8-11.62-6-16.71-8.73-27.83-15.19-21.26-37.3-21.27-37.38s2.26-10.72-2.13-14a9.93,9.93,0,0,0-13.89,2,6,6,0,0,1-.55.5l-.43.37-.8.68c-.52.45-1,.9-1.49,1.36-1,.91-1.84,1.87-2.72,2.84A49.88,49.88,0,0,0,34.53,312.4a52.31,52.31,0,0,0,.33,9,59.18,59.18,0,0,0,5,17.21c.74,1.61,2.11,4.15,3.72,7a84,84,0,0,1,10.54,35.71,97,97,0,0,0,1.21,10.93,107.29,107.29,0,0,0,9.45,27.08,101.06,101.06,0,0,0,16.63,23.71,96.74,96.74,0,0,0,21.8,17.09,115.88,115.88,0,0,0,23.52,10.25,149.82,149.82,0,0,0,23.33,5.28,226.08,226.08,0,0,0,44.67,1.76,373.5,373.5,0,0,0,42.43-4.71c1.74-.27,3.46-.59,5.18-.89l5.3-1a115.19,115.19,0,0,0,11.4-2.7,123.56,123.56,0,0,0,21.5-8.48c3.42-1.72,6.73-3.62,9.95-5.63,1.62-1,3.2-2.05,4.77-3.11l2.33-1.63,1.91-1.39a163.92,163.92,0,0,1,15.83-10.07,114.21,114.21,0,0,1,34.45-12.95l.21,0a9.93,9.93,0,0,0,8-11.13,10.16,10.16,0,0,0-10.89-8.52,140.27,140.27,0,0,0-42.31,10.41c-6.74,2.72-32.48,15.92-70.51,20.52-10.32,1.25-26.43,2.16-38.94,1s-24.72-2.94-35.68-6.55c-11.75-3.86-20.24-8.93-26.36-14.07-7.9-6.64-2.11-19.46,8.06-17.78a257.73,257.73,0,0,0,46.94,3.43c34.92-.7,68.31-8.47,99.84-19.36,7.9-2.69,15.65-5.76,23.33-8.89s15.21-6.59,22.62-10.26,14.74-7.48,21.91-11.58q5.39-3.06,10.66-6.35c1.76-1.08,3.5-2.22,5.24-3.36s3.41-2.3,5.29-3.59a10,10,0,0,0,3.51-12.19A10.24,10.24,0,0,0,368.18,321.14Z"/><path d="M460.77,316.43c-22,2.93-21.63,20.05-21.68,20.63a63.6,63.6,0,0,1-2,10.86c-8.29,22.27-26,31.43-26,31.43a15.43,15.43,0,0,1-2,1.14l-2,1.08-4.11,2.18-1.05.56a9.91,9.91,0,0,0,7,18.39s37.88-4.76,59.57-38.73a93.82,93.82,0,0,0,6.25-11.53c.85-2.08,1.74-4.12,2.46-6.35.38-1.07.73-2.23,1.06-3.42.17-.58.33-1.17.48-1.88l.23-1,.06-.26.07-.41.12-.83C480.11,327.16,471.82,315,460.77,316.43Z"/><path d="M122.89,303a15.43,15.43,0,1,0,15.42-15.42A15.42,15.42,0,0,0,122.89,303Z"/><path d="M346.51,34.35c-12.66,2.4-34.71,5.86-54.1,5.2a83.25,83.25,0,0,0-47,12.6c-21.22,13.27-45.35,37.61-46.44,79.9a30.61,30.61,0,0,1-6.49,18.35,220.34,220.34,0,0,1-31.12,31.35,13.32,13.32,0,0,0-2.44,17.95A13.06,13.06,0,0,0,177.85,202l20.31-16.94A64.62,64.62,0,0,0,216,161.25c27.38-62.84,81-90.53,83.46-91.79a9.92,9.92,0,0,1,9,17.71c-.53.27-47.41,24.7-72.53,78.32a7.63,7.63,0,0,0,5.88,10.81,88,88,0,0,0,55.49-10.83,100.47,100.47,0,0,0,43.93-50.55c7.23-18,15.88-45,16.18-71.48A9.15,9.15,0,0,0,346.51,34.35Z"/></svg>