<?xml version="1.0" ?><svg fill="#c0392b" data-name="1" id="_1" viewBox="0 0 600 600" xmlns="http://www.w3.org/2000/svg"><title/><path d="M253.808,514.319l48.124-29.431A72.11,72.11,0,0,1,339.4,474.262c14.93-.03,34.588-.731,44.617-3.859,18.3-6.124,88.5-75.62,122.982-111.075a105.925,105.925,0,0,0,25.992-45.056L569.9,183.628a25.63,25.63,0,0,0-.779-16.26l-50.043-128.6a17.278,17.278,0,0,0-15.378-11L314.887,19.851a36.24,36.24,0,0,0-10.843,1.188L245.717,36.561a23.941,23.941,0,0,0-16.655,15.875l-18.2,57.193a29.184,29.184,0,0,1-14.477,17.111l-40.671,20.886a27.686,27.686,0,0,0-13.377,15.179s-7.91,44.5-15.081,41.521-1.047-47.824-1.047-47.824a23.457,23.457,0,0,1,10.776-20.251l33.577-21.566a17.7,17.7,0,0,0,8.034-13l4.45-41.433a4.276,4.276,0,0,0-6.37-4.174c-14.061,8.031-44.732,25.636-57.436,33.617a70.686,70.686,0,0,0-20.957,20.274L10.029,240.55a35.657,35.657,0,0,0-5.966,23.235c1.8,19.512,5.417,57.3,8.778,83.178a64.768,64.768,0,0,0,5.484,19c11.4,24.5,39.647,72.509,52.81,94.57a71.161,71.161,0,0,0,17.486,19.761l29.7,23.048a46.525,46.525,0,0,0,25.56,9.674l91.576,5.845A31.337,31.337,0,0,0,253.808,514.319ZM467.149,203.7l5.543,34.892a6.693,6.693,0,0,1-5.512,7.653L302.323,279.871a4.28,4.28,0,0,1-3.76-7.218L343.85,227.27a42.227,42.227,0,0,1,18.936-11.156L458.758,198.3A6.694,6.694,0,0,1,467.149,203.7ZM113.981,226.748l-1.847,16.1a3.84,3.84,0,0,1-4.522,3.336l-7.749-1.453a3.84,3.84,0,0,1-3.017-2.843l-5.534-22.133a2.924,2.924,0,0,1,3.905-3.431l16.352,6.415A3.841,3.841,0,0,1,113.981,226.748ZM145.74,418.2l-26.405-13.814a9.922,9.922,0,0,1-3.309-14.791C130.185,370.928,196.3,284.48,231.8,243.965a82.461,82.461,0,0,0,20.038-46.278l7.505-106.111a6.978,6.978,0,0,1,7.7-6.255l29.845,3.233a6.98,6.98,0,0,1,6.2,7.559l-5.023,87.1,96.592-90.634a6.333,6.333,0,0,1,7.887-.9l30.618,19.356a6.327,6.327,0,0,1,.4,10.42c-113.737,85.012-253.258,262.456-275.1,293.653A9.919,9.919,0,0,1,145.74,418.2Z" style="fill:#c0392b"/><path d="M588.558,216.052a3.483,3.483,0,0,0-6.789-.53L545.987,335.615A62.125,62.125,0,0,1,530.2,361.983L413.344,477.863a10.118,10.118,0,0,0-2.926,8.342l4.052,35.133a4.3,4.3,0,0,0,7.556,2.289c19.892-23.542,83-95.434,144.826-136.1a16.179,16.179,0,0,0,6.873-9.848l20.962-89.929a53.648,53.648,0,0,0,.921-19.328Z" style="fill:#c0392b"/><path d="M386.732,502.2a7.255,7.255,0,0,0-8.587-5c-14.314,3.305-47.88,11.057-59.261,13.728-21.143,5.379-39.842,16.711-58.526,27.59-9.8,4.156-68.973,1.692-100.7-.81a2.641,2.641,0,0,0-1.482,4.944c18.108,10.034,57.3,29.8,96.974,37.175a21.75,21.75,0,0,0,16.924-4.01c58.209-43.271,107.369-36.187,119.181-36.725,3.533-.161,3.579-.353,3.3-3.809C393.915,527.174,389.413,511.185,386.732,502.2Z" style="fill:#c0392b"/></svg>