<svg fill="#c0392b" xmlns="http://www.w3.org/2000/svg" x="0px" y="0px" width="100" height="100" viewBox="0 0 64 64">
<path d="M 33 5 C 23.867 5 20.370156 10.828703 17.285156 15.970703 L 19.714844 18.029297 C 19.714844 18.029297 24.893 9 33 9 C 42.094 9 47 16.213 47 23 C 47 35.703 40.17275 41.535484 36.09375 45.021484 C 35.11475 45.857484 34.267672 46.58025 33.638672 47.28125 C 32.684672 48.34425 31.899625 49.42375 31.140625 50.46875 C 28.974625 53.44675 27.718953 54.001953 25.001953 54.001953 C 18.062953 54.001953 15.988281 47.779297 15.988281 47.779297 L 13.013672 48.220703 C 13.427672 51.948703 16.465 59 25 59 C 29.88 59 32.268047 55.716313 34.373047 52.820312 C 35.073047 51.857312 35.796281 50.863125 36.613281 49.953125 C 37.065281 49.449125 37.817453 48.8065 38.689453 48.0625 C 42.991453 44.3875 51 37.547 51 23 C 51 14.274 44.691 5 33 5 z M 34 14 C 25.713 14 25.698 24.456297 20 30.154297 C 20 32.272297 22.953 33.014 23 35 C 23.077 38.22 20 39 20 39 C 20 41.298 21.772609 44 24.599609 44 C 27.426609 44 32 40.962 32 35.5 C 32 32.168 30 31.679 30 25 C 30 21.161 31.804484 18 34.396484 18 C 38.169484 18 40 23 40 23 L 42 20.923828 C 42 20.923828 40.092 14 34 14 z"></path>
</svg>