<svg fill="#c0392b" xmlns="http://www.w3.org/2000/svg" x="0px" y="0px" width="100" height="100" viewBox="0 0 50 50">
<path d="M 36.949219 5.9882812 A 1.0001 1.0001 0 0 0 36.849609 5.9980469 A 1.0001 1.0001 0 0 0 36.751953 6.0195312 A 1.0001 1.0001 0 0 0 36.134766 6.4941406 A 1.0001 1.0001 0 0 0 36.064453 6.6484375 C 33.911375 12.389979 30.282055 15.009067 26.814453 16.298828 C 25.871272 16.649641 24.949858 16.889062 24.072266 17.0625 A 6.5 6.5 0 0 0 19 6.5 A 6.5 6.5 0 0 0 19 19.5 A 6.5 6.5 0 0 0 19.533203 19.472656 C 21.176438 19.476702 24.210261 19.401065 27.509766 18.173828 C 29.355414 17.487346 31.260046 16.384954 33.011719 14.789062 L 22.564453 42.648438 A 1.0001 1.0001 0 1 0 24.435547 43.351562 L 37.935547 7.3515625 A 1.0001 1.0001 0 0 0 37.990234 7.1582031 A 1.0001 1.0001 0 0 0 38.001953 7.0605469 A 1.0001 1.0001 0 0 0 38.003906 6.9589844 A 1.0001 1.0001 0 0 0 37.978516 6.7617188 A 1.0001 1.0001 0 0 0 37.814453 6.4003906 A 1.0001 1.0001 0 0 0 37.681641 6.25 A 1.0001 1.0001 0 0 0 37.605469 6.1875 A 1.0001 1.0001 0 0 0 37.521484 6.1308594 A 1.0001 1.0001 0 0 0 37.433594 6.0839844 A 1.0001 1.0001 0 0 0 37.341797 6.0449219 A 1.0001 1.0001 0 0 0 37.246094 6.015625 A 1.0001 1.0001 0 0 0 37.048828 5.9882812 A 1.0001 1.0001 0 0 0 36.949219 5.9882812 z"></path>
</svg>