<?xml version="1.0" ?><svg fill="#c0392b" data-name="Layer 4" id="Layer_4" viewBox="0 0 600 600" xmlns="http://www.w3.org/2000/svg"><title/><path d="M98.824,220c47.505-139.07,233.432-146.022,248.447-67.974,8.413,43.732-29.773,61.639-80.376,41.1-8.871-3.6-33.332-11.605-36.2-13.4-18.446-11.531,31.91-17.6,33.915-18.326,3.619-1.267,2.082-4.858-.868-5.629-32.331,1.761-70.6-1.179-122.7,35.574-4.453,3.141-15.286,13.806-22.484,21.467a1.748,1.748,0,0,0,2.012,2.781c16.184-7.478,47.98-29.435,105.827-5.07,33.2,13.985,62.98,35.016,71.833,40.389,35.691,21.659,76.788,19.045,99.611-17.246,33.352-53.034,11.817-96.363,1.844-112.091-30.249-47.7-74.827-67.945-130.237-66.084-56.2,4.568-98.8,30.187-134.987,66.671-15.255,14.894-29.269,30.648-38.972,49.893-4.018,7.969-13.509,37.685-41.584,54.562-28,16.831-44.865,55.57-28.533,81.4a88.79,88.79,0,0,1,12.542,35.284,2.121,2.121,0,0,0,4.2-.018c1.087-8.525,1.616-21.062-.075-38.418C36.2,244.917,88.357,250.637,98.824,220Zm281.823,10.358a1.017,1.017,0,0,1,1.537,1.234c-3.643,7.932-14.745,25.151-42.219,24.18-17.066-.6-26.751-7.905-31.4-12.871a2.036,2.036,0,0,1,1.886-3.388C351.771,247.967,373.239,235.99,380.647,230.355Z" style="fill:#c0392b"/><path d="M596.782,517.46c-.226-25.017-.928-99.144-1.519-117.879a.689.689,0,0,0-1.356-.145c-24.453,90.393-84.182,146.79-156.684,192.2a1.254,1.254,0,0,0,.663,2.319l66.169-.092a23.045,23.045,0,0,0,15.834-6.287c23.312-22.1,47.638-56.955,54.908-67.667a.933.933,0,0,1,1.69.666c-5.755,40.416-32.667,64.906-40.9,71.545a1.035,1.035,0,0,0,.658,1.84h12.618a11.77,11.77,0,0,0,9.187-4.419c7.554-9.435,25.123-32.424,34.792-53.645A43.512,43.512,0,0,0,596.782,517.46Z" style="fill:#c0392b"/><path d="M594.008,123.291a31.459,31.459,0,0,0-1.958-11.251c-5.755-15.569-25.839-57.957-84.727-100.5a25.532,25.532,0,0,0-14.94-4.867L446.666,6.67a1.953,1.953,0,0,0-.931,3.67c71.257,38.035,118.9,106.194,147.531,180.808Z" style="fill:#c0392b"/><path d="M32.116,588.218A20.76,20.76,0,0,0,44.8,592.461H80.089a1.01,1.01,0,0,0,.438-1.919c-42.957-21.2-54.612-47.339-59.991-66.3a.95.95,0,0,1,1.662-.853c9.609,12.552,42.816,53.207,80.471,68.173a10.4,10.4,0,0,0,3.78.715l24.8.153a.788.788,0,0,0,.28-1.528C112.29,584.028,38.277,553.516,7.166,481.434a1.2,1.2,0,0,0-2.3.483v57.708C5.317,551.226,17.594,577.037,32.116,588.218Z" style="fill:#c0392b"/><path d="M4.267,67.777c-.044,13.8-.311,27.606-.51,42.19C46.539,60.5,98.73,26.7,160.409,6.656A1.206,1.206,0,0,0,160.04,4.3H95.614C91.769,4.455,82.5,7.719,79.177,9.774,67.439,17.036,27.649,42.744,7.25,61.389A8.071,8.071,0,0,0,4.267,67.777Z" style="fill:#c0392b"/><path d="M5,231.363C12.97,207.2,49.392,113.653,148.025,67.047c3.362-1.589,6.673-5.251,4.7-8.9-2.5-4.565-8.229-2.3-11.743-.083q-9.138,5.361-18.165,10.909C77,94.9,35.127,129.258,5.609,173.247a13.239,13.239,0,0,0-2.392,7.783c.066,13.248.032,38.47.012,50.048A.908.908,0,0,0,5,231.363Z" style="fill:#c0392b"/><path d="M593.7,51.6a18.118,18.118,0,0,0-2.154-8.2c-7.975-14.784-18.592-26.775-32.291-35.51a7.8,7.8,0,0,0-4.272-1.194l-17.059.168a.488.488,0,0,0-.3.861c34.437,29.426,49.4,52.813,54.45,61.973a1.075,1.075,0,0,0,2.016-.546Z" style="fill:#c0392b"/><path d="M85.822,256.521c-5.512,5.414-14.711,16.451-14.7,35.644,0,3.312,2.372,5.232,5.621,4.726a10.1,10.1,0,0,0,5.63-2.575c8.393-8.6,23.071-29.448,13.1-39.407C92.843,252.281,88.53,253.862,85.822,256.521Z" style="fill:#c0392b"/><path d="M245.6,39.18c10.073-1.222,9.219-10.421-.69-9.639C235.361,30.548,235.6,40.405,245.6,39.18Z" style="fill:#c0392b"/><path d="M391.6,343.487c-32.862,23.979-33.14,47.239-16.645,42.475C437.213,367.981,413.2,327.722,391.6,343.487Z" style="fill:#c0392b"/><path d="M128.473,568.839c35.965,19.443,88.449,27.594,133.053,26.809,96.057-1.692,160.78-35.63,225.844-93.381,70.137-62.256,153.431-272.124,2.911-411.751-2.463-2.285-6.133-4.25-9.689-6.661a2.852,2.852,0,0,0-3.731,4.258c27.736,30.811,58.633,78.793,62.794,145.416.151,2.416-3.47,2.914-4.426.691C468.385,78.747,378.215,22.492,282.21,27.817c-4.226.235-7.7,4.988-4.133,7.145a10.259,10.259,0,0,0,5.052,1.84c213.217-1.185,287.1,379.835,36.516,392.35-31.661,1.581-37.574,15.114-12.667,24.259,54.673,20.072,105.371-6.147,129.543-13.8a6.772,6.772,0,0,1,7.843,9.988c-10.248,16.507-33.02,43.9-93.733,60.2-64.761,17.39-145.2-20.117-160.277-25.867a4.775,4.775,0,0,0-6.056,6.4c6.69,15.245,29.282,19.161,42.558,28.209,8.151,5.555-9.918,19.1-46.207,3.566-20.592-8.813-33.947-20.606-42.564-32.734-22.714-31.97-4.512-76.405,33.5-86.05,22.961-5.826,45.039-1.588,68.2,19.534,8.055,7.347,15.789-1.6,6.919-21.955C218.662,336.538,101.515,304.38,64.48,389.515,55,411.321,50.715,435.761,52.953,459.062,58.152,513.186,86.712,546.263,128.473,568.839Z" style="fill:#c0392b"/></svg>