<?xml version="1.0" ?><svg fill="#c0392b" data-name="Layer 4" id="Layer_4" viewBox="0 0 600 600" xmlns="http://www.w3.org/2000/svg"><title/><path d="M104.031,384.024c3.951,5.162-3.981,4.73-6.185,1.613-4.508-3.816-45.53-37.446-62.079-51.007a1.7,1.7,0,0,0-2.557,2.142c5.607,9.992,15.2,26.7,19.6,32.129,2.22,2.739,2.555,4.661,1.141,7.807-5.893,13.67-15.113,43.792-7.623,57.164,13.93,18.417,28.614,36.163,44.9,52.568a8.933,8.933,0,0,1,2.865,5.909c1.3,32.65,22.715,65.688,48.343,86.873a12.04,12.04,0,0,0,7.672,2.749h15.578c-30.97-17.525-56.89-47.377-60-82.124a2.555,2.555,0,0,1,4.043-2.3l10.628,7.723a1.338,1.338,0,0,0,1.919-1.8c-31.928-50.227,3.263-68.048,24.352-71.19,3.861-.8,4.034-.746,3.706,3.106-1.967,23.1,9.547,42.812,17.226,53.169a4.223,4.223,0,0,0,7.572-1.944c8.948-64.969,48.961-88.867,88.105-91.851,9.461-.721,6.6-11.238-.074-14.387a57.456,57.456,0,0,0-10.509-4.109c-7.656-2.222-7.7-2.1-8.254-10.072-1.076-31.8,4.489-96.8,47.556-108.626,3.11-.853,6.628-2.166,7.246-5.112,5.032-23.29,9.906-76.714,21.917-76.465S316.9,269.856,312.651,308c-.544,4.881,3.736,8.22,5.729.748,0,0,9.963-50.312,19.59-46.46,27.062,10.831,50.717,36.939,50.753,66.932a2.177,2.177,0,0,0,3.5,1.722c4.635-3.569,21.313-16.705,30.569-23.173a1.481,1.481,0,0,1,2.2,1.834c-7.5,16.057-26.32,46.437-34.6,59.6a17.672,17.672,0,0,1-10.991,7.813s-18.305-.96-34.267,8.1a4.94,4.94,0,0,0,1.929,9.192c61.375,6.625,94.133,47.129,108.006,70.154a4.533,4.533,0,0,0,8.377-1.851c4.13-36.914,33.456-34.374,55.886,1.993a13.842,13.842,0,0,0,13.646,6.653,11.98,11.98,0,0,0,4.343-1.5c11.091-6.432,23.778-22.225,36.594-21.707,19.817.8-84.421,79.879-82.089,87.487.763,2.492,3.852,1.5,5.847.353,9.1-6.5,33.756-26.975,37.906-9.079,4.222,18.208-6.1,35.138-17.362,50.278a2.979,2.979,0,0,0,2.34,4.763c24.259.3,48.41-.041,72.675.074,1.735.125,2.361-.746,2.281-2.374.671-51.23-.236-180.18-.236-180.18-5.145-22.087-19.3-38.716-33.989-46.027a2.6,2.6,0,0,0-3.081,4.077c10.159,11.09,21.254,28.783,22.937,43.195a1.187,1.187,0,0,1-2.226.694,100.5,100.5,0,0,0-37.161-38.413c-2.675-1.6-4.1-1.983-6.79-.283-12.1,7.353-25.434,26.168-32.924,19.017S591.93,284.962,585.1,278.154s-68.576,66.317-81.1,59.44c-8.3-3.7-27.78-8.784-34.783-1.489-5.7,5.277-16.9,21.437-25.18,18.929-8.307-9.251,50.336-67.607,64.821-93.718a3.688,3.688,0,0,0-5.705-4.515c-9.376,8.558-18.2,17.768-30.39,23.487,4.545-46.29-19.293-80.708-27.65-91.2a3.687,3.687,0,0,0-5.63-.185c-6.589,7.32-23.315,25.645-34.909,36.137a3.056,3.056,0,0,1-4.779-3.651c18.391-35.937,72.1-105.649,65.151-109.943-6.434-3.974-39.544,41.067-51.89,49.118-2.253,1.469-5.36-.394-4.838-3.032a3.353,3.353,0,0,1,.821-1.608s28.229-35.665,25.888-38.557c-2.149-2.655-11.742,13.331-27.347,27.1a16.738,16.738,0,0,1-19.149,2.215c-34.848-19.261-75.52-31.289-114.753-24.428-2.82.707-9.033,2.745-9.014,6.416.785,2.815,7.993,1.879,10.553,1.5,25.682-3.812,64.183.615,85.255,14.954a1.921,1.921,0,0,1-1.337,3.5c-25.434-3.67-58.863-9.706-94.772-5.083a7.06,7.06,0,0,0-6.088,8.206c3.231,18.482,10.875,66.721,2.931,68.2-9.833,1.828-36.98-124.866-43.495-148.175-1.754-6.275-5.731-10.043-10.617-13.765-2.321,2.463-2.249,5.3-1.848,8.043,4.17,28.858,9.078,57.6,13.73,86.382.73,4.516.609,4.447-3.572,6.613-16.3,8.086-37.217,27.486-51.427,41.81a33.1,33.1,0,0,0-6.509,37.317c15.172,32.509,42.3,93.032,35.812,96.861-11.9,7.025-85.337-120-111.1-165.447a3.11,3.11,0,0,0-5.747,2.183,84.154,84.154,0,0,0,2.8,10.318c12.729,39.939,28.343,79.255,35.066,120.807.415,2.6-.022,4.147-2.214,5.826-3.726,2.853-9.521,7.506-14.238,11.327a11.83,11.83,0,0,1-15.436-.47c-13.771-12.6-37.534-34.945-55.255-51.669a3.378,3.378,0,0,0-5.061,4.43C49.949,310.991,100.91,379.382,104.031,384.024ZM244.4,289.35a1.864,1.864,0,0,1,3.221,1.792c-11.176,29.6-11.757,63.253-11.469,76.681a6.608,6.608,0,0,1-5.826,6.71l-8.513,1.012C216.567,348.659,226.651,312.775,244.4,289.35ZM116.978,400.974c6.844-.607,10.6,10.743,2.658,11.2C114.555,412.583,108.5,400.924,116.978,400.974Z" style="fill:#c0392b"/><path d="M9.132,581.918l111.557-.044a1.579,1.579,0,0,0,1.022-2.78C87.572,549.586,82.819,514.231,82.4,499.866a18.646,18.646,0,0,0-4.75-11.97L8.86,415.307a2.223,2.223,0,0,0-3.592,2.545c2.634,5.015,11.447,16.765,13.376,20.216,10.039,17.965-5.734,25.5-10.48,40.635A83.7,83.7,0,0,0,4.312,503.3c-.126,24.629-.053,49.259-.049,73.889A4.332,4.332,0,0,0,9.132,581.918Z" style="fill:#c0392b"/><path d="M513.731,50.026c6.992-6.975,14.116-13.21,20.3-20.909,2.246-2.355,2.4-4.581,1.45-6.621-1.938-4.169-8.5-6.286-11.073-2.473a297.841,297.841,0,0,0-15.557,26.253C505.517,51.327,510.078,54.7,513.731,50.026Z" style="fill:#c0392b"/><path d="M64.174,136.588a3.121,3.121,0,0,0,1.941-2.153c.849-2.89-.248-6.979-1.771-10.01-1.663-3.431-7.056-5.815-8.273-1.525C54.153,126.837,59.329,138.143,64.174,136.588Z" style="fill:#c0392b"/><path d="M471.216,561.068c2.688-.306,5.688-2.644,7.664-4.963,2.259-2.575,2.346-7.87-1.629-7.378-3.928-.212-11.474,8.022-8.5,11.487A2.8,2.8,0,0,0,471.216,561.068Z" style="fill:#c0392b"/><path d="M543.766,221.226c2.983-.408,6.265-3.083,8.408-5.714,2.449-2.922,2.415-8.818-2-8.172-4.377-.138-12.572,9.213-9.171,13A3.121,3.121,0,0,0,543.766,221.226Z" style="fill:#c0392b"/></svg>