<?xml version="1.0" ?><svg fill="#c0392b" data-name="Layer 4" id="Layer_4" viewBox="0 0 600 600" xmlns="http://www.w3.org/2000/svg"><title/><path d="M235.249,125.871c2.424,7.736,24.509-2.581,14.13-7.752C245.371,116.3,234.492,120.888,235.249,125.871Z" style="fill:#c0392b"/><path d="M387.428,509.026c2.6,7.678,24.443-3.143,13.948-8.074C397.328,499.223,386.558,504.061,387.428,509.026Z" style="fill:#c0392b"/><path d="M275.067,304.227c1.114,62.156,93.485,62.146,94.59,0C368.543,242.071,276.172,242.081,275.067,304.227Z" style="fill:#c0392b"/><path d="M31.011,282.824c1.394-16.726,6.774-66.19,19.32-76.194,2.581.131,6.276.286,3.139,9.412-7.91,24.722-12.681,55.069-8.827,79.666,10.6-8.72,17.919-15.691,28.936-23.87,43.31-30.577,20.641-14.346,40.66-54.1A57.182,57.182,0,0,1,126.073,203.4c24.131-20.189,48.7-40.056,74.766-57.709,7.029-3.088,4.141-8.961-2.77-6.7-19.939,4.958-46.027,35.347-64.677,30.744C205.41,44.516,385.807,8.067,500.2,96.781c1.683,1.24,3.585,3.032,5.637,1.353C327.207-104.565-22.992,56.848,7.451,326.4,15.861,317.109,31.306,295.358,31.011,282.824Z" style="fill:#c0392b"/><path d="M590.412,335.774c-98.293,75.695-225.053,119.853-351.057,79.909-22.458-7.12-40.735-20.78-28.873-17,131.733,47.372,274.079-3.823,382.935-81.931,4-.544-22.241-22.586-39.418-39.865a12.859,12.859,0,0,0-15.148-1.762c-40.536,25.481-39.06,14.82-14.254,38.588-114.853,88.22-289.69,88.249-404.526-.045C214.66,224.963,352.7,197.161,465.08,270c9.97,5.508,20.948,16.11,32.643,8.481l55.329-32.862a1.911,1.911,0,0,0-1.329-3.522c-11.9,2.227-29.944,3.449-44.758-4.761l0,.007c-117.753-86.916-236.736-98.228-361.927-18.435-2.706,1.794-.241,6.126,2.568,4.391,89.9-56.974,191.988-72.471,288.728-22.292,28.283,13.451,63.6,46.781,36.633,33.3-55.561-26.957-116.979-50-179.692-41.435C190.355,210.255,96.718,267.839,23.846,341.216,6.82,357.453,15,377.291,21.5,396.4,81.333,592.792,361.213,662.643,500.944,510.462c-.541-2.778-3.447-3.654-5.714-2.376a254.674,254.674,0,0,1-151.717,45.783c-22.157.388,1.712-15.6,8.405-20.236,3.83-2.562,16.855-9.107,10.784-14.288-3.485-1.716-8.154,1.418-11.092,2.853a131.268,131.268,0,0,1-17.882,7.848C207.281,553.7,137.974,485.253,111.186,366.818,272.7,468.823,442.344,463.963,593.393,339.9A2.547,2.547,0,0,0,590.412,335.774Zm-432.5,138.474-.024-.033C157.944,474.292,158.078,474.466,157.909,474.248Zm-13.051-2.489c-36.024-36.23-50.49-74.374-59.826-120.919,5.013,3.185,8.535,5.4,12.918,8.065a10.689,10.689,0,0,1,4.956,7.165c8.31,44.584,24.914,77.554,44.319,103.646A1.567,1.567,0,0,1,144.858,471.759Z" style="fill:#c0392b"/></svg>