<?xml version="1.0" ?><svg fill="#c0392b" data-name="Layer 4" id="Layer_4" viewBox="0 0 600 600" xmlns="http://www.w3.org/2000/svg"><title/><path d="M45.2,275.069c-2.25,3.673,2.683,5.855,5.61,3.852,74.082-50.684,123.114-68.841,152.338-77.728,4.381-1.331,12.036,1.376,8.109,3.729-44.06,26.407-140.138,84.24-147.666,90.9-4.7,4.164-4.477,8.9.15,12.943C122.076,356.7,186.39,401.276,258.953,424.159c86.241,26.438,211.3-40.3,282.237-86.538,5.477-2.88,2.48-9.986-4.008-6.244-62.92,36.285-97.905,49.886-125.113,59.836-5.6,2.047-17.382-.39-12.216-3.361,32.041-18.428,81.49-46.548,124.093-69.414,8.334-4.473,9.816-3.929,1.162-12.165C334.065,134.95,253.439,126.151,45.2,275.069Zm90.838,42.409c-5.224-.41-9.865-3.212-13.356-7.641a5.673,5.673,0,0,1-.41-5.255C129.548,295.788,149.779,317.684,136.042,317.478ZM324.76,206.015c24.454,13.788,69.122,31.859,94.615,58.23a3.071,3.071,0,0,1-3.416,4.97c-18.571-8.1-55.835-33.233-102.407-50.515a23.621,23.621,0,0,0-19.6,1.379L254.62,246.073a1.743,1.743,0,0,0,1.618,3.069l36.993-15.072a27.508,27.508,0,0,1,16.439.655c20.192,7.236,72.765,28.041,108.142,59.772,2.822,2.531,3.3,2.981.4,5.623-10.215,8.624-20.551,17.222-31.166,25.34-54.223,37.787-101.449,79.412-171.314,45.932-20.932-10.031-41.914-28.332-53.866-39.728a2.219,2.219,0,0,1,2.527-3.591c26.076,13.142,85.5,41.759,107.978,41.476,8.785-.832,38.946-13.307,58.813-21.861a1.575,1.575,0,0,0-1-2.975c-22.088,5.352-56.919,12.424-69.4,7.347-38.891-12.643-60.444-26.272-94.288-49.907-3.9-2.374-4.194-4.868-.718-8.3,20.578-18.644,44.113-33.831,66.233-50.574,20.71-14.541,40.667-30.471,64.392-39.892C305.664,198.906,315.954,202.052,324.76,206.015Z" style="fill:#c0392b"/><path d="M110.8,165.1c7.766,4.139,12.54-6.615,10.173-15.177C111.381,115.233,63.23,21.3,44.633,5.785,40.01,4.393,37.507,7,38.386,11.6,54.8,36.6,67.636,62.284,75.31,78.9A2.36,2.36,0,0,1,71.3,81.327C58.039,64.169,36.986,37.92,25.123,28.245A12.932,12.932,0,0,0,3.957,40.1C8.993,79.74,94.793,158.065,110.8,165.1Z" style="fill:#c0392b"/><path d="M10.157,579.538c8.326,5.057,16.507-1.787,22.318-7.465,31.871-31.772,73.909-73.123,92.3-118.61,3.339-8.258-4.58-15.041-13.126-12.351a38.374,38.374,0,0,0-11.287,5.759C73.722,465.565,5.993,547.04,3.974,565.263,3.807,572.3,5.4,576.779,10.157,579.538Z" style="fill:#c0392b"/><path d="M575.559,29.465c-6.012,3.942-10.938,9.358-15.734,14.661-16.3,18.755-56.8,56.525-84.655,110.606-3.97,7.705,4.57,14.908,12.821,12.328a47.37,47.37,0,0,0,12.964-6.7c43.088-30.6,88.787-75.582,95.1-117.41C597.475,29.83,585.586,22.659,575.559,29.465Z" style="fill:#c0392b"/><path d="M314.4,17.449c-5.524-16.392-26.572-15.358-30.2-1.06-7.829,28.528-2.635,111.277,18.226,111.277C314.882,127.666,321.93,39.8,314.4,17.449Z" style="fill:#c0392b"/><path d="M283.207,486.117c-11.571,21.139-16.816,82.145-2.805,102.345,6.65,9.28,19.16,7.748,23.594-2.756,1.187-2.813,8.539-73.113-6.825-101.373C294.6,479.61,286.5,480.57,283.207,486.117Z" style="fill:#c0392b"/><path d="M310.287,324.227c7.229-8.257,6.631-26.362,7.229-34.8-.653-10,.284-24.818-8.24-32.992-11.718-11.652-20.63,6.371-22.124,16.7-2.595,16.043-4.286,37.81,6.339,51.307C298.386,329.89,305.459,329.741,310.287,324.227Z" style="fill:#c0392b"/><path d="M528.7,508.426c13.261,17.158,34.314,43.407,46.177,53.082a12.932,12.932,0,0,0,21.166-11.852c-5.036-39.643-90.836-117.968-106.839-125-7.767-4.139-12.54,6.615-10.174,15.177,9.589,34.686,57.74,128.616,76.336,144.134,4.623,1.392,7.126-1.216,6.248-5.818-16.409-25-29.251-50.68-36.924-67.291A2.36,2.36,0,0,1,528.7,508.426Z" style="fill:#c0392b"/></svg>