<?xml version="1.0" ?><svg fill="#c0392b" data-name="Layer 4" id="Layer_4" viewBox="0 0 600 600" xmlns="http://www.w3.org/2000/svg"><title/><path d="M573.054,166.969c-60.12,17.517-125.632,25.787-187.488,35.46a3.181,3.181,0,0,1-2.008-5.938c20.494-11.293,53.567-19.384,91.905-28.728,1.545-.376,4.228-3.465-.606-3.458-29.9.039-98.572,13.318-164.272,34.764C149.071,251.792,64.59,369.729,23.349,454.833a4.252,4.252,0,0,0,4.686,6.023l16.382-3.394c72.172-17.2,147.938,44.634,280.763,2.575C446.156,421.73,478.949,316.8,492.636,280.242s36.837-86.026,84.877-105.331C582.115,173.062,577.815,165.581,573.054,166.969ZM185.941,432.737a283.077,283.077,0,0,1-78.084-24.268,9.727,9.727,0,0,1-3.56-14.524,362.76,362.76,0,0,1,50.588-55.574,2.146,2.146,0,0,1,3.475,2.27c-15.539,44.646,7.543,77.147,28.876,88.848C188.919,430.412,187.838,433.036,185.941,432.737Zm92.16-6.916c-22.618,7.433-75.635,12.97-96.464-35.547a58.325,58.325,0,0,1-4.323-17.312,1.823,1.823,0,0,1,3.419-1.059,46.37,46.37,0,0,0,83.285-2.239A2.963,2.963,0,0,0,260.9,365.5a24.546,24.546,0,0,1-12.334-47.283,2.966,2.966,0,0,0,.723-5.162,46.413,46.413,0,0,0-34.758-8.428,2.1,2.1,0,0,1-1.51-3.827c13.038-8.522,28.194-13.171,43.7-14.607,38.41-3.556,72.54,20.727,77.663,47.686C345.2,390.818,300.57,418.437,278.1,425.821ZM455.422,233.9c-3.46,24.271-18.877,103.4-76.761,148.539l-.056.044a2.408,2.408,0,0,1-3.838-2.369c2.532-12.324,2.358-26.9-1.551-44.129-9.861-43.467-54.847-62.048-88.381-67.282a2.887,2.887,0,0,1-.507-5.572c56.562-20.339,114.129-29.184,164.8-35.614A5.636,5.636,0,0,1,455.422,233.9Z" style="fill:#c0392b"/><path d="M0,7.869V98.7a3.333,3.333,0,0,0,5.214,2.754,329.177,329.177,0,0,1,51-28.58c36.439-16.34,75.487-25.9,113.21-39.013,21.373-7.428,42.643-16.219,62.121-27.658A3.339,3.339,0,0,0,229.828,0H7.869A7.869,7.869,0,0,0,0,7.869Z" style="fill:#c0392b"/><path d="M5.271,198.912C189.911,23.856,412.766,75.277,549.37,7.2A3.8,3.8,0,0,0,547.7,0H441.932a48.716,48.716,0,0,0-14.684,2.28C363.89,22.3,277.162,38.316,209.819,56.871,130.235,78.8,68.04,110.031,22.5,139.069A48.565,48.565,0,0,0,0,180.007v16.64A3.122,3.122,0,0,0,5.271,198.912Z" style="fill:#c0392b"/><path d="M593.825,9.121C429.952,140.366,254.6,43.828,19.032,225.141A48.632,48.632,0,0,0,0,263.66v51.7a3.123,3.123,0,0,0,5.632,1.866c29.807-40.372,117.539-131.785,222.234-156.688a3.613,3.613,0,0,1,2.633,6.646C167.889,203.335,65.266,271.5,8.453,354.431A48.4,48.4,0,0,0,0,381.8v16.144a3.121,3.121,0,0,0,5.847,1.526C47.122,325.431,180.362,141.611,445.493,125.2,491.081,122.373,545,118.236,590.76,95.75c5.1-2.509,9.24-6.555,9.24-12.242V12.069A3.793,3.793,0,0,0,593.825,9.121Z" style="fill:#c0392b"/><path d="M593.611,336.406c-23.125,38.42-68,92.29-157.234,139a2.606,2.606,0,0,1-2.821-4.359c63.023-49.262,126.819-113.227,161.555-184.089A48.232,48.232,0,0,0,600,265.729v-8.566a2.8,2.8,0,0,0-5.314-1.251C552.931,339.33,448.8,520.89,216.366,517.318c-30.732-.472-153.713-8.277-213.456,13.224A4.393,4.393,0,0,0,0,534.677v56.651a4.38,4.38,0,0,0,6.132,4.021c41.058-18.034,98.865-31.273,147.435-33.5a1.053,1.053,0,0,1,.339,2.063C119.514,574.071,95.955,587.866,80.42,600H90.761a48.641,48.641,0,0,0,26.135-7.489,208.67,208.67,0,0,1,28.064-14.884,169.732,169.732,0,0,1,55.49-13.548c109.676-8.335,203.692-33.5,253.242-54.2a2.014,2.014,0,0,1,1.979,3.473c-66.683,49.719-129.573,61.278-180.56,77.675A4.6,4.6,0,0,0,276.527,600H393.635a48.392,48.392,0,0,0,24.472-6.628c35.766-20.957,115.85-72.8,171.824-145.836A48.664,48.664,0,0,0,600,417.943V338.176A3.439,3.439,0,0,0,593.611,336.406Z" style="fill:#c0392b"/><path d="M595.224,497.777c-22.135,25.785-58.69,63.581-107.212,97.272a2.715,2.715,0,0,0,1.54,4.951h9.625a48.49,48.49,0,0,0,29.292-9.844,506.819,506.819,0,0,0,57.9-50.914A48.507,48.507,0,0,0,600,505.532v-5.978A2.717,2.717,0,0,0,595.224,497.777Z" style="fill:#c0392b"/><path d="M555.34,600h41.941A2.72,2.72,0,0,0,600,597.281v-40.57a2.717,2.717,0,0,0-4.718-1.841,458.227,458.227,0,0,1-41.68,40.32A2.72,2.72,0,0,0,555.34,600Z" style="fill:#c0392b"/><ellipse cx="503.133" cy="162.438" rx="3.682" ry="2.871" style="fill:#c0392b" transform="matrix(0.999, -0.049, 0.049, 0.999, -7.413, 25.062)"/></svg>