<?xml version="1.0" ?><svg fill="#c0392b" data-name="Layer 5" id="Layer_5" viewBox="0 0 600 600" xmlns="http://www.w3.org/2000/svg"><title/><path d="M546.308,522.576C454.6,454.3,344.678,522.576,355.6,337.1c.8-13.67,7.93-26.212,17.721-35.787C398.188,277,439.276,219.842,423.63,133.49c-12.8-70.665-113.165-172.441-241.818-92.51-42.2,26.216-74.25,81.945-78.221,131.436a10.087,10.087,0,0,0,3.04,8.016l4.8,4.675a6.742,6.742,0,0,1,.5,9.113L67.112,248.675a7.378,7.378,0,0,0,2.229,11.2l32.2,17.143a13.623,13.623,0,0,1,7.043,9.82L120.6,360.07a11.847,11.847,0,0,0,13.631,9.771C166,364.559,252.136,348.975,263.567,333.6c13.2-16.375,18.217-37.287,25.962-56.464,2.5-6.692,11.286-6.1,16.953-8.644,21.842-6.722,47.055-29.773,53.237-52.432,4.673-17.128-9.487-33.544-27.008-30.674-10.151,1.662-19.837,7.573-27.449,13.607a2.808,2.808,0,0,1-4.03-3.837c13.607-18.753,36.1-38.5,65.525-20.738,34.769,20.992,17.755,93.205-58.025,110.5a10.152,10.152,0,0,0-6.954,6.333L286.622,334.7c-13.472,26.322-43.3,34.047-59.9,38.4a8.959,8.959,0,0,0-6.394,10.933s16.815,65.367-21.608,91.279C138.863,515.686,31.2,496.834,8.256,574.9a9.106,9.106,0,0,0,8.688,11.707L583,588.257a9.109,9.109,0,0,0,7.769-13.883A218.8,218.8,0,0,0,546.308,522.576ZM227.079,184.4l-26.837,11.312a49.767,49.767,0,0,1-28.892,3.108L151.99,195.1c-2.55-.49-3.323-4.418-1.223-6.212l9.119-7.784c11.667-9.96,26.347-13.494,40.339-9.71l26.569,7.185C229.281,179.252,229.484,183.388,227.079,184.4Z" style="fill:#c0392b"/></svg>