<?xml version="1.0" ?><svg fill="#c0392b" data-name="Layer 5" id="Layer_5" viewBox="0 0 600 600" xmlns="http://www.w3.org/2000/svg"><title/><path d="M573.915,48.718C520.6,83.637,470.471,121.534,421.964,161.2a2.849,2.849,0,0,0,2.092,5.038c23.916-2.416,73.3-7.011,70.905.186-2.143,6.43-59.875,15.82-86.626,19.842a51.119,51.119,0,0,0-24.8,11c-52.957,43.376-155.112,143.486-202.7,204.093a3.756,3.756,0,0,0,4.22,5.853c25.12-8.947,85.646-28.807,152.028-38.231a82.789,82.789,0,0,0,42.1-18.828c14.36-12.229,33.441-29.336,45.644-43.65a4.544,4.544,0,0,0-3.486-7.69c-31.568,1.49-117.279,4.758-111.559-4,5.492-8.4,69.4-13.614,108.886-16.066a62.587,62.587,0,0,0,43.966-22.108c27.445-32.525,79.628-102.36,118.251-202.282A4.713,4.713,0,0,0,573.915,48.718Z" style="fill:#c0392b"/><path d="M247.044,246.174c-7.84-29.023-12.982-58.383-19.27-87.827a4.5,4.5,0,0,0-7.861-1.949c-13.871,16.807-37.6,51.179-37.6,51.179,11.049,44.113,11.073,110.9,10.654,135.507a3.467,3.467,0,0,0,6.066,2.356c15.1-17.094,54.38-60.836,85.036-88.59a34.26,34.26,0,0,0,8.755-12.421c13.219-32.346,19.92-118.742,21.835-147.524a5.245,5.245,0,0,0-7.866-4.88c-25.627,14.729-48.245,34.755-57.049,42.944a10.864,10.864,0,0,0-3.417,9c2.14,22.4,7.309,73.355,6.789,101.456A3.088,3.088,0,0,1,247.044,246.174Z" style="fill:#c0392b"/><path d="M166.337,381.619A30.4,30.4,0,0,0,175.673,359c-1.09-51.232-8.279-132.183-8.279-132.183-25.042,38.877-13.075,112.342-34.717,157.928a5.693,5.693,0,0,1-10.647-.9c-3.85-14.076-9.725-35.653-11.9-44.184a1.458,1.458,0,0,0-2.858.165c-2.419,18.833-.509,50.474,1.182,70.839A37.9,37.9,0,0,1,96,442.061C33.748,497.713,18.279,557.6,14.489,581.143a4.928,4.928,0,0,0,7.465,4.964l44.091-27.3a12.785,12.785,0,0,0,6.069-11.572C70.971,527.327,76.662,467.467,166.337,381.619Z" style="fill:#c0392b"/><path d="M340.3,207.421c19.942-17.774,39.787-34.77,60.09-51.936a27.856,27.856,0,0,0,9.158-15.026c4.178-18.131,12.829-59.793,12.8-93.809a5.32,5.32,0,0,0-7.385-4.884c-12.8,5.375-27.431,11.56-36.962,15.594a19.142,19.142,0,0,0-11.54,15.332l-6.1,50.494a2.231,2.231,0,0,1-4.408.141L343.969,59a2.368,2.368,0,0,0-4.694.327c-1.765,39.493-5.369,124.131-4.852,145.563A3.525,3.525,0,0,0,340.3,207.421Z" style="fill:#c0392b"/><path d="M582.95,13.141A587.908,587.908,0,0,0,456.819,29.078a13.2,13.2,0,0,0-10.034,11.166c-3.638,28.245-8.135,55.865-14.343,79.154a4.282,4.282,0,0,0,6.881,4.39c27.022-22.5,98.518-80.669,144.9-105.792A2.585,2.585,0,0,0,582.95,13.141Z" style="fill:#c0392b"/><path d="M328.581,407.783c-6.046-1.679-12.581-.549-18.8-.847l-.016.308c-23.551,1.607-47.18,2.206-70.485,6.321-17.71,4.168-73.466,10.873-81.687,25.375-2.68,4.928,5.138,4.732,8.1,4.071,21.428-6.666,43.033-12.776,65.185-16.594,29.354-5.767,59.105-9.022,88.821-12.263C322.814,413.719,335.241,412.467,328.581,407.783Z" style="fill:#c0392b"/></svg>