<?xml version="1.0" ?><svg fill="#c0392b" data-name="1" id="_1" viewBox="0 0 600 600" xmlns="http://www.w3.org/2000/svg"><title/><path d="M457.355,378.973l-13.4-19.454a31.563,31.563,0,0,0-23.187-13.453c-23.262-2.119-67.355-13.915-69.666-72.69-.409-10.391,3.6-40.138-2.906-81.47-1.63-10.35-5.109-32.167-7.165-45.048a33.41,33.41,0,0,1,2.726-19.417l31.435-67.269a10.861,10.861,0,0,0-4.457-14.038c-26.528-15.1-55.1-30.226-85.846-30.764a22.9,22.9,0,0,0-11.936,3.185C252.208,30.681,175.3,75.993,134.763,104.633a70.6,70.6,0,0,0-13.451,12.409L90.874,153.486a4.493,4.493,0,0,0,2.772,7.321c5.43.832,10.854,1.712,16.255,2.7a14.411,14.411,0,0,0,8.4-.948c17.715-7.763,87.918-38.012,91.188-31.28,3.172,6.528-63.023,45.506-83.346,57.277a18.784,18.784,0,0,1-12.451,2.283l-42.325-6.919a9.749,9.749,0,0,0-11.131,7.7L31.5,334.139a63.956,63.956,0,0,0,7.012,44.1C56.3,409.727,90.481,468.73,113.1,498.264a28.826,28.826,0,0,0,7.287,6.7l30.079,19.379a28.991,28.991,0,0,0,19.9,4.313l198.886-29.121a40.763,40.763,0,0,0,27.658-17.193c17.315-25.116,51.69-75.15,60.755-89.657A12.5,12.5,0,0,0,457.355,378.973ZM331.4,233.238l-78.107,3.327A8.574,8.574,0,0,0,245.084,245c2.542,27.071,11.248,42.5,2.538,83.614-5.221,24.64-2.591,46.429,1,67.241a9.788,9.788,0,0,1-8.6,11.388l-30.25,3.279a9.792,9.792,0,0,1-10.791-8.6c-2.474-21.533-4.123-48.826,1.793-70.008,10.416-37.3.643-78.975-3.913-120.989a11.81,11.81,0,0,1,11.164-13.064l120.63-5.935A329.14,329.14,0,0,1,331.4,233.238Z" style="fill:#c0392b"/><path d="M488.644,329.1l43.478-150.55a11.733,11.733,0,0,0-3.863-12.353c-19.648-16-81.846-66.617-102.208-82.693-4.06-3.635-14.937-2.148-19.075,1.508-12.442,11.715-32.225,35.794-42.374,48.418a21.075,21.075,0,0,0-4.06,18.144l7.289,30.269a9.237,9.237,0,0,0,9.356,7.067l15.53-.632a7.081,7.081,0,0,1,7.343,6.469l2.415,28.073a7.079,7.079,0,0,1-7.045,7.689c-4.265,0-9.537.006-13.739,0a7.687,7.687,0,0,0-7.7,7.347c-.325,7.366-.694,19.171-.4,30.5q.026.969.084,1.933c1.407,23.139,17.912,42.607,40.263,48.754l62.159,17.095A10.237,10.237,0,0,0,488.644,329.1Z" style="fill:#c0392b"/><path d="M383.022,529.021c-37.567,3.525-171.825,17.135-216.231,35.47a4.893,4.893,0,0,0,.759,9.27l35,8.412a37.776,37.776,0,0,0,13.763.731c90.771-11.975,160.767-2.753,186.1,1.635a6.16,6.16,0,0,0,6.88-8.057l-13.24-39A12.532,12.532,0,0,0,383.022,529.021Z" style="fill:#c0392b"/><path d="M549.506,224.6a4.586,4.586,0,0,0-8.394,1.346L519.9,318.306a141.5,141.5,0,0,1-13.292,35.369c-21.681,40.3-66.018,113.9-81.565,139.56a19.953,19.953,0,0,0-1,18.8l15.829,33.835a4.584,4.584,0,0,0,8.1.4c34.019-57.414,77.687-143.257,94.921-177.574a114.3,114.3,0,0,0,9.767-28.1c4.129-19.926,12.733-56.282,16.558-72.307a19.947,19.947,0,0,0-2.337-14.961Z" style="fill:#c0392b"/></svg>