<?xml version="1.0" ?><svg fill="#c0392b" data-name="Layer 4" id="Layer_4" viewBox="0 0 600 600" xmlns="http://www.w3.org/2000/svg"><title/><path d="M284.191,326.4c6.929-3.4,33.332-23.586,19.056-2.195-17.124,30.59-38.923,21.318-50.059,13.439a4.107,4.107,0,0,0-6.509,3.606c3.449,37.11,2.356,58.615.5,70.731a3.281,3.281,0,0,1-6.482.063c-1.994-11.96-4.8-28.026-6.466-34.43-1-3.614-1.666-3.556-4.447-.8C184.224,430.208,118.711,399.6,103.1,456.851c-12.239,42.6-30.774,51.556-54.195,73.174-3.756,3.466.152,9.627,4.866,7.653,31.306-13.1,42.151-41.948,79.021-48.521,16.2-2.889,30.339-10.618,42.665-21.669,2.652-1.894,10.043-7.95,13.186-6.329,4.7,47.238-43.066,44.5-80.034,68.788-22.371,14.7-57.731,45.481-69.452,55.832a2.122,2.122,0,0,0,1.32,3.713c37.037,1.443,101.816.1,136.069.587a22.829,22.829,0,0,0,11.391-2.957c11.387-6.227,22.881-12.26,34.324-18.387,31.2-14.8,55.887-39.492,83.174-60.163,45.435-34.953,112.755-23.341,154.123-65.978,13.33-13.909,17.158-33.675,25.672-50.437,10.812-18.224,15.784-33.3,18-42.1a2.346,2.346,0,0,0-4.089-2.066c-5.313,6.509-11.165,14.479-17.487,16.636-13.561,5.5-28.07-2.154-40.566,5.8C401.2,397.038,402.032,421.8,351.6,442.869c-34.269,11.313-77.525,7.069-103.17,36.838-3.541,3.558-7.116,1.45-4.849-2.949,12.158-31.873,48.773-48.122,81.014-51.195,26.484-1.032,49.771-16.667,52.364-44.961,1.44-24.253,12.106-38.492,20.028-45.823a3.263,3.263,0,0,0-3.147-5.513c-19.463,5.77-27.392,31.532-44.34,32.594-19.72,1.235-25.9-29.048-9.364-55.625,5.363-8.621,13.507-15.217,20.881-22.17,8.631-8.137,14.686-18.052,21.062-27.8,3.414-4.356-2.181-8.668-5.387-4.144-10.949,15.1-19.75,22.174-25.634,25.488a3.039,3.039,0,0,1-4.18-4.021c11.95-24.683.01-50.445,17.4-69.914,39.262-43.942,17.815-86.571,76.535-103.479,8.889-2.257,7.207-9.826-4.986-7.093-14.055,3.151-52.585,14.259-68.766,65.477-10.578,27.558-31.556,34.589-48.471,50.755-3.237,3.526-3.307,3.418-.951,7.542,5.229,10.1,2.313,21.409-4.537,29.784-6.6,8.268-18.664,6.319-22.547-3.568-3.28-8.349-1.014-23.537,7.79-30.138a29.018,29.018,0,0,0,2.554-2.2c12.937-12.295,49.421-29.937,40.967-77.279-4.01-27.536-17.387-44.5,8.1-58.407a1.643,1.643,0,0,0-1.026-3.064c-46.536,6.367-14.96,59.686-48.2,84.775-11.8,8.907-48.468,19.177-52.345,47.259a10.713,10.713,0,0,0,3.33,9.382c4.318,3.934,10.492,12.68,6.335,28.639-6.443,20.671-27.233,14.653-31.591-8.538-2.12-13.065,7.207-23.783,10.354-35.848,7.5-28.763,24.151-34.46,40.923-43.434,42.655-22.822,7.165-53.438,51.144-98.179,8.032-8.448,18.166-14.59,27.216-21.88a60.565,60.565,0,0,1,27.684-11.924c3.194-.741,36.929-5.055,25.424-10.826-53.106-9.9-55.359,28.508-99.161,35.542-50.771,8.153-62.431,28.623-65.085,38.4a19.031,19.031,0,0,1-6.353,9.595c-45.079,37.33-38.6,114.087-34.392,142.474a1.819,1.819,0,0,1-3.457,1.016c-5.178-11.4-12.056-32.5-10.687-62.251a1.814,1.814,0,0,0-3.579-.5c-8.389,36.012,1.644,79.648,24.851,108.657C236.483,316.647,272.568,332.649,284.191,326.4ZM218.614,503.545c-.255-7.939,11.4-11.543,12.079-2.485C230.387,507.508,219.444,512.494,218.614,503.545Z" style="fill:#c0392b"/><path d="M536.538,548.306c19.539-10.4,19.706-22.584,7.26-14.684-26.834,9.038-47.778-5.123-42.561-34.345.807-3.711,1.711-7.4,2.654-11.082,3.506-13.69,8.338-27.954,6.471-41.962-3.511-26.351-10.53-43.339-16.652-23.191-14.907,52.885-47.05,63.919-126.587,81.11-44.813,9.686-65.812,52.422-97.571,81.634a2.4,2.4,0,0,0,1.638,4.156q110.8-.324,221.534-.374C520.458,589.568,507.047,564.005,536.538,548.306Z" style="fill:#c0392b"/><path d="M428.877,170.061a157.3,157.3,0,0,0-18.063,36.188A4.417,4.417,0,0,0,413.436,212a3.514,3.514,0,0,0,4.09-1.689c20.787-40.541,28.925-31.775,60.982-50.6,12.425-7.3,15.184-14.06,18.1-24.389a1.389,1.389,0,0,0-1.379-1.833C476.258,135.771,443.883,147.313,428.877,170.061Z" style="fill:#c0392b"/><path d="M36.627,405.666a3.114,3.114,0,0,0,4.883-.8c22.531-37.468,55.947-46.59,63.274-69.323-1.489-14.188-17.459-3.36-24.727-.248-26.132,13.883-40.136,36.384-45.682,64.852C33.866,402.761,34.842,404.2,36.627,405.666Z" style="fill:#c0392b"/><path d="M523.937,277.567c17.218-11.58,44.477-17.728,51.465-39.931,1.047-3.326-1.5-7.482-4.016-4.82-29.052,30.7-35.742,20-54.26,36.054-13.6,10.378-23.376,29.891-33.1,42.847-2.894,2.82-3.8,10.5,1.119,8.262C509.219,305,507.45,287.8,523.937,277.567Z" style="fill:#c0392b"/><path d="M513.617,180.215c16.135-3.825,25.472-12.676,32.272-27.678,8.224-20.655,26.969-25.371,29.679-36.018a2.485,2.485,0,0,0-3.148-2.934c-40.142,12.109-19.4,26.545-51.981,54.986C518.777,170.065,506.454,180.248,513.617,180.215Z" style="fill:#c0392b"/><path d="M541.336,491.633c-4.258,5.63-1.373,11.556,5.889,10.246,10.232.818,51.273-21.08,29.2-30.015C562.13,471.607,549.652,480.48,541.336,491.633Z" style="fill:#c0392b"/><path d="M377.123,65.2a2.475,2.475,0,0,0,1.8,1.43c2.33.528,5.513-.544,7.838-1.9,2.634-1.488,4.252-5.877.8-6.627C384.345,56.777,375.651,61.439,377.123,65.2Z" style="fill:#c0392b"/><path d="M422.931,310.476a2.474,2.474,0,0,0,1.993,1.147c2.383.178,5.373-1.354,7.471-3.04,2.384-1.862,3.336-6.442-.195-6.672C428.827,301.078,420.918,306.976,422.931,310.476Z" style="fill:#c0392b"/><path d="M53.454,165.338c26.987-8.536,41.769-24.777,51.462-51.168,11.406-36.194,42.725-46.576,46-65.04a4.242,4.242,0,0,0-5.728-4.6C78.376,70.183,115.5,92.154,63.605,144.66,60.964,147.412,41.264,166.294,53.454,165.338Z" style="fill:#c0392b"/><path d="M20.216,563.029c2.771-.163,5.978-2.39,8.134-4.656,2.459-2.512,2.846-7.934-1.255-7.653-4.014-.438-12.211,7.576-9.353,11.295A2.877,2.877,0,0,0,20.216,563.029Z" style="fill:#c0392b"/><path d="M131.67,374.971c2.389-.033,5.232-1.823,7.173-3.688,2.211-2.064,2.755-6.71-.783-6.628-3.433-.532-10.79,6.041-8.477,9.349A2.475,2.475,0,0,0,131.67,374.971Z" style="fill:#c0392b"/></svg>