<?xml version="1.0" ?><svg fill="#c0392b" id="icon" viewBox="0 0 512 512" xmlns="http://www.w3.org/2000/svg"><title/><path d="M253.65,105.22C262.8,97,272.13,89,280.87,80.37c4.2-4.14,8-8.67,12.32-12.7,4.6-4.3,9.16-7.29,11.45-13.37,1.73-4.61-2.71-9.66-7.2-9.57-6.79.13-11.65,4.53-17.35,7.81-5.07,2.92-10.33,5.6-15.15,9A201.57,201.57,0,0,0,235.68,87C224.12,98.94,241.46,116.11,253.65,105.22Z"/><path d="M380,70.16c1.84-1.66,3.66-3.3,5.37-5.1a69.51,69.51,0,0,0,4.53-5.94c3.08-4,7.95-10.65,3.3-15.36-4-4-11.11-.82-14.71,2.36-1.41,1.24-.72.38-3.11,1.8a24.38,24.38,0,0,0-3.36,2.74c-2,1.75-3.92,3.61-5.81,5.52a10.12,10.12,0,0,0,0,14C370.15,74.12,376.1,73.73,380,70.16Z"/><path d="M457.22,157.91c-17.54,5.08-33,18.94-45.76,31.58-12.06,12,6.14,30.23,18.46,18.71,13-12.18,27.16-27.16,33-44.49C464.1,160.27,460.48,157,457.22,157.91Z"/><path d="M466.82,31,412.35,75.64l-26.7,21.89c-4.27,3.49-8.43,7.11-12.66,10.66-1.17,1-8.34,8.73-12.25,7.16-3.46-1.38-3.76-3.75-2.13-8.46,1-2.84,2-5.18,2.15-7.41.73-8.37-9-13.51-15.74-8.45-2.54,1.93-4.82,3.74-5.68,4.51-15.17,13.5-31.82,21.65-49.55,27.32-20.81,6.67-39.74,16.66-49.51,37.45-4.72,10.05-7.31,21.22-12.94,30.82-4.18,7.11-12.69,16.67-21.92,13.51-10.39-3.54-12.41-17-11.81-26.44a100.56,100.56,0,0,1,3.29-21,17.56,17.56,0,0,1,8.42-10.59l.06,0c10.41-5.63,1.16-21.68-9.25-16C120.07,171.62,53.28,238.66,34.73,326.63c-4.95,23.46-4.6,63.32,1,86.71,4.76,19.84,20.33,36.58,35.87,49.8,14.76,12.56,38.16,19.4,57.44,19.64,55.37.67,80.93-6.76,102.83-16.57,40.13-18,83.33-44.51,101.08-87.88,1.75-4.26-1.35-9.19-5.19-11.07a7.84,7.84,0,0,0-9.31-.12c-5.66,3.61-14.06,9.62-21.17,7.83-7.41-1.86-7.4-11.28-5.75-17.25,3.93-14.31,15.16-29.84,27.12-38.3,13-9.2,27.49-15.2,38.75-26.89s19-25.92,26.57-40c3.95-7.37-4.17-16.5-11.68-11.83-5.67,3.53-16,9.92-23,6.67-8.28-3.86-1.93-16.41,1-21.78,11.82-21.51,26.8-41.41,41-61.33q44-61.69,87.91-123.52C484.9,32.76,473.23,25.75,466.82,31ZM220.32,307.33c-11.18,18.25-9.77,41.09-12.26,61.58-2.59,21.28-7.22,45.49-27,56.27-24.15,13.2-59,8.56-72.8-4.31C66.53,382,98.19,318.47,136.76,294.56c11.21-6.94,23.16-7.32,36-7.14,13.09.2,23.37-3.59,34.49-10.26,4.62-2.77,9.27-6.43,15-6.05a13.07,13.07,0,0,1,11.49,9.35C237.26,292.48,225.73,298.49,220.32,307.33Zm71.89-26.63c-2.17,18.34-13.5,36.95-26.09,50.21-4.82,5.07-13.4,4.84-18.24,0-5.25-5.25-4.44-12.87,0-18.24a196.05,196.05,0,0,1,18.86-19.27c6.38-5.86,11.94-11.74,19.37-16.2C288.52,275.75,292.58,277.56,292.21,280.7Z"/></svg>