<?xml version="1.0" ?><svg fill="#c0392b" data-name="Layer 4" id="Layer_4" viewBox="0 0 600 600" xmlns="http://www.w3.org/2000/svg"><title/><path d="M105.375,445.885a119.044,119.044,0,0,1,13.412,24.95,12.345,12.345,0,0,0,3.066,5.072c3.8,2.946,8.888,3.464,13.2,5.463a128.091,128.091,0,0,1,20.875,9.976,2.478,2.478,0,0,0,2.356.425c3.191-.94-.855-9.21-1.138-11.705A120.236,120.236,0,0,0,142.194,447.1c-9.575-14.406-24.02-26.8-41.54-29.539-4.262-.156-11.884-2.386-14.3,2.153a3.981,3.981,0,0,0,.825,4.218A174.989,174.989,0,0,1,105.375,445.885Z" style="fill:#c0392b"/><path d="M222.664,117.664c2.881-8.549-9.873-4.971-10.4.555C210.948,125.136,220.676,121.624,222.664,117.664Z" style="fill:#c0392b"/><path d="M423.559,81.868c-19.1,8.792-39.766,21.694-44.63,43.66-2.271,15.171-1.2,35.131-16.5,43.052a26.124,26.124,0,0,1-28.479-2.851c-35.131-29.84,60.238-67.37,31.742-105.479-15.8-22.858-83.3-16.757-75.376-35.672,6.173-14.744,20.2-16.885,20.912-20.919.478-2.724-3.876-1.072-5.71-.348C292.283,7.4,249.339,31.951,273.3,46.42c6.191,3.163,13.68,2.4,19.674,6.067,9.682,5.923,10.424,19.371,6.913,29.068-7.773,19.675-30.456,25.881-46.263,37.414-13.474,9.87-40.038,30.7-38.909,48.721.269,7.07,1.782,13.941,1.534,21.056-5.686,68.315-82.815,38.125-31.579-39.16,15.2-19.806-2.685-10.887-23.9,10.554a91.781,91.781,0,0,0-26.712,62.417c0,.144-.009.287-.009.431,0,28.138,32,38.748,19.795,69.6-12.544,32.208-12.635,53.087,4.38,74.659,2.939,3.545,6.341,10.729,11.862,7.656,8.131-10.9,8.773-30.728,22.05-37.719,7.23-3.316,15.389-4.953,21.441-10.488,17.258-14.809,32.609-58.143,34.666-64.144.884-2.578-2.908-3.98-4.272-1.8-9.6,17.333-13.563,21.12-12.367-.047,1.192-15.5,8.87-29.145,17.03-42.006a149.011,149.011,0,0,1,21.534-26.855c2.055-1.462,10.86-12.541,10.628-4.967-4.578,36.074,14.854,36.58,10.343,77.091a4.029,4.029,0,0,0,6.915,3.245c23.651-24.319,47.808-11.964,60.347-41.2a3.088,3.088,0,0,1,5.827.368c6.973,25.613-8.7,46.682-17.951,61.07-2.083,3.241,3.42,6.443,6.167,3.742C367.1,276.779,404.017,234.6,402,178.808c-1.419-39.194-22.694-56.918,24.695-91.139C431.533,84.751,430.6,77.585,423.559,81.868Z" style="fill:#c0392b"/><path d="M453.113,229.305c-9.069-12.392-19.577-26.63-20.9-29.316-1.968-4-5.094-14.46,7.087-26.827,1.957-1.987-.933-5-3.1-3.1-7.4,6.463-13.607,17.343-11.9,26.386,3.484,18.5,32.731,37.721,25.233,61.005-3.247,10.083-17.28-33.881-29.919-43.154a5.181,5.181,0,0,0-8.2,4.046c-.386,21.091-11.007,62.289-42.871,81.6-13.268,8.042-10.3,51.819-46.067,59.7-75.989,16.747-67.789-51.764-85.861-27.7-18.736,35.392-43.817,12.2-55.977,67.787a3.308,3.308,0,0,0,5.579,3.042c1.948-1.977,4.506-5.163,7.214-8.3,5.4-6.255,14.119-7.671,21.8-4.62C397.612,463.935,504.005,319.223,453.113,229.305Z" style="fill:#c0392b"/><path d="M334.915,310.432c-.4-9.012-11-1.066-9.5,4.278C326.691,321.633,334.492,314.843,334.915,310.432Z" style="fill:#c0392b"/><path d="M400.6,451.775a37.568,37.568,0,0,0-23.454.086c-79.492,33.856-110-51.988-179.55,6.4-2.669,3.2-6.368,9.77.6,10.141,53.955-9.394,98.52,28.263,145.744,47.9-6.11,6.41-16.167,1.078-23.018-1.291-8.707-3.01-17.377-6.177-26.136-9.036-33.359-6.627-67.173,27.307-100.446,26.337-4.323-.518-5.735-2.373-9.034-5.022a212.006,212.006,0,0,0-30.065-20.113c-30.112-15.9-75.634-33.477-103.279-4.754-2.593,2.681-1.214,7.415,2.72,7.656A161.023,161.023,0,0,1,161.152,560.1c6.426,7.362,14.159,16.9,25.245,14.6,60.4-10.018,122.712-27.407,179.234-16.022a89.146,89.146,0,0,1,16.827,7.563,103.735,103.735,0,0,1,31.663,30.267,3.04,3.04,0,0,0,4.06.922l2-1.167c-6.086-11.6-12.489-20.611-22.327-28.372a.848.848,0,0,1,.866-1.442c9.79,4.075,21.248,15.392,24.133,18.318,2.622,2.66,4.645,5.8,8.665,6.237,4.063.438,7.792-2.43,11.257-4.145q6.073-3,12.284-5.721c31.31-13.308,74.106-23.4,90.93-54.845a3.923,3.923,0,0,0-4.236-5.685C481.48,532.266,440.612,466.18,400.6,451.775Z" style="fill:#c0392b"/></svg>