<?xml version="1.0"?><svg fill="#c0392b" data-name="Layer 4" id="Layer_4" viewBox="0 0 600 600" xmlns="http://www.w3.org/2000/svg"><title/><path d="M580.085,235.559c-13.09,12.05-38.5,20.775-36.833-.632-.2-18.9,3.493-40.3,12.94-54.35,1.293-1.943,3.628-3.987,3.1-6.528-2.166-10.822-52.088,11.792-60.775,13.5-59.667,19.217-76.313-24.821-88.17-6.607-20.236,33.833-50.668,38.722-57.141,40.381-20.443,4.741-30.334,17.706-44.531,43.173a2.379,2.379,0,0,1-4.467-1.179V253.96c-.7-14.2,9.816-27.961,20.781-36.117,10-7.985,24.767-6.745,35.7-13.469,19.834-12.649,33.576-29.363,47.768-47.753,3.556-5.438,17.659-23.774,15.453-27.323-3.762-8.683-21.719,17.685-33.786,9.811-4.52-3.462-5.53-9.806-7.558-14.957-10.587-33.171-3.968-71.716,13.133-103,1.782-3.994,5-7.346,6.39-11.422.151-8.763-11.654-3.958-16.871-3.551C323.493,16.528,261.683,48.935,232.541,103c-8.854,15.928-12.221,33.5-16.568,50.887-8.748,31.328-18.006,58.253-35.31,81.21C150.7,277.205,98.5,256.048,91.97,208.677c-1.863-9.971-1.684-19.823-1.745-30-.257-6.546-7.178-6.694-10.407-2.026A147.323,147.323,0,0,0,50.6,218.968c-18.469,40.494-23.657,92.267-5.841,132.809a7.875,7.875,0,0,0,6.676,4.981,8.141,8.141,0,0,0,4.917-1.231c13.625-8.267,39.38-23.563,60.139-33.972a2.361,2.361,0,0,1,2.789,3.712c-11.284,12.273-22.952,24.577-34.237,36.476-12.9,13.579-26.183,27.663-38.962,41.6-1.381,1.432-3.1,3.214-3.011,5.114.589,3.449,3.991,3.8,6.6,2.338,25.283-11.5,52.685.927,66.705,18.744,11.085,11.308,19.673,29.969,16.021,45.423-3.8,19.148-22.9,26.024-39.029,17.927-15.336,3.058,16.916,26.419,24.564,28.052,38.079,14.379,110.161,13.523,120.06,69.139.586,7.173,8.128,7.186,10.554.3,4.382-8.985,4.171-20.617,3.7-30.541,3.347-34.363-24.03-55.468-41.7-70.792-9.989-9.6-22.425-16.738-31.5-27.169-4.017-5.425-4.6-12.26-5.689-18.7-2.884-17.3-5.716-32.169-12.1-47.442-1.76-4.342,4.5-5.983,7.935-5.226,24.655,5.429,28.573,35.659,31.923,40.26,7.549,10.367,35.34,7.358,71.065,26.967a1.778,1.778,0,0,0,2.254-2.665,60.692,60.692,0,0,0-25.7-18.315c-15.459-5.843-18.169-15.014-17.331-18.073a41.581,41.581,0,0,0,1.37-8.434c3.1-50.418-39.756-177.539-6.861-173.173,2.325.875,2.868,3.964,3.424,6.29,3.4,14.519,5.93,30.078,8.961,44.806,3.272,15.973,7.262,31.562,10.928,47.313,2.144,9.223,6.943,25.493,3.353,31.2-.764,1.776-4.285,1.947-6.7,2.7a1.02,1.02,0,0,0,.268,1.988c46.7,2.676,81.443,13.3,95.843,20.21,3.1,1.244,5.043,2.055,6.389,2.49a1.571,1.571,0,0,0,1.874-2.213,27.012,27.012,0,0,1-2.153-5.011c.6-3.639,5.579-6.734,9.261-10.779,16.515-16.813,36.623-38.4,56.1-48.556,14.019,9.474-9.115,28.862-16.159,36.58-10.909,10.939-22.18,22.206-31.859,34.581-20.494,21.725-16.249,47.537-16.249,47.537-.425,78.109-25.47,46.695-25.476,109.109,0,0,.555,22.306.491,32.759a5.034,5.034,0,0,0,7.543,4.414c9.4-5.542,20.113-17.079,26.282-22.8,38.756-44.154,93.085-16.211,128.887-72.259a91.118,91.118,0,0,0,6.489-12.238c1.361-2.2,2.135-6.228-2.04-7.708-2.092-.5-3.8.855-5.5,1.722a92.9,92.9,0,0,1-21.584,8.2c-42.525,9.009-63.07-29.231-36.322-61.363,9.979-12.287,24.52-19.694,38.582-26.858,38.631-17.063,69.517-51.262,76.3-94.192-.235-11.716-12.028-12.613-19-5.108-14.013,12.881-23.047,31.3-44.788,32.98-7.978.983-15.707-.219-23.661-.147a79.633,79.633,0,0,0-11.851.95c-7.188,1.511-12.937-7.831-7.95-13.374,18.821-1.837,38.413,2.921,53.874-11.243,14.506-13.921,22.653-32.889,43.97-39.694,19.161-4.092,43.258-10.026,51.811-28.94C588.018,235.892,584.374,232.284,580.085,235.559Zm-287.7-10.838c-5.486,75.676-.557,108.758.023,140.3a3.731,3.731,0,0,1-4.014,3.5l-19.305-1.4a3.7,3.7,0,0,1-3.4-3.619c-.487-23.648.03-54.38.2-63.236-.463-14.889,4.893-81.758,19.593-83.11C289.192,217.039,292.729,221.125,292.385,224.721Zm11.845-63.8c.282-11.972,5.867-23.092,11.2-33.795,2.637-5.585,7.748-15.343,13.785-15.6,8.773-.753,10.379,10.919,9.195,17.084-1.517,14.846-9.643,26.94-22.631,35.262C310.53,167.334,303.081,171.043,304.23,160.918Zm39.7,144.746c-6.059,19.649-6.231,42.6-9,62.869-1.356,8.731-.052,11.557-9.809,8.181-3.908-1.464-12.142-3.83-16.07-4.929-1.894-.515-2.542-2.561-2.036-4.335,4.465-30.711,10.05-64.74,22.768-90.544,4.9-8.515,9.342-20.186,17.6-21.282,3.647-.058,5.639,3.551,5.82,7C352.25,277.088,347.874,291.875,343.935,305.664Z" style="fill:#c0392b"/><path d="M549.5,398.5c-16.981,1.706-35.957,12.848-44.561,27.751-5.492,9.91,6.8,12.624,14.443,8.938A56.988,56.988,0,0,0,542.3,418.812a69.32,69.32,0,0,0,8.856-14.283C552.714,402.2,553.423,398.339,549.5,398.5Z" style="fill:#c0392b"/><path d="M456.158,97.556c1.8-2.672.84-8.015-3.127-7.386-4.426-.088-11.265,10.1-5.14,12.658C451.047,103.282,454.323,100.383,456.158,97.556Z" style="fill:#c0392b"/><path d="M21.806,426.859c-3.434.242-7.841,4.181-8.022,8.694.677,7.384,8.316,2.453,10.737-1.147C26.464,431.837,25.8,426.448,21.806,426.859Z" style="fill:#c0392b"/></svg>