<svg width="600" height="600" viewBox="0 0 600 600" fill="none" xmlns="http://www.w3.org/2000/svg">
<path d="M280.744 599.995C486.066 600.975 521.997 455.28 530.958 401.542C531.071 400.872 530.956 400.184 530.63 399.589C530.305 398.993 529.788 398.524 529.164 398.258C528.539 397.992 527.843 397.943 527.188 398.121C526.533 398.298 525.956 398.691 525.552 399.236C511.488 418.087 479.927 452.391 454.848 421.285C428.398 388.477 469.221 321.088 478.902 294.722C515.254 195.72 341.302 180.807 310.813 140.921C279.794 100.343 349.271 50.498 380.595 30.9327C381.406 30.4244 382.023 29.6603 382.35 28.7615C382.676 27.8626 382.694 26.8804 382.399 25.9706C382.104 25.0608 381.514 24.2755 380.722 23.7391C379.93 23.2027 378.982 22.9459 378.027 23.0095C221.828 32.8826 79.5105 178.431 184.014 207.662C278.796 234.182 277.02 290.887 248.45 317.422C229.163 334.663 189.671 361.907 163.911 355.667C131.992 347.936 149.382 313.547 160.187 296.692C160.601 296.036 160.799 295.266 160.751 294.492C160.703 293.718 160.412 292.978 159.92 292.379C159.427 291.78 158.758 291.351 158.008 291.153C157.257 290.956 156.464 291 155.74 291.28C91.7721 315.992 57 359.099 57 420.555C56.9938 535.118 176.517 596.376 280.744 599.995ZM344.46 263.007C356.161 260.511 361.522 265.222 361.485 278.418C355.896 308.822 331.342 313.83 318.802 314.36C317.776 314.407 316.751 314.246 315.788 313.887C314.826 313.529 313.945 312.98 313.2 312.273C312.454 311.567 311.858 310.718 311.448 309.776C311.038 308.834 310.822 307.82 310.813 306.793C310.836 279.903 334.396 265.403 344.46 263.007ZM276.395 407.501C330.377 409.972 353.056 369.325 360.594 350.644C360.939 349.776 361.516 349.019 362.261 348.456C363.006 347.892 363.891 347.543 364.82 347.446C365.749 347.35 366.687 347.51 367.532 347.908C368.377 348.307 369.097 348.929 369.613 349.708C381.433 367.592 405.239 412 384.772 455.163C362.502 502.132 326.438 526.576 286.533 527.318C253.478 527.666 221.785 514.55 209.22 487.581C191.341 449.205 211.636 404.535 276.395 407.501Z" fill="#c0392b"/>
<path d="M534.311 12.2509C520.813 4.68043 488.524 17.6933 477.766 29.2426C465.383 42.5528 473.903 59.3896 494.183 58.9931C533.969 56.5352 558.708 25.9344 534.311 12.2509Z" fill="#c0392b"/>
</svg>
