<?xml version="1.0" ?><svg fill="#c0392b" data-name="Layer 5" id="Layer_5" viewBox="0 0 600 600" xmlns="http://www.w3.org/2000/svg"><title/><path d="M565.694,354.75c-52.982-24.454-112.7-16.215-168.55-7.724a2.952,2.952,0,0,0-1.82,4.811l26.969,31.684a1.28,1.28,0,0,1-1.614,1.939c-8.976-5.217-59.6-50.675-81.348-70.344a10.2,10.2,0,0,1,.338-15.784c13.875-11.754,52.707-23.156,67.467-29.048a5.019,5.019,0,0,0-1.715-9.675c-25.1-1.022-71.695,15.71-83.774,22.611a8.878,8.878,0,0,1-10.387-1.156c-5.009-4.565-26.4-26.994-26.4-26.994,19.5-24.113,64.79-50.465,102.143-61.883a2.892,2.892,0,0,0-.562-5.649c-39.473-3.6-90.2,20.862-122.913,48.175l-69-63.194a14.4,14.4,0,0,1,.713-21.846C214,135.6,248.981,108.566,272.032,97.32c11.7-5.578,23.5-10.944,35.233-16.455,3.375-1.585,4.583-3.788,3.92-6.673a5.521,5.521,0,0,0-6.6-4.062c-54.414,4.609-146.483,69.232-146.483,69.232s-27.86-26.115-42.6-36.106c-7.775-3.661-13.758,4.057-18.779,8.918C59.677,152.2,14.408,213.345,12.154,271.2a3.99,3.99,0,0,0,7.532,2.019c15.356-29.845,53.1-99.887,84.66-131.751a13.891,13.891,0,0,1,19.626-.117l18.441,18.189c-49.321,56.077-70.937,107.636-72.4,145a2.891,2.891,0,0,0,5.521,1.327c33.112-72.484,67.811-107.357,83.72-120.654a12.939,12.939,0,0,1,16.813.156L194.328,201.3s-59.311,78.679-74.594,131.25c-1.914,6.585,6.952,10.648,10.683,4.894,25.611-39.494,59.865-81.96,76.691-102.239a15.41,15.41,0,0,1,22.032-1.741l16.988,14.916c-42.65,47.938-66.2,103.554-60.255,137.476a2.892,2.892,0,0,0,5.618.358c6.028-20.093,23.709-67.222,65.7-107.693a15.52,15.52,0,0,1,21.461.2c6.759,6.679,14.833,14.727,17.7,17.865a8.9,8.9,0,0,1,1.108,10.524c-12.36,21-53.4,93.355-28.564,87.767,9-2.025,10.089-10.867,12.732-19.1,8.55-26.644,17.353-37.844,28.322-49.518a10.172,10.172,0,0,1,13.768-.971c14.86,11.906,46.737,39.62,43.99,56.272-3.82,23.163-8.679,46.03-13.629,68.929-13.257,61.327,13.746,108.022,25.585,124.83a1.964,1.964,0,0,0,3.54-1.5c-1.207-6.17-2.787-14.454-3.68-20.006a2.018,2.018,0,0,1,3.267-1.885c6.018,4.846,14.395,14.436,18.152,18.862a1.941,1.941,0,0,0,3.247-.452c3.14-6.86,11.155-24.769,14.255-35.37,5.085-17.389-38.321-75.468-27.928-82.8s57.423,90.8,68.181,66.773c3.854-12.994,4.973-26.145,1.4-39.427-4.846-18-45.125-57.3-37.961-63.292s36.88,30.952,51.884,34.32c69.336,15.564,65.88-23.084,59.836-27.708-14.645-17.882-57.138-40.972-51.636-47.085s33.4,15.955,46.39,23.087c15.788,7.051,38.849-2.772,51.616-12.257C600.5,371.508,574.961,358.354,565.694,354.75Z" style="fill:#c0392b"/><path d="M134.649,88.511a18.59,18.59,0,0,0,24.535,1.029C200,56.484,246.333,41.129,275.045,34.291c5.6-1.334,4.964-9.546-.776-9.978-57.149-4.3-117.148,21.7-144.882,50.551a6.268,6.268,0,0,0,.225,8.833Z" style="fill:#c0392b"/><path d="M354.955,118.462c-39.738,5.553-84.563,24.89-120.782,53.317a5.761,5.761,0,0,0-.616,8.5l13.564,14.29a5.756,5.756,0,0,0,8.2.145c11.193-10.954,45.271-41.533,101.89-68.729A3.973,3.973,0,0,0,354.955,118.462Z" style="fill:#c0392b"/></svg>