<?xml version="1.0" ?><svg fill="#c0392b" data-name="Layer 4" id="Layer_4" viewBox="0 0 600 600" xmlns="http://www.w3.org/2000/svg"><title/><path d="M219.256,361.316a33.036,33.036,0,0,0,27.6,18.086c11.143.625,26.119,1.605,37.2,2.855a2.6,2.6,0,0,1,.417,5.083c-11.718,3.176-24.656,10.533-33.7,16.334a29.448,29.448,0,0,0-13.333,21.278c-4.93,41.065-3.9,83.484-32,170a2.52,2.52,0,0,0,2.389,3.3h2.878a6.759,6.759,0,0,0,6.361-4.456c3.52-9.72,11.967-33.934,18.034-58.542a.947.947,0,0,1,1.866.269l-2.639,57.425a4.675,4.675,0,0,0,4.669,4.893l116.122.381a7.327,7.327,0,0,0,7.214-8.684C354.1,545.1,350.3,491.765,345.618,448c-.193-13.731-10.746-45.767,15.431-64.282,21.222-15.009,22.54-60.871,21.222-93.4-.325-8.018-1.781-22.2-11.663-21.963-7.329-.656-39.532,13.61-55,20.7A26.123,26.123,0,0,0,300.792,307.7c-2.145,10.933-2.754,25.438-2.876,36.019a1.989,1.989,0,0,1-3.837.717c-4.858-11.946-15.275-28.657-36.753-35.793a21.409,21.409,0,0,1-10.573-7.555c-3.537-4.817-3.777-8.013.72-8.5,50.223-5.4,67.051-25.736,72.653-37.756a6.3,6.3,0,0,0-5.722-8.994c-35.247.112-73.176-1.518-92.9-2.515-8.054-.406-15.4,5.3-16.322,13.312C199.859,302.664,208.1,339.334,219.256,361.316Z" style="fill:#c0392b"/><path d="M358.03,176.578c-4.5.864-6.669,3.312-7.407,7.782-4.181,19.828-8.44,52.724-7.017,70.4.3,3.7,1.879,4.117,5.378,3.088,12.534-3.687,19.788-7.705,23.784-10.581a12.257,12.257,0,0,0,5.007-8.333c1.8-13.6,2.919-33.121,4.478-45.273C382.815,180.229,369.663,174.372,358.03,176.578Z" style="fill:#c0392b"/><path d="M205.023,182.713c-.2,9.179-.335,23.643.493,33a10.1,10.1,0,0,0,10.46,9.217c2.022-.082,4.042-.115,6.058-.057,16.291-1.067,13.45-37.967,12.779-43.743-.731-9.291-9.775-12.723-19.044-11.143A13.127,13.127,0,0,0,205.023,182.713Z" style="fill:#c0392b"/><path d="M312.655,228.767c7.454.8,15.329-5.035,16.793-13.465,1.555-8.952,7.741-36.577-1.924-40.2a39.723,39.723,0,0,0-15.588-2.962c-9.106-.5-11.979,6.943-13.142,14.665a183.688,183.688,0,0,0-2.707,30.9C296.313,228.616,304.088,228.4,312.655,228.767Z" style="fill:#c0392b"/><path d="M267.3,171.492a15.419,15.419,0,0,0-13.57,12.528c-1.649,8.806-2.408,20.932-2.63,30.495A11.068,11.068,0,0,0,262.119,225.9c11.223-.036,26.332-7.3,20.833-48.589C282.155,171.323,274.13,170.808,267.3,171.492Z" style="fill:#c0392b"/><path d="M179.757,405.6,13.081,550.386a23.272,23.272,0,0,0-7.84,18.7c.667,12.448,11.331,22.022,23.8,22.022h.813a23.259,23.259,0,0,0,16.926-7.3c22.082-23.428,149.011-160.476,149.872-161.473C206.36,411.091,190.9,395.771,179.757,405.6Z" style="fill:#c0392b"/><path d="M571.522,6.548H570.15a23.256,23.256,0,0,0-16.927,7.3c-23.182,24.6-140.169,147.7-140.169,147.7-9.933,11.252,5.6,26.72,16.784,16.855L586.919,47.268a23.272,23.272,0,0,0-15.4-40.72Z" style="fill:#c0392b"/><path d="M299.807,117.053a11.856,11.856,0,0,0,11.764-10.387L321.59,26.423A21.952,21.952,0,0,0,299.807,1.75h0a21.953,21.953,0,0,0-21.784,24.673l10.02,80.243A11.855,11.855,0,0,0,299.807,117.053Z" style="fill:#c0392b"/><path d="M29.88,310.112l80.243-10.02a11.855,11.855,0,0,0,10.387-11.764h0a11.856,11.856,0,0,0-10.387-11.764L29.88,266.545a21.953,21.953,0,1,0,0,43.567Z" style="fill:#c0392b"/><path d="M570.12,266.545l-80.243,10.019a11.856,11.856,0,0,0-10.387,11.764h0a11.855,11.855,0,0,0,10.387,11.764l80.243,10.02a21.953,21.953,0,1,0,0-43.567Z" style="fill:#c0392b"/><path d="M120.844,557.1h.441a7.8,7.8,0,0,0,6.2-3.067l92.635-121.993a4.508,4.508,0,0,0-7.049-5.617L114.848,544.311A7.8,7.8,0,0,0,120.844,557.1Z" style="fill:#c0392b"/><path d="M586.919,550.386,420.243,405.6c-11.139-9.829-26.6,5.491-16.892,16.732.861,1,127.791,138.045,149.872,161.473a23.259,23.259,0,0,0,16.927,7.3h.812c12.466,0,23.13-9.574,23.8-22.022A23.272,23.272,0,0,0,586.919,550.386Z" style="fill:#c0392b"/><path d="M46.776,13.85a23.252,23.252,0,0,0-16.925-7.3H28.478a23.272,23.272,0,0,0-15.4,40.72L170.162,178.4c11.18,9.865,26.717-5.6,16.784-16.855C186.744,161.259,69.959,38.445,46.776,13.85Z" style="fill:#c0392b"/><path d="M546.475,489.188a7.8,7.8,0,0,0,6.741,1.545l.43-.1a7.8,7.8,0,0,0,2.865-13.828L433.619,384.915a4.508,4.508,0,0,0-5.1-.209h0a4.508,4.508,0,0,0-.453,7.309Z" style="fill:#c0392b"/><path d="M165.908,195.077a4.507,4.507,0,0,0-1.625-4.839L41.736,97.891A7.8,7.8,0,0,0,29.258,104.5l.022.44a7.8,7.8,0,0,0,3.366,6.042l126.371,86.566A4.507,4.507,0,0,0,165.908,195.077Z" style="fill:#c0392b"/><path d="M490.026,24.992a7.8,7.8,0,0,0-6.2,3.067L391.193,150.051a4.508,4.508,0,0,0,7.048,5.618L496.463,37.778a7.8,7.8,0,0,0-6-12.786Z" style="fill:#c0392b"/></svg>