<?xml version="1.0" ?><svg fill="#c0392b" data-name="Layer 4" id="Layer_4" viewBox="0 0 600 600" xmlns="http://www.w3.org/2000/svg"><title/><path d="M196.879,358.47a249.955,249.955,0,0,1,29.713,31.848c3.378,4.306,7.492,8.258,13.195,8.852,7.124.744,14.264-3.329,20.667-5.894,14.041-5.625,28.374-10.916,43.648-11.467,3.079-.112,4.987-4,2.6-6.28-18.231-18.156-25.262-46.06-49.6-58.086-36.627-24.307-31.342-49.469-86.3-66.526-3.148-1.011-5.947,2.191-5.188,5.187,2.305,10.991,6.28,22.133,6.143,33.454-.772,11.189-3.191,22.289-3.753,33.5a12.053,12.053,0,0,0,1.274,6.068c.167.378.688,1.809.374.577C174.6,342.385,187.618,349.183,196.879,358.47Z" style="fill:#c0392b"/><path d="M154.527,217.019c-1.9-1.581-5.428.5-3.824,2.832,14.85,19.344,40.855,24.033,60.447,37.046a96.69,96.69,0,0,1,15.39,13.859c6.23,7.033,11.1,15.092,21.139,16.491,18.33,3.821,66.79-13.585,64.646-35.787-1.646-8.406-10.847-8.334-17.546-7.669-11.186,1.11-22.44,2.067-33.685,1.323-17.571-1.213-33.916-9.568-51.462-10.179C187.98,236.728,172.416,227.724,154.527,217.019Z" style="fill:#c0392b"/><path d="M315.964,346.857a140.8,140.8,0,0,0-37.871-40.173c-2.349-1.655-5.384,2.071-3.138,4.067,7.515,6.675,15.015,13.072,21.089,21.164,6.106,8.132,11.034,17.059,16.285,25.746,6.08,10.126,12.776,19.669,21.811,27.481,7.544,7.5,20.4,21.018,30.026,8.947,5.4-6.937,6.411-17.04,10.327-24.828,8.086-16.083,27.249-23.39,33.191-40.894,4.179-10.608,2.08-44.677-14.378-41.9a2.862,2.862,0,0,0-2.29-.027c-8.59,3.254-17.662,4.317-26.811,4.188-13.269-.186-26.238-3.591-39.549-3.075-6.021-.61-36.922,5.487-30.267,15.268,10.231,11.6,27.288,27.282,23.265,43.722A.919.919,0,0,1,315.964,346.857Z" style="fill:#c0392b"/><path d="M204.13,176.319c14.239-2.753,29.29-.747,41.055,7.813a1.988,1.988,0,0,0,3.133-1.83c-2.647-38.219-31.146-48.54-46.746-9.338A2.354,2.354,0,0,0,204.13,176.319Z" style="fill:#c0392b"/><path d="M225.876,187.513c-7.058-3.259-29.481-3.8-29.543,6.673-.218,6.277-.4,16.607.067,22.183a3.742,3.742,0,0,0,3.637,3.636c9.876.572,20.017,1.386,29.614,3.843,3.488.893,15.859,6.2,18.986,1.39C251.121,207.509,251.36,198.575,225.876,187.513Z" style="fill:#c0392b"/><path d="M314.063,193.422c-15.007-11.131-29.991-11.592-44.527-1.555-5.425,4-2.447,11.682-2.766,17.4.271,4.933-.018,10.7,1.37,15.471,4.7,13.019,31.763,3.382,43.13,7.938,8.6,1.732,5.6-17.477,5.975-22.662C316.4,204.67,318.671,197.271,314.063,193.422Z" style="fill:#c0392b"/><path d="M269.033,178.187c31.423-17.2,45.195,4.816,46.173-5.854-1.438-45.914-47.779-65.9-49.132,4.109A2.007,2.007,0,0,0,269.033,178.187Z" style="fill:#c0392b"/><path d="M331.3,189.541c.614,8.406,15.3-3.681,36.715,7.851,7.423,2.3,3.712-9.491,3.435-13.251-1.737-9.129-7.913-16.272-15.15-21.726-5.729-4.317-13.975-10.6-21.372-6.524-7.019,3.864-5.783,10.766-4.925,17.424C330.693,178.706,331.106,184.118,331.3,189.541Z" style="fill:#c0392b"/><path d="M346.481,270.982c8.215-5.244,13.133-14.484,16.923-23.161a106.966,106.966,0,0,0,7.508-25.411,9.782,9.782,0,0,0-3.321-9.14c-8.161-6.922-20.154-8.81-30.079-6.566a8.263,8.263,0,0,0-6.719,7.283c-1.548,15-5.733,38.924-6.352,42.859C319.916,274.932,332.487,279.036,346.481,270.982Z" style="fill:#c0392b"/><path d="M387.862,272.307c10-5.091,19.077-12.558,24.552-22.473a4.518,4.518,0,0,0-.282-4.782c-5.542-8.866-13.708-11.786-24.2-8.4-2.856.636-4.416,3.212-4.887,5.931-2,7.152-5.622,13.623-7.75,20.689C372.222,271.889,380.566,277.231,387.862,272.307Z" style="fill:#c0392b"/><path d="M385.438,218.629c1.13,9.273,13.839-2.03,28.341,8.864,7.726,3.34,4.079-11.38,3.5-15.132-2.343-10.149-7.968-22.11-17.616-27.194-4.994-2.632-10.561-2.367-13.184,3.237C382.771,198.087,385.646,208.294,385.438,218.629Z" style="fill:#c0392b"/><path d="M282.467,403.251c-18.207,7.768-38,8.514-46.645,8.411a4.668,4.668,0,0,0-4.721,4.247c-2.144,22.741-10.69,44.323-16.255,65.651-1.381,5.472-3.958,12.046-.957,17.3,8.684,20.212,69.568,68.2,70.087,54.274,1.954-47.3,3.165-93.626,5.653-140.879C289.626,407.243,287.52,401.1,282.467,403.251Z" style="fill:#c0392b"/><path d="M305.041,559.813c40.062-12.626,90.311-50.609,85.93-59.632-4.161-15.7-8.629-31.378-11.347-47.4-1.793-11.214-3.8-21.508-13.166-29.012-5.547-4.447-13.009-7.108-19.426-10.047-11.238-5.124-22.54-10.12-33.985-14.767a3.749,3.749,0,0,0-4.6,2.613c-6.137,41.932-5.239,84.539-6.773,126.8C302.236,533.562,298.192,561.666,305.041,559.813Z" style="fill:#c0392b"/><path d="M197.986,512.2c-4.744,1.511-7,7.172-8.968,11.262-4.195,8.727-2.485,16.887,5.433,22.636,88.371,65.115,122.19,59.575,213.463,2.319,3.369-3.031,3.662-6.851,3.156-11.175-.532-4.545-.054-12.624-3.7-16.012-6.925-6.434-16.387,4.593-21.591,8.626C320.751,582.583,280.1,595.178,217.427,528.5,211.486,522.7,208.429,509.441,197.986,512.2Z" style="fill:#c0392b"/><path d="M109.162,149.452c5.736,5.2,9.816,13.555,16.261,17.843,31.943,21.256,37.424,29.662,46.88,37.729,2.595,2.215,7.217-.665,5.045-3.892-7.047-10.473-14.584-20.656-22.105-30.791-10.8-14.661-25-26.069-35.341-41.116-24.4-28.492-81.748-71.8-109.39-104.075C7.541,21.868,3.118,26.6,5.747,29.916,38.84,71.639,69.411,113.442,109.162,149.452Z" style="fill:#c0392b"/><path d="M70.86,51.554C82.873,65.44,100.66,68.85,115.129,79c14.375,10.087,22.133,27.529,31.232,41.983,5.208,8.275,10.635,16.292,16.6,24.042,5.847,7.6,20.232,28.552,26.269,23.6,5.052-4.147,6.363-11.444,9.911-16.944,1.858-2.879-1.932-6.917-4.847-4.848s-6.42,6.123-9.877,5.178c-6.934-1.9-9.07-9.273-12.158-14.156-5.255-8.31-10.672-16.517-15.866-24.866C116.572,35.069,87.588,78.728,47.872,9.477c-1.117-1.777-4.452-.63-3.571,1.5C50.625,26.318,60.077,39.089,70.86,51.554Z" style="fill:#c0392b"/><path d="M487.562,518.543C500.039,530.258,513,541.17,524.9,553.535c6.868,7.136,12.767,15.092,19.605,22.293,6.894,7.261,14.928,12.746,22.065,19.713,2.6,2.543,6.332-1.442,3.874-4.062-5.938-6.331-10.388-13.681-16.557-19.777-19.534-17.265-38.191-35.321-54.364-55.834-34.995-40.636-76.822-74.4-114.6-112.327-2.5-2.312-5.964,1.365-3.634,3.812C418.274,443,449.507,484.024,487.562,518.543Z" style="fill:#c0392b"/><path d="M426.194,334.351c-23.5,17.721-35.054,44.808-10.95,67.627,58.4,56.113,119.6,109.908,171.566,172.318,2.24,2.726,7.043-.92,4.933-3.807-12.437-17.023-22.618-35.2-32.965-53.514-22.867-48.123-75.914-60.655-105.958-101.4-5.658-8.045-9.994-17.728-17.809-23.957-2.807-3.172-5.791-6.094-8.287-8.68-3.76-3.9-9.094-7.9-10.429-13.382-2.305-11.957,6.387-23.061,13.262-31.843C430.985,335.717,428.179,333.018,426.194,334.351Z" style="fill:#c0392b"/><path d="M10.916,588.542c13.905-8.521,24.556-20.632,34.374-33.406,26.82-27.9,51.333-58.449,83.73-80.214,29.238-17.924,48.958-45.224,76.308-65.35,3.549-2.68.258-8.742-3.577-6.119-25.6,18.266-45.751,41.936-71.175,60.516-7.664,5.905-15.32,11.725-22.753,17.832a2.677,2.677,0,0,1-4.128-3.182c5.958-13.526,38.386-41.191,54.7-55.727,10.145-10.316,40.248-28.471,27.441-44.835-7.717-9.422-17.452-17.738-26.1-26.316-2.4-2.377-5.839,1.171-3.668,3.668,4.707,5.416,9.764,10.679,14.507,16.147,10.631,22.716-22.716,34.7-37.166,45.181C67.018,454.893,50.757,525.866,5.332,581.3,1.705,584.975,6.373,591.327,10.916,588.542Z" style="fill:#c0392b"/><path d="M592.111,38.365c-39.3,33.624-73.331,79.1-127.147,88.878a1.775,1.775,0,0,1-1.812-2.906c1.739-1.881,18.279-15.665,25.784-19.551,25.776-13.353,47.282-30.953,64.89-54.05,10.839-14.458,19.514-30.859,33.632-42.477,2.629-2.131.5-5.795-2.293-4.242-24.695,13.741-17.35,29.605-73.335,72.839-41.224,25.809-87.779,27.214-116.082,71.966-1.233,1.828-.248,4.192,1.394,5.316,9.283,6.359,20.449,14.037,26.114,23.966,2.459,4.311,4.312.476,6.631-3.876C442.6,150.37,501.8,125.221,516.866,115.2c30.129-20.019,52-49.366,78.393-73.687C597.365,39.476,594.292,36.612,592.111,38.365Z" style="fill:#c0392b"/><path d="M131.166,198.605c-7.269.956-.626,9.435,3.939,10.112,3.508.209,4.584-1.356,4.244-3.994C138.8,201.209,134.426,198.177,131.166,198.605Z" style="fill:#c0392b"/></svg>