<?xml version="1.0" ?><svg fill="#c0392b" data-name="Layer 4" id="Layer_4" viewBox="0 0 600 600" xmlns="http://www.w3.org/2000/svg"><title/><path d="M15.318,110.375c2.128,5.553-13.2,9.721-9.363,20.252,1.89,6.187,5.742,11.075,10.228,15.485,2.549,2.507,4.562,2.47,7.474.534,24.559-18.7,41.575-25.615,65.487-5.532C196.761,231.5,160.88,311.967,143.256,339.4a6.774,6.774,0,0,1-11.951-1.028c-8.818-20.992-27.944-67-37.55-93.78-8.577-29.381-12.5-61.332-19.6-91.178a6.909,6.909,0,0,0-3.689-4.61,22.31,22.31,0,0,0-2.146-.912,1.5,1.5,0,0,0-2.014,1.669c2.594,14.186,6.675,34.937,8.544,49.691a.487.487,0,0,1-.94.229L54.79,149.052a2.6,2.6,0,0,0-2.484-1.656c-5.933.088-12.03,4.705-15.249,7.569a4.587,4.587,0,0,0-1.261,5.046c16.02,42.644,31.571,85.464,47.426,128.168,9.569,26.1,20.216,51.837,29.5,78.017,1.767,6.19-2.979,8.1-7.073,11.6-7.652,5.887-5.142,19.212,1.43,24.426,1.832,1.454,3.139,1.247,5.172.012,7.87-4.777,15.766-9.576,23.984-13.7,70.09-33.274,127.354-41.777,200.121-14.587,104.093,38.894,148.713-4.837,163.855-24.728,2.223-2.92,2.791-8.24-.79-7.436-42.064,9.442-78.985,8.946-110.966-1.095a1.661,1.661,0,0,1,.5-3.249c35.451.372,147.5-6.614,189.056-106.231a2.45,2.45,0,0,0-3.576-2.948c-14.509,8.831-54.063,30.736-94.973,34.486-51.833,4.751-81.622-39.524-111.521-51.083a2.607,2.607,0,0,1,.741-5.02c12.323-1.041,33.3.58,59.369,15.915,89.186,52.451,147.711-35.774,156.984-52.239a2.871,2.871,0,0,0-4.094-3.789c-34.5,22.708-67.22,25.183-83.485,24.673a3.2,3.2,0,0,1-1.39-6.025c45.862-24.428,77.811-33.86,92.647-98.883a2.818,2.818,0,0,0-5.078-2.219c-61.3,90.188-135.5,62.545-196.382,47.987a3.271,3.271,0,0,1,.651-6.45c166-6.458,194.757-66.028,208.045-106.531a2.494,2.494,0,0,0-4.041-2.626c-95.37,85.459-158.339,54.995-158.339,54.995,31.839-7.541,51.311-20.174,61.022-28.07a2.489,2.489,0,0,0-2.2-4.337c-29.31,7.555-120.347,25.942-218.255-5.889-19.661-6.392-73.9-26.9-146.675,12.743C111.24,54.732,75.426,72.734,48.25,94.95c0,0-2.973-19.953-3.8-30.27-1.039-12.95-15.464-14.352-20.8-10.873A44.471,44.471,0,0,0,4.793,74.083a10.112,10.112,0,0,0-.041,8.137C8.33,91.584,11.763,101,15.318,110.375ZM323.87,277.922c19.437.127,29.939,5.3,35.559,10.3a7.107,7.107,0,0,1-4.389,12.416c-12.473.443-28.556-6.417-37.525-12.166C310.872,283.188,314.821,277.863,323.87,277.922Z" style="fill:#c0392b"/><path d="M211.357,488.368c28.764,35.749,62.546,70.362,91.31,91.739A20.665,20.665,0,0,0,315,584.2h14.725a854.4,854.4,0,0,1-159.99-176.07,11.213,11.213,0,0,0-11.846-4.584c-10.229,2.458-26.176,8.638-19.565,22.607a916.622,916.622,0,0,0,50.464,91.031,536.246,536.246,0,0,0,34.383,48.791,47.045,47.045,0,0,0,36.743,17.789l10.925.041S225.7,531.4,207.7,490.594A2.158,2.158,0,0,1,211.357,488.368Z" style="fill:#c0392b"/><path d="M533.168,331.514c10.984-4.152,13.531-14.608,5.569-15.8-5.165-.771-12.05,6.338-12.095,11.519C526.6,331.643,528.954,333.107,533.168,331.514Z" style="fill:#c0392b"/></svg>