<?xml version="1.0" ?><svg fill="#c0392b" data-name="Layer 5" id="Layer_5" viewBox="0 0 600 600" xmlns="http://www.w3.org/2000/svg"><title/><path d="M116.409,433.848c-.29,63.468,70.429,95.386,96.822,100.686,168.292,33.788,237.061-27.1,258.711-71.967,20.609-42.712,8.585-120.942-87.955-98.147-18.95,4.475-36.225,12.418-52.748,22.925a5.457,5.457,0,0,0,.987,9.682c34.116,13.106,64.048-2.567,75.161,2.139,13.37,4.877,2.539,69.317-107,10.867C180.526,346.072,116.782,352.5,116.409,433.848Zm196.26,41.521c21.947-39.592,57.741-15.567,57.666,4.733-1.751,12.7-7.309,23.618-19.166,29.715C329.452,520.984,301.927,494.747,312.669,475.369ZM210.576,413.083c19.978,1.152,20.182,30.363-1.5,30.68C187.833,443.184,191.2,413.477,210.576,413.083Z" style="fill:#c0392b"/><path d="M260.508,331.475c8.573-36.926-45.357-38.711-46.468-3.2C214.48,356.071,253.172,354.83,260.508,331.475Z" style="fill:#c0392b"/><path d="M356.652,300.947c1.881-25-33.2-23.209-34.988-2.566C319.388,321.157,354.092,321.84,356.652,300.947Z" style="fill:#c0392b"/><path d="M198.6,247.619C126.191,284.927,93.317,330.756,78.491,362.632,62.924,396.1,63.274,421.727,63.408,425.273c.054,42.071,14.323,77.388,42.412,104.969,28.361,27.846,69.776,47.134,123.1,57.33A382.283,382.283,0,0,0,300,594.583c.3,0,.869.009,1.695.009a389.7,389.7,0,0,0,69.389-7.02c53.32-10.2,94.735-29.484,123.1-57.33,28.089-27.581,42.358-62.9,42.412-104.969.134-3.546.484-29.172-15.083-62.641-14.826-31.876-47.7-77.7-120.113-115.013a102.383,102.383,0,0,1-55.05-93.338l.647-23.863a14.326,14.326,0,0,1,10.845-13.386c.126-.033.247-.072.373-.106l.05-.015c16.529-4.592,26-15.781,26-30.76a33.147,33.147,0,0,0-33.11-33.11h-7.16l5.258-26.885A17.408,17.408,0,0,0,332.166,5.407H267.834A17.408,17.408,0,0,0,250.75,26.156l5.258,26.885h-7.16a33.147,33.147,0,0,0-33.11,33.11c0,15.108,9.631,26.363,26.425,30.881a14.326,14.326,0,0,1,10.844,13.385l.647,23.864A102.374,102.374,0,0,1,198.6,247.619ZM258.38,220A123.847,123.847,0,0,0,275.5,153.689l-.646-23.864A36.037,36.037,0,0,0,247.84,95.931c-10.251-2.757-10.251-7.5-10.251-9.78a11.272,11.272,0,0,1,11.259-11.259h102.3a11.272,11.272,0,0,1,11.259,11.259c0,2.179-.007,6.61-8.967,9.405H300a10.926,10.926,0,1,0,0,21.851c21.033,0,24.5,10.623,24.5,36.282a123.7,123.7,0,0,0,66.885,113.354c52.4,27,90.343,62.805,109.717,103.547,14.566,30.632,13.662,53.648,13.653,53.826l-.017.62c0,36.068-12.052,66.2-35.821,89.565-60.5,59.469-177.552,58.156-178.72,58.13l-.2,0-.194,0c-1.184.02-118.223,1.338-178.726-58.13-23.769-23.363-35.821-53.5-35.821-89.565l-.017-.62c-.052-.911-3.714-91.9,123.37-157.373A123.2,123.2,0,0,0,258.38,220Z" style="fill:#c0392b"/></svg>