<?xml version="1.0" ?><svg fill="#c0392b" data-name="Layer 5" id="Layer_5" viewBox="0 0 600 600" xmlns="http://www.w3.org/2000/svg"><title/><path d="M186.162,361.614c-8.831,14.5-16.386,29.026-22.126,40.862a83.294,83.294,0,0,0-3.87,63.451A209.891,209.891,0,0,0,176.282,500.9a70.969,70.969,0,0,0,57.162,36.006c32.541,2.044,82.881,3.9,131.234.443,21.631-1.549,41.082-14.164,51.944-33.559,6.256-11.171,14.962-34.837,21.559-53.962a76.2,76.2,0,0,0-2.551-56.118c-8.585-19.085-20.144-43.4-29.036-57.006a45.986,45.986,0,0,0-43.386-20.983c-15.615,1.685-29.146,6.049-39.734,14.122a8.694,8.694,0,0,0,.971,14.312c15.186,8.711,41.117,25.61,31.358,34.58-8.953,8.23-69.319-17.6-109.09-35.988C224.805,332.619,198.946,340.62,186.162,361.614Zm158.386,47.352c24.908-9.261,39.067,31.917,7.494,35.331C333.1,445.312,326.682,415.587,344.548,408.966Zm-85.709,4.082c.3,41.821-69.425,21.771-53.485-15.38C216.746,371.117,258.84,377.962,258.839,413.048Z" style="fill:#c0392b"/><path d="M322.916,249.714c14.6-.127,28.754-17.552,19.481-30.487-5.5-6.551-12.249-11.022-21.015-11.118C290.954,208.387,294.385,249.728,322.916,249.714Z" style="fill:#c0392b"/><path d="M236.034,277.759c.562,21.7,35.318,24.4,36.252.7C271.834,253.994,236.724,251.927,236.034,277.759Z" style="fill:#c0392b"/><path d="M98.557,386.444a86.949,86.949,0,0,0-3.933,66.448,629.626,629.626,0,0,0,35.119,81.486,111.922,111.922,0,0,0,99.725,60.544H370.531a111.922,111.922,0,0,0,99.726-60.544,629.626,629.626,0,0,0,35.119-81.486,86.953,86.953,0,0,0-3.933-66.448L385.86,149.587a7.3,7.3,0,0,1,4.61-10.273,37.767,37.767,0,0,0,28.064-37.592c-.6-20.494-17.882-36.575-38.384-36.575H356.631l7.69-39.321A17.407,17.407,0,0,0,347.237,5.078h-87.6a17.407,17.407,0,0,0-17.083,20.748l7.69,39.321h-30.4c-20.5,0-37.781,16.081-38.384,36.575a37.768,37.768,0,0,0,28.064,37.592,7.3,7.3,0,0,1,4.61,10.273ZM243.68,121.824a11.3,11.3,0,0,0-7.962-3.117h-16.1c-8.527,0-15.875-6.539-16.3-15.055A15.872,15.872,0,0,1,219.155,87h161.23c8.527,0,15.875,6.54,16.3,15.057a15.871,15.871,0,0,1-15.835,16.652H303.8a11.164,11.164,0,0,0-11.286,10.722,10.926,10.926,0,0,0,10.924,11.13h39.279a23.089,23.089,0,0,1,20.749,12.963L481.805,396.028a64.958,64.958,0,0,1,2.948,49.641,607.645,607.645,0,0,1-33.893,78.648,90.149,90.149,0,0,1-80.329,48.754H229.468a90.149,90.149,0,0,1-80.328-48.754,607.645,607.645,0,0,1-33.893-78.648,64.958,64.958,0,0,1,2.948-49.641l127.658-261.6A10.936,10.936,0,0,0,243.68,121.824Z" style="fill:#c0392b"/></svg>