<?xml version="1.0" ?><svg fill="#c0392b" id="icon" viewBox="0 0 512 512" xmlns="http://www.w3.org/2000/svg"><title/><path d="M391.19,271c-18.79-4.89-43.81-12-64.24-20a21.71,21.71,0,0,1-10.22-32.11C341.49,181,395,98.79,436.72,33.15c4.6-7.24-5.09-15-11.14-8.91-45.37,45.63-113.84,112.57-157.3,146.23a8.5,8.5,0,0,1-13.62-5.58c-1.8-13.07-4.89-33.26-9.09-52.64-1.31-6-10.13-5.35-10.43.82-1,21.32-3.46,48.24-8.88,69.18A25,25,0,0,1,212.31,199c-4.47,2-9.84,2.65-15.37-.33,0,0-32.09-18.09-59-38.42a5.14,5.14,0,0,0-7.5,6.76c9.24,15.28,20.79,34.9,31.43,54.5A19.92,19.92,0,0,1,153.11,249a126.38,126.38,0,0,1-24.73,9.13,5.29,5.29,0,0,0-1.49,9.71c2.89,1.69,6,3.66,9.28,5.9a26.53,26.53,0,0,1,7.29,36.23c-23.4,36.22-75.67,115.9-117.8,171.45-3.8,5,2.78,11.32,7.63,7.29,48.44-40.26,125.43-103.39,172-137.25a23.63,23.63,0,0,1,29.54,1.44c22.39,19.84,68.63,61.53,117.5,110.05,4.6,4.56,11.91-1.21,8.52-6.73C338.06,419,306.43,365.44,290.47,329a23.12,23.12,0,0,1,15.85-31.69c20.86-5,52.28-11.92,84.28-16.39A5.09,5.09,0,0,0,391.19,271Z"/><path d="M39.06,285.12A19.52,19.52,0,1,0,19.54,265.6,19.52,19.52,0,0,0,39.06,285.12Z"/><path d="M52.21,64.18A13.21,13.21,0,0,0,36.63,82.13a52.63,52.63,0,0,0,8.63,13.3c10.59,12.49,27.9,23,40.28,29.44a6.44,6.44,0,0,0,8.88-8.3A192.22,192.22,0,0,0,74.06,81.35C66.07,70.44,58.42,65.83,52.21,64.18Z"/><path d="M486,269.3A44.12,44.12,0,0,0,473.26,266c-13.47-1.65-29.9,1.69-41.08,4.69a5.34,5.34,0,0,0-.76,10,159.71,159.71,0,0,0,32.2,10c11,2.17,18.24.68,23-1.81A11,11,0,0,0,486,269.3Z"/></svg>