<svg width="100" height="100" viewBox="0 0 100 100" fill="none" xmlns="http://www.w3.org/2000/svg">
<path d="M20.3649 81.2488L35.364 79.9812C35.364 79.9812 36.806 86.2665 35.9506 90.9573C35.1099 95.6488 27.6294 97.1589 23.4636 95.0225C19.2986 92.8715 20.3649 81.2488 20.3649 81.2488ZM20.3462 73.9368L28.5964 73.1595C31.4554 73.0631 34.1368 72.9867 35.3533 72.5225C35.7286 72.3809 35.9589 72.202 36.0147 71.9844C36.0147 71.9844 38.9999 68.1731 39.2126 59.02C39.4254 49.8669 35.7917 42.7577 32.7064 40.2234C29.6212 37.6891 24.0062 38.9759 20.1155 46.7691C16.2247 54.5623 17.4652 66.2354 18.1703 70.0833C18.8755 73.9312 20.3609 73.9376 20.3609 73.9376L20.3462 73.9368Z" fill="#c0392b"/>
<path d="M81.1235 47.828L66.0779 47.3702C66.0779 47.3702 64.9765 53.724 66.0833 58.3619C67.1755 63.0013 74.7265 64.1063 78.7712 61.7486C82.8143 59.3764 81.1235 47.828 81.1235 47.828ZM80.7483 40.5256L72.4683 40.1938C69.6082 40.2516 66.9266 40.3197 65.6869 39.9217C65.3044 39.8005 65.0649 39.6343 64.9974 39.42C64.9974 39.42 61.8112 35.775 61.1058 26.6467C60.4004 17.5183 63.6458 10.2237 66.5901 7.52689C69.5344 4.83011 75.2106 5.81257 79.5154 13.3849C83.8202 20.9572 83.2103 32.6803 82.7135 36.5605C82.2166 40.4408 80.7337 40.5272 80.7337 40.5272L80.7483 40.5256Z" fill="#c0392b"/>
</svg>
