<?xml version="1.0" ?><svg fill="#c0392b" id="icon" viewBox="0 0 512 512" xmlns="http://www.w3.org/2000/svg"><title/><path d="M173.32,411.53a176.66,176.66,0,0,0,129.8,14.2,7.93,7.93,0,0,0,5.46-10.11L307,410.89a7.91,7.91,0,0,0-9.67-5.12,155.92,155.92,0,0,1-114-12.47,4.76,4.76,0,0,0-6.35,1.88l-5.55,9.75A4.79,4.79,0,0,0,173.32,411.53Z"/><path d="M421.25,317a6.77,6.77,0,0,0-4.29-8.76L410.08,306a6.78,6.78,0,0,0-8.44,4.11,155,155,0,0,1-59.24,74.94l-23.18-35c-4.28-6.45-14.33-2.26-12.75,5.32a58.56,58.56,0,0,0,4.29,12.84l44.39,94.43A18,18,0,0,0,371.48,473h5.57a12.7,12.7,0,0,0,10.58-19.71l-33.75-50.94A175.72,175.72,0,0,0,421.25,317Z"/><path d="M168.85,336l-29,23.13A155.41,155.41,0,0,1,121.35,178.5,10.87,10.87,0,0,0,118,164l-3.37-2.24a6.13,6.13,0,0,0-8.62,1.87,176.19,176.19,0,0,0,17.59,208.5L28.26,448.26a24.88,24.88,0,0,0-9.37,19.46v.49a24.91,24.91,0,0,0,44,16L178.37,345.74C183.64,339.41,175.29,330.88,168.85,336Z"/><path d="M432.11,256a174.34,174.34,0,0,0-45-117.58l65.21-62.69a14.47,14.47,0,0,0,.21-20.67L442.21,44.72a14.48,14.48,0,0,0-22,1.84L330.55,172.35A7.44,7.44,0,0,0,341.77,182l30.36-29.19A153.71,153.71,0,0,1,411.33,256c0,2.55-.09,5.1-.21,7.65H400.26c-8.35,0-9.57,12-1.38,13.71l94.23,19.17V263.65H431.93C432,261.1,432.11,258.54,432.11,256Z"/><circle cx="294.64" cy="96.42" r="14.34" transform="translate(-11.64 48.44) rotate(-9.22)"/><path d="M370.07,260.3,332.69,253a76.78,76.78,0,0,0-93.87-71.77,9.4,9.4,0,0,0-7.17,10.71l4.8,28.68a4.31,4.31,0,0,1-7.86,3.06L209.8,194.7l-45.69-67.2c9.15-10,17.34-18.14,31.41-28a4.44,4.44,0,0,0,2-3.95A4.22,4.22,0,0,0,191.73,92a174.38,174.38,0,0,0-37.8,20.52l-54.42-80A31,31,0,0,0,73.86,18.89H61.29a11.73,11.73,0,0,0-9,19.19L194.3,210.33a76.42,76.42,0,0,0-15.05,47c.68,40.44,33.31,73.82,73.73,75.38a76.74,76.74,0,0,0,71.13-41.31,7.6,7.6,0,0,0-2.42-9.72l-9.95-6.95a3.78,3.78,0,0,1,2.16-6.88l55,1.91C374.83,270.07,375.89,261.44,370.07,260.3Z"/></svg>