<?xml version="1.0" ?><svg fill="#c0392b" data-name="Layer 4" id="Layer_4" viewBox="0 0 600 600" xmlns="http://www.w3.org/2000/svg"><title/><path d="M550.9,306.849c7.039-23.093-37.323-21.5-57.909-18.732a1.831,1.831,0,0,1-1.03-3.464c78.645-38.306,86.1-8.543,79.966,23.969-6.856,36.339,23.874,36.236,23.874,36.236l-1.089-191.417a11.53,11.53,0,0,0-4.28-8.918c-7.619-6.144-26.59-17.234-65.622-19.029a4.258,4.258,0,0,1-3.887-5.512c3.082-9.594-.773-32.125-40.259-30.387-45.25,1.991-83.022,35.676-124.526,39.5a1.059,1.059,0,0,1-.623-1.97c31.841-18.672,87.646-65.853,62.953-110.32-9.824-17.691-40.186-9.334-54.2-4.306-55.638,19.966-80.5,82.388-88.235,106.626a18.484,18.484,0,0,1-12.206,12.072c-32.186,9.787-63.649,38.009-76.951,62.2-14.194,28.588-16.928,39.821-47.01,55.961C101.082,270.428,62.04,292.12,19.13,303.5,6.8,307.8-4.239,321.451,9.481,330.949c19.443,13.46,40.4-.925,45.709-9.528,4.068-6.586,7.456-14.516,10.051-16.049,9.3-5.489,7.466,14.981-2.834,23.739a1.655,1.655,0,0,0,.659,2.9c23.106,5.278,114.152,1.779,144.526,5.889,85.849,11.618,92.1,33.707,132.018,23.717a2.32,2.32,0,0,1,2.7,3.129c-2.781,6.708-11.2,18.953-35.385,17.558-8.78-.507-19.155-7.535-28.46-10.329a2.53,2.53,0,0,0-2.8,3.865c5.532,8,17.426,25.154,11.257,74.743-8.36,67.2,19.28,100.982,40.222,54.944,0,0,4.285,41.894,32.049,71.28,7.129,7.545,20.5,17.664,31.622,15.167a2.208,2.208,0,0,0,.487-4.158c-.44-.206-.9-.417-1.39-.665-17.046-8.7-25.324-20.867-29-28.222a1.165,1.165,0,0,1,1.91-1.293c25.01,27.244,34.17,16.737,57.583,30.014a47.559,47.559,0,0,0,23.477,6.082h67.81a1.456,1.456,0,0,0,.582-2.794c-13.67-5.864-43.049-22.389-66.054-62.573-3.509-6.129-7.5-11.191-25.827-10.47-11.89.467-66.718-3.018-58.937-75.5a1.778,1.778,0,0,1,3.507-.176c4.623,22.12,19.6,68.552,63.067,60.658,27.882-5.064,38.4,5.2,54.835,32.813,33.545,56.372,94.9,58.6,110.388,58.214a3.689,3.689,0,0,0,3.6-3.717c-.134-23.383-.585-176.942-.688-212.228C596.156,374,530.5,373.764,550.9,306.849ZM276.882,197.2c-18.478,20.187-42.483,17.169-59.4,33.948-1.428,1.416-4.138,3.687-8.068,1.791-1.728-.833-1.52-3.764-.917-5.466,6.481-18.305,17.716-28.842,35.834-33.19,10.433-2.5,19.589-.861,29.109-1.831a5.555,5.555,0,0,1,2.279.205A2.807,2.807,0,0,1,276.882,197.2Zm33.8-65.212a5.052,5.052,0,0,1-7.152-6.217C350.882.826,434.624,34.4,364.045,95.622,346.748,109.927,333.1,119.683,310.68,131.986Zm69.587,194.955a2.247,2.247,0,0,1-.644-4.28c52.05-22.58,17.351-66.293-9.741-83.474a4.718,4.718,0,0,1-.493-7.585c6.136-5.218,15.105-14.278,13.233-21.362-2.012-7.613-25.713-9.758-40.149-10.358a2.244,2.244,0,0,1-.536-4.4c31.966-9.133,106.285-11.061,48.983,36.506a2.814,2.814,0,0,0,.209,4.506C425.953,259.847,471.473,338.251,380.267,326.941Z" style="fill:#c0392b"/><path d="M554.8,112.683c7.762.532,23.507,2.806,37.295,12.247a1.942,1.942,0,0,0,3.021-1.621V81.175a2.707,2.707,0,0,0-3.646-2.544c-8.169,3.045-28.082,11.934-39.043,29.47A3.013,3.013,0,0,0,554.8,112.683Z" style="fill:#c0392b"/></svg>