<?xml version="1.0" ?><svg fill="#c0392b" data-name="Layer 4" id="Layer_4" viewBox="0 0 600 600" xmlns="http://www.w3.org/2000/svg"><title/><path d="M101.69,9.2C98.755,7,93.751,6.57,90.993,6.513a.624.624,0,0,0-.376,1.134c33.5,23.343,75.191,48.523,106.771,72.535A.727.727,0,0,1,196.6,81.4c-29.174-15.527-76.5-43.332-86.88-49.449a.863.863,0,0,0-1.244,1.053c1.644,4.3,5.7,13.5,11.252,16.48,22.483,12.84,81.356,44.479,140.042,76.324,41.341,22.432,58.762,42.873,68.353,60.208a.994.994,0,0,1-.963,1.474c-2.343-.31-3.876-1.932-5.487-3.33-13.559-11.007-25.526-24.319-40.651-33.2-27.809-14.641-55.422-29.66-83.1-44.553-2.857-1.527-28.725-7.76-38.773-8.372a1.066,1.066,0,0,0-.836,1.8c25.523,27.234,75.8,46.742,103.58,73.441a1.254,1.254,0,0,1-1.311,2.082c-11.34-4.361-28.705-14.64-38.075-18.637a.918.918,0,0,0-1.212,1.191,216.49,216.49,0,0,0,20.185,37.826c2.264,3.357,4.185,5.851,7.757,7.567,18.942,9.339,37.646,19.148,57.183,27.226a25.526,25.526,0,0,0,11.009,1.905c7.863-.134,15.736.058,23.6.236,8.351.189,16.7.754,25.049.679,3.757-.034,6.433,1.3,9.306,3.458,4.861,3.647,12.685,9.216,18.4,13.25a28.081,28.081,0,0,0,16.24,5.144c5.341-.005,11.649-.151,14.814-.735,3.282-.6,3.984-2.739,3.016-5.936-4.694-14.013-7.836-28.71-13.064-42.522a42.025,42.025,0,0,0-5.168-9.558c-11.945-16.685-32.529-40.889-38.074-47.356a1.169,1.169,0,0,0-2.045.613c-1.194,8.769,8.815,24.4,11.756,34.161-29.11-19.667-57.257-40.064-87.527-57.86-20-8.41-38.3-18.57-56.928-29.741C189.807,70.351,146.268,38.966,101.69,9.2Z" style="fill:#c0392b"/><path d="M592.7,590.879c-13.563-20.248-45.677-56.99-56.07-68.748a.976.976,0,0,0-1.648.977c2.115,6,4.176,11.866,6.275,17.69,1.269,3.519,7.1,12.033,7.885,13.274a1.485,1.485,0,0,1-1.775,2.185c-23.941-8.888-44.815-39.245-63.149-56.219-6.391-5.469-16.894-4.4-24.83-6.5-8.12-1.329-15.924-3.358-23.163-7.61-22.386-11.526-43.633-23.447-65.721-35.5a1.456,1.456,0,0,0-1.783,2.248c12.948,14.43,46.629,50.392,54.416,58.836a46.3,46.3,0,0,0,10.331,8.955c6.163,3.712,9.817,8.572,13.881,14.1a.983.983,0,0,1-1.238,1.461c-6.956-3.614-22.117-12.155-29.974-17.4-7.232-4.832-14.976-8.455-22.739-12a1.923,1.923,0,0,0-2.247,3.016c16.518,18.77,36.5,38.645,53.706,57.918a2.609,2.609,0,0,1-1.156,4.221c-9.814,3.144-26.93,8.872-35.3,11.683a.971.971,0,0,0,.264,1.89c30.213,1.493,157.991,8.346,182.161,8.933A2.188,2.188,0,0,0,592.7,590.879Z" style="fill:#c0392b"/><path d="M167.223,291.993C116.876,260.542,40.173,215.091,5.7,187.855a1.218,1.218,0,0,0-1.971.963V204.73a10.668,10.668,0,0,0,5.189,9.161c29.948,17.922,180.772,108.164,221.208,132.025a42.378,42.378,0,0,0,10.6,4.537c8.065,2.148,16.5,2.5,25.513,2.035a1.235,1.235,0,0,0,.633-2.253c-59.517-40.576-117.713-82.488-176.03-124.744C75.7,215.134,60.4,204.943,45.671,194.007c-12.151-8.888-22.515-20.165-35.255-28.3-4-2.567-6.634-1.044-6.652,3.73-.475,5.442,3.709,8.837,7.76,11.664,47.505,33.142,108.309,72.587,156.932,109.1A1.087,1.087,0,0,1,167.223,291.993Z" style="fill:#c0392b"/><path d="M450.128,251.276a1.532,1.532,0,0,0-2.544.22l-.459,15.981a5.243,5.243,0,0,1-5.151,5.094c-5.93.1-13.574.161-17.766-.066-22.994-1.244-48.334-18.982-48.334-18.982-11.511-8.6-19.831-5.6-33.151-5.448-7.528.115-15.1.662-22.574.026-9.637-.821-18.823-4.026-27.941-7.2-.966-.185-2.383-1.294-3.143-.284-.713,1.636,1.259,2.228,2.227,3.133,17.7,12.716,34.361,26.788,51.623,40.079,5.826,4.515,12.041,8.841,19.294,10.417,18.507,4.021,37.118,7.579,55.725,11.131,24.089,4.545,48.1,8.762,72.273,12.93,1.632.282,3.251-1.756,2.051-2.9C461.243,285.935,450.128,251.276,450.128,251.276Z" style="fill:#c0392b"/><path d="M12.336,440.2c12.282,7.884,53.275,27.126,92.1,66.047,9.919,9.944,26.789-2.945,41.108,14.364,22.425,17.259,67.153,43.018,82.943,51.963a.963.963,0,0,0,1.161-1.514c-17.08-17.453-77.22-78.053-87.361-90.271-10.977-10.975-25.353-17.913-37.9-26.926-.984-.588-2.054-2.063-3.285-1.3-1.287,1.618,20.114,29.17,29.893,39.922a2.165,2.165,0,0,1-1.9,3.605c-27.23-4.057-27.895-23.065-38.5-29.638a7.968,7.968,0,0,0-6-1.426,17.2,17.2,0,0,1-10.476-1.69c-23.688-10.971-45.3-23.529-67.427-37.765C6.488,431.823,6.463,436.679,12.336,440.2Z" style="fill:#c0392b"/><path d="M456.991,456.222c-9.354,2.815-32.011-2.225-42.016-3.426a1.585,1.585,0,0,0-1.167,2.821s18.375,9.47,26.943,15.563a17.184,17.184,0,0,0,6.88,2.226c11.5,2.723,30.043,4.057,38.306,12.006,11.835,11.677,24.786,23.451,37.09,34.833a.779.779,0,0,0,1.232-.91c-4.937-10.193-18.732-38.816-25.649-54.605a16.606,16.606,0,0,0-7.152-8.269c-48.631-28.484-97.921-55.772-146.552-84.263A37.746,37.746,0,0,0,338.3,369c-3.175-.895-4.585,1.6-1.644,3.764,39.971,27.352,80.824,52.862,120.828,80.146A1.862,1.862,0,0,1,456.991,456.222Z" style="fill:#c0392b"/><path d="M523.257,115.1c-15.232-2.778-29.559-7.3-44.2-11.521a153.932,153.932,0,0,1-31.7-13.069c-23.81-13.123-67.951-37.544-88.073-49.284-1.4-.8-3.475-2.961-4.656-1.179-1.509,2.278,1.488,3.151,2.94,4.116,25.7,16.7,89.5,57.933,119.71,76.942,6.321,3.977,21.489,7.9,31.586,10.2a26.69,26.69,0,0,0,15.949-1.388c6.936-2.8,19.461-5.039,36.412,3.4a1.327,1.327,0,0,0,1.724-1.894c-2.08-3.237-4.989-7.72-7.477-11.392a24.011,24.011,0,0,0-6.366-6.356c-11.05-7.539-23.991-12.06-36.8-16.122a1.648,1.648,0,0,0-1.571,2.822c4.736,4.086,9.841,6.861,14.166,11.91A1.732,1.732,0,0,1,523.257,115.1Z" style="fill:#c0392b"/><path d="M587.137,187.142c2.2.579,10.481,4.714,8.021-.7-1.867-3.823-3.755-7.647-5.853-11.347-8.517-15.016-5.206-11.912-20.114-21.205a102.851,102.851,0,0,0-22.057-10.69c-12.62-4.06-15.514,7.288-30.68,6.379-26.806-.828-49.629-19.817-73.451-30.289-4.8,2.783,4.185,6.6,6.195,8.633,13.4,8.881,25.459,19.509,38.071,29.436a13.386,13.386,0,0,0,5.673,2.7C525.364,165.324,556.366,175.994,587.137,187.142Z" style="fill:#c0392b"/><path d="M154.03,138.041a3.04,3.04,0,0,0,2.51-4.941c-5.843-10.1-18.407-13.955-27.467-20.8C89.531,85.237,46.79,63.3,7.512,35.948a1.352,1.352,0,0,0-2.123.962c-.558,5.215-1.1,18,6.365,21.6C30.571,69.466,48.222,82.3,67.54,92.438c26.652,15.367,53.276,30.774,80.837,44.486A11.627,11.627,0,0,0,154.03,138.041Z" style="fill:#c0392b"/><path d="M114.115,547.785c17.423,5.214,55.509,13.563,68.167,16.3a.969.969,0,0,0,.77-1.734c-9.619-6.854-26.292-15.4-43.074-32.006a10.846,10.846,0,0,0-6.107-2.634c-8.123-.87-16.283-1.44-24.441-1.932a11.6,11.6,0,0,1-8.231-3.751c-7.595-7.9-14.845-16.191-22.89-23.632-3.913-3.068-12.13-3.087-18.855-3.487a1.439,1.439,0,0,0-.957,2.584c13.035,9.82,20.408,25.228,30.085,38.142,2.03,3.1,4.514,4.017,7.9,3.2,8.75-3.012,17.764-2.786,26.776-1.8.176,1.355.15,1.154.327,2.508l-9.638,3.68A2.411,2.411,0,0,0,114.115,547.785Z" style="fill:#c0392b"/><path d="M331.8,436.842a57.562,57.562,0,0,0-17.5-10.737c-7.77-3.543-14.969-6.776-22.847-10.135a2.258,2.258,0,0,0-2.923,3.053l13.736,28.513a17.309,17.309,0,0,0,7.057,7.6c15.259,8.592,23.443,12.675,39.276,20.216,7.37,3.17,14.877,6.023,22.353,8.939.789.308,2.326.419,2.583.02C376.178,479.533,346.405,449.269,331.8,436.842Z" style="fill:#c0392b"/><path d="M485.6,71.417c-13.129-7.313-26.318-14.737-39.155-22.5C428.2,36.1,410.006,23.2,392,10.051c-4.921-3.734-9.68-3.055-15.185-2.279a.844.844,0,0,0-.4,1.5c16.119,12.409,33.182,23.109,49.532,35.076a90.189,90.189,0,0,1,18.265,17.828c3.444,4.486,6.423,9.956,11.519,12.015,15.559,6.285,35.366,9.247,44.8,10.378a1.48,1.48,0,0,0,1.037-2.672A168.816,168.816,0,0,0,485.6,71.417Z" style="fill:#c0392b"/><path d="M264.242,425.692a1.9,1.9,0,0,0,2.828-2.315s-.13-9.426-1.715-13.713a12.19,12.19,0,0,0-5.2-6.2q-38.282-24.01-76.524-48.086c-5.989-2.974-17.3-4.317-23.614-4.716a1.33,1.33,0,0,0-.811,2.437C195.387,377.127,228.2,401.018,264.242,425.692Z" style="fill:#c0392b"/><path d="M126.435,383.178c49.474,31.067,138.889,79.87,167.306,95.268a2.112,2.112,0,0,0,2.418-3.426c-24.39-22.071-109.492-65.589-153.924-91.091-4.933-2.769-9.743-2.954-15.208-2.848A1.137,1.137,0,0,0,126.435,383.178Z" style="fill:#c0392b"/><path d="M360.161,502.449a9.6,9.6,0,0,0-4.055-2.528q-15.142-4.871-30.372-9.472c-3.023-.918-4.837.862-3.722,3.845a14.579,14.579,0,0,0,3.6,5.122c10.387,9.974,20.947,19.77,31.3,29.777a34.156,34.156,0,0,0,13.21,8.126c10.736,3.19,20.242,8,29.753,13.511a1.3,1.3,0,0,0,1.648-1.967C388.123,532.937,373.907,518.141,360.161,502.449Z" style="fill:#c0392b"/><path d="M345.157,404.642c-12.751-8.935-25.683-17.616-38.314-26.716-5.963-4.3-11.988-7.661-19.55-8.138-5.936-.374-11.844-1.191-18.167-1.983a1.09,1.09,0,0,0-.746,1.985c27.932,18.9,53.854,38.737,85.466,49.85a2.082,2.082,0,0,0,2.784-1.942C356.518,411.646,349.628,408.2,345.157,404.642Z" style="fill:#c0392b"/><path d="M46.23,108.531c-3.564-2.473-14.372-6.28-12.21-2,2.9,3.569,57.2,39.448,80.2,51.734A38.149,38.149,0,0,0,137.91,163a1.212,1.212,0,0,0,.426-2.277C105.562,143.406,78.152,127.327,46.23,108.531Z" style="fill:#c0392b"/><path d="M195.422,148.97c-5.99-9.019-17.888-4.833-26.913-5.132-8.918.884,2.337,9.9,3.431,13.739,9.409,16.657,28.944,18.227,45.429,25.021C211.041,170.588,202.629,160.4,195.422,148.97Z" style="fill:#c0392b"/><path d="M187.216,202.436c30.082,17.711,60.357,35.152,91.9,50.172.876.438,1.947,1.784,2.971.3,1.059-1.541-.281-2.342-1.268-3.18-12.064-8.446-24-17.133-36.436-25-13.021-8.181-26.567-15.527-39.94-23.139-4.229-2.023-12.286-1.613-16.78-1.179A1.092,1.092,0,0,0,187.216,202.436Z" style="fill:#c0392b"/><path d="M8.955,21.232C31.133,36.995,53.619,52.3,76.739,66.655c1.985,1.087,4.84,3.425,6.942,1.564,1.419-2.757-2.059-4.829-3.882-6.372-8.274-5.894-16.767-11.494-24.885-17.593C43.126,35.4,31.631,26.15,19.927,17.18,16.424,14.5,12.69,12.1,8.961,9.728c-2.642-1.984-3.208,1.128-3.233,3.058C5.835,17.585,6.652,19.6,8.955,21.232Z" style="fill:#c0392b"/><path d="M10.117,408.034C25.1,417.39,41.469,427.322,56.3,436.457c1.866.83,4.98,2.441,6.947,1.417a1.423,1.423,0,0,0,.18-2.336c-6.226-5.232-37.6-31.5-54.923-44.2a1.243,1.243,0,0,0-1.975,1.02l.074,9.4A7.468,7.468,0,0,0,10.117,408.034Z" style="fill:#c0392b"/><path d="M11.894,473.109c11.68,5.976,30.782,10.959,40.855,13.055a1.246,1.246,0,0,0,.886-2.292C40.028,475.809,23.1,465.346,9,458.5a1.629,1.629,0,0,0-2.338,1.6C6.992,464.089,8.107,471.174,11.894,473.109Z" style="fill:#c0392b"/><path d="M77.229,11.4c-7.34-5.861-23.216-5.243-29.6-4.719a.862.862,0,0,0-.345,1.614c15.748,8.823,31.521,17.66,47.8,26.781a1.013,1.013,0,0,0,1.47-1.16C92.291,19.232,91.2,19.923,77.229,11.4Z" style="fill:#c0392b"/><path d="M333.131,8.12a.882.882,0,0,0-.4,1.59c12.7,9.035,25.6,16.775,38.523,25.458q14.4,9.416,28.81,18.812a12.219,12.219,0,0,0,4.305,2.089,1.216,1.216,0,0,0,.994-2.145c-8.7-6.834-42.158-31.862-59.625-44.691C341.705,6.154,337.868,7.522,333.131,8.12Z" style="fill:#c0392b"/><path d="M120.178,327.019a77.164,77.164,0,0,0,12.526,2.187c4.373.192,4.494-4.578,2.142-7.094-6.228-8.206-14.824-12.048-24.582-13.333-4.714-.312-6.838,2.419-3.914,6.364C109.528,320.774,113.946,325.143,120.178,327.019Z" style="fill:#c0392b"/><path d="M320.105,26.344c6.723,3.682,8.594-.224,1.53-4.728-6.762-4.312-12.827-8.264-19.451-12.737C296.162,4.812,290.1,5.509,283.1,6.417a.936.936,0,0,0-.486,1.637c2.578,2.263,4.964,3.1,8.22,4.557C300.711,16.954,310.714,21.007,320.105,26.344Z" style="fill:#c0392b"/><path d="M24.893,276.941c3.066-.531,8.127-.6,8.849-4.285-.134-3.538-.328-7.408-3.488-9.766-3.423-2.126-11.567-7.694-16.922-9.476a1.458,1.458,0,0,0-1.889,1.752C13.111,261.308,18.179,277.587,24.893,276.941Z" style="fill:#c0392b"/><path d="M164.627,186.778c4.708.872,8.816-.306,14.048-.83a.818.818,0,0,0,.353-1.514c-8.55-5.169-17.163-10.1-26.914-8.86a1.223,1.223,0,0,0-.627,2.175A138.145,138.145,0,0,0,164.627,186.778Z" style="fill:#c0392b"/><path d="M113.556,71.077c-10.78-3.335-10.249,11.631,6.618,11.677C127.334,80.846,117.04,72.149,113.556,71.077Z" style="fill:#c0392b"/><path d="M14.115,89.093a4.816,4.816,0,0,0-4.654.844c-5.714,4.967,13.579,13.1,12.08,5.32a5.709,5.709,0,0,0-1.8-3.042A14.9,14.9,0,0,0,14.115,89.093Z" style="fill:#c0392b"/><path d="M549.823,416.648c.177-6.514-8.407-6.3-8.719,0C540.59,423.028,549.89,422.825,549.823,416.648Z" style="fill:#c0392b"/><path d="M74.446,446.156c-.119,4.147,1.118,5.4,6.306,5.473,5.243-1.686.44-6.518-2.718-7.757C75.129,442.262,74.546,442.67,74.446,446.156Z" style="fill:#c0392b"/><path d="M415.036,102.569c-6.268.42-1.855,7.982,2.59,7.933C424.055,110.086,420.181,102.284,415.036,102.569Z" style="fill:#c0392b"/><path d="M368.934,427.246c0,3.278,3.77,5.294,6.792,5.162,3.1,0,3.5-1.19,1.523-3.97C375.706,426.267,368.934,421.842,368.934,427.246Z" style="fill:#c0392b"/><path d="M335.166,33.111c-.015,4.17,7.15,6.266,7.658.966C343.142,29.492,335.6,28.323,335.166,33.111Z" style="fill:#c0392b"/><path d="M320.719,360.555c.266-2.662-2.964-4.292-4.528-5a2.92,2.92,0,0,0-2.363.012c-2.591,1.143.745,4.755,3.439,5.954C318.5,362.071,320.585,361.9,320.719,360.555Z" style="fill:#c0392b"/><path d="M130.143,350.254c3.716-.423,2.705-6.6-.3-6.677-66.788-1.627-50.331-26.57-56.853-76.584-.516-3.955-6.968-3.016-7.085,1.1-1.943,68.705-2.1,75.409-56.163,74.568-1.855-.029-3.089,1.41-3.114,3.443-.021,3.439,3.78,3.829,6.382,3.793,57.58-.806,50.952,35.478,55.157,75.518.321,3.046,5.156,3.251,5.138.377C72.777,344.131,89.826,354.838,130.143,350.254Z" style="fill:#c0392b"/><path d="M593.574,290.135c-55.732,1.079-41.927-35.76-46.143-94.237-.287-3.978-7.043-3.018-7.085,1.1-.7,68.661,3.449,90.724-45.906,92.221a3.179,3.179,0,0,0-3.114,3.443c-.021,3.438,3.782,3.878,6.383,3.792,50.684-1.674,40.694,53.792,44.9,93.832.32,3.046,5.216,3.25,5.137.377-2.291-83.333,11.559-92.622,46.124-93.848C597.607,296.679,596.575,290.077,593.574,290.135Z" style="fill:#c0392b"/></svg>