<?xml version="1.0" ?><svg fill="#c0392b" data-name="1" id="_1" viewBox="0 0 600 600" xmlns="http://www.w3.org/2000/svg"><title/><path d="M350.861,90.157a15.637,15.637,0,0,0-16.272,10.759c-24.739,78.323-63.343,134.4-78.658,154.73a11.433,11.433,0,0,0,1.6,15.478c50.932,45.249,69.254,82.29,75.536,99.578,1.72,4.732,8.058,6.531,11.58,2.891,71.889-74.319,143.764-74.859,187.151-153.25,4.525-8.175.905-17.444-3.516-25.675C481.28,107.161,381.217,92.72,350.861,90.157ZM317.13,240.5c-13.341.923-12.947-19.682-.034-20.16C329.956,220.664,332.909,239.412,317.13,240.5Zm33.47-67c-12.957-.091-14.23-18.582-.411-18.546C363.3,155.319,364.851,172.5,350.6,173.506Z" style="fill:#c0392b"/><path d="M242.425,287.11A21.517,21.517,0,0,0,218.1,285.6c-40.617,24.568-70.742,56.437-84.247,72.117a12.9,12.9,0,0,0,1.139,18.054c18.416,16.658,63.991,54.528,126.417,83.319a18.41,18.41,0,0,0,19.828-2.815c9.243-8.117,23.436-22.174,33.006-39.136a31.552,31.552,0,0,0,2.832-24C302.04,339.322,262.43,302.754,242.425,287.11Z" style="fill:#c0392b"/><path d="M508.707,18.749C461.308,1.344,416.311,3,393.5,5.581a39.734,39.734,0,0,0-27.779,16.147,93.075,93.075,0,0,0-14.15,29.558,15.045,15.045,0,0,0,13.6,18.936c35.426,2.51,72.564,16.638,93.721,25.953A27.34,27.34,0,0,0,491.5,87.931a155.727,155.727,0,0,0,26.088-52.14A14.132,14.132,0,0,0,508.707,18.749Z" style="fill:#c0392b"/><path d="M564.126,51.641A11.58,11.58,0,0,0,546.351,53.7c-9.681,15.242-28.113,42.769-44.576,58.846a7.762,7.762,0,0,0,.143,11.29c10.584,9.825,31.71,31.216,43.141,55a9.359,9.359,0,0,0,15.469,2.056c10.042-11.66,24.946-31.043,32.955-51.438a39.245,39.245,0,0,0,1.069-25.368C586.77,77.465,573.539,60.777,564.126,51.641Z" style="fill:#c0392b"/><path d="M44.709,409.914c8.843-9.943,25.65-27.767,45.22-43.139a12.169,12.169,0,0,0,2.905-15.786,104.739,104.739,0,0,1-9.356-22.425A6.63,6.63,0,0,0,72.2,326.008c-15.25,17.056-36.645,56.259-36.323,80.668A5.05,5.05,0,0,0,44.709,409.914Z" style="fill:#c0392b"/><path d="M100.413,312.122c1.481,10.742,5.393,17.638,11.038,24.609,1.8,2.225,4.84,2.926,6.954,1,10.908-9.958,42.942-38,78.136-57.517a2.153,2.153,0,0,0-1.267-4.029c-18.451,1.971-57.69,8.054-90.53,25.866C101.158,303.992,99.856,308.081,100.413,312.122Z" style="fill:#c0392b"/><path d="M31.148,571.229c24.7-20.174,31.2-65.46,35.889-79.438a3.885,3.885,0,0,0-4.669-4.992,32.846,32.846,0,0,1-18.5-.893,23.62,23.62,0,0,1-9.5-5.894c-2.279-2.284-6.561-.965-6.6,2.262-.658,58.992-20.895,66.758-23.756,84.449C1.868,579.96,20.916,579.588,31.148,571.229Z" style="fill:#c0392b"/><path d="M52.643,468.566c.09.038.182.075.272.115,18.312,8.2,33.794-11.81,37.971-16.654,15.427-17.89,34.848-34.146,43.887-41.377a4.806,4.806,0,0,0-.172-7.626c-8.175-6.05-12.669-11.674-17.186-16.05a7.8,7.8,0,0,0-9.59-1.012,231.033,231.033,0,0,0-55.02,49.411c-2.257,2.811-4.749,5.405-6.826,8.316A16.558,16.558,0,0,0,52.643,468.566Z" style="fill:#c0392b"/><path d="M171.431,429.655c-5.884-3.647-11.266-7.432-14.849-10.045a7.814,7.814,0,0,0-9.257.02,230.514,230.514,0,0,0-44.781,44.182,25.474,25.474,0,0,0-5.1,19.5c.582,3.508,1.96,6.86,4.839,8.816,7.393,5.023,15.384,4.1,22.119-4.238,6.4-9.312,12.882-16.165,19.849-23.529,7.327-7.515,20.872-20.4,27.979-27.115A4.807,4.807,0,0,0,171.431,429.655Z" style="fill:#c0392b"/><path d="M59.481,582.186c6.939,9.676,39.669,4.082,49.809-67.721.294-2.084-.677-4.091-2.764-3.824-7,.893-15.983-1.963-20.189-12.212-.9-2.188-4.5-2.367-4.978-.052-8.922,42.919-16.612,61.987-22.933,74.587A9.128,9.128,0,0,0,59.481,582.186Z" style="fill:#c0392b"/><path d="M160.262,532.283c.614-2.373-.478-4.786-2.918-4.557-6.991.657-17.153-.9-22.8-11.678-1.173-2.236-5.154-2.316-5.485.187a204.427,204.427,0,0,1-19.577,63.215c-3.7,7.307-.453,13.641,5.805,14.5C129.59,595.286,146.91,583.839,160.262,532.283Z" style="fill:#c0392b"/><path d="M210.542,456.077c-6.84-4.046-13.273-8.317-17.446-11.174a7.794,7.794,0,0,0-9.511.537,233.193,233.193,0,0,0-34.327,37.55,21.227,21.227,0,0,0-4.232,12.692c.046,4.385,1.495,9.38,6.786,12.653,4.391,2.716,9.658,2.173,14.456.5a33.067,33.067,0,0,0,17.325-14.347,106.018,106.018,0,0,1,27.375-30.423A4.8,4.8,0,0,0,210.542,456.077Z" style="fill:#c0392b"/><path d="M253.488,479.394c-6.526-2.814-13.162-6.357-17.554-8.818a7.8,7.8,0,0,0-9.434,1.4A324.939,324.939,0,0,0,201.209,501.8a24.353,24.353,0,0,0-4.862,12.418c-.394,4.556.457,9.652,5.442,11.809a17.169,17.169,0,0,0,11.089.406,29.118,29.118,0,0,0,15.442-10.249A301.321,301.321,0,0,1,254.9,487.261,4.806,4.806,0,0,0,253.488,479.394Z" style="fill:#c0392b"/><path d="M170.859,596.019c18.1,0,29.767-19.068,35.185-49.75a3.494,3.494,0,0,0-3.139-4.157c-2.632-.211-12.968-.846-18.115-9.072-1.308-2.09-5.044-2.711-5.378-.268-4.143,30.218-10.932,44.316-14.58,50.429a8.9,8.9,0,0,0-.573,8.33A7.481,7.481,0,0,0,170.859,596.019Z" style="fill:#c0392b"/></svg>