<svg width="600" height="600" viewBox="0 0 600 600" fill="none" xmlns="http://www.w3.org/2000/svg">
<path d="M455.324 46.1105C437.828 35.1458 411.056 37.6341 427.435 50.7873C496.64 106.363 480.835 146.327 376.776 176.64C352.765 183.635 338.288 200.729 332.227 223.962C326.518 247.149 351.05 290.052 394.171 286.775C521.629 279.61 570.164 118.075 455.324 46.1105ZM456.323 192.099C438.756 179.338 471.995 164.055 478.744 164.071C490.434 163.979 489.349 176.806 482.919 182.489C476.179 188.961 465.146 198.509 456.323 192.099ZM369.731 240.445C353.191 217.078 373.113 200.231 399.723 199.316C410.899 198.704 419.265 209.142 441.31 208.672C448.616 208.516 452.327 214.839 450.996 220.145C445.424 238.891 390.873 270.315 369.731 240.445Z" fill="white"/>
<path d="M180.409 215.055C179.52 237.995 199.083 248.03 212.091 253.072C240.275 263.991 271.807 248.764 281.956 220.214C284.075 214.156 285.531 207.887 286.298 201.516C290.455 168.557 273.717 127.702 217.197 94.3606C203.541 86.2016 188.55 80.5261 172.914 77.5959C59.3564 56.9905 7.76927 199.564 38.5871 185.633C41.3799 184.335 43.7221 182.23 45.3113 179.589C59.4533 156.589 80.2924 129.836 110.057 134.016C132.642 137.019 182.727 155.45 180.409 215.055ZM155.814 116.969C160.003 109.929 174.042 118.017 176.915 123.17C180.908 131.187 172.913 134.452 166.298 131.94C160.465 129.401 152.414 123.178 155.814 116.969ZM202.258 147.891C198.566 143.005 193.527 138.129 193.587 131.554C193.68 119.719 208.095 122.155 215.451 125.56C236.496 134.665 250.597 155.797 255.174 177.858C262.204 211.73 236.258 234.273 214.556 212.366C191.228 184.8 225.825 179.085 202.257 147.894L202.258 147.891Z" fill="white"/>
<path d="M147.527 555.103C165.099 565.568 191.07 561.852 174.482 549.098C104.397 495.209 117.898 453.597 217.863 418.018C240.929 409.808 254.224 391.672 259.025 367.618C263.486 343.626 237.538 300.766 195.672 306.002C71.8025 318.899 32.1897 486.424 147.527 555.103ZM139.608 405.658C157.334 417.96 125.669 435.059 119.091 435.337C107.704 435.941 108.151 422.76 114.146 416.659C120.407 409.738 130.705 399.48 139.608 405.658ZM221.693 352.377C238.923 375.582 220.311 393.701 194.422 395.8C183.56 396.914 174.911 386.591 153.449 388.034C146.337 388.512 142.42 382.199 143.465 376.709C148.002 357.27 199.668 322.713 221.693 352.377Z" fill="white"/>
<path d="M450.849 420.159C440.284 406.556 436.798 359.381 404.78 340.177C371.467 320.195 358.903 320.947 330.178 354.063C313.921 372.804 317.926 400.11 327.102 424.995C370.875 531.04 504.129 548.465 568.512 445.796C575.646 434.418 578.257 422.311 579.11 413.228C579.193 412.36 578.985 411.49 578.517 410.754C578.049 410.018 577.35 409.459 576.529 409.166C575.708 408.873 574.813 408.862 573.985 409.135C573.157 409.408 572.445 409.949 571.96 410.673C554.428 436.99 506.775 492.167 450.849 420.159ZM414.588 462.466C398.256 451.57 364.436 426.432 356.753 400.58C347.608 350.055 417.871 353.748 410.611 424.085C409.305 436.732 414.388 450.346 418.546 459.032C418.803 459.569 418.877 460.176 418.757 460.759C418.636 461.342 418.327 461.869 417.878 462.259C417.428 462.649 416.863 462.88 416.268 462.918C415.674 462.955 415.084 462.797 414.588 462.466ZM452.565 478.382C444.604 471.548 453.358 460.062 462.057 465.925C470.092 472.634 461.103 484.311 452.565 478.382Z" fill="white"/>
</svg>
