<svg width="600" height="600" viewBox="0 0 600 600" fill="none" xmlns="http://www.w3.org/2000/svg">
<g clip-path="url(#clip0_206_580)">
<path d="M437.959 264.427C437.059 281.538 437.654 298.695 439.738 315.703C440.511 322.104 440.376 328.822 436.12 334.067C430.806 340.621 421.466 343.175 413.997 346.372C397.616 353.382 381.27 360.913 368.089 373.177C365.431 375.648 360.604 373.999 360.693 370.112C360.755 339.803 343.369 310.705 353.625 280.416C363.886 229.662 338.526 213.106 370.095 153.122C371.875 149.657 376.873 149.993 378.737 153.121C385.972 164.196 391.941 176.787 401.485 186.103C411.448 194.779 422.708 202.01 432.514 210.88C434.356 212.535 435.733 214.644 436.507 216.995C436.683 217.449 437.441 219.075 436.677 217.787C443.119 232.472 437.938 248.978 437.959 264.427Z" fill="#c0392b"/>
<path d="M355.417 111.331C355.683 108.431 360.355 107.226 360.961 110.504C364.704 138.986 346.949 164.552 341.469 191.71C340.173 199.762 339.746 207.929 340.194 216.072C340.863 227.12 343.519 237.889 336.323 247.416C324.238 265.866 269.375 291.732 252.668 271.453C247.038 263.081 254.762 255.477 260.895 250.451C271.137 242.058 281.308 233.481 290.055 223.495C303.68 207.85 310.335 187.276 324.441 172.152C343.969 155.611 349.433 135.148 355.417 111.331Z" fill="#c0392b"/>
<path d="M329.096 353.944C324.173 332.614 323.522 310.521 327.179 288.938C327.757 285.603 333.388 286.179 333.18 289.712C332.48 301.532 331.562 313.107 333.242 324.906C334.93 336.766 338.261 348.306 341.123 359.915C344.493 373.414 346.864 386.94 345.846 400.972C345.809 413.503 346.36 435.471 328.288 433.434C318.012 432.154 308.755 424.581 299.006 421.356C278.875 414.695 256.827 424.57 237.298 414.94C224.982 409.585 198.353 379.459 214.374 368.064C214.538 367.63 214.791 367.234 215.115 366.902C215.439 366.57 215.829 366.309 216.259 366.134C226.124 361.689 234.566 355.018 242.079 347.291C252.976 336.083 260.943 322.445 272.46 311.787C276.967 306.264 307.784 285.604 310.387 299.294C311.528 317.478 310.382 344.748 327.427 355.09C327.607 355.216 327.822 355.283 328.042 355.284C328.261 355.284 328.476 355.218 328.657 355.093C328.838 354.969 328.977 354.793 329.056 354.587C329.134 354.382 329.148 354.158 329.096 353.944Z" fill="#c0392b"/>
<path d="M280.2 118.747C266.047 128.314 255.181 142.521 252.511 159.451C252.437 159.896 252.236 160.311 251.932 160.645C251.627 160.979 251.233 161.217 250.796 161.332C250.359 161.447 249.898 161.433 249.469 161.291C249.04 161.15 248.661 160.888 248.378 160.536C218.748 126.497 233.889 94.1627 279.536 113.822C280.026 113.987 280.459 114.286 280.788 114.685C281.117 115.083 281.327 115.566 281.396 116.078C281.465 116.59 281.39 117.112 281.179 117.583C280.967 118.055 280.628 118.458 280.2 118.747Z" fill="#c0392b"/>
<path d="M271.411 146.183C274.576 137.59 292.802 118.462 301.577 127.134C306.987 132.181 315.743 140.633 319.998 145.667C320.772 146.485 321.204 147.569 321.203 148.696C321.203 149.822 320.772 150.906 319.997 151.725C312.248 160.427 304.479 169.552 298.532 179.592C296.37 183.241 290.486 197.966 283.875 196.564C267.039 183.866 259.399 176.624 271.411 146.183Z" fill="#c0392b"/>
<path d="M202.878 224.559C206.107 202.788 218.203 189.923 238.671 186.176C246.522 184.989 250.44 193.868 255.468 198.365C259.351 202.7 264.396 207.263 267.213 212.393C274.143 227.151 243.574 241.666 237.901 254.929C232.18 263.535 218.679 245.036 214.048 241.03C210.301 235.875 202.246 231.603 202.878 224.559Z" fill="#c0392b"/>
<path d="M227.695 174.363C187.195 186.209 194.062 216.019 184.359 207.946C147.314 168.505 169.266 113.258 228.706 170.444C228.99 170.735 229.195 171.095 229.3 171.488C229.405 171.881 229.407 172.295 229.305 172.689C229.204 173.083 229.002 173.444 228.72 173.737C228.438 174.03 228.084 174.246 227.695 174.363Z" fill="#c0392b"/>
<path d="M185.289 235.684C191.779 243.197 169.479 245.362 161.247 272.805C156.98 280.903 150.25 267.991 147.349 264.629C141.192 255.578 140.386 244.484 141.872 233.913C143.048 225.546 144.683 213.444 154.239 210.678C163.304 208.05 168.023 214.828 172.854 221.088C176.77 226.154 180.934 231.005 185.289 235.684Z" fill="#c0392b"/>
<path d="M240.478 316.164C229.267 318.639 217.475 315.039 207.091 310.968C197.368 307.153 188.158 302.144 179.671 296.056C178.028 294.899 176.717 293.332 175.866 291.512C175.016 289.691 174.657 287.68 174.824 285.677C175.856 273.114 184.273 261.552 194.409 255.154C196.143 253.961 198.216 253.362 200.319 253.447C202.421 253.532 204.44 254.295 206.072 255.624C219.855 266.829 243.268 283.27 247.061 286.032C265.895 297.327 258.843 311.217 240.478 316.164Z" fill="#c0392b"/>
<path d="M207.114 351.736C194.544 355.825 180.764 357.166 167.945 353.467C166.988 353.186 166.129 352.642 165.466 351.896C164.804 351.15 164.364 350.233 164.197 349.249C161.429 337.248 165.798 328.015 177.358 322.096C180.266 320.247 183.711 321.093 186.368 322.965C193.991 327.257 202.398 329.63 210.056 333.743C219.793 338.36 217.293 349.76 207.114 351.736Z" fill="#c0392b"/>
<path d="M164.424 305.006C171.207 313.671 151.206 314.842 148.201 335.995C144.548 345.212 135.325 329.914 132.682 326.307C126.18 315.901 120.902 301.253 124.704 288.983C126.671 282.631 131.529 278.214 138.382 280.697C149.535 285.674 155.642 296.571 164.424 305.006Z" fill="#c0392b"/>
<path d="M403.971 373.016C425.607 364.321 442.715 348.456 449.829 341.17C450.795 340.174 452.102 339.579 453.487 339.506C454.872 339.433 456.234 339.886 457.299 340.775C478.027 357.931 503.122 368.789 525.522 381.918C531.23 385.326 538.852 388.655 540.729 395.531C550.331 419.6 539.589 510.283 527.557 499.116C486.532 461.346 446.937 423.768 405.506 386.481C401.333 382.304 397.971 375.433 403.971 373.016Z" fill="#c0392b"/>
<path d="M515.574 522.225C471.688 545.077 398.197 555.294 394.33 544.13C384.719 527.587 375.382 510.806 364.3 495.197C356.453 484.363 349.551 474.117 351.102 460.065C352.018 451.741 356.017 443.309 358.914 435.516C364.006 421.888 369.259 408.313 374.921 394.909C375.5 393.895 376.457 393.151 377.583 392.841C378.709 392.531 379.912 392.679 380.929 393.254C420.967 423.069 455.708 459.306 492.187 493.229C496.045 498.023 522.822 518.064 515.574 522.225Z" fill="#c0392b"/>
<path d="M565.085 393.396C570.295 390.703 576.889 393.539 581.935 395.307C592.699 399.082 598.071 407.303 596.264 418.687C576.894 546.531 544.11 570.085 420.395 598.419C415.064 598.701 411.638 595.763 408.458 591.74C405.116 587.511 397.988 581.18 398.203 575.321C398.612 564.194 415.678 565.497 423.372 564.522C521.454 554.276 565.805 530.907 562.469 423.166C562.586 413.387 554.089 399.796 565.085 393.396Z" fill="#c0392b"/>
<path d="M336.924 17.2654C336.478 26.3744 340.039 36.732 338.242 45.6719C329.34 89.9833 331.777 101.55 330.62 116.146C330.303 120.152 324.054 121.603 323.176 117.106C320.322 102.513 318.118 87.7535 315.941 73.0472C312.725 51.8398 315.05 30.51 311.131 9.36338C307.722 -34.6923 319.417 -118.532 315.558 -168.439C315.299 -173.648 322.924 -173.39 323.496 -168.439C330.685 -106.122 340.04 -45.8386 336.924 17.2654Z" fill="#c0392b"/>
<path d="M287.285 -96.1803C288.845 -74.6081 276.87 -56.9524 273.273 -36.4463C269.701 -16.071 277.767 4.91897 282.228 24.5371C284.782 35.7676 286.939 46.9656 288.426 58.3893C289.886 69.5898 295.356 99.0233 286.203 99.927C278.541 100.681 271.371 95.6949 263.835 94.069C259.889 93.2185 259.682 86.6983 263.834 85.9937C267.985 85.289 274.281 85.7463 276.374 82.0797C280.567 74.7215 276.205 66.8011 274.709 60.1618C272.165 48.863 269.841 37.5151 267.213 26.2346C235.479 -71.8361 295.986 -59.6128 271.385 -150.375C270.835 -152.786 274.569 -154.608 275.609 -152.1C283.12 -134.055 285.884 -115.544 287.285 -96.1803Z" fill="#c0392b"/>
<path d="M329.17 639.878C328.536 660.028 326.829 679.913 327.216 700.124C327.44 711.789 329.153 723.329 329.455 735.023C329.761 746.813 327.638 758.073 327.496 769.821C327.449 774.105 321.021 773.894 320.886 769.665C320.559 759.445 318.143 749.617 318.204 739.401C320.094 708.749 320.594 678.17 316.98 647.613C312.281 584.617 318.997 521.654 318.873 458.597C319.029 454.589 324.977 454.766 325.075 458.745C323.96 519.243 332.116 579.429 329.17 639.878Z" fill="#c0392b"/>
<path d="M226.865 435.342C261.199 430.529 293.385 443.467 292.315 482.551C290.41 577.933 284.242 673.716 292.941 768.984C293.346 773.121 286.308 774.084 285.661 769.922C281.841 745.384 275.181 721.763 268.545 697.891C247.508 638.76 281.255 584.137 272.342 525.175C270.353 513.761 265.9 502.084 267.221 490.386C266.917 485.406 266.968 480.487 266.893 476.254C266.777 469.873 267.888 462.099 264.434 456.421C256.394 444.541 239.905 442.532 226.864 440.944C224.012 440.471 224.101 435.885 226.865 435.342Z" fill="#c0392b"/>
<path d="M784.491 301.167C765.812 305.651 746.852 304.435 728.035 301.973C682.456 301.073 636.593 296.046 591.48 304.902C552.197 314.325 513.032 308.012 473.488 314.029C468.299 314.753 465.991 306.962 471.37 305.953C507.908 299.844 544.408 302.775 581.06 297.074C592.363 295.609 603.587 294.08 614.865 292.976C615.572 292.903 616.234 292.594 616.744 292.098C617.253 291.602 617.58 290.948 617.671 290.243C617.762 289.538 617.613 288.823 617.246 288.214C616.88 287.605 616.319 287.137 615.653 286.887C599.424 280.583 549.371 284.55 523.674 286.031C506.632 285.889 466.436 295.841 463.473 271.543C462.053 257.268 463.235 242.232 463.293 227.884C463.312 223.905 469.132 223.996 469.404 227.884C469.994 236.316 470.166 244.912 470.77 253.417C480.836 281.193 518.594 263.399 539.359 260.093C626.44 236.575 699.101 282.147 783.11 290.483C789.192 290.523 790.595 299.702 784.491 301.167Z" fill="#c0392b"/>
<path d="M-157.87 327.003C-97.1292 322.276 -30.9049 331.808 22.0648 295.128C22.4685 294.91 22.7894 294.566 22.9782 294.148C23.167 293.73 23.2131 293.262 23.1095 292.815C23.006 292.368 22.7584 291.968 22.405 291.676C22.0515 291.383 21.6118 291.216 21.1536 291.198C18.1384 291.08 -7.11959 293.375 -16.6076 296.39C-49.1995 306.737 -81.7723 309.991 -115.677 305.419C-136.748 302.404 -157.635 295.969 -179.071 298.051C-183.036 298.466 -184.314 293.641 -180.694 292.608C-148.68 283.484 -141.584 302.816 -58.9407 292.195C-3.10649 279.355 36.8411 241.748 97.6913 255.449C100.241 255.945 101.39 258.734 100.958 261.038C98.5226 274.067 95.6173 289.763 99.1689 302.751C100.712 308.39 95.9738 306.74 90.4173 305.046C59.9559 295.763 -10.3014 324.125 -31.1973 328.328C-72.9674 336.749 -115.629 330.522 -157.87 332.247C-161.321 332.305 -161.147 327.36 -157.87 327.003Z" fill="#c0392b"/>
<path d="M359.538 76.535C366.389 71.2767 367.918 83.8724 364.68 88.2386C361.932 91.3346 359.732 90.9273 357.818 88.4469C355.348 85.0626 356.466 78.8939 359.538 76.535Z" fill="#c0392b"/>
</g>
<defs>
<clipPath id="clip0_206_580">
<rect width="600" height="600" fill="white"/>
</clipPath>
</defs>
</svg>
