<svg width="600" height="600" viewBox="0 0 600 600" fill="none" xmlns="http://www.w3.org/2000/svg">
<g clip-path="url(#clip0_206_602)">
<path d="M168.906 589.47C216.172 599.494 233.652 549.111 235.856 523.37C235.92 522.626 235.789 521.878 235.475 521.2C235.162 520.522 234.677 519.937 234.068 519.505C233.459 519.072 232.748 518.806 232.004 518.732C231.261 518.659 230.511 518.781 229.83 519.086C212.941 526.912 194.38 519.209 184.305 513.535C183.544 513.108 182.689 512.874 181.817 512.855C180.944 512.835 180.08 513.03 179.301 513.423C178.521 513.816 177.85 514.394 177.347 515.107C176.844 515.82 176.523 516.646 176.414 517.512C174.189 536.176 163.482 558.259 155.651 573.263C149.96 582.139 155.436 586.436 168.906 589.47Z" fill="white" fill-opacity="0.6"/>
<path fill-rule="evenodd" clip-rule="evenodd" d="M309.246 320.487C310.368 321.491 304.347 326.192 271.288 336.96C238.23 347.728 184.322 313.36 161.5 294.83C145.764 304.985 128.399 318.656 111.075 336.96C108.902 339.238 107.628 342.227 107.49 345.373C107.352 348.519 108.359 351.608 110.325 354.068C124.914 372.226 162.625 413.768 217.988 436.482C226.474 439.953 235.579 441.651 244.745 441.473C253.911 441.295 262.944 439.245 271.288 435.447C282.093 430.619 292.524 425.006 302.5 418.653C304.773 417.206 307.022 415.72 309.246 414.197C316.364 409.248 321.58 402.018 324.031 393.703C327.463 381.609 329.681 369.204 330.654 356.671C331.016 352.346 330.457 347.994 329.014 343.902C327.571 339.809 325.277 336.068 322.283 332.927C320.354 330.916 318.375 328.94 316.351 327C314.039 324.783 311.669 322.613 309.246 320.487Z" fill="white" fill-opacity="0.6"/>
<path fill-rule="evenodd" clip-rule="evenodd" d="M431.291 283.602C438.707 281.168 445.908 278.805 452.5 275.79L448.193 254.631C437.962 253.776 440.574 236.465 450.232 237.469L452.5 213.748C445.972 207.403 439.12 199.452 432.853 189L346.249 264.5C356.593 275.622 365.02 288.503 371.767 304.248C372.297 305.452 373.108 306.511 374.131 307.337C375.154 308.163 376.361 308.732 377.649 308.997C378.937 309.261 380.27 309.213 381.536 308.857C382.802 308.5 383.964 307.846 384.925 306.948C398.854 294.247 415.558 288.765 431.291 283.602Z" fill="white" fill-opacity="0.6"/>
<path fill-rule="evenodd" clip-rule="evenodd" d="M417 117.38L442.43 74.675L476.5 66.5L503.068 84C494.229 48.1971 480.923 15.8347 442.43 3.75197C440.635 3.18259 438.725 3.07263 436.876 3.43217C435.027 3.7917 433.298 4.60925 431.847 5.80997C415.075 19.8525 405.791 42.1653 397.929 61.0608C395.921 65.8867 394.006 70.4896 392.082 74.675C391.084 76.8491 390.744 79.2674 391.102 81.6324C391.461 83.9975 392.503 86.2062 394.1 87.987C399.424 93.9314 407.922 104.054 417 117.38Z" fill="white" fill-opacity="0.6"/>
<path fill-rule="evenodd" clip-rule="evenodd" d="M339.683 283.5L321 304.097C329.69 312.037 338.055 321.025 345.595 331.157C346.81 332.812 348.562 333.993 350.552 334.499C352.542 335.004 354.646 334.803 356.504 333.929C358.362 333.055 359.858 331.562 360.737 329.707C361.617 327.852 361.824 325.748 361.324 323.757C357.403 308.244 349.518 294.883 339.683 283.5Z" fill="white" fill-opacity="0.6"/>
<path d="M86.8911 554.371C101.165 558.62 124.314 560.061 140.77 526.831C143.884 520.544 146.126 511.887 148.67 504.148C148.977 503.211 149.058 502.215 148.908 501.241C148.757 500.267 148.379 499.341 147.805 498.54C147.23 497.739 146.475 497.085 145.6 496.631C144.725 496.176 143.756 495.934 142.77 495.924C125.336 495.545 110.74 484.452 103.295 477.524C102.586 476.87 101.735 476.388 100.809 476.117C99.883 475.845 98.9068 475.792 97.9566 475.96C97.0064 476.129 96.1081 476.515 95.3317 477.088C94.5554 477.661 93.922 478.406 93.4811 479.264C85.3221 494.849 89.1571 506.971 77.4901 533.97C76.6449 535.915 76.2199 538.016 76.2431 540.137C76.2662 542.257 76.737 544.349 77.6244 546.275C78.5119 548.201 79.7961 549.917 81.393 551.313C82.9899 552.708 84.8635 553.75 86.8911 554.371Z" fill="white" fill-opacity="0.6"/>
<path d="M352.946 373.563C352.698 372.946 352.257 372.426 351.69 372.08C351.122 371.733 350.458 371.579 349.796 371.641C349.134 371.702 348.51 371.975 348.015 372.42C347.521 372.864 347.183 373.456 347.052 374.108C344.81 384.886 341.528 395.422 337.252 405.567C332.964 415.915 325.653 424.729 316.275 430.856C310.991 434.302 305.473 437.374 299.76 440.05C298.078 440.828 296.708 442.151 295.872 443.804C295.035 445.458 294.78 447.345 295.149 449.161L296.589 456.154C297.133 458.758 298.636 461.063 300.801 462.609C302.967 464.155 305.634 464.83 308.274 464.499C327.298 462.208 345.069 452.299 353.852 446.685C355.765 445.459 357.402 443.849 358.658 441.956C359.915 440.064 360.764 437.93 361.152 435.692C365.552 410.546 358.118 386.384 352.946 373.563Z" fill="white" fill-opacity="0.6"/>
<path d="M349.254 472.65C336.282 479.122 322.326 482.488 313.14 484.15C310.252 484.675 307.66 486.246 305.857 488.562C304.055 490.878 303.17 493.777 303.371 496.705C304.855 518.305 310.286 563.605 329.647 559.159C358.529 552.533 359.205 500.142 358.16 477.918C358.113 476.892 357.812 475.894 357.283 475.014C356.754 474.134 356.015 473.399 355.131 472.876C354.247 472.354 353.247 472.059 352.221 472.02C351.195 471.98 350.175 472.197 349.254 472.65Z" fill="white" fill-opacity="0.6"/>
<path d="M160.169 470.144C164.557 459.948 170.159 450.318 176.854 441.463C177.256 440.929 177.534 440.313 177.67 439.659C177.806 439.005 177.795 438.329 177.638 437.68C177.482 437.03 177.184 436.424 176.765 435.903C176.346 435.383 175.818 434.961 175.217 434.669C162 428.292 149.694 420.179 138.624 410.546C138.076 410.065 137.42 409.722 136.712 409.548C136.004 409.374 135.264 409.372 134.556 409.544C133.847 409.717 133.19 410.057 132.641 410.536C132.092 411.016 131.666 411.621 131.4 412.3C123.2 432.927 112.245 437.184 107.347 445.391C106.58 446.693 106.176 448.176 106.176 449.687C106.176 451.198 106.58 452.681 107.347 453.983C115.6 468.05 138.159 478.293 153.785 475.347C155.197 475.077 156.52 474.46 157.634 473.552C158.749 472.644 159.62 471.473 160.169 470.144Z" fill="white" fill-opacity="0.6"/>
<path d="M59.1614 490.225C72.6044 481.238 83.1614 463.311 88.2904 453.361C88.6668 452.628 88.8598 451.814 88.8528 450.99C88.8459 450.165 88.6392 449.355 88.2505 448.628C87.8618 447.901 87.3026 447.279 86.6209 446.815C85.9393 446.352 85.1554 446.06 84.3364 445.966C66.6754 443.85 56.0094 432.589 51.0234 425.666C50.501 424.935 49.7947 424.356 48.9761 423.986C48.1575 423.617 47.2557 423.47 46.3622 423.561C45.4686 423.653 44.6152 423.979 43.8883 424.507C43.1614 425.034 42.5871 425.745 42.2234 426.566C38.6454 434.752 36.4114 448.908 33.8854 458.38C31.4704 467.439 25.0454 475.717 19.1464 483.18C12.9164 491.353 31.1824 508.929 59.1614 490.225Z" fill="white" fill-opacity="0.6"/>
<path d="M249.254 465C249.509 464.319 249.595 463.586 249.505 462.864C249.414 462.142 249.149 461.454 248.733 460.857C248.316 460.261 247.761 459.774 247.115 459.44C246.469 459.106 245.751 458.934 245.024 458.939C224.107 459.096 206.675 451.439 198.242 446.932C197.62 446.601 196.929 446.421 196.224 446.406C195.52 446.392 194.822 446.544 194.187 446.85C193.553 447.156 192.999 447.607 192.571 448.167C192.144 448.727 191.854 449.379 191.726 450.072C190.416 457.116 187.862 468.75 183.878 478.286C183.156 479.985 182.974 481.865 183.357 483.671C183.739 485.476 184.668 487.121 186.017 488.381C204.68 505.561 233.373 502.745 240.527 495.935C242.528 485.389 245.448 475.037 249.254 465Z" fill="white" fill-opacity="0.6"/>
<path d="M61.4405 412.336C66.1975 420.866 75.4405 426.822 85.6925 428.629C93.5105 430.007 97.5435 425.375 100.062 421.19C105.062 412.89 113.254 405.62 118.084 401.098C118.537 400.674 118.898 400.161 119.145 399.592C119.392 399.023 119.519 398.409 119.519 397.788C119.519 397.168 119.392 396.554 119.145 395.985C118.898 395.416 118.537 394.903 118.084 394.479C107.802 384.867 97.6655 371.639 92.5505 364.629C92.1435 364.071 91.6146 363.614 91.0042 363.291C90.3937 362.969 89.7177 362.789 89.0276 362.767C88.3375 362.745 87.6515 362.881 87.0218 363.164C86.392 363.447 85.8351 363.87 85.3935 364.401C79.4815 371.501 70.2025 382.145 64.1855 389.001C61.383 392.136 59.6156 396.059 59.1243 400.235C58.6331 404.411 59.4419 408.636 61.4405 412.336Z" fill="white" fill-opacity="0.6"/>
<path d="M117.569 302.654C109.275 303.707 101.159 305.864 93.437 309.069C88.8044 310.99 84.7141 314.018 81.5255 317.889C78.3368 321.76 76.1472 326.354 75.149 331.269C74.238 335.795 73.619 340.231 73.203 343.926C73.1206 344.674 73.2675 345.429 73.6242 346.091C73.981 346.753 74.5307 347.291 75.2004 347.633C75.8701 347.975 76.6281 348.106 77.3737 348.007C78.1193 347.909 78.8173 347.586 79.375 347.081L120.8 309.652C121.437 309.074 121.873 308.308 122.045 307.466C122.217 306.623 122.115 305.747 121.754 304.967C121.394 304.186 120.793 303.54 120.041 303.124C119.288 302.708 118.422 302.544 117.569 302.654Z" fill="white" fill-opacity="0.6"/>
<path d="M32.4831 385.253C32.6779 386.051 33.0885 386.78 33.6698 387.359C34.2512 387.939 34.981 388.348 35.7792 388.541C36.5774 388.734 37.4133 388.704 38.1954 388.453C38.9774 388.203 39.6755 387.742 40.2131 387.121L53.5931 371.721C55.5556 369.433 56.6794 366.545 56.7791 363.532C57.2141 352.781 60.9081 340.226 63.6141 332.332C63.7997 331.794 63.8074 331.21 63.6361 330.667C63.4647 330.125 63.1235 329.651 62.6626 329.317C62.2017 328.983 61.6456 328.806 61.0764 328.812C60.5071 328.818 59.9549 329.006 59.5011 329.35C47.8201 338.216 26.2231 358.689 32.4831 385.253Z" fill="white" fill-opacity="0.6"/>
<g clip-path="url(#clip1_206_602)">
<path d="M540.508 213.995C540.683 214.449 541.441 216.075 540.677 214.787C541.853 217.47 542.642 220.213 543.146 223L508 233.5L538.794 210.5C539.52 211.576 540.098 212.752 540.508 213.995Z" fill="white"/>
<path d="M541.959 261.427C541.059 278.538 541.654 295.695 543.738 312.703C544.511 319.104 544.376 325.822 540.12 331.067C535.857 336.325 529.003 339.008 522.602 341.515C521.024 342.133 519.474 342.74 517.997 343.372C501.616 350.382 485.27 357.913 472.089 370.177C469.431 372.648 464.604 370.999 464.693 367.112C464.717 355.341 462.11 343.753 459.512 332.207C457.059 321.307 454.615 310.444 454.401 299.5L501 272L508 233.5L543.146 223C544.55 230.766 543.737 238.868 542.929 246.926C542.44 251.804 541.953 256.665 541.959 261.427Z" fill="white"/>
<path d="M496.155 311.919C496.619 312.538 497.271 312.99 498.014 313.208C498.756 313.427 499.549 313.4 500.275 313.132C501 312.863 501.62 312.368 502.042 311.72C502.464 311.071 502.665 310.304 502.616 309.531C501.89 296.74 502.406 283.907 504.157 271.215C505.86 258.29 511.424 246.18 520.121 236.468C525.023 231.003 530.301 225.887 535.916 221.159C537.572 219.777 538.714 217.877 539.157 215.767C539.599 213.656 539.317 211.458 538.355 209.528L534.63 202.1C533.235 199.336 530.85 197.199 527.951 196.113C525.051 195.027 521.849 195.072 518.981 196.239C498.286 204.545 481.293 221.037 473.111 229.993C471.33 231.947 469.975 234.25 469.132 236.756C468.29 239.262 467.978 241.916 468.216 244.55C470.844 274.142 486.479 299.065 496.155 311.919Z" fill="white"/>
<path d="M470.459 199.42C483.092 188.237 497.767 180.249 507.592 175.614C510.68 174.154 513.121 171.608 514.45 168.461C515.778 165.315 515.9 161.789 514.792 158.558C506.618 134.724 486.868 85.4362 466.443 96.2658C435.971 112.414 450.992 171.512 458.861 196.18C459.222 197.32 459.861 198.351 460.721 199.181C461.58 200.011 462.633 200.614 463.784 200.936C464.935 201.257 466.148 201.287 467.314 201.022C468.479 200.758 469.56 200.207 470.459 199.42Z" fill="white"/>
<path fill-rule="evenodd" clip-rule="evenodd" d="M433.096 350.944C429.502 335.371 428.184 319.391 429.158 303.5L436.446 300C436.157 307.291 436.195 314.555 437.242 321.906C438.559 331.156 440.875 340.212 443.188 349.258C443.841 351.81 444.493 354.361 445.123 356.915C448.493 370.414 450.864 383.94 449.846 397.972C449.844 398.361 449.844 398.758 449.843 399.164L449.843 399.173C449.825 411.852 449.796 432.407 432.288 430.434C426.152 429.67 420.379 426.662 414.648 423.675C410.782 421.66 406.934 419.655 403.006 418.356C395.847 415.987 388.445 415.71 381 415.903L374.5 351.587L414.997 308.787C415.855 325.243 417.983 343.932 431.427 352.09C431.607 352.216 431.822 352.283 432.042 352.284C432.261 352.284 432.476 352.218 432.657 352.093C432.838 351.969 432.977 351.793 433.056 351.587C433.134 351.382 433.148 351.158 433.096 350.944Z" fill="white"/>
<path d="M343.2 74.7468C329.047 84.3139 318.181 98.5213 315.511 115.451C315.437 115.896 315.236 116.311 314.932 116.645C314.627 116.979 314.233 117.217 313.796 117.332C313.359 117.447 312.898 117.433 312.469 117.291C312.04 117.15 311.661 116.888 311.378 116.536C281.748 82.4972 296.889 50.1627 342.536 69.8216C343.026 69.987 343.459 70.286 343.788 70.6847C344.117 71.0834 344.327 71.5661 344.396 72.0782C344.465 72.5903 344.39 73.1115 344.179 73.583C343.967 74.0546 343.628 74.4576 343.2 74.7468Z" fill="white"/>
<path d="M290.695 130.363C250.195 142.209 257.062 172.019 247.359 163.946C210.314 124.505 232.266 69.2584 291.706 126.444C291.99 126.735 292.195 127.095 292.3 127.488C292.405 127.881 292.407 128.295 292.305 128.689C292.204 129.083 292.002 129.444 291.72 129.737C291.438 130.03 291.084 130.246 290.695 130.363Z" fill="white"/>
<path d="M248.289 191.684C254.779 199.197 232.479 201.362 224.247 228.805C219.98 236.903 213.25 223.991 210.349 220.629C204.192 211.578 203.386 200.484 204.872 189.913C206.048 181.546 207.683 169.444 217.239 166.678C226.304 164.05 231.023 170.828 235.854 177.088C239.77 182.154 243.934 187.005 248.289 191.684Z" fill="white"/>
<path d="M303.478 272.164C292.267 274.639 280.475 271.039 270.091 266.968C260.368 263.153 251.158 258.144 242.671 252.056C241.028 250.899 239.717 249.332 238.866 247.512C238.016 245.691 237.657 243.68 237.824 241.677C238.856 229.114 247.273 217.552 257.409 211.154C259.143 209.961 261.216 209.362 263.319 209.447C265.421 209.532 267.44 210.295 269.072 211.624C282.855 222.829 306.268 239.27 310.061 242.032C328.895 253.327 321.843 267.217 303.478 272.164Z" fill="white"/>
<path d="M342.963 217.433C330.072 220.279 316.511 216.139 304.57 211.458C293.39 207.071 282.799 201.311 273.04 194.311C271.151 192.98 269.643 191.179 268.665 189.085C267.688 186.991 267.274 184.678 267.467 182.376C268.654 167.929 278.332 154.634 289.988 147.277C291.981 145.905 294.365 145.216 296.783 145.314C299.201 145.411 301.522 146.29 303.399 147.817C319.248 160.702 346.171 179.608 350.533 182.784C372.19 195.772 364.08 211.744 342.963 217.433Z" fill="white"/>
<path d="M392.746 166.133C379.692 166.139 367.476 159.258 356.94 152.199C347.076 145.585 338.073 137.77 330.137 128.934C328.596 127.248 327.523 125.187 327.024 122.957C326.525 120.728 326.618 118.406 327.293 116.223C331.511 102.524 343.685 91.7431 356.505 87.1169C358.722 86.216 361.171 86.0578 363.485 86.666C365.799 87.2742 367.854 88.616 369.342 90.4904C381.908 106.303 403.888 130.286 407.425 134.281C425.577 151.43 414.349 165.129 392.746 166.133Z" fill="white"/>
<path d="M270.114 307.736C257.544 311.825 243.764 313.166 230.945 309.467C229.988 309.186 229.129 308.642 228.466 307.896C227.804 307.15 227.364 306.233 227.197 305.249C224.429 293.248 228.798 284.015 240.358 278.096C243.266 276.247 246.711 277.093 249.368 278.965C256.991 283.257 265.398 285.63 273.056 289.743C282.793 294.36 280.293 305.76 270.114 307.736Z" fill="white"/>
<path d="M227.424 261.006C234.207 269.671 214.206 270.842 211.201 291.995C207.548 301.212 198.325 285.914 195.682 282.307C189.18 271.901 183.902 257.253 187.704 244.983C189.671 238.631 194.529 234.214 201.382 236.697C212.535 241.674 218.642 252.571 227.424 261.006Z" fill="white"/>
<path d="M507.971 370.016C529.607 361.321 546.715 345.456 553.829 338.17C554.795 337.174 556.102 336.579 557.487 336.506C558.872 336.433 560.234 336.886 561.299 337.775C582.027 354.931 607.122 365.789 629.522 378.918C635.23 382.326 642.852 385.655 644.729 392.531C654.331 416.6 643.589 507.283 631.557 496.116C590.532 458.346 550.937 420.768 509.506 383.481C505.333 379.304 501.971 372.433 507.971 370.016Z" fill="white"/>
<path d="M619.574 519.225C575.688 542.077 502.197 552.294 498.33 541.13C488.719 524.587 479.382 507.806 468.3 492.197C460.453 481.363 453.551 471.117 455.102 457.065C456.018 448.741 460.017 440.309 462.914 432.516C468.006 418.888 473.259 405.313 478.921 391.909C479.5 390.895 480.457 390.151 481.583 389.841C482.709 389.531 483.912 389.679 484.929 390.254C524.967 420.069 559.708 456.306 596.187 490.229C600.045 495.023 626.822 515.064 619.574 519.225Z" fill="white"/>
<path d="M669.085 390.396C674.295 387.703 680.889 390.539 685.935 392.307C696.699 396.082 702.071 404.303 700.264 415.687C680.894 543.531 648.11 567.085 524.395 595.419C519.064 595.701 515.638 592.763 512.458 588.74C509.116 584.511 501.988 578.18 502.203 572.321C502.612 561.194 519.678 562.497 527.372 561.522C625.454 551.276 669.805 527.907 666.469 420.166C666.586 410.387 658.089 396.796 669.085 390.396Z" fill="white"/>
</g>
</g>
<defs>
<clipPath id="clip0_206_602">
<rect width="600" height="600" fill="white"/>
</clipPath>
<clipPath id="clip1_206_602">
<rect width="600" height="600" fill="white" transform="translate(104 -3)"/>
</clipPath>
</defs>
</svg>
