<?xml version="1.0" ?><svg fill="#c0392b" data-name="1" id="_1" viewBox="0 0 600 600" xmlns="http://www.w3.org/2000/svg"><title/><path d="M139.428,332.46a12.207,12.207,0,0,0,14.1,2.632c15.626-7.479,53.378-15.15,86.782,19.805,2.262,2.367,4.611,5.619,8.148,5.353a11.559,11.559,0,0,0,6.975-3.133c5.24-5.414,10.647-10.665,15.954-16.015,2.621-2.643,2.692-2.768.264-5.512C227.583,286.009,39.01,87.779,9.583,57.4A2.262,2.262,0,0,0,5.7,58.981V178.748a33.6,33.6,0,0,0,9.319,23.23C54.414,243.162,118.882,310.875,139.428,332.46Z" style="fill:#c0392b"/><path d="M286.747,318.968a4.083,4.083,0,0,0,5.834.057l42.827-42.9a4.076,4.076,0,0,0-.021-5.789C310.032,245.406,116.654,51.981,79.336,11.93A19.912,19.912,0,0,0,64.779,5.579L8.171,5.54A2.471,2.471,0,0,0,5.7,8.011v7.617A19.888,19.888,0,0,0,11.239,29.4Z" style="fill:#c0392b"/><path d="M152.505,456.621c-27.5,13.619-30.5,56.667-5.969,62.583a23.083,23.083,0,0,0,21.544-6.36L315.147,366.4a17.912,17.912,0,0,1,25.817.56l13.539,14.55a3.009,3.009,0,0,0,4.6-.213l30.757-40.1a3.016,3.016,0,0,0-.045-3.723c-1.8-2.249-3.674-4.157-6.741-7.4a17.912,17.912,0,0,1,.845-25.479c33.568-31,118.709-109.562,129.736-119.238,10.246-9.118,25.69-23.5,18.951-36.863-12.336-25.5-52.041-22.27-60.908,4.453-5.459,13.492-9.72,31.491-21.309,41.624C406.016,232.124,243.312,397.154,199.076,436.82,184.288,450.081,160.4,452.741,152.505,456.621Z" style="fill:#c0392b"/><path d="M349.566,257.9c2.913,2.489,2.674,2.4,5.42-.323l13.921-13.749a7.117,7.117,0,0,0-.591-10.657c-14.613-11.521-47.233-47.251-22.8-88.955a12.288,12.288,0,0,0-1.9-14.942L283.919,69.921c-10.5-10.463-7.329-38.868-8.45-41.325a2.155,2.155,0,0,0-4.109.773l-5.5,79.121a1.741,1.741,0,0,1-3.455.266l-3.97-62.624a9.97,9.97,0,0,0-3.027-6.546c-6.392-6.166-21.944-21.132-26.756-25.439a33.57,33.57,0,0,0-22.376-8.556c-26.454-.013-75.075,0-93.088,0a2.928,2.928,0,0,0-2.1,4.976C145.1,45.424,347.067,255.764,349.566,257.9Z" style="fill:#c0392b"/><path d="M518.01,483.226c-4.446-5.119-9.111-10.048-13.672-15.068-2.312-2.081-7.775-11.222-9.035-3.761,0,0,2.189,44.932,4.325,67.993a50.551,50.551,0,0,0,8.119,23.192c6.606,10.01,17.4,24.374,27.589,29.072,11.393,4.408,37.11,13.322,48.183,8.33,6.1-2.75,10.687-8.156,10.762-15.578.326-18.951-3.18-38.281-16.444-52.637-12.145-16.273-24.444-23.35-43.116-30.353C528.354,491.78,522.591,488.5,518.01,483.226Zm11.466,45.11c8.22-12.538,29.369,10.015,34.706,19.49,6.731,11.949.776,26.653-18.993,11.779-7-5.271-13.078-11.962-16.493-20.057A11.975,11.975,0,0,1,529.476,528.336Z" style="fill:#c0392b"/><path d="M480.123,514.628c1.573.618,2.708-.4,2.642-2.177-.227-6.048-3.408-71.039-3.408-71.039a8.657,8.657,0,0,0-2.075-5.809c-5.352-5.97-10.583-12.049-15.926-18.027-2.359-2.639-2.491-2.657-5.186-.743-12.5,8.878-24.977,17.8-37.806,26.953a3.558,3.558,0,0,0-.493,5.367C438.785,470.837,458.471,493.874,480.123,514.628Z" style="fill:#c0392b"/><path d="M413.13,429.262c10.5-7.98,21.73-17.581,31.972-24.1a3.553,3.553,0,0,0,.655-5.43l-40.106-42.6a3,3,0,0,0-4.431.069c-10.524,11.932-22.044,24.608-31.3,37.161a2.993,2.993,0,0,0,.276,3.858l29.171,30.023A10.406,10.406,0,0,0,413.13,429.262Z" style="fill:#c0392b"/></svg>