<?xml version="1.0" ?><svg fill="#c0392b" data-name="1" id="_1" viewBox="0 0 600 600" xmlns="http://www.w3.org/2000/svg"><title/><path d="M249.436,219.658c20.452,9.5,38.044,22.4,57.076,34.238a7.619,7.619,0,0,0,8.33-.138c13.263-8.985,58.174-34.953,106.1-12.212a3.636,3.636,0,0,0,5.149-3.611c-7.108-99.447-87.1-168.008-155.461-171.881a3.7,3.7,0,0,0-3.529,5.2c9.162,20.919,18.181,72.26-36.607,127.049,0,0-17.511-4.567-24.1-6.562-6.791-1.792-11.989,2.88-11.183,9.865.024,5.908,5.8,25.541,5.8,25.541s-30.076,40.274-129.758,37.615a6.339,6.339,0,0,0-6.322,7.42C82.065,377.033,148.945,430.036,236.584,433.3a6.37,6.37,0,0,0,6.334-7.868c-13.265-58.612,7.457-105.707,11.846-118.447a8.026,8.026,0,0,0-.708-6.773c-7.264-11.988-17.887-34.03-25.8-46.488a1.515,1.515,0,0,1,2.292-1.952c15.641,15.145,47.337,45.9,62.506,61.111a4.6,4.6,0,0,0,6.555-.007l14.31-14.374a4.751,4.751,0,0,0,.061-6.8c-40.975-36.025-59.853-60.732-66.235-69.961A1.393,1.393,0,0,1,249.436,219.658Z" style="fill:#c0392b"/><path d="M449.56,256.407c17.485,9.483,28.68,25.764,33.823,34.678a2.326,2.326,0,0,0,4.33-.9C510.761,117.991,404.212-11.593,209.5,6.5a2.41,2.41,0,0,0-.873,4.508c11.031,5.878,31.876,18.584,44.338,36.252a10.051,10.051,0,0,0,7.556,4.267C379,59.141,438.851,140.27,444.153,247.839A10.327,10.327,0,0,0,449.56,256.407Z" style="fill:#c0392b"/><path d="M331.177,307.163a5.185,5.185,0,0,0-7.608-.271l-15.7,15.616a3.908,3.908,0,0,0,.437,5.543c46.42,38.561,151.066,124.8,234.229,262.778a8.892,8.892,0,0,0,7.6,4.358h3.5a1.311,1.311,0,0,0,1.132-1.936c-3-5.642-12.524-23.082-27.042-45.347a1.215,1.215,0,0,1,1.88-1.53c18.975,20.807,32.944,36.586,39.5,44.05a13.9,13.9,0,0,0,10.45,4.763H591.1a4.925,4.925,0,0,0,4.864-4.982V568.7a14.565,14.565,0,0,0-4.471-10.539C564.52,532.417,414.489,402.844,331.177,307.163Z" style="fill:#c0392b"/><path d="M302.483,486.052c-11.411-5.062-33.084-16.22-46.738-32.938a10.006,10.006,0,0,0-7.832-3.707C129.206,450.423,63.89,373.849,51.152,266.936a10.283,10.283,0,0,0-5.987-8.153c-18.1-8.188-30.391-23.614-36.139-32.132a2.329,2.329,0,0,0-4.257,1.214C-6.295,401.3,108.959,522.812,301.924,490.611A2.411,2.411,0,0,0,302.483,486.052Z" style="fill:#c0392b"/></svg>