<?xml version="1.0" ?><svg fill="#c0392b" data-name="1" id="_1" viewBox="0 0 600 600" xmlns="http://www.w3.org/2000/svg"><title/><path d="M299.639,92.4a1.91,1.91,0,0,0-1.871-3.211c-52.74,15.559-61.989,51.6-91.119,29.966a5.06,5.06,0,0,0-6.918.9c-12.846,15.688-63.075,67.072-116.778,83.585a3.419,3.419,0,0,0-1.032,4.3c37.553,74.628,51.393,110.567,82.028,142.337,14.3,14.831,55.178,17.793,66.549,18.336a1.865,1.865,0,0,0,1.814-2.642c-41.069-78.77-15.114-118.176,5.765-136.613a6.945,6.945,0,0,0,1-9.33c-8.817-11.98-30.291-41.475-40.256-57.984a1.366,1.366,0,0,1,2.113-1.7c20.313,19.409,51.622,51.812,64.644,65.371a8.4,8.4,0,0,0,12.152-.028,147.8,147.8,0,0,0,13.878-16.531c2.359-3.43,2.049-5.5-.772-8.745-4.111-4.727-7.885-9.767-12.288-14.217C243.905,151.184,283.781,107.356,299.639,92.4Z" style="fill:#c0392b"/><path d="M590.488,488.75c-132.1-105.727-250.954-237.829-278.92-267.313a4.715,4.715,0,0,0-7.221.459l-15.039,20.475a4.729,4.729,0,0,0,.34,6c100.4,108.655,196.374,174.346,304.469,303.951a.944.944,0,0,0,1.626-.665c.007-12.423-.093-14.442.012-26.746a14.131,14.131,0,0,0-3.833-9.777l-75.7-76.081a.892.892,0,0,1,1.2-1.32l76.873,62.818a.945.945,0,0,0,1.529-.742A14.172,14.172,0,0,0,590.488,488.75Z" style="fill:#c0392b"/><path d="M137.631,411.127C188.539,425.3,241.465,424.933,255.5,424.542a2.373,2.373,0,0,0,2.089-3.379c-2.454-5.226-7.367-15.579-10.493-22.161a11.753,11.753,0,0,0-9.339-6.646c-13.037-1.431-42.3-4.975-56.175-9.33-15.839-4.97-53.888-15.283-119.566-164.53a4.433,4.433,0,0,0-5.193-2.5L7.073,229.229a3.882,3.882,0,0,0-2.585,5.261c8.118,19.226,44,101.13,84.623,146.629A101.45,101.45,0,0,0,137.631,411.127Z" style="fill:#c0392b"/><path d="M172.932,128.827a76.59,76.59,0,0,0,12.823-13.761,3.627,3.627,0,0,0-.77-4.993c-17.341-13.063-82.5-66.422-85.851-62.5-3.456,4.044,44.71,53.686,68.77,80.881A3.6,3.6,0,0,0,172.932,128.827Z" style="fill:#c0392b"/></svg>