<?xml version="1.0" ?><svg fill="#c0392b" data-name="Layer 4" id="Layer_4" viewBox="0 0 600 600" xmlns="http://www.w3.org/2000/svg"><title/><path d="M596.514,328.084a3.092,3.092,0,0,1-5.026,2.354C490.165,259.928,236.112,39.591,199.6,7.883a2.541,2.541,0,0,1,1.673-4.453h59.484A23.579,23.579,0,0,1,273.244,7c105.488,65.845,209.923,133.82,314.266,201.58a19.769,19.769,0,0,1,9,16.582v48.073a3.952,3.952,0,0,1-6.185,3.26L387.236,137.4a1.83,1.83,0,0,0-2.17,2.944S479.032,231.9,590.48,312.687a15.573,15.573,0,0,1,6.034,12.71Z" style="fill:#c0392b"/><path d="M405.312,3.43h184.37a6.8,6.8,0,0,1,6.8,6.821c-.108,30.653.012,64,.026,94.579a3.488,3.488,0,0,1-5.027,3.138C530.241,77.821,433.235,24.35,404.077,8.187A2.538,2.538,0,0,1,405.312,3.43Z" style="fill:#c0392b"/><path d="M357.806,7.866l232.97,135.679a10.438,10.438,0,0,1,5.738,9.307v4.285a2.686,2.686,0,0,1-3.861,2.414S414.977,60.825,334.347,8.087a2.533,2.533,0,0,1,1.385-4.657h7.521A26.08,26.08,0,0,1,357.806,7.866Z" style="fill:#c0392b"/><path d="M186.848,449.954c30.665,46.78,66.432,94.035,95.882,141.635a3.252,3.252,0,0,1-2.79,4.953l-68.01-.328a28.79,28.79,0,0,1-24.5-13.886C128.2,484.469,66.678,384.159,5.513,287.889a13.782,13.782,0,0,1-1.946-6.96c.2-26.825.566-53.649.935-80.473.066-4.725,2.639-6.247,6.663-3.79C112.557,323.408,233.2,462.648,333.592,590.889a3.247,3.247,0,0,1-2.564,5.247H321.7a12.637,12.637,0,0,1-10-4.906c-15.92-20.586-83.563-105.169-122.231-143.155C187.993,446.627,185.715,448.225,186.848,449.954Z" style="fill:#c0392b"/><path d="M366.64,477.662c-27.015-25.917-52-58.288-75.015-87.821a9.173,9.173,0,0,1,1.255-12.6l97.288-83.739a11.544,11.544,0,0,1,15.01-.035c27.086,23,53.553,52.194,72.736,82.955a7.433,7.433,0,0,1-2.469,10.273c-17,10.338-64.187,41.72-97.573,89.836A7.432,7.432,0,0,1,366.64,477.662Z" style="fill:#c0392b"/><path d="M137.747,590.71a3.516,3.516,0,0,1-3,5.332c-16.1.014-32.124-.262-48.222.087-4.321.121-6.473-1.372-8.367-5.18-24.024-48.118-47.986-96.271-72.783-144a13.282,13.282,0,0,1-1.806-5.583c-.1-20.7-.088-41.4-.081-62.2a3.173,3.173,0,0,1,5.89-1.637Z" style="fill:#c0392b"/><path d="M312.237,332.518a5.718,5.718,0,0,1-8.164-.819c-18.1-22.834-99.131-124.446-144.377-171.565-3.63-3.916-7.259-9.883-1.451-13.876a99.357,99.357,0,0,0,7.587-6.48c2.9-2.663,4.985-1.738,7.51.847,45.161,45.72,145.571,137.237,168.739,158.289a5.713,5.713,0,0,1-.166,8.6Z" style="fill:#c0392b"/><path d="M524.429,362.428a14.328,14.328,0,0,1-1.7,10.02c-1.469,2.549-5.98,5.958-9.812,8.551a6.542,6.542,0,0,1-9.338-2.207c-35.546-62.047-97.345-102.128-97.345-102.128-4.148-2.744-12.136-6.236-10.506-12.084,4.2-5.2,7.838-10.955,15.213-12.985,21.022-6.23,61.3,31.46,83.878,55.872a124.554,124.554,0,0,1,25.758,41.7A94.7,94.7,0,0,1,524.429,362.428Z" style="fill:#c0392b"/><path d="M367.818,508.892a66.449,66.449,0,0,1-20.183,2.823,25.018,25.018,0,0,1-14.4-4.557c-14.266-10.024-49.263-38.742-80.8-97.277a16.211,16.211,0,0,1,2.955-19.321c7.483-7.27,7.437-7.312,13.522,1.06,29.27,40.666,61,79.308,100.077,111.014A3.62,3.62,0,0,1,367.818,508.892Z" style="fill:#c0392b"/><path d="M117.424,137.723c-2.5-12.874-5.81-25.588-8.577-38.414-1.416-6.568.8-8.74,7.535-7.277,11.835,2.573,23.593,5.5,35.4,8.2,7.227,1.652,10.989,6.685,12.767,13.167a12.778,12.778,0,0,1-4.333,13.186c-5.877,4.821-14.943,12.376-20.091,17.244C131.52,151.965,118.67,145.7,117.424,137.723Z" style="fill:#c0392b"/><path d="M8.346,507.667c13.9,28.145,27.688,56.346,41.69,84.44,1.5,3,1.221,3.526-2.273,4.051-11.234,1.686-18.12-1.63-22.548-13.085C19.66,568.7,11.808,555.22,4.976,541.339a9.379,9.379,0,0,1-1.346-3.7c-.076-9.617-.072-19.234-.065-28.851A2.522,2.522,0,0,1,8.346,507.667Z" style="fill:#c0392b"/></svg>