<?xml version="1.0" ?><svg fill="#c0392b" data-name="Layer 4" id="Layer_4" viewBox="0 0 600 600" xmlns="http://www.w3.org/2000/svg"><title/><path d="M139.96,563.362a1.147,1.147,0,0,0-1.868,1.23c2.215,5.954,5.655,17.61,4.649,30.543-.2,2.542-.448,4.1-3.591,3.819-2.526-.226-3.935-.6-3.763-3.725,1.239-22.516-13.244-48.347-55.933-58.075-25.5-5.812-50.8,1.794-75.377,9.836,0-10.373-.109-20.667.158-30.951.029-1.1,2.074-2.584,3.48-3.143C17.906,508.847,27.765,503.7,38.387,501c57.73-14.672-6.686-97.089-31.6-128.622-.455-2.242,1.861-3.9,3.523-2.321,87.4,82.791,129.029,64.418,155.878,72.364a2.31,2.31,0,0,1-.062,4.431c-14.554,4.094-33.355,9.817-42.286,20.9-3.012,3.628-4.456,8.662-6.147,13.231-.662,1.789.049,3.381,2.655,1.611,42.246-28.7,108.612-33.059,151.185-25.122a1.439,1.439,0,0,1-.226,2.852h-.047c-59.248,1.081-102.353,8.67-125.232,25.4-10.593,7.745,3.078,23.25,11.3,26.261a121.7,121.7,0,0,0,44.608,11.881c53.9,3.792,229.122,13.18,236.169-25.785,5.107-28.239-63.388-32.745-63.388-36.951,0-3.962,79.2-3.658,86.552,36.12a8.52,8.52,0,0,0,11.725,6.374c4.1-1.831,8.344-5.558,10.827-12.958,5.047-15.042-3.271-27.29-25.943-39.538-11.216-6.058-29.33-10.553-47.567-11.372a1.729,1.729,0,0,1-.478-3.369c11.118-3.7,84.991,3.285,173.23-80.818,3.235-3.084,12.945-4.058.376,9.355-56.808,60.627-45.28,72.2-28.009,79.863a192.994,192.994,0,0,0,34.384,11.24c9.862,1.805,9.862,1.8,9.862,11.929,0,28.5-.073,56.991.077,85.485.023,4.433-.395,6.032-5.665,4.84-24.35-4.893-50.25-9.74-74.767-4.245,25.584,1.777,50.922,5.915,74.82,15.485,5.615,2.047,5.612,10.7,5.612,10.7-32.109-12.23-66.528-21.839-101.071-17.378-20.018,2.8-40.081,10.749-30.954,34.977-8.827,0-17.388.023-25.914-.024a9.935,9.935,0,0,1-6.371-2.375c-17.893-15.2-123.351-95.946-241.045,1.938a7.711,7.711,0,0,1-4.532,1.423c-10.663.119-21.33-.049-31.991.132-3.1.052-3.785-1.01-4.014-3.951C153.02,584.179,147.769,570.934,139.96,563.362Z" style="fill:#c0392b"/><path d="M272.113,126.59a9.6,9.6,0,0,1,13.434-4.561c23.058,12.709,44.931,27.5,69.942,36.462,6.015,2.387,12.406,3.806,18.536,5.927,2.889,1,4.063-.01,5.316-2.516,4.355-8.708,4.366-8.421-4.6-11.717-24.91-9.157-48.886-20.258-71.149-34.861-10.076-6.146-20.457-11.8-28.85-20.285a11.478,11.478,0,0,1-3.232-12.862C278.713,62.529,286.242,43,293.835,23.5a2.08,2.08,0,0,1,.365-.593,2.471,2.471,0,0,1,4.279,1.8,2.672,2.672,0,0,1-.073.42c-3.821,17.466-17.339,40,3.817,51.149,8.95,5.4,18.176,10.354,27.431,15.218,6.053,3.18,9.888,1.888,13.434-4.28,4.48-7.792,8.693-15.738,13.045-23.6a71.588,71.588,0,0,1,5.294-9.034,3.186,3.186,0,0,1,.922-.785,3.464,3.464,0,0,1,5.269,2.533,1.976,1.976,0,0,1-.06,1.178,262.642,262.642,0,0,0-23.053,64.711c-.007.033-.014.066-.02.1a1.933,1.933,0,0,0,3.538,1.33l.018-.032c2.878-5.258,5.653-10.579,8.233-15.989,1.181-2.479,2.37-2.947,5-1.886,11.267,4.55,22.668,8.767,33.948,13.285,3.5,1.4,5.45,1.033,7.41-2.657C422.724,78.025,448.212,43.15,475.012,9.337c1.126-1.237,3.533-1.307,5.356-1.909-.049,1.819.564,4.032-.248,5.4-41.266,69.1-89.14,136.128-117.907,211.534a2.2,2.2,0,0,0,3.919,1.953c11.974-19.007,18.381-32.479,28.128-46.978,3.6-5.226,6.247-6.024,12.343-4.523,6.78,1.67,12.036,2.01,18.809,3.707,9.443,2.365,10.2,4.9,5.275,13.183a756.81,756.81,0,0,0-81.974,177.142c-2.35,7.275-4.609,19.321-14.951,13.964-44.575-23.821-89.268-46.9-138.289-60.25-5.678-1.9-7.391-4.932-4.982-10.343q22.834-51.3,45.571-102.646c12.13-27.565,24.007-55.242,36-82.867Zm77.762,120.384c-2.269,3.046-3.87,6.52-4.046,9.67a3.6,3.6,0,0,0,5.586,3.216c2.707-1.816,5.574-5.348,4.93-11.987a2.323,2.323,0,0,0-.76-1.48A3.863,3.863,0,0,0,349.875,246.974Z" style="fill:#c0392b"/><path d="M.331,75.558c68.394,41.591,142.8,75.118,217.578,102.894a6.079,6.079,0,0,1,3.381,8.314l-16.939,35.581a6.079,6.079,0,0,1-8.263,2.8C135.816,194.323,69.931,164.989,5.109,145.635,2.577,144.912.77,144.142.76,140.746.878,119.035-.01,97.238.331,75.558Z" style="fill:#c0392b"/><path d="M334,411.572a21.38,21.38,0,0,1,3.162,22.852c-2.156,4.476-5.607,7.355-11.35,3.316-53.7-37.764-97.925-63.33-163.363-74.22-9.1-1.514-10.523-8.679-4.727-15.872,7.579-9.407,17.274-11.026,30.513-8.292C237.258,349.478,303.423,374.788,334,411.572Z" style="fill:#c0392b"/><path d="M446.674,167.388c-12.6-2.859-25.2-5.746-37.82-8.553-2.659-.592-2.858-1.927-1.417-3.821,6.031-7.927,12.033-15.88,18.274-23.64.75-.932,3.033-1.327,4.37-.983,16.522,4.254,35.75,5.846,35.75,5.846,5.1.241,6.111,2.484,6.151,6.472C472.091,153.533,457.838,166.977,446.674,167.388Z" style="fill:#c0392b"/><path d="M502.9,74.423c-1.653,1.991-3.832,5.5-6.87,2.823-2.957-2.6.257-5.107,1.816-7.252C513.8,48.185,546.248,10.065,562.269,1.328a2.361,2.361,0,0,1,2.861,3.693C554.782,15.746,529.045,42.921,502.9,74.423Z" style="fill:#c0392b"/><path d="M404.571,314.17c-12.741-1.029-17.277-1.568-12.915-17.337,2.7-9.772,7.467-18.344,13.432-26.426,2.174-2.946,6.8-2.813,12.077,1.778a11.874,11.874,0,0,1,3.793,8.321C420.218,293.181,414.532,309.832,404.571,314.17Z" style="fill:#c0392b"/><path d="M479.618,104.532c2.838-.228,5.56-3.633,7-6.672,1.422-2.886.213-7.712-3.273-6.3C479.405,92.4,474,103.4,479.618,104.532Z" style="fill:#c0392b"/><path d="M377.4,35.711c2.847.06,5.9-3.054,7.641-5.931,1.707-2.728.991-7.651-2.62-6.6C378.417,23.616,371.929,34.017,377.4,35.711Z" style="fill:#c0392b"/></svg>