<?xml version="1.0" ?><svg fill="#c0392b" data-name="Layer 4" id="Layer_4" viewBox="0 0 600 600" xmlns="http://www.w3.org/2000/svg"><title/><path d="M282.062,276.407a1036.949,1036.949,0,0,1-64.9-122.951c-3.086-6.9-8.6-27.5,3.992-37.538C254.941,88.993,294.724,71.9,337.57,62.57c7.83-1.792,15.006,1.844,18.035,9.211,20.334,49.449,44.768,89.1,73.627,134.135,8.652,13.5-5.134,23.883-13.414,28.158-28.093,14.5-55.773,29.8-83.833,44.37C324.5,282.329,296.565,299.807,282.062,276.407Z" style="fill:#c0392b"/><path d="M106.824,268.7c24.745,14.235,55.32-5.04,52.988-33.492a172.415,172.415,0,0,0-6.333-32.757c-4.629-16.3,3.545-23.163,10.762-3.315,27.851,76.59,77.168,116.229,113.338,127.57,172.706,54.149,265.988-105.224,277.01-139.4a2.564,2.564,0,0,1,5,.638c.691,12.011-.953,34.087-13.473,69.428-1.741,4.916.457,7.963,5.7,7.885a52.943,52.943,0,0,0,16.693-2.563c8.159-2.894,15.931-6.914,23.761-10.678,3.475-1.67,4.118-.649,3.967,2.8-.288,6.552-.47,13.13-.2,19.678.136,3.325-1.186,4.964-3.8,6.6-55.236,36.755-240.6,150.03-454.162,53.661-5.294-2.389-93.78-43.585-128.084-112.92a32.638,32.638,0,0,1-3.357-14.223l-.25-32.284A1.9,1.9,0,0,1,9.8,174.165C21.774,190.059,63.034,243.509,106.824,268.7Z" style="fill:#c0392b"/><path d="M117.146,590.647l40.644-25.675a23.094,23.094,0,0,0,8.742-10.071c5.389-12.011,16.628-37.832,19.135-49.7A50.981,50.981,0,0,1,201.2,478c19.177-18.179,35.278-30.951,53.974-48.642a7.2,7.2,0,0,1,7.846-1.361l46.092,29.748a14.723,14.723,0,0,0,10.362,2.179c19.89-3.254,47.138-16.168,58.166-21.694a15.193,15.193,0,0,1,10.566-1.143c6.476,1.649,16.493,4.38,18.649,6.009a19.083,19.083,0,0,1,5.573,23.8c-16.756,33.522-82.592,37.167-114.6,47.017-60.913,18.745-98.156,55.409-121.518,75.617a17.562,17.562,0,0,1-11.5,4.282l-46.751,0A1.709,1.709,0,0,1,117.146,590.647Z" style="fill:#c0392b"/><path d="M591.334,548.574c0,13.45-.074,26.9.056,40.349.031,3.107-.789,4.2-4.109,4.242-14.176.17-28.349.8-42.522.9a37.326,37.326,0,0,1-9.065-1.075l-.772-.187A49.747,49.747,0,0,1,511.854,580c-13.43-13.165-58.452-90.7-58.452-90.7a13.937,13.937,0,0,1,3.509-15.6c10.063-9,30.1-11.343,44.67-16.036,7.956-2.333,20.319-1.436,22.232,7.363,6.374,29.318,45.786,39.34,61.534,42.2a7.867,7.867,0,0,1,6.435,7.8c-.064,11.179,0,22.36,0,33.54Z" style="fill:#c0392b"/><path d="M9.629,311.014c59.953,37,124.049,67.393,192.887,78.776a14.084,14.084,0,0,1,11.759,14.286c-.223,8.592-2.364,19.882-10.621,28.347-12.248,12.556-26.207,20.761-42.089,14.384a35.192,35.192,0,0,1-7.658-4.361L74.75,381.33c-27.253-15.615-45-7.65-66.622-3.174-2.574.7-4.365.844-4.319-2.856l1-61.656A3.158,3.158,0,0,1,9.629,311.014Z" style="fill:#c0392b"/><path d="M9.144,564.513a3.69,3.69,0,0,1-5.275-3.337c.015-18.634-.166-35.6.115-54.162.03-1.411,1.53-3.756,2.73-4.035,27.507-5.435,49.808-21.589,73.862-34.325,4.216-1.067,6.971.347,8.619,4.733,3.767,8.776,10.2,22.888,21.4,14.142,7.7-5.692,27.365-16.775,35.616-21.358a8.9,8.9,0,0,1,7.668-.465l8.853,3.589a7.518,7.518,0,0,1,4.118,6.956c-.42,12.739-20.957,59.067-28.441,72.106a7.1,7.1,0,0,1-6.784,3.563c-12.8-1.158-43.288-10.811-71.07-10.851a10.215,10.215,0,0,0-4.4,1.016Z" style="fill:#c0392b"/><path d="M585.086,324.362a5.061,5.061,0,0,1,8.388,3.946c-.583,22.834-1.217,57.133-1.217,57.133.145,2.914-1.135,3.875-4.048,4.469-6.4,1.307-12.727,2.942-19.064,4.507a99.923,99.923,0,0,0-41.326,21.243c-7.749,6.614-16.153,10-26.8,11.481-15.535,2.159-30.721,6.459-46,10.042-3.517.824-5.466.71-8.248-2.309-19.858-21.552-28.364-24.762-44.2-34.31-1.9-1.146-3.305-4.4-2.7-5.873,1.379-3.35,2.849-7.439,8.423-7.319C500.658,389.36,563.122,343.5,585.086,324.362Z" style="fill:#c0392b"/><path d="M492.022,591.785a1.279,1.279,0,0,1-1.015,2.058c-62.65,0-125.006.015-187.631-.019-7.85,0-6.5.39-5.155-6.316.981-4.872,2.3-11.144,3.67-17.6a48.66,48.66,0,0,1,40.947-38.095c11.506-1.579,23.361-2.923,30.948-3.019,19.02-.375,37.863.225,54.7,10.448a32.769,32.769,0,0,1,3.151,2.212C440.593,548.456,486.1,584.161,492.022,591.785Z" style="fill:#c0392b"/><path d="M587.89,6.233A2.961,2.961,0,0,1,592.131,8.9c-.017,15.252-.1,29.818.1,44.38.047,3.5-2.208,3.945-4.366,4.906-33.372,14.869-66.91,29.376-100.07,44.7-21.7,10.03-35.5,17.461-56.86,28.219-11.151,5.819-21.1,5.6-27.812-7.21-5.036-9.606-3.2-18.454,6.237-23.6C468.484,68.135,527.257,35.516,587.89,6.233Z" style="fill:#c0392b"/><path d="M332.65,41.623C274.133,49.967,223.492,88.467,207.48,101.1a17.348,17.348,0,0,1-20.135.89c-6.566-4.238-12.363-11.123-13.84-17.423-2.462-8.2,3.92-15.015,9.762-19.434C247.762,16.338,302.486,3.777,330.853,7.5c13.181,1.733,13.512,14.194,11.978,23.114C341.91,35.971,338.027,40.856,332.65,41.623Z" style="fill:#c0392b"/><path d="M3.858,441.253c0-11.149.111-22.3-.074-33.446-.05-3.011.939-4.6,3.789-5.215,12.29-2.657,24.477-6.051,36.9-7.749,8.383-1.146,16.158,3.432,22.381,8.588,8.283,6.861,15.521,15,23.041,22.756,2.511,2.589,1.2,5.639-1.2,7.16C62.57,449.173,38.11,468.281,8.715,477.722c-3.454,1.39-5.094.968-4.962-3.517C4.073,463.229,3.857,452.238,3.858,441.253Z" style="fill:#c0392b"/><path d="M318.477,315.409c12.292-20.119,81.777-54.889,124.809-72.709,5.707-2.363,8.643-1.529,12.369,3.5a138.668,138.668,0,0,1,10.9,16.749c2.453,4.565,1.157,7.9-3.391,10.1-31.111,15.074-70.3,32.986-101.852,47.084C352.511,324.063,314.9,321.257,318.477,315.409Z" style="fill:#c0392b"/><path d="M583.353,486.7c-15.169-1.2-36.823-17.239-44.6-34.789-2.952-6.66-4.224-10.568,2.616-13.724,12.739-5.751,26.16-10.946,40.246-11.718,9.084-.515,11.247,3.271,10.821,12.263l.27,39.762C593.066,485.7,592.842,486.783,583.353,486.7Z" style="fill:#c0392b"/><path d="M104.041,570.776a1.747,1.747,0,0,1,.471,3.1c-9.822,6.884-17.164,10.809-27.613,18.219a10.05,10.05,0,0,1-5.436,1.649c-16.05.114-32.1.026-48.153.106a9.34,9.34,0,0,1-6.106-2.229l-4.74-4.04a3.542,3.542,0,0,1,.786-5.9c10.553-4.961,35.009-16.445,44.527-20.814a9.045,9.045,0,0,1,5.591-.643A408.842,408.842,0,0,1,104.041,570.776Z" style="fill:#c0392b"/><path d="M56.557,110.242c9.8,4.07,19.794,7.668,29.8,11.21,3.143,1.113,4.569,2.474,3.681,5.993-3.359,10.322-2.446,26.054-13.171,31.707-7.685,2.973-15.9,4.724-24.034,6.319C41.824,166.822,43.523,104.558,56.557,110.242Z" style="fill:#c0392b"/><path d="M357.736,410.331c-1.3,21.718-10.987,19.816-28.953,25.416-5.621,1.657-10.637.82-15.048-3.3-4.066-3.8-8.776-7-12.354-11.195-7.555-8.847-4.575-18.356,6.335-22.509,9.7-3.692,19.671-2.851,29.646-2.376C347.139,396.717,358.456,397.823,357.736,410.331Z" style="fill:#c0392b"/><path d="M491.2,166.528c-8.352-.689-16.591-2.782-14.437-13.373,1.013-7.134,4.127-12.488,10.1-16.451,9.335-6.857,21.2-18.914,28.6-2.568C522.714,150.833,508.667,167.358,491.2,166.528Z" style="fill:#c0392b"/><path d="M218.994,590.929c16.262-16.136,42.558-36.153,64.594-47.6A2.276,2.276,0,0,1,286.6,546.5c-6.344,10.794-18.795,32.151-23.662,41.728-2.109,4.15-4.679,5.908-9.511,5.738-11.439-.541-21.984.147-33.316-.226A1.648,1.648,0,0,1,218.994,590.929Z" style="fill:#c0392b"/><path d="M110.053,33.939c5.885-.466,11.436,2.668,16.534,6.626,3.326,2.583,4.46,5.481,1.067,9.457-3.559,4.171-9.717,11.871-13.972,17.234a11.863,11.863,0,0,1-13.213,3.861C94.645,69.066,88.446,65.146,91.133,58c1.546-4.634,2.56-9.443,4.037-14.1C98.026,34.889,99.585,33.846,110.053,33.939Z" style="fill:#c0392b"/><path d="M119.262,465.25a11.266,11.266,0,0,1-7.22,4.147c-4.968.614-8.842-2.5-11.354-9.316-4.828-13.106-3.476-15.049,9.881-18.761,8.431-2.344,13.537,3.409,16.05,7.64a6.855,6.855,0,0,1-.219,7.269C125.385,457.767,121.6,462.414,119.262,465.25Z" style="fill:#c0392b"/><path d="M152.687,148.152a11.873,11.873,0,0,1-.61,9.875,10.725,10.725,0,0,1-7.062,5.654c-10.067,2.485-13.959-11.238-14.08-19.37-.853-9.077,13.378-13.4,17.673-5.354A55.909,55.909,0,0,1,152.687,148.152Z" style="fill:#c0392b"/><path d="M421.272,517.455a16.627,16.627,0,0,1-13.808-1.2c-3.264-1.912-5.138-4.638-2.265-9.15,3.4-6.119,7.989-10.756,15.493-11.239,10.5-1.448,15.86,14.457,6.336,19.193A40.75,40.75,0,0,1,421.272,517.455Z" style="fill:#c0392b"/></svg>