<?xml version="1.0" ?><svg fill="#c0392b" data-name="1" id="_1" viewBox="0 0 600 600" xmlns="http://www.w3.org/2000/svg"><title/><path d="M56.516,471.916c8.775-.635,22.411-7.727,32.632-19.278,23.98-27.1,40.7-81.143,46.834-77.715,8.89,4.969-6.668,38.23-33.842,86.047A92.666,92.666,0,0,0,94.3,478.956C85.973,526.09,70.38,555.038,70.38,555.038a3.279,3.279,0,0,0,4.721,3.95c26.525-15.5,36.46-56.992,40.346-73.766a67.34,67.34,0,0,1,5.7-15.584c9.435-18.361,33.866-63.562,39.708-60.259,7.115,4.022-11.115,34.236-26.707,68.759a29.691,29.691,0,0,0-2.062,6.508c-2.365,12.03-13.821,54.72-35.324,86.334-2.448,3.6,1.832,8.281,6.076,7.322,6.409-1.447,14.574-4.628,20.315-11.317,15.744-18.347,27.846-80,37.994-99.6,6.253-11.538,24.75-45.25,30.262-42.333,6.738,3.333-10.6,35.58-12.512,39.083-3.149,5.878-8.175,12.954-11.562,21.189a161.347,161.347,0,0,0-7.482,22.99c-3.433,14.016-10.968,41.151-22.881,65.425a2.909,2.909,0,0,0,2.682,4.17c7.516-.092,16.026-7.115,19.743-13.024,13.33-21.183,22.689-45.995,28-62.5,5.292-16.444,30.75-66.5,36.944-62.963,6.733,3.845-.07,18.5-6.194,33.213-5.024,12.072-11.4,22-15.25,34.5a220.929,220.929,0,0,1-18.25,42.25c-1.009,2.522-.69,5.563,2.025,5.462,22.264-.827,31.2-34.3,36.048-45.244,13.456-30.358,26.335-39.924,45.4-57.748,32.709-30.574,42.409-59.965,54.776-94.9,24.7-69.759,69.068-85.969,90.766-93.217a10.741,10.741,0,0,0,6.52-14.378c-18.606-43.322-64.825-78.5-111.774-89.679a14.29,14.29,0,0,0-15.545,6.429c-10.369,17.129-16.2,34.779-25.73,53.507-15.351,30.18-42.6,57.83-71.155,76.032-39.355,25.088-83.7,49.288-99.995,76.138a22.174,22.174,0,0,0-2.923,8.474c-1.613,11.619-8.933,47.556-40.229,84.261A4.472,4.472,0,0,0,56.516,471.916Z" style="fill:#c0392b"/><path d="M515.243,136.2a16.469,16.469,0,0,0,.118-21.595c-66.767-77.608-155.525-90.765-183.7-93a10.46,10.46,0,0,0-11,7.979c-5.181,21.485-9.569,63.8-25.215,96.087-3.407,7.03,1.723,15.348,9.264,17.386,22.441,6.063,67.073,21.66,100.32,55.851,12.481,12.834,25.046,6.279,30.491,3.691C467.911,187.2,500.073,153.485,515.243,136.2Zm-102.3,45.461c.239-10.282,15.8-11.145,16.214-.436C429.252,191.506,413.168,192.16,412.941,181.656Z" style="fill:#c0392b"/><path d="M436.68,248.9c3.685,6.73,8.426,16.994,17.572,14.25,27.682-10.377,55.375-19.884,84.455-26.494,18.458-4.195,6.341-53.415-4.443-82.211a7.484,7.484,0,0,0-12.542-2.435c-17.345,19.031-59.741,62.219-90.917,66.547a6.771,6.771,0,0,0-5.087,9.922C429.428,235.326,433.087,242.094,436.68,248.9Z" style="fill:#c0392b"/></svg>