<?xml version="1.0" ?><svg fill="#c0392b" data-name="Layer 4" id="Layer_4" viewBox="0 0 600 600" xmlns="http://www.w3.org/2000/svg"><title/><path d="M3.8,279.783a5.507,5.507,0,0,0,4.137,5.334,257.691,257.691,0,0,1,129.1,79.9c4.339,4.942,5.929,5.239,11.251,1.136,8.915-7.573,20.373-14.61,22.265-27.059a278.015,278.015,0,0,0-.2-81.49,8.9,8.9,0,0,0-3.9-6.562c-14.53-11.9-108.3-96.412-161.379-219.023A.659.659,0,0,0,3.8,32.28V46.263a13.737,13.737,0,0,0,1.158,5.509c9.5,21.715,33.522,67.374,43.724,86.58a1.456,1.456,0,0,1-2.347,1.679c-10.179-10.788-29.11-32.725-41.254-58.205a.673.673,0,0,0-1.281.29V252.261a9.873,9.873,0,0,0,5.638,8.928c11.708,5.536,39.2,19.837,58.865,40.35-20.866-10.2-42.731-17.714-64.5-25.47Z" style="fill:#c0392b"/><path d="M557.364,281.35a7.51,7.51,0,0,0-5.236-.364c-39.127,12.922-60.042,3.039-69.883-2.837-8.532-5.5-18.552-3.358-27.249.157-10.546,2.976-54.717,17.606-74.745,24.267a1.8,1.8,0,0,1-1.669-3.135c8.2-6.337,20.39-15.589,26.408-19.366a6.422,6.422,0,0,0,2.512-3.861c9.868-66.52,35.652-102.691,38.348-108.752,4.954-9.905-13.924-17.735-6.31-45.807,3.239,22.612,19.013,31.029,37.158,39.282,12.655,5.742,16.591,14.085,23.244,25.317l1.228-.332c0-8.406.03-16.812-.012-25.218.29-7.036-4.3-9.348-8.035-14.3-8.082-10.309-13.959-21.839-19.044-33.854-2.118-5.005-3.953-10.343-8.678-13.745-6.217-4.476-12.5-8.854-18.69-13.373-4.222-3.217-7.262,2.323-9.719,5.062-11.337,15.77-24.41,30.586-32.661,48.322-8.433,21.355-20.279,41.2-30.536,61.725C368.518,210.033,363,225,356.03,233.379A68.811,68.811,0,0,0,350.707,201a79.581,79.581,0,0,1-6.349-32.672c.615-27.7,1.594-74.945,1.343-84.309a8.272,8.272,0,0,0-3.439-6.516c-11.9-8.5-15.834-17.35-17.129-22.142a1.363,1.363,0,0,1,2.128-1.457c6.38,4.776,22.711,15.842,37.4,16.13,7.2.142,27.2-3.479,38.585,14.56,1.526,2.418,2.47.5,2.441-2.319-.089-8.589,8.44-43.591-38.955-49.424-17.31-2.13-28.336-12.57-33.172-18.276a8.434,8.434,0,0,0-7.866-2.838c-7.485,1.282-15.014,2.328-22.48,3.715-6.034,1.229-6.393,8.783-6.716,13.692,3.734,55.479,4.609,111.628-11.844,165.28-4.619,18.84-9.343,38.107-20.086,54.593-14.007-24.932-42.839-45.6-54.53-111.158-.688-3.859-2.6-5.029-5.923-5.147-14.043-.232-32.931.644-39.386-14.759.559-2.113,2.809-1.837,4.332-.7,16.483,11.758,35.768-1.973,53.65,2.406,10.378,2.386,34.515-1.7,40.342,17.482a2.058,2.058,0,0,0,1.917,1.107,2.313,2.313,0,0,0,1.273-1.831c.858-11.718-6.3-21.306-10.4-31.762-2.418-5.613-6.632-8.363-12.61-9.167-9.893-1.33-18.931-5.142-27.346-10.409-5.93-3.712-11.89-7.407-17.547-11.508a10.928,10.928,0,0,0-11.066-1.707c-5.673,1.892-16.315,4.915-24.222,7.111a16.939,16.939,0,0,0-12.275,14.354c-5.882,49.855,31.517,122.669,34.811,138.772,3.063,33.5,8.215,67.488,4.5,101.071-1.643,12.221-5.137,23.7-13.04,33.534-6.921,8.865-12.644,17.047-19.821,25.511a2.136,2.136,0,0,0,2.055,3.479c16.3-3.361,33.054-6.729,40.47-8.215a1.334,1.334,0,0,1,1.221,2.239c-9.189,9.351-42.816,37.275-118.289,39.372-16.662.463-16.718,31.4-17.718,43.921-.247,27.531,21.261,52.958,25.184,79.589,1.319,14.07,12.257,32.835,26.9,35.779a.706.706,0,0,0,.7-1.115c-9.11-11.982-12.508-23.749.658-44.885,5.8-9.31,3.246-16.315-.493-24.479a126.477,126.477,0,0,1-9.938-32.041c-.632-3.831-2.008-14.463-2.811-20.773a1.1,1.1,0,0,1,2.012-.731c4.472,7.06,13.247,20.894,14.939,23.428a2.678,2.678,0,0,0,4.479-.027c6.657-10.248,37.051-48.073,108.629-19.458a45.681,45.681,0,0,0,45-6.135c13.487-10.482,31.354-27.568,52.453-55.234.716-.939,2.176.083,1.611,1.12-5.5,10.1-22.031,40.954-26.246,48.6a1.96,1.96,0,0,0,1.392,2.832c36.694,8.65,68.2-6.169,75.395-45.58,10.932-59.866,46.9-103.634,98.161-92.947,5.48,1.292,11,1.525,15.641-1.181,53.543-31.2,87-12.453,96.242-5.739a.829.829,0,0,0,1.237-1.03C592.45,305.509,581.117,286.774,557.364,281.35ZM342.672,193.175c10.447,18.881,10.427,37.876,4.55,52.028a1.2,1.2,0,0,1-2.3-.409c-.814-15.638-3.163-34.915-4.184-51.045A1.036,1.036,0,0,1,342.672,193.175Zm20.059,125.538c-13.18,25.1-46.623,31.293-67.655,20.287-7.874-3.514-30.119-11.667-58.1,1.1a1.785,1.785,0,0,1-2.109-2.76c9.862-12.255,35.668-30.428,72.711-10.945,14.228,7.484,38.419-3.055,52.8-10.139A1.787,1.787,0,0,1,362.731,318.713Z" style="fill:#c0392b"/></svg>