<?xml version="1.0" ?><svg fill="#c0392b" data-name="1" id="_1" viewBox="0 0 600 600" xmlns="http://www.w3.org/2000/svg"><title/><path d="M231.319,75.378,254.71,91.941a2.27,2.27,0,0,0,3.238-3.052c-20.171-32.738-13.235-64.628-7.031-81.2a2.081,2.081,0,0,0-3.469-2.144C175.868,80.969,94.572,117.7,73.915,126.243a6.224,6.224,0,0,0-3.633,7.366c6.176,23.175,35.047,115.461,113.782,164.207a4.122,4.122,0,0,0,6.308-3.336c2.376-66.981,19.848-130.5,56.522-172.869a9.9,9.9,0,0,0,.934-11.641L228.372,78.132A2.059,2.059,0,0,1,231.319,75.378Z" style="fill:#c0392b"/><path d="M479.7,405.138c-125.271-51.9-216.948-218.686-229.917-243.257a1.663,1.663,0,0,0-2.989.1l-1.7,3.772a8.062,8.062,0,0,0,.362,7.324l34.31,59.727a1.252,1.252,0,0,1-2.058,1.413l-40.2-49.5a1.664,1.664,0,0,0-2.843.435c-1.493,3.806-4.355,11.19-7.047,18.657a36.977,36.977,0,0,0,4.86,34.276C257.7,272.8,321.1,358.334,362.738,399.1c11.445,10.448,25.686,17.978,40.241,22.783,151.55,50.018,168.713,143.6,170.6,167.541a6.167,6.167,0,0,0,6.149,5.69h13.59a3.526,3.526,0,0,0,3.526-3.526v-70.9a55.616,55.616,0,0,0-5.173-23.45C581.821,476.05,554.214,436.01,479.7,405.138Z" style="fill:#c0392b"/><path d="M193.066,331.507a13.646,13.646,0,0,0-7.4-10.434C122.008,288.707,70.992,225.29,51.931,134.438A5.623,5.623,0,0,0,46.045,130c-8.572.572-26.356,1.612-37.03,1.2a5.644,5.644,0,0,0-5.856,5.632C2.56,289.877,96.77,401.6,227.881,439.309a2.36,2.36,0,0,0,2.595-3.6C203.456,395.577,195.29,349.054,193.066,331.507Z" style="fill:#c0392b"/><path d="M505.792,580.7a16.955,16.955,0,0,0,16.77,14.415h29.17a6.173,6.173,0,0,0,6.044-7.438C545.605,529.757,498.683,474.9,421.693,444.455a1.435,1.435,0,0,0-1.364,2.5C443.288,463.011,494.467,505.592,505.792,580.7Z" style="fill:#c0392b"/><path d="M123.085,83.35c9.756-6.509,29.12-22.14,29.061-43.637a14.612,14.612,0,0,0-4.908-11.228c-9.849-8.3-28.229-.118-38.282,6.606a7.817,7.817,0,0,0-3.4,7.562c1.18,8.676,4.1,27.459,8.48,37.979A6.117,6.117,0,0,0,123.085,83.35Z" style="fill:#c0392b"/></svg>