<svg width="600" height="600" viewBox="0 0 600 600" fill="none" xmlns="http://www.w3.org/2000/svg">
<g clip-path="url(#clip0_1359_1972)">
<path d="M599.205 495.607V398.549C599.204 396.965 598.58 395.446 597.467 394.32C596.354 393.194 594.842 392.551 593.258 392.532C558.358 392.049 523.698 386.948 508.828 353.643C479.152 291.792 474.171 222.198 466.267 154.643C465.187 145.416 464.413 136.149 464.236 126.861C463.8 104.036 452.051 94.6607 447.161 99.0517C422.01 130.921 435.761 246.581 438.502 264.028C438.878 266.399 439.8 268.65 441.196 270.603C442.592 272.556 444.424 274.158 446.545 275.281C456.876 280.754 475.951 295.142 478.281 327.468C479.832 339.499 479.271 358.579 480.748 370.618C483.957 407.003 512.383 397.318 508.776 426.68C508.723 427.156 508.514 427.601 508.183 427.947C507.852 428.293 507.416 428.521 506.943 428.595C506.47 428.67 505.986 428.587 505.564 428.359C505.143 428.132 504.808 427.772 504.61 427.336C502.097 421.536 498.216 416.43 493.301 412.455C446.126 382.935 475.701 332.947 456.978 307.371C452.648 301.457 448.249 298.319 444.199 296.834C435.856 293.775 427.43 301.069 428.899 309.834C444.461 402.901 398.338 503.475 461.299 496.168C550.166 485.855 567.689 497.043 592.745 501.059C593.539 501.192 594.351 501.151 595.127 500.938C595.903 500.726 596.623 500.347 597.237 499.828C597.852 499.309 598.346 498.663 598.686 497.934C599.026 497.205 599.203 496.411 599.205 495.607Z" fill="white"/>
<path d="M-89.8508 577.001C-91.0378 578.902 -91.8209 581.028 -92.1515 583.245C-92.4821 585.462 -92.3531 587.724 -91.7725 589.889L-91.1568 592.187C-91.0411 592.62 -90.8004 593.009 -90.4647 593.305C-90.1291 593.601 -89.7134 593.792 -89.2699 593.853C-88.8264 593.914 -88.3747 593.842 -87.9715 593.648C-87.5683 593.453 -87.2315 593.144 -87.0033 592.759C-77.2632 576.304 -44.5017 522.132 -35.8827 523.053C-30.8066 523.594 -64.8291 586.479 -78.2683 610.943C-81.6614 617.118 -82.5367 624.366 -80.7111 631.171L-62.5508 698.946C-62.4334 699.385 -62.187 699.779 -61.8437 700.077C-61.5003 700.374 -61.0756 700.562 -60.6243 700.617C-60.1731 700.671 -59.716 700.588 -59.312 700.38C-58.908 700.172 -58.5757 699.847 -58.358 699.448C-25.171 638.642 303.206 52.4465 318.648 62.7892C334.09 73.132 4.62837 655.665 -28.5046 714.158C-28.7251 714.548 -28.8254 714.995 -28.7928 715.441C-28.7603 715.888 -28.5965 716.316 -28.3218 716.67C-28.0472 717.024 -27.674 717.289 -27.2492 717.432C-26.8244 717.575 -26.3669 717.589 -25.9341 717.472L36.3816 700.775C38.7982 700.128 41.0578 698.995 43.0227 697.446C44.9875 695.898 46.6166 693.965 47.8106 691.767C74.9468 641.811 239.945 337.841 273.699 270.742C295.197 231.471 320.711 184.858 335.543 142.607C349.779 97.6237 352.541 50.8212 360.613 4.42417C360.714 3.83542 360.647 3.23004 360.419 2.67767C360.192 2.12529 359.813 1.64837 359.327 1.30177C358.84 0.955162 358.265 0.752961 357.669 0.718423C357.073 0.683886 356.479 0.818416 355.955 1.10654C313.465 24.5123 272.362 50.5695 237.922 84.958C177.67 149.277 -57.2748 524.779 -89.8508 577.001Z" fill="white"/>
</g>
<defs>
<clipPath id="clip0_1359_1972">
<rect width="600" height="600" fill="white"/>
</clipPath>
</defs>
</svg>
