<svg fill="#c0392b" xmlns="http://www.w3.org/2000/svg" x="0px" y="0px" width="100" height="100" viewBox="0 0 512 512">
<path d="M 105.89453 21.800781 A 21.73 21.73 0 0 0 86.720703 33.429688 L 31.800781 137.18945 A 21.77 21.77 0 0 0 40.900391 166.65039 L 82.150391 188.34961 A 12.32 12.32 0 0 1 88.460938 196.66016 L 111.18945 302.31055 A 48.48 48.48 0 0 0 145.63086 338.82031 L 190.88086 351.35938 L 196.92969 353.09961 A 12.36 12.36 0 0 1 205.7207 366.84961 L 192.2207 454.41992 A 14.87 14.87 0 0 0 198.90039 469 L 217.34961 480.86914 A 14.85 14.85 0 0 0 238.84961 474.67969 L 266.42969 379.82031 L 269.83008 361.31055 A 3.29 3.29 0 0 1 269.91992 360.88086 A 18 18 0 0 0 267.35938 346.81055 L 254.89062 328.2207 A 9 9 0 0 1 256.40039 316.2207 A 8.79 8.79 0 0 1 269.28906 318.10938 L 282 337 A 35.58 35.58 0 0 1 287.11914 364.67969 L 285.34961 374.32031 A 17.35 17.35 0 0 0 286.90039 384.86914 A 19.2 19.2 0 0 1 288.31055 397.08984 L 272.59961 470.58984 A 18.44 18.44 0 0 0 291 490.07031 L 308.75977 490.07031 A 18.44 18.44 0 0 0 326.56055 476.41992 L 338.89062 430.64062 A 350.14 350.14 0 0 0 347.40039 389.08984 L 347.63086 387.5 C 347.63086 378.04 346.08016 370.4193 338.41016 360.0293 L 301.48047 316.0293 A 8.8 8.8 0 1 1 314.96094 304.7207 L 352 348.92969 L 352.30078 349.31055 C 361.58078 361.79055 365.30016 373.07055 365.16016 388.31055 A 10.4 10.4 0 0 1 365.07031 389.41016 C 364.73031 391.82016 363.31945 401.74086 362.43945 407.88086 A 22.58 22.58 0 0 0 363.2207 417.67969 L 369.08984 436.67969 A 17.55 17.55 0 0 0 385.89062 449 A 17.34 17.34 0 0 0 390.89062 448.26953 L 407.75977 443.26953 A 17.55 17.55 0 0 0 420.17969 424.21094 L 417.75977 405.21094 L 402.65039 328.34961 A 21.31 21.31 0 0 0 388.18945 312 L 342.53906 297.38086 A 9 9 0 0 1 336.41016 286.48047 A 8.78 8.78 0 0 1 347.55078 280.48047 L 393.55078 295.19922 A 38.9 38.9 0 0 1 419.91992 324.96094 L 428.7207 369.7207 A 13.19 13.19 0 0 0 434.08008 377.94922 L 445.5293 385.94922 A 16.67 16.67 0 0 0 468.80078 381.74023 L 479.80078 365.74023 A 16.65 16.65 0 0 0 479.19922 346.00977 L 430.30078 283.5293 A 44.4 44.4 0 0 0 412.90039 270.13086 C 395.27039 262.52086 378.05914 252.2907 362.36914 241.4707 A 493.92 493.92 0 0 1 314.53906 203.63086 A 340 340 0 0 1 279.83008 167.63086 C 279.57008 167.31086 279.29906 167.00945 279.03906 166.68945 L 206.85938 79.390625 A 71.82 71.82 0 0 0 185.7207 62.009766 L 116.32031 24.429688 A 21.73 21.73 0 0 0 105.89453 21.800781 z M 322.32031 177.29688 A 4.09 4.09 0 0 0 319.44922 184.40039 C 321.68922 186.52039 323.95667 188.60063 326.25 190.64062 C 345.73 208.05062 373.95 230.64062 404.25 246.64062 A 11.66 11.66 0 0 0 413.68945 247.32031 A 131.05 131.05 0 0 0 439.55078 234.32031 A 13.41 13.41 0 0 0 445.28906 218.71094 L 440 202.81055 C 438 196.90055 432.0007 192.86914 425.2207 192.86914 L 398.25977 192.86914 A 50.74 50.74 0 0 1 387.18945 191.66016 L 323.13086 177.40039 A 4.09 4.09 0 0 0 322.32031 177.29688 z"></path>
</svg>