<svg fill="#c0392b" xmlns="http://www.w3.org/2000/svg" x="0px" y="0px" width="100" height="100" viewBox="0 0 48 48">
<path d="M 14 0 L 14 0.001953125 L 13.001953 0.001953125 L 13.001953 1.0019531 C 13.001953 2.0549531 13.483047 3.296 13.998047 4 L 13.998047 40.001953 C 13.484047 40.705953 13.001953 41.946047 13.001953 42.998047 L 11.001953 42.998047 L 11.001953 45.998047 L 12.001953 45.998047 L 12.001953 46.998047 C 10.614953 46.998047 7.0019531 47.218047 7.0019531 47.498047 C 7.0019531 47.777047 10.614953 47.998047 12.001953 47.998047 L 22.001953 47.998047 C 25.884953 47.998047 36.001953 47.777047 36.001953 47.498047 C 36.001953 47.218047 25.884953 46.998047 22.001953 46.998047 L 22.001953 45.998047 L 38.388672 14.986328 C 38.710672 14.374328 39.001953 13.727 39.001953 13 C 39.001953 11.896 38.105953 11 37.001953 11 C 33.585953 11 32.843703 14 30.470703 14 C 27.405703 14 26.582953 1.0019531 18.001953 1.0019531 L 17.001953 1.0019531 L 17.001953 0.001953125 L 16.001953 0.001953125 L 16.001953 0 L 14 0 z M 16.998047 1.9980469 L 18.001953 1.9980469 C 21.666953 1.9980469 23.769969 4.7310781 25.417969 7.9550781 C 27.426969 11.885078 28.202703 14.996094 30.470703 14.996094 C 32.699703 14.996094 33.503031 13.310797 35.082031 12.466797 L 35.847656 12.164062 L 35.351562 12.548828 C 34.803562 13.192828 34.331391 13.783547 33.900391 14.310547 C 32.948391 15.117547 32.080703 15.996094 30.470703 15.996094 C 28.202703 15.996094 27.426969 12.885078 25.417969 8.9550781 C 23.769969 5.7310781 21.666953 2.9980469 18.001953 2.9980469 L 16.998047 2.9980469 L 16.998047 1.9980469 z M 19.001953 7.0019531 L 19.001953 38.287109 L 20.001953 36.820312 L 20.001953 7.1992188 C 20.349953 7.3392188 20.681953 7.5513594 21.001953 7.8183594 L 21.001953 35.353516 L 22.001953 33.886719 L 22.001953 8.8671875 C 22.344953 9.2991875 22.676953 9.7857344 23.001953 10.302734 L 23.001953 32.419922 L 24.001953 30.953125 L 24.001953 11.978516 C 24.331953 12.550516 24.661 13.130359 25 13.693359 L 25.001953 29.484375 L 26.001953 28.017578 L 26 15.240234 C 26.321 15.691234 26.653 16.108563 27 16.476562 L 27.001953 26.550781 L 28.001953 25.083984 L 28 17.34375 C 28.319 17.55975 28.651 17.73175 29 17.84375 L 29.001953 23.615234 L 30.001953 22.148438 L 30.001953 18 C 30.356953 18 30.688953 17.959859 31.001953 17.880859 L 31.001953 20.683594 L 32.001953 19.216797 L 32.001953 17.484375 C 32.352953 17.289375 32.681953 17.049531 33.001953 16.769531 L 33.001953 17.748047 L 34.001953 16.28125 L 34 15.753906 C 34.68 14.981906 35.350234 14.085547 36.115234 13.185547 C 36.221234 13.055547 36.362953 13.001953 36.501953 13.001953 C 36.777953 13.001953 37.001953 13.225953 37.001953 13.501953 C 37.001953 13.613953 36.976781 13.694625 36.925781 13.765625 L 17.847656 41.757812 C 17.943656 42.170812 18.001953 42.593047 18.001953 42.998047 L 18.001953 43.300781 L 37.134766 15.224609 L 31.332031 26.205078 L 18.824219 44.560547 C 18.638219 44.832547 18.330953 44.994141 18.001953 44.994141 L 14.001953 44.998047 C 13.449953 44.998047 13.001953 44.550047 13.001953 43.998047 L 17.001953 43.994141 L 17.001953 42.998047 C 17.001953 41.945047 16.517953 40.702047 16.001953 39.998047 L 16.001953 10.001953 C 16.001953 9.2509531 16.411 8.4869687 17 7.9179688 L 17 38.169922 L 17.005859 38.167969 L 17.005859 39.699219 L 17.041016 39.755859 C 17.188016 39.998859 17.328125 40.269594 17.453125 40.558594 L 18.001953 39.755859 L 18 7.2324219 C 18.328 7.0844219 18.669953 7.0019531 19.001953 7.0019531 z"></path>
</svg>