<?xml version="1.0" ?><svg fill="#c0392b" data-name="Layer 4" id="Layer_4" viewBox="0 0 600 600" xmlns="http://www.w3.org/2000/svg"><title/><path d="M570.174,423.867c-.171,21.246-5,144.426,8.348,144.436,12.6.009,5.124-85.071,2.7-143.863C580.882,416.041,570.87,414.916,570.174,423.867Z" style="fill:#c0392b"/><path d="M568.65,36.044c-.133-8.044-11.293-9.018-11.736-.758-3.772,70.386.29,107.743,7.57,107.743C576.3,143.029,568.843,40.815,568.65,36.044Z" style="fill:#c0392b"/><path d="M48.629,11.216c-.419,21.895.283,92.721-.041,106.5-.311,13.246,11.631,11.3,11.826,1.168.426-22.167,1.3-95.449.678-107.484A6.31,6.31,0,0,0,48.629,11.216Z" style="fill:#c0392b"/><path d="M392.577,123.107c10.44,0,9.193-102.723,7.471-108.812C398.2,8,388.132,8.663,387.5,15.551,387.708,33.824,378.522,123.107,392.577,123.107Z" style="fill:#c0392b"/><path d="M501.574,585.467c4.421.1,5.075-5.064,5.269-8.666,1.591-29.573,2.911-80.274-5.7-80.274-5.474,0-6.77,8.219-6.577,12.433C494.991,521.933,491.127,586.593,501.574,585.467Z" style="fill:#c0392b"/><path d="M139.884,189.893c-1.927,24.024-7.626,86.364-14.945,87.27-8.077,1-13.663-142.7-14.788-174.141a5.018,5.018,0,0,0-5.043-4.914,4.911,4.911,0,0,0-4.766,4.591l-5.685,88.035a23.6,23.6,0,0,1-6.518,14.8c-68.737,71.8-40.907,186.7,60.709,273.087a26.834,26.834,0,0,1,9.421,18.886l4.615,79.6a7.6,7.6,0,0,0,6.6,7.228,7.321,7.321,0,0,0,8.172-7.489c-3.219-65.094.993-103.419,4.1-121.556a2.612,2.612,0,0,1,5.143-.024l8.389,45.542a42.288,42.288,0,0,0,16.755,26.576c20.894,15.158,61.323,43.808,90.218,60.06a22.366,22.366,0,0,0,22.877-.568c34.718-21.859,76.075-54.039,76.075-54.039,5.5-4.678,14.141-.338,15.058,6.824a95.12,95.12,0,0,0,2.915,14.76,4.909,4.909,0,0,0,9.6-.976l7.212-89.757a3.867,3.867,0,0,1,7.435.111c1.832,6.956,3.085,18.722,3.7,25.618a3.146,3.146,0,0,0,4.979,2.259C679.106,328.151,565.392,179.335,480.332,173.3a20.373,20.373,0,0,1-18.689-18.357l-1.459-56.628A5.852,5.852,0,0,0,453.671,93c-4.277.628-3.7,5.854-3.614,8.688-.018,49.33,2.278,130.576-3.844,158.387-.7,3.171-5.319,3.239-5.948.053-.006-.028-.011-.055-.016-.083l-17.1-68.067a7.872,7.872,0,0,0-11.822-4.754c-30.263,19.015-90.108,68.046-144.058,129.684a3.877,3.877,0,0,1-6.363-4.335,577.384,577.384,0,0,1,31.919-53.407,11.421,11.421,0,0,0-.335-13.247c-32.591-43.27-87.434-76.831-142.255-67.431A12.56,12.56,0,0,0,139.884,189.893ZM315.141,362.059a11.713,11.713,0,0,1,11.713-11.713h31.287a11.713,11.713,0,0,0,11.713-11.713V307.346a11.713,11.713,0,0,1,11.713-11.713h28.985a11.713,11.713,0,0,1,11.713,11.713v31.287a11.713,11.713,0,0,0,11.713,11.713h31.287a11.713,11.713,0,0,1,11.713,11.713v28.985a11.713,11.713,0,0,1-11.713,11.713H433.978a11.713,11.713,0,0,0-11.713,11.713v31.287a11.713,11.713,0,0,1-11.713,11.713H381.567a11.713,11.713,0,0,1-11.713-11.713V414.47a11.713,11.713,0,0,0-11.713-11.713H326.854a11.713,11.713,0,0,1-11.713-11.713Z" style="fill:#c0392b"/><path d="M209.349,16.385V47.226a11.632,11.632,0,0,1-11.714,11.547H166.349a11.63,11.63,0,0,0-11.713,11.546V98.891a11.63,11.63,0,0,0,11.713,11.546h31.286a11.632,11.632,0,0,1,11.714,11.547v30.841a11.63,11.63,0,0,0,11.713,11.546h28.984a11.63,11.63,0,0,0,11.713-11.546V121.984a11.632,11.632,0,0,1,11.714-11.547h31.286a11.63,11.63,0,0,0,11.713-11.546V70.319a11.63,11.63,0,0,0-11.713-11.546H273.473a11.632,11.632,0,0,1-11.714-11.547V16.385A11.63,11.63,0,0,0,250.046,4.839H221.062A11.63,11.63,0,0,0,209.349,16.385Z" style="fill:#c0392b"/><path d="M23.058,516.754a8.636,8.636,0,0,0-8.7,8.573v21.215a8.636,8.636,0,0,0,8.7,8.573H46.289a8.636,8.636,0,0,1,8.7,8.573v22.9a8.635,8.635,0,0,0,8.7,8.573H85.2a8.636,8.636,0,0,0,8.7-8.573v-22.9a8.636,8.636,0,0,1,8.7-8.573h23.23a8.636,8.636,0,0,0,8.7-8.573V525.327a8.636,8.636,0,0,0-8.7-8.573H102.6a8.635,8.635,0,0,1-8.7-8.573v-22.9a8.636,8.636,0,0,0-8.7-8.573H63.683a8.636,8.636,0,0,0-8.7,8.573v22.9a8.636,8.636,0,0,1-8.7,8.573Z" style="fill:#c0392b"/></svg>