<?xml version="1.0"?><svg fill="#c0392b" data-name="Layer 4" id="Layer_4" viewBox="0 0 600 600" xmlns="http://www.w3.org/2000/svg"><title/><path d="M426.409,268.654c-.619-35.917-23.506-68.984-62.327-69.8-27.946-.587-54.387,20.557-64.07,29.268a6.028,6.028,0,0,1-7.965.088c-9.6-8.231-20.8-24.379-49.746-29.882-77.483-14.731-103.36,99.815-51.365,148.4,18.911,19.6,71.76,55.22,93.97,69.863a20.5,20.5,0,0,0,21.079.9C336.869,400.729,422.138,347.489,426.409,268.654ZM239.367,246.269c-3.031,15.158-12.829,34.7-28.988,29.171-5.455-2.346-7.593-7.387-7.5-13.072l-.38-.105c2.742-12.017,8.642-26.415,21.528-30.234C230.137,230.5,241.3,236.594,239.367,246.269Z" style="fill:#c0392b"/><path d="M29.038,592.814h.813a23.259,23.259,0,0,0,16.926-7.3C68.859,562.085,195.788,425.037,196.649,424.04c9.711-11.241-5.753-26.561-16.892-16.731L13.081,552.094a23.272,23.272,0,0,0-7.84,18.7C5.908,583.24,16.572,592.814,29.038,592.814Z" style="fill:#c0392b"/><path d="M571.522,8.256h-1.373a23.252,23.252,0,0,0-16.925,7.3c-23.183,24.6-140.17,147.7-140.17,147.7-9.933,11.252,5.6,26.72,16.784,16.855L586.919,48.976a23.272,23.272,0,0,0-15.4-40.72Z" style="fill:#c0392b"/><path d="M299.807,3.458a21.953,21.953,0,0,0-21.784,24.673l10.02,80.243a11.855,11.855,0,0,0,23.528,0L321.59,28.131A21.953,21.953,0,0,0,299.807,3.458Z" style="fill:#c0392b"/><path d="M29.88,311.82,110.123,301.8a11.856,11.856,0,0,0,10.387-11.765h0a11.856,11.856,0,0,0-10.387-11.764L29.88,268.253a21.953,21.953,0,1,0,0,43.567Z" style="fill:#c0392b"/><path d="M570.12,268.253l-80.243,10.019a11.856,11.856,0,0,0-10.387,11.764h0A11.856,11.856,0,0,0,489.877,301.8L570.12,311.82a21.953,21.953,0,1,0,0-43.567Z" style="fill:#c0392b"/><path d="M299.807,481.239a11.855,11.855,0,0,0-11.764,10.387l-10.02,80.243a21.953,21.953,0,0,0,21.784,24.673h0a21.953,21.953,0,0,0,21.783-24.673l-10.019-80.243A11.856,11.856,0,0,0,299.807,481.239Z" style="fill:#c0392b"/><path d="M120.844,558.8h.441a7.8,7.8,0,0,0,6.2-3.067l92.635-121.993a4.508,4.508,0,0,0-7.049-5.617L114.848,546.019A7.8,7.8,0,0,0,120.844,558.8Z" style="fill:#c0392b"/><path d="M553.223,585.513a23.259,23.259,0,0,0,16.926,7.3h.813c12.466,0,23.13-9.574,23.8-22.022a23.272,23.272,0,0,0-7.84-18.7L420.243,407.309c-11.139-9.83-26.6,5.49-16.892,16.731C404.212,425.037,531.142,562.085,553.223,585.513Z" style="fill:#c0392b"/><path d="M186.946,163.257c-.2-.29-116.987-123.1-140.17-147.7a23.252,23.252,0,0,0-16.925-7.3H28.478a23.272,23.272,0,0,0-15.4,40.72L170.162,180.112C181.342,189.977,196.879,174.509,186.946,163.257Z" style="fill:#c0392b"/><path d="M546.475,490.9a7.8,7.8,0,0,0,6.741,1.545l.43-.1a7.8,7.8,0,0,0,2.865-13.828L433.619,386.623a4.508,4.508,0,0,0-5.1-.209h0a4.508,4.508,0,0,0-.452,7.309Z" style="fill:#c0392b"/><path d="M41.736,99.6a7.8,7.8,0,0,0-12.478,6.614l.022.44a7.8,7.8,0,0,0,3.366,6.042L159.017,199.26a4.507,4.507,0,0,0,5.266-7.314Z" style="fill:#c0392b"/><path d="M490.026,26.7a7.8,7.8,0,0,0-6.2,3.067L391.192,151.759a4.508,4.508,0,0,0,7.049,5.618L496.463,39.486a7.8,7.8,0,0,0-6-12.786Z" style="fill:#c0392b"/></svg>