<?xml version="1.0" ?><svg fill="#c0392b" data-name="Layer 4" id="Layer_4" viewBox="0 0 600 600" xmlns="http://www.w3.org/2000/svg"><title/><path d="M306.634,469.708c44.338-28.259,210.246-143.173,144.545-242.1-48.078-72.389-155.1,14.379-155.1,14.379s-53.283-58.5-97.554-58.5c-50.155.6-85.44,49.909-79,100.2,10.425,81.473,129.511,162.857,166,186.025A19.661,19.661,0,0,0,306.634,469.708Z" style="fill:#c0392b"/><path d="M231.778,509.956c10.705,9.233,25.831,22.089,33.127,27.413,28.434,23.935,54.866,8.694,81.627-12.139,164.95-128.4,201.389-244.7,200.946-288.063,3.876-45.613-36.377-186.425-226.564-80.158-13.6,7.6-18.959,6-30.985-3.064-106.566-80.36-213.793-50.806-245.344,53.64A149.94,149.94,0,0,0,49.661,307.9c15.191,36.9,44.219,83.354,92.237,126.82,7.543,6.828,21.914-1.1,13.348-11.051C120.264,384.3,82.353,333.362,70.6,288.7c-13.854-52.671-1.911-105.13,42.077-137.242,41.656-30.408,93.505-30.989,169.693,26.261,13.592,10.213,32.033,11.037,46.008,1.353,0,0,112.345-67.353,162.993-18.263,68.457,66.35,21.818,205.71-160.775,352.576-6.421,5.164-17.456,13.936-25.2,16.91-18.824,8.486-45.51-20.44-64.505-32.551C232.893,492.639,224.592,503.76,231.778,509.956Z" style="fill:#c0392b"/><path d="M375.028,70.983c14.137-.427,12.094-20.264-1.369-20.067C358.985,51.354,361.249,71.205,375.028,70.983Z" style="fill:#c0392b"/><path d="M180.955,467.719c-.367,9.95,16.82,14.366,16.781,1.839C198.24,458.1,181.733,456.273,180.955,467.719Z" style="fill:#c0392b"/><path d="M3.131,105.107c42.344-63.563,128.68-95.55,199.38-58.6,33.484,19.133,63.17,44.85,98.02,61.572,7.589,2.98,15.048,2.762,21.94-1.922,2.729-2.318,11.14-8.22,17.742-12.781a11.538,11.538,0,0,0,4.293-13.84c-4.3-10.2-18.86,1.44-31.622,6.572-6.842,2.75-21.849-7.508-27.733-11.139-44.7-28.533-83.911-65.988-145-72.523C87.582-3.761,39.6,18.073,6.68,45.666A18.745,18.745,0,0,0,0,60.039v44.132A1.705,1.705,0,0,0,3.131,105.107Z" style="fill:#c0392b"/><path d="M527.4,11.817c33.235.663,56.968,19.9,71.556,34.806a.606.606,0,0,0,1.04-.43V37.405a6,6,0,0,0-1.88-4.341c-21.336-20.3-48.681-35.482-112.141-30.842-29.289,2.142-91.96,21.446-77.2,41.886,15,20.77,107.343-85.2,189.555,63.706a.9.9,0,0,0,1.67-.47V68.305a11.2,11.2,0,0,0-2.329-6.828C581.309,40.2,557.062,20.622,527.008,15.666A1.94,1.94,0,0,1,527.4,11.817Z" style="fill:#c0392b"/><path d="M205.606,597.135a15.862,15.862,0,0,0,6.708,1.483h26.2a2.3,2.3,0,0,0,1.106-4.33c-51.2-27.7-159.24-97.668-237.457-228.053a1.161,1.161,0,0,0-2.16.59v32.969a17.61,17.61,0,0,0,3.607,10.69c28.747,37.672,69.84,78.216,89.969,97.391a1.725,1.725,0,0,1-2.115,2.7c-42.045-26.426-71.451-53.616-89.455-72.81a1.161,1.161,0,0,0-2.006.8v11.271a17.5,17.5,0,0,0,4.2,11.427C57.791,523.515,158.1,575,205.606,597.135Z" style="fill:#c0392b"/><path d="M595.259,378.262A30.111,30.111,0,0,0,600,362.023V339.012a1.187,1.187,0,0,0-2.149-.7c-62.787,87.1-153.818,193.415-237.763,256.162a2.3,2.3,0,0,0,1.385,4.144h24.6a20.245,20.245,0,0,0,11.186-3.376C437.9,568.31,537.331,493.767,598.091,413.727A9.433,9.433,0,0,0,600,408.018v-8.254a1.11,1.11,0,0,0-1.981-.686C570.326,433.836,548.3,451.58,537,459.2a1.423,1.423,0,0,1-1.867-2.113C563.533,423.9,582.239,398.6,595.259,378.262Z" style="fill:#c0392b"/></svg>