<?xml version="1.0" ?><svg fill="#c0392b" data-name="Layer 4" id="Layer_4" viewBox="0 0 600 600" xmlns="http://www.w3.org/2000/svg"><title/><path d="M574.78,373.683a104.43,104.43,0,0,1,9.667,72.109C575.5,486.38,543.07,543.646,429.334,564.44c-48,8.774-137.775,9.7-179.87-12.519a7.764,7.764,0,0,1-.1-13.682l65.693-35.881a2.575,2.575,0,0,0-1.933-4.74c-47.77,13.609-157.939,44.773-183.969,50.212-4.409.921-10.809-1.465-6.6-6.059,27.924-14.875,60.023-22.1,88.544-36.2,8.131-4.243,7.394-7.032,5.444-13.143-14.025-40.42-24.936-78.188-25.683-121.086-1-20.121,43.074,32.7,55.852,46.386a13,13,0,0,1,3.435,7.7l5.879,40.064c.277,3.052,5.049,3.58,5.428.54,4.076-32.628,19.4-89.75,81.54-148.544,2.269-2.147-.317-5.385-3.066-3.9l-19.8,8.536a6.007,6.007,0,0,1-7.821-2.868L272.4,237.368c-2.638-7.389.275-12.963,7.815-15.589,0,0,34.017-8.455,68.036-3.148A5.1,5.1,0,0,1,352.5,224.2l-4.034,39.361a1.352,1.352,0,0,0,2.606.627c9.134-23.611,33.141-85.971,44.42-118.1,1.161-3.263,1.377-3.389,5.809-3.575,2.278,2.387,1.129,5.156.576,7.736-6.484,26.532-11.026,53.4-14.764,80.449-.75,4.985,2.212,8.638,5.236,12,13.86,14.107,21.515,32.209,25.216,51.447,1.11,4.793.566,5.949-3.919,8.054-7.286,3.81-19.811,9.1-26.982,12.063a2.436,2.436,0,0,0,.527,4.657,21.916,21.916,0,0,0,7.169-.393,264.264,264.264,0,0,1,92.993-.617C522.718,324.662,555.939,338.811,574.78,373.683Z" style="fill:#c0392b"/><path d="M113.74,231.773a4.127,4.127,0,0,1,.225-6.149c5.809-4.833,15.269-12.764,22.886-18.6,3.652-2.717,7.065-3.244,10.251.738,0,0,102.462,127.605,108.7,134.148,2.074,2.175,9.2.977,5.39-5.915-5.19-9.4-85.625-125.42-95.714-139.369a6.987,6.987,0,0,1,1.555-9.748c6.826-4.969,17.4-12.3,25.691-18.115a7.226,7.226,0,0,1,10.4,2.291c15.018,25.914,66,117.325,89.22,159.322,2.239,4.048,1.053,7.746-.485,11.406-13.654,15.195-23.746,28.755-31.078,43.919a5.088,5.088,0,0,1-7.948,1.588c-53.205-46.983-105-93.178-153.915-145.238a2.345,2.345,0,0,1,.138-3.343l1.093-.987a4.128,4.128,0,0,1,5.827.3c29.545,32.6,86.41,85.412,106.589,96.059C212.566,334.082,156.1,272.553,113.74,231.773Z" style="fill:#c0392b"/><path d="M133.137,141.5a9.737,9.737,0,0,0,9.824,3.365q14.383-3.392,28.762-6.808c7.3-2.431,11.541,4.548,16.144,8.954,1.976,2.289,1.791,3.566-.677,5.3-13.72,9.66-27.5,19.231-41.212,28.91-17.454,12.561-35.373,24.567-52.374,37.7-2.2,1.517-4.29.994-6.206-.848-4.677-4.5-5.871-10.047-2.577-15.538,6.341-10.569,12.8-21.081,19.626-31.339,2.118-3.184,2.265-5.443.126-8.407Q88.057,138.9,70.684,115.6c-6.594-8.836-14.56-15.664-25.915-17.78-18.6-5.585-28.715-28.518-22.353-46.561C34.2,23.89,61.782,24.688,77.5,42.325a36.65,36.65,0,0,1,8.967,22.317c.218,3.7.837,8.094,2.445,10.857C98.16,96.669,123.36,129.358,133.137,141.5ZM68.15,64.74C67.99,54.111,52.92,44.2,43.543,51.916c-4.368,3.318-5.982,7.777-5.128,13.252,1.391,9.468,10.662,18.587,20.4,14.146C64.574,77.063,68.257,71.7,68.15,64.74Z" style="fill:#c0392b"/><path d="M23.881,366.572c23.4,5.895,49.06,13.918,72.24,21.458,7.864,3.074,5.641,9.054-2.15,7.967-15.161-2.442-65.836-9.937-77.015-18.926C9.459,371.043,13.147,365.588,23.881,366.572Z" style="fill:#c0392b"/><path d="M478.421,268.587a2.258,2.258,0,0,1-3.33-2.981c9.778-14.739,27.678-40.421,41.083-52.193,9.415-8.268,16.661-3.48,10.685,6.065C523.194,224.943,497.717,252.373,478.421,268.587Z" style="fill:#c0392b"/><path d="M414.283,109.794c.43,10.167-10.056,10.341-10.766,1.157C402.92,102.447,414.226,100.768,414.283,109.794Z" style="fill:#c0392b"/><path d="M132.373,402.6c1.1,2.534,5.078,3.966,8.321,4.34,3.1.4,7.149-2.22,4.757-4.979C143.449,398.6,131.652,397.081,132.373,402.6Z" style="fill:#c0392b"/></svg>