<?xml version="1.0" ?><svg fill="#c0392b" data-name="Layer 4" id="Layer_4" viewBox="0 0 600 600" xmlns="http://www.w3.org/2000/svg"><title/><path d="M385.285,3.806a1.463,1.463,0,0,0-.766-2.793h-36.4a17.412,17.412,0,0,0-8.4,2.159C313.587,17.6,301.786,45.3,304.342,69.533c.29,2.746,3.941,4.062,6.325,2.3,5.746-4.241,15.471-10.479,24.934-12.207a4.221,4.221,0,0,0,3.685-4.614C338.013,46.244,340.476,24.91,385.285,3.806Z" style="fill:#c0392b"/><path d="M249.325,47.875c-4.834-11.756-11.894-28.35-17.956-37.58a4.445,4.445,0,0,0-5.209-1.761l-4.882,1.738A2.5,2.5,0,0,0,220.029,14c38.172,59.1,44.827,139.613.453,225.153-2.349,4.527,3.994,3.659,6.306,1.6a120.444,120.444,0,0,1,39.052-14.233c2.835-.5,4.31,1.057,1.969,2.732-11.434,8.183-93.243,39.248-102.179,109.293-4.979,39.032,5.611,65.92,29.56,118.679.919,2.025-1.588,3.593-2.68,1.968,0,0-26.991-21.282-38.611-72.119l-.625-2.834,0-.012c-9.575-58.21,25.5-108.08,26.663-109.718,12.445-15.455,23.639-21.923,25.121-23.573,2.023-2.253,3.811-4.893,4-7.324,1.583-20.56-1.477-42.325-6.319-61.494-4.8-23.418-13.325-72.962-.386-98.632a2.846,2.846,0,0,0-3.007-4.1c-19.875,3.394-36.633,12.111-44.83,16.986a7.123,7.123,0,0,0-2.867,9.013c19.241,43.4,33.855,84.522,14.073,119.49-93.041,164.465,8,279.29,95.693,320.995,3.845,1.829,8.174-1.888,8.282-6.145.486-19.254,2.945-68.464,15.349-94.074,10-20.645,12.9-37.377,13.678-46.982a6.657,6.657,0,0,0-8.508-6.908c-11.176,3.278-31.65,11.63-52.48,32.072-5.541,5.438-6.29-4.272-4.487-7.647a29.952,29.952,0,0,1,12.441-13.98c16.146-9.284,32.8-17.5,49.567-25.666,33.724-16.423,41.2-59.978,42.567-68.536,1.96-14.555,3.181-29.141,2.3-43.835-2.225-15.846-20.8-21.556-33.475-27.336-25.755-18.277-19.87-56.4,20.567-114.024,9.493-13.528,20.233-20.881,33.942-18.817a12.911,12.911,0,0,0,7.724-1.213c18.742-9.43,33.635-22.07,44.106-36.09a3.4,3.4,0,0,0-2.781-5.419c-26.919.422-80.585,0-99.748,25.148-7.632,10.015-20.715,24.219-25.978-5.523,0,0-7.84-46.1-16.416-75.6a3.431,3.431,0,0,0-3.57-2.465L246.156,4.289a3.414,3.414,0,0,0-2.9,4.679,117.418,117.418,0,0,1,8.357,38.4A1.187,1.187,0,0,1,249.325,47.875ZM235.793,449.32a29.634,29.634,0,0,1-.577,4.339c-1.522,5.066-9.042,5.622-9.786-.442C221.446,441.548,235.181,434.708,235.793,449.32Z" style="fill:#c0392b"/><path d="M477.629,50.757a7.907,7.907,0,0,0-8.745-2.537c-39.684,13.689-86.927,86.643-121.291,75.091a2.13,2.13,0,0,0-2.884,1.041c-37.578,59.06-7.907,22.295,2.385,70.069,28.9,134.142-7.733,153.284,6.163,171.213,20.4,26.322,41.972,23.561,52.67,18.812a2.148,2.148,0,0,1,2.987,1.75l1.128,10.351a6.362,6.362,0,0,1-4.446,6.779c-9.625,2.957-31.7,5.478-51.843-12.3a1.917,1.917,0,0,0-3.04,2.191c15.564,32.95,49.3,32.03,69.579,76.509,1.38,3.027,4.873,5.327,6.719,1.547,4.944-20.7,7.117-40.5,15.786-59.926,13.987-31.333,1.125-60.674-31.249-103.681-16.4-21.792-18.017-41.006-17.212-79.695,1.352-64.915,64.016-117.113,93.534-138.721a7.515,7.515,0,0,0,2.87-7.746C488.009,69.45,484.06,58.739,477.629,50.757Z" style="fill:#c0392b"/><path d="M310.1,535.054c-6.061-9.475-11.245-19.928-17.8-29.139a3.465,3.465,0,0,0-6.241,1.453c-11.585,72.011,23,88.983,54.435,91.231,15.5,1.108,47.548,2.939,60-43.437,14.235-53.035,13.768-94.121-35.38-121.2a2.265,2.265,0,0,0-3.292.966c-3.89,9.469-16.264,44.852,1.337,75.792a2.111,2.111,0,0,1-2.819,2.9c-17.2-9.251-21.625-30.868-19.406-43.758,1.609-12.216,14.823-41.071,3.515-57.121a117.714,117.714,0,0,1-15.525-30.355,4.327,4.327,0,0,0-8.18-.129,347.048,347.048,0,0,0-13.2,45.872c-4.016,19.039-12.154,30.748-11.666,49.525a20.811,20.811,0,0,0,3,10.239c5.3,8.752,17.249,29.505,20.095,43.113C322.489,543.682,316.938,546.3,310.1,535.054Z" style="fill:#c0392b"/><path d="M457.64,191.1c2.374-12.792,20.056-28.343,31.615-36.392a3.619,3.619,0,0,0,.037-5.89,62.266,62.266,0,0,0-21.183-10.376,7.229,7.229,0,0,0-6.911,1.908c-41.6,41.789-69.586,96.955-31.982,153.18,12.593,18.829,38.259,37.357,47.01,31.723,48.72-31.369-41.481-107.714,26.139-121.1a3.918,3.918,0,0,0,3.028-4.723l-4.324-18.921a4.488,4.488,0,0,0-5.1-3.422c-15.362,2.5-27.983,11.456-34.117,16.549A2.61,2.61,0,0,1,457.64,191.1Z" style="fill:#c0392b"/><path d="M119.849,278.923a2.092,2.092,0,0,0,4,.409c3.013-7.443,5.816-14.984,9.194-22.261.037-.08.073-.16.109-.241a29.343,29.343,0,0,0-3.5-29.509c-9.56-12.782-21.133-23.918-31.9-35.91a3.95,3.95,0,0,0-6.476.869l-8.993,18a8.362,8.362,0,0,0,2.335,10.338C94.454,228.285,114.428,247.348,119.849,278.923Z" style="fill:#c0392b"/><path d="M511.884,76.049l4.177-2.044a4.527,4.527,0,0,0,2.5-4.636c-.859-6.841-3.842-23.129-13.523-35.425a4.509,4.509,0,0,0-5.16-1.379l-5.242,2.014a4.537,4.537,0,0,0-2.38,6.368c3.52,6.633,9.909,19.608,13.248,32.181A4.534,4.534,0,0,0,511.884,76.049Z" style="fill:#c0392b"/></svg>