<?xml version="1.0" ?><svg fill="#c0392b" id="icon" viewBox="0 0 512 512" xmlns="http://www.w3.org/2000/svg"><title/><path d="M172.07,186v42.92a26.82,26.82,0,0,0,9.61,20.57L212.21,275a14.8,14.8,0,0,1,5.18,13.25l-3.09,24.13a14.8,14.8,0,0,1-3.84,8.2l-9,9.65a8,8,0,0,0,1.3,12l11.92,8.27a29.65,29.65,0,0,1,6.48,6.12l24.88,31.75a6.64,6.64,0,0,1-8,10.13l-34.77-15.89A34.92,34.92,0,0,0,190,379.51c-23.7-.78-104.16-7.93-141.83-68.05a121.61,121.61,0,0,1-16.9-42.24C17.52,196.46,89.76,137,157.82,166.12l1.94.85A20.86,20.86,0,0,1,172.07,186Z"/><path d="M329,201.67l-23.85,33.8a13.56,13.56,0,0,0-1.57,12.72l13.16,34a13.62,13.62,0,0,0,7.41,7.62l6.46,2.7a9.25,9.25,0,0,1,3.63,14.31l-57.37,71.4a26.12,26.12,0,0,0-5.65,14.1l-2.75,32.07a5.51,5.51,0,0,0,8.77,4.9L294,416.88a48.63,48.63,0,0,1,22.72-9.17c30.72-4,111.77-18.83,145.83-67.23,0,0,36.42-51.21,10.78-112.86-10.14-24.35-31.26-42.5-57.1-47.79-16.81-3.44-38.6-3.45-65.18,5.43A44.22,44.22,0,0,0,329,201.67Z"/><path d="M204.65,182.85l-2.39,27.77a6.26,6.26,0,0,0,2.53,5.59L222,228.84a6.26,6.26,0,0,0,9.88-4l5.75-35a6.25,6.25,0,0,0-3.63-6.74c-5.29-2.37-14.52-5.87-23-6A6.29,6.29,0,0,0,204.65,182.85Z"/><path d="M338.48,138.87c-5.55-3.84-18-10.18-30.2-1.08a9.61,9.61,0,0,0-3.87,7.72v26.05a4.33,4.33,0,0,0,7.26,3.18l24.71-22.81a4.63,4.63,0,0,0,1.1-1.53l2.58-5.92A4.59,4.59,0,0,0,338.48,138.87Z"/><path d="M259.45,309.76c5-3.82,12.75-10.14,17.14-13.73a3.46,3.46,0,0,1,5.27,1.1l6.56,12.71a4.84,4.84,0,0,1-.71,5.46L275,329.38a4.85,4.85,0,0,1-5,1.39l-8.82-2.69a4.84,4.84,0,0,1-3.31-3.55l-1.46-6.41A8.22,8.22,0,0,1,259.45,309.76Z"/><circle cx="266.9" cy="252.78" r="8.79"/><path d="M246.82,37.29l15.95,160.93a3.4,3.4,0,0,0,6.78-.18l7.26-161.13a7.07,7.07,0,0,0-7.07-7.39H253.86A7.07,7.07,0,0,0,246.82,37.29Z"/><path d="M47.15,33.27l54.41,68.88c4.8,6.08-3,14-9.17,9.33L37.74,69.85a20.81,20.81,0,0,1-8.2-16.56V39.38a9.86,9.86,0,0,1,9.87-9.86h0A9.85,9.85,0,0,1,47.15,33.27Z"/><path d="M56.87,472.49l96-75.67c3.91-3.09,8.87,2.24,5.51,5.92L91.71,476A19.93,19.93,0,0,1,77,482.48H60.34A5.59,5.59,0,0,1,56.87,472.49Z"/><path d="M131.56,474.05l44.2-56.31c3.14-4,9.36,0,7,4.52l-26,50.17a16.45,16.45,0,0,1-15.16,10.05h-6.13A5.13,5.13,0,0,1,131.56,474.05Z"/><path d="M410.68,431.73l40.33,47a10.6,10.6,0,0,0,8.07,3.71h12a10.62,10.62,0,0,0,10.63-10.62v-.95a10.63,10.63,0,0,0-4.28-8.52l-56.28-41.88C413.76,415,404.69,424.74,410.68,431.73Z"/><path d="M466,33l-65.9,82.27c-3.12,3.89,2,9,5.87,5.81L474.3,65.17A22.28,22.28,0,0,0,482.46,48V38.76a9.24,9.24,0,0,0-9.24-9.24h0A9.25,9.25,0,0,0,466,33Z"/><path d="M221.33,39.29,232.15,118c.86,6.27-7.88,8.67-10.34,2.84L188.29,41.35a8.52,8.52,0,0,1,7.85-11.83h14A11.32,11.32,0,0,1,221.33,39.29Z"/></svg>