<svg width="600" height="600" viewBox="0 0 600 600" fill="none" xmlns="http://www.w3.org/2000/svg">
<path d="M511.096 129.556C498.462 175.533 478.011 217.956 456.271 260.121C456.038 260.58 455.638 260.932 455.152 261.103C454.667 261.274 454.134 261.251 453.665 261.038C453.196 260.826 452.827 260.441 452.635 259.963C452.443 259.485 452.443 258.952 452.634 258.474C469.122 214.359 485.934 170.55 496.875 124.727C497.545 121.454 497.403 118.067 496.462 114.862C495.521 111.657 493.809 108.731 491.476 106.342C419.894 33.2561 307.858 -0.631374 209.647 33.0997C197.844 36.7076 194.356 43.9505 191.965 55.3782C148.274 210.014 110.723 421.275 191.426 568.672C196.016 575.644 201.786 581.066 210.801 579.821C217.913 578.841 225.426 574.391 231.855 571.369C251.759 562.17 270.467 550.573 287.562 536.836C290.844 534.164 286.173 529.549 282.918 532.188C267.751 544.284 251.281 554.645 233.813 563.077C226.257 566.081 211.98 575.422 204.608 572.711C178 549.229 162.996 481.438 159.05 446.33C158.969 445.655 159.148 444.974 159.55 444.426C159.952 443.877 160.547 443.502 161.215 443.377C161.883 443.251 162.574 443.384 163.147 443.75C163.72 444.115 164.134 444.685 164.303 445.343C171.894 474.657 182.719 503.034 196.578 529.952C201.835 542.047 212.642 549.159 225.596 543.289C360.333 477.48 477.1 272.375 516.899 131.155C517.822 127.399 512.126 125.813 511.096 129.556ZM472.661 132.609C475.208 145.326 456.62 147.774 455.742 135.026C455.769 125.342 469.98 123.192 472.661 132.613V132.609ZM231.371 60.8273C233.918 73.543 215.33 75.9914 214.452 63.2445C214.479 53.5565 228.69 51.4111 231.371 60.8273ZM317.829 254.795C285.96 359.272 269.695 439.278 233.661 494.415C233.042 495.351 232.128 496.052 231.064 496.408C230.001 496.764 228.849 496.754 227.792 496.379C226.735 496.004 225.833 495.287 225.23 494.34C224.627 493.394 224.358 492.273 224.465 491.156C233.124 400.51 271.337 324.089 277.187 294.283C288.949 234.36 218.951 219.793 185.226 232.632C184.292 232.981 183.285 233.086 182.3 232.937C181.315 232.787 180.384 232.389 179.595 231.779C178.807 231.169 178.186 230.368 177.793 229.452C177.4 228.535 177.247 227.534 177.348 226.542C178.677 215.266 180.875 204.11 183.922 193.174C184.178 192.234 184.662 191.373 185.332 190.668C186.003 189.962 186.838 189.434 187.762 189.131C188.687 188.829 189.672 188.76 190.629 188.933C191.587 189.106 192.486 189.514 193.247 190.12C322.848 270.908 333.311 156.037 332.031 60.8683C332.015 60.0652 332.164 59.2674 332.469 58.5244C332.774 57.7815 333.229 57.1092 333.804 56.5495C334.38 55.9898 335.064 55.5545 335.815 55.2708C336.566 54.9871 337.367 54.8611 338.169 54.9004C353.75 55.7795 371.038 61.1444 384.832 68.4347C385.554 68.8167 386.187 69.3454 386.692 69.9867C387.198 70.628 387.563 71.3679 387.766 72.1589C387.969 72.9499 388.005 73.7747 387.871 74.5803C387.737 75.3858 387.436 76.1545 386.988 76.837C357.457 121.639 335.737 196.08 317.829 254.795ZM434.649 264.908C429.938 283.688 418.742 300.908 413.557 308.191C413.245 308.625 412.838 308.981 412.367 309.234C411.896 309.486 411.373 309.627 410.839 309.646C410.305 309.665 409.774 309.562 409.286 309.344C408.798 309.126 408.367 308.8 408.024 308.389C378.684 273.766 344.583 278.764 331.461 281.292C330.932 281.394 330.386 281.361 329.873 281.196C329.36 281.032 328.897 280.741 328.525 280.351C328.153 279.961 327.885 279.484 327.745 278.964C327.605 278.443 327.598 277.896 327.724 277.372C330.041 267.686 334.234 251.019 338.349 239.297C338.529 238.784 338.837 238.325 339.243 237.963C339.649 237.601 340.139 237.347 340.669 237.226C341.199 237.105 341.751 237.121 342.274 237.271C342.796 237.421 343.272 237.702 343.657 238.086C360.509 254.703 393.61 269.535 430.462 260.646C431.046 260.509 431.655 260.525 432.231 260.692C432.807 260.86 433.33 261.172 433.751 261.6C434.171 262.029 434.474 262.558 434.631 263.137C434.788 263.716 434.794 264.326 434.647 264.908H434.649Z" fill="#c0392b"/>
<path d="M368.43 515.728C371.717 515.028 375.03 513.072 376.521 509.963C377.975 506.819 375.036 504.114 372.069 506.031C369.288 507.1 363.593 514.378 368.43 515.728Z" fill="#c0392b"/>
</svg>
