<?xml version="1.0" ?><svg fill="#c0392b" data-name="1" id="_1" viewBox="0 0 600 600" xmlns="http://www.w3.org/2000/svg"><title/><path d="M372.109,155.662a2.979,2.979,0,0,0-3.781-3.8c-19.921,6.856-40.3,7.983-51.164,8.013a8.156,8.156,0,0,0-8.126,8.023c-.721,41.248-1.349,123.563-1.439,157.213-.049,18.64,13.9,37.515,32.5,36.324,38.789-2.484,86.928-31.1,96.947-37.16,26.479-16,35.609-40.942,27.584-66.5-7.371-23.475-22.972-46.658-35.348-63.924-2.626-3.583-3.1-6.63-1.262-10.739,3.141-7.02,19.13-73.9,22.731-113.063a17.136,17.136,0,0,0-10.747-17.47,230.306,230.306,0,0,0-25.761-8.326,5.651,5.651,0,0,0-7.089,5.18c-2.316,45.541-12.992,91.785-31.378,137.68a9.727,9.727,0,0,0,1.56,10.314c6.38,6.949,29.308,20.834,27.22,23.607-2.374,3.152-24.422-8.533-32.491-12.726-8.217-4.271-12.556-11.987-10.137-21.642C363.445,180.624,369.008,164.508,372.109,155.662Zm22.532,24.492c.173-9.382,14.862-10.942,15.092-.773C408.962,189.994,395.409,191.3,394.641,180.154Z" style="fill:#c0392b"/><path d="M482.667,21.552a5.554,5.554,0,0,0-7.239,5.544c.642,14.108-2.989,95.961-25.7,149.934a5.537,5.537,0,0,0,.9,5.86c1.36,1.527,3.115,3.477,4.765,5.246a5.478,5.478,0,0,0,7.562.432c12.124-10.358,49.513-45.881,77.524-111.087a18.726,18.726,0,0,0-2.57-19.119C519.623,35.651,495,25.469,482.667,21.552Z" style="fill:#c0392b"/><path d="M560.556,111.589a4.686,4.686,0,0,0-7.579.762c-25.871,44.647-67.3,80.418-81.525,91.959a6.983,6.983,0,0,0-1.475,9.212c4.4,6.82,11.887,19.161,16.31,30.437a7,7,0,0,0,9.249,3.958c55.831-23.884,84.441-58.7,94.744-73.627A15.29,15.29,0,0,0,591.7,159.4C581.867,137.314,567.686,119.688,560.556,111.589Z" style="fill:#c0392b"/><path d="M593.324,274.431c2.144-17.1-.281-39.461-1.795-50.57a4.049,4.049,0,0,0-6.429-2.7c-11.9,8.828-42.8,29.7-86.144,43.942-3.785,1.244-6.023,5.209-6.121,9.191A113.721,113.721,0,0,1,490,297.851a4.473,4.473,0,0,0,4.546,5.55c33.144-1.449,74.091-13.622,90.293-18.834A12.309,12.309,0,0,0,593.324,274.431Z" style="fill:#c0392b"/><path d="M560.931,361.722a11,11,0,0,0,9.774-7.03c3.1-8.014,8.213-22.255,10.424-34.128a4.4,4.4,0,0,0-5.552-5.024c-21.322,6.111-47.349,7.253-58.7,7.448a6.973,6.973,0,0,0-6.751,5.788l-2.674,15.463a6.973,6.973,0,0,0,4.353,7.7C521.3,355.613,541.993,362.558,560.931,361.722Z" style="fill:#c0392b"/><path d="M222.659,197.424a9.727,9.727,0,0,0,1.56-10.314c-18.387-45.9-29.062-92.139-31.378-137.68a5.652,5.652,0,0,0-7.09-5.18,230.3,230.3,0,0,0-25.76,8.326,17.136,17.136,0,0,0-10.747,17.47c3.6,39.166,19.59,106.043,22.731,113.063,1.839,4.109,1.364,7.156-1.262,10.739-12.376,17.266-27.977,40.449-35.348,63.924-8.025,25.557,1.1,50.5,27.584,66.5,10.019,6.055,58.158,34.676,96.946,37.16,18.6,1.191,32.555-17.684,32.506-36.324-.09-33.65-.718-115.965-1.439-157.213a8.157,8.157,0,0,0-8.126-8.023c-10.86-.03-31.243-1.157-51.164-8.013a2.979,2.979,0,0,0-3.781,3.8c3.1,8.846,8.664,24.962,10.176,31,2.419,9.655-1.92,17.371-10.137,21.642-8.069,4.193-30.117,15.878-32.491,12.726C193.351,218.258,216.279,204.373,222.659,197.424Zm-32.392-18.043c.23-10.169,14.919-8.609,15.092.773C204.591,191.3,191.038,189.994,190.267,179.381Z" style="fill:#c0392b"/><path d="M117.333,21.552C105,25.469,80.377,35.651,62.085,58.362a18.726,18.726,0,0,0-2.57,19.119c28.011,65.206,65.4,100.729,77.524,111.087a5.478,5.478,0,0,0,7.562-.432c1.649-1.769,3.405-3.719,4.765-5.246a5.537,5.537,0,0,0,.9-5.86C127.561,123.057,123.93,41.2,124.572,27.1A5.554,5.554,0,0,0,117.333,21.552Z" style="fill:#c0392b"/><path d="M9.72,174.29c10.3,14.929,38.913,49.743,94.744,73.627a7,7,0,0,0,9.249-3.958c4.423-11.276,11.915-23.617,16.31-30.437a6.983,6.983,0,0,0-1.475-9.212C114.324,192.769,72.894,157,47.023,112.351a4.686,4.686,0,0,0-7.579-.762c-7.131,8.1-21.311,25.725-31.142,47.807A15.29,15.29,0,0,0,9.72,174.29Z" style="fill:#c0392b"/><path d="M6.676,274.431a12.309,12.309,0,0,0,8.489,10.136c16.2,5.212,57.149,17.385,90.293,18.834a4.473,4.473,0,0,0,4.546-5.55,113.721,113.721,0,0,1-2.839-23.555c-.1-3.982-2.336-7.947-6.122-9.191C57.7,250.868,26.8,229.991,14.9,221.163a4.049,4.049,0,0,0-6.429,2.7C6.957,234.97,4.532,257.329,6.676,274.431Z" style="fill:#c0392b"/><path d="M88.2,351.936a6.973,6.973,0,0,0,4.353-7.7l-2.674-15.463a6.973,6.973,0,0,0-6.751-5.788c-11.352-.195-37.379-1.337-58.7-7.448a4.4,4.4,0,0,0-5.552,5.024c2.211,11.873,7.327,26.114,10.424,34.128a11,11,0,0,0,9.774,7.03C58.007,362.558,78.7,355.613,88.2,351.936Z" style="fill:#c0392b"/><path d="M257.624,385.125c-32.221-8.117-75.453-21.983-102.958-42.684-1.74-1.309-4.876.485-3.665,2.2,16.854,23.821,19.029,31.719,19.28,43.217.061,2.8,2,4.172,4.574,5.377A583.969,583.969,0,0,0,238.4,418.291a197.066,197.066,0,0,0,123.192,0,583.889,583.889,0,0,0,63.549-25.059c2.57-1.205,4.513-2.573,4.574-5.377.251-11.5,2.426-19.4,19.28-43.217,1.211-1.712-1.889-3.468-3.665-2.2-12.207,8.739-44.506,28.95-98.245,42.617A183.093,183.093,0,0,1,257.624,385.125Z" style="fill:#c0392b"/><path d="M194.642,449.207c19.252,11.233,42.142,19.167,61.659,24.519a165.872,165.872,0,0,0,87.4,0c19.518-5.352,42.407-13.286,61.659-24.519a6.635,6.635,0,0,0,3.359-7.124,65.117,65.117,0,0,1-1.085-14.81c.061-2.209-2.5-3.7-4.752-2.774-10.661,4.39-56.758,23.583-102.861,23.584s-92.235-19.192-102.9-23.584c-2.249-.926-4.813.565-4.753,2.774a65.117,65.117,0,0,1-1.085,14.81A6.635,6.635,0,0,0,194.642,449.207Z" style="fill:#c0392b"/><path d="M472.08,523.022a139.041,139.041,0,0,0,8.694-13.515c1.194-2.11.857-5.524-1.534-6.1-25.016-6.068-39.8-27.27-45.315-36.77a4.64,4.64,0,0,0-6.721-1.416,113.646,113.646,0,0,1-16.027,9.424,4.128,4.128,0,0,0-1.978,5.352c7.846,18.416,27.643,37.833,53.122,46.217A8.728,8.728,0,0,0,472.08,523.022Z" style="fill:#c0392b"/><path d="M188.861,474.641a113.646,113.646,0,0,1-16.027-9.424,4.64,4.64,0,0,0-6.721,1.416c-5.511,9.5-20.3,30.7-45.315,36.77-2.391.58-2.728,3.994-1.534,6.1a139.041,139.041,0,0,0,8.694,13.515,8.728,8.728,0,0,0,9.759,3.188c25.479-8.384,45.276-27.8,53.122-46.217A4.128,4.128,0,0,0,188.861,474.641Z" style="fill:#c0392b"/><path d="M367.829,578.672c30.764-4.143,58.52-13.427,81.033-31.353a3.893,3.893,0,0,0-.579-6.5c-17.44-9.2-42.6-26.627-53.647-54.393-1.022-2.568-3.886-3.475-6.5-2.589-52.591,17.8-108.322,24.542-176.228,0a4.97,4.97,0,0,0-6.5,2.589c-11.049,27.766-36.207,45.19-53.647,54.393a3.893,3.893,0,0,0-.579,6.5c22.513,17.926,50.269,27.21,81.033,31.353,2.491.336,5.359-1.385,5.051-3.8-2.092-16.384,14.387-63.918,62.74-63.918,50.02,0,64.871,47.528,62.778,63.918C362.47,577.287,365.338,579.008,367.829,578.672Z" style="fill:#c0392b"/></svg>