<svg fill="#c0392b" xmlns="http://www.w3.org/2000/svg" x="0px" y="0px" width="100" height="100" viewBox="0 0 48 48">
<path d="M 36.507812 0.001953125 C 36.379812 0.001953125 36.252297 0.0509375 36.154297 0.1484375 C 35.959297 0.3444375 35.959297 0.65946875 36.154297 0.85546875 L 36.980469 1.6835938 C 36.610469 6.9735937 32.019875 10.583641 28.546875 14.056641 L 19.21875 23.386719 L 20.628906 24.796875 L 30.126953 15.271484 C 33.542953 11.823484 37.119359 7.3854844 42.318359 7.0214844 L 43.146484 7.8476562 C 43.342484 8.0426563 43.657516 8.0426563 43.853516 7.8476562 C 44.048516 7.6516562 44.048516 7.336625 43.853516 7.140625 L 36.861328 0.1484375 C 36.763328 0.0509375 36.635813 0.001953125 36.507812 0.001953125 z M 27.113281 20.998047 C 26.127531 21.026422 25.159188 21.434062 24.429688 22.164062 L 3.5898438 42.996094 L 3.0039062 42.996094 L 2.0039062 43.996094 L 4.0039062 45.996094 L 5.0039062 44.996094 L 5.0039062 44.412109 L 24.607422 24.814453 L 27.191406 27.398438 L 24.507812 30.087891 L 22.507812 28.089844 L 21.09375 29.503906 L 26.296875 34.705078 L 27.710938 33.289062 L 25.919922 31.501953 L 29.8125 27.609375 C 30.9025 26.520375 31.318906 24.862969 30.753906 23.417969 L 31.982422 22.189453 C 32.230422 21.939453 32.597984 21.932922 32.833984 22.169922 C 33.073984 22.408922 33.057734 22.780203 32.802734 23.033203 L 31.923828 23.910156 C 31.988828 24.261156 32.013 24.617703 32 24.970703 C 31.996 25.071703 31.987516 25.170531 31.978516 25.269531 L 33.511719 23.742188 C 34.103719 23.149188 34.214969 22.133891 33.542969 21.462891 C 32.887969 20.806891 31.878438 20.876469 31.273438 21.480469 L 30.242188 22.513672 C 30.137187 22.375672 30.021531 22.241281 29.894531 22.113281 C 29.102031 21.320781 28.099031 20.969672 27.113281 20.998047 z M 16.318359 21.894531 L 14.902344 23.310547 L 15.675781 24.082031 L 16.027344 23.730469 L 16.648438 24.353516 L 16.296875 24.705078 L 18.507812 26.917969 L 19.921875 25.501953 L 17.710938 23.289062 L 17.355469 23.644531 L 16.734375 23.021484 L 17.089844 22.667969 L 16.318359 21.894531 z M 27.167969 22.998047 C 27.641469 22.987297 28.112969 23.161797 28.480469 23.529297 C 29.216469 24.265297 29.168391 25.427312 28.400391 26.195312 L 27.900391 26.691406 L 25.316406 24.107422 L 25.84375 23.580078 C 26.21825 23.204578 26.694469 23.008797 27.167969 22.998047 z M 14.318359 23.894531 L 12.902344 25.310547 L 13.675781 26.082031 L 14.027344 25.730469 L 14.648438 26.353516 L 14.296875 26.705078 L 16.505859 28.916016 L 17.921875 27.501953 L 15.710938 25.289062 L 15.355469 25.644531 L 14.734375 25.021484 L 15.089844 24.667969 L 14.318359 23.894531 z M 12.318359 25.894531 L 10.902344 27.310547 L 11.675781 28.082031 L 12.027344 27.730469 L 12.648438 28.353516 L 12.296875 28.705078 L 14.505859 30.916016 L 15.919922 29.501953 L 13.710938 27.289062 L 13.355469 27.644531 L 12.734375 27.021484 L 13.089844 26.667969 L 12.318359 25.894531 z M 20.507812 30.089844 L 19.091797 31.501953 L 24.296875 36.705078 L 25.710938 35.289062 L 20.507812 30.089844 z M 12.394531 30.21875 C 11.322531 31.39275 10.869109 32.918812 11.037109 34.382812 L 13.798828 31.623047 L 12.394531 30.21875 z M 18.507812 32.087891 L 17.091797 33.503906 L 19.097656 35.507812 L 18.578125 36.027344 C 17.398125 37.207344 15.521906 37.314844 14.253906 36.339844 L 12.830078 37.759766 C 14.906078 39.534766 18.055141 39.379406 19.994141 37.441406 L 20.511719 36.921875 L 22.296875 38.705078 L 23.710938 37.291016 L 18.507812 32.087891 z M 13.414062 39.339844 C 12.892062 39.940844 12.823844 40.894203 13.464844 41.533203 C 14.119844 42.189203 15.127422 42.118672 15.732422 41.513672 L 17.351562 39.896484 C 16.998563 39.960484 16.639203 39.993094 16.283203 39.996094 C 16.136203 39.999094 15.99075 39.996281 15.84375 39.988281 L 15.023438 40.806641 C 14.775438 41.056641 14.407875 41.063172 14.171875 40.826172 C 13.931875 40.587172 13.948125 40.215891 14.203125 39.962891 L 14.425781 39.738281 C 14.079781 39.635281 13.741062 39.503844 13.414062 39.339844 z M 5.0039062 46.996094 C 3.8949063 46.996094 1.0039062 47.216094 1.0039062 47.496094 C 1.0039062 47.775094 3.8949063 47.996094 5.0039062 47.996094 C 13.323906 47.996094 35.003906 47.775094 35.003906 47.496094 C 35.003906 47.216094 13.323906 46.996094 5.0039062 46.996094 z"></path>
</svg>