<?xml version="1.0" ?><svg fill="#c0392b" data-name="Layer 4" id="Layer_4" viewBox="0 0 600 600" xmlns="http://www.w3.org/2000/svg"><title/><path d="M436.63,362.468c2.534-3.518-1.638-7.737-5.284-6.874-10.429,2.467-8.941-14.478-7.458-20.7C500.111,123.109,175.867,90.558,151.9,318.382c-5.119,46.25,28.532-4.86,165.131-19.53a1.988,1.988,0,0,1,1.7,3.3c-6.934,7.772-17.531,15.69-28.181,19.354a11.506,11.506,0,0,0-6.856,7.819c-14.317,73.258-99.729,83.672-109.814,86.994-7.01,2.39-17.587,2.993-17.326,12.817.458,17.862-3.769,63.943-37.038,136.805a2,2,0,0,0,3.12,2.352,133.929,133.929,0,0,0,20.5-22.312,59.223,59.223,0,0,1,27.123-20.749c52.883-15.167,105.915-29.8,148.513-66.143,3.279-2.678-.915-7.693-4.416-5.722-2.585,1.456-8.925,4.954-11.585,6.269-4.954,3.076-7.342,3.054-5.742-3.1C318.064,396.979,402.53,406.456,436.63,362.468Z" style="fill:#c0392b"/><path d="M355.352,437.558c35.5-13.551,61.919,37.582,84.477,58.038,37.549,39.811,79.429,76.647,128.6,101.381,33.418.409-133.013-177.465-141.311-197.714-2.465-3.429-7.86-.469-5.757,3.363,6.454,11.76,29.185,32.966,27.535,42.3-1.786,10.09-44.322-38.367-44.322-38.367a120.665,120.665,0,0,0-53.3,24.011C348.043,433.094,351.561,439.066,355.352,437.558Z" style="fill:#c0392b"/><path d="M25.433,41.327c5.5,11.654,9.419,24.431,16.424,35.23-.269,2.939,4.2,4.8,6.357,1.87,10.407-16.1,18.689-10.934,30.389.457,16.5,16.188,31.022,34.222,45.436,52.269,12.209,47.6-52.115,113.8-92.842,131.7-3.959,1.928-1.764,7.679,2.119,7.831a624.971,624.971,0,0,0,73.709-1.53c4.458-.353,5.53-6.459,1.068-7.894-35.48-11.362,9.731-55.41,21.4-70.883,24.926-17.293,43.383,22.662,50.946,12.106,3.967-5.957,12.7-15.889,17.606-20.916a4.572,4.572,0,0,0,.383-6.119c-4.614-5.271-26.645-27.986-10.218-25.834,6.8,6.742,13.245,13.486,20.079,20.133,3.235,3.2,8.23-1.793,4.992-4.992-14.178-14.511-31.256-27.2-10.785-45.692,15.222-10.6,40.869-22.761,52.036-.658,10.882,12.774,13.718-66.721,13.212-72.713.1-3.632-5.4-4.366-6.32-.856-14.059,40.864-66.329,72.8-109.052,69.812-25.043-13.631-53.9-25.891-69.81-50.788-3.925-5.957-7.186-16.542.9-20.676-.637.379,1.708-.38.388-.21,3.565-.461,6.372-5.833,2.112-7.8L17.285,3.509c-3.975-1.833-7.43,1.832-5.739,5.738Z" style="fill:#c0392b"/><path d="M304.882,146.353c64.011-10.975,137.525,27.686,143.806,96.827a2.981,2.981,0,0,0,5.141,1.832c9.936-10.644,12.363-25.7,13.571-31.008,3.941-17.312,16.275-10.7,19.017-4.432,9.909,25.738-9.925,50.088-17.924,73.444-39.233,99.734,81.1,139.3,110.177,35.246,1.675-4.8-6.2-7.566-8.333-3.034-6.544,13.91-16.081,32.132-34.524,28.148-12.39-2.676-17.855-15.306-14.287-26.807,8.681-24.021,36.452-33.7,48.286-56.033,34.5-63.88,25.027-145.235-51.573-170.013C504.375-39.5,328.694-12.337,334.024,113.7a14.414,14.414,0,0,1-8.01,12.522C317.473,130.205,296.515,145.369,304.882,146.353ZM495.018,91.071c73.01,13.726,91.524,74.035,77.9,110.937a1.121,1.121,0,0,1-2.188-.235c-1.7-19.038-6.67-76.638-76.4-108.585A1.121,1.121,0,0,1,495.018,91.071Z" style="fill:#c0392b"/><path d="M328.4,444.452c-1.3,3.21-.173,4.706,2.4,5.217,3.452.593,7.656-2.543,8.279-5.72C340.464,436.862,330.462,440.4,328.4,444.452Z" style="fill:#c0392b"/></svg>