<svg width="600" height="600" viewBox="0 0 600 600" fill="none" xmlns="http://www.w3.org/2000/svg">
<g clip-path="url(#clip0_760_1942)">
<path d="M240.617 485.23L240.148 484.149C201.948 487.877 157.778 502.049 142.137 540.549C160.567 537.53 177.782 530.784 196.022 526.888C216.772 522.031 229.13 501.589 240.616 485.23H240.617Z" fill="#D9D9D9"/>
<path d="M109.357 339.8C85.5728 354.8 59.2748 412.275 64.1028 437.8C64.1594 438.094 64.2924 438.367 64.4882 438.593C64.684 438.819 64.9358 438.99 65.2184 439.088C65.501 439.186 65.8043 439.208 66.0981 439.151C66.3918 439.095 66.6655 438.962 66.8918 438.767C99.6798 410.254 108.348 383.793 111.409 341.062C111.428 340.814 111.378 340.565 111.265 340.343C111.152 340.121 110.98 339.935 110.768 339.804C110.556 339.674 110.312 339.604 110.063 339.604C109.814 339.603 109.57 339.671 109.357 339.8Z" fill="#D9D9D9"/>
<path d="M71.5858 244.142C72.7172 246.062 74.329 247.653 76.2625 248.761C78.196 249.868 80.3846 250.453 82.6128 250.458C88.2598 250.844 90.3878 243.241 86.2018 241.226C76.9798 236.786 68.5178 238.926 71.5858 244.142Z" fill="#D9D9D9"/>
<path d="M529.231 240.181C528.414 240.69 527.774 241.44 527.398 242.327C527.023 243.213 526.93 244.195 527.133 245.136C527.336 246.077 527.825 246.933 528.532 247.587C529.239 248.24 530.131 248.659 531.086 248.787C538.04 249.662 548.337 243.662 545.897 239.6C543.96 236.379 534.392 237.021 529.231 240.184V240.181Z" fill="#D9D9D9"/>
<path fill-rule="evenodd" clip-rule="evenodd" d="M115.326 250.2C116.155 250.228 116.988 250.256 117.817 250.247C144.959 250.703 157.907 242.448 170.396 234.486C180.066 228.321 189.462 222.331 204.959 220.695C220.854 219.076 237.603 222.656 250.042 233.139C264.958 249.619 278.262 268.275 283.028 290.432C283.883 315.705 241.802 324.967 222.002 323.832C188.835 323.021 172.33 307.598 154.231 290.685C144.605 281.689 134.528 272.271 121.252 264.407C116.722 261.677 112.341 258.709 108.126 255.515C107.457 255.024 107.079 254.132 106.7 253.241C106.526 252.83 106.352 252.419 106.149 252.047C108.922 249.985 112.104 250.092 115.326 250.2ZM214.062 231.965C196.316 236.99 200.756 323.956 221.062 303.756C227.725 294.9 230.3 259.576 222.21 238.125C220.87 234.565 217.762 229.921 214.062 231.965Z" fill="#D9D9D9"/>
<path fill-rule="evenodd" clip-rule="evenodd" d="M357.72 242.379C368.739 226.181 385.033 221.031 403.474 220.37L403.473 220.366C422.803 220.378 433.772 227.268 445.176 234.432C459.406 243.371 474.312 252.735 506.982 249.695C508.871 249.42 511.789 249.688 512.496 251.61C512.411 252.558 512.051 253.46 511.46 254.206C510.869 254.952 510.074 255.51 509.171 255.81C491.31 264.864 475.048 276.777 461.03 291.077C444.175 308.508 427.195 319.889 402.768 322.97C382.459 327.369 329.602 317.047 332.768 289.72C336.702 271.739 346.231 256.431 357.72 242.379ZM394.302 303.577C406.607 318.465 415.488 294.197 415.382 273.315C415.285 259 412.687 230.328 401.383 231.958C388.218 233.856 386.503 274.048 388.589 287.411C389.486 293.155 390.602 298.852 394.302 303.577Z" fill="#D9D9D9"/>
<path fill-rule="evenodd" clip-rule="evenodd" d="M2.5 602V1.5H601.5V602H2.5ZM465.174 4.3999C465.394 4.39981 465.607 4.47603 465.778 4.61558C465.948 4.75514 466.065 4.9494 466.108 5.16529C466.151 5.38119 466.118 5.60537 466.014 5.79966C465.911 5.99395 465.743 6.14635 465.54 6.2309C384.546 41.2529 373.912 123.85 372.876 148.567C372.86 148.949 372.935 149.329 373.094 149.676C373.254 150.023 373.494 150.327 373.794 150.563C374.095 150.799 374.447 150.96 374.822 151.033C375.197 151.106 375.584 151.089 375.951 150.983C446.307 128.362 499.428 68.2369 541.193 9.6469C543.716 5.9629 546.71 4.2869 551.115 4.4409L591.19 3.8559C591.411 3.8517 591.628 3.91235 591.814 4.03034C592.001 4.14832 592.149 4.31846 592.239 4.51967C592.33 4.72088 592.36 4.94431 592.325 5.16228C592.29 5.38025 592.192 5.58317 592.043 5.7459C584.719 10.7325 576.876 15.5472 568.846 20.4764L568.845 20.4774C526.933 46.206 479.94 75.0536 475.163 147.736C474.557 154.504 475.108 161.326 476.792 167.909C477.392 170.217 478.192 171.502 480.834 170.266C524.507 151.766 561.875 117.556 585.388 76.2259C586.766 73.4472 588.875 71.0964 591.488 69.4259C591.933 69.1702 592.438 69.0364 592.951 69.038C593.464 69.0396 593.968 69.1765 594.411 69.4349C594.855 69.6933 595.222 70.0641 595.477 70.5098C595.731 70.9556 595.864 71.4606 595.861 71.9739C595.853 77.6579 595.461 89.1149 595.261 94.6739C595.226 95.668 594.976 96.6427 594.529 97.5314C594.082 98.4201 593.449 99.2017 592.672 99.8229C591.726 100.579 590.775 101.338 589.82 102.099C571.992 116.32 552.927 131.527 543.316 152.497C537.54 165.214 533.761 178.491 530.516 191.98C529.382 196.694 529.734 197.331 534.516 197.006C535.401 196.915 536.271 196.827 537.128 196.74C560.358 194.375 573.526 193.035 592.164 178.918C592.436 178.708 592.761 178.579 593.103 178.545C593.445 178.511 593.789 178.573 594.097 178.725C594.405 178.878 594.665 179.113 594.845 179.405C595.026 179.697 595.121 180.034 595.12 180.378C595.008 196.083 594.582 256.762 594.45 289.912C594.43 291.871 593.789 294.977 592.543 295.528C590.014 296.646 588.422 293.882 587.422 291.943C579.691 276.951 567.704 267.416 562.352 263.677C562.009 263.44 561.618 263.282 561.206 263.214C560.795 263.146 560.374 263.171 559.973 263.285C559.572 263.4 559.202 263.603 558.889 263.878C558.575 264.153 558.327 264.494 558.162 264.877C533.955 326.286 560.72 373.489 591.506 412.064C593.762 414.919 595.01 418.44 595.058 422.078C595.258 437.621 596.294 540.54 596.022 563.644C596.018 563.995 595.904 564.336 595.697 564.62C595.49 564.903 595.199 565.115 594.865 565.225C594.532 565.335 594.172 565.338 593.837 565.234C593.502 565.13 593.207 564.924 592.995 564.644C589.061 559.513 584.765 552.867 584.374 548.454C584.513 468.976 555.855 379.178 480.86 350.571C479.908 350.214 478.895 350.049 477.879 350.085C476.863 350.121 475.864 350.358 474.94 350.781C474.016 351.205 473.185 351.807 472.494 352.553C471.804 353.299 471.268 354.174 470.917 355.128C414.584 509.164 512.073 540.096 556.658 554.243L556.659 554.243C559.987 555.299 563.019 556.261 565.671 557.174C552.424 498.774 521.909 447.313 490.871 396.881C490.848 396.61 490.808 396.308 490.768 395.997C490.63 394.944 490.479 393.794 490.925 393.437C491.456 393.128 492.056 392.958 492.671 392.943C493.285 392.928 493.893 393.067 494.439 393.349C496.567 394.888 498.435 396.758 499.972 398.888C505.727 407.453 511.377 416.088 517.028 424.723L517.029 424.725L517.033 424.731L517.047 424.752L517.05 424.757C518.902 427.588 520.755 430.419 522.611 433.247C555.157 482.147 571.375 538.897 586.861 594.962C586.909 595.141 586.909 595.329 586.862 595.508C586.814 595.687 586.721 595.85 586.59 595.982C586.46 596.114 586.298 596.209 586.119 596.258C585.94 596.307 585.752 596.308 585.573 596.262C576.461 593.941 570.515 588.095 563.532 581.229C554.698 572.543 544.204 562.225 523.544 555.348C515.994 552.835 508.271 550.831 500.548 548.827L500.543 548.826L500.538 548.824L500.532 548.823L500.527 548.821L500.521 548.82L500.516 548.818L500.511 548.817L500.505 548.815L500.5 548.814L500.494 548.812L500.489 548.811L500.484 548.809C497.364 548 494.245 547.191 491.138 546.348C489.038 545.779 485.038 545.131 488.711 551.824C497.296 567.465 517.502 589.378 522.131 594.311C523.574 596.573 514.398 593.611 514.405 593.017C475.905 559.574 446.993 518.967 419.872 476.217C419.699 475.945 419.453 475.727 419.163 475.587C418.873 475.447 418.549 475.392 418.229 475.426C417.909 475.46 417.604 475.584 417.35 475.782C417.096 475.98 416.903 476.246 416.792 476.548C398.176 526.627 408.975 570.995 419.646 594.309C419.724 594.482 419.757 594.672 419.742 594.862C419.726 595.051 419.663 595.234 419.557 595.392C419.452 595.55 419.308 595.678 419.139 595.766C418.97 595.853 418.782 595.896 418.592 595.89L403.044 595.473L403.007 595.475C401.032 595.58 400.081 595.63 399.575 595.181C399.106 594.764 399.018 593.917 398.85 592.284C398.831 592.105 398.812 591.916 398.791 591.718C394.266 531.233 347.391 484.167 319.899 470.958C313.264 466.469 313.771 476.923 314.089 480.928C316.938 523.128 327.944 558.379 352.638 592.202C352.893 592.553 353.047 592.967 353.082 593.4C353.116 593.832 353.03 594.266 352.834 594.653C352.637 595.039 352.337 595.364 351.967 595.591C351.597 595.818 351.172 595.938 350.738 595.938H289.039C288.653 595.939 288.275 595.837 287.943 595.641C287.61 595.446 287.337 595.165 287.151 594.827C286.965 594.489 286.874 594.108 286.886 593.723C286.899 593.338 287.015 592.963 287.222 592.638C287.222 592.638 311.136 556.67 291.04 512.345C267.859 519.07 255.502 536.259 242.291 554.635C232.607 568.103 222.466 582.209 207.268 593.3C203.516 596.119 195.712 595.895 189.66 595.721L189.091 595.705C188.937 595.701 188.784 595.696 188.632 595.692C188.311 595.684 187.996 595.676 187.689 595.669C187.568 595.666 187.45 595.626 187.353 595.553C187.256 595.48 187.184 595.379 187.148 595.263C187.112 595.148 187.112 595.023 187.15 594.908C187.188 594.793 187.261 594.692 187.359 594.621C189.899 592.768 192.506 590.997 195.103 589.234C206.421 581.547 217.532 574 221.947 560.44C222.447 558.853 221.738 558.079 219.847 558.246C217.279 558.378 214.701 558.504 212.114 558.632C168.862 560.758 123.304 562.998 87.4718 590.336C83.2425 593.463 78.1007 595.109 72.8418 595.02L12.7078 595.741C11.9399 595.75 11.1812 595.573 10.496 595.227C9.8108 594.88 9.21925 594.373 8.7715 593.75C8.32376 593.126 8.03302 592.403 7.92392 591.643C7.81483 590.883 7.89059 590.107 8.14479 589.383C24.7788 541.989 70.8628 497.425 112.194 469.24C112.374 469.124 112.59 469.076 112.802 469.107C113.015 469.138 113.208 469.245 113.348 469.408C113.487 469.571 113.563 469.779 113.561 469.993C113.558 470.208 113.479 470.414 113.336 470.574C104.278 480.531 94.4725 489.769 84.6604 499.013L84.6597 499.014L84.6587 499.015C72.2695 510.688 59.869 522.37 48.9468 535.526C27.7998 561 20.5178 575.771 18.3118 581.126C18.2103 581.361 18.1754 581.62 18.2108 581.874C18.2462 582.128 18.3506 582.367 18.5127 582.565C18.6748 582.764 18.8882 582.914 19.1298 583C19.3714 583.086 19.6319 583.103 19.8828 583.051C50.4378 574.203 146.453 543.52 140.725 446.905C140.714 446.723 140.704 446.55 140.695 446.385C140.595 444.641 140.545 443.78 140.105 443.466C139.675 443.159 138.871 443.375 137.28 443.804C136.951 443.893 136.588 443.991 136.189 444.095C62.1838 462.751 25.4618 516.231 10.0723 538.644L10.0716 538.645L10.0703 538.647C7.30886 542.668 5.23442 545.689 3.75479 547.329C3.75048 545.397 3.69527 543.686 3.64496 542.127C3.39212 534.291 3.26305 530.29 10.3408 521.377C30.7988 498.294 37.8648 471.139 36.5228 440.586C36.4608 437.216 35.6228 436.677 32.5338 438.064C29.7976 439.191 27.307 440.839 25.2008 442.918C18.2108 450.562 11.8168 457.848 5.19079 465.818C5.08592 465.942 4.94561 466.031 4.78875 466.072C4.63189 466.114 4.46602 466.107 4.31348 466.051C4.16095 465.996 4.02907 465.895 3.93561 465.762C3.84216 465.629 3.79162 465.471 3.79079 465.309C3.79079 461.087 3.79523 456.924 3.79963 452.805C3.8123 440.922 3.82459 429.402 3.72879 417.882C3.59787 414.766 4.61002 411.71 6.57479 409.289C36.4348 370.615 44.3638 319.204 38.1418 271.676C25.3608 281.684 15.2928 293.143 6.02879 305.476C5.90109 305.647 5.72303 305.773 5.51966 305.838C5.31628 305.902 5.09784 305.901 4.89505 305.835C4.69227 305.769 4.51535 305.641 4.3892 305.469C4.26305 305.296 4.19401 305.089 4.19179 304.876L4.69179 157.67C4.69223 157.406 4.78704 157.151 4.95908 156.951C5.13112 156.751 5.36904 156.619 5.62983 156.579C5.89062 156.54 6.15707 156.594 6.381 156.734C6.60493 156.873 6.77157 157.088 6.85079 157.34C25.6898 179.169 43.7428 193.44 70.9898 199.281C71.6326 199.414 72.2979 199.395 72.9316 199.223C73.5654 199.052 74.1499 198.733 74.6377 198.294C75.1256 197.855 75.5031 197.307 75.7398 196.694C75.9764 196.082 76.0655 195.422 75.9998 194.769C74.9318 184.611 67.2508 157 27.3738 86.6599C17.8198 69.8079 3.35579 35.1109 6.40779 8.3099C6.44325 7.98356 6.5742 7.67494 6.78425 7.42269C6.9943 7.17044 7.27411 6.98578 7.58863 6.89182C7.90316 6.79787 8.23841 6.79881 8.5524 6.89453C8.86639 6.99024 9.14516 7.17647 9.35379 7.4299C24.0998 25.5999 83.5488 96.8759 120.093 122.1C120.256 122.228 120.371 122.407 120.42 122.609C120.468 122.811 120.446 123.023 120.359 123.211C120.271 123.399 120.122 123.551 119.936 123.643C119.75 123.736 119.539 123.762 119.336 123.719C73.5858 102.59 35.7064 55.4141 22.7207 39.2412C21.9761 38.3139 21.3134 37.4886 20.7358 36.7759C20.5578 36.5421 20.3064 36.375 20.0219 36.3014C19.7375 36.2279 19.4365 36.2522 19.1676 36.3704C18.8986 36.4886 18.6772 36.6939 18.539 36.9532C18.4008 37.2125 18.3539 37.5107 18.4058 37.7999C19.9618 47.2869 25.7738 70.2299 47.3718 102.3C69.9898 135.889 109.781 153.117 149.592 147.734C155.965 147 156.049 146.919 153.118 141.034C139.923 114.539 122.686 91.1159 100.318 71.5729C98.763 70.2148 97.1951 68.8671 95.6266 67.5188C89.9132 62.6078 84.1906 57.6889 79.0578 52.2289C76.2246 49.0929 73.3 45.8973 70.3349 42.6577L70.3341 42.6568C59.8974 31.2536 48.9606 19.3039 39.7528 7.4779C39.6543 7.34902 39.5952 7.19444 39.5824 7.03274C39.5697 6.87105 39.604 6.70912 39.6811 6.56642C39.7582 6.42372 39.8749 6.30633 40.0171 6.22836C40.1593 6.15039 40.321 6.11516 40.4828 6.1269C43.8158 6.3389 50.8918 7.2929 54.4828 11.5269C74.8398 37.8839 119.059 80.4639 166.876 76.7319C173.247 76.2319 174.389 74.4319 173.73 68.2059C171.1 43.3381 152.397 19.8627 146.127 11.9925C144.953 10.5183 144.215 9.59161 144.1 9.3059C143.91 8.79524 143.926 8.23053 144.146 7.73202C144.366 7.23351 144.772 6.84058 145.278 6.6369C149.178 5.0189 155.178 6.8789 157.209 10.5939C177.161 47.1139 220.78 78.8939 247.268 90.3509C264.187 96.9936 282.032 100.036 299.839 103.073C300.746 103.227 301.652 103.382 302.559 103.537C308.751 104.596 309.519 103.397 306.988 97.7149C296.391 74.6006 281.447 54.2031 266.501 33.8022C259.905 24.7991 253.308 15.7952 247.085 6.5569C246.991 6.41553 246.95 6.24543 246.969 6.07673C246.988 5.90803 247.067 5.75161 247.19 5.63519C247.314 5.51876 247.475 5.44984 247.644 5.44064C247.814 5.43144 247.981 5.48254 248.117 5.5849C250.726 7.58709 253.936 10.5494 257.787 14.1038C275.701 30.6362 307.493 59.9771 357.286 65.0849C358.306 65.1839 359.336 65.0467 360.295 64.684C361.254 64.3213 362.117 63.7429 362.817 62.9934C363.516 62.2438 364.034 61.3434 364.33 60.3617C364.626 59.3799 364.693 58.3433 364.524 57.3319C362.349 43.8859 354.424 17.7599 325.524 5.9319C324.492 5.5089 325.238 3.8099 326.353 3.8179C343.455 3.9459 424.8 4.5069 465.174 4.3999ZM50.251 166.073C36.038 142.908 14.582 106.082 5.328 81.9319C5.26103 81.7788 5.1434 81.6533 4.99487 81.5767C4.84634 81.5 4.67596 81.4768 4.51234 81.5109C4.34872 81.5451 4.20183 81.6345 4.09633 81.7641C3.99084 81.8938 3.93317 82.0558 3.933 82.2229C4.06318 84.6018 3.985 87.0322 3.90658 89.4698C3.75369 94.2224 3.59993 99.002 4.988 103.479C20.508 138.653 39.114 158.945 48.377 167.596C48.5922 167.797 48.8728 167.913 49.1669 167.923C49.4609 167.933 49.7487 167.836 49.9771 167.65C50.2054 167.465 50.3589 167.203 50.4093 166.913C50.4596 166.623 50.4034 166.325 50.251 166.073ZM94.964 9.5351C94.806 9.30211 94.7182 9.02869 94.7109 8.74729C94.7037 8.46588 94.7774 8.18832 94.9232 7.94753C95.069 7.70675 95.2809 7.51286 95.5336 7.38888C95.7863 7.2649 96.0693 7.21604 96.349 7.2481C100.326 7.7141 107.097 9.12609 110.049 13.3881C117.236 23.5358 125.802 32.6323 135.5 40.4151C157.494 58.1701 156.412 66.2981 145.047 58.7471C126.189 44.6001 108.377 29.1001 94.964 9.5351ZM198.082 7.48306C198.079 7.71247 198.135 7.9388 198.243 8.14096C216.267 41.124 240.938 65.924 274.959 80.698C275.089 80.7503 275.233 80.7557 275.366 80.713C275.5 80.6704 275.614 80.5825 275.689 80.4645C275.765 80.3466 275.796 80.206 275.779 80.0671C275.762 79.9282 275.696 79.7997 275.594 79.704C270.802 75.558 260.234 67.042 254.934 62.804C243.72 54.0513 233.641 43.9357 224.928 32.691C221.477 28.1317 218.268 23.3912 215.058 18.6498C212.992 15.5978 210.925 12.5455 208.794 9.54096C206.534 5.84096 203.212 5.95996 199.375 6.14096C199.146 6.15202 198.923 6.22091 198.728 6.34121C198.533 6.46151 198.371 6.62931 198.258 6.82897C198.145 7.02864 198.084 7.25366 198.082 7.48306ZM327.957 41.19C307.278 35.435 293.711 21.629 281.069 4.73896C280.979 4.6173 280.924 4.47316 280.911 4.32244C280.898 4.17173 280.927 4.0203 280.994 3.88488C281.062 3.74946 281.165 3.63531 281.294 3.55503C281.422 3.47475 281.57 3.43147 281.721 3.42996C282.498 3.41953 283.245 3.37967 283.965 3.34127C287.179 3.16985 289.853 3.02718 292.207 5.65696C301.734 17.351 312.251 27.966 324.857 36.387C326.076 37.2 330.334 40.832 327.957 41.19ZM415.357 100.812C444 61.6191 482.6 31.8001 521.8 3.8661C520.21 3.90881 518.658 3.86253 517.141 3.81727C512.514 3.67924 508.209 3.55081 504.115 5.9871C499.478 8.87283 495.063 12.1001 490.906 15.6421C416.696 82.2471 398.825 111.173 395.006 118.725C394.828 119.071 394.765 119.465 394.826 119.849C394.888 120.234 395.07 120.588 395.348 120.862C395.625 121.135 395.982 121.312 396.367 121.368C396.752 121.424 397.145 121.355 397.489 121.172C403.417 115.744 408.551 109.322 413.596 103.011L413.605 103L413.619 102.983C414.199 102.258 414.778 101.533 415.357 100.812ZM592.557 21.4569C592.776 21.3214 593.025 21.2417 593.282 21.225C593.54 21.2083 593.797 21.2549 594.032 21.3609C594.267 21.4668 594.472 21.6289 594.629 21.8327C594.787 22.0365 594.892 22.2759 594.935 22.5299C595.819 27.4869 593.929 31.5759 588.921 34.8639C550.06 59.6519 524.871 99.3889 502.709 138.676C501.991 139.337 500.218 139.961 499.791 139.592C499.001 138.656 498.496 137.513 498.336 136.299C498.236 135.876 498.484 135.355 498.72 134.859L498.721 134.858L498.726 134.847C498.765 134.766 498.803 134.686 498.839 134.607C498.865 134.55 498.89 134.494 498.913 134.439C518.445 88.4509 549.956 48.4159 592.557 21.4569ZM594.279 125.042C593.988 125.063 593.707 125.16 593.465 125.324C572.456 139.912 550.884 162.532 543.196 181.097C543.119 181.289 543.112 181.502 543.176 181.699C543.24 181.896 543.371 182.065 543.547 182.175C543.722 182.285 543.931 182.329 544.136 182.301C544.341 182.273 544.53 182.173 544.669 182.02C553.008 172.745 576.654 146.959 591.184 136.278C595.03 133.5 596.419 130.494 596.065 126.578C596.042 126.287 595.944 126.006 595.779 125.765C595.614 125.524 595.389 125.33 595.126 125.203C594.863 125.076 594.571 125.021 594.279 125.042ZM568.33 297.2C574.013 314.094 581.53 330.274 591.904 344.879C596.119 350.813 596.538 358.8 596.423 362.959C596.418 363.17 596.347 363.375 596.219 363.544C596.092 363.713 595.916 363.838 595.714 363.903C595.513 363.967 595.296 363.966 595.095 363.902C594.893 363.837 594.717 363.711 594.59 363.542C579.849 343.78 566.39 323.084 567.083 297.381L568.33 297.2ZM473.477 595.007C473.453 594.849 473.382 594.701 473.275 594.583C442.87 566.814 428.566 523.179 423.915 506.151C423.871 505.992 423.769 505.854 423.629 505.766C423.489 505.677 423.321 505.644 423.158 505.673C422.995 505.701 422.849 505.789 422.747 505.92C422.646 506.05 422.596 506.214 422.609 506.379C422.676 540.063 439.159 565.112 458.776 591.079C461.888 595.159 469.231 595.845 472.641 595.936C472.801 595.943 472.959 595.903 473.096 595.82C473.232 595.737 473.342 595.616 473.409 595.471C473.477 595.326 473.501 595.165 473.477 595.007ZM329.523 490.926C351.953 510.607 374.232 560.231 383.315 594.907C383.362 595.088 383.366 595.278 383.326 595.461C383.285 595.644 383.202 595.815 383.083 595.959C382.963 596.104 382.811 596.218 382.639 596.292C382.467 596.366 382.28 596.398 382.093 596.386C379.671 596.221 375.293 595.456 374.529 592.108C370.087 576.225 358.095 552.914 346.719 530.802C339.459 516.689 332.45 503.065 327.815 492.171C327.719 491.945 327.702 491.694 327.768 491.458C327.833 491.222 327.976 491.015 328.174 490.87C328.372 490.726 328.613 490.653 328.858 490.663C329.103 490.673 329.337 490.766 329.523 490.926ZM122.834 596.55C122.936 596.631 123.061 596.677 123.191 596.679L123.686 596.689C129.828 596.808 136.143 596.932 141.818 594.397C147.427 591.792 153.072 589.244 158.72 586.694C170.376 581.431 182.041 576.164 193.41 570.397C193.636 570.182 193.794 569.906 193.865 569.603C193.937 569.3 193.919 568.982 193.814 568.689C193.709 568.396 193.521 568.14 193.273 567.951C193.024 567.763 192.727 567.651 192.416 567.628C188.004 568.489 183.698 569.874 179.394 571.259L179.391 571.26C176.618 572.152 173.845 573.044 171.044 573.796C154.078 578.805 138.518 586.956 122.918 595.572C122.804 595.635 122.714 595.733 122.662 595.852C122.61 595.971 122.598 596.104 122.629 596.23C122.661 596.357 122.733 596.469 122.834 596.55ZM5.10881 498.722C5.09787 497.626 5.05405 496.542 5.01074 495.471C4.83231 491.058 4.66257 486.86 6.83681 482.933C9.00013 479.764 11.2738 476.67 13.5474 473.576C16.3364 469.781 19.1254 465.986 21.7108 462.052C24.6108 457.645 29.1018 456.967 27.2658 462.032C24.1285 470.692 19.1348 478.496 14.0792 486.397C11.4289 490.538 8.76158 494.707 6.33581 499.039C6.26579 499.166 6.15537 499.267 6.022 499.324C5.88862 499.382 5.73987 499.393 5.59922 499.357C5.45856 499.321 5.33401 499.238 5.24521 499.123C5.15642 499.008 5.10842 498.867 5.10881 498.722ZM6.38512 351.014C4.44712 355.358 4.55012 360.078 4.90812 364.928C4.91672 365.084 4.974 365.234 5.07194 365.357C5.16989 365.479 5.30361 365.568 5.45442 365.61C5.60523 365.653 5.76559 365.647 5.91309 365.594C6.0606 365.541 6.18787 365.444 6.27712 365.315C19.3411 346.776 31.2481 312.531 28.7771 300.976C28.7464 300.845 28.6749 300.728 28.5729 300.641C28.4709 300.554 28.3439 300.501 28.2101 300.491C28.0763 300.481 27.9429 300.514 27.829 300.585C27.7152 300.656 27.627 300.761 27.5771 300.886C25.4612 306.078 23.5692 311.274 21.6887 316.439C17.3791 328.274 13.13 339.944 6.38512 351.014Z" fill="#D9D9D9"/>
</g>
<defs>
<clipPath id="clip0_760_1942">
<rect width="600" height="600" fill="white"/>
</clipPath>
</defs>
</svg>
