<?xml version="1.0"?><svg fill="#c0392b" data-name="1" id="_1" viewBox="0 0 600 600" xmlns="http://www.w3.org/2000/svg"><title/><path d="M530.323,381.112c-36.39-6.967-13.381-27.678-27.829-47.314a90.649,90.649,0,0,0-26.044-24.292,46.043,46.043,0,0,0-51.927,3.271c-73.532,57.016-118.324,76.337-137.47,82.662A25.151,25.151,0,0,1,266.4,393.2a189.622,189.622,0,0,1-39.966-32.032,3.672,3.672,0,0,1,4.027-5.941c10.134,4.082,24.254,9.473,38.323,13.874a17.129,17.129,0,0,0,10.985-.292c92.652-33.82,162.492-108.4,162.492-108.4,2.086-2.711,1.314-6.416-2.105-6.289a49.241,49.241,0,0,0-11.568,2.249,7.885,7.885,0,0,1-9.73-9.978C451.4,146.212,396.394,71.527,373.347,49.78a29.3,29.3,0,0,1-7.909-12.9,107.477,107.477,0,0,0-10.676-24.157,18.1,18.1,0,0,0-21-7.995C311.639,11.749,264.246,25.45,228.1,26.592c-24.4.77-42.664,95.635-94.478,179.794-6.844,11.116-7,24.029-4.458,36.953,2.929,14.914,17.067,41.741,23.2,52.913a7.35,7.35,0,0,1-2.309,9.636c-5.772,3.876-12.238,4.764-19.205,5.431-8.456.809-12.629,9.632-9.352,17.469,0,0,42.615,69.2,143.062,124.608a42.751,42.751,0,0,0,30.951,4.106c52.81-13.135,91.119-29.857,112.354-40.507a4.133,4.133,0,0,1,4.746,6.644c-16.72,16.556-50,42.361-110.232,64.983a52.437,52.437,0,0,1-41.343-1.951c-30.315-14.73-89.719-52.4-164.428-143.9a26,26,0,0,0-29.351-7.892c-15.739,5.974-38.282,18.462-29.987,35.639C95.111,490.32,212.32,566.71,253.324,590.679a39.749,39.749,0,0,0,30.64,4.007c50.134-13.832,204.56-64.369,276.99-178.2C577.63,390.276,530.323,381.112,530.323,381.112ZM168.412,232.472c-2.918-46.021,52.449-126.254,70.8-151.478a8.238,8.238,0,0,1,12.623-.837c21.319,22.366,85.318,93.729,85.318,144.415,0,49.011-50.375,85.782-69.931,98.21a15.513,15.513,0,0,1-15.509.664C230.1,312.156,171.262,277.416,168.412,232.472Z" style="fill:#c0392b"/></svg>