<?xml version="1.0" ?><svg fill="#c0392b" data-name="Layer 4" id="Layer_4" viewBox="0 0 600 600" xmlns="http://www.w3.org/2000/svg"><title/><path d="M65.488,436.957c23.845-6.812,37.447-25.994,37.481-32.711.294-58.548,30.749-112.031,127.266-92.3,7.708,1.576,34.762-3.422,44.2-54.747a2.35,2.35,0,0,1,4.435-.6c5.362,11.155,13.039,36.258-10.783,65.3-2.473,3.016-2.282,6.03.208,9.19,80.52,102.171,15.985,123.548,18.365,248.985.093,4.881,4.272,5.8,8.345,5.652,80.567,1.351,161.153-1.418,241.742.859,10.437.308,20.906-.489,31.652-.784,3.574,0,7.439-.062,11.3.014,5.763.113,11.675-3.963,11.113-10.847C562,222.356,303.379,135.119,241.51,114.63a10.819,10.819,0,0,1-7.319-11c1.236-18.933-.315-65.885-42.279-88.371-6.61-3.542-11.458-2.476-12.486,5.989-3.243,26.709-6.73,62.828-12.774,81.378a7.758,7.758,0,0,1-5.67,5.135c-9.805,2.247-34.73,9.741-45.963,29.584-11.958,21.125-20.743,43.708-31.535,65.35-16.964,36.559-34.907,72.785-54.472,108-10.681,17.076-23.99,35.034-23.991,55.341C5.02,398.8,47,442.237,65.488,436.957ZM180.725,99.843c5.234-21.646,7.447-46.087,6.917-56.044a2.156,2.156,0,0,1,3.626-1.683c10,9.371,13.987,25.89,15.644,37.322a57.01,57.01,0,0,1-2.859,22.076c-2.126,6.571-5.291,8.348-12.2,7.564C185.312,108.518,178.983,107.047,180.725,99.843ZM131.5,208.9c3.1-15.683,9.5-26.281,19.293-36.728,11.766-13.094,32.531,2.332,12.1,31.615-3.9,5.585-15.8,13.994-22.632,15.178C132.958,218.87,130.253,215.226,131.5,208.9ZM34.586,354.7a6.725,6.725,0,0,1,9.614-3.619c3.939,2.192,8.455,5.317,9.439,8.53,3.4,11.1,1.476,34.524-15.021,26.8C33.052,383.665,30.305,367.108,34.586,354.7Z" style="fill:#c0392b"/><path d="M592.228,244.56c-6.511,2.14-21.423,5.759-34.171-1.859-10.017-5.987-10.048-14.535-12.163-22.945-5.987-22.206-22.49-42.07-42.139-55.074a3.642,3.642,0,0,1,1.09-6.582c11.687-2.981,30.72-11.068,34.489-32.427a1.913,1.913,0,0,0-2.687-2.077c-11.969,5.607-52.6,19.855-84.546-20.539C438.519,85.881,421.041,86.2,408.183,85.8a3.647,3.647,0,0,1-1.531-6.893c10.369-5.513,13.115-15.278,14.132-20.383a2.443,2.443,0,0,0-3.451-2.678C404.847,61.8,354.258,85.725,314.858,65.86,293.313,55,268.092,61.337,255.106,74.7c-7.132,7.341-1.939,22.7,7.713,26.1,56.79,20.028,220.8,80.442,301.425,279.991.892,2.206,5.181,1.988,4.7-.341-10.261-49.358,14.615-73.954,1.517-107.409a3.674,3.674,0,0,1,2.871-4.977c14.3-2.276,19.7-14.521,21.565-20.94A2.1,2.1,0,0,0,592.228,244.56Z" style="fill:#c0392b"/><path d="M29.972,160.526c14.8,7.784,46.74,3.731,55.6-16.307C93.537,126.21,111.924,99,145.178,96.189c4.356-.368,7.673-4.153,8.811-8.374a107.314,107.314,0,0,0,3.6-25.973,28.713,28.713,0,0,0-16.506-26.514c-18.016-8.356-45.228-4.646-57.841,22.119-9.255,19.639-6.8,42.338-15.627,60.391-7.134,14.589-34.6,35.393-48.139,1.524a2.154,2.154,0,0,0-4.039.073C11.255,131.235,14.664,152.474,29.972,160.526Z" style="fill:#c0392b"/><path d="M251.135,586.65a7.74,7.74,0,0,0,7.815-7.081c2.339-38.3,13.07-43.5,16.647-89.774a3.862,3.862,0,0,0-6.88-2.8c-28.084,36.18-75.637,59.831-83.575,89.3a8.261,8.261,0,0,0,8.014,10.352Z" style="fill:#c0392b"/></svg>