<?xml version="1.0" ?><svg fill="#c0392b" data-name="Layer 4" id="Layer_4" viewBox="0 0 600 600" xmlns="http://www.w3.org/2000/svg"><title/><path d="M347.557,300.828c20.643,4.078,40.372,11.592,62.274,5.661,43.2-11.7,63.11-41.6,77.211-60.837a5.8,5.8,0,0,0-.577-7.54L364.734,116.383a5.388,5.388,0,0,0-7.578-.043c-14.674,14.343-60.47,53.009-64,90.239-2.357,24.84,22.031,62.984-2.736,82.92-31.706,25.521-58.064-16.006-101.085,3.743-18.972,8.709-42.675,33.833-60.382,51.09-4.893,4.769-7.955,13.26-1.715,17.8Q185.275,420.162,243.309,478.2c3.525,3.52,6.849,3.528,10.377,0,11.551-11.534,44.012-40.949,59.222-73.593,11.642-24.984-4.268-57.608-5.141-67.695C306.7,310.451,321.882,298.47,347.557,300.828Zm-14.792-29.041c36.98-34.518,104.3,3.863,63.571-66.552a6.8,6.8,0,0,1,8.248-9.8c8.13,3.107,19.05,10.363,31.542,26.611,36.888,47.979-28.41,78.069-68.376,64.1a102.915,102.915,0,0,0-31.51-5.468A5.161,5.161,0,0,1,332.765,271.787Zm-91.336,48.859c-34.111,15.548-46.2,37-30.934,68.043,3.088,6.281,13.335,24.59,6.4,29.946-2.431,1.656-5.217.006-7.041-1.663-17.945-16.427-53.32-44.181-47.277-67.885,7.842-30.76,39.662-37.743,69.61-39.76C244,309.047,253.711,315.048,241.429,320.646Z" style="fill:#c0392b"/><path d="M59.427,303.085c2.5,2.588,2.957,2.707,6.035.634,15.318-10.316,25.847-19.25,24.89-38.614-1.826-36.912,9.792-45.16,12.307,2.232a1.85,1.85,0,0,0,3.055,1.308l7.555-6.548a14.117,14.117,0,0,0,4.848-11.2c-3.688-98.913,42-172.175,122.671-174.073l-5.974,20.111a2.743,2.743,0,0,0,3.481,3.387A650.9,650.9,0,0,1,341.143,75.856a2.992,2.992,0,0,0,1.917-4.808c-27.971-35.476-66.588-59.923-77.624-66.5A2.741,2.741,0,0,0,261.4,6.14l-6,20.652C120.233,24.794,5.664,177.115,59.427,303.085Z" style="fill:#c0392b"/><path d="M389.726,76.124c-5.272-5.309-14.854,6.309-15.174,11.47-1.791,15.564,11.98,25.123,21.642,35,22.407,20.871,43.185,43.385,65.346,64.517q16.74,16.87,33.174,34.045c5.093,5.339,11.425,7.14,17.087,7.642,5.562.163,5.563.164,8.624-2.878,4.855-4.194,8.832-9.442,3.775-15.207C479,166.246,434.012,121.506,389.726,76.124Z" style="fill:#c0392b"/><path d="M170.271,431.886c-17.74-17.629-35.836-34.925-52.825-53.29-9.084-9.376-26.084-14.349-34.1-1.172-2.182,3.268-2,5.212.895,8.048,44.886,43.717,88.979,88.241,132.931,132.895,4.112,4.157,8.338,3.6,12.911.016,11.8-9.249,4.768-21.322.857-25.889C211.9,471.157,189.7,452.842,170.271,431.886Z" style="fill:#c0392b"/><path d="M540.573,296.915c-2.5-2.588-2.957-2.707-6.035-.634-15.318,10.316-25.847,19.25-24.89,38.614,1.826,36.912-9.792,45.16-12.307-2.232a1.85,1.85,0,0,0-3.055-1.308l-7.555,6.548a14.117,14.117,0,0,0-4.848,11.2c3.688,98.913-42,172.175-122.671,174.073l5.974-20.111a2.743,2.743,0,0,0-3.481-3.387,650.9,650.9,0,0,1-102.848,24.463,2.992,2.992,0,0,0-1.917,4.808c27.971,35.476,66.588,59.923,77.624,66.5a2.741,2.741,0,0,0,4.037-1.6l6-20.652C479.767,575.206,594.336,422.885,540.573,296.915Z" style="fill:#c0392b"/></svg>