<?xml version="1.0" ?><svg fill="#c0392b" data-name="Layer 4" id="Layer_4" viewBox="0 0 600 600" xmlns="http://www.w3.org/2000/svg"><title/><path d="M157.279,296.793a306.752,306.752,0,0,1,38.6-10.663,6.21,6.21,0,0,0,4.88-7.042c-20.87-134.363-16.737-154.149-15.24-231.37.363-18.69-30.378-26.307-45.38,20.748A149.463,149.463,0,0,0,134.3,99.037c-6.468,64.5,3.744,130.223,14.806,192.985A6.207,6.207,0,0,0,157.279,296.793Z" style="fill:#c0392b"/><path d="M226.861,280.505c15.531-1.536,29.8-2.306,42.036-1.832a6.21,6.21,0,0,0,6.473-6.247c-.594-74.695-.666-152.9,20.186-224.4,3.624-12.426,13.388-30.531,2.4-37.364-20.886-12.983-47.4,20.172-57.116,41.168s-14.2,44-17.713,66.861C218.538,134.931,207.034,283.725,226.861,280.505Z" style="fill:#c0392b"/><path d="M409.547,361.163c.334,9.167,11.966,1.034,10.156-4.712C418.291,349.414,410,356.667,409.547,361.163Z" style="fill:#c0392b"/><path d="M546.265,320.567c-22.048-13.093-77.532,5.67-93.3,25.892-54.786,70.27-61.672,60.268-98.366,107.617-8.385,10.82-12.792,24.481-17.4,37.371-13.381,37.442-53.043,55.129-92.938,57.518-12.092.724-94.389,2.832-74.577-71.808,2.793-10.523,52.628-131.7,113.337-79.981,16.888,14.386,16.928,41.055,12.517,57.769-3.216,12.186-8.706,25.7-20.117,31.05s-40.35,12.456-43.689-3.128c-5.629-26.27,17.035-23.3,22.157-22.887,7.286.587,15.352-6.553,18.217-13.278s5.617-24.8-11.289-31.7c-49.042-20-102.542,102.051-37.106,108.169,46.208,4.321,71.636-12.855,83.851-32.884,17.181-32.115,19.229-69.63,5.354-102.26-19.8-46.56-69.691-37.447-91.583-28.623s-46.033,26.23-80.685,95.356c-13.421,26.773-34,33.528-40.674,36.288l-21.3,8.813c-1.312.544-2.9,1.667-2.383,2.991.364.931,1.554,1.177,2.554,1.2a67.843,67.843,0,0,0,11.013-.62c24.1-3.244,30.416,23.744,33.912,29.216,32.472,55.341,96.968,62.705,149.98,58.7,20.29-1.49,40.9-1.911,60.711-6.93,86.461-17.679,103.8-57.874,139.781-151.859,28.8-57.068,59.166-75.309,72.155-82.9C561.533,342.494,560.411,329.3,546.265,320.567ZM474.18,418.988c-16.678,38-26.742,80.407-56.913,110.722a1.114,1.114,0,0,1-1.808-1.265c19.805-44.44,28.635-89.874,64.813-126.146a1.116,1.116,0,0,1,1.786,1.317Q477.782,411.116,474.18,418.988Z" style="fill:#c0392b"/><path d="M82.877,325.267c5.646,37.109.545,80.379,7.167,116.23q1.739,7.5,3.616,15.012a7.762,7.762,0,0,0,11.008,5.014c45.951-29.585,20.9-62.529,87.127-113.6,24.878-18.555,101.362-43.517,128.951,14.9,10.635,22.517,16.112,47.015,18.249,71.866a3.087,3.087,0,0,0,5.388,1.8q9.642-10.876,20.03-21.058c3.28-2.142,43.094-36.735,28.688-35.25-7,3.073-13.242,10.658-21.26,10.472-21.171-7.812-18.681-43.606-18.671-62.16.754-27.431-.7-64.561,10.426-114.705,15.915-46.886,36.7-93.021,66.619-132.714q2.124-2.668,4.3-5.3a2.627,2.627,0,0,0,0-3.613c-5.521-5.836-31.561,40.189-34.834,45.866q-4.1,7.313-7.963,14.756a.923.923,0,0,1-1.668-.787q6.337-15.083,14.22-31.282c13.012-26.648,20.181-41.483,11.959-42.94C331.1,46.207,298.9,218.211,293.621,278.663a8.3,8.3,0,0,0,5.135,8.079c9.7,4.015,13.925,8.06,17.409,13a3.284,3.284,0,0,1-3.367,5.108c-99.842-21.669-170.447,21.223-187.591,31.723a2.04,2.04,0,0,1-3.015-2.34c2.011-6.374,7.347-13.168,12.367-17.634,5.607-5.186-.823-13.721-2.894-20.309-23.178-49.816-32.85-105.411-46.482-157.671-6.22-7.053-14.9-1.562-19.542,4.571C31.632,198.925,77.083,266.732,82.877,325.267Z" style="fill:#c0392b"/><path d="M43.774,508.6c-5.08,7.639,9.113,7.824,11,2.1C57.731,504.159,46.763,505.209,43.774,508.6Z" style="fill:#c0392b"/></svg>