<?xml version="1.0" ?><svg fill="#c0392b" data-name="Layer 4" id="Layer_4" viewBox="0 0 600 600" xmlns="http://www.w3.org/2000/svg"><title/><path d="M105.375,442.024a119.069,119.069,0,0,1,13.412,24.95,12.355,12.355,0,0,0,3.066,5.073c3.8,2.946,8.888,3.463,13.2,5.462a128.091,128.091,0,0,1,20.875,9.976,2.479,2.479,0,0,0,2.356.426c3.191-.941-.855-9.211-1.138-11.706a120.23,120.23,0,0,0-14.952-32.97c-9.575-14.407-24.02-26.8-41.54-29.54-4.262-.156-11.884-2.386-14.3,2.153a3.982,3.982,0,0,0,.825,4.219A174.908,174.908,0,0,1,105.375,442.024Z" style="fill:#c0392b"/><path d="M400.6,447.914A37.582,37.582,0,0,0,377.15,448c-79.492,33.856-110-51.988-179.55,6.4-2.669,3.2-6.368,9.77.6,10.141,53.955-9.394,98.52,28.263,145.744,47.9-6.11,6.409-16.167,1.077-23.018-1.292-8.707-3.01-17.377-6.177-26.136-9.036-33.359-6.626-67.173,27.307-100.446,26.337-4.323-.518-5.735-2.373-9.034-5.022a212.006,212.006,0,0,0-30.065-20.113c-30.112-15.9-75.634-33.477-103.279-4.754-2.593,2.682-1.214,7.415,2.72,7.657a161.017,161.017,0,0,1,106.464,50.029c6.426,7.362,14.159,16.9,25.245,14.6,60.4-10.018,122.712-27.407,179.234-16.021a89.079,89.079,0,0,1,16.827,7.562,103.728,103.728,0,0,1,31.663,30.268,3.042,3.042,0,0,0,4.06.922l2-1.168c-6.086-11.6-12.489-20.611-22.327-28.372a.848.848,0,0,1,.866-1.442c9.79,4.075,21.248,15.392,24.133,18.319,2.622,2.659,4.645,5.8,8.665,6.237,4.063.437,7.792-2.431,11.257-4.145q6.073-3.006,12.284-5.722c31.362-13.33,74.248-23.437,91.014-55a3.839,3.839,0,0,0-4.146-5.562C481.558,528.533,440.651,462.333,400.6,447.914Z" style="fill:#c0392b"/><path d="M91.2,242.828c-5.682,4-1.8,13.968,4.716,8.554C98.835,248.281,95.948,240.279,91.2,242.828Z" style="fill:#c0392b"/><path d="M364.827,359.058a59.441,59.441,0,0,0,6.223-5.775c1.614-1.942.214-5.209-2.557-4.422-4.5,2.328-8.932,4.922-13.608,6.961a146.172,146.172,0,0,1-46.548,12.745c-37.724,2.085-81.346-19.313-111.451-40.988-25.315-19.627-41.545-49.206-47.437-80.457-3.27-14.221-2.046-55.587,6.929-56.533,4.634-.489,5.169,7.92,5.477,11.362.679,9.111,4.387,27.978,8.77,36.228a1.755,1.755,0,0,0,3.3-1c-.874-8.67-2.527-26.109-2.263-31.473C180.64,23.386,319.345,23.94,353.9,27.708a1.9,1.9,0,0,0,.845-3.674C341.59,19.29,325,13.765,313.731,11.653,299.845,9.929,278.152,2.805,265.41,7.7c-4.972,2.063-9.641,5.057-14.274,7.776a641.088,641.088,0,0,0-105.33,78.658c-27.391,25.1-49.677,58.384-53.461,96.074-.232,2.354-1.543,7.826,2.344,7.565,1.543-.26,2.484-2.254,3.452-3.337,2.815-3.364,8.032-7.707,11.8-3.153,5.518,6.8,5.409,21.826,7.613,30.7,2.969,17.748,5.691,35.551,7.422,53.467-.051,4.275,3.225,16.569-.8,18.821-7.566.741-15.128-11.39-19.7-16.366a2.631,2.631,0,0,0-4.314,2.3,18.714,18.714,0,0,0,1.247,3.918c21.368,65.145,92.455,91.008,151.569,111.861,2.557.828,5.134,1.594,7.74,2.253,1.427.361,3.944,1.57,5.3.416,2.311-2.554-1.088-3.984-3.217-4.522-17.307-7.379-35.58-13.853-51.062-24.677-3.612-3.4,15.811-.314,17.167.316,25.25,6.035,49.591,16.261,72.441,28.433,1.808.666,3.718-.343,5.341-1.081A231.184,231.184,0,0,0,364.827,359.058Z" style="fill:#c0392b"/><path d="M519.727,231.381c-.914-47.157-11.183-102.235-56.161-126.956-1.694-.949-3.687-2.026-5.2-.12-1.859,2.339.586,4.153,2.2,5.6,14.522,13.025,27.686,29.133,31.055,48.864,1.318,8.511,2.532,17.6,1.344,26.1-1.212,1.78-3.233.706-3.832-.892-1.891-5.166-4.007-10.246-6.263-15.263-6.387-12.624-11.085-26.718-20.637-37.36-4.242-4.13-9.312-6.447-14.63-8.814C412.456,107.708,367.809,81.908,327.829,87.1a2.339,2.339,0,0,1-1.241-4.468c6.942-2.986,15.065-5.356,23.12-7.783a1.515,1.515,0,0,0-.445-2.967c-11.872.045-33.714,2.043-52.791,14.278a305.982,305.982,0,0,0-59.764,49.973c-3.463,3.78-6.856,7.663-9.929,11.771-10.19,14.86-14.33,32.99-19.825,49.933-5.946,22.983-8.641,46.7-10.487,70.326-.984,7.61,1.181,15.551,7,20.791,34.153,30.364,83.91,58.191,130.69,45.187,13.838-4.083,27.5-10.529,38.075-20.483,31.162-33.16,41.411-92.046-1.743-119.977-13.717-11.444-33-8.461-48.268-1.9-14.236,5.814-23.709,20.17-24.218,35.435-.408,6.344.148,13.06,3.16,18.771,6.088,11.4,22.5,15.763,33.3,8.5,7.242-4.8,11.678-12.631,15.229-20.342.945,41.372-24.717,63.526-60.561,35.235-11.292-8.942-31.921-42.892-13.769-89.651,7.764-23.034,34.293-43.612,56.584-53.441a49.456,49.456,0,0,1,41.671.765c23.635,11.55,55.22,30.305,64.824,48.833,7.222,15.494,7.5,33.707,6.172,50.488-3.522,30.475-18.082,58.614-35.468,83.433-1.534,1.605-3.334,4.7-.085,5.58,2.739-.021,7.4-6.476,9.856-8.369,8.32-8.308,16.425-16.828,24.473-25.4,1.825-1.947,5.936-7.729,8.537-3.432,1.957,2.7-7.236,16.034-8.9,19.5-10.953,18.069-24.6,34.383-39.474,49.343-17.588,17.767-37.2,33.233-56.843,48.63-.472.382.13,1.006.606.785,37.235-17.254,71.81-39.512,106.31-61.586,16.863-9.8,32.206-22.779,41.369-40.3a97.087,97.087,0,0,0,9.184-23.705c.438-1.252.21-3.117,1.671-3.678,4.144-1.176,6.282,20.319,6.864,23.667.165,1.494.589,4.093,2.819,3.08,1.566-.713,1.412-3.617,1.619-5.069A352.745,352.745,0,0,0,519.727,231.381Zm-224.26-88.747c-19.474,20.54-34.333,46.516-36.9,75.105-8.481-43.734,23.763-91.8,67.271-100.848A164.609,164.609,0,0,0,295.467,142.634Z" style="fill:#c0392b"/><path d="M388.381,337.856c20.088-13.214.367-13.985-5.322-.8-.529,1.085.773,2.243,1.839,2.28C386.2,339.432,387.357,338.53,388.381,337.856Z" style="fill:#c0392b"/></svg>