<?xml version="1.0" ?><svg fill="#c0392b" data-name="Layer 4" id="Layer_4" viewBox="0 0 600 600" xmlns="http://www.w3.org/2000/svg"><title/><path d="M592.591,9.752C374.679-12.065,182.24,95.636,192.854,122.936c8.322,21.407,2.142,33.787-4.313,40.25a5.466,5.466,0,0,0,.7,8.329c18.99,13.393,74.191,62.245,47.639,163.465a3.808,3.808,0,0,0,4.045,4.767h0a3.8,3.8,0,0,0,3.24-2.584c1.279-3.846,3.84-11.547,5.438-16.35a1.746,1.746,0,0,1,3.321.03c1.614,5.093,1.648,11.263,1.452,15.141a3.807,3.807,0,0,0,3.588,4L275.974,341a12.151,12.151,0,0,0,10.177-4.539c13.233-16.527,62.73-68.928,155.816-65.067,7.9.328,9.244-8.512,1.225-8.706-17.563-1.5-47.193,3.059-63.236,5.9a1.789,1.789,0,0,1-1.094-3.37c9.918-4.814,26.352-11.336,45.45-13.16a2.6,2.6,0,0,0,1.343-4.654c-17.281-13.123-77.439-53.465-185.973-72.877a2.043,2.043,0,0,1,.306-4.054c41.9-.99,148.549,5.948,233.236,92.026a37.438,37.438,0,0,0,9.036,6.75c8.365,2.952,5.782-7.883,2.726-11.66-9.372-14.5-9.776-34.09-7.092-51.666,14.662-96.009,74.9-103.891,118.865-93.206V44.3a9.742,9.742,0,0,0-7.025-9.381C556.173,25.329,525,24.336,492.747,25.473a1.815,1.815,0,0,1-.328-3.61c30.363-4.489,74.889-5.913,101.872-3.977a2.3,2.3,0,0,0,2.468-2.3V14.373A4.642,4.642,0,0,0,592.591,9.752Z" style="fill:#c0392b"/><path d="M44.322,356.465c-6.249-2.328-12.2.66-12.9,7.067-1.19,8.113,2.055,15.59,6.287,22.018,9.449,14.356,18.8,4.924,30.778,19.989,9.5,11.94,37.091,36.192,53.2,28.059,3.24-1.6,9.812-5.986,14.046-8.885a5.2,5.2,0,0,1,7.1,1.261c15.783,21.741-28.938,19.874-33.3,61.144-1.879,17.769,9.226,44.375-15.207,102.828-.52,1.243.648,2.6,1.992,2.695l44.794.448a5.61,5.61,0,0,0,5.641-5.35c1.758-33.567,27.949-47.692,9.128-85.734-1.079-2.18,2.332-3.922,3.876-2.041,5.13,6.248,10.267,12.216,15.53,18.6a13.517,13.517,0,0,0,6.948,4.429c13.5,3.9,28.229,1.486,41.178-5.16a5.546,5.546,0,0,0,1.932-8.292,107.749,107.749,0,0,1-11.969-20.764c-2.324-3.6-16.522-30.708-54.418-21.558-2.856.69-2.1-2.418-1.078-3.1a34.781,34.781,0,0,1,20.766-6c11.844.548,34.484,4.547,45.012,26.919.019.042,5.7,13.029,13.142,19.481,12.437,10.788,36.437,5.818,46.751-1.5a97.842,97.842,0,0,0,13.031-10.849c1.09-1.106,2.708-.1,2.556,1.447-.7,7.055-3.986,18.561-20.692,23.986-24.789,8.048-35.32-1.512-54.286,13.153-1.592,1.231-1.876,2.232-.977,4.072,5.094,10.423,14.763,21.463,31.655,21.431a2.168,2.168,0,0,0,1.736-3.438c-7.018-9.716-8.093-19.837-3.959-20.692,4.851-1,6.091,13.1,15.3,20.174a9.873,9.873,0,0,0,4.828,1.947c4.182.507,13.115.619,24.6-4.769a2.1,2.1,0,0,1,2.694,2.993c-5.806,9.555-13.269,9.962-20.54,10.034-1.628.016-2.582.672-2.339,2.347C279,577.5,283.52,583.408,290.683,589.43a15.626,15.626,0,0,0,10.048,3.682h67.835a5.771,5.771,0,0,0,5.024-8.607c-4.5-8.027-8.071-17.517-7.438-25.96,0-.056.01-.11.018-.165a273.5,273.5,0,0,0,2.282-54.446c-.373-7.655-1.679-15.267-2.635-22.89-.006-.05-.014-.1-.023-.145-.472-2.421-1.46-6.4-4.752-5.5l-3.409,18.481a1.515,1.515,0,0,1-2.95.128l-3.9-14.118A5.286,5.286,0,0,0,345.372,476c-10.712.687-29.068,5.431-45.879-13.33-6.612-7.38-10.331-16.857-12.169-22.812a1.724,1.724,0,0,1,2.793-1.8c8.5,7.524,27.666,23.323,39.212,23.83a2.361,2.361,0,0,0,.266,0,307.024,307.024,0,0,1,43.141-.333A141.841,141.841,0,0,1,412.2,468.78c30.371,9.8,37.957,57.135,37.957,57.135,2.423,11.075-7.774,20.106-14.134,24.54a11,11,0,0,0-4.642,10.455,39.8,39.8,0,0,0,4.235,13.287,1.286,1.286,0,0,0,2.373-.2c1.971-6.223,7.9-20.293,21.575-21.845,44.182-5.012,47.118,27.586,46.959,37.876a1.375,1.375,0,0,0,2.325,1.019c4.052-3.846,12.44-15.267,2.514-34.39-2.942-5.668-4.062-10.529,3.674-8.327.067.019.132.053.2.066,24.207,4.69,27.462,29.954,27.462,29.954a1.122,1.122,0,0,0,2.175-.149c1.38-8.048,2.576-24.513-7.719-35.329-10.5-11.038-29.368-10.822-38.932-12.994-18.721-4.116-19.237-26.25-24.751-41.136-6.22-19.509-7.668-41.42-21.087-57.786a8.314,8.314,0,0,0-5.579-3.515c-7.252-1.117-14.456-2.57-21.646-4.053a1.644,1.644,0,0,0-.171-.027c-11.626-1.219-20.361-10-30.208-15.572-17.194-11.058-35.737-18.866-55.922-22.238-9.554-1.048-16.125-5.946-22.989-11.388-31.322-22.621-73.687-18.919-99.868,7.662-20.187,20.494-40.581,5.924-46.391-6.257,0,0,14.065-7.693,11.734-29.606-.773-7.258-6.093-8.954-12.135-8.353-3.612.045-3.853.08-4.21-3.632-5.979-62.134-53.2-60-71.63-58.545C76.428,276.771,39.05,291.1,46.118,346.1c.167,1.3.727,4.95,1.193,7.952A2.223,2.223,0,0,1,44.322,356.465Zm181.922,69.694c5.431-3.9,12.936-6.971,17.62-8.674a2.226,2.226,0,0,1,2.786,3.021c-6.387,13.938-22.572,13.691-30.855,34.518a2.4,2.4,0,0,1-4.643-.825C210.967,446.353,213.5,435.3,226.244,426.159Zm-105.7-79.238c9.545-11.181,22.27-4.557,22.146,12.77,1.167,11.12-10.135,24.247-20.473,14.43C115.484,367.51,114.672,354.294,120.542,346.921ZM71.135,352.8c3.013-6.91,13.186-8.507,17.093-1.664,6.706,11.747,3.277,21.909,1.164,25.226-6.294,10.309-19.188,3.994-20.62-6.434C67.562,363.989,68.817,358.115,71.135,352.8Z" style="fill:#c0392b"/><path d="M25.926,314.048a3.9,3.9,0,0,0,5.944-2.4c3.18-13.658,10.363-24.544,14.246-29.691a4.636,4.636,0,0,0-.45-6.064c-25.78-26.072,14.543-51.338,29.3-60.3a1.3,1.3,0,0,0-.837-2.4c-52.449,6.49-73.072,30.841-70.711,67.131C4.426,295.763,14.452,306.483,25.926,314.048Z" style="fill:#c0392b"/><path d="M154.836,272.846a3.483,3.483,0,0,0-.586,5.32,104.527,104.527,0,0,1,17.955,24.3,3.652,3.652,0,0,0,5.288,1.34c16.918-11.244,34.638-34.128,25.526-56.355-14.05-34.272-45.831-38.664-58.466-39.006a1.732,1.732,0,0,0-1.082,3.12c6.962,5.216,20.416,16.487,24.228,28.194C172.148,253.42,167.341,264.544,154.836,272.846Z" style="fill:#c0392b"/><path d="M112.279,152.967a1.96,1.96,0,0,0,2.366,2.98c7.614-3.431,21.867-7.627,37.86-1.223,29.667,11.88,29.679-15.817,29.667-15.95C179.24,105.113,127.041,133.71,112.279,152.967Z" style="fill:#c0392b"/><path d="M261.42,593.145h11.891a2.027,2.027,0,0,0,1.589-3.3c-5.431-6.554-8.394-17.633-9.612-23.224a3.984,3.984,0,0,0-4.062-3.138c-1.506.064-3.128.073-4.5.06a4.222,4.222,0,0,0-4.21,3.414c-1.725,9.391,1.71,19.44,5.931,24.739A3.805,3.805,0,0,0,261.42,593.145Z" style="fill:#c0392b"/><path d="M549.159,536.566a1.585,1.585,0,0,0-1.692,2.316,43.862,43.862,0,0,1,4.147,10.686,4.3,4.3,0,0,0,4.21,3.305c11.387-.072,20.483,5.339,24.623,8.319a.894.894,0,0,0,1.34-1.081C579.157,554.072,570.975,540.648,549.159,536.566Z" style="fill:#c0392b"/><path d="M461.634,311.1a1.479,1.479,0,0,0-1.115-2.653c-42.4,7.221-69.059,34.616-79.422,47.362a3.116,3.116,0,0,0,2.969,5.024c41.388-6.91,68.479,9.8,78.654,17.748a1.6,1.6,0,0,0,2.442-1.918c-1.627-3.734-3.649-7.345-5.27-10.838a9.116,9.116,0,0,1,9.571-12.856C550.661,364.943,581.511,427.7,591.976,459a2.454,2.454,0,0,0,4.783-.778V402.872a20.64,20.64,0,0,0-3.374-11.267c-30.021-46.054-84.315-62.01-130.033-59.653a9.257,9.257,0,0,1-8.274-14.179A24.641,24.641,0,0,1,461.634,311.1Z" style="fill:#c0392b"/></svg>