<svg width="600" height="600" viewBox="0 0 600 600" fill="none" xmlns="http://www.w3.org/2000/svg">
<g clip-path="url(#clip0_638_1951)">
<path d="M196.154 414.089C191.335 409.542 186.804 414.655 183.506 418.207C178.231 421.77 180.92 430.478 187.508 429.577C190.31 429.28 192.621 425.949 194.56 424.211C197.799 421.843 199.277 417.194 196.154 414.089Z" fill="white"/>
<path d="M285.495 407.992C292.765 360.793 300.305 309.396 336.46 274.725L466.916 144.269C481.879 129.305 496.413 114.56 515.42 104.443C522.96 100.432 530.739 97.1939 538.127 93.0375L546.875 101.786C552.137 107.132 560.192 99.3723 554.977 94.0237L547.778 86.8243C549.692 85.4482 549.852 85.7416 551.466 84.4638C551.792 84.2043 552.059 83.8788 552.25 83.5087C552.44 83.1386 552.551 82.7323 552.573 82.3166C552.596 81.9008 552.531 81.4849 552.381 81.0962C552.232 80.7076 552.002 80.3549 551.707 80.0614L541.472 69.8265C538.639 66.9943 537.767 61.8778 542.922 58.1616C543.237 57.9051 543.634 57.771 544.039 57.784C544.445 57.7969 544.833 57.9561 545.13 58.2321L567.774 80.8758C573.023 86.2124 581.096 78.4661 575.876 73.1137L568.485 65.7231C585.12 37.65 552.118 4.20593 523.84 21.0775C520.269 18.0995 514.508 8.77461 509.028 13.4176C503.065 18.7579 511.33 24.1158 514.7 27.8023C510.219 32.0131 506.203 36.6942 502.724 41.7646L495.819 34.8596C490.566 29.5267 482.498 37.2656 487.717 42.6217L511.581 66.4864C515.976 70.8814 508.767 79.3705 506.093 76.6971L493.779 64.3831C493.402 64.0069 492.938 63.7292 492.428 63.5746C491.918 63.4199 491.378 63.393 490.855 63.4962C490.332 63.5994 489.843 63.8295 489.43 64.1664C489.017 64.5032 488.693 64.9364 488.487 65.4278C475.757 95.3887 455.471 112.744 432.618 135.475C404.183 161.747 320.504 253.016 289.878 273.111C262.415 290.198 230.435 296.142 198.999 301.277C120.027 310.692 62.1408 338.723 23.0834 410.892C-32.878 520.269 40.7869 619.587 161.283 574.581C232.802 545.229 276.312 484.065 285.495 407.992ZM117.251 541.948C115.248 543.951 113.073 545.882 111.179 547.997C96.2004 530.289 110.292 526.255 120.957 514.091C122.493 512.585 112.141 509.573 110.723 508.056L160.031 458.748C165.789 454.255 167.368 445.937 162.674 440.109C161.246 438.411 69.9966 532.805 68.9297 532.787C62.4137 539.701 50.9512 540.379 44.2041 533.37L88.015 489.559C88.1509 489.415 88.2265 489.225 88.2265 489.027C88.2265 488.829 88.1509 488.638 88.015 488.495C83.3777 482.571 79.6061 476.018 76.8134 469.032C76.7772 468.906 76.7092 468.792 76.6158 468.7C76.5224 468.608 76.4069 468.541 76.2803 468.507C76.1538 468.473 76.0206 468.472 75.8935 468.504C75.7665 468.536 75.6499 468.601 75.5551 468.691C70.3393 473.907 61.4685 481.677 49.2547 470.849L70.7051 449.398C71.1248 449.076 71.4626 448.66 71.6913 448.184C70.4211 435.57 72.2251 422.837 76.9491 411.072C81.6731 399.308 89.1764 388.863 98.8172 380.631C114.965 366.431 136.874 360.676 157.912 362.194C158.742 361.529 159.496 360.775 160.161 359.945L193.423 326.682C199.749 318.542 212.406 316.712 219.795 324.454L100.443 443.805C98.5451 445.67 96.5254 447.502 94.7537 449.495C94.6141 449.636 94.5359 449.827 94.5359 450.026C94.5359 450.225 94.6141 450.416 94.7537 450.557C97.2279 452.695 100.415 453.826 103.684 453.726C106.952 453.625 110.064 452.3 112.402 450.014C113.394 449.055 114.352 448.064 115.331 447.084L189.418 372.998C192.323 374.733 195.12 376.643 197.794 378.718C197.937 378.854 198.128 378.93 198.326 378.93C198.524 378.93 198.714 378.854 198.858 378.718L264.012 313.563C265.219 312.356 266.398 311.081 267.675 309.939C274.563 303.783 284.547 304.632 291.068 310.659L210.93 390.796C210.795 390.94 210.719 391.13 210.719 391.327C210.719 391.525 210.794 391.715 210.929 391.859C215.567 397.784 219.338 404.337 222.132 411.322C222.168 411.448 222.236 411.563 222.329 411.655C222.423 411.747 222.538 411.813 222.665 411.848C222.791 411.882 222.925 411.883 223.052 411.851C223.179 411.818 223.295 411.754 223.39 411.663L246.007 389.046C247.602 390.702 248.853 392.657 249.688 394.798C250.523 396.94 250.925 399.226 250.872 401.524C250.819 403.822 250.311 406.087 249.377 408.187C248.444 410.288 247.104 412.183 245.434 413.763L117.251 541.948ZM181.925 511.349C176.235 513.934 170.253 515.821 164.109 516.969C163.72 517.043 163.317 516.991 162.959 516.819C162.602 516.648 162.309 516.366 162.123 516.016C161.937 515.666 161.869 515.265 161.927 514.873C161.986 514.481 162.169 514.118 162.449 513.838L223.144 453.142C223.425 452.863 223.788 452.681 224.18 452.623C224.571 452.565 224.971 452.634 225.321 452.819C225.671 453.005 225.952 453.297 226.124 453.654C226.296 454.011 226.349 454.413 226.275 454.803C223.916 467.077 218.661 478.611 210.947 488.445C203.233 498.28 193.282 506.13 181.922 511.344L181.925 511.349Z" fill="white"/>
</g>
<defs>
<clipPath id="clip0_638_1951">
<rect width="600" height="600" fill="white"/>
</clipPath>
</defs>
</svg>
