<?xml version="1.0" ?><svg fill="#c0392b" data-name="Layer 4" id="Layer_4" viewBox="0 0 600 600" xmlns="http://www.w3.org/2000/svg"><title/><path d="M598.684,147.405c-54.5-25.926-231.194-87.552-359.881-91.6l-.423,1.6C272.908,70.572,471.755,159.2,495.8,169.811c10.429,4.6,13.666,12.155-.34,7.373-44.338-15.135-89.33-28.5-134.64-39.818a2.176,2.176,0,0,0-1.464,4.076c77.46,36.633,155.478,72.34,233.238,108.369,7.847,2.8,3.974,9.947,4.89,16.706C472.522,211.036,128.153,65.646,73.157,56.435c-8.289-1.388-14.731.47-12.4,12.991,25.514,137.135,47.719,191.01,48.873,209.532a2.48,2.48,0,0,1-4.728,1.21c-3.625-8.106-5.975-16.936-8.251-23.929-1.8-5.53-4.384-13.873-7.087-21.274-2.546-6.973-12.6-6.66-14.605.488-17.768,63.405,32.755,216.133,43.565,271.69,1.062,7.672-5.782,11.166-8.907,3.1-12.3-31.779-25.342-76.593-32.634-102.806a1.886,1.886,0,0,0-3.688.72c2.95,66.081,13.093,122.9,32.656,183.169,1.071,3.3-.182,4.654-3.305,4.723-8.8.192-17.615.511-26.406.231-1.436-.046-3.651-2.851-4.01-4.444C46.571,478.012,1.123,35.387,1.316,14.555,1.392,6.39,3.212,1.991,11.324,2.207,239.259,8.3,462.3,64.593,586.793,98.97a15.754,15.754,0,0,1,11.891,15.047Z" style="fill:#c0392b"/><path d="M270.445,328.3c9.3-39.777-43.057-39.515-66.266-24.36-2.129,1.112-3.652,2.07-5.311-.544-46.2-71-87.1-145.57-119.286-223.922A2.442,2.442,0,0,1,82.8,76.309c68.782,28.885,129.737,73.324,192.686,113.005,7.946,5.106,15.334,11.083,22.96,16.684,12.637,7.556-10.912,15.575-12.285,44.423-2.464,18.992,6.6,39.718,29.132,34.023,2.825-.55,5.611-1.3,8.778-2.162a1.938,1.938,0,0,1,1.94,3.183c-5.485,5.914-12.252,12.451-16.128,16.128a4.6,4.6,0,0,1-6.282.051C242.647,245.606,138.068,127.622,132.216,132.1,126.4,136.562,242.593,268.868,291.1,313.828a4.594,4.594,0,0,1,.306,6.425c-4.289,4.824-12.458,13.869-19.738,21.113a2.578,2.578,0,0,1-4.289-2.55C268.45,335.118,269.627,331.07,270.445,328.3Z" style="fill:#c0392b"/><path d="M285.168,597.8l-10.377-.106a15.138,15.138,0,0,1-13-7.651C228.793,532.1,166.226,393,143.963,298.328c-.471-2,.57-4.482.925-6.745,3.306,1.361,7.1,2.415,8.759,5.914,7.174,13.148,14.921,26.034,21.271,39.573,42.813,93.215,99.915,178.1,159.756,260.518-4.809,0-9.592.357-14.269-.188-1.694-.2-3.487-2.306-4.642-3.957-22.153-30.878-61.344-85.656-78.044-109a1.64,1.64,0,0,0-2.84,1.6C245.388,510.542,270.612,567.012,285.168,597.8Z" style="fill:#c0392b"/><path d="M597.475,395.6C523.989,336.967,448,282.914,377.8,220.355c-2.65-1.484-2.4-4.266-2.622-6.891,1.315.089,2.816-.207,3.917.326,71.116,34.562,139.961,73.622,210.26,109.808,7.044,3.692,10.031,7.933,7.62,15.545L472.662,273.307q-.4.586-.808,1.174c42.684,26.909,82.71,57.527,123.3,87.389a5.354,5.354,0,0,1,2.218,3.483C597.553,375.1,597.475,384.851,597.475,395.6Z" style="fill:#c0392b"/><path d="M592.011,595.648c-7.494,0-13.768.181-20.017-.128-1.54-.076-3.228-1.512-4.466-2.716q-95.649-93.006-191.1-186.212c-10.25-10-13.144-13.766-23.445-23.712-1.834-1.77-1.666-2.641.173-4.163,3.974-3.29,7.9-6.666,11.571-10.284,2.36-2.326,3.82-2,6.019.267C446.533,446.912,516.258,517.375,592.011,595.648Z" style="fill:#c0392b"/><path d="M308.536,340.83c1.779-5.125-3.654-11.775-1.46-17,3.2-4.018,6.776-7.736,10.2-11.577,1.931-2.167,3.942-2.433,5.866-.1,2.33,2.822,4.919,5.542,6.626,8.719.826,1.537.41,4.228-.324,6.041-7.2,17.776-8.521,35.873-4.8,54.723,4.472,23.467,7.163,47.277,11.576,70.773,3.864,26.2-.821,52.492-10.571,76.81a2.916,2.916,0,0,1-5.234.364C309.516,510.581,275.05,437.287,308.536,340.83Z" style="fill:#c0392b"/><path d="M184.169,595.7a14.389,14.389,0,0,1-14.082-11.423c-9.207-43.69-41.931-198.645-46.6-216.15-1.085-2.441-.073-9.394,1.683-7.752,11.017,10.3,46.711,161.015,71.65,235.325Z" style="fill:#c0392b"/><path d="M338.632,387.971c29.1,34.054,58.779,72.778,54.649,118.694a2.413,2.413,0,0,1-3.64,1.862c-17.134-10.475-28.3-28.149-35.186-47.01-7.581-23.735-15.3-47.565-18.784-72.219A1.691,1.691,0,0,1,338.632,387.971Z" style="fill:#c0392b"/><path d="M341.642,340.249a2.277,2.277,0,0,1,3.713-.222c3.673,4.579,7.692,8.818,10.74,13.853,2.656,4.388-6.558,12.813-10.615,16.722-4.134,3.983-7.5,2.85-9-2.673C334,358.831,337.529,346.945,341.642,340.249Z" style="fill:#c0392b"/><path d="M113.953,316.807c-1.776,2.116-1.276,6.316-.16,9.384,1.026,2.948,5.184,5.4,6.581,2.027C122.484,324.925,118.562,313.7,113.953,316.807Z" style="fill:#c0392b"/><path d="M530.586,189.131c.8,2.644,4.584,4.528,7.762,5.275,3.028.758,7.358-1.376,5.3-4.393C542.051,186.443,530.509,183.57,530.586,189.131Z" style="fill:#c0392b"/></svg>