<svg fill="#c0392b" xmlns="http://www.w3.org/2000/svg" x="0px" y="0px" width="100" height="100" viewBox="0 0 64 64">
<path d="M 32 4 A 3 3 0 0 0 32 10 A 3 3 0 0 0 32 4 z M 27.666016 9.4453125 C 26.628016 10.497312 26.367781 11.896703 26.050781 12.845703 L 25 20 L 39 20 L 37.949219 12.845703 C 37.633219 11.896703 37.371984 10.496312 36.333984 9.4453125 C 35.473984 10.961313 33.864 12 32 12 C 30.136 12 28.526016 10.961312 27.666016 9.4453125 z M 9.921875 15.902344 C 8.7996172 15.891621 8 16 8 16 L 8 19 C 8 19 16 19 9 27 C 5.198 31.346 5.9623125 38.198906 10.820312 41.753906 C 12.955312 37.278906 15.845141 34.602078 18.244141 32.580078 C 10.399141 30.151078 20.696 23.635 16 18 C 14.5575 16.26875 11.792305 15.920215 9.921875 15.902344 z M 25 22 C 25 22 25 30 20 34 C 15 38 14 42 14 42 C 10 55 32 54 32 54 C 32 54 54 55 50 42 C 50 42 49 38 44 34 C 39 30 39 22 39 22 L 32 22 L 25 22 z M 47.265625 23 L 47.019531 24.716797 C 46.671531 27.152797 45.981 29.619 44 31 C 44 31 45.169969 32.164844 46.167969 32.714844 C 48.059969 31.449844 49.77475 29.606 50.59375 27 L 53.53125 28 C 54.15825 30.373 53.857437 33.391281 50.398438 36.988281 C 51.838437 38.553281 52.369875 39.578406 52.921875 40.441406 C 53.371875 41.211406 53.697781 41.989719 53.925781 42.761719 C 59.507781 36.963719 58.634 29.248 57 25 L 47.265625 23 z M 19.46875 54.328125 L 18 58 L 47 58 L 44.955078 54.591797 C 40.416078 55.814797 35.414547 56.017578 33.060547 56.017578 C 32.531547 56.017578 32.161 56.006953 32 56.001953 C 31.839 56.007953 31.469453 56.017578 30.939453 56.017578 C 28.420453 56.017578 23.65275 55.793125 19.46875 54.328125 z"></path>
</svg>