<?xml version="1.0"?><svg fill="#c0392b" data-name="Layer 4" id="Layer_4" viewBox="0 0 600 600" xmlns="http://www.w3.org/2000/svg"><title/><path d="M587.827,3.326a8.275,8.275,0,0,1,8.274,8.362s-.523,12.259-.636,29.2a6.084,6.084,0,0,1-7.493,5.883L196.56,7.328a2.031,2.031,0,0,1,.493-4Z" style="fill:#c0392b"/><path d="M9.255,472.964c27.707,39.955,57.045,78.766,87.2,117.752a3.561,3.561,0,0,1-2.739,5.743c-28.838.5-57.532-.267-86.36.215a4.492,4.492,0,0,1-4.576-4.489V475A3.556,3.556,0,0,1,9.255,472.964Z" style="fill:#c0392b"/><path d="M68.176,276.133q-1.136,24.179-2.27,48.356l1.128.238a117.552,117.552,0,0,0,12.246-51.9c-1.917-34.678-15.2-67.737-31.5-97.868C35.5,150.812,41.932,124.5,53.727,102.036c6.177-12.412,11.3-25.343,17.027-37.983Q81.754,40.207,94.122,17C100.872,4.6,110.5,4.91,119.656,13.285c6.077,5.554,13.063,11.629,10.765,20.776-1.659,8.251-3.155,16.535-4.752,24.8-1.25,6.467-.634,12.828.823,19.187,3.406,14.4,6.237,28.933,9.951,43.253l1.338,0a26.529,26.529,0,0,0,1.024-4.823c.451-16.7.775-33.411,1.229-50.115.122-3.646.442-12.6,5.953-8.9,14.406,8.928,12.472,10.38,17.608,25.242,3.3,5.638,10.346,8.63,15.165,12.935a9.78,9.78,0,0,1,3.7,7.846,40.246,40.246,0,0,0,7.645,23.158c2.592,3.707,3.317,7.965,3.233,12.283-.287,14.727-.945,29.448-1.15,44.176-.083,19.182-.648,38.412,1.374,57.5.168,2.967-.4,3.295-3.088,2.066-7.978-3.645-15.912-7.386-23.876-11.063-3.123-1.409-7.368-3.826-9.775-.008-2.745,3.891,1.471,7.025,4.356,9.073,81.209,58.648,161.1,118.981,243.407,176.093,1.022.73,2.3,2.625,1.988,3.368-.548,1.32-2.224,3.043-3.421,3.038a14.13,14.13,0,0,1-6.929-1.824c-49.612-31.478-99.573-62.447-149.253-93.832-13.5-8.384-27.159-16.517-40.79-24.692a12.76,12.76,0,0,0-3.485-.906c2.162,20.93,16.7,37.841,26.723,55.683q2.732,4.433,5.6,8.783c2.272,3.461,1.573,6.015-2.277,7.849-41.711,18.3-73.686,50.237-89.97,93.092-1.335,3.5-2.013,3.717-5.541,2.683-6.646-1.948-13.381-3.607-19.964-5.74a9.387,9.387,0,0,1-4.213-3.714C104.87,448.5,96.9,436.3,88.7,424.267c-3.259-4.78-6.91-9.3-10.473-13.862a11.059,11.059,0,0,0-3.292-2.963c-.855-.46-2.563-.561-3.132-.022A4.07,4.07,0,0,0,70.69,410.8a21.386,21.386,0,0,0,2.73,5.257c29,44.332,55.13,90.435,82.228,135.939,1.694,2.385,3.241,6.161.685,8.214a5.188,5.188,0,0,1-4.4-.477c-21.044-29.521-40.627-60.425-61.228-90.362-4.136-6.1-8.828-10.421-16.714-12.62C42.9,448.1,15.271,423.356,9.276,390.7c-4.018-26.74,17.941-53.141,31.1-74.81,9.091-13.271,17-27.521,26.809-40.214Z" style="fill:#c0392b"/><path d="M274.2,595.354a6.721,6.721,0,0,1-6.74-3.849c-3.58-6.336-7.485-12.489-11.237-18.729-3.388-5.633-3.168-7.593,1.451-12.095,35.456-34.766,79.161-59.157,128.773-66.163,5.7-.936,10.8.979,15.454,4.076q16.112,10.719,32.1,21.624a15.665,15.665,0,0,1,4.34,3.937c3.53,5.33,3.04,6.747-2.61,9.428-30.382,14.413-57.52,33.266-79.834,58.64a9.639,9.639,0,0,1-8.189,3.435C335.623,595.492,286.614,595.193,274.2,595.354Z" style="fill:#c0392b"/><path d="M250.185,382.834a14.8,14.8,0,0,1,11.01,5.181c4.989,5.3,10.438,10.153,15.606,15.284,3.424,3.4,3.426,5.342.1,8.794-26.618,27.34-44.526,60.258-58.685,95.341a24.569,24.569,0,0,0-.544,21.571c5.408,12.8,11.328,25.51,14.107,32.96.777,2.081-2.383,4.973-3.815,3.333-.955-1.093-23.124-37.313-36.006-58.346-7.133-12.375-19.186-19.266-30.618-26.954-3.819-2.889-4.841-6.563-2.95-10.864C176.553,428.5,207.282,396.549,250.185,382.834Z" style="fill:#c0392b"/><path d="M228.754,518.814c11.464-35.385,31.578-67.508,56.8-95.02,2.971-3.141,6.112-4.491,10.073-3.464a15,15,0,0,1,5.492,3.034c21.708,17.893,42.844,36.483,65.846,52.723,1.22.92,3.074,2.326,2.989,3.374-.175,2.154-1.92,3.319-4.322,4.027-10.921,3.222-22,6.148-32.55,10.347-32.587,12.963-60.935,32.44-85.521,57.422-4.387,4.458-4.6,4.536-7.113-.976C235.441,540.052,229.679,530.6,228.754,518.814Z" style="fill:#c0392b"/><path d="M595.373,243.7a3.128,3.128,0,0,1-4.273,2.913C553.189,231.7,273.075,144.078,254.659,139.529c-7.964-1.968-2.668-6.151,2.575-4.67l324.031,72.288a19.624,19.624,0,0,1,14.109,18.834Z" style="fill:#c0392b"/><path d="M377.69,592.417c15.234-15.218,43.725-35.582,65.57-45.648,11.026-7.167,24.587-5.432,35.757.085,25.515,15.162,51.359,29.732,76.671,45.2a2.05,2.05,0,0,1-1.074,3.8H379.125A2.013,2.013,0,0,1,377.69,592.417Z" style="fill:#c0392b"/><path d="M597.138,382.834C491.085,339.215,260.445,232.94,264.066,223.016S477.244,306.974,540.5,333.63c17.669,7.482,35.3,15.061,53.017,22.426,2.689,1.118,3.875,2.421,3.678,5.39Z" style="fill:#c0392b"/><path d="M596.021,553.315c-39.585-25.793-77.795-52.177-117-78.361-3.659-2.464-4.8-4.675-3.545-6.614,1.284-1.983,3.907-1.958,7.54.2q54.647,32.386,109.313,64.738c2.738,1.615,4.04,3.3,3.772,6.592C595.767,543.973,596.021,548.128,596.021,553.315Z" style="fill:#c0392b"/><path d="M235.21,205.217c-2.989-1.138-7.652.509-5.926,3.827,1.094,3.506,10.759,7.429,12.821,3.694a2.616,2.616,0,0,0-.054-2.43C240.907,208.056,237.884,206.191,235.21,205.217Z" style="fill:#c0392b"/><path d="M435.051,439.457c-2.938-1.266-7.667.177-6.087,3.567.941,3.55,10.427,7.888,12.649,4.247a2.617,2.617,0,0,0,.051-2.431C440.619,442.541,437.679,440.547,435.051,439.457Z" style="fill:#c0392b"/><path d="M242.52,582.144c-1.916-2.562-6.735-3.668-7.055.059-.953,3.547,5.109,12.035,8.85,9.985a2.615,2.615,0,0,0,1.256-2.081C245.81,587.592,244.256,584.4,242.52,582.144Z" style="fill:#c0392b"/><path d="M368.005,73.986l218.958,27.481a11.005,11.005,0,0,1,8.411,10.7v13.17a4.193,4.193,0,0,1-5.62,3.942L367.066,77.1A1.63,1.63,0,0,1,368.005,73.986Z" style="fill:#c0392b"/></svg>