<?xml version="1.0" ?><svg fill="#c0392b" data-name="Layer 4" id="Layer_4" viewBox="0 0 600 600" xmlns="http://www.w3.org/2000/svg"><title/><path d="M42.344,82.072C53.3,66.1,68.209,44.628,74.924,34.975a7.565,7.565,0,0,0-.742-9.546L58.439,8.951a10.727,10.727,0,0,0-14.967-.532L4.7,43.616A10.728,10.728,0,0,0,4.277,59.1L28.2,83.328A9.2,9.2,0,0,0,42.344,82.072Z" style="fill:#c0392b"/><path d="M275.893,104.269l-18.242,2.243a7.329,7.329,0,0,0-6.416,8.038A45.178,45.178,0,0,1,239.2,150.717c-7.914,7.625-12.371,11-20.687,18.131a10.011,10.011,0,0,1-13.63-.554L89.929,51.56a3.431,3.431,0,0,0-5.47.806L61.29,90.238a9.7,9.7,0,0,0,1.615,11.306l99.154,101.931a9.99,9.99,0,0,1-.274,14.219c-14.583,13.811-35.924,38.043-33.143,75.132a3.954,3.954,0,0,0,4.148,3.633l17.085-.861a7.345,7.345,0,0,0,6.982-7.476c-.181-9.544,1.378-26.691,13.222-38.619,0,0,16.281-14.6,26.15-23.389,22.97-20.46,69.587-62.294,71.366-64.916,19.3-23.442,15.039-46.061,12.564-54.169A3.95,3.95,0,0,0,275.893,104.269Z" style="fill:#c0392b"/><path d="M496.08,430.49,265.3,204.452a5.184,5.184,0,0,0-7.128-.12l-14.321,13.111a4.306,4.306,0,0,0-.095,6.263L451.026,425.369a428.512,428.512,0,0,1,33.307,36.367l11.295,13.855a1.115,1.115,0,0,1-1.471,1.64l-5.946-3.853a428.346,428.346,0,0,1-57.375-44.521L225.518,239.571a4.306,4.306,0,0,0-5.827-.01L206.857,251.31a5.184,5.184,0,0,0-.06,7.591L444.581,483.6s41.607,43.738,104.96,43.738C547.466,500.384,541.164,474.455,496.08,430.49Z" style="fill:#c0392b"/><path d="M598.817,99.166V501.189a3.653,3.653,0,0,1-6.987,1.492l-98.6-232.81c-2.921-6.53,1.68-9.137,5.78-3.275l50.535,65.265c4.471,6.392,10.282,4.991,11.348-2.737l31.778-230.38A3.09,3.09,0,0,1,598.817,99.166Z" style="fill:#c0392b"/><path d="M516.337,148.818a2.439,2.439,0,0,0,4.816-.643c-1.3-28.81-5.239-78.812-6.551-103.628-.225-4.26-1.974-19.4-8.723-12.608C501.859,35.986,508.808,115.753,516.337,148.818Z" style="fill:#c0392b"/><path d="M510.514,394.223a2.206,2.206,0,0,1-3.581,2.507c-29.047-31.645-83.659-117.647-106.511-164.007-1.938-3.932,3.594-7.184,6.095-3.583C446.274,286.376,491.7,357.592,510.514,394.223Z" style="fill:#c0392b"/><path d="M72.641,594.366H474.664a3.653,3.653,0,0,0,1.492-6.987l-231.172-100.7c-6.53-2.922-8.26,2.294-2.4,6.394l63.758,47.84a8.579,8.579,0,0,1-3.745,15.528L72.219,588.217A3.089,3.089,0,0,0,72.641,594.366Z" style="fill:#c0392b"/><path d="M540.1,588.262c2.193,1.4.1,4.9-2.231,3.748-49.656-24.513-115.349-64.673-148.364-85.384-12.946-8.121-6.642-13.328,3.611-7.738C455.4,532.844,486.488,554.085,540.1,588.262Z" style="fill:#c0392b"/><path d="M248.082,530.107c2.392,1.021.946,4.717-1.572,4.068C191.664,520.04,88.727,480.964,48.157,460.68c-8.644-4.322-6.724-11.922,3.864-7.406C123.5,483.764,192.982,506.574,248.082,530.107Z" style="fill:#c0392b"/><path d="M386.6,202c1.3-2.532-.16-6.639-1.983-9.467-1.7-2.729-6.443-4.243-7.077-.534C376.175,195.787,382.682,206.177,386.6,202Z" style="fill:#c0392b"/></svg>