<?xml version="1.0" ?><svg fill="#c0392b" data-name="1" id="_1" viewBox="0 0 600 600" xmlns="http://www.w3.org/2000/svg"><title/><path d="M364.084,220.276c-43.058,8.109-83.368,7.226-126.173-.691a11.656,11.656,0,0,0-12.177,6.155c-16.83,31.22-39.57,126.291-40.662,191.411a76.349,76.349,0,0,0,51.189,73.305c39.1,13.8,80.652,14.117,118.619,1.139a76.758,76.758,0,0,0,51.961-74.98c-2-70.017-17.3-162.482-29.974-189.586A11.833,11.833,0,0,0,364.084,220.276Zm-96.29,100.055c1.42-20.1,23.9-17.747,19.469-3.579C279.95,340.145,266.831,330.434,267.794,320.331Zm87.4,103.274c-11.078,38.534-75.8,45.554-98.857,17.5-18.807-22.888-10-60.681,6.5-81.625,2.422-3.074,6.872-2.877,7.677.953,1.689,8.029,5.109,12.751,8.642,14.86,12.9,7.7,29.017,1.334,26.638-40.39-.611-10.72,7.063-27.434,18.331-35.655,1.988-1.45,4.845-.091,4.2,2.282C311.717,362.27,371.8,365.859,355.194,423.605Z" style="fill:#c0392b"/><path d="M322.177,382.129c-5.9,14.329-13.591,18.421-19.049,19.318a14.025,14.025,0,0,1-8.542-1.433c-3.251-1.631-10.4-3.785-15.534,5.065-5.576,9.6,3.174,36.383,29.764,31.075,23.835-4.758,23.318-39.427,18.515-53.835A2.746,2.746,0,0,0,322.177,382.129Z" style="fill:#c0392b"/><path d="M158.815,506.914a164.806,164.806,0,0,0,13.714,11.5C205.507,543.049,282.3,548.376,300,548.376s94.492-5.327,127.471-29.958a164.806,164.806,0,0,0,13.714-11.5,89.543,89.543,0,0,0,27.829-74.8c-2.873-27.555-5.872-66.364-4.616-100.147,3.282-88.253-14.623-131.827-22.474-146.485a4.065,4.065,0,0,0-6.909-.414,61.129,61.129,0,0,1-12.983,13.65,9.321,9.321,0,0,0-2.668,11.666c4.573,8.971,11.488,27.154,14.734,59.09,2,29,.609,58.3,1.243,87.4.088,28,1.215,56.021.052,84C432.789,503.5,342.043,520,300,518.9,257.957,520,167.21,503.5,164.607,440.873c-1.163-27.974-.036-56,.052-83.995.634-29.1-.757-58.4,1.243-87.4,3.246-31.936,10.16-50.119,14.733-59.09a9.319,9.319,0,0,0-2.667-11.666,61.129,61.129,0,0,1-12.983-13.65,4.065,4.065,0,0,0-6.909.414c-7.851,14.658-25.756,58.232-22.475,146.485,1.257,33.783-1.742,72.592-4.615,100.147A89.543,89.543,0,0,0,158.815,506.914Z" style="fill:#c0392b"/><path d="M115.382,525.214c-5.01,3.691-7.429,9.459-6.246,15.107,2.671,12.75,15.546,24.326,28.186,29.81,88,38.179,252.2,34.868,325.356,0,12.438-5.928,25.515-17.06,28.186-29.81,1.183-5.648-1.236-11.416-6.246-15.107l-7.472-5.5a12.815,12.815,0,0,0-15.478.438C445.321,533.9,398.281,564.042,300,564.042S154.679,533.9,138.332,520.149a12.815,12.815,0,0,0-15.478-.438Z" style="fill:#c0392b"/><path d="M412.811,150.882c-6.189-5.76-15.5-7.283-22.815-3.046-21.695,12.567-92.508,43.369-179.992,0a20.171,20.171,0,0,0-22.815,3.046h0c-9.4,8.751-8.736,24.908,2.507,31.123,67.782,37.468,174.8,29.841,220.61,0A19.849,19.849,0,0,0,412.811,150.882Z" style="fill:#c0392b"/><path d="M215.574,41.573c-17.69,28.7-9.98,68.606,21.348,84.562a15.362,15.362,0,0,1,7.649,11.16,10.847,10.847,0,0,0,7.393,8.115c42.666,14.676,80.454,7.219,96.072,0,3.577-1.653,6.682-4.239,7.393-8.115a15.362,15.362,0,0,1,7.649-11.16c31.328-15.956,39.038-55.863,21.348-84.562C368.045,14.936,338.321,2.462,300,2.462S231.955,14.936,215.574,41.573ZM356.117,81.961s-8.091,15.268-41.266,16.731a1.468,1.468,0,0,1-.79-2.746,102.385,102.385,0,0,0,17.177-11.609,4.766,4.766,0,0,0-.683-7.655c-19.358-11.592-58-9.16-69.234,7.313-4.763,7.079-13.266,3.675-17.438-2.034C231.142,65.021,240.412,22.146,300,22.146S368.858,65.021,356.117,81.961Z" style="fill:#c0392b"/></svg>