<?xml version="1.0" ?><svg fill="#c0392b" data-name="Layer 4" id="Layer_4" viewBox="0 0 600 600" xmlns="http://www.w3.org/2000/svg"><title/><path d="M310.174,333.705a1.681,1.681,0,0,0,3.257.4,144.964,144.964,0,0,1,26.906-45.837c14.165-15.932,28.475-31.736,42.635-47.672,12.463-14.07,23.92-33,18.624-52.755C366.91,58.469,306.807,5.7,306.807,5.7a4.5,4.5,0,0,0-6.078-.134C257.545,46.6,208.065,104.327,251.3,163.479c10.888,16.328,23.364,32.684,34.671,48.72a1.609,1.609,0,0,0,2.924-.849c2.038-42.219-1.855-112.751,8.2-147.224a2.011,2.011,0,0,1,3.937.644C296.819,183.737,307.18,302.648,310.174,333.705Z" style="fill:#c0392b"/><path d="M413.668,225.763c-4.219,9.59-10.486,17.872-17.372,25.734-42.876,48.488-90.681,85.143-73.481,157.142,3.954,13.865,15.856,58.238,16.473,64.65.209,2.173,3.653,3.077,4.195.962,13.946-54.456,123.225-131.83,73.926-248.368A2.021,2.021,0,0,0,413.668,225.763Z" style="fill:#c0392b"/><path d="M216.651,134.28c-18.9,41.177-29.637,85.339-32.94,130.484-4.885,42.511,42.74,57.87,71.839,76.211,14.575,9.067,34.071,27.5,42.608,37.724a1.806,1.806,0,0,0,3.168-1.461c-3.235-18.977-12.171-69.474-12.836-99.642-.945-23.624-8.048-47.316-22-66.742-16.515-26.756-37.408-45.871-44.006-78.179C221.276,127.842,217.344,131.259,216.651,134.28Z" style="fill:#c0392b"/><path d="M296.091,494.968c38.249,27.375,15.291,72.063,9.364,93.13-.844,3.755.314,5.81,3.818,6.684,6.115,1.444,18.52,1.7,19.115-6.837,4.564-60.877,3.654-165.048-65.164-223.464-18.632-16.713-41.993-25.914-63.7-37.741-15.128-7.8-3.086,44.313-.619,51.1C214.067,437.467,249.612,461.7,296.091,494.968Zm-82.253-105.4c23.106,52.78,65.921,56.611,85.61,94.955a1.858,1.858,0,0,1-2.525,2.583c-65.577-40.177-81.418-77.136-85.73-92.468C208.624,385.5,213.426,388.626,213.838,389.567Z" style="fill:#c0392b"/><path d="M58.227,377.864C79.232,459.3,140,500.349,222.621,489.252c18.43.009,34.224,6.588,47.388,19.5,1.478,1.881,4.3,2.973,6.3,1.707,4.062-4.837-8.888-13.7-12.711-16.119-37.068-23.5-94.813-26.831-145.416-70.018-9.141-7.8-28.1-22.011-33.974-34.8a1.726,1.726,0,0,1,2.544-2.138c39.641,36.752,98.261,66.593,125.071,71.384a1.784,1.784,0,0,0,2-2.453c-28.038-64.249-81.914-94.591-151.085-95.8C52.014,360.383,56.492,371.466,58.227,377.864Z" style="fill:#c0392b"/><path d="M366.993,468.894a1.473,1.473,0,0,0,2.2,1.915C405.867,439.749,471.091,413,489.5,405.8a1.386,1.386,0,0,1,1.531,2.226c-21.524,21.654-134.377,62.456-146.639,115.307a2.857,2.857,0,0,0,1.288,2.385c4.878.635,5.775-7.732,7.64-11.1,11.953-26.93,44.937-19.785,68.751-23.26,52.076-6.238,86.407-53.193,105.709-98.248,2.027-5.106.018-8.161-5.6-7.525C422.509,396.877,379.876,448.924,366.993,468.894Z" style="fill:#c0392b"/><path d="M132.183,265.351c-2.923-28.879-10.326-45.822-14-51.994-3.083-6.594-37.594-49.449-41.683-43.926-4.552,6.147-.762,53.433,13.405,67.447a345.986,345.986,0,0,0,36.759,31.861C129.537,272.065,132.592,269.391,132.183,265.351Z" style="fill:#c0392b"/><path d="M488.453,300.774c16.6-33.334,55.784-40.294,55.736-78.627,0-1.659-1.134-3.064-2.744-2.665-41.373,9.3-60.4,50.247-56.046,80.532A1.649,1.649,0,0,0,488.453,300.774Z" style="fill:#c0392b"/></svg>