<?xml version="1.0" ?><svg fill="#c0392b" data-name="Layer 4" id="Layer_4" viewBox="0 0 600 600" xmlns="http://www.w3.org/2000/svg"><title/><path d="M462.224,593.817c13.912,0,27.177.042,40.343-.037a16,16,0,0,0,11.941-5.45c12.994-14.818,49.111-56.672,64.436-81.283,3.031-4.867,3.111-9.933-.138-14.813a529.149,529.149,0,0,1-33.84-57.984c-11.349-22.868-20.924-46.414-27.578-71.08-.925-3.428-2.516-4.941-5.955-5.608-32.063-5.362-90.779-20.944-121.574-34.491-16.6-7.305-28.981-25.657-33.537-43.216-7.273-28.036-4.764-70.5,26.714-105.625,10.832-12.086,34.675-35.673,44.977-45.793a8.256,8.256,0,0,0,1.1-10.459C418.041,101.3,385.892,51.3,374.03,16.016a14.761,14.761,0,0,0-14-10.055H325.119a1.313,1.313,0,0,0-1.239,1.761c4.163,11.435,27.419,75.258,34.672,93.806a17.435,17.435,0,0,1-2.074,16.543c-14.451,20.056-61.916,77.309-187.39,169.778a17.872,17.872,0,0,0-6.476,13.993l6.208,88.73C109.461,370.26,3.188,281.072,96.3,174.844c18.091-20.641,38.784-.734,44.393,20.606,1.235,4.7,3.456,9.864,7.35,12.835,45.579,34.769,57.322-44.188,67.872-60.791,13.9-21.881,24.84-1.834,25.361,16.4.262,9.178-1.754,18.964,9.9,17.707,5.546-.764,13.393-1.471,18.512-5.078a4.31,4.31,0,0,0-4.468-7.349c-5.15,2.657-16.879,7.922-17.69,1.23-1.168-9.642.507-23.709-5.138-31.943-10.355-16.019-31.833-11.014-38.958,5.16-5.939,9.818-9.668,22.018-19.824,28.385-19.3,12.122-43.065-39.981-49.062-53.581-12.621-28.619-53.173-65.97-92.491,16.15C28.723,162.4,18.77,221.732,44.164,288.812c56.475,149.178,216.608,137.972,224.267,137.5,3.028-.186,4.444,1.119,5.082,4.26,1.574,7.738,6.415,13.256,13.991,15.078,37.295,8.968,41.84-29.489,27.855-41.725-9.986-8.738-26.22-9.318-33.389,1.2-6.816,9.993-68.341,17.3-68.639-19.267-.142-17.449-1.593-34.863-2.354-52.3-.308-7.067,2.356-12.293,7.349-17.842,53.591-59.555,66.291-67.833,101.4-90.676l1.148.679c-2.93,32.516-2.872,103.135.042,132.566.714,5.277,2.05,6.242,7.181,7.515,29.892,8.64,84.965,30.914,109.96,41.228a32.476,32.476,0,0,1,19.671,24.658c3.273,19.624.47,44.313-1.61,57.869a21.977,21.977,0,0,1-11.095,15.963c-20.581,11.275-44.643,14.464-67.3,20.256-17.943,3.984-35.952,7.678-53.979,11.265-3.072.612-4.786,1.924-5.939,4.713-6.983,17.467-14.846,34.414-21.4,52.063,5.185,0,9.847-.274,14.458.088,3.6.283,5.041-1.252,6.136-4.39,3.164-9.066,6.69-18.006,9.9-27.058a11.624,11.624,0,0,1,8.441-7.778c17.863-4.552,107.49-18.128,134.145-21.8,3.85-.556,5.692-2.293,6.561-6.21,10.475-47.223,1.188-96.57-3.079-114.885a13.9,13.9,0,0,0-8.818-9.915c-13.21-4.778-99.327-34.181-119.38-46.8-5.312-3.343-6.974-9.41-7.552-14.655a4.624,4.624,0,0,1,6.439-4.716c42.55,18.274,85.3,35.608,128.125,53.161a36.018,36.018,0,0,1,16.17,13.159c10.525,15.557,30.3,50.447,40.147,104.548,1.31,7.2-.209,13.837-5.5,19.579C503.244,549.459,482.609,571.344,462.224,593.817ZM125.818,142.2c22.243,14.873,16.238,49.2,34.351,64.142a1.143,1.143,0,0,1-.989,2c-22.238-5.338-13.343-44.111-45.89-48.419-19.433-3.632-42.411,37.945-49.419,55.417a1.847,1.847,0,0,1-3.556-.542C56.727,166.387,89.089,117.638,125.818,142.2Z" style="fill:#c0392b"/><path d="M20.27,593.214l65.023.823a18.9,18.9,0,0,0,11.278-3.554c11.319-8.14,38.642-27.792,50.42-36.285,21.676-15.633,43.7-30.9,69.384-39.6,1.723-.584,2.1-1.657,2.068-3.24.227-21.8-1.394-43.5-3.019-65.219-.139-2.764-1.586-3.019-3.367-3.655-10.575-4.051-21.6-7.158-31.877-11.895-3.942-2.535-4.708,1.769-4.66,4.476.566,32.141-6.631,58.511-23.224,71.741,10.813-31.78,10.541-58.567,9.637-70.533a11.283,11.283,0,0,0-6.522-9.383l-6.954-3.222a1.364,1.364,0,0,0-1.877,1.648c2.495,7.742,7.393,30.49-2.643,71.37-15.258,62.148-101.045,80.889-124.384,93.693A1.511,1.511,0,0,0,20.27,593.214Z" style="fill:#c0392b"/><path d="M548.525,40.456c-21.362-8.458-38.151,2.7-57.781,10.14-2.328.96-3.813,1.25-5.811-.859-4.563-4.821-10.481-5.951-16.823-4.7-20.669,3.291-7.88,44.847,11.335,35.913,4.578-2.047,8.333-5.118,10.447-10.029,2.175-5.052,2.242-12.7,7.863-15.141,48.721-21.128,52.75-1.632,52.41,7.714-1.341,36.89-6.707,60.031-20.66,71.332-1.993,1.614-4.78.437-4.109-2.039,3.38-12.464,8.379-33.589,5.68-40.9-2.48-5.116-6.282-9.612-9.717-14.228-1.287-1.538-4.379-3.187-6.018-1.18a2.567,2.567,0,0,0,.658,2.4c27.471,24.789-11.6,75.456-38.409,98.782a32.473,32.473,0,0,0-8.867,12.341c-12.152,30.213,8.716,67.863-31.549,81.468-7.158,2.419,3.678,6.238,7.015,4.684,10.849-4.881,25.823-12.453,26-26.978.313-25.68,7.272-52.441,27.322-68.647,8.072-6.845,24.311-17.278,34.241-23.473a28.883,28.883,0,0,0,11.892-14.737C548.169,129.742,555.636,107.768,557.5,95c1.568-10.749,3.975-21.374,5.74-32.1C565.378,52.9,557.635,43.606,548.525,40.456Z" style="fill:#c0392b"/><path d="M556.358,170.31c-7.319,2.952-15.392,10.09-14.422,28.6h-.22c1.224,10.994-8.895,24.355-24.1,23.819-11.5-1.013-17.7,19.445,7.117,15.627,20.6-3.169,30.019-19.41,27.505-41.191-1.4-12.12,2.381-19.564,6.2-23.869A1.869,1.869,0,0,0,556.358,170.31Z" style="fill:#c0392b"/><path d="M426.634,449.748c.5-7.857-7.9-11.051-11.893-4.38-1.55,2.585-2.61,5.459-3.975,8.16-2.233,4.519-7.467,10.352-3.142,14.947C417.645,476.755,425.434,456.932,426.634,449.748Z" style="fill:#c0392b"/><path d="M72.393,477.865c-.43-14.523-19.408-13.591-20.986-.918C51.814,490.164,72,493.114,72.393,477.865Z" style="fill:#c0392b"/><path d="M410.894,291c8.356-.993,10.43-10.114.409-11.14C403.656,279.659,403.094,290.888,410.894,291Z" style="fill:#c0392b"/><path d="M558.924,352.348c6.651-.415,7.424-11.036.015-11.242C551.368,341.288,552.448,351.827,558.924,352.348Z" style="fill:#c0392b"/><path d="M285.582,162.228c6.244.128,6.988-10.006.527-10.3C279.319,151.761,278.823,161.855,285.582,162.228Z" style="fill:#c0392b"/></svg>