<?xml version="1.0" ?><svg fill="#c0392b" id="icon" viewBox="0 0 512 512" xmlns="http://www.w3.org/2000/svg"><title/><path d="M256,117.76c-76.22,0-138.24,62-138.24,138.24s62,138.24,138.24,138.24,138.24-62,138.24-138.24S332.22,117.76,256,117.76Zm0,199.65A61.41,61.41,0,1,1,317.41,256,61.42,61.42,0,0,1,256,317.41Z"/><path d="M256,29.52C130.92,29.52,29.52,130.92,29.52,256S130.92,482.48,256,482.48,482.48,381.08,482.48,256,381.08,29.52,256,29.52ZM72,258.23a10.48,10.48,0,0,1-.57,1.86,9.27,9.27,0,0,1-.91,1.7,10.75,10.75,0,0,1-1.23,1.52,10,10,0,0,1-7,2.9,10.54,10.54,0,0,1-1.94-.19,9.72,9.72,0,0,1-1.86-.57,9.44,9.44,0,0,1-1.72-.91,11.83,11.83,0,0,1-1.5-1.23A9.51,9.51,0,0,1,54,261.79a9.27,9.27,0,0,1-.91-1.7,9.92,9.92,0,0,1-.57-5.74,10,10,0,0,1,.57-1.86,9.44,9.44,0,0,1,.91-1.72A9.85,9.85,0,0,1,56.71,248a9.44,9.44,0,0,1,1.72-.91,10.48,10.48,0,0,1,1.86-.57,10,10,0,0,1,9,2.71,11.83,11.83,0,0,1,1.23,1.5,9.44,9.44,0,0,1,.91,1.72,10.24,10.24,0,0,1,.57,1.86,9.51,9.51,0,0,1,0,3.88ZM246.27,60.59a9.75,9.75,0,0,1,.56-1.86,10.49,10.49,0,0,1,.92-1.72A9,9,0,0,1,249,55.5a10,10,0,0,1,8.94-2.71,10.53,10.53,0,0,1,1.86.56,11.75,11.75,0,0,1,1.72.91,10,10,0,0,1,4.41,8.25,9.77,9.77,0,0,1-.19,1.95,9.87,9.87,0,0,1-.56,1.85,10.19,10.19,0,0,1-.93,1.72,8.4,8.4,0,0,1-1.23,1.5,8.91,8.91,0,0,1-1.5,1.24,10.91,10.91,0,0,1-1.72.92,9.75,9.75,0,0,1-1.86.56,9.54,9.54,0,0,1-1.92.19,9.9,9.9,0,0,1-7-2.91,8.91,8.91,0,0,1-1.24-1.5,10.91,10.91,0,0,1-.92-1.72,10.17,10.17,0,0,1-.76-3.8A9.63,9.63,0,0,1,246.27,60.59ZM265.73,452a9.75,9.75,0,0,1-.56,1.86,10.19,10.19,0,0,1-.93,1.72,8.4,8.4,0,0,1-1.23,1.5,9.9,9.9,0,0,1-7,2.92,9.77,9.77,0,0,1-1.95-.2,9.21,9.21,0,0,1-1.85-.57,9.48,9.48,0,0,1-1.72-.92,8.4,8.4,0,0,1-1.5-1.23,9.92,9.92,0,0,1-2.92-7,9.77,9.77,0,0,1,.2-1.95,9.18,9.18,0,0,1,.56-1.85,11.26,11.26,0,0,1,.91-1.72,10,10,0,0,1,2.75-2.75,11.75,11.75,0,0,1,1.72-.91,10.71,10.71,0,0,1,1.85-.57,10.08,10.08,0,0,1,3.87,0,10.55,10.55,0,0,1,1.86.57,11.26,11.26,0,0,1,1.72.91A10.57,10.57,0,0,1,263,443a9.31,9.31,0,0,1,1.23,1.52,9.82,9.82,0,0,1,1.68,5.52A9.62,9.62,0,0,1,265.73,452ZM256,414.09c-87.17,0-158.09-70.92-158.09-158.09S168.83,97.91,256,97.91,414.09,168.83,414.09,256,343.17,414.09,256,414.09ZM442.75,249.27a9.72,9.72,0,0,1,3.22-2.14,10,10,0,0,1,1.86-.57,9.39,9.39,0,0,1,3.88,0,10,10,0,0,1,1.86.57,9.35,9.35,0,0,1,1.71.91,9.9,9.9,0,0,1,1.51,1.23,10.33,10.33,0,0,1,1.23,1.5,10.1,10.1,0,0,1,.91,1.72,9.47,9.47,0,0,1,.56,1.86,10,10,0,0,1-.56,5.74,9.92,9.92,0,0,1-.91,1.7,9.51,9.51,0,0,1-1.23,1.52,11.25,11.25,0,0,1-1.51,1.23,10.14,10.14,0,0,1-3.57,1.48,10,10,0,0,1-3.88,0,9.3,9.3,0,0,1-1.86-.57,9.44,9.44,0,0,1-1.72-.91,10.57,10.57,0,0,1-1.5-1.23,9.51,9.51,0,0,1-1.23-1.52,9.27,9.27,0,0,1-.91-1.7,10,10,0,0,1-.77-3.8A10,10,0,0,1,442.75,249.27Z"/></svg>
