<?xml version="1.0" ?><svg fill="#c0392b" data-name="Layer 5" id="Layer_5" viewBox="0 0 600 600" xmlns="http://www.w3.org/2000/svg"><title/><path d="M402.179,445.3c6.072-21.653,13.718-42.889,15.807-65.561s8.3-33.829,12.077-38.664a21.5,21.5,0,0,0,4.209-9.092c2.2-11.225,4.278-22.477,6.1-33.768.918-5.687-2.634-9.838-8.281-11.042l-283.52-57.932c-11.575-2.457-17.189,15.011-20.228,23.65C86.651,371.426,94.15,463.126,94.15,463.126c9.881,74.4,59.173,109.757,126.931,118.1,34.693,4.271,70.017-2.143,100.23-19.724C367.244,534.77,387.186,492.1,402.179,445.3Zm-135.292-58.54a9.976,9.976,0,0,0-8.812,8.582l-8.5,77.146a7.394,7.394,0,0,1-8.506,6.473c-15.549-2.393-31.015-8.122-39.751-11.75a7.365,7.365,0,0,1-3.745-10.119l34.273-68.065a10.218,10.218,0,0,0-2.334-12.361c-20.845-17.766-7.367-66.226,37.564-52.279C308.9,337.37,298.7,383.663,266.887,386.757Z" style="fill:#c0392b"/><path d="M217.553,214.068a9.577,9.577,0,0,0,7.778,11.636l37.727,6.225a9.152,9.152,0,0,0,10.514-7.468c9.751-56.3,29.521-134.735,85.956-161.547,44.4-21.095,140.209.736,65.593,192.705a9.164,9.164,0,0,0,6.3,12.2l36.657,9.229a9.587,9.587,0,0,0,11.494-6.442c7.377-23.619,26.8-91.67,26.8-153.326C506.375,15.2,291.589-98.361,217.553,214.068Z" style="fill:#c0392b"/><path d="M498.312,312.289l-32.122-12.63a7.957,7.957,0,0,0-10.672,5.644l-7.554,33.284a30.872,30.872,0,0,1-7.673,14.5c-4.382,4.6-9.555,14.382-7.087,34.214a12.055,12.055,0,0,1-.073,3.583C409.667,523.5,349.7,571.129,325.976,585.132a2.523,2.523,0,0,0,1.508,4.686c19.13-1.682,59.121-10.073,94.771-49.032,49.28-53.854,68.988-142.863,83.85-214.072A12.709,12.709,0,0,0,498.312,312.289Z" style="fill:#c0392b"/></svg>