<?xml version="1.0" ?><svg fill="#c0392b" data-name="1" id="_1" viewBox="0 0 600 600" xmlns="http://www.w3.org/2000/svg"><title/><path d="M274.775,268.526l-11.748-2.8a2.907,2.907,0,0,0-3.431,3.747l.889,2.671a63.233,63.233,0,0,1-12.152,61.327C221.1,364.981,176.816,415.985,152.1,443.19a85.615,85.615,0,0,1-27.888,20.349l-51.317,23.37a2.781,2.781,0,0,0,1.326,5.306l111.937-6.976a2.7,2.7,0,0,0,1.394-4.886l-13-9.237a14.058,14.058,0,0,1-1.924-21.281C187.916,434.164,214.989,407,231,394.263c17.286-12.762,33.74-30.448,55.447-33.933,13.036-2.093,27.742,9.237,34.7,15.468a3.611,3.611,0,0,0,5.847-1.563C330.7,362.9,339.243,336.542,343.6,321a13.159,13.159,0,0,0-.164-7.791c-1.5-4.4-2.77-13.029,4.2-23.457,16.711-24.98,65.6-69.627,93.449-92.167a11.364,11.364,0,0,1,16.617,2.55L475.4,226.759a2.694,2.694,0,0,0,4.905-1.917c-6.02-37.5-23.965-148.229-26.011-148.265-2.309-.04-6.422,41.594-8.811,68.174a49.768,49.768,0,0,1-19.2,34.968L325.012,257.746A59.67,59.67,0,0,1,274.775,268.526Z" style="fill:#c0392b"/><path d="M60.672,159.278l-47.679-37.2a1.411,1.411,0,0,0-2.279,1.112,12.19,12.19,0,0,0,4.122,9.143c64.788,57.185,148.4,134.29,211.49,192.847a3.951,3.951,0,0,0,5.583-.19c11.6-12.55,18.984-28.441,14.468-46.83-2.083-8.479-8.142-14.891-14.339-21.042C193.55,218.922,34.606,60.043,13.13,38.574a1.41,1.41,0,0,0-2.406,1l-.009,61.7a12.2,12.2,0,0,0,3.616,8.672l47.957,47.5A1.225,1.225,0,0,1,60.672,159.278Z" style="fill:#c0392b"/><path d="M248.2,239.107a48.571,48.571,0,0,0,21.846,12.523c18.658,4.912,32.63,2.312,42.583-5.342a3.969,3.969,0,0,0,.376-5.95L82.347,10.426a12.2,12.2,0,0,0-8.653-3.6H17.779a1.411,1.411,0,0,0-1,2.412Z" style="fill:#c0392b"/><path d="M360.282,330.99a2.033,2.033,0,0,0-3.59.765l-13.2,50.053c-1.688,6.405.069,13.815,5.64,17.4,86.293,55.5,119.774,110.326,126.289,117.136,11.617,12.87,17.177,29.71,23.6,45.513,5.659,18.763,22.6,26.241,40.727,28.981l26.709,2.258a21.032,21.032,0,0,0,22.445-24.866c-2.765-14.553-6.274-30.59-9.184-36.062-10.1-25.9-37.8-27.677-59.41-38.667C456.9,461.244,397.164,388.444,360.282,330.99ZM529.373,529.2c17.9-4.322,58.507,37.366,30.145,47.145-15.329,1.5-29.864-14.17-35.606-28.056C519.888,541.1,519.295,529.341,529.373,529.2Z" style="fill:#c0392b"/></svg>