<?xml version="1.0" ?><svg fill="#c0392b" data-name="Layer 4" id="Layer_4" viewBox="0 0 600 600" xmlns="http://www.w3.org/2000/svg"><title/><path d="M269.511,253.786c2.913,1.324,7.881,7.512-1.521,18.258-35.535,40.616-54.762,64.8-70.77,100.588-3.414,7.636-10.149.807-7.88-7.243,9.03-32.045,29.961-63.7,52.58-85.17a3.989,3.989,0,0,0-3.6-6.786c-41.525,9-151.978,37.415-179.66,90.047-22.027,41.881,20.177,72.113,63.912,60.423q2.789-.873,5.56-1.8a29.079,29.079,0,0,1,34.146,12.469c32.812,54.259,133.206,63.959,114.01-43.754-6.556-36.791-8.949-77.943,10.112-112.1l.052-.092a9.337,9.337,0,0,1,12.6-3.634C374.926,316.469,350.2,399.534,427,417.03c52.579,11.977,85.079-30.09,83.153-68.859A28.413,28.413,0,0,1,530.764,319.6a70.515,70.515,0,0,0,21.795-10.353c39.283-26.9,33.064-83.675-15.424-101.449-58.62-21.488-143.937-9.4-217.784,34.761-4.448,2.659-3.715,9.481,1.448,9.506,46.009.222,89.725,12.118,126.482,32.629,8.189,4.57,2.653,17.051-6.234,14.055-41.963-14.147-100.456-32.505-135.283-37.583-6.138-.895-13.1-9.023-9.957-14.593,35.587-63.08,167.871-51.943,185.056-136.281,5.182-25.431-7.851-48.768-29.474-57.982-17.852-7.774-35.209-7.891-52.086-2.633a18.718,18.718,0,0,1-23.292-11.907C363.733,1.41,310.147-1.093,288.958,36.62c-21.05,36.92-20.827,80.693-9.43,120.75,2.551,10.849,5.288,21.654,8,32.463.714,5.027,6.667,5.233,7.914.342,8.671-34.016,24.206-66,51.361-77.786a4.339,4.339,0,0,1,3.131,6.882c-25.573,35.581-49.522,136.189-75.55,122.33-37.284-19.853-83.549-36.374-114.728-46.45-7.015-2.268-4.991-12.721,2.362-12.172,37.1,2.767,69.727,17.924,99.894,35.795,3.241,1.92,6.671,2.167,9.76-.549,5.3-4.014,2.281-11.328-.364-16.423-21.436-42.623-39.358-95.116-89.985-104.95C98.1,80.687,84.554,116.067,85.571,143.606c.607,16.461-4.416,36.638-19.023,44.252-40.511,21.118-50.813,52.167-41.76,88.81C43.92,335.038,192.876,218.967,269.511,253.786Zm106.575-163.8c-.262,7.99-10.95,9.574-11.459.939C364.725,82.771,375.57,81.54,376.086,89.982Z" style="fill:#c0392b"/><path d="M526.335,590.444a5.317,5.317,0,0,0,6.583-5.18l-.063-16.068a15.457,15.457,0,0,0-12.907-15.159C459.559,543.769,312.056,491.116,299.969,292.6c-.284-4.669-7.712-8.354-7.993,4.421C288.635,448.476,377.728,554.017,526.335,590.444Z" style="fill:#c0392b"/></svg>