<svg fill="#c0392b" xmlns="http://www.w3.org/2000/svg" x="0px" y="0px" width="100" height="100" viewBox="0 0 48 48">
<path d="M 12.005859 -0.001953125 C 10.349859 -0.001953125 9.0058594 1.3420469 9.0058594 2.9980469 C 9.0058594 4.6540469 10.349859 5.9980469 12.005859 5.9980469 C 12.287859 5.9980469 12.562266 5.9597188 12.822266 5.8867188 C 12.941266 5.4907188 13.013672 5.0170469 13.013672 4.4980469 C 13.013672 3.7410469 12.837031 3.0799531 12.582031 2.6269531 C 12.321031 2.1609531 12.034844 2.0058594 11.839844 2.0058594 C 11.418844 2.0058594 11.005859 2.3860469 11.005859 2.9980469 C 11.005859 3.6200469 11.320672 3.9863281 11.513672 3.9863281 C 11.788672 3.9863281 12.013672 4.2113281 12.013672 4.4863281 C 12.013672 4.7623281 11.788672 4.9863281 11.513672 4.9863281 C 11.018672 4.9863281 10.630719 4.6920313 10.386719 4.3320312 C 10.141719 3.9680312 10.005859 3.4950938 10.005859 2.9960938 C 10.005859 1.9160938 10.787844 1.0058594 11.839844 1.0058594 C 12.555844 1.0058594 13.106078 1.5157188 13.455078 2.1367188 C 13.809078 2.7667188 14.013672 3.5990469 14.013672 4.4980469 C 14.013672 5.1320469 13.922859 5.7338125 13.755859 6.2578125 C 12.622859 11.747812 8.0058594 18.103047 8.0058594 25.998047 C 8.0058594 33.315047 13.606953 39.415375 21.001953 40.734375 L 21.001953 41.998047 L 17.009766 41.998047 C 16.457766 41.998047 16.007812 42.448 16.007812 43 L 16.005859 43.998047 L 16.521484 43.998047 C 16.796484 43.998047 17.021484 44.223047 17.021484 44.498047 C 17.021484 44.774047 16.796484 44.998047 16.521484 44.998047 L 16.005859 44.998047 C 15.590859 44.999047 15.234859 45.251047 15.005859 45.998047 C 14.455525 45.997048 14.006942 46.445009 14.005859 46.996094 C 12.903745 46.996291 10.007812 47.216219 10.007812 47.496094 C 10.007812 47.774969 12.903744 47.995896 14.005859 47.996094 L 14.005859 47.998047 L 35.005859 47.998047 L 35.005859 47.994141 L 35.007812 47.996094 C 36.108812 47.996094 39.007812 47.775094 39.007812 47.496094 C 39.007812 47.216094 36.108812 46.996094 35.007812 46.996094 L 35.005859 46.998047 C 35.005859 46.446047 34.557859 45.997047 34.005859 45.998047 C 33.775859 45.253047 33.419812 44.998047 33.007812 44.998047 L 33.007812 44.996094 L 32.519531 44.996094 C 32.243531 44.996094 32.019531 44.772094 32.019531 44.496094 C 32.019531 44.221094 32.243531 43.996094 32.519531 43.996094 L 33.005859 43.996094 L 33.005859 43 C 33.005859 42.448 32.557859 41.998047 32.005859 41.998047 L 28.005859 41.998047 L 28.005859 40.736328 C 35.402859 39.418328 41.005859 33.317047 41.005859 25.998047 C 41.005859 18.155047 36.446391 11.831281 35.275391 6.3632812 C 35.087391 5.8182813 34.984375 5.1750469 34.984375 4.4980469 C 34.984375 3.5990469 35.188016 2.7657188 35.541016 2.1367188 C 35.887016 1.5207187 36.437203 1.0058594 37.158203 1.0058594 C 38.214203 1.0058594 38.990234 1.9350938 38.990234 2.9960938 C 38.990234 3.4950937 38.854375 3.9680313 38.609375 4.3320312 C 38.365375 4.6920312 37.975422 4.9863281 37.482422 4.9863281 C 37.206422 4.9863281 36.982422 4.7623281 36.982422 4.4863281 C 36.982422 4.2113281 37.206422 3.9863281 37.482422 3.9863281 C 37.679422 3.9863281 37.990234 3.6130469 37.990234 2.9980469 C 37.990234 2.4050469 37.583203 2.0058594 37.158203 2.0058594 C 36.958203 2.0058594 36.671109 2.1659531 36.412109 2.6269531 C 36.158109 3.0799531 35.984375 3.7410469 35.984375 4.4980469 C 35.984375 5.0150469 36.055875 5.4878125 36.171875 5.8828125 C 36.437875 5.9588125 36.716859 5.9980469 37.005859 5.9980469 C 38.661859 5.9980469 40.005859 4.6540469 40.005859 2.9980469 C 40.005859 1.3420469 38.661859 -0.001953125 37.005859 -0.001953125 C 34.797859 -0.001953125 33.005859 1.7900469 33.005859 3.9980469 L 32.005859 4 L 32.005859 3.5351562 C 32.005859 3.2601563 31.780859 3.0351562 31.505859 3.0351562 C 31.229859 3.0351563 31.005859 3.2601563 31.005859 3.5351562 L 31.005859 4 L 30.005859 4 L 30.005859 3.5351562 C 30.005859 3.2601563 29.780859 3.0351562 29.505859 3.0351562 C 29.229859 3.0351563 29.005859 3.2601563 29.005859 3.5351562 L 29.005859 4 L 28.005859 4 L 28.005859 3.5 C 28.005859 3.225 27.780859 3 27.505859 3 C 27.229859 3 27.005859 3.225 27.005859 3.5 L 27.005859 4 L 26.005859 4 L 26.005859 3.5 C 26.005859 3.225 25.780859 3 25.505859 3 C 25.229859 3 25.005859 3.225 25.005859 3.5 L 25.005859 4 L 24.005859 4 L 24.005859 3.5117188 C 24.005859 3.2367187 23.780859 3.0117188 23.505859 3.0117188 C 23.229859 3.0117187 23.005859 3.2367188 23.005859 3.5117188 L 23.005859 4 L 22.005859 4 L 22.005859 3.5117188 C 22.005859 3.2367187 21.780859 3.0117188 21.505859 3.0117188 C 21.229859 3.0117187 21.005859 3.2367188 21.005859 3.5117188 L 21.005859 4 L 20.005859 4 L 20.005859 3.5 C 20.005859 3.225 19.780859 3 19.505859 3 C 19.229859 3 19.005859 3.225 19.005859 3.5 L 19.005859 4 L 18.005859 4 L 18.005859 3.5 C 18.005859 3.225 17.780859 3 17.505859 3 C 17.229859 3 17.005859 3.225 17.005859 3.5 L 17.005859 4 L 16.005859 3.9980469 C 16.005859 1.7900469 14.213859 -0.001953125 12.005859 -0.001953125 z M 15.839844 5.9980469 L 17.005859 5.9980469 L 17.005859 32.488281 C 17.326859 32.644281 17.660859 32.790781 18.005859 32.925781 L 18.005859 5.9980469 L 19.005859 5.9980469 L 19.005859 33.273438 C 19.330859 33.374438 19.664859 33.466875 20.005859 33.546875 L 20.005859 5.9980469 L 21.005859 5.9980469 L 21.005859 33.75 C 21.333859 33.806 21.666859 33.851625 22.005859 33.890625 L 22.005859 5.9980469 L 23.005859 5.9980469 L 23.005859 33.972656 C 23.334859 33.991656 23.668813 33.998047 24.007812 33.998047 L 24.007812 5.9980469 L 25.007812 5.9980469 L 25.007812 33.998047 C 25.344812 33.998047 25.678812 33.991656 26.007812 33.972656 L 26.007812 5.9980469 L 27.007812 5.9980469 L 27.007812 33.890625 C 27.346813 33.852625 27.679813 33.806 28.007812 33.75 L 28.007812 5.9980469 L 29.007812 5.9980469 L 29.007812 33.546875 C 29.348813 33.466875 29.682813 33.374437 30.007812 33.273438 L 30.007812 5.9980469 L 31.007812 5.9980469 L 31.007812 32.925781 C 31.352812 32.791781 31.686812 32.644281 32.007812 32.488281 L 32.007812 5.9980469 L 33.171875 5.9980469 C 34.038875 11.550047 38.007812 17.981047 38.007812 25.998047 C 38.007812 30.966047 32.180813 34.998047 25.007812 34.998047 L 24.007812 34.998047 C 16.834813 34.998047 11.007812 30.966047 11.007812 25.998047 C 11.007812 17.981047 14.972844 11.550047 15.839844 5.9980469 z M 34.787109 8.5117188 L 34.943359 8.8867188 C 35.954359 11.868719 37.570125 14.993703 38.703125 18.470703 C 39.399125 20.948703 39.934047 23.597875 39.998047 26.421875 C 39.959047 27.661875 39.745953 28.864625 39.376953 30.015625 C 37.560953 34.211625 32.021813 36.998047 26.007812 36.998047 L 25.007812 36.998047 C 20.161813 36.998047 15.62575 35.189062 13.09375 32.289062 C 15.72275 34.599063 19.744813 35.998047 24.007812 35.998047 L 25.007812 35.998047 C 32.364812 35.998047 39.007812 31.826047 39.007812 25.998047 C 39.007812 19.174047 36.194109 13.350719 34.787109 8.5117188 z M 14.224609 8.5546875 C 12.818609 13.422687 10.007812 19.231047 10.007812 25.998047 C 10.007812 26.127047 10.008625 26.256766 10.015625 26.384766 C 10.009625 26.587766 10.007812 26.791047 10.007812 26.998047 C 10.007813 30.430047 11.339687 33.592156 13.554688 36.035156 C 10.745688 33.487156 9.0078125 29.918047 9.0078125 25.998047 C 9.0078125 19.329047 12.379406 13.975172 14.066406 8.9511719 L 14.224609 8.5546875 z"></path>
</svg>