<?xml version="1.0" ?><svg fill="#c0392b" data-name="1" id="_1" viewBox="0 0 600 600" xmlns="http://www.w3.org/2000/svg"><title/><path d="M354.885,7.766a2.1,2.1,0,0,0-3.271-2.493L292.86,58.091a14.047,14.047,0,0,1-15.481,2.088c-20.245-9.954-41.112-13.163-52.459-14.2a14.048,14.048,0,0,1-11.863-9.064L202.567,9.011a2.1,2.1,0,0,0-3.881-.11l-14.573,32.99a14.046,14.046,0,0,1-9.883,7.991c-17.071,3.766-31.214,11.723-39.588,17.3a14.052,14.052,0,0,1-16.7-.856L52.783,6.736a2.1,2.1,0,0,0-3.308,2.318L103.9,147.4a1.9,1.9,0,0,1-3.061,2.049L67.622,119.76a1.078,1.078,0,0,0-1.747,1.129l5.445,17.247a14.09,14.09,0,0,1-.41,9.665c-2.651,6.355-7.04,18.657-7.8,31.963A14.031,14.031,0,0,1,56.7,190.743L6.268,223.285a2.1,2.1,0,0,0,1.07,3.858l51.4,1.648a14.081,14.081,0,0,1,13.023,9.989C74.25,246.963,79.093,259.024,88,269.6a14.034,14.034,0,0,1,1.9,15.063l-57.669,94.8a2.1,2.1,0,0,0,2.972,2.7l86.9-65.436a14.055,14.055,0,0,1,15.272.514c8.346,5.826,23.316,14.585,40.763,17.108a14,14,0,0,1,11.143,9.176l7.3,20.423a2.1,2.1,0,0,0,4.07-.636l2.236-67.569a1.9,1.9,0,0,1,3.685-.595L250.724,433.1a2.1,2.1,0,0,0,4.036-.383l9.017-92.331a14.041,14.041,0,0,1,8.928-10.877c13.2-4.915,40.783-17.365,58.954-40.749a6.219,6.219,0,0,0-.65-8.338l-22.658-21.349a1.9,1.9,0,0,1,1.709-3.242l148.312,41.881a2.1,2.1,0,0,0,1.906-3.555l-92.469-75.851a14.01,14.01,0,0,1-3.968-13.064,110.853,110.853,0,0,0,.483-42.91,14.108,14.108,0,0,1,6.138-14.361L404.841,125.5a2.1,2.1,0,0,0-1.3-3.847L361.874,124.6a14.09,14.09,0,0,1-13.617-7.824,45.63,45.63,0,0,0-4.206-6.8A14.025,14.025,0,0,1,342.563,95.9l11.5-25.67a2.1,2.1,0,0,0-3.33-2.4L304.578,110.1a1.9,1.9,0,0,1-2.993-2.236Z" style="fill:#c0392b"/><path d="M590.052,559.641C508.587,497.667,447.365,425.213,433.4,408.152a5.431,5.431,0,0,0-7.048-1.195c-6.25,3.835-18.715,11.117-29.843,15.4a3.124,3.124,0,0,0-.8,5.377C468.66,484.789,539.913,570.8,556.216,590.941a11.663,11.663,0,0,0,9.074,4.326h26.8a1.2,1.2,0,0,0,.914-1.982l-64.762-72.364a.813.813,0,0,1,1.159-1.134l63.293,57.835a1.2,1.2,0,0,0,2-.9v-7.764A11.718,11.718,0,0,0,590.052,559.641Z" style="fill:#c0392b"/><path d="M346.936,306.81c-14.325,17.253-39.257,32.162-50.745,38.5a5.629,5.629,0,0,0-1.529,8.644c8.632,9.834,28.553,31.1,52.117,46.69,14.12,9.344,31.956,11.62,47.663,5.3,13.59-5.47,21.556-15.022,18.494-27.069-4.357-17.14-44.061-58.546-57.694-72.384A5.608,5.608,0,0,0,346.936,306.81Z" style="fill:#c0392b"/></svg>