<?xml version="1.0" ?><svg fill="#c0392b" data-name="Layer 4" id="Layer_4" viewBox="0 0 600 600" xmlns="http://www.w3.org/2000/svg"><title/><path d="M253.336,398.212c-6.139,3.518,3.233,9.007,7.577,8.025C269.381,403.062,258.144,394.725,253.336,398.212Z" style="fill:#c0392b"/><path d="M457.517,413.314c-11.566-17.72-21.379-20.085-14.1-44.39,3.265-11.114,7.016-25.158-2.436-34.234a5.421,5.421,0,0,0-5.192-1.347,5.582,5.582,0,0,0-3.986,3.822,129.863,129.863,0,0,1-85.36,86.776c-3.813,1.045-4.043,6.92-.274,8.217,11.01,4.423,22.643,3.378,33.068-1.249,22.9-10.44,26.33,3.07,42.156,15.219C443.117,459.433,468.691,436.225,457.517,413.314Z" style="fill:#c0392b"/><path d="M589.908,572.08a179,179,0,0,1-41.573-55.95c-2.739-5.672-5.571-11.538-10.024-16.114-5.875-6.038-14.043-9.333-21.942-12.519-36.8-13.271-23.546-27.544-33.853-54.96-1.523-3.4-6.925-2.683-7.6.972A44.754,44.754,0,0,1,449.159,464.2c-3.545,1.36-3.181,6.914.586,7.692,19.411,3.468,39.762,6.758,47.644,38.222,2,6.741,4.072,13.713,9.152,18.578,4.117,3.932,9.656,5.707,14.734,8,14.818,6.692,26.657,18.464,38.106,29.848,8.347,7.313,20.363,22.747,31.467,24.2,4.074.162,7.4-4.083,6.469-8.28C596.5,577.868,593.1,574.962,589.908,572.08Z" style="fill:#c0392b"/><path d="M204.105,208.529a34.73,34.73,0,0,0-9.692-28.227L39.118,21.176C28.27,10.855,12.5,26.812,23.212,37.5L201.617,209.426A1.484,1.484,0,0,0,204.105,208.529Z" style="fill:#c0392b"/><path d="M363.246,400.217c49.676-27.612,73.5-85.3,35.358-149.723a20.564,20.564,0,0,1,2.523-26.712L555.106,75.393c10.566-10.575-4.9-26.855-16.169-16.064C538.812,63.94,387.5,227.6,337.521,257.829a1.981,1.981,0,0,1-3.124-2.386l16.9-29.583a7.206,7.206,0,0,0,.47-6.058c-5.714-9.906-31.015-14.269-48.743-12.792-56.976,4.747-99.335,61.354-84.463,115.858a1.935,1.935,0,0,1-3.663,1.224c-31.9-78.9,46.44-148.969,122.051-128.016,2.944.683,6.15,1.523,9.8,2.568a2.722,2.722,0,0,0,3.478-1.817,3.052,3.052,0,0,0-1.862-3.872C253.6,157.439,153.4,258.735,216.1,348.481a20.672,20.672,0,0,1-2.287,27.039L59.239,524.479c-10.6,10.637,5,26.831,16.169,16.063,3.068-.585,171.323-187.907,208.121-202.653a1.915,1.915,0,0,1,.45,2.6L262.2,375.433c-9.182,17.3,41.368,15.671,43.867,16.017,65.889,2.234,113.061-71.155,84.085-130.15a1.066,1.066,0,0,1,1.881-1c40.374,70.3-12.593,161.913-107.4,145.025a3.246,3.246,0,0,0-3.5,4.913C307.14,418.627,340.606,411.76,363.246,400.217Zm-97.765-79.592c-3.681,7.446-11.153,11.309-17.378,8.984-10.239-4.065-14.38-20.549-12.772-31.674,3.171-30.4,26.793-29.276,32.245-1.23C268.757,303.294,269.352,312.792,265.481,320.625Z" style="fill:#c0392b"/><path d="M287.541,15.083c0,.984.105,98.9,9.327,140.832a3.7,3.7,0,0,0,7.257-.146c5.937-33.467,4.376-98.348,6.206-140.97C309.942-.222,287.527.011,287.541,15.083Z" style="fill:#c0392b"/><path d="M304.125,444.1a3.7,3.7,0,0,0-7.257-.147c-8.187,48.443-13.281,143.265-6.068,149.017,6.7,7.239,19.753,2,19.53-7.9-.6-15.747-.868-32.481-1.13-48.667C308.615,500.274,308.063,466.148,304.125,444.1Z" style="fill:#c0392b"/><path d="M440.064,301.555a3.621,3.621,0,0,0,3.038,3.57c33.47,5.938,98.345,4.376,140.97,6.206,15.036-.389,14.773-22.812-.285-22.79-1.007,0-98.907.107-140.831,9.328A3.617,3.617,0,0,0,440.064,301.555Z" style="fill:#c0392b"/><path d="M154.914,297.869C106.471,289.684,11.646,284.582,5.9,291.8c-7.246,6.7-1.983,19.774,7.924,19.529C28.281,308.723,180.446,314.2,154.914,297.869Z" style="fill:#c0392b"/><path d="M139.893,358.278c-25.175,5.521-38.82,10.885-72.668,26.462a9.238,9.238,0,1,0,7.306,16.97c.392-.18,39.539-18.221,67.775-37.923A3.065,3.065,0,0,0,139.893,358.278Z" style="fill:#c0392b"/><path d="M68.684,189.464a9.238,9.238,0,1,0-7.3,16.974c33.85,15.578,47.5,20.942,72.667,26.462a3.039,3.039,0,0,0,3.459-1.769,3,3,0,0,0-1.045-3.74C108.232,207.689,69.085,189.648,68.684,189.464Z" style="fill:#c0392b"/><path d="M240.368,449.113a3,3,0,0,0-3.7,1.194c-13.9,21.706-19.753,35.147-32.672,70.1-4.481,11.275,12.684,18.13,17.166,6.833.15-.4,15.073-40.842,21.108-74.74A3,3,0,0,0,240.368,449.113Z" style="fill:#c0392b"/><path d="M533.712,214.483a9.238,9.238,0,1,0-7.3-16.97c-.392.18-39.539,18.222-67.776,37.924a3.07,3.07,0,0,0,1.7,5.588C485.98,235.666,499.546,230.13,533.712,214.483Z" style="fill:#c0392b"/><path d="M389.127,66.7c-.15.4-15.073,40.842-21.108,74.74a3.068,3.068,0,0,0,5.6,2.188c13.9-21.7,19.751-35.144,32.672-70.095C410.773,62.262,393.61,55.394,389.127,66.7Z" style="fill:#c0392b"/><path d="M218.427,68.645a9.239,9.239,0,1,0-16.971,7.306c.18.392,18.222,39.538,37.924,67.775C256.4,154.6,226.124,84.323,218.427,68.645Z" style="fill:#c0392b"/></svg>