<?xml version="1.0" ?><svg fill="#c0392b" data-name="Layer 4" id="Layer_4" viewBox="0 0 600 600" xmlns="http://www.w3.org/2000/svg"><title/><path d="M384.266,474.291c-24.052,11.773-44.116,21.251-68.738,31.61-9.983,4.183-15.811,11.483-18.864,21.631-6.485,20.294-12.923,39.49-17.881,60.5q152.97.031,305.847.018c13.482,3.664-13.448-53.656-16.275-59.863-12.836-26-49.677-30.273-72.992-44.01-30.543-18-31.3-43.179-32.7-69.385-.768-6.8,1.575-12.97,4.48-19.216,11.445-23.943,14.206-50.965,14.305-77.275-.062-31.67-27.8-59.656-59.623-57.971-76.273,5.084-75.034,141.954-12.844,166.044,15.585,7.117,24.426-3.617,37.473-10.387.8-.456,4.076-1.023,2.321,2.681-4.808,10.15-11.869,16.278-17.634,21.572-6.422,6.132-19.8.448-26.146-2.813a1.919,1.919,0,0,0-2.779,1.944C403.2,447.225,403.1,465.074,384.266,474.291Zm3.325-111.127c-9.894.624-14.331-18.289-10.079-33.532,2.535-9.089,15.779-9.278,18.335.636C399.065,340.4,401.621,361.279,387.591,363.164Zm55.362-5.708c-2.052,8.12-14.477,7.327-16.557-.651-9.786-37.527,18.526-46.168,18.227-14.829C444.794,342.03,444.475,352.773,442.953,357.456Z" style="fill:#c0392b"/><path d="M588.916,150.771c-115.853,1.427-243.938,44.609-319.6,135.172C198.276,368.875,157.048,476.053,148.6,584.531c-.2,4.41-.216,4.462,4.023,4.47,0,0,14.62-.065,28.5.068,2.909.028,4.121-.732,4.068-3.795-1.8-69.43,18.827-161.335,64.543-219.951a2.493,2.493,0,0,1,4.216,2.612c-32.31,66.238-52.767,142.824-44.828,217.239.233,2.192.8,3.828,3.787,3.977,6.681.335,6.5.543,6.563-6.487C216.131,479.231,246.5,366.478,322.757,293.715c85.371-81.465,179.441-89.56,269.276-76.886a1.878,1.878,0,0,0,2.144-1.86v-9.346a2.893,2.893,0,0,0-2.409-2.854c-71.872-11.983-142.388,2.5-172.671,11.56a1.8,1.8,0,0,1-1.322-3.335c30.022-14.935,95.337-40.607,174.273-30.416a1.881,1.881,0,0,0,2.129-1.86V156A5.214,5.214,0,0,0,588.916,150.771Z" style="fill:#c0392b"/><path d="M181.076,287.583A64.029,64.029,0,0,0,193.3,270.205c22.467-49.539,30.682-111.757,30.65-166.385.191-4.169,1-5.053,4.947-3.039,11.268,6.59,20.974,15.568,31.127,23.8L262.6,122.5c-18.338-35.825-32.757-73.459-48.816-110.36a2.363,2.363,0,0,0-4.305-.054C192.52,48.372,175.4,84.857,161.4,122.31a1.418,1.418,0,0,0,2.129,1.661c8.164-5.555,15.791-10.78,23.5-15.877,10.885-6.74,12.909-3.755,12.077,7.836-3.758,37.7-19.143,127.588-64.956,132.725-39.68,2.646-79.25,7-119,8.389-9.735.208-9.634.289-9.163,9.918.132,2.706,1.125,3.113,3.61,3.094,8.537-.068,66.823-5.874,97.557-7.774a2.435,2.435,0,0,1,1.327,4.562c-12.638,7.04-41.756,20.141-97.284,30.745-4.409.842-4.263,1.289-4.322,5.861l-1.01,68.04c42.986-29.069,85.934-45.662,130.008-69.824a1.881,1.881,0,0,1,2.247,2.965c-37.134,38.006-87.627,62.86-132.3,88.682V407.89C66.9,373,133.823,340.284,181.076,287.583Z" style="fill:#c0392b"/><path d="M590.42,106.9C325.655,95.266,104.389,334.384,72.115,584.885c5.164,7.634,8.938-.849,9.126-5.943,6.949-43.941,23.6-102.33,44.793-148.109a2.608,2.608,0,0,1,4.87,1.824c-14.092,48.2-25.71,107.328-29.79,151.993-.505,4.26-.363,4.33,4.182,4.353q6.408.031,12.822,0c4.5-.02,4.289-.031,4.429-4.345,4.072-247.375,211.666-475.976,469.6-455.091a1.879,1.879,0,0,0,2.035-1.87V110.842A3.943,3.943,0,0,0,590.42,106.9Z" style="fill:#c0392b"/></svg>