<?xml version="1.0" ?><svg fill="#c0392b" data-name="Layer 4" id="Layer_4" viewBox="0 0 600 600" xmlns="http://www.w3.org/2000/svg"><title/><path d="M364.872,460.752a92.316,92.316,0,0,0-14.015,17.039c-1.53,1.9-12.613,22.016-6.872,18.914,16.415-30.37,50.248-40.611,78.289-56.708,32.958-19.409,28.048-52.738-3.617-70.228-29.725-17.445-64.369-22.629-98.4-24.672a14.243,14.243,0,0,1-13.418-14.222c.058-50.2.219-167.778.261-186.525,5.908,8.312,15.354,13.092,24.3,17.451,34.087,13.916,24.186,30.17-2.888,45.2-3.842,2.591-8.767,4.22-8.751,9.415v5.4a1.878,1.878,0,0,0,2.726,1.68c33.032-16.742,84.476-50.275,20.907-69.061a60.616,60.616,0,0,1-32.554-27c-5.6-7.567-3.166-28.254-3.548-32.885a5,5,0,0,1,8.367-3.613,93.086,93.086,0,0,1,13.3,15.236,1,1,0,0,0,1.486.2c-7.716-32.776-18.375-66.339-23.937-99.985a.981.981,0,0,0-1.877,0C297.065,40.7,285.492,74,272.612,106.652c-.356.9,1.014,1.663,1.626.946,4.306-5.042,10.391-11.883,16.859-17.073a4.989,4.989,0,0,1,8.071,4.076c-.248,8.623-.513,56.686-.763,117.187a19.118,19.118,0,0,1-10.619,17.059c-41.795,20.685-149.8,66.818-154.889,90.107-4.308,13.753,8.416,23.839,19.542,28.963,40.811,20.062,87.75,10.2,131.453,11.532V347.121a3.586,3.586,0,0,0-3.469-3.584c-17.893-.591-35.784-1.361-53.528-3.8-86.957-10.646,33.75-74.751,61.616-84.636,1.782-.672,1.086-3.535,1.217-4.942.158-3.328-12.778,4.71-14.036,4.8-21.45,9.682-50.7,25.6-66.63,39.857a.9.9,0,0,1-1.26-1.291c26.055-28.982,58.144-40.442,90.508-58.237-.127,40.2-.369,83.562-.385,124.6l-.052.025c-.123,37.757-.232,72.659-.32,99.1-.061,18.467-.279,32.241-8.638,48.709-2.329,4.588-10.441,13.164-12.612,19a1.471,1.471,0,0,0,2.271,1.674c.135-.024,13.554-9.754,12.5-3.654-25.057,51.545,10.426,69.582,10.426,69.582s34.661-17.243,11.772-68.06c-2.546-5.652,7.15-2.227,11.652,1.118,1.179.876,3.206-.569,2.255-1.689-25.423-29.948-22.154-120.148-20.777-144.352a6.811,6.811,0,0,1,6.45-6.428c27.1-1.323,54.808,3.3,78.881,16.422C443.167,418.163,387.532,440.873,364.872,460.752Zm47.539-63.407c-28.848-24-68.809-30.357-105.612-27.27q0-4.786.009-9.636c41.429-2.626,96.489,8.641,107.137,35.815A.973.973,0,0,1,412.411,397.345Z" style="fill:#c0392b"/><path d="M122.892,474.2c10.269-5.9,54.6-11.329,47.462-14.8-23.894-1.754-59.647,2-67.737-25.873-5.443-18.755-9.067-38-12.877-57.158-.209-1.133-1.844-.778-1.911.259-3.082,61.752,18.228,82.209-59.651,96.7-5.964,1.109-2.606,4.727-1.135,4.677,65.809-8.4,71.763,18.482,79.97,75.112.2,1.079,1.948.825,1.912-.262C110.148,529.394,99.006,488.3,122.892,474.2Z" style="fill:#c0392b"/><path d="M109.425,588.008c4.93,4,6.492-5.619,4.265-8.936C108.3,572.952,104.978,585.108,109.425,588.008Z" style="fill:#c0392b"/><path d="M513.7,156.171c4.635-2.588,2.159-14.943-3.642-9.208C507.605,150.12,508.5,159.823,513.7,156.171Z" style="fill:#c0392b"/><path d="M96.982,117.09a99.2,99.2,0,0,1-12.449,2.2c-1.211.057-1.261,2.046,0,1.946,52.661-7.363,55.356,18.2,61.654,63.237.186,1.086,1.944.823,1.912-.26,1.3-20.339-9.514-59.785,15.491-68.312,2.789-1.879,37.612-7.542,31.869-10.655-20.691-1.263-46.291,4.649-52.485-22.843-3.522-15.631-6.9-31.308-9.725-47.08-.192-1.134-1.85-.779-1.911.258-1.321,19.494,1.992,39.271-1.212,58.629C126.494,108.766,109.9,113.791,96.982,117.09Z" style="fill:#c0392b"/><path d="M525.28,281.21c11.149-4,55.742-1.53,49.328-6.2-23.211-5.938-59.066-8.545-62.117-37.406-2.053-19.42-2.228-39-2.6-58.532-.006-1.153-1.678-1.092-1.926-.083-13.917,60.243,3.454,84.136-75.759,84.673-6.066.041-3.4,4.194-1.942,4.405,66.259,3.332,67.383,30.839,65.481,88.029.01,1.1,1.773,1.156,1.929.08C503.01,333.291,499.283,290.88,525.28,281.21Z" style="fill:#c0392b"/></svg>