<?xml version="1.0" ?><svg fill="#c0392b" data-name="Layer 4" id="Layer_4" viewBox="0 0 600 600" xmlns="http://www.w3.org/2000/svg"><title/><path d="M400.316,507.194c10.229-14.064,2.137-25.877-10.565-14.594-19.122,16.987-41.828,29.951-63.281,44.227-11.47,7.307-23,15.489-23.316,30.707.671,7.012,4.973,14,13.086,11.708C362.166,566.261,379.47,535.855,400.316,507.194Z" style="fill:#c0392b"/><path d="M88.336,41.457c16.08,11.409,53.875,16.559,82.609,27.2,11.429,4.232,20.185-10.107-.607-23.653C148.519,30.788,125.9,20.313,97.444,20.313l-.09.435C85.177,19.387,78.518,33.662,88.336,41.457Z" style="fill:#c0392b"/><path d="M157.893,542.9c15.362.232,49.368-20.878,26.911-35.99-14.88-7.026-34.144-2.437-43.985,10.808C132.613,530.412,143.494,544.321,157.893,542.9Z" style="fill:#c0392b"/><path d="M332.717,52.212c-.938,22.333,34.038,36.7,37.637,9.123C371.925,42.129,336.2,28.367,332.717,52.212Z" style="fill:#c0392b"/><path d="M274.485,312.864a9.27,9.27,0,0,0-6.791-.876c-4.908,1.158-10.954,3.515-8.679,9.056C263.782,332.653,284.318,318.589,274.485,312.864Z" style="fill:#c0392b"/><path d="M599.491,461.882V364.824a6.021,6.021,0,0,0-5.947-6.017c-34.9-.483-69.56-5.584-84.43-38.889-29.676-61.851-34.657-131.445-42.561-199-1.08-9.227-1.854-18.494-2.031-27.782-.436-22.825-12.185-32.2-17.075-27.809-25.151,31.869-11.4,147.529-8.659,164.976a15.473,15.473,0,0,0,8.043,11.253c10.331,5.473,29.406,19.861,31.736,52.187,1.551,12.031.99,31.111,2.467,43.15,3.209,36.385,31.635,26.7,28.028,56.062a2.187,2.187,0,0,1-4.166.656,39.173,39.173,0,0,0-11.309-14.881c-47.175-29.52-17.6-79.508-36.323-105.084-4.33-5.914-8.729-9.052-12.779-10.537-8.343-3.059-16.769,4.235-15.3,13,15.562,93.067-30.561,193.641,32.4,186.334,88.867-10.313,106.39.875,131.446,4.891A5.543,5.543,0,0,0,599.491,461.882Z" style="fill:#c0392b"/><path d="M4.334,435.074c55.014-1.461,218.159-18.948,238.837,15.772-.248,5.252-1.067,10.184-4.91,14.275-28.7,32.778,10.126,39.463,35.21,27.07,122.384-49.742,150.218-214.528,88.366-321.606-20.305-37.474-66.414-74.332-104.062-93.607-16.468-3.987-22.414,11.5-14.128,23.984,5.923,10.178,13.842,20.654,10.18,33.239-5.64,20.83-116.552-20.1-249.725-15.477a3.73,3.73,0,0,0-3.593,3.728v9.509a3.727,3.727,0,0,0,3.759,3.721c86.263-.6,155.507,10.129,185.519,15.709a1.755,1.755,0,0,1-.305,3.48c-38.247.5-133.806,1.687-185.27,1.87a3.711,3.711,0,0,0-3.7,3.717v55.75a3.712,3.712,0,0,0,3.758,3.718c72.936-.836,164.056-5.891,235.04,12.412a3.009,3.009,0,0,1-1.156,5.9c-44.791-6.055-127.4-12.449-234.374.308a3.709,3.709,0,0,0-3.268,3.678v5.253a3.717,3.717,0,0,0,3.842,3.722c55.234-1.894,330.813-26.96,308.873,68.724-15.751,60.141-228.9,54.823-309.072,56.409a3.719,3.719,0,0,0-3.643,3.724v51.3A3.723,3.723,0,0,0,4.334,435.074Z" style="fill:#c0392b"/><path d="M4.327,343.441c39.1-1.082,137.977-1.55,227.733-13.2a5.354,5.354,0,0,0,4.063-7.924,4.969,4.969,0,0,0-3.68-2.395c-11.085-.132-94.443,2.619-228.2,2.732a3.733,3.733,0,0,0-3.731,3.725v13.339A3.717,3.717,0,0,0,4.327,343.441Z" style="fill:#c0392b"/><path d="M201.807,463.065c2.964-.415,8.508-.038,8.1-4.39a3.5,3.5,0,0,0-3.168-3.343c-56.782-3.244-138.694,2.945-202.595,4.355a3.717,3.717,0,0,0-3.639,3.722v9.717a3.719,3.719,0,0,0,3.854,3.723C66.7,474.522,145.3,467.16,201.807,463.065Z" style="fill:#c0392b"/></svg>