<?xml version="1.0" ?><svg fill="#c0392b" data-name="Layer 4" id="Layer_4" viewBox="0 0 600 600" xmlns="http://www.w3.org/2000/svg"><title/><path d="M10.039,446.385c-3.442-2.085-5.01-1.332-5.618,2.674l.984,137.7a8.313,8.313,0,0,0,8.313,8.254H59.052A13.792,13.792,0,0,0,70.083,589.5l45.6-60.756c5.941-9.644,30.2,1.959,38.773,3.966,1.971.461,3.563.306,2.966-2.163a140.281,140.281,0,0,1-3.478-27.305,2.383,2.383,0,0,1,4.242-1.57c7.175,8.937,21.668,27.1,30.442,38.846a1.73,1.73,0,0,0,3.113-1.145c-1.67-27.62-3.138-55.006-.382-83.192a2.955,2.955,0,0,1,5.035-1.794c16.548,16.733,33.479,32.085,51.528,47.216a2.528,2.528,0,0,0,4.149-1.805c5.377-107.01,20.577-455.176,22.215-491.081a2.834,2.834,0,0,0-2.85-2.962l-17.4.1a2.8,2.8,0,0,0-2.778,2.582c-2.1,27.351-20.512,266.493-30.554,387.974a2.03,2.03,0,0,1-3.57,1.144h0a18.916,18.916,0,0,1-4.509-13.031c1.933-48.254,12.89-317.995,18.524-374.752a3.673,3.673,0,0,0-3.659-4.038h-3.2a3.676,3.676,0,0,0-3.67,3.439C216.235,76.829,208.662,298.7,203.611,374.79a13.027,13.027,0,0,1-14.995,12.022A254.884,254.884,0,0,1,121.589,366.5c-14.9-6.941-33.792-19.472-30.909-64.58.452-7.083-7.155-48.954-34.618-80.4-15-17.179-30.2-34.674-46.482-50.506a1.775,1.775,0,0,0-3.006,1.259c-.007,7.209,2.666,13.559,8.43,19.137,12.637,12.1,24.452,25.063,36.378,37.882,6.593,7.059,10.955,15.863,14.327,24.936a2.077,2.077,0,0,1-3.5,2.1C46.561,238.42,28.767,223.451,8.832,210.144a2.442,2.442,0,0,0-3.8,2.055C5.51,255.309-.862,233.854,35.6,265.44c22.663,18.124,26.2,47.835,33.279,74.141,1.512,6.338-4.7,11.651-10.7,11.6-7.161.886-.268,6.852,2.584,8.76,13.116,10.053,26.436,19.851,39.31,30.206,28.064,22.574,36.92,47-11.664,75.219-2.112,1.227-3.692,2.359-5.773,1.378-21.326-10.053-51.4-28.721-76.479-41.312a1.183,1.183,0,0,0-1.708,1.089l.065,3.088a6.59,6.59,0,0,0,3.291,5.566c14.349,8.3,71.8,41.782,69.981,45.1C75.71,484.06,32.511,460,10.039,446.385Zm50.037,97.5c-10.211-4.192-17.864-11.781-25.248-19.72-2.385-2.46-2.194-4.758-.851-6.606a6.73,6.73,0,0,1,8.383-1.895c9.817,4.818,18.971,15.13,20.8,25.642C63.785,544.159,62.468,545.1,60.076,543.889Zm88.311-84.764c8.544,18.883.3,22.9-4.646,18.132a21.255,21.255,0,0,1-5.492-15.414C138.153,455.842,146.439,454.819,148.387,459.125Z" style="fill:#c0392b"/><path d="M589.976,227.8a14.3,14.3,0,0,0,4.662-9.993c.359-8.845.578-14.8.76-25.2.02-1.1-.758-3.077-1.336-3.142a5.16,5.16,0,0,0-3.708,1.262c-5.33,5.08-52.641,53.112-71.129,71.88a13.906,13.906,0,0,0-4.32,8.509c-2.236,12.8-4.995,42.115-6.157,55.052a7.1,7.1,0,0,1-6.933,6.465c-10.168.2-29.52.542-35.508.378a9.915,9.915,0,0,0-8.346,4.137c-7.175,10.036-24.94,34.868-33.761,47.061a55.755,55.755,0,0,0-8.748,18.506l-8.172,31.093a2,2,0,0,1-3.91-.215c-2.152-14.968-18.172-188.153-19.822-202.282-.484-2.639-.331-7-3.531-7.736-3.343.435-2.9,4.624-2.775,7.16,2.094,25.917,11.037,133.593,5.388,150.363-1.089,3.232-6.754-.955-7.49-4.5-4.8-26.225-7.472-52.709-9.586-79.266-5.833-60.869-12.329-121.686-16.968-182.665-2.97-35.188-6.257-70.352-8.526-105.595-.166-2.495-1.028-3.234-3.809-3.056l-18.317-.08c-3.338-.3-4.229.491-4.08,3.21.494,8.98,26.434,354.369,35.616,518.264a4.881,4.881,0,0,0,8.627,2.857c7.459-8.985,31.158-36.337,41.742-48.532a5.375,5.375,0,0,1,8.834,1.055l20.658,39.9a9.374,9.374,0,0,0,5.525,4.643c8.259,2.584,27.243,7.924,36.818,10.6a8.28,8.28,0,0,0,9.088-3.331l15.814-19.537a2.4,2.4,0,0,1,4.182,2.169c-4.354,15.17-14.346,48.23-18.388,66.06a1.414,1.414,0,0,0,2.474,1.206c4.068-4.987,18.176-22.032,24.392-29.538a3.059,3.059,0,0,1,5.085.56c3.641,7.155,14.919,27.271,19.619,35.622a7.306,7.306,0,0,0,6.342,3.728c10.477.05,37.645.153,51.042-.035,3.737-.009,3.653-.067,3.519-3.764l.533-176.268a4.153,4.153,0,0,0-6.351-3.539c-14.786,9.235-68.535,43.038-86.877,54.575a14.069,14.069,0,0,1-12.923,1.07L465.5,456.978A26.494,26.494,0,0,1,450.459,440.6c-5-15.729-11.755-43.087-3.473-56.409,8.714-12.007,18.558-26.643,35.01-27.227,11.223-.446,34.643-.63,44-.687a4.646,4.646,0,0,0,4.57-3.951c.572-3.784,5.232-28.288,8.256-44.107a33.291,33.291,0,0,1,13.987-21.283L585.373,264.8a13.382,13.382,0,0,0,5.069-6.555c1.395-3.891,3.249-9.45,3.371-11.822L555.765,268.8a1.729,1.729,0,0,1-2.234-2.56C566.949,249.387,582.524,234.584,589.976,227.8ZM506.7,493.126c1.853-5.842,5.041-12.042,9.385-9.67a5.84,5.84,0,0,1,2.186,7.8,34.147,34.147,0,0,1-3.653,6.032C511.782,499.908,505.067,497.944,506.7,493.126Z" style="fill:#c0392b"/><path d="M522.746,113.363A183.267,183.267,0,0,1,544.352,80.1c19.229-21.275,32.588-46.481,46.842-71.192a1.92,1.92,0,0,0-1.666-2.879c-15.592,0-30.817-.008-46.411,0-5.577.006-7.2,1.854-8.231,7.4-3.076,16.592-7.2,32.856-15.866,47.62-9.789,15.819-22.2,51.611-27.333,67.048a2.385,2.385,0,0,1-4.515-.035c-4.75-11.234-18.589-32.719-22.328-38.449a31.747,31.747,0,0,1-1.783-3.024c-15.2-30.106,6.423-70.964,11.139-79.226a1,1,0,0,0-.873-1.491H465.3a8.829,8.829,0,0,0-8.006,5.087c-6.216,13.3-20.053,50.328-.032,83.005,21.61,35.269,28.006,41.447,21.124,63.282-6.464,20.5-42.943,39.287-54.316,50.565-2.532,2.511-2.844,4.816-1.713,8.21,5.571,16.728,10.846,33.545,13.574,51.052,1.63,10.465-.836,16.39-10.29,21.342a8.109,8.109,0,0,0-4.644,6.211c-1.773,9.484-5.238,32.945-7.26,46.888a1.156,1.156,0,0,0,2.23.56l15.393-41.946a12.513,12.513,0,0,1,4.185-5.7c5.2-3.918,12.336-6.193,19.98-8.043a5.688,5.688,0,0,0,4.255-6.6c-2.332-12.149-7.828-41.373-8.61-50.946-.9-11,3.682-20.4,11.955-27.269,14.084-11.685,26.106-27.308,43.162-33.96,25.975-10.13,19-43.158,46.223-72.042,12.121-12.863,25.958-23.938,36.7-38.148A29.037,29.037,0,0,0,595.445,36.2a.725.725,0,0,0-1.406-.2c-7.475,21.261-33.747,41.821-42.625,51.016-12.263,12.7-22.736,26.518-28.442,43.6-2.2,5.446-4.456,11.181-7.587,16.291a1.5,1.5,0,0,1-2.738-1.149A220.956,220.956,0,0,1,522.746,113.363Z" style="fill:#c0392b"/><path d="M156.4,309.555c6.524,11.1,18.437,27.687,25.231,36.948a1.273,1.273,0,0,0,2.224-1.184l-13.11-36.734a14.854,14.854,0,0,1-.865-5.024c.011-8.767.875-21.531,1.124-29.327.1-2.983-.129-5.056-2.389-7.332-6.91-6.957-13.414-14.317-20.18-21.42a16.049,16.049,0,0,1-4.737-12.438c.393-31.95,5.193-63.4,7.975-95.127,3.753-26.907-10.319-48.646-24.991-69.663-15.24-20.14-10.6-41.485-1.3-63.2-18.226.022-12.628-1.975-18.1,15.482-7.494,29.286,6.661,47.238,22.923,69.7,10.909,15.848,5.556,57.738,2.491,76.3a7.175,7.175,0,0,1-10.311,5.233C99.045,160.021,37.244,118.875,46.209,15.494A9.453,9.453,0,0,0,36.645,5.185L11.17,5.648a3.335,3.335,0,0,0-3.081,4.465c4.395,12.188,26.084,65.761,35.9,89.94a1.783,1.783,0,0,1-3.1,1.709c-7.654-10.71-20.016-30.187-33.4-59.987a.885.885,0,0,0-1.692.343c-.083,6.1.532,18.452,6.039,28.365,7.656,14.078,17.6,28.975,25.459,42.941,10.713,20.873,25.339,40.8,45.971,51.447,35.454,18.295,36.989,37.021,37.176,48.109.175,11.275.37,22.553.321,33.829-.015,3.451.595,6.9,3.828,7.956,36.868,12.016,33.048,41.27,31.04,49.869A6.7,6.7,0,0,0,156.4,309.555Z" style="fill:#c0392b"/><path d="M365.306,10.662c-.345-4.881-.833-4.979-6.2-4.92-4.359.048-3.076,3-2.911,5.125,1.064,13.7,10.212,172.3,19.92,172.3C384.952,183.166,368.872,66.755,365.306,10.662Z" style="fill:#c0392b"/><path d="M15.777,333.846c6.921,3.642,14.266,6.479,21.421,9.68,2.129.953,4.2,1.106,5.762-.9,2.868-4.185-11.026-30.311-31.313-39.946C5.79,302.677,8.709,330.128,15.777,333.846Z" style="fill:#c0392b"/><path d="M4.507,346.063c.806,6.1,6.9,9.861,11.613,13.236,23.038,13.762,78.344,48.95,84.279,52.7,1.562,1.409,4.507.692,3.363-1.7-27.853-27.09-61.41-47.893-94.934-67.146A2.906,2.906,0,0,0,4.507,346.063Z" style="fill:#c0392b"/><path d="M577.261,342.877c-9.273,10.057-19.87,19-27.632,30.322l.574,1.03c13.969-4.414,26.918-12.261,40.4-18.146a4.55,4.55,0,0,0,2.056-3.354c.2-6.367.179-12.745.038-19.115C591.319,323.929,580.135,340.788,577.261,342.877Z" style="fill:#c0392b"/><path d="M191.666,216.353c-2.015-8.956-4.2-9.8-12.431-6.079-3.734,1.688-4.619,2.905-3.243,6.821a199.236,199.236,0,0,0,7.653,18.9C189.2,246.256,195.187,232,191.666,216.353Z" style="fill:#c0392b"/><path d="M498.237,408.378a6.153,6.153,0,0,0,8.133,8.487c5.769-1.973,11.248-6.8,12.58-12.812C517.888,389.921,500.692,400.183,498.237,408.378Z" style="fill:#c0392b"/><path d="M517.8,228.523c2.389-4.4-.788-9.2-5.772-9.072-4.829.226-7.725,3.423-9.9,7.087C497.447,239.284,514.169,236.849,517.8,228.523Z" style="fill:#c0392b"/><path d="M137.218,332.068c.007,4.6,1.006,5.466,5.464,5.463,2.134.187,4.183-.481,6.266-.86,4.789-.958,5.41-2.24,3.028-6.565C147.361,321.3,135.238,320.5,137.218,332.068Z" style="fill:#c0392b"/><path d="M381.5,205.355a3.761,3.761,0,1,0-7.5-.2C374.047,210.113,381.5,210.2,381.5,205.355Z" style="fill:#c0392b"/></svg>