<?xml version="1.0" ?><svg fill="#c0392b" data-name="Layer 4" id="Layer_4" viewBox="0 0 600 600" xmlns="http://www.w3.org/2000/svg"><title/><path d="M550.727,148.15a151.165,151.165,0,0,1,38.948-17.777c2.126-.629,2.948-2.253,2.972-4.637.781-23.311.551-80.455.5-91.849a1.544,1.544,0,0,0-1.95-1.479c-76.125,20.638-76.077,63.624-154.012,134.44a3.639,3.639,0,0,0,3.56,6.162c27.6-8.967,42.43-13.263,72.064-15.221a2.754,2.754,0,0,1,1.84,4.948c-27.663,20.96-93.452,22.156-149.182,74.027-5.534,5.151-6.731,10.608-3.329,17.442,15,32.493,38.414,71.187,59.007,93,2.67,2.828,5.68,4.2,9.368,2.907,5.645-1.975,35.533-13.13,48.1-15.581,26.61-5.19,53.284-10.051,79.932-15.044,9.662-1.976,19.882-3.543,28.413-8.779,1.787-1.411,2.917-3.3,2.144-5.692-1.771-5.04-7.973-3.07-12-2.691-13.273,2.567-26.531,5.214-39.867,7.435a1.257,1.257,0,0,1-.692-2.4c14.439-6.1,28.875-12.217,43.2-18.564,9.756-4.349,13.806-11.569,13.341-22.179.143-34.271-.115-97.6-.2-116.414a4.3,4.3,0,0,0-5.164-4.2c-9.124,1.841-25.736,4.32-35.636,5.746A1.973,1.973,0,0,1,550.727,148.15Z" style="fill:#c0392b"/><path d="M78.278,354.262c4.679,22.924,21.62,90.962,62.839,122.366,10.807,8.234,31.962-22.691,8.419-79.934a1.445,1.445,0,0,1,1.922-1.872c30.28,13.276,64.612,5.792,76.91,2.346A1.345,1.345,0,0,1,229.7,399.4c-5.129,5.289-16.344,15.8-35.085,28.315a34.854,34.854,0,0,0-15.329,25.814,176.175,176.175,0,0,0,7.27,68.6c3.844,12.1,20.122,4.5,28.092.466,67.148-33.986,87.771-78.826,91.967-91.064a7.676,7.676,0,0,0-1.561-7.659c-36.7-40.362-59.318-88.314-66.608-105.135a10.118,10.118,0,0,0-9.7-6.35c-69.7,4.873-125.375,23.933-144.631,31.264A9.345,9.345,0,0,0,78.278,354.262Z" style="fill:#c0392b"/><path d="M16.238,403.905c-10.42,6.638-12.1,21.681-5.665,32.226,3.987,6.532,10.334,10,17.045,4.123,20.134-17.615,31.625-20.466,41.159-21.85A8.967,8.967,0,0,0,76.3,407.683C74.893,401.056,61.524,375.055,16.238,403.905Z" style="fill:#c0392b"/><path d="M111.892,584.264c6.329,2.046,11.913-2.211,16.664-5.806q17.073-14.568,33.916-29.4c6.641-5.09,6.338-17.9,4.888-28.754-1.032-7.736-10.842-14.059-17.016-8.264-18.231,14.492-37.253,28-53.844,44.4C86.145,565.343,101.8,582.405,111.892,584.264Z" style="fill:#c0392b"/><path d="M31.632,464.25a15.5,15.5,0,0,0-2.477,12.95c4.325,17.141,19.148,22.564,32.387,7.548,9.113-10.336,21.348-17.556,31.556-23.911a9.328,9.328,0,0,0,3.883-10.988A117.7,117.7,0,0,0,92,438.236a9.1,9.1,0,0,0-11.141-4.606C68.436,437.92,43.394,448.16,31.632,464.25Z" style="fill:#c0392b"/><path d="M107.766,477.25c-10.138,2.22-47.65,27.4-46.2,39.7,1.414,11.951,13.777,27.626,23.312,20.485,13.149-9.609,27.408-18.243,37.247-31.422C130.656,494.582,115.425,475.573,107.766,477.25Z" style="fill:#c0392b"/><path d="M144.966,37.562c-25.754,6.391-24.731-17.993-27.6-19.81-2.2-1.393-4.076-.976-18.765-.867a1.513,1.513,0,0,0-1.424,1.986c10.415,30.892,20.869,42.211,54.258,31.2,7.28-2.912,12.521,12.812,5.2,17.339-18.11,11.8-18.93,17.375-14.871,37.521,9.911,49.179,42.505,56.977,56.893,52.3a2.333,2.333,0,0,0,1.405-3.138q-2.76-6.477-5.519-12.964a4.1,4.1,0,0,0-4.671-2.414c-6.483,1.469-21.532.394-32.059-35.453-5.387-18.345,11.889-24.358,16.28-14.657,9.927,21.937,26.563,9.831,14.685-9.4a2.948,2.948,0,0,1,1.264-4.228c4.915-2.251,14.89-4.784,21.787,7.028,5.2,8.9,9.941,17.58,14.56,26.79,2.217,4.422,3.057,10.192-2.812,13.964a6.287,6.287,0,0,1-8.355-.815s-3.853-8.159-7.212-10.1c-3.395-1.957-6.759-1.666-9.137.227a7.409,7.409,0,0,0-1.787,9.136c4.127,8.134,15.04,28.381,19.515,37.85,1.086,2.3.923,4.223-1.346,4.978C176.494,176.938,216.793,226,226.28,243c7.436,14.77,21.455,14.389,34.8,7.965,5.677-3.611,9.622-1.458,12.766,3.02,7.955,12.5,14.968,27.6,21.137,41.072.465,1.016-.044,1.616-1.136,1.381-8.586-1.844-17.24-11.937-21.245-17.188a2.878,2.878,0,0,0-4.656.111,125.19,125.19,0,0,0-10.265,17.605,14.5,14.5,0,0,0-.275,11.178c9.393,28.264,28.487,51.872,44.225,76.8,26.618,42.162,53.33,44.24,62.969,42.807a12.23,12.23,0,0,1,6.056.6c6.745,2.5,23.011,5.913,30.317-15.286,3.978-11.542,24.687-16.835,17.867-36.408-2.226-6.39-6.318-12.19-10.533-17.465-27.654-34.309-50.513-71.936-69.731-111.528-3.1-6.048-6.427-7.768-12.9-5.895-7.5,1.3-28.363,26.769-42.5-1.233-2.126-4.211,6.4-8.165,9-9.77,21.125-13.219,3.476-36.438-4.568-51.515-9.207-14.737-14.3-39.242-44.273-26.121-8.753,3.831-14.217-6.051-16.206-10-.762-1.509-.809-3.786.7-4.55,18.765-9.5,20.945-21.183,14.619-34.428-6.083-13.328-13.645-25.911-21.075-38.516-6.295-10.82-29.3-14.6-40.27-9.795-5.2,2.277-7.167-5.584-7.928-9.473-1.31-6.7,16.7-8.024,22.709-11.887,8.339-5.362,5.3-13.3,3.133-17.1a4.309,4.309,0,0,0-3.746-2.181h-12.3a.968.968,0,0,0-.87,1.383c1.588,3.388,2.3,5.842,1.266,7.493a7.9,7.9,0,0,1-4.14,3.155l-5.376,1.875c-10.047,2.912-12.173-2.929-12.986-6.459a9.573,9.573,0,0,0-4.238-6.117c-5.867-3.556-11.829.417-10.876,7.189.326,2.321,1.527,5.84,2.236,8.913A4.135,4.135,0,0,1,144.966,37.562Zm219.993,338.06a18.068,18.068,0,0,1,8.56.488c18.052,5.437,9.967,29.882-8.449,27.171C350.935,401.2,348.2,378.81,364.959,375.622Zm-15.314-25.534C349.086,369.1,321.129,372.7,320,351.13,319.553,332.261,348.931,332.015,349.645,350.088ZM326.335,309.8c-.53,18.035-27.054,21.453-28.123.989C297.786,292.883,325.658,292.649,326.335,309.8ZM235.148,186.819c2.73,5.041,6.02,14.707,12.423,11.925,15.91-7.581-7.9-22.077,2.772-28.164,16.129-9.2,25.708,19.431,32.205,33.058,3.686,10.721-2.5,13.441-5.144,15.346-10.722,6.1-9.25-7.568-17.047-10.426-8.436-1.248-12.726,5.635-7.339,14.152,4.2,7.417-1.5,15.195-10.3,11.621-10.971-5.456-20.7-23.34-25.438-39.1C211.812,177.99,229.472,174.416,235.148,186.819Z" style="fill:#c0392b"/></svg>