<svg fill="#c0392b" xmlns="http://www.w3.org/2000/svg" x="0px" y="0px" width="100" height="100" viewBox="0 0 50 50">
<path d="M 37.728516 2.7871094 C 37.472766 2.7871094 37.216984 2.8845781 37.021484 3.0800781 C 36.630484 3.4710781 36.630484 4.1031406 37.021484 4.4941406 L 38.435547 5.9082031 L 37.021484 7.3222656 L 35.607422 5.9082031 C 35.216422 5.5172031 34.584359 5.5172031 34.193359 5.9082031 C 33.802359 6.2992031 33.802359 6.9312656 34.193359 7.3222656 L 35.607422 8.7363281 L 34.900391 9.4433594 C 34.379085 9.9646648 34.213158 10.702949 34.388672 11.369141 L 26.332031 19.425781 C 20.283729 18.307933 9.1978123 22.416453 6.6152344 25 C 2.520191 29.095043 1.6478579 35.266433 4.3476562 40.300781 L 4.109375 40.478516 C 3.645375 40.827516 3.3554531 41.3585 3.3144531 41.9375 C 3.2734531 42.5155 3.4864844 43.082188 3.8964844 43.492188 L 6.5078125 46.103516 C 6.8848125 46.480516 7.393875 46.689453 7.921875 46.689453 C 7.969875 46.689453 8.0164531 46.688547 8.0644531 46.685547 C 8.6434531 46.644547 9.1744375 46.355625 9.5234375 45.890625 L 9.6972656 45.658203 C 11.591866 46.67336 13.691958 47.207031 15.828125 47.207031 C 19.278125 47.207031 22.536953 45.849766 25.001953 43.384766 C 27.585584 40.799197 31.689356 29.705507 30.576172 23.666016 L 38.630859 15.611328 C 38.798694 15.655598 38.970078 15.685547 39.142578 15.685547 C 39.654578 15.685547 40.166641 15.490563 40.556641 15.101562 L 41.263672 14.394531 L 42.677734 15.808594 C 42.872734 16.003594 43.128766 16.101562 43.384766 16.101562 C 43.640766 16.101562 43.895797 16.003594 44.091797 15.808594 C 44.482797 15.417594 44.482797 14.785531 44.091797 14.394531 L 42.677734 12.980469 L 44.091797 11.564453 L 45.505859 12.978516 C 45.700859 13.173516 45.956891 13.271484 46.212891 13.271484 C 46.468891 13.271484 46.724922 13.174516 46.919922 12.978516 C 47.310922 12.587516 47.310922 11.955453 46.919922 11.564453 L 45.505859 10.150391 L 46.212891 9.4433594 C 46.992891 8.6643594 46.992891 7.3942344 46.212891 6.6152344 L 43.384766 3.7871094 C 42.605766 3.0081094 41.335641 3.0081094 40.556641 3.7871094 L 39.849609 4.4941406 L 38.435547 3.0800781 C 38.240047 2.8845781 37.984266 2.7871094 37.728516 2.7871094 z M 41.970703 5.2011719 L 44.798828 8.0292969 L 43.384766 9.4433594 C 43.384766 9.4433594 43.384766 9.4453125 43.384766 9.4453125 L 39.144531 13.6875 L 36.314453 10.857422 L 41.970703 5.2011719 z M 35.605469 12.980469 L 37.021484 14.392578 L 37.019531 14.394531 L 30.03125 21.382812 L 23.585938 27.828125 L 22.171875 26.414062 L 28.617188 19.96875 L 35.605469 12.980469 z M 15.865234 26 C 16.081984 26 16.299344 26.082547 16.464844 26.248047 C 16.794844 26.579047 16.795844 27.114313 16.464844 27.445312 C 16.144844 27.765313 15.635734 27.769703 15.302734 27.470703 L 13.5 29.273438 L 13.470703 29.242188 L 14.068359 31.039062 L 12.271484 30.441406 L 9.2773438 32.238281 C 8.9463438 32.569281 8.409125 32.569281 8.078125 32.238281 C 7.747125 31.907281 7.747125 31.370062 8.078125 31.039062 C 8.409125 30.708063 8.9463438 30.708063 9.2773438 31.039062 L 11.074219 29.242188 L 10.474609 27.445312 L 12.271484 28.044922 L 15.267578 26.248047 C 15.433078 26.082547 15.648484 26 15.865234 26 z M 23.152344 33.287109 C 23.369094 33.287109 23.586453 33.369656 23.751953 33.535156 C 24.082953 33.866156 24.082953 34.402422 23.751953 34.732422 L 21.955078 37.728516 L 22.554688 39.525391 L 20.757812 38.925781 L 18.960938 40.722656 C 19.291937 41.053656 19.291938 41.590875 18.960938 41.921875 C 18.629938 42.252875 18.092719 42.252875 17.761719 41.921875 C 17.430719 41.590875 17.430719 41.053656 17.761719 40.722656 L 19.558594 37.728516 L 18.960938 35.931641 L 20.757812 36.529297 L 22.554688 34.732422 C 22.223688 34.401422 22.223687 33.866156 22.554688 33.535156 C 22.720188 33.369656 22.935594 33.287109 23.152344 33.287109 z M 9.3496094 39.048828 L 10.951172 40.650391 L 9.6113281 42.439453 L 7.9785156 44.615234 L 7.9804688 44.617188 L 7.9238281 44.691406 L 5.3085938 42.078125 L 9.3496094 39.048828 z"></path>
</svg>