<?xml version="1.0" ?><svg fill="#c0392b" data-name="Layer 5" id="Layer_5" viewBox="0 0 600 600" xmlns="http://www.w3.org/2000/svg"><title/><path d="M265.229,296.455l9.144,9.4a3.385,3.385,0,0,1-.065,4.787l-9.395,9.144a3.384,3.384,0,0,0-.065,4.786l9.144,9.395a3.384,3.384,0,0,0,4.786.065l9.4-9.144a3.384,3.384,0,0,1,4.786.065l9.144,9.4a3.384,3.384,0,0,0,4.786.065l9.4-9.144a3.386,3.386,0,0,0,.064-4.787l-9.144-9.395a3.386,3.386,0,0,1,.065-4.786l9.395-9.144a3.384,3.384,0,0,0,.065-4.786l-9.144-9.395a3.384,3.384,0,0,0-4.786-.065l-9.395,9.144a3.386,3.386,0,0,1-4.787-.065l-9.144-9.4a3.384,3.384,0,0,0-4.786-.065l-9.4,9.144A3.384,3.384,0,0,0,265.229,296.455Z" style="fill:#c0392b"/><path d="M369.235,298.975a2.065,2.065,0,0,0,3.089.263,82.962,82.962,0,0,0,14.7-18.889,2.049,2.049,0,0,0-.473-2.591l-7.794-6.529a2.05,2.05,0,0,0-3.076.517,60.709,60.709,0,0,1-12.817,15.348,2.043,2.043,0,0,0-.314,2.767Z" style="fill:#c0392b"/><path d="M330.306,316.745a63.111,63.111,0,0,0,26.7-7.254,2.065,2.065,0,0,0,.839-2.87l-6.276-10.752a2.049,2.049,0,0,0-2.628-.83,56.694,56.694,0,0,1-19.64,5.274,2.048,2.048,0,0,0-1.906,2.17l.721,12.328A2.066,2.066,0,0,0,330.306,316.745Z" style="fill:#c0392b"/><path d="M88.325,509.538c-1.674,14.709,8.405,30.875,22.3,35.994,41.379,15.249,90.579,3.952,99.247.29,56.942-24.055,75.263-54.5,120.5-70.118,22.142-7.533,44.522-14.366,66.8-21.5,2.26-.475,4.54-1.272,5.548-3.478,1.157-6.412-3.126-28.194-4.4-39a1.3,1.3,0,0,1,2.453-.715s11.8,18.4,19.644,32.724c1,1.819,1.567,3.345,3.99,2.5,63.784-22.235,114.026-14.923,130.383-8.616a12.167,12.167,0,0,1,5.823,18.07c-13.3,19.932-34.409,40.194-79.748,26.816-5.836-1.722-10.864-8.968-4.931-13.744,8.178-7.092,24.763-12.708,39.916-13.758a4.091,4.091,0,0,1,3.442,6.671c-1.659,2.041-3.646,4.351-5.845,6.645a3.006,3.006,0,0,0,2.913,5c21.907-5.879,22.694-17.986,21.541-24.054a5.6,5.6,0,0,0-4.339-4.407c-21.62-4.647-48.545-3.245-69.74,5.267-20.516,8.24-15.752,26.588-15.752,26.588,4.8,23.625,60.528,28.965,83.293,20.738,32.95-11.907,49.51-31.523,57.433-45.087a26.81,26.81,0,0,0,.378-26.254c-61.289-113.167-90.606-254.32-103.083-319.67-5.249-27.5-29.372-41.757-45.137-48.268a34.739,34.739,0,0,0-26.013-.094c-27.109,10.708-83.279,58.727-172.55,44.617a3.456,3.456,0,0,0-3.987,3.44l.23,36.1a2.154,2.154,0,0,1-4.136.856l-15.736-37.044a13.586,13.586,0,0,0-9.686-7.981c-12.573-2.666-29.027-6.15-39.852-8.441a3.65,3.65,0,0,0-4.407,3.622c.271,23.118,3.486,132.907,39.124,301.475,14.487,68.522,44.538,101.549-17.99,136.239-18.139,10.064-50.912,12.776-69.033,3.7-15.458-7.7-13.952-30.244-6.468-43.724a14.208,14.208,0,0,0,1.624-8.448c-1.211-11.077-3.994-37.683-4.305-50.82a1.414,1.414,0,0,1,2.745-.5l13.648,38.1a7.309,7.309,0,0,0,9.378,4.42c20.419-7.465,70.884-18.228,46.24,20.04-9.45,14.674-44.6,25.221-34.547,6.291,2.5-4.7,10.368-10.378,16.089-14.068,1.7-1.1.692-4.314-1.209-3.612-14.961,5.523-23.521,11.423-28.159,16.993-8.449,10.148-1.539,25.415,11.653,26.01,41.735,1.884,68.355-32.394,60.144-57.572-.9-2.753-1.852-5.483-2.663-8.263-10.926-37.429-71.775-252.754-69.2-397.454a6.867,6.867,0,0,0-4.046-6.4c-12.384-5.582-50.66-19.179-89.18,4.581a3.91,3.91,0,0,0-1.769,4.207l9.874,42.527a1.284,1.284,0,0,1-2.3,1.027L24.636,79.613a3.885,3.885,0,0,0-6.439.1c-3.286,5.033-8.135,12.683-9.519,16.057a14.619,14.619,0,0,0,.7,12.56C100.55,274.976,96.71,435.882,88.325,509.538ZM356.2,404.3c-9.074,6.646-18.6,12.434-30.6,8.782-3.022-1.463-12.874-3.954-10.134-8.614,1.611-3.278,2.916-7.588,6.674-8.894,7.229-2.18,14.561-3.988,23.486-4.166a12.376,12.376,0,0,1,11.2,5.053C359.228,399.541,359.312,402.018,356.2,404.3Zm77.956-155.979c1.42-8.911,9.529-38.232,22.464-30.466,4.926,4.574,10.109,8.889,14.792,13.7,4.38,5.532,3.257,13.186,4.2,20.048-.494,3.6-.955,7.429-1.559,11.236-1.795,10.007-16.636,7.321-23.265,4.122C443.652,262.64,431.783,258.8,434.152,248.321Zm-25.662-23.6a63.094,63.094,0,0,1-5.782,27.057,2.065,2.065,0,0,1-2.721,1.061L388.7,247.83a2.047,2.047,0,0,1-1.055-2.688,56.7,56.7,0,0,0,4.307-19.875,2.051,2.051,0,0,1,1.942-1.956l12.432-.653A2.063,2.063,0,0,1,408.49,224.718Zm-25.917-36.482,8.877-7.76a2.052,2.052,0,0,1,2.575.555c4.52,5.89,10.131,13.573,11.962,23.869a2.2,2.2,0,0,1-1.426,2.753l-10.979,2.687a1.962,1.962,0,0,1-2.436-1.349c-1.253-6.262-3.789-11.51-9.273-17.716A2.006,2.006,0,0,1,382.573,188.236Zm-18.549-47.024c20.789,1.417,21.642,32.075-.349,32.493C342.829,171.993,342.49,142.294,364.024,141.212Zm-94.053,59.094A17.372,17.372,0,0,1,283.5,185.1l22.715-5.151c4.455-1.01,8.906.177,13.027,2.149,46.747,22.371,13.274,65.77,103.774,89.273,49.463,12.846,33.8,75-6.14,83.431-60.921,12.865-55.531-12.4-109.815,20.545a43.5,43.5,0,0,1-52.295-5.4c-10.82-10.159-20.673-21.916-20.541-30.959.508-34.689,26.789-61.709,34.822-94.861C272.751,229.066,268.584,215.072,269.971,200.306Zm-48.883,84.37c-5.394-8.555-21.608-25.47-21.326-46.341,1.96-14.118,10.767-26.855,16.236-33.593a6.07,6.07,0,0,1,9.053-.417c5.673,5.793,15.028,15.68,18.9,21.7C254.492,242.405,230.483,298.417,221.088,284.676Z" style="fill:#c0392b"/></svg>