<?xml version="1.0" ?><svg fill="#c0392b" data-name="1" id="_1" viewBox="0 0 600 600" xmlns="http://www.w3.org/2000/svg"><title/><path d="M67.455,362.426c52.957,30.517,112.175,64.077,136.182,75.638a23.8,23.8,0,0,0,27.931-5.431l54.069-59.423a26.57,26.57,0,0,1,39.383.087l57.9,64.193a23.8,23.8,0,0,0,28.568,5.227c20.013-10.3,75.98-44.8,127.722-77.216,56.6-35.463,68.052-103.888,35.283-161.862l-21.9-38.005a23.879,23.879,0,0,0-28.988-9.272L332.262,222.3a102.743,102.743,0,0,1-66.492,3.423L60.894,167.141a23.878,23.878,0,0,0-27.832,12.1L20.5,203.838A120.029,120.029,0,0,0,67.455,362.426Zm297.426-82.917c9.993-9.41,61.971-30.509,103.782-46.541,32.4-12.422,64.484,19.81,51.3,51.9-10.272,24.994-32.979,49.872-80.422,62.482-21.474,5.707-44.476,3.169-63.666-8.03C353.061,326.009,339.53,303.383,364.881,279.509ZM132.519,237.88c33.854,7.919,78.342,20.438,107.7,36.777,16.976,9.448,24.694,31.406,13.186,49.4-9.313,12.014-22.672,18.918-37.074,22.669a99.528,99.528,0,0,1-57.286-2.429c-23.655-8.109-53.444-24.693-68.1-53.359C76.555,262.792,101.74,230.68,132.519,237.88Z" style="fill:#c0392b"/></svg>