<?xml version="1.0" ?><svg fill="#c0392b" data-name="Layer 5" id="Layer_5" viewBox="0 0 600 600" xmlns="http://www.w3.org/2000/svg"><title/><path d="M141.568,209.064a4.847,4.847,0,0,0-4.278,3.486,62.575,62.575,0,0,1-13.257,21.561c-16.954,18.03-36.223,33.493-53.216,51.468a7.822,7.822,0,0,0,2.019.525c24.731-3.2,50.431-1.434,74.321-8.611,95.108-28.571,116.811-11.588,147.692-14.317,46.937-4.149,100.374-20.267,121.05-16.122,15.364,2.8,31.185-.113,46.252-3.8,20.619-5.039,49.043-8.426,66.812-9.269a18.12,18.12,0,0,0,15.287-9.826c7.935-15.472,20.117-47.374,7-79.458a5.273,5.273,0,0,0-6.58-3.008c-39.866,13.671-103.462-1.9-153.739,19.545a5.2,5.2,0,0,0-3.125,5.335c3.2,30.061-20.1,25.9-40.032,42.379-76.289,63.05-98.042,2.163-81.272-26.545,5.953-10.668,14.542-18.227,25.5-24.414,46.572-26.29,71.573-15.818,79.756-10.532a9.187,9.187,0,0,0,7.35,1.18c91.219-24.268,127.444-12.388,156.536-23.427a3.388,3.388,0,0,0,1.706-4.949c-6.693-10.658-15.855-19.873-20.724-24.421a10.423,10.423,0,0,0-7.7-2.771c-32.935,1.833-66.236,2.374-97.477,14.2-20.875,7.264-42.848,9.354-64.8,10.435-18.687.737-25.772,2.854-56.021,14.17-29.135,10.9-59,2.39-82.311,14.292-10.164,5.19-23.98,9.3-36.386,12.082A22.118,22.118,0,0,0,157.3,169.392L145.852,190.71a2.976,2.976,0,0,0,2.776,4.384c17.668-.943,73.445-3.506,71.723,1.832C218.306,203.265,159.935,206.264,141.568,209.064Z" style="fill:#c0392b"/><path d="M203.758,320.357c-5.746,2.1-14.951,5.473-52.53,3.987C111.476,322.772,101.3,344,33.424,348.187a5.611,5.611,0,0,0-3.809,1.827c-7.5,8.262-9.5,19.613-12.432,27.06a5.525,5.525,0,0,0,5.259,7.559c14.96-.347,39.158.592,62.173-6.69,42.211-13.357,162.192-9.893,213.95-27.252,27.716-9.3,35.119-2.294,79.8-8.944,81.119-12.072,112.457-39.749,150.378-83.09a3.071,3.071,0,0,0-2.906-5.041c-19.328,3.918-38.859,4-58.636,4.072-9.44.111-17.355,6.273-26.546,7.868-13.671,3.1-29.878,1.363-43.595,1.025-67.363-1.658-66.589,25.843-149.877,13.224-29.681-4.5-101.967,18.187-160.126,22.5-15.291,1.134-22.508.3-26.864.716A8.64,8.64,0,0,0,54.66,305.8a100.325,100.325,0,0,0-12.708,17.673,3.127,3.127,0,0,0,2.933,4.657c31.709-2.133,40.013-5.316,59.777-10.472,10.531-2.517,21.213-4.439,32.061-4.428,7.466.007,14.953.706,22.394,1.461,12.515,1.271,24.689.068,37.217-1.794C211.525,310.636,210.907,317.473,203.758,320.357ZM231.639,308.3c8.46-.067,8.537,12.228.057,12.4C223.161,320.569,223.031,308.753,231.639,308.3Z" style="fill:#c0392b"/><path d="M8.967,408.238C6.215,420.314,2.123,449,20.353,464.673c50.824,43.708,160.9,40.772,222.956-35.207a3.819,3.819,0,0,0-2.529-6.22c-30.885-3.521-61.692,2.315-92.516,4.9-3.449-.207-9.171,2.306-11.036-1.7-1.4-4.428,4.836-6.5,8.428-7.1,26.553-5.838,54.211-3.942,80.452-11.543,9.859-2.644,19.87-2,29.774-.967,3.713.386,5.858-.3,8.044-3.063,8.792-11.47,19.148-20.847,30.25-29.8a2.069,2.069,0,0,0-1.715-3.64c-12.445,2.642-46.21,14.542-98.532,14.305-32.12-.146-68.7-3.942-98.863,6.686C73.86,398.794,31.1,401.6,15.932,402.39A7.535,7.535,0,0,0,8.967,408.238Z" style="fill:#c0392b"/><path d="M175.562,139.76c64.52-27.334,91.753-10.088,134.039-32.124,20.966-10.925,54.024-2.082,75.969-9.906,49.22-17.549,88.153-22.186,103.2-23.384a3.022,3.022,0,0,0,1.777-5.265c-14.06-12.539-58.415-44.129-137.493-31.257-68.113,11.087-135.56,45.091-179.863,98.751A2.044,2.044,0,0,0,175.562,139.76Z" style="fill:#c0392b"/><path d="M555.919,323.225a6.486,6.486,0,0,0,.2-6.972l-18.634-31.041a6.456,6.456,0,0,0-10.458-.863C512.307,301.663,476.122,339.6,414.1,352.9c-33.428,7.17-75.186,8-103.809,29.891a5.684,5.684,0,0,0-1.422,7.493l18.9,30.739a5.635,5.635,0,0,0,8.065,1.669c13.379-9.6,44.938-21.134,60.931-25.083C465.151,382.186,514.765,384.006,555.919,323.225Z" style="fill:#c0392b"/><path d="M288.747,408.15c-20.482,28.726-67.278,94.084-157.949,109.926a4.807,4.807,0,0,0-2.932,7.715c9.547,12.06,21.331,29.045,26.392,36.434a6.893,6.893,0,0,0,7.01,2.85c64.98-12.486,119.867-50.373,152.9-115.712a9.577,9.577,0,0,0-.192-9.026l-17.947-31.8A4.318,4.318,0,0,0,288.747,408.15Z" style="fill:#c0392b"/><path d="M130.021,560.973c-6.562-8.875-21.488-29.143-28.815-39.758a10.607,10.607,0,0,0-7.676-4.706c-19.137-2.824-36.871-9.8-53.881-18.885-1.776-.928-7.215-1.591-3.867,4.533C53.68,534.892,88.8,563.1,127.716,565.2A2.657,2.657,0,0,0,130.021,560.973Z" style="fill:#c0392b"/><path d="M364.748,157.414c-26.163-12.648-82.187,8.092-91.849,38.907-2.854,9.1-1.019,16.386,1.262,20.746a1.784,1.784,0,0,0,3.335-.522c7.8-42.2,71.15-55.964,94.69-44.079a1.788,1.788,0,0,0,2.558-2.063C373.722,166.893,371.691,160.771,364.748,157.414Z" style="fill:#c0392b"/><path d="M572.053,162.709c1.307,16.361-.945,44.869-7.265,64.571-.947,2.954-1.419,6.02.483,8.471L582.459,257.9a3.749,3.749,0,0,0,6.582-1.3c2.023-7.5,3.682-19.121,4.327-32.966,1.233-26.465-9.693-50.066-16.715-62.33A2.464,2.464,0,0,0,572.053,162.709Z" style="fill:#c0392b"/><path d="M557.073,251.851a2.428,2.428,0,0,0-4.189.089,67.976,67.976,0,0,1-6.274,9.428,6.63,6.63,0,0,0-.458,7.738l20.492,32.315a2.433,2.433,0,0,0,3.933.253,46.2,46.2,0,0,0,8.015-14.085,2.392,2.392,0,0,0-.289-2.083C572.493,276.779,561.725,259.4,557.073,251.851Z" style="fill:#c0392b"/></svg>