<?xml version="1.0" ?><svg fill="#c0392b" data-name="1" id="_1" viewBox="0 0 600 600" xmlns="http://www.w3.org/2000/svg"><title/><path d="M225.259,219.566a363.255,363.255,0,0,0-44.55,44.406,43.4,43.4,0,0,1-22.674,14.107l-24.783,4.366a3.2,3.2,0,0,0-1.058,5.91c23.275,13.541,100.539,54.3,148.528,65.552a6.747,6.747,0,0,0,9.23-6.192c.435-36.512-2.15-162.544,7.281-162.544,9.327,0,9.557,122.374,10.276,160.406a7.3,7.3,0,0,0,9.409,6.844c54.882-16.538,116.307-48.381,141.832-63.5a5.5,5.5,0,0,0-2.026-10.179l-13.435-1.936a77.318,77.318,0,0,1-37-15.938l-39.206-31.08s-45.605-34.813-29.232-74.6a3.125,3.125,0,0,0-4.463-3.9l-20.9,10.5a33.44,33.44,0,0,1-29.625.2l-53.007-25.748a3.8,3.8,0,0,0-5.32,4.409l11.926,43.9A33.938,33.938,0,0,1,225.259,219.566Z" style="fill:#c0392b"/><path d="M26.143,87.035c18.6,91.7,132.371,123.625,162.242,130.484a14.959,14.959,0,0,0,12.752-2.943c3.183-2.57,7.777-7.966,11.76-12.972a25.077,25.077,0,0,0,4.444-22.776c-10.518-35.268-18.258-81.555-3.375-124.521a25.258,25.258,0,0,0,.557-12.443c-2.116-8.085-7.216-14.415-16.7-15.8-28.16-4.408-78.086-3.366-96.05-2.81A27.55,27.55,0,0,0,89.2,26.722c-12.749,7.1-42.782,24.391-55.7,36.632A25.493,25.493,0,0,0,26.143,87.035Z" style="fill:#c0392b"/><path d="M526.005,35.724a41.586,41.586,0,0,0-24.013-11.875c-20.018-2.639-58.147-6.268-92.367-1.584a14.287,14.287,0,0,0-11.7,18.5c11.889,36.888,3.819,59.408-1.7,69.2a3.286,3.286,0,0,0,2.907,4.907c30.775-.487,67.5,43.791,39.862,80.992-2.5,3.364-1.056,4.888,3.21,4.889,76.788.03,114.216-63.376,127.062-91.57a26.945,26.945,0,0,0-2.323-26.4C555.6,66.27,537.3,47.045,526.005,35.724Z" style="fill:#c0392b"/><path d="M251.7,69.433c-4.842,14.323-18.741,29.7-26.213,37.243a4.959,4.959,0,0,0,1.325,7.96c13.515,7.013,45.468,23.583,59.283,30.653a23.484,23.484,0,0,0,22.465,0c7.024-3.6,41.579-23.835,56.947-32.859a4.965,4.965,0,0,0,.3-8.465c-14.978-10.339-22.391-26.7-25.3-34.777a5.367,5.367,0,0,0-6.577-3.207,141.2,141.2,0,0,1-75.7.1A5.346,5.346,0,0,0,251.7,69.433Z" style="fill:#c0392b"/><path d="M561.377,255.576a19.73,19.73,0,0,0,10.086-10.682c7.878-20.348,7.541-52.536-4.105-71.074a6.686,6.686,0,0,0-10.2-1.279c-24.4,22.683-63.206,48.313-127.114,47.148a11.914,11.914,0,0,0-7.112,2.1c-8.048,5.706-20.459,6.78-27.447,6.894a1.711,1.711,0,0,0-1,3.084l22.294,16.72c9.251,7.679,21.342,11.367,33.3,12.911C478.447,265.059,531.879,269.412,561.377,255.576Z" style="fill:#c0392b"/><path d="M24.674,244.525A15.267,15.267,0,0,0,34,256.365c48.406,19.183,100.029,9.141,118.832,4.327a19.938,19.938,0,0,0,11.5-8.137l7.851-11.523a5.386,5.386,0,0,0-3.22-8.3C98.228,217.8,59.789,184.791,45.629,170.1a6.739,6.739,0,0,0-11.074,2.075C28.584,185.8,19.584,212.939,24.674,244.525Z" style="fill:#c0392b"/><path d="M453.3,322.356a5.358,5.358,0,0,0-7.707-4.642L400.668,339.59a5.344,5.344,0,0,0-2.9,5.922c2.084,9.65,9.408,32.429,31.586,27.883C451.906,368.772,453.752,337.467,453.3,322.356Z" style="fill:#c0392b"/><path d="M368.183,398.619c20.7-7.5,19.7-32.924,17.913-45.157a5.355,5.355,0,0,0-7.365-4.146l-37.885,15.809a5.352,5.352,0,0,0-3.275,5.444C338.559,380.966,343.5,407.562,368.183,398.619Z" style="fill:#c0392b"/><path d="M415.633,431.921c17.627-4.314,17.706-24.858,16.779-36.605-.272-3.456-2.567-6.278-6.012-5.89-10.613,1.195-18.348-1.5-22.993-4a3.814,3.814,0,0,0-5.524,2.661c-1.057,5.279-4.385,12.861-14.341,18.395-2.363,1.313-3.084,4.11-2.317,6.7C384.25,423.405,397.648,436.323,415.633,431.921Z" style="fill:#c0392b"/><path d="M342.622,454.713c20.428-4.6,21.3-24.864,19.757-34.689A5.337,5.337,0,0,0,357,415.482c-9.013.251-14.992-3.021-18.533-5.988a3.806,3.806,0,0,0-5.963,1.54A35.463,35.463,0,0,1,315.222,430a5.34,5.34,0,0,0-2.146,7.706C317.922,445.114,328.293,457.94,342.622,454.713Z" style="fill:#c0392b"/><path d="M388.34,481.13c15.584-6.261,16.254-21.717,16.516-31.152a5.347,5.347,0,0,0-5.192-5.487c-8.837-.254-14.8-3.362-18.527-6.342a3.8,3.8,0,0,0-6.06,2.125,28.673,28.673,0,0,1-12.141,17.676,5.369,5.369,0,0,0-2.354,5.669C362.259,471.242,370.179,488.425,388.34,481.13Z" style="fill:#c0392b"/><path d="M351.629,576.494a4.014,4.014,0,0,0,4.49,3.465c42.338-5.847,78.275-22.913,100.422-63.066a4.218,4.218,0,0,0-1.365-5.565c-23.961-15.675-31.035-32.535-31.035-32.535-2.695-3.2-8.032-4.646-10.89-1.576-47.108,50.621-162.57,60.194-234.879,0-3.224-2.683-8.2-1.627-10.889,1.576,0,0-7.074,16.86-31.036,32.535a4.219,4.219,0,0,0-1.365,5.565c22.148,40.153,58.085,57.219,100.422,63.066A4.012,4.012,0,0,0,240,576.494c4.145-27.682,25-44.606,55.817-44.389C326.63,531.888,347.965,552.392,351.629,576.494Z" style="fill:#c0392b"/><path d="M204.4,345.512a5.345,5.345,0,0,0-2.9-5.922l-44.922-21.876a5.358,5.358,0,0,0-7.707,4.642c-.455,15.111,1.391,46.416,23.943,51.039C194.989,377.941,202.314,355.162,204.4,345.512Z" style="fill:#c0392b"/><path d="M233.983,398.619c24.679,8.943,29.624-17.653,30.612-28.05a5.352,5.352,0,0,0-3.275-5.444l-37.885-15.809a5.355,5.355,0,0,0-7.365,4.146C214.28,365.7,213.283,391.117,233.983,398.619Z" style="fill:#c0392b"/><path d="M186.532,431.921c17.986,4.4,31.384-8.516,34.409-18.735.767-2.592.046-5.389-2.317-6.7-9.956-5.534-13.284-13.116-14.342-18.395a3.813,3.813,0,0,0-5.523-2.661c-4.645,2.5-12.38,5.193-22.993,4-3.445-.388-5.74,2.434-6.012,5.89C168.827,407.063,168.906,427.607,186.532,431.921Z" style="fill:#c0392b"/><path d="M289.09,437.7A5.34,5.34,0,0,0,286.944,430a35.459,35.459,0,0,1-17.283-18.964,3.807,3.807,0,0,0-5.963-1.54c-3.541,2.967-9.52,6.239-18.533,5.988a5.337,5.337,0,0,0-5.378,4.542c-1.547,9.825-.671,30.089,19.757,34.689C273.872,457.94,284.244,445.114,289.09,437.7Z" style="fill:#c0392b"/><path d="M213.826,481.13c18.161,7.3,26.081-9.888,27.758-17.511a5.368,5.368,0,0,0-2.355-5.669,28.675,28.675,0,0,1-12.14-17.676,3.8,3.8,0,0,0-6.06-2.125c-3.724,2.98-9.69,6.088-18.527,6.342a5.347,5.347,0,0,0-5.192,5.487C197.571,459.413,198.242,474.869,213.826,481.13Z" style="fill:#c0392b"/><path d="M296.133,416.615a13.242,13.242,0,0,0,9.9,0c15.94-6.413,18.691-26.173,18.925-37.289a5.363,5.363,0,0,0-7.266-5.136l-10.414,3.682a19.656,19.656,0,0,1-13.533-.158l-9.271-3.524a5.364,5.364,0,0,0-7.267,5.136C277.442,390.442,280.193,410.2,296.133,416.615Z" style="fill:#c0392b"/><path d="M301.083,504.6c13.3,0,26.426-14.264,30.937-29.876.915-3.166-.886-6.56-3.821-7.043-9.906-1.627-17.071-7.359-21.538-12.235a7.415,7.415,0,0,0-11.156,0c-4.467,4.876-11.632,10.608-21.538,12.235-2.935.483-4.736,3.877-3.821,7.043C274.656,490.338,287.786,504.6,301.083,504.6Z" style="fill:#c0392b"/><path d="M239.3,493.567a87.015,87.015,0,0,0,25.956,6.584,1.933,1.933,0,0,0,1.5-3.322c-6.561-6.337-9.073-15.174-10.035-20.91a1.64,1.64,0,0,0-3.063-.511c-4.689,8.566-10.621,12.733-14.485,14.671A1.928,1.928,0,0,0,239.3,493.567Z" style="fill:#c0392b"/><path d="M336.314,500.151a87.023,87.023,0,0,0,25.957-6.584,1.928,1.928,0,0,0,.121-3.488c-3.864-1.938-9.8-6.105-14.484-14.671a1.64,1.64,0,0,0-3.064.511c-.961,5.736-3.473,14.573-10.034,20.91A1.932,1.932,0,0,0,336.314,500.151Z" style="fill:#c0392b"/><path d="M476.31,493.724l8.377-14.026a3.312,3.312,0,0,0-2.719-5.016c-25.9-.712-40.75-17.117-45.552-23.478a1.955,1.955,0,0,0-3.265.21L430.5,456.1a11.762,11.762,0,0,0-.093,11.4c5.117,9.459,16.9,27.077,35.252,30.954A10.044,10.044,0,0,0,476.31,493.724Z" style="fill:#c0392b"/><path d="M155.208,451.2c-4.8,6.361-19.656,22.766-45.553,23.478a3.312,3.312,0,0,0-2.719,5.016l8.378,14.026a10.043,10.043,0,0,0,10.654,4.728c18.354-3.877,30.135-21.5,35.251-30.954a11.757,11.757,0,0,0-.093-11.4l-2.654-4.683A1.954,1.954,0,0,0,155.208,451.2Z" style="fill:#c0392b"/><path d="M348.825,173.3a40.8,40.8,0,1,0,40.8-40.8A40.8,40.8,0,0,0,348.825,173.3Zm40.8-18.4a18.4,18.4,0,1,1-18.4,18.4A18.4,18.4,0,0,1,389.626,154.9Z" style="fill:#c0392b"/></svg>