<svg width="600" height="600" viewBox="0 0 600 600" fill="none" xmlns="http://www.w3.org/2000/svg">
<path d="M188.288 246.921C252.725 313.778 316.954 380.837 380.976 448.099C381.899 449.075 383.12 449.717 384.447 449.926C385.775 450.135 387.135 449.898 388.313 449.253C411.947 436.343 432.711 418.499 446.813 396.957C451.203 388.632 462.34 377.227 453.961 368.217C383.299 297.005 313.114 225.998 243.025 154.132C232.821 138.564 156.674 213.047 164.573 222.512C172.475 230.656 180.424 238.745 188.288 246.921Z" fill="#c0392b"/>
<path d="M234.545 458.009C272.937 477.165 317.628 476.917 357.895 463.188C358.861 462.858 359.728 462.292 360.416 461.541C361.104 460.789 361.59 459.878 361.83 458.89C362.07 457.903 362.056 456.871 361.789 455.89C361.522 454.91 361.011 454.012 360.302 453.279C355.6 448.415 350.899 443.55 346.199 438.686C282.784 373.121 219.846 307.126 156.698 241.311C152.97 237.862 149.606 241.883 148.75 245.698C116.901 330.99 167.676 422.622 234.545 458.009Z" fill="#c0392b"/>
<path d="M275.114 162.158C337.173 224.208 399.039 286.448 460.712 348.876C474.509 360.214 472.819 282.157 470.245 276.21C463.93 234.61 443.759 196.02 411.015 169.049C370.436 135.277 312.584 122.176 262.164 139.911C261.417 140.156 260.745 140.588 260.213 141.164C259.681 141.74 259.306 142.442 259.124 143.202C258.943 143.963 258.96 144.756 259.175 145.508C259.39 146.26 259.796 146.945 260.353 147.497C265.285 152.371 270.205 157.258 275.114 162.158Z" fill="#c0392b"/>
<path d="M382.318 548.18C539.876 501.161 612.785 358.136 562.014 202.308C560.809 198.29 554.612 199.966 555.716 204.045C581.697 293.42 575.059 398.275 505.286 466.396C504.958 466.73 504.519 466.933 504.052 466.966C503.585 467 503.122 466.862 502.749 466.578C502.376 466.295 502.12 465.885 502.027 465.426C501.934 464.967 502.012 464.489 502.245 464.083C602.927 324.361 555.649 120.663 380.573 64.5389C370.211 61.1892 359.693 58.9256 349.123 56.3905C346.649 55.7975 343.64 54.9086 345.31 52.2371C417.658 56.1786 482.345 98.6668 525.986 154.932C529.028 158.714 534.327 153.349 531.316 149.597C441.221 26.5488 265.131 10.543 147.922 104.179C-86.7703 274.925 74.6197 640.91 382.318 548.18ZM518.986 276.917C531.691 277.134 531.688 296.049 518.986 296.264C506.286 296.047 506.286 277.133 518.986 276.917ZM85.9532 296.264C98.6578 296.481 98.6566 315.395 85.9532 315.611C73.2486 315.394 73.251 296.477 85.9532 296.264ZM268.774 555.928C120.55 547.309 5.52345 394.801 56.1461 257.71C27.2769 396.323 134.819 528.236 269.098 553.562C269.398 553.62 269.665 553.79 269.843 554.039C270.021 554.288 270.097 554.595 270.056 554.898C270.014 555.201 269.858 555.477 269.62 555.668C269.382 555.86 269.079 555.953 268.774 555.928ZM312.871 531.411C300.167 531.193 300.168 512.278 312.871 512.064C325.576 512.28 325.574 531.195 312.871 531.411ZM312.871 71.4051C325.576 71.6218 325.574 90.5365 312.871 90.752C300.167 90.5341 300.168 71.6194 312.871 71.4051ZM201.595 150.162C324.519 54.6992 497.174 155.546 490.574 306.836C495.441 446.942 321.041 543.353 206.384 462.354C103.455 389.287 84.7294 232.359 201.595 150.162Z" fill="#c0392b"/>
<path d="M540.203 173.254C539.105 177.327 542.637 182.657 546.581 183.706C555.381 186.046 551.923 173.743 547.024 170.885C543.112 169.027 541.107 170.226 540.203 173.254Z" fill="#c0392b"/>
<path d="M232.506 43.5096C234.953 40.6913 234.216 38.8666 231.586 37.5936C228.026 35.978 222.439 37.8586 220.734 40.8435C216.933 47.5015 228.952 46.9364 232.506 43.5096Z" fill="#c0392b"/>
</svg>
