<svg width="512" height="512" viewBox="0 0 512 512" fill="none" xmlns="http://www.w3.org/2000/svg">
<path d="M136.66 304.525L155.36 379.325C156.299 383.091 158.007 386.622 160.376 389.697C162.745 392.772 165.724 395.324 169.126 397.192C172.528 399.061 176.28 400.206 180.145 400.556C184.011 400.906 187.907 400.453 191.59 399.225L258.25 366.655C259.527 365.891 260.945 365.395 262.42 365.196C263.894 364.997 265.394 365.099 266.828 365.496C268.262 365.892 269.6 366.576 270.762 367.505C271.924 368.434 272.886 369.59 273.589 370.901C274.291 372.213 274.721 373.653 274.851 375.135C274.981 376.617 274.809 378.11 274.345 379.524C273.882 380.938 273.136 382.243 272.154 383.36C271.171 384.478 269.972 385.384 268.63 386.025L246.45 397.905C244.234 399.092 242.509 401.022 241.578 403.357C240.647 405.691 240.569 408.279 241.36 410.665L258.96 463.845C259.611 465.938 260.746 467.849 262.271 469.423C263.796 470.998 265.67 472.192 267.741 472.91C269.813 473.628 272.024 473.85 274.196 473.557C276.369 473.264 278.442 472.465 280.25 471.225L383.8 399.425C389.604 395.41 393.73 389.4 395.389 382.54C397.049 375.68 396.127 368.449 392.8 362.225L379.36 337.095C375.718 330.268 374.03 322.569 374.482 314.845C374.934 307.121 377.507 299.671 381.92 293.315C397.97 270.115 420.59 227.595 419.78 172.925C419.78 172.925 419.78 137.125 394 97.4748C377.184 71.5029 351.411 52.6159 321.58 44.4048C285.29 34.4348 230.35 30.9248 178.88 73.5748C178.88 73.5748 115.55 124.485 127.97 221.335L94.7696 282.795C93.5561 285.042 92.9475 287.565 93.0036 290.118C93.0596 292.671 93.7784 295.166 95.0894 297.357C96.4004 299.548 98.2585 301.361 100.482 302.618C102.705 303.875 105.216 304.532 107.77 304.525H136.66ZM221.02 92.7648C248.09 74.5948 276.85 73.7048 297.56 76.7148C321.07 80.1348 342.77 91.9248 357.21 110.785C371.21 129.075 376.02 149.785 376.63 168.325C377.52 195.675 348.98 214.205 324.18 202.655L225.92 156.875C199.85 144.725 197.14 108.785 221.02 92.7648Z" fill="#c0392b"/>
</svg>
