<?xml version="1.0" ?><svg fill="#c0392b" id="icon" viewBox="0 0 512 512" xmlns="http://www.w3.org/2000/svg"><title/><path d="M357,202.58,298.27,153a23.65,23.65,0,0,0-28-1.83l-.6.39a42,42,0,0,0-16.57,20.68c-7.62,20.37-21.48,45-46.52,70.29a253.87,253.87,0,0,1-31.81,26.92c-13.15,9.5-56.35,44.25-60.09,92.17A10.17,10.17,0,0,1,104.55,371a9.92,9.92,0,0,1-2.19-.24,10.5,10.5,0,0,1-7.91-11.24C99,304.74,143.77,266.79,162.86,253a232.92,232.92,0,0,0,29.28-24.76,213,213,0,0,0,16.68-18.86c5.23-6.68-2.9-15.55-10-10.91-26.63,17.4-66.21,42.21-97.12,57-40.61,19.44-68.91,58.3-73,103.13a136.86,136.86,0,0,0,1,33c5.1,34.28,24.18,57.58,43.46,72.8,30,23.7,69.9,31.27,105.88,18.31,68.83-24.8,105.28-104,115.83-130.65,4.05-10.22,8.36-20.32,13.06-30.25,22.26-47,40.42-74.1,52.13-88.85A21.87,21.87,0,0,0,357,202.58Z"/><path d="M313.49,112.12l-1,1a15.4,15.4,0,0,0,.83,22.3l54.9,48.49a15.4,15.4,0,0,0,21.09-.65h0a15.41,15.41,0,0,0-.47-22.24l-53.9-49.51A15.41,15.41,0,0,0,313.49,112.12Z"/><path d="M408.57,29.49a22.85,22.85,0,0,0-37.34,8.56c-5.08,14-12.19,30.59-20.88,43.39a12.26,12.26,0,0,0,2,16.21L382.83,124a12.23,12.23,0,0,0,16.47-.44l36-34.67A13.45,13.45,0,0,0,438.42,74C434,63.44,424.73,45.15,408.57,29.49Z"/><path d="M413.09,156.08c.85,1,1.68,2,2.47,2.8a13.5,13.5,0,0,0,10.86,4.21L468.6,160a9.84,9.84,0,0,0,7.66-15A123.52,123.52,0,0,0,455.89,120a13.56,13.56,0,0,0-17.61-.94l-23,17.7A13.55,13.55,0,0,0,413.09,156.08Z"/><path d="M413.09,196.2a10.18,10.18,0,0,0-1.57,14.3c.51.62,50.4,64,52.05,172.15a10.17,10.17,0,0,0,10.17,10h.15a10.18,10.18,0,0,0,10-10.33c-1.76-115-54.29-181.79-56.53-184.58A10.16,10.16,0,0,0,413.09,196.2Z"/><path d="M388.22,401.08a10.21,10.21,0,0,0-10.56,9.77c-.4,10.57-.86,20.58-1.34,29.76a10.15,10.15,0,0,0,9.61,10.69l.55,0a10.18,10.18,0,0,0,10.15-9.63c.49-9.28.95-19.39,1.36-30.05A10.17,10.17,0,0,0,388.22,401.08Z"/><path d="M389.83,336.05H390a10.17,10.17,0,0,0,10.16-10c.76-51.69.54-93.38.54-93.79a10.18,10.18,0,0,0-10.17-10.12h-.06a10.17,10.17,0,0,0-10.11,10.23c0,.41.22,41.91-.54,93.38A10.17,10.17,0,0,0,389.83,336.05Z"/><path d="M387.08,348.56a20,20,0,1,0,20,20A20,20,0,0,0,387.08,348.56Z"/></svg>