<?xml version="1.0" ?><svg fill="#c0392b" data-name="Layer 4" id="Layer_4" viewBox="0 0 600 600" xmlns="http://www.w3.org/2000/svg"><title/><path d="M177.643,204.265a122.306,122.306,0,0,0,12.234,11.529c10.486,9.034,25.806,14.881,30.472,28.951,6.245,31.854,47.249,60.676,76.3,71.064,14.14,6.7,30.636-5.013,43.166-11.3a142.057,142.057,0,0,0,41.994-37.137c13.462-16.816,5.084-27.176,25.736-40.606,15.889-11.707,38.345-25,36.744-47.52-.518-10.257-3.206-21.132-9.666-29.289-10.15-9.471-16.8,21.092-19.171,27.359-2.236,6.907-4.748,14.129-9.365,19.851-1.671,1.74-3.485,4.545-6.015,4.821-2.072-.36-1.173-2.492-.72-3.746a234.484,234.484,0,0,0,12.027-50.294.5.5,0,0,0-.753-.431c-7.784,5.964-16.542,10.892-23.534,17.808-1.912,2.271-2.415,4.79-3.034,7.6a28.491,28.491,0,0,1-13.213,19.323,51.308,51.308,0,0,1-24.886,7.958,66.025,66.025,0,0,1-22.073-2.573c-4.922-.749-6.424-3.416-2.99-7.371,9.245-11.125,22.3-18.291,34.336-25.978,32.033-20.437,68.947-36.278,93.637-66.077.9-1.224,1.112-3.06-.916-3.071-7.082,1.269-11.662,7.856-17.673,11.282-6.025,3.206-13.5,6.341-20.4,4.7-2.48-1.06-1.332-5.137-2.134-7.4-5.565-29.921-20.207-60.747-47.657-76.136C312.462-2.3,243.967,14.714,216.457,63.919c-17.037,28.744-20.1,63.715-13.593,96.059A232.968,232.968,0,0,0,213,198.006c.441,1.227,1.508,3.334-.4,3.941-1.585.5-3.686-1.962-4.689-3-13.13-13.728-10.594-36.168-23.551-49.762-8.924-6.682-15.648,20.169-15.938,26.06C166.836,185.845,169.808,196.743,177.643,204.265Zm113.913-7.543c-24.586,9.247-63.692.975-64.124-30.615.172-2.782-1-6.558,1.358-8.6,3.589-1.6,13.868,3.7,18.066,4.868a138.4,138.4,0,0,1,34.026,18.945,108.914,108.914,0,0,1,10.733,9.482C293.759,192.268,294.494,195.707,291.556,196.722ZM275.859,47.8c16.57,1.684,8.788,26.211-5.714,18.056C261.887,60.794,266.2,47.226,275.859,47.8Zm-5.6,39.081c5.063-8.258,18.632-3.942,18.056,5.714C286.632,109.167,262.105,101.385,270.26,86.883Zm2.646,34.614c5.063-8.258,18.632-3.942,18.056,5.714C289.278,143.78,264.751,136,272.906,121.5ZM341.764,47.8c16.66.5,10.611,25.529-4.417,18.416C328.754,61.753,332.088,47.907,341.764,47.8Zm-2.986,34.625c16.66.5,10.611,25.528-4.416,18.416C325.767,96.378,329.1,82.533,338.778,82.427Zm-2.646,34.614c16.66.5,10.611,25.528-4.416,18.416C323.122,130.992,326.456,117.146,336.132,117.041Z" style="fill:#c0392b"/><path d="M472.321,77.658c-1.411-7.038-9.705.216-10.156,4.711C462.5,91.536,474.131,83.4,472.321,77.658Z" style="fill:#c0392b"/><path d="M56.126,286.441a502.847,502.847,0,0,1,29.887-42.288c1.571-2.711,6.1-5.321,4.234-8.816-4.036-3.492-9.367-5.49-13.994-8.181-3.777-1.755-7.506-4.13-11.672-4.759-3.967-.273-6.146,3.373-6.486,6.889-1.461,6.519-2.995,13.476-4.467,20.006-25.026,3.4-17.192,1.978-19.565,30.718-25.858,3.378-12.179,7.027-15.841,31.865-5.071,1.533-12.738.075-15.321,5.745-.924,7.305,1.406,14.854,1.751,22.227a14.86,14.86,0,0,0,7.193,11.975c2.731,2.27,7.6,4.729,9.37.082A502.115,502.115,0,0,1,56.126,286.441Z" style="fill:#c0392b"/><path d="M68.888,295.316a366.918,366.918,0,0,0-26.2,48.836c-2.381,5.58-4.841,11.167-6.819,16.9-1.2,4.337,2.535,7.388,5.978,9.169,10.042,6.4,19.3,9.482,30.523,13.428,5.139,1.262,9.955,4.755,15.293,4.645a8.322,8.322,0,0,0,5.929-4.045c4.3-6.782,10.524-12.554,13.445-20.089,1.219-9.645-1.24-19.5-.872-29.246a325.108,325.108,0,0,1,1.714-40.224c1.121-14.785,4.96-29.3,7.191-43.8-.693-2.872-2.258-2.032-4.387-3.688-3.429-2.329-7.373-.132-9.258,3.071A482.289,482.289,0,0,0,68.888,295.316Z" style="fill:#c0392b"/><path d="M126,339.853c1.291-.162,1.952-1.367,2.691-2.3,7.115-9.19,15.341-17.434,23.207-25.97q8.011-8.575,16.064-17.114c3.422-3.341,7.692-7.528,5.279-12.7-2.742-10.775-6.109-21.462-12.675-30.673-6.84-9.787-19.824-21.79-32.383-15.216-8.228,5.339,16.1,18.541,18.127,33.571,1.545,8.933-14.276-15.012-16.712-.815-4.675,20.633-6.113,41.866-6.343,62.977C123.594,334.348,121.74,339.9,126,339.853Z" style="fill:#c0392b"/><path d="M593.847,313.043c-3.9-1.336-8.18-1.47-12.206-2.352-3.8-24.31,10.194-28.533-15.845-31.866-2.422-28.495,5.6-27.367-19.571-30.719-7.133-33.822-4.368-31.887-34.907-15.39a3.422,3.422,0,0,0-1.428,5.292q8.155,10.1,15.782,20.6c20.816,27.856,37.137,58.782,52.339,89.822a2.9,2.9,0,0,0,4.955.411,105.083,105.083,0,0,0,13.964-25.7C597.582,319.474,597.868,314.867,593.847,313.043Z" style="fill:#c0392b"/><path d="M557.3,351.081c-13.955-33.764-33.635-64.913-56.122-93.615-3.981-4.071-7.778-13.97-14.744-9.746-2.124,1.654-6.765,2.815-5.92,5.67,22.593,76.286,21.324,115.183,22.27,129.736a6.122,6.122,0,0,0,6.86,5.705c9.6-1.206,29.659-6.665,44.936-17.744C564.618,363.805,560.6,359.9,557.3,351.081Z" style="fill:#c0392b"/><path d="M441.577,246.175c-8.787,10.116-13.281,22.842-16.437,35.591-2.464,5.322,2.055,9.524,5.521,12.96,3.548,3.763,6.847,7.775,10.627,11.306,14.33,13.381,32.132,38.627,40,50.2a2.087,2.087,0,0,0,3.807-1.348c-1.736-20.167-9.874-72.843-16.885-87.246a4.151,4.151,0,0,0-6.265-1.493c-3.4,2.61-8.912,6.458-10,4.912,1.158-11.785,11.594-19.842,18.587-28.522,3.3-3.926.269-7.621-4.183-8.113C456.523,232.162,447.861,239.448,441.577,246.175Z" style="fill:#c0392b"/><path d="M292.388,537.238c-32.3-33.77-68.7-69.761-110.511-86.91-19.863-8.148-41.126-6.559-58.742,7.355C82.1,486.073,58.154,522.372,36.783,567.105c-3.651,6.528-6.48,15.109,2.191,19.059,4.329,1.395,9.062.623,13.552.865A286.9,286.9,0,0,0,108.74,581.7c33.994-7.205,66.224-20.954,97.014-36.808,17.27-8.654,30.62-17.456,50.7-16.158,9.964.8,18.663,2.131,35.254,13.789C294.445,544.44,294.78,538.9,292.388,537.238Z" style="fill:#c0392b"/><path d="M312.608,555.093c-9.14-.781-2.479,11.752,3.444,10.652C323.209,565.2,317.015,556.085,312.608,555.093Z" style="fill:#c0392b"/><path d="M204.413,326.08a105.449,105.449,0,0,1-11.462-12.612c-2.3-3-4.72-8.4-9.445-6.7-1.881.675-3.075,2.553-4.326,4q-8.174,9.438-16.117,19.074c-17.085,20.9-34.029,42.094-49.64,64.084-1.477,3.833,2.011,5.785,5.482,5.379,26.157,1.219,51.451,9.963,74.335,22.369C193.563,389.329,195.627,357.232,204.413,326.08Z" style="fill:#c0392b"/><path d="M563.285,570.791a259.132,259.132,0,0,0-16.352-31.328,312.873,312.873,0,0,0-41.584-54.907c-2.709-2.845-5.446-7.473-9.619-7.586-3.937-.107-20.856,18.2-41.254,27.483a3.1,3.1,0,0,1-3.752-4.678c8.562-11.551,29.929-35.478,79.378-71.166,4.3-3.1,8.837-5.881,13.038-9.131,2.6-1.569,6.559-5.062,2.775-7.813-3.531-1.878-9.382,3.813-12.89,5.1a394.7,394.7,0,0,1-52.489,23.455c-5.534,2-11.15,4.362-17.105,4.582-6.9.254-12.5-2.358-18.586-5.208-35.248-15.852-72.782-26.125-108.094-41.91-51.257-21.338-73.678.06-103.75,20.247a3.078,3.078,0,0,1-4.769-2.975l1.191-8.5a7.708,7.708,0,0,1,2.889-5.015c10.347-8.07,27.957-20.037,37.24-26.258a4.353,4.353,0,0,0-.417-7.481c-13.209-6.852-29.033-15.283-40.866-23.023a3.2,3.2,0,0,0-4.8,1.776,223.576,223.576,0,0,0-8.872,80.913,16.385,16.385,0,0,0,6.873,12.072c10.5,7.515,20.632,15.589,30.767,23.585,30.847,23.442,61.854,46.678,92.161,70.809,53.9,40.841,123.237,54.341,189.684,53.335,6.387-.06,12.824-.067,19.2-.459A11.461,11.461,0,0,0,563.285,570.791Z" style="fill:#c0392b"/><path d="M375.405,340.425c-15.195,9.879-35.511,20.54-46.982,26.363a4.565,4.565,0,0,0,.292,8.281c14.93,6.288,44.486,18.678,60.775,25.122a1.848,1.848,0,0,0,2.5-2.013,388.616,388.616,0,0,0-13.684-56.736A1.937,1.937,0,0,0,375.405,340.425Z" style="fill:#c0392b"/><path d="M482.366,390.276q-19.7-26.978-40.838-52.859c-35.188-40.894-22.779-36.767-44.342-14.659a7.315,7.315,0,0,0-1.44,7.986,362.885,362.885,0,0,1,21.784,70.023,3.406,3.406,0,0,0,4.683,2.465c6.359-2.731,12.512-6.435,19.236-7.882C456.173,389.348,485.1,395.857,482.366,390.276Z" style="fill:#c0392b"/></svg>