<?xml version="1.0" ?><svg fill="#c0392b" data-name="Layer 4" id="Layer_4" viewBox="0 0 600 600" xmlns="http://www.w3.org/2000/svg"><title/><path d="M88.447,164.345c27.842-25.764,56.559-50.667,87.073-73.235,7.525-5.547,15.169-10.935,22.971-16.085,3.2-2.159,7.847-3.943,7.867-8.453.06-2.353-1.273-3.989-2.619-5.771-5.242-6.932-10.611-13.772-16.225-20.408-6.391-8.027-12.2-15.029-21.228-5.07C122.829,74.791,85.644,120.593,50,167.079c-7.772,10.375-15.7,20.7-23.076,31.337-2.111,5.026,4.016,8.43,6.6,11.96a5.054,5.054,0,0,0,5.175,1.469c6.441-4.421,11.285-11.177,17.191-16.377Q71.939,179.667,88.447,164.345Z" style="fill:#c0392b"/><path d="M184.394,146.636a565.623,565.623,0,0,1,37.384-55.37,4.423,4.423,0,0,0,.306-5.281c-1.714-3.182-5.056-6.185-8.443-3.1q-7.663,6.228-15.208,12.6C150.007,137.225,102.048,180.808,61.465,230.2c-2.249,7.432,6.875,10.695,11.332,14.744,8.684,6.42,17.653,12.451,26.8,18.2,6.479,3.445,12.389,8.979,19.5,10.793,7.071.065,7.944-12.023,10.908-17.039A815.07,815.07,0,0,1,184.394,146.636Z" style="fill:#c0392b"/><path d="M564.139,391.7c-2.96-1.121-8.6-4.836-11.791-4.2-15.987,2.358-59.46,13.512-101.459,31.211a.94.94,0,0,1-.833-1.681A428.026,428.026,0,0,1,535.614,380c3.554-.442,6.572-3.9,2.953-6.748-9.377-5.888-18.7-11.865-28.025-17.833-21.866-13.987-43.714-28.009-65.88-41.516-9.743-5.932-19.546-11.778-29.531-17.294-3.83-2.653-8.128-2.64-11.474.861-37.392,29.994-63.945,71.146-86.911,112.682-7.978,13.1-11.018,22.707-1.035,36.006,9.785,16.09,18.562,32.337,27.932,48.73a4.346,4.346,0,0,0,6.886.916C422.369,418.539,549.275,400.937,564.139,391.7Z" style="fill:#c0392b"/><path d="M594.033,414.789c-10.208-8.842-20.795-2.33-31.9.587q-24.738,7.554-48.817,17.084c-45.219,18.034-88.554,41.649-126.154,72.748q-7.92,6.56-15.458,13.561c-3.025,3.039-7.818,5.947-6.767,10.892a256.56,256.56,0,0,0,55.381,67.556,3.191,3.191,0,0,0,3.105,1.236H595.584c1.525.141-.048-180.807.5-181.283C596.3,416.051,594.772,415.376,594.033,414.789Z" style="fill:#c0392b"/><path d="M263.066,280.763c-17.95,11.718-31.033,20.542-46.561,35.335-1.233,1.175-2.543,2.264-2.507,4.117.035,1.775,1.3,2.6,2.527,3.7,34.222,30.629,49.432,52.49,63.191,69.948,6.836,10.44,9.813,7.595,15.1-1.97,23.825-37.778,52.33-72.5,83.588-104.358,4.426-3.273,7.629-9.472,2.163-13.478q-11.95-8.388-23.565-17.24c-7-4.444-12.653-12.946-21.6-12.91-5.962.446-11.126,3.966-16.578,6.14A437,437,0,0,0,263.066,280.763Z" style="fill:#c0392b"/><path d="M63.485,111.969A1149.76,1149.76,0,0,1,144.411,28.2c11.7-11.6,22.194-14.687,1.375-24.738-5.738-3.736-14.149-2.241-16.424,4.74L118.853,33.236c-41.169,7.018-34.33-3.7-43.459,38.239-8.864,3.192-20.684-1.83-27.889,4.736-2.743,3.291-3.2,7.758-4.616,11.687-2.578,8.983-5.446,17.981-6.633,27.277a129.991,129.991,0,0,0-25.45,4.256c-8.731,2.31-7.645,12.159-6.947,19.213.882,7.5,1.564,27.577,5.894,32.752,3.713,2.974,7.675-.3,9.454-3.773C33.048,148.365,47.95,129.884,63.485,111.969Z" style="fill:#c0392b"/><path d="M596.114,208.822c-56.456-3.236-110.833,11.438-166.112,19.9-29.361,3.578-51.251,2.189-73.191-4.651a3.56,3.56,0,0,0-3.678,5.793c27.3,29.75,92.665,42,112.12,42.875,44.005.922,88.373-1.606,131.346,10.155V208.837Z" style="fill:#c0392b"/><path d="M583.6,301.962c-23.013-9.876-54.57-11.793-80.385-12.666-29.353-.712-60.368-4.063-89.25-14.338-1.489-.353-1.447.8.821,2.24,51.46,33.3,137.45.872,181.809,46.958V308.314A116.269,116.269,0,0,0,583.6,301.962Z" style="fill:#c0392b"/><path d="M314.13,597.609C195.294,513.734,160.753,357.752,186.243,251.878c.579-1.149,1.964-10.388,4.5-6.751.312.483,2.332,28.434,5.761,40.874,1.223,4.936,6.311,5.447,9.686,2.093,34.149-23.54,69.229-45.876,107.822-61.539a3.633,3.633,0,0,0,1.416-5.7c-4.692-5.6-13.242-16.091-17.193-22.807-6.366-9.473-6.792-18.282-6.95-29.26-1.877-31.009-6.837-62.2-18.261-91.22-3.716-8.733-6.93-18.27-15.639-23.285C253.43,51.8,232.4,40.806,222.12,39.545a3.533,3.533,0,0,0-3.531,5.2c7.354,13.467,33.046,61.453,37.267,82.168a2,2,0,0,1-3.591,1.54c-3.539-4.982-8.308-11.689-9.2-12.926-1.887-2.6-3.737-6.739-7.564-6.4-3.9.347-5.73,5.465-7.5,8.289q-9.105,14.543-17.674,29.412c-47.064,81.423-73.8,148.561-69.916,244.182,1.289,87.2,34.168,187.655,50.009,206.942,0,0,13.846,0,13.846,0-7.016-13.9-59.9-115.809-56.652-211.378a1.677,1.677,0,0,1,3.345-.1c10.19,117.157,76.624,206.106,79.808,208.583,4.418,3.654,10.23,3.544,15.648,3.4h67.358A.493.493,0,0,0,314.13,597.609ZM201.654,209.631c8.537-4.841,7.773,14.106-1.433,16.777C188.76,228.071,196.182,215.6,201.654,209.631Z" style="fill:#c0392b"/><path d="M395.294,597.953H373.9a9.984,9.984,0,0,1-7.51-3.408c-11.384-12.993-48.11-73.306-70.739-142.792a1.137,1.137,0,0,1,2.094-.87C312.152,479.682,348.619,559.872,395.294,597.953Z" style="fill:#c0392b"/><path d="M291.358,436.663c1.453-2.449.244-6.637-1.4-9.571-1.535-2.827-6.175-4.626-7.033-.962C281.324,429.832,287.187,440.6,291.358,436.663Z" style="fill:#c0392b"/></svg>