<?xml version="1.0" ?><svg fill="#c0392b" data-name="1" id="_1" viewBox="0 0 600 600" xmlns="http://www.w3.org/2000/svg"><title/><path d="M164.3,499c-31.216,17.574-63.627,42.181-79.124,64.96-3.689,5.423-2.254,12.72,3.592,15.694,11.671,5.938,33.988,14.23,67.432,14.093,80.026.01,80.4-33.988,193.532-65.251A8.765,8.765,0,0,0,355,515.671c-9.158-15.96-25.228-50.189-24.7-93.175a9.411,9.411,0,0,0-12.306-9.083c-16.606,5.372-46.156,13.453-94.006,16.145a9.4,9.4,0,0,0-8.779,8.009C213.336,450.538,201.97,477.791,164.3,499Z" style="fill:#c0392b"/><path d="M388.272,93.249l-29.4-4.712a40.98,40.98,0,0,0-23.434,3.152L212.866,147.375a5.336,5.336,0,0,0-3.082,5.564l.945,7.094a5.668,5.668,0,0,0,5.028,4.9c25.24,2.559,52.6,7.731,77.355,11.6,20.215,3.408,43.885,6.989,65.016,10.485a11.152,11.152,0,0,0,12.472-7.693l23.733-76.306A7.608,7.608,0,0,0,388.272,93.249Z" style="fill:#c0392b"/><path d="M402.2,6.258c-93.218,17.448-193.041,5.873-193.041,5.873a6.807,6.807,0,0,0-6.666,7.36l1.193,23.946a6.82,6.82,0,0,0,6.054,6.087c59.406,6.96,125.545,15.158,184.51,25.311a6.91,6.91,0,0,0,7.863-4.854c2.879-10.182,8.082-32.355,7.215-57.2A6.853,6.853,0,0,0,402.2,6.258Z" style="fill:#c0392b"/><path d="M354.391,247.829l8.653-32.883a5.891,5.891,0,0,0-4.694-7.305c-22.083-3.813-96.706-16.558-139.537-22.169a6.691,6.691,0,0,0-7.533,7.218c1.628,18.393,2.647,36.92,2.832,60.434a7.763,7.763,0,0,0,7.959,7.7s70.446-7.794,120.1-4.254A11.763,11.763,0,0,0,354.391,247.829Z" style="fill:#c0392b"/><path d="M515.822,315.548c-27.1-14.55-101.359-59.4-123.116-124.185a3.635,3.635,0,0,0-6.973.214c-2.846,11-6.887,26.552-9.743,37.319a23.141,23.141,0,0,0,.642,14.048c12.21,32.611,45.545,75.728,56.191,89.042a12.639,12.639,0,0,0,9.1,4.744c27.875,1.679,38.683-19.813,72.84-17.535A1.943,1.943,0,0,0,515.822,315.548Z" style="fill:#c0392b"/><path d="M219.38,410.153c31.17-.354,77.77-4.045,109.36-19.874a11.947,11.947,0,0,0,6.5-9.608l1.451-15.8a6.581,6.581,0,0,0-4.164-6.744c-13.947-5.422-58.194-19.721-113.676-24.931a5.088,5.088,0,0,0-5.681,4.972c.97,33.5.982,49.323.97,66.805A5.177,5.177,0,0,0,219.38,410.153Z" style="fill:#c0392b"/><path d="M339.253,331.476c1.478-9.877,4.621-29.1,9.135-47.388a7.013,7.013,0,0,0-6.1-8.648c-41.27-4.148-81.782-.341-122.111,5.3a7.015,7.015,0,0,0-6.034,6.951v17.753a6.884,6.884,0,0,0,6.521,6.875c37.975,2.018,75.281,11.452,111.193,23.677A5.648,5.648,0,0,0,339.253,331.476Z" style="fill:#c0392b"/><path d="M310.065,80.271c-20.766-2.736-74.486-9.819-100.127-13.258a4.233,4.233,0,0,0-4.8,4.245c.105,10.133.555,34.068,2.482,53.327a4.239,4.239,0,0,0,5.957,3.448c28.622-12.86,78.085-34.771,97.136-43.2A2.392,2.392,0,0,0,310.065,80.271Z" style="fill:#c0392b"/><path d="M399.055,144.588a232.1,232.1,0,0,0-6.412,23.706,7.225,7.225,0,0,0,2.975,7.5c16.735,11.293,27.6,26.168,33.554,31.381a5.923,5.923,0,0,0,6.369.93c13.954-6.411,33.405,1.455,49.784-1.707a1.986,1.986,0,0,0,.819-3.521c-12.952-9.971-61.622-47.176-83.1-59.818A2.744,2.744,0,0,0,399.055,144.588Z" style="fill:#c0392b"/></svg>