<?xml version="1.0" ?><svg fill="#c0392b" data-name="Layer 4" id="Layer_4" viewBox="0 0 600 600" xmlns="http://www.w3.org/2000/svg"><title/><path d="M203.4,272.511c-.08,21.778,7.3,31.562,25.915,42.043,4.676,2.633,8.333,5.36,10.685,10.362,9.586,20.39,24.511,35.531,45.091,45.065,6.792,3.146,12.819,2.812,19.263-1.082,17.378-11.355,35.96-24.719,43.773-44.685,1.844-6.581,18.885-7.634,26.668-18.579a54.648,54.648,0,0,0,11.032-23.66c1.785-8.2.78-23.5-11.412-18.038-3.627,1.792-6.741,3.929-10.524,5.618,14.676-135.4-148.2-139.978-137.795-3.467C216.8,260.537,204.048,257.335,203.4,272.511Zm138.917-1.5c4.694-1.013,9.956.978,7.587,6.553-2.146,7.654-8.115,11.633-14.851,13.927a36.041,36.041,0,0,1-19.866.975,16.82,16.82,0,0,1-7.555-3.629c-6.364-5.191.4-10.811,6.145-11.859C323.272,274.894,332.8,272.965,342.321,271.016Zm-28.938-9.429c-7.745-.263-7.957-13.277-.17-13.146C321.332,249.352,322.139,261.355,313.383,261.587Zm-.43-28.981c-7.991.463-9.49-14.436-1.032-14.585C320.538,218.354,321.476,231.3,312.953,232.606Zm4.764-39.108a6.906,6.906,0,0,1-13.784.858C304.049,184.88,317.048,182.976,317.717,193.5Zm-33.09.369c-.582,10.069-12.432,10.228-13.027.273C272.554,184.437,284.071,183.424,284.627,193.867Zm-4.936,66.724c-9.864-.126-8.412-12.461-.183-13.533C287.9,247.454,289.205,260.151,279.691,260.591Zm4.092-36.791c-.263,10.863-12.907,9.526-13.493-.045C270.634,213.614,283.48,213.555,283.783,223.8Zm-38.8,45.4c11.291,2.227,22.487,4.938,33.691,7.583,4.128,1.152,8.57,4.142,7.786,9.037-.428,6.692-11.587,8.368-20.227,8.368C244.028,293.846,231.529,266.188,244.98,269.2Z" style="fill:#c0392b"/><path d="M560.254,569.849c-11.238-20.351-36.428-41.83-60.185-43.665-49.968-5.045-100.314-4.78-150.209-10.559-10.243-.395-22.943-5.072-24.135-13.963a199.325,199.325,0,0,0-14.315-50.1c-1.509-3.329-8.52-2.011-8.535,1.644-.093,23.44.281,44.6-3.731,91.221-.733,8.52,12.065,10.683,19.962,11.887,66.4,7.41,138.989,27.535,203.781,42.449,12.471-2.051,23.287-11.482,34.1-17.661C562.5,577.482,562.688,575.922,560.254,569.849Z" style="fill:#c0392b"/><path d="M44.764,577.915c15.209,8.757,33.289,13.035,43.62,14.911a30.275,30.275,0,0,0,15.459-1.253c51.21-18.012,107.093-35.122,161.421-36.273,32.292-.685,12.444-35.108,23.763-97.1.664-3.636-7.673-4.771-9.195-1.4-5.94,13.153-15.422,33.17-25.119,49.638-3.974,6.75-11.125,6.579-17.5,7.6-34.019,2.611-68.079,5.166-102.216,5.225-23.952-1.687-48.832-1.726-69.384,12.7-11.531,7.665-21.66,16.936-31.138,26.96-.758.8-1.922,2.129-1.693,2.805C34.667,571.613,35.955,572.842,44.764,577.915Z" style="fill:#c0392b"/><path d="M130.045,420.639c-2.679,1.565-8.4,3.792-4.9,7.55,16.228,15.769,26.951,35.4,39.108,54.22,10.6,16.412,68.455,12.554,78.136,1.641,7.191-6.548,10.39-15.389,14.133-24.074,6.867-14.712,13.492-29.564,24.153-42.117,4.549-4.676,1.025-19.161-4.342-22.983-11.1-9.416-21.68-19.492-33-28.632-6.63-4.435-22.06-7.921-42.74,8.6A406.687,406.687,0,0,1,130.045,420.639Z" style="fill:#c0392b"/><path d="M370.3,366.212c-6.6-5.134-21.158-8.819-28.975-2.816q-15.974,12.264-31.284,25.364c-7.406,6.348-6.08,20.193,1.756,25.911a26.556,26.556,0,0,1,6.777,6.991c10.368,16.481,20.455,33.14,30.544,49.8a18.116,18.116,0,0,0,20.319,8.081c26.428-7.293,85.325-24.007,110.088-34.76a4.6,4.6,0,0,0,.546-8.165C442.522,414.349,400.967,398.4,370.3,366.212Z" style="fill:#c0392b"/><path d="M469.709,485.709c15.753-7.019,31.087-11.784,56.233-14.565,10-1.106,4.585-12.84,2.755-19.3-1.344-3.978-1.58-3.962-5.791-2.737-43.8,13.127-87.43,27.312-129.99,43.96a2.742,2.742,0,0,0,.421,5.229,123.262,123.262,0,0,0,28.084,2.757c34.458.118,68.411,4.4,102.077,11.76a42.19,42.19,0,0,1,24.093,14.437,53.276,53.276,0,0,1,4.178,4.931c1.915,2.9,4.712,4.459,7.659,6.13a2.3,2.3,0,0,0,3.385-1.563c2.046-10.316,2.785-20.628,4.831-30.967.853-4.74-.6-7.756-5.733-10.7a53.735,53.735,0,0,1-14.68-12.836c-2-2.443-3.746-2.7-6.315-2.261-18.95,3.332-46.227,7.95-70.2,9.759A2.109,2.109,0,0,1,469.709,485.709Z" style="fill:#c0392b"/><path d="M32.166,513.046c.688,5.4,1.751,10.755,2.493,16.151.485,3.871,3.842,1.108,5.643.033,19.6-11.805,39.206-25.629,62.75-27.225,17.147-1.064,33.9-2.244,51.048-2.652a2.9,2.9,0,0,0,2.269-4.62C139.845,472.5,123.23,450.082,102.1,431.979c-3.35-3.152-6.823-3.418-11.3-1.849-10,3.049-9.944,14.976-14.087,22.961-.9,2.329-.484,3.9,1.77,5.407,6.5,4.291,18.586,13.461,28.069,20.779a3.5,3.5,0,0,1-3.039,6.145l-34.047-9.059a13.07,13.07,0,0,0-13.521,4.414c-7.6,9.391-15.228,18.759-22.758,28.205A5.96,5.96,0,0,0,32.166,513.046Z" style="fill:#c0392b"/><path d="M188.062,145.411q-31.605-36.8-63.3-73.535c-3.129-3.815-7.866-9.552-12.951-5.445-2.541,1.863-3.468,4.228-1.951,7.39,2.137,4.454,4.3,9.059,7.343,12.885,22.76,27.536,44.266,58.015,74.729,77.463a5.435,5.435,0,0,0,6.052-.018,2.316,2.316,0,0,0,.892-1.02,6.126,6.126,0,0,0-.564-4.993C195.13,153.728,191.612,149.545,188.062,145.411Z" style="fill:#c0392b"/><path d="M464.636,73.89c-10.1,11.183-60,66.661-72.713,84.754-3.556,7.456,5.856,7.939,9.9,4.081,23.766-18.192,43.768-40.462,62.461-63.671,5.684-7.542,14-14.9,17.514-23.6C480.814,63.505,469.634,67.732,464.636,73.89Z" style="fill:#c0392b"/><path d="M42.766,256.181c-4.147-.164-9.525.269-10.48,5.257a5.944,5.944,0,0,0,2.995,6.806c7.488,4.175,16.263,4.046,24.594,4.236,26.984.091,53.969.043,80.954.043v-.235c11.488,1.828,17.058-11.105,3.157-12.232C110.239,258.478,76.59,255.123,42.766,256.181Z" style="fill:#c0392b"/><path d="M547.082,256.184c-35.063.329-70.812-.105-105.46,5.094-4.037,2.2-4.31,6.805-.374,9.161,4.954,2.9,119.627,7.434,117.223-8.885C557.923,256.759,551.51,255.722,547.082,256.184Z" style="fill:#c0392b"/><path d="M303.693,5.911a6.165,6.165,0,0,0-6.3-4.662c-4.8.13-6.365,4.966-7.023,8.933-2.52,15.077-2.574,85.844,1.063,105.35,5.37,9.567,11.113-1.653,10.733-7.931C303.2,87.751,306.111,21.233,303.693,5.911Z" style="fill:#c0392b"/><path d="M478.173,186.8c-2.575-6.027-11.665-3.366-16.489-.969q-17.684,9.05-35.166,18.492c-5.814,3.984-11.11,8.6-2.429,13.065,18.339-3.917,37.121-9.455,51.756-21.639C478.915,192.984,479.563,189.646,478.173,186.8Z" style="fill:#c0392b"/><path d="M170.769,214.284c3.893-7.391-20.721-17.288-26.031-20.733-8.781-3.623-17.261-10.363-27.031-10.282-7.851.854-6.865,10.2-1.442,13.725,3.749,2.7,7.489,5.715,11.711,7.407,12.086,4.388,24.241,9.786,36.7,12.754C167.433,217.3,169.61,216.763,170.769,214.284Z" style="fill:#c0392b"/><path d="M113.244,340.747c-5.9,3.771-6.229,14.675,3.051,14.437,16.337-5.357,28.932-19.309,41.548-30.45,2.623-2.4,3.4-6.767,1.975-8.111-3.754-4.431-16.191,4.811-20.524,6.923C130.514,329.127,121.907,334.982,113.244,340.747Z" style="fill:#c0392b"/><path d="M434.869,326.679c6.215,5.5,45.061,43.177,46.795,21.937-.251-11.372-33.447-26.3-43.185-31.979C427.542,312.1,429.167,321.234,434.869,326.679Z" style="fill:#c0392b"/><path d="M249.993,127.52c-3.44-8.893-21.827-39.912-27.706-45.275-5.938-5.61-13.1-1.357-10.095,6.454C212.327,95.338,247.675,149.6,249.993,127.52Z" style="fill:#c0392b"/><path d="M346.424,132.43c15.3-12.1,27.344-28.7,33.216-47.483-8.954-22.182-32.712,32.358-37.688,39.334C339.579,127.884,340.992,134.737,346.424,132.43Z" style="fill:#c0392b"/></svg>