<?xml version="1.0" ?><svg fill="#c0392b" data-name="Layer 4" id="Layer_4" viewBox="0 0 600 600" xmlns="http://www.w3.org/2000/svg"><title/><path d="M85.12,257.7c-14.393,4.617-45.773,10.441-53.541,13.66-2.861,1.186-4.752,4.251-3.888,7.184,9.573,32.484,43.861,19.568,54.418,76.84.8,4.32,6.788,5.67,10.964,4.164,53.62-19.338,35.215-69.616,33.676-80.95a10.133,10.133,0,0,1,5.991-10.609c13.5-6,43.57-23.316,54.927-52.451,12.475-32.007-13.235-58.481-39.272-55.383-28.913,3.441-54.682,11.644-80.522,24.314-12.139,5.952-4.777,32.795-4.027,40.174.966,9.492-10.433,18.629-16.161,25.178a1.962,1.962,0,0,0,1.706,3.241c9.048-1.05,27.273-3.067,34.54-3.156C91.743,249.806,93,255.167,85.12,257.7Zm38.046-63.366a16.724,16.724,0,0,1,10.111,2.712c17.791,13.341-6.839,35.149-22.9,27.034C94.426,215.71,104.593,193.568,123.166,194.33Z" style="fill:#c0392b"/><path d="M581.19,40.109c-26.915-14.577-99.255-54.179-205.34-20.7-15.007,4.736-35.265,17.432-38.894,46.052-2.876,22.681,10.761,40.233,30.77,42.654,60.966,7.377,127.667-79.738,217.477,15.958,1.19,1.267,3.378.061,3.378-1.678a21.822,21.822,0,0,0-4.858-12.557c-22.238-24.8-54.52-40.545-78.925-44.15a1.348,1.348,0,0,1,.263-2.674c20.532.378,57.2,5.256,81,32.691a1.423,1.423,0,0,0,2.5-.93c0-14.4-.022-28.345.016-42.214A14.111,14.111,0,0,0,581.19,40.109Z" style="fill:#c0392b"/><path d="M558.3,430.026c9.612.364,15.148-.764,27.906,3.389a1.091,1.091,0,0,0,1.425-1.04V430.7c-.571-7.19-15.142-10.454-17.851-11.077C438.4,389.4,464.849,329.479,424.993,310.374c-25.587-12.266-46.789-4.539-57.732,1.256-13.88,7.568-32.349,13.378-45.414,1.672a46.807,46.807,0,0,1-13.608-21.373,13.214,13.214,0,0,1,8.4-16.373c41.522-13.845,78.052-87.688,47.69-121-10.013-11.963-28.516-18.677-46.048-16.274-9.848,1.35-37.625,10.345-51.951,54.365a2.358,2.358,0,0,1-4.581-.382c-3.493-24.559,5.05-53.645,36.527-65.528a5.122,5.122,0,0,0,2.67-7.218c-8.754-16.107-20.4-30.532-36.53-40.006-25.573-15.505-104.629-36.621-159.042,21.435-5.767,6.153-18.9,21.4-40.193,24.3C42.267,128.373,38.339,107.924,38.206,94.3a3.5,3.5,0,0,0-6.568-1.644c-5.476,10.165-10.174,27.943,1.733,52.275,3.152,6.441-8.21,4.659-15.946-2.821a3.514,3.514,0,0,0-5.936,3.115c3.332,17.054,20.8,29.016,30.232,28.441,8.974.022,17.5-2.319,25.92-4.7,28.67-7.667,55.976-21.871,85.724-24.1a52.884,52.884,0,0,1,42.042,15.889C210.52,177,224.866,244.5,148.074,276.7c-2.121.889-3.574,3.276-2.741,5.42,16.058,41.331,2.079,80.646-58.152,93.181-2.189.455-1.75,4.072-.371,5.832,5.427,6.925,17.1,25.844,5.234,49.017a1.236,1.236,0,0,0,1.6,1.7c19.875-9,30-33.548,28.981-42.286a2.606,2.606,0,0,1,3.927-2.523c5.792,3.553,6.483,15.959,6.469,21.9a1.991,1.991,0,0,0,2.817,1.806c18.886-8.442,19.575-24.753,17.912-34.748a25.523,25.523,0,0,1,5.188-20.44c25.189-30.7,79.25-44.274,102.4-33.408,25.609,12.02,33.77,32.625,20.624,50.551-10.685,14.572-28.713,38.806-25.442,75.175a21.253,21.253,0,0,0,11.687,17.12l.071.035a2.991,2.991,0,0,0,4.277-2.152l1.841-10.311a3.039,3.039,0,0,1,5.156-1.605c5.961,6.059,13.28,13.9,25.452,20.411a1.842,1.842,0,0,0,2.7-1.731l-.913-15.629c.042-2.794,3.792-4.288,5.344-1.965,9.9,14.814,31.812,25.61,45.528,32.805A2.24,2.24,0,0,1,356.054,489c-12.492-3.3-28.334-7.046-32.233-9.617a1.863,1.863,0,0,0-2.875,1.758L322,491.171a3.056,3.056,0,0,1-4.552,2.97,234.2,234.2,0,0,1-27.374-18.362,1.864,1.864,0,0,0-3,1.314l-.9,10.5a3.056,3.056,0,0,1-4.279,2.534,119.985,119.985,0,0,1-12.684-6.554,1.451,1.451,0,0,0-2.085,1.778c1.673,4.362.617,2.74,2.924,7.378,33.5,67.344.513,89.363-21.9,96.572a1.9,1.9,0,0,0,.563,3.7l183.98.682a2.988,2.988,0,0,0,2.211-5c-54.355-59.669,21.062-69.463,32.555-103.213a10.352,10.352,0,0,0-7.978-13.51c-26.542-4.767-100.452-25.122-84.025-102.579a1.732,1.732,0,0,1,3.4.088c5.212,33.708,22.54,66.962,54.932,75.536,111.966,29.635,93.493,66.413,153.855,77.377l-.153-73.714a6.156,6.156,0,0,0-4.708-5.984,108.944,108.944,0,0,1-25.3-9.635A1.608,1.608,0,0,1,558.3,430.026ZM289.577,232.6c-10.08-34.618,10.812-68.656,36.97-63.773a2.37,2.37,0,0,1,.136,4.633C296.155,181.2,297.01,209.43,298.9,221.59a1.872,1.872,0,0,0,3.447.691c.045-.074.091-.147.137-.22,9.672-15.376,33.341-2.3,25.46,14.07-2.093,4.346-5.837,8.512-11.579,12.056C299.7,258.471,293.105,244.713,289.577,232.6Z" style="fill:#c0392b"/></svg>