<?xml version="1.0" ?><svg fill="#c0392b" data-name="Layer 5" id="Layer_5" viewBox="0 0 600 600" xmlns="http://www.w3.org/2000/svg"><title/><path d="M51.308,308.75c32.507,18.291,74.122,11.3,105.356,4.036a13.076,13.076,0,0,0,10.005-10.956c3.081-22.467,11.55-79.894,17.484-78.847,6.7,1.182-1.289,42.877,3.7,74.826a10.352,10.352,0,0,0,10.7,8.753c12.491-.565,36.587-.739,60.721,4.15,54.705,11.082,91.459-29.928,108.679-54.215,51.447-72.562,121.887-76.971,158.229-88.815,28.9-10.281,41.054-42.392,30.018-72.459C540.755,53.142,444.51,70.044,378.034,48.535a1.977,1.977,0,0,0-1.844,3.419c22.409,18.19,75.75,63.574,69.013,78.251-4,8.708-166.139-186.348-262.545-60.735C127.762,141,118.519,193.845,96.957,220.1c-14.28,15.457-30.98,28.291-46.07,42.885C39.053,275.165,33.174,298.547,51.308,308.75ZM300.17,57.219c19.895-.057,25,9.283,26.835,16.17a11.728,11.728,0,0,1-.907,8.633c-6.688,12.255-24.386-10.385-28.262-18.736C296.031,60.017,296.605,57.229,300.17,57.219ZM223.457,206.128c1.515-5.843,18.428-.8,18.428,31.343C241.7,259.679,209.188,261.168,223.457,206.128ZM141.276,184.1c4.354-16.709,10.877-33.082,21.663-46.424,21.239-26.272,24.688-13.078,23.878-5.4-.765,20.913-8.533,41.329-20.076,58.389C153.284,210.559,139.1,190.868,141.276,184.1Z" style="fill:#c0392b"/><path d="M501.75,537.8c13.451-18.839,38.669-63.194,20.605-111.624-16.2-43.427-77.339-111.553-128.725-152.527a7.033,7.033,0,0,0-10.051,1.34c-26.85,36.263-69.206,49.165-87.362,53.193a7,7,0,0,0-4.817,9.786c41.626,89.073,33.329,149.063,48.442,179.613,15.549,31.43,63.675,70.094,110.884,49.434,56.625-24.779,34.573-109.086,21.224-147.023a3.21,3.21,0,0,1,5.67-2.884c29.791,43.157,25.3,94.191,19.831,118.758A2.4,2.4,0,0,0,501.75,537.8Zm-50.5-147.017c-3.7-3.118-7.437-10.2-4.038-13.105,4.206-3.59,11.979,3.031,12.315,8.322C460.039,390.805,454.641,393.94,451.246,390.779Z" style="fill:#c0392b"/></svg>