<svg fill="#c0392b" xmlns="http://www.w3.org/2000/svg" x="0px" y="0px" width="100" height="100" viewBox="0 0 50 50">
    <path d="M42.15,4.05c0,0-23.15,4.77-24.78,5.13C16.39,9.39,16,10.04,16,11v21c0,2.21-1.03,4-5,4c-5.66,0-8,1.46-8,5 c0,2.38,0.49,6,7.94,6c6.91,0,7.06-5.32,7.06-8V20.301c0-0.47,0.321-0.875,0.78-0.976c5.202-1.138,16.365-3.568,22.008-4.804 C41.412,14.384,42,14.859,42,15.498V27c0,2.21-1.03,4-5,4c-5.66,0-8,1.46-8,5c0,2.38,0.49,6,7.94,6c6.91,0,7.06-5.32,7.06-8V6 C44,3.62,42.15,4.05,42.15,4.05z"></path>
</svg>