<?xml version="1.0" ?><svg fill="#c0392b" data-name="Layer 5" id="Layer_5" viewBox="0 0 600 600" xmlns="http://www.w3.org/2000/svg"><title/><path d="M546.4,540.039a12.432,12.432,0,0,0,8.668-9.472c3.033-15.463-.911-32.2-4.038-42.008a4.913,4.913,0,0,0-8.152-2.015c-4.719,4.723-13.521,11.385-29.413,17.839-29.383,11.934-39.542,42.316-42.879,57.758a2.137,2.137,0,0,1-4.185-.047c-2.161-11.137-2.749-30.349,12.388-47.25a5.7,5.7,0,0,0-.655-8.22c-13.833-11.144-35.61-16.71-51.071-6.706a13,13,0,0,1-14.443-.289c-21.269-14.731-37.88-34.1-45.283-43.457a5.519,5.519,0,0,0-8.831.209c-7.358,10.388-19.779,34.007-8.292,63.878a6.65,6.65,0,0,0,10.15,2.872c14.757-10.6,37.849-6.219,51.221,13.941a2.005,2.005,0,0,1-2.348,3.01c-11.649-4.317-38.763-11.661-47.578,9.336-6.476,15.426-2.824,30.16.48,38.51a11.207,11.207,0,0,0,10.437,7.048H508.044a4.864,4.864,0,0,0,4.566-6.494c-2.5-7.25-3.845-19.713,8.012-32.925C528.763,546.487,539.61,542.057,546.4,540.039Z" style="fill:#c0392b"/><path d="M44.528,261.044a16.579,16.579,0,0,1,5.588,10.494l4.94,38.04a2.265,2.265,0,0,0,4.049,1.088c4.55-6,13.253-16.5,22.739-22.912a7.487,7.487,0,0,0,3.108-7.667,75.073,75.073,0,0,1-1.219-18.255,15.055,15.055,0,0,1,12.848-14.145c11.026-1.549,20.944-4.611,29.268-9.849a45.43,45.43,0,0,0,16.438-18.485l3.54-7.193a1.8,1.8,0,0,1,3.405.917c-.855,11.845-1.428,31.85,7.112,34.948,6.442,2.338,11.546,1.5,15.034.083a6.636,6.636,0,0,1,8.53,3.158l13.677,28.115a2.666,2.666,0,0,0,4.98-.5,129.274,129.274,0,0,1,14.015-34.406,9.344,9.344,0,0,0,0-9.6l-11.467-19.229a11.481,11.481,0,0,1-1.073-8.949c3.187-11.666-6.89-31.939-23.382-33.395a11.783,11.783,0,0,1-9.01-5.568,158.46,158.46,0,0,1-10.21-20.786,3.443,3.443,0,0,0-4.915-1.683c-6.95,4.109-9.985,14.159-11.217,20.178a21.962,21.962,0,0,0-.073,8.45l1.726,9.211a13.022,13.022,0,0,1-2.994,11.012c-25.157,28.506-45.883,26.929-56.126,23.362a24.846,24.846,0,0,1-8.778-5.636c-11.936-11.3-39.655,3.482-41.442,19.191C31.781,247.192,39.307,256.581,44.528,261.044Z" style="fill:#c0392b"/><path d="M146.407,457.754a2.145,2.145,0,0,1,3.523,1.634l.03,4.084a4.93,4.93,0,0,0,4.614,4.863c32.317,2.315,67.35-18.653,78.762-26.165a4.227,4.227,0,0,0,1.162-5.909c-5.934-8.745-6.774-21.107-6.461-29.8A4.229,4.229,0,0,0,221.175,403c-19.757,15.687-75.212,49.71-149.157,11.521a8.235,8.235,0,0,0-9.638,1.489c-4.8,4.828-12.931,14.126-9.732,26.145,1.929,7.244,8.642,14.366,13.957,19.082a27.965,27.965,0,0,1,8.972,16.2c4.348,25.3,5.905,49.4,4.073,72.074a2.1,2.1,0,0,0,3.842,1.341c6.556-9.864,19.17-26.293,33.337-31.472,15.248-5.574,12.884-22.193,3.565-22.035-8.211.139-14.629-5.614-18.534-10.4a2.026,2.026,0,0,1,2.3-3.176c5.88,2.253,14.715,4.353,22.242.835C139.022,478.713,136.809,466.03,146.407,457.754Z" style="fill:#c0392b"/><path d="M520.763,139.45a1.9,1.9,0,0,0-2.64-2.187c-9.619,4.211-22.5,3.787-29.119,3.195a5.67,5.67,0,0,0-5.735,3.55c-6.257,15.19-23.5,33.169-32.49,41.883a9.986,9.986,0,0,1-10.455,2.239c-3.668-1.38-9.5-2.095-17.763,1.043-15.188,5.766-20.716,35.063-18.567,48.172,6.559,40.022,31.92,38.375,43.342,35.453a17.4,17.4,0,0,1,12.1,1.36l58.752,29.462a3.649,3.649,0,0,0,4.994-4.695c-6.029-13.91-6.408-28.341-5.931-36.757.259-4.568-2.2-8.849-8.754-12.169l-25.3-12.827a5.368,5.368,0,0,0-7.06,2,40.078,40.078,0,0,1-10.159,11.019,1.972,1.972,0,0,1-2.963-2.46,30.808,30.808,0,0,0,2.834-20.423,11.794,11.794,0,0,1,2.908-10.15C480.624,204.409,513.633,167.129,520.763,139.45Z" style="fill:#c0392b"/><path d="M303.916,450.829l23.521,31.683a3.093,3.093,0,0,0,5.544-1.406c1.428-9.741,5.655-26.534,18.153-38.93a4.864,4.864,0,0,0-.01-6.977c-6.455-6.209-19.3-19.623-24.526-32.59a8.148,8.148,0,0,1,.195-6.47c1.667-3.6,3.993-10.25,2.648-17.241a8.119,8.119,0,0,1,5.117-9.027c8.746-3.4,18.974-8.188,24-10.59a3.279,3.279,0,0,0,1.518-4.438c-2.447-4.863-6.842-15.032-6.567-24.885a3.29,3.29,0,0,0-4.833-3.033c-16.793,8.94-33.254,12.882-52.45,14.138a12.381,12.381,0,0,0-8.716,4.407,142.784,142.784,0,0,1-30.493,27.392,16.5,16.5,0,0,0-7.451,11.886c-1.561,13.26-.528,38.5,27.733,46.31a4.756,4.756,0,0,0,5.984-4.153c1.618-16.369,8.235-25.446,13.048-29.99a2.424,2.424,0,0,1,4.059,2.171C298.3,411.02,294.989,437.582,303.916,450.829Z" style="fill:#c0392b"/><path d="M592.075,77.465c-9.966.895-26.854-.19-37.256-1.039a10.978,10.978,0,0,1-9.793-8.739c-1.482-6.923-5.862-16.049-18.593-17.2,0,0-13.041-2.56-23.293,6.8a22.093,22.093,0,0,1-15.915,5.977C461.285,62,436.891,54.407,426.3,50.682a2.8,2.8,0,0,0-3.539,3.655C426.433,63.693,435.3,81.7,450.391,86.3l12.33,2.675a12.652,12.652,0,0,1,9.743,9.636c5.1,23.909,26.481,26.849,30.171,26.548,18.083-1.475,28.688-23.647,32.513-33.447a2.822,2.822,0,0,1,5.037-.475c2.379,4.038,3.222,9.3,2.651,16.448a3.675,3.675,0,0,0,3.4,3.971c14.539,1.016,36.36,3.827,45.53,5.053a3.69,3.69,0,0,0,4.176-3.768L595,80.085A2.7,2.7,0,0,0,592.075,77.465Z" style="fill:#c0392b"/><path d="M297.111,14.379a1.765,1.765,0,0,0-2.734,1.368A50.939,50.939,0,0,0,296.013,31.1a7.237,7.237,0,0,0,4.612,5c3.012,1.052,7.4,3,10.511,6.18a7.147,7.147,0,0,1,1.753,6.416A12.9,12.9,0,0,0,322,63.548a2.419,2.419,0,0,1,1.559,3.3c-2.334,5.5-9.288,17.347-27.459,23.705a6.648,6.648,0,0,1-6.108-.9c-3.6-2.608-10.882-6.118-19.531-.611a6.624,6.624,0,0,1-7.54-.17c-8.05-6.034-16.372-15.924-20.664-21.348A2.424,2.424,0,0,0,238,68.5a59.593,59.593,0,0,0-1.619,16.524,10.579,10.579,0,0,0,3.7,7.35c22.94,19.542,21.875,30.577,12.255,41.083a10.555,10.555,0,0,0-2.3,9.994c2.188,7.821,1.346,16.881.419,26.111a2.021,2.021,0,0,0,3.691,1.327c6.244-9.632,6.948-23.933,25.275-17.8a4.323,4.323,0,0,0,5.646-3.69c1.071-10.556,1.368-21.8,10.122-29.054,18.4-14.612,46.4-24.62,50.123-49.877,3.993-27.082,14.606-37.7,18.929-40.991a3.788,3.788,0,0,0,1.371-3.929c-1.86-7.593-6.963-12.725-10-15.2a3.774,3.774,0,0,0-4.487-.23C335.344,20.589,312.386,24.034,297.111,14.379Z" style="fill:#c0392b"/><path d="M194.426,64.633a6.926,6.926,0,0,1,7.033.8c4.6,3.485,13.614,8.958,19.57,13.686a2.78,2.78,0,0,0,4.5-1.984A66.41,66.41,0,0,1,229.261,60.2a3.605,3.605,0,0,0-1.132-4.031c-3.4-2.755-6-5.041-7.928-6.815a6.649,6.649,0,0,1-.22-9.516c10.173-10.522,25.975-17.424,37.835-18.107,3.548-.205,6.8-.095,8.673.669,4.706,2.169,9.437,4.582,14.247,6.577a2.164,2.164,0,0,0,2.986-2.042c-.122-6.751-.229-13.315-.4-19.876-.051-1.954-1.931-3.708-4.293-4.07l-52.647-.639a2.886,2.886,0,0,0-2.76,3.839l1.7,4.876a5.4,5.4,0,0,1-2.235,6.327,47.727,47.727,0,0,0-12.185,11.547,2.017,2.017,0,0,1-3.585-.73c-1.293-5.683-5.794-13.875-21.086-12.878-2.208.143-9.892-.872-16.284-9.035A10.358,10.358,0,0,0,161.587,2.4l-21.753.4a1.915,1.915,0,0,0-1.253,3.331l22.742,20.676a4.252,4.252,0,0,0,5.485.2l3.218-2.526a1.416,1.416,0,0,1,2.285,1.243c-.454,4.915-1.4,14.268-2.512,20.118C166.879,61.2,181.915,70.287,194.426,64.633Z" style="fill:#c0392b"/><path d="M65.167,98.625A4.24,4.24,0,0,0,71.1,101.3c5.8-2.787,15.922-6.286,24.242-2.019a3.28,3.28,0,0,0,4.527-1.527c1.711-3.847,5.116-9.985,10.83-14.4a1.424,1.424,0,0,1,2.174,1.673,52.086,52.086,0,0,0-4,16.662,23.677,23.677,0,0,0,3.553,13.912c5.981,9.634,11.108,18.023,16.772,30.387a3.038,3.038,0,0,0,5.592-.133,45.313,45.313,0,0,1,8.262-14.237,3.03,3.03,0,0,0,0-4.08c-10.938-12.049-15.6-27.187-17.46-35.651a4.881,4.881,0,0,1,4.918-5.943c8.1.282,22.855-.824,34.884-10.687a3.12,3.12,0,0,0,.813-3.779,76.034,76.034,0,0,1-3.75-8.9,3.145,3.145,0,0,0-4.645-1.655c-12.093,7.377-22.794,7.195-28.645,6.23a5,5,0,0,1-4.248-4.8c-.067-9.257-9.931-15.7-17.923-13.224a5.367,5.367,0,0,1-5.783-1.658A170.621,170.621,0,0,1,87.255,26.982a3.74,3.74,0,0,0-6.519.166C76.487,35.18,74.9,50.263,77.638,56l4.69,6.767a7.1,7.1,0,0,1-1.878,9.945C75.406,76.089,68.223,80.823,63.2,83.793a4.184,4.184,0,0,0-1.616,5.472A53.922,53.922,0,0,1,65.167,98.625Z" style="fill:#c0392b"/><path d="M588.675,282.887c-18.727-3.464-37.611-12.184-47.634-17.324a5.245,5.245,0,0,0-7.624,4.878c.4,12.652,8.817,32.764,14.5,44.992a43.958,43.958,0,0,0,14.1,17.068c7.188,5.206,17.542,12.606,26.634,18.726a4.759,4.759,0,0,0,7.421-3.945V291.664A8.956,8.956,0,0,0,588.675,282.887Z" style="fill:#c0392b"/><path d="M239.988,353.09c15.054-8.191,25.547-19.011,29.52-32.913A12.325,12.325,0,0,0,265.2,307.25c-14.5-11.641-25.47-27-36.474-45.157a4.723,4.723,0,0,0-8.158.138c-7.691,13.539-9.861,27.627-10.3,37.259a36.642,36.642,0,0,0,4.937,20.031c6.472,11.172,14.631,25.151,18.512,31.794A4.685,4.685,0,0,0,239.988,353.09Z" style="fill:#c0392b"/><path d="M86,308.836a97.976,97.976,0,0,0-23,28.379,24.088,24.088,0,0,0-2.881,12.9,153.871,153.871,0,0,0,4.079,27.856,16.973,16.973,0,0,0,6.032,9.254,104.7,104.7,0,0,0,31.973,16.852,3.632,3.632,0,0,0,4.557-4.56c-4.51-14.168-14.825-50.18-16.927-89.023A2.341,2.341,0,0,0,86,308.836Z" style="fill:#c0392b"/><path d="M591.063,403.029c-7.588,32.79-18.518,47.978-23.933,53.836a6.894,6.894,0,0,0-1.3,7.367c3.694,8.782,10.944,30.619,7.759,61.082a3.615,3.615,0,0,0,6.189,2.892c9.916-10.3,14.246-22.993,15.826-28.89a22.586,22.586,0,0,0,.762-5.911c-.086-30.025-.076-59.838-.069-89.783A2.649,2.649,0,0,0,591.063,403.029Z" style="fill:#c0392b"/><path d="M119.922,533.644c-34.331,22.906-37.062,48.377-36.474,58.99a5.372,5.372,0,0,0,5.37,5.071H127.5a5.371,5.371,0,0,0,5.363-4.987c.719-10.052,1.427-33.717-5.175-56.229A5.142,5.142,0,0,0,119.922,533.644Z" style="fill:#c0392b"/><path d="M390.484,259.507c-26.913,41.584-17.574,75.006-13.59,85.226a2.779,2.779,0,0,0,4.236,1.24c7.9-5.793,30.18-23.675,38.253-46.358a8,8,0,0,0-2-8.386,103.566,103.566,0,0,1-22-31.345A2.785,2.785,0,0,0,390.484,259.507Z" style="fill:#c0392b"/><path d="M358.657,153.779a4.045,4.045,0,0,0-6.513,2.738c-3.053,27.544,12.081,52.045,33.19,69.142a3.656,3.656,0,0,0,5.916-2.337C398.782,169.058,420.06,201.8,358.657,153.779Z" style="fill:#c0392b"/><path d="M49.254,127.305a3.574,3.574,0,0,0-5.531-1.863c-9.019,6.581-19.065,16.1-17.342,26.657,3.209,14.973,5.792,29.719,8.834,44.657a5.139,5.139,0,0,0,8.227,3.019c5.346-4.318,10.961-7.694,17.6-9.377,1.589-.4,1.688-1.44,1.376-2.653-3.612-15.834-10.083-30.871-10.447-47.454C51.992,136.032,50.593,131.767,49.254,127.305Z" style="fill:#c0392b"/><path d="M333.832,134.046l-9.491-7.494a7.1,7.1,0,0,0-6.868-1.126c-12.761,4.774-16.3,20.579-17.273,28.965a7.614,7.614,0,0,0,3.933,7.587c7.148,3.88,21.913,12.5,34.432,23.745a2.081,2.081,0,0,0,3.4-2.086c-4.393-16.325-4.523-33.1-4.248-41.246A10.2,10.2,0,0,0,333.832,134.046Z" style="fill:#c0392b"/><path d="M5.571,49.46c1.9-3.551,4.9-8.786,7.662-11.967a1.5,1.5,0,0,1,2.609,1.188c-1.587,11.579-9.787,33.566-6.7,43.652a2.362,2.362,0,0,0,4.349.4c4.694-9.312,14.638-15.787,19.839-18.684a3.946,3.946,0,0,0,1.642-5.136c-3.8-8.049-12.994-29.33-16.351-53.56A3.553,3.553,0,0,0,15.1,2.3H7.293a3.606,3.606,0,0,0-3.6,3.6l-.05,43.075A1.027,1.027,0,0,0,5.571,49.46Z" style="fill:#c0392b"/><path d="M420.265,75.821c-4.914-7.435-9.157-15.029-11.058-23.713a8.5,8.5,0,0,0-6.277-6.414,93.894,93.894,0,0,1-18.314-6.574,8.37,8.37,0,0,0-5.908-.557c-13.205,3.623-17.646,18.914-19.022,26.109a3.583,3.583,0,0,0,3.156,4.231c11.275,1.178,34.892,2.539,55.851,9.025A1.394,1.394,0,0,0,420.265,75.821Z" style="fill:#c0392b"/><path d="M8.851,113.18a11.821,11.821,0,0,0,.628,10.447,31.375,31.375,0,0,0,6.037,7.717,4.84,4.84,0,0,0,7.132-.626c7.116-9.6,15.592-16.884,26.732-21.006a5.759,5.759,0,0,0,2.487-2.777c3.542-9.1-1.252-20.319-9.307-25.551a5.745,5.745,0,0,0-5.535-.371C31.254,83.686,17.828,91.9,8.851,113.18Z" style="fill:#c0392b"/><path d="M212.19,195.025a3.915,3.915,0,0,0,5.442,2.667,73.225,73.225,0,0,0,9.277-5.237,26.053,26.053,0,0,0,11.138-16.547c1.835-9.092,1.24-18.639.779-23.168a2.465,2.465,0,0,0-3.061-2.154c-12.194,3.244-9.828,15.531-28.42,23.416a3.937,3.937,0,0,0-1.769,5.782A48.6,48.6,0,0,1,212.19,195.025Z" style="fill:#c0392b"/><path d="M67.9,39.648c.7-5.935,2.715-15.579,8.5-23.018a4.923,4.923,0,0,0,.446-5.34l-2.95-5.52a6.574,6.574,0,0,0-5.8-3.475H48.08a1.692,1.692,0,0,0-1.5,2.472l18.39,35.406A1.558,1.558,0,0,0,67.9,39.648Z" style="fill:#c0392b"/></svg>