<?xml version="1.0" ?><svg fill="#c0392b" data-name="Layer 4" id="Layer_4" viewBox="0 0 600 600" xmlns="http://www.w3.org/2000/svg"><title/><path d="M598.157,362.265c-17.519-7.894-54.462-20.592-59.615,31.813-2.817,28.639-.452,36.589,17.57,58.158,17.265,20.665,4.323,41.257,1.273,50.437-11.282,33.958,20.118,53.794-21.462,87.763a1.728,1.728,0,0,0,1.094,3.064c20.723,0,40.421.132,61.14.2Z" style="fill:#c0392b"/><path d="M141.139,38.688c-37.053,5.477-100.176,17.553-131.29,39.4A11.17,11.17,0,0,0,5.09,87.148L4.964,104.6c21.8-20.452,51.65-34.375,76.11-42.01a2.371,2.371,0,0,1,1.872,4.324c-38.707,22.44-61.289,48.355-71.485,62.117a33.6,33.6,0,0,0-6.577,20.041l.052,60.514,1.232.321c25.052-44.691,57.623-34.58,75.847-71.1,18.966-34.828,71.024-45.068,106.942-40.185,68.412,9.013,87.96-47.594,153.246,49.05,7.45,11.028,14.125,26.487,25.58,33.154,9.1,5.294,16.394,12.673,23.021,20.729,21.076,28.273,32.463,58.3,43.516,95.249a49.518,49.518,0,0,0,13.114,21.315c14.185,15.023,37.341,4.259,43.76-12.967,15.974-43.509-1.852-92.161-25.4-129.588C373.383,30.582,158.879-6.979,7.528,59.133c-6.109,3.087-6.1,3.1-5.334,10.107C63.27,42.472,111.843,35.557,140.717,34.275A2.219,2.219,0,0,1,141.139,38.688ZM428.409,189.1c3.727-9.088,14.987-6.319,19.657.479,10.54,13.574,18.414,29.491,19.851,46.8-.717,10.319-8.73,14.912-16.971,10.587C437.6,236.332,423,206.056,428.409,189.1Zm-45.952-42.555a8.509,8.509,0,0,1,11.626,1.175c9.9,10.9,26.239,40.226-1.61,27.14C383.961,170.864,374.27,153.305,382.457,146.549Z" style="fill:#c0392b"/><path d="M372.525,206.685c-15.827-21.44-39.651-18.085-50.418-40.658-8.275-17.348-36.363-74.908-70.956-53.721-43.2,26.454-127.917-19.864-157.4,39.532C70.853,197.973,36.68,174.76,5.6,249.269,4.042,297.812,5.336,346.429,4.936,395Q4.957,461,4.949,527.011c.153,3.234.715,3.649,3.949,2.909,15.225-5,29.257-12.563,42.725-21.1a4.983,4.983,0,0,0,1.054-7.524c-6.762-7.584-19.312-24.3-16.35-41.154,6.692-39.591,11.354-34.834-6.383-70.56-12.658-31.511-8.9-61.083,17.443-78.9,16.6-11.225,19.352-30.866,21.56-39.079,21.289-79.165,90.755-74.882,152.9-59.8,38.569,9.358,55.327,25.123,75.1,4.526,21.928-27.883,37.04,7.6,54.583,19.907,7.033,6.512,27.152,16.321,36.229,20.224a4.841,4.841,0,0,0,6.646-5.619C391.782,240.592,385.861,224.749,372.525,206.685ZM177.274,153.339a40.02,40.02,0,0,1-25.3,12.688c-9.911-.458-17.588-10.646-8.5-18.075,8.375-5.893,19.406-11.022,29.817-8.486C179.543,141.7,181.791,148.563,177.274,153.339Z" style="fill:#c0392b"/><path d="M361.882,593.589c25.543,0,36.306-21.008,47.463-44.841,14.56-31.1,36.457-30.783,41.535-48.187.915-3.138,2.139-7.842-.333-9.207-2.13-1.175-3.685.244-5.305,1.463-39.13,30.428-63.665,49.925-114.562,58.082-99.794,21.4-104.084-48.424-174.485-.416a41.144,41.144,0,0,1-17.127,5.838c-26.085,1.182-42.831,21.614-61.55,37.182C172.44,593.513,267,593.423,361.882,593.589Z" style="fill:#c0392b"/><path d="M169.466,526.66c91.335-25.519,71.453,48.88,187.3-2.3a2.089,2.089,0,0,0-1.119-3.981c-74.638,9.845-91.906-13.919-131.545-26.613-91.182-29.2-156.161,45.217-214.941,56.06-2.979.549-4.386,2.44-4.312,5.554.236,10.041.072,20.089.094,30.134.011,4.889-.447,4.3,5.171,4.429,8.878.2,17.774.256,26.623.845,29.618,1.943,54.492-53.51,94.649-53.183C146,538.044,156.248,530.352,169.466,526.66Z" style="fill:#c0392b"/><path d="M514.83,584.433c9.889-10.419,25.969-30.36,20.148-54.2-8.251-33.8,18.406-47.07-1.587-75-6.057-8.461-17.137-48.345-41.539-16.976-13.383,17.2-24.148,37.451-22.349,59.965,2.736,22.083-8.139,34.692-25.6,44.025-18.408,12.446-3.478,22.889-36.238,48.1a1.766,1.766,0,0,0,1.053,3.174c15.058.07,58.846.216,86.016-.295A28.43,28.43,0,0,0,514.83,584.433Zm-27.036-99.066c-.535-9.916,1.263-21.145,9.05-27.964,5.953-4.718,13.805-1.318,14.652,6.22a31.9,31.9,0,0,1-5.074,20.514c-1.4,2.187-2.827,4.344-4.346,6.434C497.762,497.059,487.353,493.913,487.794,485.367Z" style="fill:#c0392b"/><path d="M72.359,486.705a6.371,6.371,0,0,0,8.157,1.51c8.836-5.092,29.688-15.989,52.963-20.269,4.268-.785,7.8-25.834-19.446-44.322-20.737-14.071,2.975-49.692-7.515-71.8-7.4-19.657-12.88-49.554-.341-68.287,13.006-19.6,28.406-30.168,49.521-41.889,4.457-1.941,9.76-11.222,1.3-10.846-85.817,8.267-56.558,44.552-91.242,87.156-45.031,55.314,8.8,72.289-6.1,121.734C53.589,459.836,65.861,478.6,72.359,486.705Z" style="fill:#c0392b"/><path d="M142.853,424.333c21.054,17.051,4.908,34.6,21.887,40.718,6.251,2.372,12.677,2.119,19.032,1.77,37.394-2.05,71.609,17.552,91.358,27.285,10.662,5.255,19.266,7.6,25.788,8.5a3.6,3.6,0,0,0,2.193-6.743c-8.064-4.248-18.257-10.522-25.676-18.209-13.017-13.486-35.3-16.818-53.655-20.6-60.457-12.447-97.365-70.935-83.817-173.331.406-3.076-1.869-4.91-4.244-2.856-28.946,25.032-15.629,56.958-12.281,67.226C133.749,378.837,111.949,398.605,142.853,424.333Z" style="fill:#c0392b"/><path d="M363.965,361.8c2.377,16.1,9.871,29.059,21.972,39.645,9.318,8.151,21.589,2.978,24.644-6.937,1.387-4.5,1.761-9.315,2.272-12.178-.819-16.672-4.239-30.612-13.458-42.466C379.574,313.272,359.525,336.515,363.965,361.8Zm18.587,5.089a6.962,6.962,0,0,1-5.689-1.357c-4.812-4.462-6.919-15.424.623-18.051C384.094,347.083,391.262,364.691,382.552,366.889Z" style="fill:#c0392b"/><path d="M347.2,6.552a29.8,29.8,0,0,0-16.333,2.427c-30.237,14.172,25.819,54.367,46.76,47.866,29.89-7.11,3.7-36.466-12.115-44.085A51.2,51.2,0,0,0,347.2,6.552Zm11.914,18.2c-1.4,8.629-17.119,3.383-21.459-2.13-3.795-4.27-.6-10.25,4.485-11.523,3.724-1.056,11.359,3.178,15,7.269A7.819,7.819,0,0,1,359.116,24.754Z" style="fill:#c0392b"/><path d="M553.394,208.473c6.416-25.163-23.038-58.474-31.21-33.333a29.148,29.148,0,0,0-1.156,11.879,60.838,60.838,0,0,0,3.261,15.163C528.525,217.412,547.365,229.765,553.394,208.473Z" style="fill:#c0392b"/><path d="M330.909,287.719c-.345-8.761-4.1-19.6-13.486-23.06-7.657-3.369-14.291.289-15.674,8.6C297.508,292.257,330.425,316.412,330.909,287.719Z" style="fill:#c0392b"/><path d="M414.312,299.855c2.937-4.359-1.332-18.662-7.35-17.623a3.747,3.747,0,0,0-2.667,2.237c-1.491,3.293-.869,8.337.436,12.195C406.136,301.02,412.15,304.752,414.312,299.855Z" style="fill:#c0392b"/><path d="M327.4,504.093c3.376,3.363,16.841,2.021,16.949-3.515a3.394,3.394,0,0,0-1.533-2.758c-2.674-1.893-7.271-2.2-10.929-1.707C327.766,496.615,323.411,501.327,327.4,504.093Z" style="fill:#c0392b"/></svg>