<?xml version="1.0" ?><svg fill="#c0392b" id="icon" viewBox="0 0 512 512" xmlns="http://www.w3.org/2000/svg"><title/><path d="M267.72,149.73a10.75,10.75,0,0,1-8.23,3.65l-1.91,0a96.82,96.82,0,0,0-56.9,18.44,4.65,4.65,0,0,0-.94,6.59c2.72,3.55,6.2,8,10,12.57a4.52,4.52,0,0,0,6.08.81,72.32,72.32,0,0,1,25.37-11.34c.21.44,0-.07.18.37-7.47,6.7,2.48,17.71,9,11.35C301.64,142,347,113.05,374.78,98c13.45-7.28,29.12,4.78,25.82,19.88-5.71,26.11-18.14,50.05-29.4,67.73-3.58,5.62,3.51,11.9,8.5,7.54,33.49-29.34,57.86-67,74.84-100.64,18.17-36-21.11-74-55.9-54.19C348.36,67,302.53,110.83,267.72,149.73Z"/><path d="M354.7,156.4a2,2,0,0,0,3.08,2.43c6.05-6.1,13.91-16.48,19.38-32.66a7,7,0,0,0-9.11-8.77c-10.17,4.1-25.78,12.69-44,30.53a8.56,8.56,0,0,0,1.15,13.15l.2.13a8.21,8.21,0,0,0,10.85-1.37,180.13,180.13,0,0,1,19-18.75,3.47,3.47,0,0,1,5.27,4.28C359,148.48,357.09,152.17,354.7,156.4Z"/><path d="M264,130c7.3-3.48,12.83-10.42,18.33-16.2q8.9-9.36,18.13-18.41,18.45-18.11,38.06-34.92c7-6-3.14-16.27-10.12-10.25q-20.06,17.27-38.85,36-9.15,9.12-18,18.56c-5.56,5.95-11.63,12.12-14.35,20C255.74,129,260.65,131.61,264,130Z"/><path d="M352.3,44.88a23.81,23.81,0,0,0,1.89,1.46,10.45,10.45,0,0,0,2.19.91,8.73,8.73,0,0,0,6.47-.86l1.7-1.33a6.43,6.43,0,0,0,1.74-2.74,8.22,8.22,0,0,0,.42-5.55l-.12-.3a6.6,6.6,0,0,0-.95-2.67,10.4,10.4,0,0,0-3.06-3.1,6.26,6.26,0,0,0-3.17-1,6.35,6.35,0,0,0-3.4.15,10.43,10.43,0,0,0-3.84,2.26,8.89,8.89,0,0,0-1.44,10.74A13,13,0,0,0,352.3,44.88Z"/><path d="M446,141.15q-6.83,10-14.35,19.41c-4.88,6.11-10,12-15.17,17.83-4.72,5.38-11.29,10.65-13.32,17.74a4.63,4.63,0,0,0,5.6,5.68C415.83,200,421,193.17,426,188c5.94-6.21,11.44-12.92,16.76-19.68q7.41-9.41,14.24-19.24c4.13-6,11.24-13.42,11-21.06-.16-4.43-4.39-6.44-8.12-4.72C453.42,126.25,449.89,135.46,446,141.15Z"/><path d="M451.83,176.2c-10.17,13.16-20.82,25.86-31.74,38.38q-7.75,8.89-15.77,17.55c-4.83,5.19-11.61,10.59-12,18.11a4.22,4.22,0,0,0,4.16,4.22c7.07-.31,12.13-6.58,16.83-11.39,5.79-5.93,11.5-11.95,17.07-18.09,11.15-12.29,21.64-25.2,31.79-38.33C467.85,179.25,457.61,168.73,451.83,176.2Z"/><path d="M296.4,288.34A7.7,7.7,0,0,0,291,275.2a7.75,7.75,0,0,0-5.36,2.26,7.75,7.75,0,0,0,0,10.88,7.5,7.5,0,0,0,10.73,0Z"/><path d="M123.42,72.19c6.61,6.1,14.43,10.87,21.66,16.17C152.8,94,160.32,99.94,168,105.68c7.21,5.39,14.41,11.21,22.06,15.9,7.12,4.37,14,11.68,21.92,14.27a2.11,2.11,0,0,0,2.56-2.59c-2.85-7.81-10.43-13.75-15.31-20.31-5.56-7.48-12.88-14.06-19.89-20.12S165.25,81.41,157.88,76.1c-8-5.74-16.13-12.19-25.14-16.16C125.39,56.7,116.39,65.7,123.42,72.19Z"/><path d="M181,70c5.07,5,10.21,9.87,15.16,15,8.88,9.15,18.35,20.13,29.4,26.55,2.27,1.32,5.44-.88,4.58-3.57-3.93-12.3-13.77-23.65-22.45-32.88-4.57-4.86-9.39-9.56-14.3-14.06-4.49-4.12-9.91-10.45-16.43-9.87-2.62.24-5.23,2.17-5.07,5.14C172.24,62.53,176.79,65.84,181,70Z"/><path d="M51.26,106.58c8.76,18,20.49,34.51,32.9,50.05,4.28,5.37,30.66,41.85,38.07,30.82,3.16-4.71-1.31-10.21-3.94-14.09-4.18-6.2-9-11.87-13.67-17.68a412.15,412.15,0,0,1-26.51-36.21c-7.53-11.8-14.43-24.22-18.59-37.69-2.09-6.77-4.1-14.45-3.87-21.61,0-.47.06-1,.09-1.46,1,.9,3,1.8,3.77,2.55a21.14,21.14,0,0,1,3.35,4.17c6.11,9.51,21.31.53,15-8.92C73,49,65.55,41.91,56.48,40.26c-8.26-1.5-14.83,4-17,11.85-2.37,8.57-.3,18.76,1.69,27.22A132.17,132.17,0,0,0,51.26,106.58Z"/><path d="M137.13,195.54a7.09,7.09,0,0,0-4.87,2,7,7,0,0,0,4.87,11.93,7.1,7.1,0,0,0,4.88-2,7.23,7.23,0,0,0,2-4.95,6.93,6.93,0,0,0-6.9-7Z"/><path d="M71.12,197.67a317.59,317.59,0,0,0,25.71,25.92c4.65,4.29,9.33,8.61,14.28,12.55,4.6,3.66,9.36,8.29,15,10,4.77,1.47,7.75-3.87,6-7.84-2.43-5.38-7.83-9.9-11.78-14.23s-7.8-8.28-11.59-12.53c-7.87-8.81-15.23-18.06-22.81-27.13S71.23,166.07,64.2,156.65q-5.13-6.85-10-13.89c-3.61-5.19-6.94-11-12.41-14.35-4.84-2.94-13,.74-12.23,7.11,1.4,12.22,11.69,23.72,18.67,33.42C55.37,178.88,63.13,188.41,71.12,197.67Z"/><path d="M128.35,271.85c-11.49,3.3-19.65,12.52-28.11,20.78Q86.52,306,73.82,320.38C65.35,330,57,339.66,49.09,349.72,43,357.48,31.24,368,33.39,378.66a4.11,4.11,0,0,0,4,3c6.11-.4,9.4-4.35,13.11-8.91S58,363.58,61.79,359c7.87-9.54,15.79-19,24-28.27s16.5-18.43,24.89-27.5c8-8.68,17.14-16.52,21.11-27.87C132.52,273.27,130.29,271.3,128.35,271.85Z"/><path d="M136.45,308.61a8.44,8.44,0,0,0-7.17,4.17l-.13.21-.84,2a6.39,6.39,0,0,0-.14,3.33,8,8,0,0,0,2.27,4.81,9.82,9.82,0,0,0,3.64,2.15,9.17,9.17,0,0,0,6.36-.84l.19-.15a8.3,8.3,0,0,0,3-3,8.39,8.39,0,0,0,1.13-4.24,8.77,8.77,0,0,0-2.43-5.95A8.48,8.48,0,0,0,136.45,308.61Z"/><path d="M196.26,377.3c15.57-18.95,32.25-38.75,43.87-60.41,2.7-5-.47-9.75-4.57-11.23a5.84,5.84,0,0,0-7.86,1.62c-2.59,3.19-5.23,6.33-7.88,9.47a74.49,74.49,0,0,1-35.24-56.15l1.1,1c5.73,5.22,11.71,10.19,17.78,15s12.67,10.58,20,13c4.33,1.43,9.29-4.33,6.31-8.33-4.34-5.84-10.78-10.21-16.37-14.81-6-4.93-11.77-10.07-17.48-15.32q-3.18-2.92-6.32-5.86a11.16,11.16,0,0,1-3.16-10.87,74.73,74.73,0,0,1,4.05-11.78c17.84,17.81,37.13,33.92,59.57,45.8,7.14,3.78,13.07-6.5,6.3-10.93-17.6-11.51-32.61-27-47.09-42.09-13.42-14-26.53-28.28-39.16-43-11.81-13.77-23.38-27.75-34.44-42.16l-.24-.31c0-.16-.05-.32-.05-.48,0-3,.9-2,3.73-1.59l1.34.31,1.15.41c4.15,2.21,8.07,4.82,12,7.41,8,5.27,16.11,10.09,25.15,13.19,4.91,1.68,10.19-3.71,8.55-8.68-1.3-3.93-3.81-7.41-7-9l-.19-.17q-20-14.76-41-28c-6.62-4.19-13.28-8.33-20-12.33s-14.08-9.41-21.85-9.75l-.32,0C91.8,79.47,85,83.43,87.13,90c3.28,9.83,10.33,18.33,16,26.79,6,8.91,12.29,17.62,18.78,26.17,12.07,15.88,24.53,31.49,37.72,46.44q4.4,5,8.84,9.93a8.28,8.28,0,0,1,1.23,9.2A98.72,98.72,0,0,0,164.56,221c-.56-.35-1.13-.7-1.72-1-3.87-2-9.81,1.42-8,6.27a33.56,33.56,0,0,0,6,9.83A101.87,101.87,0,0,0,159.36,253a99.8,99.8,0,0,0,43.85,82.91,831.8,831.8,0,0,1-69.67,68.83c-7.65,6.72-16.12,14.31-26.39,16.28-6.67,1.27-15.51-.42-19.36-6.68-5.4-8.78,1.83-22.9,5.48-31.13,1.43-3.22,7.67-15.76,15.31-25.3,6.07-7.56-4-17.9-10.57-10.72a311.91,311.91,0,0,0-42.73,59.21A305.3,305.3,0,0,0,40,438.17c-3.46,8.42-8.39,18.72-5.64,29.47a19.27,19.27,0,0,0,15.58,14h.1c11.35,1.87,23,.41,33.84-3.28,24.2-8.22,43.16-26.27,60.91-44.1C162.88,416.15,180,397.09,196.26,377.3Z"/><path d="M118.58,389.61c10.6,5,19.87-4.73,27-11.42l.12-.12A49.34,49.34,0,0,0,155.56,368a221.74,221.74,0,0,0,14.91-18.37c5.27-7.2-6.31-16.11-12.21-9.56-7.36,8.17-14.68,16.39-22.09,24.52l-1.08,1.21-.48.36a17.93,17.93,0,0,1-8.17,3.16c-2.69.24-5.19-.76-7.87-.13C107.71,371.72,110.29,385.71,118.58,389.61Z"/><path d="M170.52,431.44c-9,10.62-19.67,20.62-27.78,32a43.51,43.51,0,0,0-6.43,8.63c-2.82,5.22,6.66,11.94,13.4,6.5,8-6.45,15.35-14.18,22.2-21.87,2.73-3.06,6.66-7.2,9.15-11.67.68-1.21,1.42-2.39,2.08-3.61C187.32,433.62,176.84,423.94,170.52,431.44Z"/><path d="M458.53,425.92c-20.19,1.33-39.67-6.24-57.66-14.83a283.66,283.66,0,0,1-48.25-29.74,455.2,455.2,0,0,1-42.37-36.89c-6.78-6.56-13.57-13.12-20.24-19.8s-13.21-14.36-21.54-19.25c-6.4-3.76-13,3.61-9.79,9.92,2.8,5.45,6.34,10,2.37,14.75-5,6-10.43,11.5-15.6,17.38q-8.44,9.59-17,19.11c-11,12.32-22.72,24.37-32.79,37.51-6,7.83,3.28,17.95,10.94,11.1,13.93-12.46,26.17-27.2,38.72-40.9,3.72-4.06,7.36-8.19,11-12.35l.71-.81A31,31,0,0,1,274.69,351c1.38-.25,2.74-.52,4.09-.82a15.35,15.35,0,0,1,14.24,4.1q3.15,3.13,6.36,6.21A475.84,475.84,0,0,0,345.9,400q2.34,1.73,4.76,3.45a2.22,2.22,0,0,1-2,3.93,183.74,183.74,0,0,1-19.22-7.83,141.1,141.1,0,0,1-17.4-9.92c-5.05-3.39-10.25-8.27-16.19-9.72a5,5,0,0,0-6.08,6.16c3.35,12.05,19.39,21,29.41,26.81A197.37,197.37,0,0,0,359.6,430a449.76,449.76,0,0,0,43.66,11c8.22,1.68,16,2.73,24.4,2.26,4.74-.26,26.83-.94,32.92-2C469.15,439.89,467.2,425.35,458.53,425.92Z"/><path d="M479.3,385.76a44,44,0,0,0-6.78-14.21c-7.33-10.62-15.6-20.71-23.79-30.64-8.42-10.22-17.08-20.24-26.21-29.82-8.73-9.17-18.11-21.26-29.35-27.19-7.29-3.84-16.05,4.07-11.57,11.73,5.79,9.89,15.81,17.74,23.54,26.11,7.45,8.07,14.81,16.24,21.94,24.59,1.72,2,3.43,4,5.12,6.07,8.8,10.92,7.45,22.6-5.21,18.07-6-3.48-20.31-11.84-29.79-18q-17.74-11.44-34.78-24c-5.62-4.14-11.21-9-17-13.5a9,9,0,0,1-2.27-11.39A104.85,104.85,0,0,0,355.81,253a99.84,99.84,0,0,0-46.44-84.65,6.91,6.91,0,0,0-8.84,1.33l-14.11,15.85h0l-15.29,17.16c-4.32,5.12,2.29,12.2,7.57,8.11L293.88,199a10.84,10.84,0,0,1,14.07.59A72.43,72.43,0,0,1,331,253a74.72,74.72,0,0,1-20.4,51.47,8.16,8.16,0,0,0,.4,11.49l10.2,9.66c.85.84,1.72,1.66,2.61,2.47l0,0h0c4.34,3.89,9.12,7.37,13.56,10.8q12.15,9.42,24.72,18.27,26.32,18.54,54.27,34.56A251,251,0,0,0,442,404.52c7.6,3.26,16.19,7,24.47,6.56,8.65-.51,16.23-6.35,16-15.67A18.12,18.12,0,0,0,479.3,385.76Z"/><path d="M390.76,455.7c-10.18-3.69-21-5.71-31.38-9.07s-20.73-6.84-30.72-11.15c-20.26-8.76-38.5-20.64-57.17-32.32-8.68-5.43-18.34,7.15-10.92,14.36,17.24,16.73,39.33,28.47,61.49,36.89a180.7,180.7,0,0,0,33.85,9.47c11.24,1.94,23.51,3.45,34.85,1.87C396.27,465,395,457.22,390.76,455.7Z"/></svg>