<svg fill="#c0392b" xmlns="http://www.w3.org/2000/svg" x="0px" y="0px" width="100" height="100" viewBox="0 0 48 48">
<path d="M 44.501953 2.9980469 C 44.225953 2.9980469 44.001953 3.2230469 44.001953 3.4980469 L 44 4.7714844 L 43 4.6601562 L 43.001953 3.5117188 C 43.001953 3.2367188 42.776953 3.0117188 42.501953 3.0117188 C 42.225953 3.0117188 42.001953 3.2367188 42.001953 3.5117188 L 42 4.5488281 L 41 4.4355469 L 41.001953 3.5097656 C 41.001953 3.2347656 40.776953 3.0097656 40.501953 3.0097656 C 40.225953 3.0097656 40.001953 3.2347656 40.001953 3.5097656 L 40 4.3242188 L 37.132812 4.0039062 C 36.819812 3.9729062 36.508875 4.0912188 36.296875 4.3242188 L 22.486328 18.101562 C 13.146328 20.583562 1.0019531 25.402047 1.0019531 34.998047 C 1.0019531 37.946047 2.4401562 40.821094 4.6601562 42.496094 C 4.7071563 42.542094 4.7517812 42.578328 4.8007812 42.611328 C 7.5167812 44.496328 9.5659062 44.998047 13.003906 44.998047 C 21.627906 44.998047 25.876687 35.490469 26.804688 25.355469 C 26.976687 23.664469 27.001953 21.171047 27.001953 18.998047 L 38.001953 7.9980469 L 40.001953 7.9980469 L 40.001953 9.4960938 C 40.001953 9.7720937 40.225953 9.9960938 40.501953 9.9960938 C 40.776953 9.9960938 41.001953 9.7720937 41.001953 9.4960938 L 41.001953 7.9980469 L 42.001953 7.9980469 L 42.001953 9.4960938 C 42.001953 9.7720937 42.225953 9.9960938 42.501953 9.9960938 C 42.776953 9.9960938 43.001953 9.7720937 43.001953 9.4960938 L 43.001953 7.9980469 L 44.001953 7.9980469 L 44.001953 9.484375 C 44.001953 9.760375 44.225953 9.984375 44.501953 9.984375 C 44.776953 9.984375 45.001953 9.760375 45.001953 9.484375 L 45.001953 7.9980469 L 46.001953 7.9980469 C 46.551953 7.9980469 47.001953 7.5500469 47.001953 6.9980469 L 47.001953 5.9980469 C 47.001953 5.4840469 46.612563 5.0559062 46.101562 5.0039062 L 45 4.8828125 L 45.001953 3.4980469 C 45.001953 3.2230469 44.776953 2.9980469 44.501953 2.9980469 z M 22.001953 19.267578 L 22.001953 21.998047 L 24.964844 21.011719 C 24.125844 31.350719 16.842953 42.998047 9.0019531 42.998047 C 5.1769531 42.998047 2.0019531 39.178047 2.0019531 34.998047 C 2.0019531 26.504047 12.628953 21.847578 22.001953 19.267578 z M 17.107422 25.005859 C 16.327686 25.066533 15.46875 25.509688 14.828125 26.257812 C 13.803125 27.455813 13.720531 28.985922 14.644531 29.669922 C 15.568531 30.353922 17.152734 29.936281 18.177734 28.738281 C 19.202734 27.540281 19.285328 26.010172 18.361328 25.326172 C 18.014828 25.069672 17.575264 24.969455 17.107422 25.005859 z M 9.8652344 27.003906 C 9.3976563 27.040244 8.8824219 27.306484 8.4980469 27.755859 C 7.8830469 28.472859 7.8336719 29.389781 8.3886719 29.800781 C 8.9436719 30.209781 9.8928125 29.959234 10.507812 29.240234 C 11.122813 28.523234 11.172187 27.606313 10.617188 27.195312 C 10.409063 27.041563 10.145781 26.982104 9.8652344 27.003906 z M 11.414062 30.285156 C 10.071063 31.967156 9.0529062 32.327047 7.0039062 30.998047 C 7.0039062 32.594047 7.8679062 33.998047 10.003906 33.998047 C 10.003906 36.374047 12.032906 36.998047 14.003906 36.998047 C 11.697906 35.906047 11.788672 34.370328 13.763672 32.486328 C 12.341672 32.289328 11.647063 31.477156 11.414062 30.285156 z M 16.865234 32.003906 C 16.397656 32.040244 15.882422 32.306484 15.498047 32.755859 C 14.883047 33.472859 14.833672 34.389781 15.388672 34.800781 C 15.943672 35.210781 16.892812 34.961187 17.507812 34.242188 C 18.122813 33.525188 18.172187 32.608266 17.617188 32.197266 C 17.409062 32.043516 17.145781 31.982104 16.865234 32.003906 z M 6.4453125 34 C 6.3205625 34.00525 6.1979687 34.055844 6.1054688 34.152344 L 5.1933594 35.105469 L 4.6054688 34.585938 C 4.3994688 34.401938 4.0833906 34.421906 3.9003906 34.628906 C 3.7163906 34.834906 3.7363594 35.149031 3.9433594 35.332031 L 4.8925781 36.171875 C 5.0935781 36.350875 5.3989844 36.337531 5.5839844 36.144531 L 6.4960938 35.191406 L 8.8242188 37.251953 L 8.0058594 38.197266 C 7.8258594 38.405266 7.8457344 38.719391 8.0527344 38.900391 L 9.1621094 39.875 C 9.3681094 40.057 9.6861875 40.036125 9.8671875 39.828125 C 10.050187 39.622125 10.030266 39.304047 9.8222656 39.123047 L 9.0878906 38.476562 L 9.9042969 37.533203 C 10.082297 37.327203 10.062422 37.013031 9.8574219 36.832031 L 6.7988281 34.125 C 6.6983281 34.0355 6.5700625 33.99475 6.4453125 34 z M 13.001953 46.998047 C 9.9509531 46.998047 2.0019531 47.218047 2.0019531 47.498047 C 2.0019531 47.777047 9.9509531 47.998047 13.001953 47.998047 C 20.212953 47.998047 39.001953 47.777047 39.001953 47.498047 C 39.001953 47.218047 20.212953 46.998047 13.001953 46.998047 z"></path>
</svg>