<?xml version="1.0" ?><svg fill="#c0392b" data-name="Layer 4" id="Layer_4" viewBox="0 0 600 600" xmlns="http://www.w3.org/2000/svg"><title/><path d="M154.717,62.377c-19.848,18.792-18.706,50.387,1.778,68.483,37.416,33.054,112.034,34.108,161.882,36.7,142.119,0,139.5-58.982,100.993-80.814-37.66-21.352-119.651-41.66-200.208-13.472-14.845,5.195-24.208,18.345-10.038,29.9,33.992,27.718,93.692,31.245,128.755,23.449,30.28-6.734,40.978-12.57,27.327-24.785-13.021-11.046-44.861-12.249-68.168-10.889-5.693.333-5.561,8.845.14,8.942l.245,0c37,0,55.7,11.174,32.585,14.416-64.389,9.031-91.9-13.839-93.819-18.249-4.109-7.993,5.437-12.393,11.789-14.442C297.1,65.769,351.564,74.709,393.7,98.305c27.506,15.4-4.97,40.438-32.565,46.083-52.018,10.639-123.723,6.112-170.784-19.651-17.38-8.42-37.581-39.433,7.545-60.947,24.15-11.513,67.728-19.837,139.634-19.918,20.885-.024,25-7.052,17.206-7.882-57.713-6.148-124.392-8.394-177.9,12.5A67.609,67.609,0,0,0,154.717,62.377Z" style="fill:#c0392b"/><path d="M58.9,134.959a9,9,0,0,0,9.475-4.925c1.625-3.348,2.852-7.845,1.063-12.225C51.522,73.94,96.907,15.642,258.4,11.17c3.608-.1,4.682-1.4,4.564-3.319-.116-1.891-1.483-2.527-4.942-2.819-60.246-5.095-141.682.6-187.393,28.127C57.411,41.12,23.82,71.816,38.083,119.879,41.352,130.9,52.324,133.947,58.9,134.959Z" style="fill:#c0392b"/><path d="M530.576,134.819c-.012-5.145-2.137-12.035-8.247-15.014a5.411,5.411,0,0,0-5.625.607c-3.224,2.447-8.573,7.207-9.045,12.152-1.674,16.983-16.127,61.839-119.186,60.68a5.94,5.94,0,0,0-5.515,7.724c.666,2.174,2.323,2.2,4.238,2.489C483.352,218.2,527.175,174.825,530.576,134.819Z" style="fill:#c0392b"/><path d="M392.57,40.5c-8.676-1.047-8.807,6.657-.778,7.929C400.135,49.292,401.064,41.74,392.57,40.5Z" style="fill:#c0392b"/><path d="M98.263,595.531c2.413,1.942,402.388.762,402.388.762,3.535.207,19.207-8.049-12.909-18.121C367.528,540.473,339.3,500.73,366.457,453.048a342.216,342.216,0,0,0,21.4-44.664c.935-3.088,3.135-2.806,5.714-3.706,19.373-4.706,31.144-17.845,37.953-36.415,10.681-36.415-12.4-48.321-24.27-47.048-3.631.31-3.821.393-3.729-3.381,2.266-93.774-60.27-135.433-117.486-132.614-49.214,2.425-108.449,42.724-99.857,129.928.34,3.45-.168,3.544-3.5,3.585-28.444,1.968-31.581,34.6-22.822,56.058,5.272,15.548,20.376,25.376,35.543,29.686,9.183,2.645,8.964,2.7,11.349,12,11.1,43.3,45.743,84.693,111.193,87.455,16.089,5.662-37.254,32.157-75.826-7.877-2.28-2.216-6.306-.884-6.54,2.287-5.239,71.058-112.726,79.145-135.093,89.341C96.706,588.874,94.969,592.746,98.263,595.531Zm218.7-287.038c11.606-8.618,26.048-12.443,38.1-10.537,11.384,1.8,22.454,9.118,29.829,20.426,2.432,3.729,1.488,5.949.345,7.3-1.464,1.724-6.033,2.135-7.63.534-32.031-35.628-77.27,2.086-57.755,35.68,6.664,11.348,26.018,14.893,35.867,7.038,21.679-18.309-2.44-41.615-15.42-29.7-3.813,4.325-1.285,14.816,8.894,12.206a4.314,4.314,0,0,1,2.612-.1c5.8,2.8.243,9.379-3.388,11.136-15.077,7.3-23.02-3.728-24.8-13.617-3.044-16.882,15.851-32.625,29.343-29.019,49.12,13.132,28.208,76.194-18.319,69.061C298.315,383.714,288.288,330.544,316.958,308.493ZM209.482,371.368c-31.237-50.7,41.033-105.512,81.022-53.846,2.914,3.764-1.961,11.334-7.136,6.407-19.591-18.654-38.844-17.227-52.52-5.072-19.233,16.865-14.277,49.816,10.918,53.714,7.007,1.091,14.358-.473,18.729-3.985,7.558-6.071,11.187-17.359,5.386-25.292-3.433-4.695-7.2-7.355-11.785-7.778-6.233-.611-12.293,2.365-10.921,9.664.5,2.6,3.379,7.621,9.9,5.185.865-.323,2.986-.952,3.85-.628,6,2.909,2.121,9.349-4.1,11.9a19.877,19.877,0,0,1-13.259.168c-12.989-4.573-13.267-25.577-3.86-34.07,27.984-24.067,72.928,24.446,35.67,55.494C251.06,398.087,220.348,389.092,209.482,371.368Zm100.408,87.99c-3.837.161-18.354-.358-21.7.046-9.9,1.14-17.815-8.912-15.1-18.029,1.876-8.173,5.509-15.665,9.865-22.908,5.446-9.056,14.9-9.464,21.914-6.709C326.283,419.267,340.157,454.313,309.89,459.358Z" style="fill:#c0392b"/><path d="M563.167,59.213c4.055-4.568,2.126-8.534-2.5-8.814-6.5-.452-11.78-.183-18.272-.605-2.4-.045-6.342-.165-7.8-4.948,0,0-9.419-22.138-12.766-27.159a3.4,3.4,0,0,0-5.759,0C512.715,22.708,503.3,44.846,503.3,44.846c-1.461,4.783-5.4,4.9-7.8,4.948-6.491.422-11.767.153-18.272.605-4.629.28-6.558,4.246-2.5,8.814,4.576,4.808,12.209,13.731,15.591,17.715a5.081,5.081,0,0,1,.989,4.6c-1.467,5.391-4.76,17.8-5.626,23.642-1.259,5.25,2.36,8.125,6.668,5.045,2.983-1.943,16.2-11.8,22.811-16.743a6.25,6.25,0,0,1,7.584,0c6.611,4.947,19.829,14.8,22.811,16.743,4.308,3.08,7.927.2,6.669-5.045-.866-5.842-4.156-18.236-5.624-23.632a5.1,5.1,0,0,1,.993-4.62C550.968,72.932,558.594,64.017,563.167,59.213Z" style="fill:#c0392b"/><path d="M64.415,218.506c-1.259,5.249,2.36,8.124,6.668,5.045,2.983-1.943,16.2-11.8,22.811-16.743a6.25,6.25,0,0,1,7.584,0c6.611,4.947,19.829,14.8,22.811,16.743,4.308,3.079,7.927.2,6.669-5.045-.866-5.842-4.156-18.236-5.624-23.632a5.1,5.1,0,0,1,.993-4.621c3.385-3.988,11.011-12.9,15.584-17.706,4.055-4.568,2.126-8.535-2.5-8.814-6.5-.452-11.78-.184-18.272-.605-2.4-.046-6.342-.166-7.8-4.948,0,0-9.419-22.138-12.766-27.159a3.4,3.4,0,0,0-5.759,0C91.459,136.042,82.04,158.18,82.04,158.18c-1.461,4.782-5.4,4.9-7.8,4.948-6.491.421-11.767.153-18.272.605-4.629.279-6.558,4.246-2.5,8.814,4.576,4.807,12.209,13.73,15.591,17.714a5.08,5.08,0,0,1,.989,4.6C68.574,200.255,65.281,212.66,64.415,218.506Z" style="fill:#c0392b"/></svg>