<?xml version="1.0" ?><svg fill="#c0392b" data-name="Layer 4" id="Layer_4" viewBox="0 0 600 600" xmlns="http://www.w3.org/2000/svg"><title/><path d="M539.291,355.024c-4.406-.489-8.8,3.738-12.142,6.13-13.594,10.647-26.064,22.695-40.1,32.793-36.114,23.606-76.921,39.983-108.493,70.363-13.013,12.432-23.914,26.813-36,40.094-12.585,14.881-18.792,12.422-35.121,5.13-24.807-10.039-49.13-21.92-70.594-38.044-9.831-8.992-20.869-16.392-33.726-7.744-27.349,28.719-52.923,59.38-79.022,89.292-2.03,2.4-6.3,6.014-3.632,9.319,2.419,2.991,5.441.805,7.663-1.105,8.625-7.922,17.66-15.61,28.38-20.59,10.452,2.829,18.717,10.36,28.017,15.462,62.406,39.31,143.037,51.909,211.7,21.605,2.766-1.264.8-5.979-2.086-4.944-80.582,34.01-160.206,11.276-230.009-35.289,13.96-5.414,23.073-2.449,34.416,6.351,55.643,37.989,128.782,40.341,190.408,16.054,78.165-28.566,113.147-66.57,119.338-151.066-.441-19.192,9.561-28.742,21.791-41.864C531.962,364.4,541.18,356.449,539.291,355.024Z" style="fill:#c0392b"/><path d="M460.767,21.476c-.382-7.652-10.281-1.3-11.465,3.374C448.21,34.581,461.773,27.828,460.767,21.476Z" style="fill:#c0392b"/><path d="M129.513,507.9c1.761,1.262,4.421-1.319,3.046-3.046-10.337-12.986-27.733-42.267-22.642-56.266,3.394-9.334,15.123,28.026,17.734,31.518,5.605,8.5,13.508,17.566,23.145,8,22.778-28.238,47.466-54.865,70.941-82.519,23.687-28.077,47.562-56.646,77.779-78.008,24.2-16.712,30.712-22.394,54.36.009A239.091,239.091,0,0,1,375.318,352c1.274,1.621,3.6,3.674,3.463,5.909a3.975,3.975,0,0,1-3.541,3.607c-1.8.119-3.187-1.25-4.539-2.25-12.938-9.152-26.315-18.839-41.15-24.546-8.8-2.2-16.152,3.629-22.275,9.176a245.436,245.436,0,0,0-52.088,53.421c-5.042,7.587-11.682,14.649-14.169,23.573-2.338,8.566,4.231,15.312,10.018,20.637,16.939,16.4,39.8,37.31,64.438,38.379,14.5-2.03,24.711-15.141,32.209-26.69,10.161-13.573,4.128-37.121-9.5-46.475-8.867-6.2-21.456-5.973-29.415,1.647-2.568,2.175-5.941,4.829-6.57,8.349a7.916,7.916,0,0,0,8.93,9.017c16.419-5.477,20.239,19.5,7.4,25.667-16.619,6.641-29.685-9.814-40.41-20-5.239-5.042-7.887-11.836-5.827-19.052,2.047-7.175,9.21-11.636,14.7-16.228l22.1-18.478c9.649-8.348,18.348-17.52,29.348-4.781,13.822,14.144,27.15,28.873,38.519,45.057,11.493,12.567,26.447-2.6,38.087-7.4,19.154-11.722,82.743-27.636,53.855-57.388-4.707-3.983-9.489-7.9-14.1-12.021-21.715-17.708-41.114-37.967-59.084-59.415a126.8,126.8,0,0,0-14.578-14.862A109.79,109.79,0,0,0,324.394,242.9c-2.592-.243-3.117,3.941-.612,4.523,24.156,4.724,48.737,14.744,64.569,34.33,47.813,63.46-17.8,8.056-29.814-4.294-4.028-4.347-8.241-8.642-13.7-11.177-76.206-31.759-135.472,48.174-178.237,99.782q-1.686,2.139-3.365,4.281c-1.054,1.344-2.307,3.914-4.23,3.96-4.989.12-.988-8.811-.214-11.082A127.025,127.025,0,0,1,163.9,350.64c1.028-2.211,3.145-5.442.067-7.086-3.207-1.311-5.845,2.337-8.418,3.739C97.764,380.434,77.54,460.184,129.513,507.9Z" style="fill:#c0392b"/><path d="M194.173,216.146c46.784,29.309,85.7-17.963,78-64.646a52.966,52.966,0,0,0-8.624-20.469C247.34,109.568,228.69,98.25,225.023,68.589a3.658,3.658,0,0,0-5.2-2.946c-3.431,2.891-5.985,6.823-9.084,10.095-5.606,6.492-11.354,12.9-16.725,19.59C168.7,128.563,150.191,190.086,194.173,216.146Z" style="fill:#c0392b"/><path d="M560.848,253.607c-1.331-16.465-10.077-30.953-18.176-44.925-13.477-22.392-21.264-51.711-46.681-63.715a3.085,3.085,0,0,0-3.668.832c-1.756,2.7.8,6,.946,8.915,2.591,12.669,1.967,26.278-3.432,38.154a355.641,355.641,0,0,1-19.193,32.112c-6.463,9.049-13.206,18.334-15.218,29.514-6.989,34.051,22.711,65.019,57.063,58.955C539.282,308.06,562.9,281.617,560.848,253.607Z" style="fill:#c0392b"/><path d="M107.825,345.434c36.3-10.834,38.071-55.912,40.745-87.341,2.273-6.672,6.42-12.556,10.7-18.086,1.134-1.433,2.341-2.793,3.531-4.177a1.912,1.912,0,0,0-2.1-3.095c-27.989,14.551-41.421,44.98-62.535,67.039-1.086,1.791-3.732,2.578-4.4.007,3.459-13.9,9.76-27.108,16.617-39.668,26.758-44.958-20.681-21.064-32.121-75.422-.861-3.714-.684-9.756-5.995-9.378-5.078.885-5.344,7.7-7.681,11.429q-3.675,8.436-7.152,16.958c-9.081,22.423-18.273,45.646-18.337,70.194C37.327,311.626,67.036,352.409,107.825,345.434Z" style="fill:#c0392b"/><path d="M328.872,154.425c25.626,31.741,81.7,26.972,92.238-15.772a93.28,93.28,0,0,0,3.3-25.168c.351-6.327-.49-13.985-8.558-13.89-9.673,2.62-17.241,10.476-25.525,15.872-1.743,1.261-3.58,2.863-5.8,1.651-11.7-5.182,44.441-58,48.938-68.775,1.72-1.971,3.035-5.578-.666-6.166a3.381,3.381,0,0,0-2.375,1.1c-5.263,4.237-10.676,8.593-16.948,11.246-2.41.986-6.012,2.145-8.061-.138-4.416-5.452-6.924-12.16-9.849-18.467-4.1-8.4-10.228-25.865-18.11-30.441-4.812-.654-4.441,4.964-4.872,8.23-1.783,18.612-7.108,34.314-20.377,47.925-11.466,12.936-25.378,24.612-31.815,41.109C313.783,119.86,317.518,140.165,328.872,154.425Z" style="fill:#c0392b"/><path d="M92.793,587.579c.5,9.78,12.787.918,10.765-5.187C101.942,574.9,93.2,582.774,92.793,587.579Z" style="fill:#c0392b"/></svg>