<?xml version="1.0" ?><svg fill="#c0392b" data-name="1" id="_1" viewBox="0 0 600 600" xmlns="http://www.w3.org/2000/svg"><title/><path d="M224.95,154.534a11.307,11.307,0,0,0-2.774-4.575c-6.8-6-13.759-11.822-20.692-17.671C174.516,109.273,147.076,86.842,118.392,66,84.908,39.351,49,15.679,8.089,2.461a4.257,4.257,0,0,0-5.359,5.4C14.094,41.086,30.957,71.591,52.3,99.623,74.711,130,97.612,160.04,122.253,188.65c35.993,44.238,76.325,84.961,109,131.84,5.511,7.863,10.013,16.293,11.73,25.916,1.458,10.082-9.769,18.678-19.179,19.159-13.33.1-25.469-6.452-38.045-10.055-3.735-1.616-9.595-1.171-4.453,3.481a765.757,765.757,0,0,0,62.491,49.267c7.707,5.9,16.182-3.049,24.149-4.582,12.133-3.627,24.234-10.413,37.212-8.294,27.486,3.838,32.983,17.393,55.275-7.344,3.319-3.2,3.217-9.825.015-13.263-7.613-8-14.711-16.524-22.261-24.548-34.2-35.307-71.419-67.573-103.867-104.624-42.373-46.2-87.345-90.242-124.6-140.831a4.358,4.358,0,0,1,2.812,1.376c5.405,5.562,10.772,11.16,16.172,16.727,7.007,7.224,13.851,14.619,21.093,21.6,30.85,29.059,62.334,57.7,91.575,88.236-5.575-14.432-10.988-28.733-9.877-44.461C232.012,176.431,228.894,165.419,224.95,154.534Z" style="fill:#c0392b"/><path d="M359.691,240.733c-3.008,1.755-6.009,3.666-9.675,2.716-19.5-2.96-34.6-16.57-49.993-27.8-13.58-10.741-26.784-21.955-40.211-32.891a18.422,18.422,0,0,1-6-8.294c-2.969-5.463-3.741-20.945-12.345-18.8-2.217.8-2.711,2.69-2.752,4.784.98,10.47,2.687,20.928,4.373,31.311,4.758,24.674,13.238,49.663,29.457,69.293a188.657,188.657,0,0,1,13.667,16.914c18.328,22.712,41.485,41.088,61.727,62.069,5.272,4.315,23.715,30.526,28.8,28.334,6.926.1,10.246-8.373,15.267-12.165,3.179-3.152,6.392-6.2,6.706-11.081a6.107,6.107,0,0,1,.9-2.283c8.051-17.324-14.518-32.79-.119-66.378,2.372-5.785,4.491-11.719,7.425-17.211,1.964-3.678,1.295-6.323-.658-9.52-14.755-21.807-24.806-48.17-43.616-66.734-2.485-1.026-6.086.335-4.432,3.511,1.372,3.876,2.655,7.785,4.118,11.625,4.04,9.591,8.245,18.238,5.94,28.9C368.035,233.279,365.812,238.187,359.691,240.733Z" style="fill:#c0392b"/><path d="M464,440.2c-7.835-7.293-14.836-15.508-22.492-23-3.728-3.983-7.877-.38-8.437,4.106a41.243,41.243,0,0,1-5.814,13.014c-11.31,18.222-25.537,34.114-43.122,46.37-28.967,23.94-50.942,52.969-69.462,85.77,64.215,4.986,88.634-46,107.171-97.938,1.779-4.2,4.318-8.093,6.637-12.052.879-1.5,2.128-1.936,3.542-.352,1.317,1.475,2.764,2.835,4.161,4.239,3.118,3.134,3.137,3.164,7.105,1.016,7.316-4.563,16.36-7.707,22.6-13.486C466.056,445.171,466.609,442.524,464,440.2Z" style="fill:#c0392b"/><path d="M591.6,573.205q-22.521-20.859-44.515-42.283c-23.747-22.062-44.438-46.931-66.431-70.656-2.626-2.859-2.653-3.025-6.126-.954-7.4,4.943-16.079,6.647-24.124,9.969-2.962,1.867-3.1,3.27-.557,5.672,6.841,6.45,13.766,12.81,20.625,19.241,14.8,13.878,30.1,27.2,43.93,42.142,16.6,17.919,34.065,35.03,50.848,52.783,5.4,5.709,10.7,10.276,17.637,8.066,15.856-.9,13.464,4.156,14.246-10.476C598.545,580.72,595.752,577.048,591.6,573.205Z" style="fill:#c0392b"/><path d="M395.436,397.478c2.76-2.784,5.365-5.718,8.1-8.525,12.264-11.478,16.071-14.013.587-25.06-15.728,13.146-29.741,28.06-43.382,43.3a3.41,3.41,0,0,0-.591,3.014,24.184,24.184,0,0,0,8.974,9.5c.994.64,3.067-.261,4.593-.652,3.97-3.985,9.275-8.744,14.737-4.239,9.553,6.638,16.742,15.288,25.363,23.063,2.861-8.653,5.509-16.448,7.993-24.3,4.715-8.055,2.157-9.524-4.191-15.024-12.653-9.531-13.655,4.338-24.513,5.189C392.672,401.094,393.165,399.081,395.436,397.478Z" style="fill:#c0392b"/><path d="M443.975,570.579c1.833,2.255,3.888-.274,4.9-1.958,21.471-32,.865-68.842-16.1-98.027C423.146,503.649,420.311,542.89,443.975,570.579Z" style="fill:#c0392b"/></svg>