<?xml version="1.0" ?><svg fill="#c0392b" data-name="Layer 5" id="Layer_5" viewBox="0 0 600 600" xmlns="http://www.w3.org/2000/svg"><title/><path d="M484.844,284.6c-32.673-38.784-70.318-73.422-103.527-111.66-24.8-28.757-119.679-142.377-136.6-164.867a5.467,5.467,0,0,0-6.841-1.586l-12.445,6.293a5.422,5.422,0,0,0-1.585,8.469C247.078,47.034,347.3,158.921,341.23,163.686c-6.856,5.387-111.36-118.63-129.11-136.442a7.674,7.674,0,0,0-9.2-1.276c-9.014,5.061-27.576,15.715-35.737,22.111a9.55,9.55,0,0,0-1.195,13.936c13.031,14.374,39.6,44.8,36.571,50.739-3.262,6.4-45.756-28.71-61.216-41.788a10.735,10.735,0,0,0-12.139-1.181c-23.216,12.85-45.6,27.3-67.94,41.6a7.064,7.064,0,0,0-.743,11.358C196.97,237.2,389.075,451.826,380.9,461.445c-9.771,11.5-160.991-170.729-243.7-248.465-22.356-21.252-77.627-66.694-93.725-79.864a7.069,7.069,0,0,0-8.935-.014l-27.1,22.034a9.668,9.668,0,0,0,.8,13.751c17.039,14.9,38.9,28.781,53.144,45.286,8.662,9.675,17.963,18.784,27.082,28.044,90.567,87.654,274.382,260.768,308.834,293.192a8.916,8.916,0,0,0,11.678.471l42.91-34.272a8.92,8.92,0,0,0,1.078-12.923c-11.633-12.98-36.251-40.191-46.313-49.344-30.014-24.631-115.87-115.022-105.6-119.919,9.13-4.353,143.858,123.1,173.691,151.483a9.8,9.8,0,0,0,12.459.861c10.491-7.506,30.809-22.467,41.554-33.2a6.087,6.087,0,0,0-.2-8.792c-19.931-18.289-98.394-90.669-126.72-122.536-20.269-22.8-40.343-58.941-63.6-78.859-26.658-23.445-78.35-67.666-71.386-73.134s84.614,54.818,117.175,97.046c19.906,25.816,40.979,48.324,63.083,72.139,18.646,18.159,86.414,76.54,103.258,91.018a6.666,6.666,0,0,0,8.092.483c5.851-3.994,16.268-13.025,23.056-19.05a8.417,8.417,0,0,0,.462-12.161C564.339,366.528,512.645,313.253,484.844,284.6Zm-249-150.7c-3.091,13.358-18.968,1.412-12.974-6.4C227.616,121.305,237.028,128.15,235.841,133.9Z" style="fill:#c0392b"/><path d="M9.03,195.038c3.311,11.155,6.2,22.514,12.21,32.373C44.75,266,123.419,318,247.419,457.7c37.8,42.581,127.885,120.609,145.7,135.941a1.872,1.872,0,0,0,3.092-1.425V560.892a8.817,8.817,0,0,0-2.733-6.383L13.6,192.237A2.772,2.772,0,0,0,9.03,195.038Z" style="fill:#c0392b"/><path d="M590.2,430.779l4.809-22.189a1.741,1.741,0,0,0-2.792-1.728c-31.541,25.538-76.835,67.191-115.677,91.763-4.379,2.77-8.016,9.231-8.048,14.412l-.158,25.815a1.84,1.84,0,0,0,3.349,1.064c31.667-45.874,68.606-50.471,109.421-92.256A34.686,34.686,0,0,0,590.2,430.779Z" style="fill:#c0392b"/><path d="M453.334,554.373l-.527-29.612a2.951,2.951,0,0,0-4.684-2.34c-9.5,6.887-30.794,25.193-37.4,30.9a5.765,5.765,0,0,0-1.993,4.366v30.634a2.706,2.706,0,0,0,4.438,2.08l38.241-31.833A5.339,5.339,0,0,0,453.334,554.373Z" style="fill:#c0392b"/></svg>