<svg width="600" height="600" viewBox="0 0 600 600" fill="none" xmlns="http://www.w3.org/2000/svg">
<g clip-path="url(#clip0_408_1232)">
<path fill-rule="evenodd" clip-rule="evenodd" d="M304.092 29.6777C303.667 28.0711 302.729 26.6471 301.421 25.6224C300.112 24.5976 298.504 24.0283 296.842 24.001C295.18 23.9737 293.555 24.49 292.213 25.4712C290.872 26.4524 289.887 27.8449 289.41 29.4367C264.86 106.427 225.393 179.402 193.276 238.788L193.275 238.789C183.829 256.255 175.018 272.546 167.41 287.418C167.45 288.27 167.474 289.176 167.5 290.122C167.549 291.963 167.602 293.952 167.784 295.98C168.388 302.691 169.735 308.891 171.064 315.007C172.969 323.773 174.836 332.367 174.424 342.049C174.113 349.516 173.016 356.891 171.918 364.266C170.948 370.789 169.977 377.312 169.551 383.9C168.949 388.002 168.415 396.364 174.947 394.262C184.932 385.896 184.199 370.192 183.53 355.863C183.24 349.661 182.963 343.716 183.572 338.736C186.088 314.855 204.394 296.469 222.597 282.592C260.696 252.415 314.881 250.356 357.356 272.451C372.22 280.439 386.833 307.057 362.901 329.22C362.168 329.845 361.266 330.237 360.309 330.348C359.352 330.458 358.385 330.281 357.529 329.839C327.131 318.603 313.704 333.283 312.629 363.361C310.684 388.102 325.914 415.098 351.437 419.912C362.025 421.93 375.083 420.342 383.238 412.669C396.169 399.955 394.274 378.134 389.397 362.208C388.478 359.005 386.562 356.319 384.653 353.642C382.628 350.802 380.611 347.973 379.799 344.549C378.993 337.124 382.719 330.012 386.117 323.526L386.121 323.518C386.404 322.978 386.685 322.442 386.961 321.911C388.589 318.744 389.794 315.37 390.999 311.997C391.694 310.048 392.39 308.1 393.167 306.192C393.774 304.573 394.777 299.416 396.002 293.119C398.017 282.76 400.632 269.313 403.072 263.444C403.248 263.096 403.42 262.738 403.592 262.376C395.19 244.132 386.703 226.14 378.364 208.462L378.363 208.461C347.779 143.623 319.187 83.0111 304.092 29.6777ZM408.221 272.473C407.631 283.438 406.84 298.271 409.825 309.722C411.448 315.953 414.296 321.621 417.145 327.294C419.71 332.399 422.277 337.507 423.952 343.03C435.963 376.15 432.318 415.54 408.816 442.766C405.653 446.72 402.327 450.541 399.002 454.362C394.066 460.033 389.131 465.703 384.728 471.806C377.059 482.436 371.264 494.302 367.595 506.89C366.027 511.073 364.908 518.423 363.697 526.382C361.446 541.175 358.874 558.074 352.502 560.669C345.915 563.351 347.281 547.995 348.6 533.161C349.05 528.101 349.494 523.102 349.616 518.901C349.683 516.598 349.793 514.268 349.904 511.921C350.368 502.079 350.846 491.956 348.193 482.413C344.935 470.483 331.326 469.6 324.484 478.988C322.006 482.914 321.055 487.494 320.112 492.04C319.749 493.79 319.387 495.535 318.939 497.236C317.511 504.005 316.322 510.812 315.372 517.657C313.278 531.678 311.89 553.983 310.879 575.13C328.923 573.472 348.033 569.414 368.053 562.665C425.418 543.328 488.873 464.424 436.488 337.263C427.482 315.406 417.938 293.777 408.221 272.473ZM289.155 575.976C159.455 573.933 94.2784 441.226 159.778 302.773L159.744 303.503C159.495 308.859 159.245 314.214 159.731 319.536C160.363 326.449 160.813 333.43 159.952 340.345C159.245 346.01 157.709 351.514 156.177 357.005C155.817 358.295 155.457 359.585 155.108 360.876C150.421 378.23 150.404 396.52 152.925 414.241C155.487 432.253 160.863 451.438 172.76 465.628C177.665 471.48 183.636 476.211 189.604 480.94C193.345 483.904 197.084 486.867 200.56 490.106C205.219 494.444 209.358 499.308 212.897 504.602C214.403 506.857 220.664 515.268 220.86 510.243C221.275 499.424 210.346 488.269 202.183 479.939C199.859 477.568 197.76 475.425 196.21 473.584C196.036 473.371 195.827 473.121 195.591 472.838C192.671 469.332 185.625 460.874 188.609 457.765C190.389 456.155 193.951 458.078 196.19 459.287C196.54 459.475 196.857 459.647 197.131 459.784C202.565 462.341 207.978 465.683 211.081 470.741C219.281 484.108 224.6 472.257 223.656 462.589C223.403 459.993 223.299 457.139 223.19 454.11C222.678 439.982 222.028 422.056 205.39 408.816C179.466 388.173 201.137 343.561 227.133 330.895C232.493 328.296 238.165 326.4 244.009 325.254C256.336 322.145 268.647 326.374 273.54 338.297C289.905 378.198 265.695 393.693 259.303 395.927C232.992 405.123 235.179 429.554 238.012 461.211C238.673 468.595 239.368 476.372 239.746 484.44C241.618 524.412 245.866 566.572 251.094 565.215C253.688 564.542 253.354 560.606 253.066 557.217C252.968 556.067 252.876 554.98 252.905 554.105C253.052 549.693 253.09 545.28 253.129 540.868C253.188 534.237 253.246 527.607 253.671 520.98C253.754 519.995 253.824 518.972 253.896 517.925C254.49 509.217 255.193 498.928 264.889 496.148C270.586 494.376 277.889 496.137 281.113 501.432C284.481 508.767 284.856 516.964 285.225 525.02C285.333 527.387 285.441 529.741 285.624 532.058C286.1 540.505 287.498 557.737 289.155 575.976ZM300.389 456.714C302.214 459.912 306.099 461.889 309.311 459.32C312.097 456.831 311.847 452.839 311.63 449.376C311.614 449.124 311.598 448.874 311.584 448.628C311.265 442.911 310.83 437.197 310.106 431.516C309.971 430.68 309.832 429.779 309.686 428.826C308.025 418.022 305.342 400.572 294.879 397.153C294.071 396.862 293.192 396.828 292.364 397.056C291.536 397.285 290.798 397.764 290.253 398.428C286.626 403.267 285.098 409.22 283.586 415.111C282.951 417.586 282.319 420.05 281.535 422.416C281.333 423.366 281.087 424.455 280.816 425.653L280.814 425.663L280.812 425.668L280.812 425.67C278.449 436.124 274.227 454.806 281.161 460.992C282.965 462.195 284.9 461.314 286.383 460.033C289.992 456.219 295.976 450.667 300.389 456.714Z" fill="#B0B0B0"/>
</g>
<defs>
<clipPath id="clip0_408_1232">
<rect width="600" height="600" fill="white"/>
</clipPath>
</defs>
</svg>
