<?xml version="1.0" ?><svg fill="#c0392b" data-name="Layer 4" id="Layer_4" viewBox="0 0 600 600" xmlns="http://www.w3.org/2000/svg"><title/><path d="M309.406,265.838c-.051-5.367,1.676-6.734,7.052-6.559,5.98.195,11.972.037,17.957-.028,9.841-.1,11.84,2.113,12.006,11.777.25,14.566,1.339,29.121,1.339,43.686,0,250.065-42.583,283.35-42.583,283.35-35.5-33.439-50-176.435-46.277-324.42.748-15.71,19.64-14.872,31.143-14.142,4.533.219,5.548,4.043,5.719,7.68C290.615,623.517,318.344,590.357,309.406,265.838Z" style="fill:#c0392b"/><path d="M377.094,258.789c-12.4-.985-8.423-16.382-36.126-16.5-28.9,0-57.82-1.475-86.623.972-21.069,1.853-17.5,14.319-25.134,15.268-8.9.361-20.305.387-29.207.629-3.295.09-4.762-.86-2.985-4.211,4.694-8.855,8.856-18.055,14.272-26.445,4.646-7.195,12.161-11.222,20.822-11.8,12.759-.855,25.552-1.315,38.337-1.6,3.629-.081,4.758-1.211,4.829-4.737.165-8.244.77-16.479,1.056-24.723.139-4.03,2.16-5.4,5.675-4,10.07,4,20.059,8.194,30.057,12.37,24.1,8.734,4.732,20.052,18.79,21.025,12.462.344,24.924.817,37.373,1.494,10.185.554,18.471,5.124,23.744,13.826,4.766,7.866,8.628,16.279,12.9,24.447,1.632,3.124.69,4.459-2.816,4.378C398.934,259.107,385.285,258.907,377.094,258.789Z" style="fill:#c0392b"/><path d="M298.955,50.631c-13.62,0-13.312-1.309-17.979-9.736-3.407-6.151-3.331-9.958.27-15.2,6.517-8.839,15.543-35.371,27.71-17.962,5.5,7.748,10.127,16.118,14.915,24.345.565.969.123,3-.551,4.129C314.016,50.367,317.025,51.354,298.955,50.631Z" style="fill:#c0392b"/><path d="M278.514,158.4c.466-6.081,1.046-12.845,1.476-19.618.177-2.788,1.191-3.872,3.983-2.779,10.834,4.24,21.827,8.124,32.414,12.906,8.162,4.707,5.932,23.438,7.409,32.148.391,4.9-.214,5.329-4.684,3.46-11.187-4.679-22.355-9.4-33.549-14.066C278.821,167.641,278.127,166.59,278.514,158.4Z" style="fill:#c0392b"/><path d="M318.973,133.23c.412,3.483-1.541,3.826-4.145,2.864-9.528-3.52-19.1-6.937-28.5-10.773-3.353-1.368-5.59-3.972-5.114-8.354.66-6.084.761-12.231,1.046-18.353.16-3.444,1.656-5.371,5.219-4.123,5.6,1.962,11.184,4.027,16.623,6.4,15.8,6.887,12.663,3.858,13.924,20.782C318.311,125.525,318.655,129.377,318.973,133.23Z" style="fill:#c0392b"/><path d="M311.973,60.984a3.712,3.712,0,0,1,3.607,3.554c.48,11.266,1.065,16.758,1.573,24.824.314,5-.58,5.585-5.071,3.891-7.688-2.9-15.42-5.69-23.091-8.634-8.147-2.588-5.342-10.512-5.086-20.637a3.706,3.706,0,0,1,3.8-3.621Z" style="fill:#c0392b"/><path d="M507.4,441.138c-35.617-2.477-67.984-28.268-65.437-65.352,1.373-18.1,7.146-38.3,11.918-55.614,10.041-38.88,33.912-109.185,41.932-136.673a3.325,3.325,0,0,1,6.413.1C510.644,236.45,619.212,426.821,507.4,441.138Zm-47.131-85.075c-5.046,15.333-.442,42.177,19.326,42.9,7.9-.232,16.41-5.942,18.087-15.272C509.265,319.245,468.131,328.418,460.272,356.063Z" style="fill:#c0392b"/><path d="M154.117,370.09c-5.092-56.168-22.546-110.422-33.27-165.65-3.778-18.287-6.8-36.674-9.8-55.1-.374-2.3-.744-4.6-1.153-6.89a1.935,1.935,0,0,0-3.836.438,440.213,440.213,0,0,0,8.048,54.971c6.208,28.471,19.456,88.336,10.727,79.363-11.259-41.909-19.661-79.243-22.249-90.367a4.1,4.1,0,0,0-7.937-.206C86.105,216.14,46.065,342.9,42.733,374.793c-3.862,36.97,23.835,66.345,64.419,66.345C141.529,439.94,154.784,399.191,154.117,370.09ZM98.161,383.007c-1.752,9.746-10.636,15.709-18.894,15.952-20.649-.751-25.458-28.792-20.188-44.809C67.289,325.273,110.257,315.692,98.161,383.007Z" style="fill:#c0392b"/><path d="M105.413,117.2c2.293-1.662,2.842-5.964,2.5-9.293-.286-3.187-3.81-6.662-6.04-3.656C98.952,107.005,100.054,119.149,105.413,117.2Z" style="fill:#c0392b"/></svg>