<?xml version="1.0" ?><svg fill="#c0392b" data-name="1" id="_1" viewBox="0 0 600 600" xmlns="http://www.w3.org/2000/svg"><title/><path d="M539.016,260.92a4.885,4.885,0,0,0-9.009,1.817c-4.482,24.5-21.553,75.2-86.271,82.181-38.5,4.151-106.633-24.567-148.648-61.961a6.008,6.008,0,0,0-9.892,5.493c4.878,37.9,19.541,113.112,59.227,161.745,114.31,140.081,214.258,51.933,231.983,3.02C604.833,374.77,557.71,291.205,539.016,260.92Z" style="fill:#c0392b"/><path d="M117.5,526.461a2.549,2.549,0,0,0,1.946-4.47C41.228,454.107,84.2,355.605,102.79,330.444c29.593-43.134,47.211-62.5,59.49-79.689a73.351,73.351,0,0,0,13.687-43.167c-.131-18.447-2.276-38.272-3.931-50.933a3.679,3.679,0,0,0-7-1.034C131.37,229.141,57.877,274.863,24,353.612.267,408.767,18.654,514.18,117.5,526.461Z" style="fill:#c0392b"/><path d="M110.955,466.319a2.938,2.938,0,0,0-3.927,3.557,122.351,122.351,0,0,0,4.613,12.771,80.506,80.506,0,0,0,71,48.655c22.378.888,47.175-1.671,70.906-13.331a25.537,25.537,0,0,1,30.533,6.284c15.275,17.655,34.958,31.666,55.38,43.906C416.754,614.489,528.142,590.4,554.7,520.336a3.067,3.067,0,0,0-4.7-3.5c-19.449,14.1-76.719,46.546-151.129,7.132-48.554-25.717-120.194-82.766-138.13-260.012-1.358-13.412,13.3-18.149,24.082-10.055C471.822,394.3,570.609,298.208,470.29,48.1a13.458,13.458,0,0,0-14.578-8.268c-6.829,1.075-15.435,2.525-21.523,3.882a2.159,2.159,0,0,0-1.4,3.175c.519.911,1.205,2.187,1.845,3.4a3.135,3.135,0,0,1-2.015,4.509L427.6,56.041a3.122,3.122,0,0,1-3.466-1.472c-5.226-9.113-12.9-18.591-17.569-24.039a3.53,3.53,0,0,1,2.025-5.768l3.424-.65a3.527,3.527,0,0,1,3.295,1.12c1.54,1.731,4.044,4.549,5.425,6.118a5.153,5.153,0,0,0,4.805,1.668c9.006-1.648,18.966-3.543,27.733-5.13,3.472-.725,4.5-3.644,1.18-5.51C436.2,12.132,417.3,9.092,407.688,8.191a38.757,38.757,0,0,0-11.6.678C372.39,13.842,266.376,40.475,204.127,73.423a8.463,8.463,0,0,0,.36,15.145c6.384,3,13.727,6.281,19.5,8.424a8.477,8.477,0,0,0,6.389-.167c2.3-1.02,13.544-6.562,19.02-9.269a4.5,4.5,0,0,1,5.295.974l3.169,3.418a4.5,4.5,0,0,1-.882,6.856l-21.069,13.424a13.675,13.675,0,0,1-13.211,1.415c-4.887-2.068-11.729-4.818-18.377-7a11.313,11.313,0,0,0-14.637,12.906c20.015,103.706,6.88,242.37,55.842,342.722C220.9,476.2,176.633,492.915,110.955,466.319ZM409.348,181.9a13.187,13.187,0,0,1,22.591-5.643c6.31,6.675,10.826,20.178,9.529,31.7C438.874,245.4,399.686,211.314,409.348,181.9ZM354.333,39.728l2.748-.781a4.225,4.225,0,0,1,4.25,1.17c2.31,2.477,6.726,6.291,10.852,4.684A90.651,90.651,0,0,1,394.7,39.122a9.164,9.164,0,0,1,9.081,4.6,2.716,2.716,0,0,1-1.766,4.146A194.6,194.6,0,0,0,378.035,53.9a2.392,2.392,0,0,0-1.026,3.874c1.117,1.228,2.325,2.527,3.464,3.736a4.248,4.248,0,0,1-1.9,6.984l-2.19.647a4.264,4.264,0,0,1-4.543-1.415,274.6,274.6,0,0,0-19.347-20.9A4.246,4.246,0,0,1,354.333,39.728Zm-48.078,15,4.469-2.039a3.181,3.181,0,0,1,3.689.751,50.379,50.379,0,0,0,5.545,5.023,5.95,5.95,0,0,0,5.693.975l15.271-5.371a9.447,9.447,0,0,1,6.5.38c2.458,1.07,3.076,3.081,4.168,4.1a2,2,0,0,1-.705,3.34L336.569,67.9a3.009,3.009,0,0,0-1.123,4.729l3.013,3.528a3.2,3.2,0,0,1-.757,4.808L333.1,83.8a3.2,3.2,0,0,1-4.192-.748c-5.938-7.553-17.444-17.827-23.423-22.989A3.2,3.2,0,0,1,306.255,54.728Zm-45.011,14.8,1.088-.494a5.411,5.411,0,0,1,6.174,1.246c2.475,2.625,6.284,5.9,9,4.7,5.948-2.44,12.017-4.592,17.941-7.085,3.64-1.747,7.391,1.134,9.728,3.594a2.346,2.346,0,0,1-.983,3.867,120.647,120.647,0,0,0-17.336,6.83,1.746,1.746,0,0,0-.56,2.647c3.159,4,8.212,7.366,10.228,11.8.241,1.595-2.181,3.2-4.532,4.369a6.161,6.161,0,0,1-7.1-1.178c-9.052-9.1-17.494-17.835-24.413-22.979A4.267,4.267,0,0,1,261.244,69.528Z" style="fill:#c0392b"/></svg>