<svg width="512" height="512" viewBox="0 0 512 512" fill="none" xmlns="http://www.w3.org/2000/svg">
<g clip-path="url(#clip0_508_2130)">
<path fill-rule="evenodd" clip-rule="evenodd" d="M332.665 7.54195C337.991 9.01107 343.208 10.7698 348.294 12.8035C340.201 26.6241 330.404 42.4077 320.8 55.4588C319.015 57.8784 316.715 59.8691 314.065 61.2861C311.415 62.7031 308.483 63.5106 305.483 63.6499C302.482 63.7893 299.488 63.2569 296.719 62.0916C293.95 60.9262 291.475 59.1572 289.474 56.9134C278.038 44.1221 261.147 25.2719 241.835 3.81447C276.095 -3.48596 308.046 0.772868 332.665 7.54195ZM361.513 18.8568C358.949 44.0606 357.909 68.2235 357.459 85.1951C357.372 88.3411 357.974 91.468 359.223 94.3559C360.472 97.2438 362.338 99.8226 364.689 101.911C367.041 103.999 369.821 105.546 372.833 106.443C375.846 107.341 379.019 107.566 382.128 107.103C396.621 104.895 414.118 101.123 432.387 96.6552C428.543 88.1367 423.762 79.1606 417.815 70.0099C403.704 48.2061 384.241 30.6446 361.513 18.8568ZM390.21 162.946C402.136 155.055 420.755 142.895 443.547 128.56C448.154 146.841 448.154 158.837 448.154 158.837C448.874 207.453 433.902 247.888 418.41 276.535C404.262 244.344 390.903 212.903 381.801 189.186C380.011 184.507 379.87 179.357 381.399 174.586C382.927 169.815 386.036 165.709 390.21 162.946ZM397.728 312.141C370.924 280.854 345.014 251.875 329.613 234.83C325.297 230.07 319.3 227.18 312.892 226.774C306.484 226.367 300.17 228.477 295.289 232.654C292.486 235.066 289.966 237.39 287.751 239.583C287.049 240.274 286.156 240.737 285.188 240.915C284.22 241.092 283.222 240.975 282.321 240.579C281.42 240.183 280.658 239.525 280.135 238.691C279.611 237.857 279.348 236.885 279.381 235.9C279.485 227.691 278.731 219.493 277.131 211.44C276.655 208.972 275.683 206.626 274.275 204.545C272.866 202.464 271.05 200.691 268.937 199.334C266.823 197.976 264.457 197.063 261.98 196.649C259.504 196.236 256.969 196.33 254.53 196.926C234.349 201.776 213.93 207.44 197.969 212.071C196.901 212.382 195.758 212.31 194.736 211.868C193.715 211.426 192.88 210.641 192.374 209.649C191.868 208.656 191.724 207.518 191.966 206.431C192.208 205.343 192.821 204.374 193.699 203.691C218.455 184.373 242.446 159.854 242.446 159.854C246.457 155.595 247.166 150.605 246.445 146.099C245.873 142.628 244.524 139.332 242.498 136.458C240.472 133.584 237.822 131.207 234.748 129.504C217.23 119.576 193.624 110.87 174.701 104.828C169.227 103.07 170.767 94.9747 176.476 95.2426C194.908 96.1363 213.801 98.2243 225.983 99.7562C227.36 99.9317 228.759 99.7414 230.039 99.2043C231.319 98.6672 232.436 97.8024 233.276 96.6966C234.117 95.5908 234.652 94.283 234.828 92.9045C235.005 91.5261 234.815 90.1254 234.28 88.8433C226.099 69.3176 213.836 44.5735 200.137 18.6001C188.381 24.574 176.59 32.2295 164.95 41.9008C164.95 41.9008 90.505 101.837 105.111 215.836L66.1041 288.17C64.6687 290.815 63.9447 293.788 64.0033 296.798C64.0618 299.807 64.9009 302.75 66.438 305.337C67.9752 307.924 70.1577 310.066 72.7712 311.553C75.3848 313.04 78.3396 313.822 81.3456 313.82H115.368L137.342 401.865C138.448 406.305 140.46 410.467 143.251 414.09C146.042 417.713 149.551 420.718 153.558 422.917C157.566 425.115 161.984 426.46 166.535 426.865C171.086 427.271 175.672 426.728 180.004 425.273L258.292 386.878C261.301 385.383 264.773 385.119 267.973 386.142C271.173 387.166 273.849 389.396 275.436 392.361C277.022 395.326 277.394 398.793 276.473 402.028C275.552 405.262 273.409 408.011 270.5 409.692L244.495 423.667C241.89 425.062 239.861 427.334 238.766 430.081C237.672 432.829 237.583 435.876 238.514 438.683L259.202 501.283C259.959 503.753 261.286 506.01 263.078 507.87C264.869 509.73 267.074 511.14 269.512 511.986C271.95 512.831 274.554 513.089 277.11 512.738C279.667 512.386 282.104 511.435 284.224 509.963L405.955 425.446C412.771 420.714 417.613 413.638 419.561 405.564C421.508 397.49 420.424 388.981 416.515 381.655L400.638 352.157C396.36 344.118 394.378 335.053 394.91 325.959C395.188 321.22 396.143 316.569 397.728 312.141Z" fill="#c0392b"/>
</g>
<defs>
<clipPath id="clip0_508_2130">
<rect width="512" height="512" fill="white"/>
</clipPath>
</defs>
</svg>
