<?xml version="1.0" ?><svg fill="#c0392b" data-name="Layer 4" id="Layer_4" viewBox="0 0 600 600" xmlns="http://www.w3.org/2000/svg"><title/><path d="M303.331,439.469c-3.578,1.3-7.135-2.324-6.822-6.119.336-4.07,11.785-44.99,55.458-52.909,11.406-2.068,22.873-.243,34.174,1.969,16.192,2.776,32.345,8.6,48.917,5.576,3.531-.5,4.626-3.975,5.052-7.271,1.738-10.646-.013-30.784,1.355-41.41a2.462,2.462,0,0,1,4.791-.443c4.688,14.9,16.018,51.593,17.29,61.994,1.065,8.7-1.7,21.323-10.426,31.668-3.406,4.036-12.679,7.757-17.39,6.628-17.743-3.969-35.308-9.23-53.17-12.516C355.427,422.15,335.773,427.674,303.331,439.469Z" style="fill:#c0392b"/><path d="M455.547,266.119a23.285,23.285,0,0,0,1.743-13.666l-3.585-35.466a14.285,14.285,0,0,0-4.464-9.014c-7.931-7.4-18.3-16-24.931-23.124-2.927-3.592-6.83-1.35-10.175.079-8.544,3.784-30.616,18.035-38.02,11.058-5.032-4.742-11.3-7.984-16.782-12.192-6.413-5.456-13.748-3.65-20.653-.31-7.959,4.25-15.918,8.521-23.666,13.138-6.426,3.829-8.323,3.921-14.075-.536-5.473-4.241-11.064-8.327-16.575-12.518-3.5-2.662-6.847-2.829-10.833-.587-8.395,4.721-17,9.066-25.6,13.418-4.311,2.606-18.95-2.216-23.27-4.54-11.849-6.221-28.054-5.371-35.482,6.949-7.773,11.94-18.258,33.011-24.358,45.673a.939.939,0,0,1-1.747-.675c4.16-13.882,11.741-37.425,19.1-51.246.716-1.675,2.494-4.092.73-5.623-1.351-.542-2.8.731-3.463,1.962-24.147,45.12-35.676,80.9-43.543,106.759a32.575,32.575,0,0,0-.971,16.4c3.434,16.778,25.547,63.969,30.483,71.708a6.454,6.454,0,0,0,6.962,3.2c13.473-2.552,22.448-10.379,27.016-23.248a7.472,7.472,0,0,0-.088-3.524c-2.139-12.62-5.25-26.717-4.035-39.773,2.323-24.969,15.174-57.727,21.72-73.932,2.151-5.324,7.923-13.763,11.737-16.5a.993.993,0,0,1,1.526,1.05c-.749,3.374-2.6,6.489-3.625,9.8-5.393,14.759-13.633,49.6-17.19,65.086a30.327,30.327,0,0,0,.435,15.25c4.7,16.183,15.826,52.9,21.207,57.135a20.944,20.944,0,0,0,18.586,3.633l18.395-5.14c7.112-2.343,9.638-7.655,8.3-12.014-9.2-29.977-16.646-62.324,20.544-133.351.4-.766,1.974-.88,3-1.3.18,1.086.756,2.291.471,3.236-5.536,15.043-10.656,41.125-14.535,59.56a46.949,46.949,0,0,0-.407,17.352c4.232,25.477,12.716,42.239,21.85,57.667a11.539,11.539,0,0,0,10.981,5.643c7.334-.684,14.653-1.58,21.95-2.572,4.9-.666,9.258-3.455,10.252-8.334a66.77,66.77,0,0,0,1.057-17.9c-.481-6.72-2.339-13.329-3.328-20.027-1.88-12.736-2.38-25.438.353-38.2a270.719,270.719,0,0,1,18.667-55.078c.493-1.039,1.657-1.758,2.513-2.625,1.006,3.468.276,6.959-.178,10.461-1.99,19.331-6.039,38.327-9.706,57.389a32.822,32.822,0,0,0,.612,16.043c2.5,8.209,15.593,42.1,19.189,51.019,1.293,3.209,2.966,4.444,6.176,4.617,10.373.557,20.735,1.312,31.11,1.833a36.49,36.49,0,0,0,6.272-.749c11.543-1.467,4.048-48.873,3.2-59a201.3,201.3,0,0,1,.439-23.454,197.482,197.482,0,0,1,6.559-38.212c.415-1.5,3.765-3.358,3.755,1.293-.054,25.283,1.563,39.843,2.87,46.659a1.766,1.766,0,0,0,3.341.382Z" style="fill:#c0392b"/><path d="M102.747,122.056c-2.714-1.709-7.624-1.011-6.583,2.593.419,4,10.767,10.494,12.472,5.041C108.7,126.853,105.61,123.8,102.747,122.056Z" style="fill:#c0392b"/><path d="M475.17,144.683,592.641,59.3a15.554,15.554,0,0,0,6.409-12.581V4.08A3.131,3.131,0,0,0,595.92.95h-9.14a13.621,13.621,0,0,0-10.8,5.316L471.994,141.418A2.3,2.3,0,0,0,475.17,144.683Z" style="fill:#c0392b"/><path d="M488.225,77.409l50.256-72.5A2.524,2.524,0,0,0,536.407.95H519.359a8.938,8.938,0,0,0-8.242,5.48l-28.5,67.9A3.217,3.217,0,0,0,488.225,77.409Z" style="fill:#c0392b"/><path d="M159.5,132.967,78.8,6.544A12.109,12.109,0,0,0,68.6.95H13.056a3.067,3.067,0,0,0-2.034,5.362L156.678,135.377A1.874,1.874,0,0,0,159.5,132.967Z" style="fill:#c0392b"/><path d="M76.9,103.8,5.536,45.742A2.812,2.812,0,0,0,.95,47.923V68.978A10.486,10.486,0,0,0,6.6,78.28l65.111,33.879C77.055,114.749,81.593,107.438,76.9,103.8Z" style="fill:#c0392b"/><path d="M.95,558.607v36.878a3.566,3.566,0,0,0,3.565,3.565H28.761a14.635,14.635,0,0,0,11.664-5.8L160.656,434.62a2.1,2.1,0,0,0-2.947-2.936L6.645,547.09A14.493,14.493,0,0,0,.95,558.607Z" style="fill:#c0392b"/><path d="M134.285,508.548,77.442,595.814A2.094,2.094,0,0,0,79.2,599.05H99.241a10.169,10.169,0,0,0,9.562-6.711L139.2,508.252C140.509,504.619,136.323,505.267,134.285,508.548Z" style="fill:#c0392b"/><path d="M549.612,599.05h36.2a2.821,2.821,0,0,0,1.956-4.854L455.2,466.59a2.079,2.079,0,0,0-3.22,2.559l81.309,121.194A19.656,19.656,0,0,0,549.612,599.05Z" style="fill:#c0392b"/><path d="M527.21,499.735l68.474,57.858a2.045,2.045,0,0,0,3.366-1.562V539.275a7.177,7.177,0,0,0-3.641-6.245l-65.531-37.123A2.343,2.343,0,0,0,527.21,499.735Z" style="fill:#c0392b"/><path d="M82.129,271.962,3.613,252.3A2.142,2.142,0,0,0,.95,254.381v9.439a5.669,5.669,0,0,0,5.31,5.658l74.879,5.244C83.816,274.974,84.658,272.876,82.129,271.962Z" style="fill:#c0392b"/><path d="M101.1,288.635l-93.675.012A6.1,6.1,0,0,0,.95,294.738v25.44a2.886,2.886,0,0,0,3.764,2.749l96.345-30.754C104.3,290.918,104.574,288.8,101.1,288.635Z" style="fill:#c0392b"/><path d="M599.05,283.287a2.318,2.318,0,0,0-2.637-2.3L491.88,295.811a1.358,1.358,0,0,0,.193,2.7l103.642,9.083a3.068,3.068,0,0,0,3.335-3.056Z" style="fill:#c0392b"/><path d="M290.958,4.525l10.357,123.4a2.956,2.956,0,0,0,5.866.217L326.458,6.944A5.181,5.181,0,0,0,321.342.95h-27.1A3.3,3.3,0,0,0,290.958,4.525Z" style="fill:#c0392b"/><path d="M275.909,595.028l17.458-106.95a2.335,2.335,0,0,1,4.628.145L308.6,594.687a3.969,3.969,0,0,1-3.95,4.363H279.327A3.463,3.463,0,0,1,275.909,595.028Z" style="fill:#c0392b"/><path d="M347.413,594.643l-8.843-74.681a2.462,2.462,0,0,1,4.732-1.2l30.479,76.677a2.635,2.635,0,0,1-2.448,3.609H352.372A4.994,4.994,0,0,1,347.413,594.643Z" style="fill:#c0392b"/><path d="M503.679,477.72c-2.714-1.709-7.624-1.01-6.583,2.593.419,4,10.768,10.494,12.472,5.042C509.637,482.517,506.542,479.467,503.679,477.72Z" style="fill:#c0392b"/></svg>