<svg width="600" height="600" viewBox="0 0 600 600" fill="none" xmlns="http://www.w3.org/2000/svg">
<g clip-path="url(#clip0_0_3)">
<path d="M626.946 409.028C557.632 493.228 489.15 580.668 425.954 669.582C419.72 678.357 411.169 685.226 401.257 689.422C391.344 693.619 380.461 694.977 369.821 693.346L296.725 682.134C296.205 682.055 295.718 681.828 295.323 681.48C294.928 681.133 294.64 680.679 294.494 680.173C294.348 679.668 294.35 679.131 294.5 678.626C294.649 678.122 294.94 677.67 295.338 677.326C422.734 566.641 545.975 450.575 655.259 321.815C655.541 321.48 655.926 321.247 656.353 321.151C656.781 321.054 657.228 321.101 657.627 321.282C658.025 321.464 658.354 321.771 658.562 322.156C658.77 322.542 658.846 322.985 658.779 323.418L655.428 345.271C651.842 368.698 642.003 390.724 626.946 409.028Z" fill="#c0392b"/>
<path d="M332.104 -15.4133C217.311 45.9181 17.3627 147.455 -23.2975 168.07C-24.1803 168.517 -25.1522 168.761 -26.1416 168.782C-27.1309 168.804 -28.1125 168.603 -29.0139 168.194C-29.9152 167.786 -30.7133 167.18 -31.3493 166.422C-31.9853 165.664 -32.4429 164.772 -32.6884 163.814L-53.3306 83.5437C-53.5549 82.672 -53.6045 81.7645 -53.4766 80.8735C-53.3487 79.9825 -53.0459 79.1256 -52.5855 78.3521C-52.1252 77.5786 -51.5164 76.9038 -50.7942 76.3666C-50.072 75.8293 -49.2507 75.4402 -48.3775 75.2216L330.451 -19.6826C330.997 -19.821 331.574 -19.7547 332.075 -19.4962C332.575 -19.2378 332.964 -18.8052 333.167 -18.2799C333.371 -17.7546 333.375 -17.173 333.179 -16.645C332.983 -16.1169 332.601 -15.6788 332.104 -15.4133Z" fill="#c0392b"/>
<path d="M641.762 434.343C641.259 437.614 639.932 440.702 637.905 443.317C573.754 526.165 514.306 612.945 455.292 699.627C450.954 706.008 448.123 706 442.954 704.87C442.482 704.765 442.043 704.546 441.674 704.233C441.306 703.92 441.019 703.521 440.839 703.072C440.659 702.624 440.59 702.138 440.64 701.656C440.69 701.175 440.856 700.714 441.124 700.311C505.377 603.806 572.373 509.226 640.737 415.595C641.007 415.226 641.393 414.958 641.833 414.834C642.274 414.71 642.743 414.738 643.166 414.913C643.589 415.087 643.94 415.399 644.165 415.797C644.39 416.195 644.475 416.658 644.406 417.11L641.762 434.343Z" fill="#c0392b"/>
<path d="M418.128 108.37C420.134 104.572 421.813 100.612 423.149 96.5306C423.236 96.21 423.231 95.8717 423.137 95.5534C423.043 95.2351 422.862 94.9492 422.615 94.7277C422.367 94.5061 422.063 94.3575 421.737 94.2986C421.41 94.2396 421.073 94.2725 420.764 94.3936C397.39 103.667 363.985 128.912 363.985 128.912C358.053 131.001 363.526 141.03 365.763 143.298C381.506 156.45 397.863 169.576 413.614 182.719C423.038 190.25 452.246 181.788 466.826 178.319C467.307 178.205 467.807 178.189 468.294 178.272C468.782 178.355 469.247 178.536 469.664 178.802C470.08 179.069 470.439 179.417 470.718 179.825C470.998 180.233 471.192 180.693 471.29 181.178C472.849 188.481 472.915 196.024 471.482 203.354C470.104 209.681 463.331 211.513 457.526 212.184C438.007 214.441 419.171 219.529 400.42 225.084C393.46 227.144 375.964 231.057 359.083 244.484C346.312 254.641 330.548 273.698 318.083 285.403C317.554 285.899 316.857 286.176 316.132 286.178C315.407 286.18 314.709 285.907 314.177 285.415C313.635 284.914 313.307 284.224 313.26 283.488C313.213 282.752 313.452 282.026 313.926 281.461C313.926 281.461 380.234 205.722 374.739 201.754C371.312 199.278 344.521 223.12 344.521 223.12C342.457 224.979 340.849 225.11 338.402 223.914C308.226 209.895 282.018 198.072 251.527 186.314C251.091 186.146 250.612 186.125 250.164 186.255C249.715 186.384 249.321 186.657 249.042 187.032C248.763 187.407 248.614 187.862 248.619 188.329C248.623 188.796 248.78 189.249 249.066 189.619L260.443 204.276C264.103 207.458 263.898 210.822 260.043 213.639C151.18 293.239 26.741 460.62 7.58102 486.818C7.40771 487.054 7.16384 487.229 6.88455 487.318C6.60527 487.407 6.30498 487.405 6.02696 487.312C5.74894 487.219 5.50754 487.041 5.33754 486.802C5.16754 486.563 5.07772 486.277 5.08102 485.984L5.13602 478.193C5.15896 474.914 6.04687 471.7 7.71002 468.875C15.916 454.93 44.175 409.327 94.849 351.458C95.1822 351.03 95.3443 350.495 95.3039 349.954C95.2635 349.414 95.0235 348.908 94.6305 348.535C94.2376 348.163 93.7199 347.949 93.1783 347.937C92.6367 347.925 92.1101 348.115 91.701 348.471C91.701 348.471 51.051 375.621 11.338 423.265C10.8668 423.832 10.2318 424.24 9.51982 424.434C8.80783 424.627 8.05357 424.595 7.3601 424.344C6.66662 424.092 6.06776 423.632 5.64535 423.028C5.22293 422.423 4.99755 421.702 5.00002 420.965L5.34702 261.791C5.36079 254.23 7.26112 246.793 10.8758 240.153C14.4904 233.513 19.705 227.88 26.047 223.765C91.157 181.516 159.017 135.393 225.134 95.0926C236.482 88.153 248.486 82.3489 260.973 77.7646C311.329 59.3646 362.553 43.1076 413.335 25.8966C419.714 23.7746 423.024 25.4086 426.57 30.9136C448.53 66.1816 474.56 99.1886 507.088 125.314C511.343 128.97 511.648 130.627 508.196 135.23C506.779 137.119 503.509 140.659 500.549 143.771C496.794 147.751 492.156 150.793 487.009 152.652C468.435 159.271 449.282 163.857 429.969 167.796C427.174 168.34 424.292 168.252 421.535 167.537C418.778 166.822 416.216 165.499 414.038 163.665C403.864 155.433 393.938 146.89 384.024 138.345C381.389 136.075 381.644 134.031 384.101 131.616C401.217 114.79 433.608 137.6 437.415 133.137C440.759 129.218 427.849 120.654 419.497 114.308C418.61 113.634 417.988 112.671 417.738 111.586C417.488 110.501 417.626 109.363 418.128 108.37Z" fill="#c0392b"/>
<path d="M423.128 397.37C425.134 393.572 426.813 389.612 428.149 385.531C428.236 385.21 428.231 384.872 428.137 384.553C428.043 384.235 427.862 383.949 427.615 383.728C427.367 383.506 427.063 383.358 426.737 383.299C426.41 383.24 426.073 383.272 425.764 383.394C402.39 392.667 368.985 417.912 368.985 417.912C363.053 420.001 368.526 430.03 370.763 432.298C386.506 445.45 402.863 458.576 418.614 471.719C428.038 479.25 457.246 470.788 471.826 467.319C472.307 467.205 472.807 467.189 473.294 467.272C473.782 467.355 474.247 467.536 474.664 467.802C475.08 468.069 475.439 468.417 475.718 468.825C475.998 469.233 476.192 469.693 476.29 470.178C477.849 477.481 477.915 485.024 476.482 492.354C475.104 498.681 468.331 500.513 462.526 501.184C443.007 503.441 424.171 508.529 405.42 514.084C398.46 516.144 380.964 520.057 364.083 533.484C351.312 543.641 335.548 562.698 323.083 574.403C322.554 574.899 321.857 575.176 321.132 575.178C320.407 575.18 319.709 574.907 319.177 574.415C318.635 573.914 318.307 573.224 318.26 572.488C318.213 571.752 318.452 571.026 318.926 570.461C318.926 570.461 385.234 494.722 379.739 490.754C376.312 488.278 349.521 512.12 349.521 512.12C347.457 513.979 345.849 514.11 343.402 512.914C313.226 498.895 287.018 487.072 256.527 475.314C256.091 475.146 255.612 475.125 255.164 475.255C254.715 475.384 254.321 475.657 254.042 476.032C253.763 476.407 253.614 476.862 253.619 477.329C253.623 477.796 253.78 478.249 254.066 478.619L265.443 493.276C269.103 496.458 268.898 499.822 265.043 502.639C156.18 582.239 31.741 749.62 12.581 775.818C12.4077 776.054 12.1638 776.229 11.8846 776.318C11.6053 776.407 11.305 776.405 11.027 776.312C10.7489 776.219 10.5075 776.041 10.3375 775.802C10.1675 775.563 10.0777 775.277 10.081 774.984L10.136 767.193C10.159 763.914 11.0469 760.7 12.71 757.875C20.916 743.93 49.175 698.327 99.849 640.458C100.182 640.03 100.344 639.495 100.304 638.954C100.264 638.414 100.023 637.908 99.6305 637.535C99.2376 637.163 98.7199 636.949 98.1783 636.937C97.6367 636.925 97.1101 637.115 96.701 637.471C96.701 637.471 56.051 664.621 16.338 712.265C15.8668 712.832 15.2318 713.24 14.5198 713.434C13.8078 713.627 13.0536 713.595 12.3601 713.344C11.6666 713.092 11.0678 712.632 10.6453 712.028C10.2229 711.423 9.99755 710.702 10 709.965L10.347 550.791C10.3608 543.23 12.2611 535.793 15.8758 529.153C19.4904 522.513 24.705 516.88 31.047 512.765C96.157 470.516 164.017 424.393 230.134 384.093C241.482 377.153 253.486 371.349 265.973 366.765C316.329 348.365 367.553 332.108 418.335 314.897C424.714 312.775 428.024 314.409 431.57 319.914C453.53 355.182 479.56 388.189 512.088 414.314C516.343 417.97 516.648 419.627 513.196 424.23C511.779 426.119 508.509 429.659 505.549 432.771C501.794 436.751 497.156 439.793 492.009 441.652C473.435 448.271 454.282 452.857 434.969 456.796C432.174 457.34 429.292 457.252 426.535 456.537C423.778 455.822 421.216 454.499 419.038 452.665C408.864 444.433 398.938 435.89 389.024 427.345C386.389 425.075 386.644 423.031 389.101 420.616C406.217 403.79 438.608 426.6 442.415 422.137C445.759 418.218 432.849 409.654 424.497 403.308C423.61 402.634 422.988 401.671 422.738 400.586C422.488 399.501 422.626 398.363 423.128 397.37Z" fill="#c0392b"/>
<path d="M132.653 455.418C179.066 405.694 277.83 315.567 293.904 300.949C294.532 300.378 295.339 300.044 296.187 300.004C297.034 299.964 297.87 300.221 298.549 300.73C298.946 301.028 299.278 301.404 299.524 301.835C299.771 302.266 299.927 302.743 299.983 303.236C300.04 303.73 299.995 304.229 299.851 304.705C299.707 305.18 299.468 305.621 299.149 306.001C287.878 319.394 224.711 401.575 195.243 439.986C190.511 446.155 184.417 451.147 177.436 454.571C170.456 457.994 162.778 459.757 155.004 459.722C147.654 459.688 140.069 459.622 134.364 459.489C133.897 459.478 133.443 459.333 133.057 459.07C132.671 458.807 132.37 458.438 132.189 458.008C132.008 457.578 131.956 457.104 132.038 456.644C132.12 456.185 132.334 455.759 132.653 455.418Z" fill="#c0392b"/>
<path d="M132.653 455.418C179.066 405.694 277.83 315.567 293.904 300.949C294.532 300.378 295.339 300.044 296.187 300.004C297.034 299.964 297.87 300.221 298.549 300.73C298.946 301.028 299.278 301.404 299.524 301.835C299.771 302.266 299.927 302.743 299.983 303.236C300.04 303.73 299.995 304.229 299.851 304.705C299.707 305.18 299.468 305.621 299.149 306.001C287.878 319.394 224.711 401.575 195.243 439.986C190.511 446.155 184.417 451.147 177.436 454.571C170.456 457.994 162.778 459.757 155.004 459.722C147.654 459.688 140.069 459.622 134.364 459.489C133.897 459.478 133.443 459.333 133.057 459.07C132.671 458.807 132.37 458.438 132.189 458.008C132.008 457.578 131.956 457.104 132.038 456.644C132.12 456.185 132.334 455.759 132.653 455.418Z" fill="#c0392b"/>
<path d="M-22.4794 202.907C-22.8943 202.431 -23.2051 202.223 -23.3025 201.942C-25.6609 195.104 -25.6687 195.081 -19.3513 191.674C110.444 122.281 262.719 37.6372 393.859 -31.3976C394.237 -31.5958 394.672 -31.6564 395.09 -31.5691C395.507 -31.4817 395.882 -31.2517 396.149 -30.9186C396.416 -30.5855 396.559 -30.1699 396.553 -29.7431C396.547 -29.3163 396.393 -28.9047 396.117 -28.579C391.252 -22.9459 385.855 -17.9247 379.175 -14.3173C253.392 53.4209 103.522 135.59 -22.4794 202.907Z" fill="#c0392b"/>
<path d="M290.066 415.351C288.073 417.857 288.228 422.806 291.918 422.167C295.929 422.189 303.511 412.632 298.287 410.343C295.479 409.965 292.113 412.7 290.066 415.351Z" fill="#c0392b"/>
</g>
<defs>
<clipPath id="clip0_0_3">
<rect width="600" height="600" fill="white"/>
</clipPath>
</defs>
</svg>
