<?xml version="1.0" ?><svg fill="#c0392b" data-name="1" id="_1" viewBox="0 0 600 600" xmlns="http://www.w3.org/2000/svg"><title/><path d="M29.947,258.171c42.669,13.442,83.8,16.5,121.3,8.967A30.382,30.382,0,0,0,175.4,241.681c5.083-36.181-12.081-84.7-21.513-107.828a26.2,26.2,0,0,0-19.5-15.877L118.9,115.117a24.571,24.571,0,0,0-28.8,27.747q.049.321.1.642a26.713,26.713,0,0,0,13.255,18.406c26.21,15.243,35.257,57.351-5.993,58.886-48.442,5.678-51.8-78.265-49.477-128.951A34.073,34.073,0,0,1,86.759,59.684l81.349,11.394a41.432,41.432,0,0,1,38.694,35.28c9.54,64.4,6.018,140.452,8.492,210.146a37,37,0,0,0,32.758,35.4l53.822,6.216a131.318,131.318,0,0,1,67.15,28C388.186,401.5,469.28,467.1,539.739,588.178a16.586,16.586,0,0,0,14.327,8.255,3.576,3.576,0,0,0,3.058-5.425c-19.926-33.016-41.541-63.636-53.88-80.567a1.377,1.377,0,0,1,2.079-1.793c17.1,16.98,48.656,49.569,72.16,81.142a16.529,16.529,0,0,0,13.265,6.643H593.9a3.572,3.572,0,0,0,3.572-3.572V557.535a16.589,16.589,0,0,0-5.31-12.156C473.332,435.063,404.31,355.324,377.818,323.134a65.731,65.731,0,0,0-32.107-21.258c-28.492-8.438-72.107-17.63-74.77-29.229-11.6-58.168-6.027-155.408-1.141-212.784a44.689,44.689,0,0,0-42.561-48.431L50.5,3.613a45.94,45.94,0,0,0-47.971,45.9V220.952A39.063,39.063,0,0,0,29.947,258.171Z" style="fill:#c0392b"/></svg>