<svg fill="#c0392b" xmlns="http://www.w3.org/2000/svg" x="0px" y="0px" width="100" height="100" viewBox="0 0 50 50">
<path d="M 18.537109 0.001953125 C 18.281359 0.018203125 18.031609 0.13184375 17.849609 0.33984375 C 17.485609 0.75484375 17.524453 1.3869531 17.939453 1.7519531 L 22.730469 5.9609375 C 22.792469 6.0169375 22.957422 6.2179063 22.982422 6.2539062 C 23.648422 7.2229063 23.322078 9.3967187 22.705078 10.136719 L 17.935547 17.039062 C 17.918547 17.062062 17.904625 17.085375 17.890625 17.109375 C 15.385625 21.480375 18.844453 23.569469 19.939453 24.230469 L 20.935547 24.900391 L 27.515625 29.623047 C 25.202625 29.443047 22.670953 29.642422 20.751953 30.857422 C 19.287953 31.785422 18.367531 33.171609 18.019531 34.974609 C 16.269531 44.014609 31.996016 49.703406 32.666016 49.941406 C 32.775016 49.981406 32.889 50 33 50 C 33.362 50 33.707766 49.802797 33.884766 49.466797 C 34.115766 49.026797 33.989891 48.483406 33.587891 48.191406 C 30.383891 45.867406 25.398828 40.763953 27.048828 36.376953 C 28.570828 32.325953 31.737891 32.813766 32.087891 32.884766 C 32.105891 32.888766 32.135344 32.907156 32.152344 32.910156 C 32.278344 32.964156 32.408016 33.001953 32.541016 33.001953 C 32.853016 33.001953 33.158516 32.855984 33.353516 32.583984 C 33.675516 32.135984 33.573 31.5105 33.125 31.1875 L 25.246094 25.537109 C 25.175094 25.470109 25.079875 25.341969 25.046875 25.292969 C 23.983875 23.728969 25.646375 21.208297 26.609375 19.779297 L 31.837891 12.585938 C 32.073891 12.260938 32.081531 11.840813 31.894531 11.507812 C 31.837531 11.367812 31.757719 11.234906 31.636719 11.128906 L 19.259766 0.24804688 C 19.053766 0.066046875 18.792859 -0.014296875 18.537109 0.001953125 z"></path>
</svg>