<?xml version="1.0" ?><svg fill="#c0392b" data-name="1" id="_1" viewBox="0 0 600 600" xmlns="http://www.w3.org/2000/svg"><title/><path d="M592.43,422.741c-19.874-17.06-55.753-41.4-84.608-80.124-2.422-3.252-7.695-2.125-9.9,1.28C458.45,404.961,361.982,459.478,330.588,476.119a6.743,6.743,0,0,0-.718,11.468c17.122,12.11,55.767,42.1,98.792,93.083,3.537,4.191,10.932,7.614,16.416,7.614H594.749a1.508,1.508,0,0,0,1.508-1.508V473.5a22.275,22.275,0,0,0-4.756-13.764c-11.935-15.2-52.995-54.842-72.485-80.121a1.406,1.406,0,0,1,2.108-1.851c23.254,23.078,63.432,56.426,72.508,66.54a1.506,1.506,0,0,0,2.625-1.013V432.571C596.257,428.928,595.194,425.114,592.43,422.741Z" style="fill:#c0392b"/><path d="M485.942,331.2a7.793,7.793,0,0,0-.45-10.061l-47.731-51.5a12.4,12.4,0,0,0-13.483-3.171L197.743,352.091a13.334,13.334,0,0,0-8.435,14.718c2.918,17.093,9.341,49.989,8.332,64.985-7.119,105.836,30.266,141.474,47.823,152.264a28.613,28.613,0,0,0,14.989,4.226h25a1.6,1.6,0,0,0,.8-2.978C266.083,573.713,200,527.093,223.9,424.781a10.285,10.285,0,0,1,15.031-6.619c22.941,12.907,36.162,27.165,52.965,41.181a18.762,18.762,0,0,0,19.272,2.869C378.247,434.1,442.375,387.609,485.942,331.2Z" style="fill:#c0392b"/><path d="M316.135,96.133l-1.54,38.512a1.415,1.415,0,0,1-2.8.227l-9.5-46.467a18.2,18.2,0,0,0-4.874-9.136l-23.376-23.7a1.737,1.737,0,0,0-2.966,1.387l5.238,54.486a26.48,26.48,0,0,0,7.6,16.153l46.452,46.627a1.737,1.737,0,0,0,2.963-1.092l3.145-40.7a18.2,18.2,0,0,0-3.232-11.833Z" style="fill:#c0392b"/><path d="M141.7,127.107a1.737,1.737,0,0,0,2.893-1.516l-7.808-57.782a18.193,18.193,0,0,0-5.054-10.318l-10.62-10.81a1.738,1.738,0,0,0-2.943.876l-6.536,32.575a1.415,1.415,0,0,1-2.785-.061l-6.906-44.3a18.2,18.2,0,0,0-5.047-10L83.5,12.234a1.737,1.737,0,0,0-2.972,1.193L79.767,58.45a26.478,26.478,0,0,0,8.624,20.006Z" style="fill:#c0392b"/><path d="M144.511,232.748l-.466-31.332a18.2,18.2,0,0,0-5.7-12.958c-1.861-1.758-3.83-3.627-5.292-5.017a1.733,1.733,0,0,0-2.893.917L124.216,213.5a1.415,1.415,0,0,1-2.785-.067l-5.9-38.236a18.2,18.2,0,0,0-6.014-10.931L94.32,150.99a1.737,1.737,0,0,0-2.878,1.395l2.286,45.745a26.474,26.474,0,0,0,8.563,18.207l48.284,44.208a1.737,1.737,0,0,0,2.721-2.07l-4.68-9.18A37.669,37.669,0,0,1,144.511,232.748Z" style="fill:#c0392b"/><path d="M26.953,235.419a18.2,18.2,0,0,0,11.123,5.026l47.511,3.926a1.415,1.415,0,0,1,.176,2.795l-34.571,7.281a1.738,1.738,0,0,0-.727,3.057l9.295,7.433a18.2,18.2,0,0,0,11.7,3.983l32.635-.587a37.646,37.646,0,0,1,24.539,8.516C145.292,290.5,177,316.583,191.573,329.367A8.209,8.209,0,0,0,200,330.834l5.168-2.034a1.536,1.536,0,0,0,.455-2.587C183.05,306.488,112.17,244.571,90,225.208a26.468,26.468,0,0,0-15.561-6.471l-65.149-4.58a1.738,1.738,0,0,0-1.327,2.985Z" style="fill:#c0392b"/><path d="M182.265,226.045l-.207-1.253a18.2,18.2,0,0,0-4.391-9.169l-12.106-13.537a1.737,1.737,0,0,0-3.018,1.383l4.966,38.036a27.118,27.118,0,0,0,9.458,17.267c15.6,13.09,49.4,41.461,62.066,52.1a8.181,8.181,0,0,0,8.26,1.349l6.324-2.489a1.558,1.558,0,0,0,.447-2.636c-10.6-9.043-37.55-33.548-54.357-48.9A55.85,55.85,0,0,1,182.265,226.045Z" style="fill:#c0392b"/><path d="M56.532,75.346l-51.081.962a1.738,1.738,0,0,0-1,3.135L23.3,93.37a18.2,18.2,0,0,0,7.9,3.328l46.285,7.523a1.415,1.415,0,0,1-.008,2.8L48.023,111.63a1.737,1.737,0,0,0-.784,3.1L60.614,124.92a18.2,18.2,0,0,0,12.03,3.7l14.268-.784a37.667,37.667,0,0,1,27.242,9.593l171.12,154.93a8.2,8.2,0,0,0,8.526,1.562l7.018-2.761a1.56,1.56,0,0,0,.47-2.615C271.359,261.778,111.569,115.58,74.827,82.214A26.47,26.47,0,0,0,56.532,75.346Z" style="fill:#c0392b"/><path d="M262.428,225.422a37.67,37.67,0,0,1,26.551,10.154l41.78,39.094a8.212,8.212,0,0,0,8.362,1.413l5.238-2.062a1.558,1.558,0,0,0,.484-2.6c-11.087-10.084-50.752-48.068-65.514-62.223a21.335,21.335,0,0,0-13.319-5.887l-36.13-2.458a1.737,1.737,0,0,0-1.2,3.093L250.7,221.468A18.2,18.2,0,0,0,262.428,225.422Z" style="fill:#c0392b"/><path d="M273.441,135.318a26.456,26.456,0,0,0-16.756-6.845l-61.55-2.4a1.738,1.738,0,0,0-1.129,3.112l20.553,15.855a18.208,18.208,0,0,0,7.263,3.378l48.127,10.427a1.415,1.415,0,0,1-.259,2.8l-31.54.9a1.738,1.738,0,0,0-1.043,3.088l12.655,10.226a18.193,18.193,0,0,0,9.694,3.961l38.112,3.672a37.644,37.644,0,0,1,20.648,8.679c17.137,14.432,54.031,45.743,68.578,59.958a8.2,8.2,0,0,0,8.733,1.753l4.107-1.616a1.558,1.558,0,0,0,.467-2.618C376.183,228.51,297.6,157.239,273.441,135.318Z" style="fill:#c0392b"/></svg>