<?xml version="1.0" ?><svg fill="#c0392b" data-name="Layer 4" id="Layer_4" viewBox="0 0 600 600" xmlns="http://www.w3.org/2000/svg"><title/><path d="M289.031,598.988l-7.769-9a10.16,10.16,0,0,0-4.674-3.065c-7.3-2.272-26.867-8.341-32.307-9.85-12.811-4.3-3.828-15.464-25.68-17.688l-34.758-7.148a13.546,13.546,0,0,1-9.589-7.633l-17.916-39.153a9.4,9.4,0,0,0-3.948-4.3c-5.5-3.072-11.106-5.954-16.745-8.762-7.913-2.188-36.112,17.224-43.387,22.593-1.676,1.265-3.376,3.673-3.47,5.628-.6,6.285,2.221,13.172.363,19.218-4.378,14.239-13.445,28.829-18.655,36.517a1.283,1.283,0,0,1-2.309-1.021c2.22-9.3,6.154-26.668,7.883-39.741a15.574,15.574,0,0,0-.345-5.738c-.817-4.85-5.405-10.777-1.947-15.341,8.978-8.44,18.187-16.635,27.275-24.959,1.179-1.08,2.578-2.322,3.012-3.752,3.668-12.1,7.18-24.252,10.637-36.417.935-3.293-.059-6.1-2.468-8.663,0,0-25.328-36.311-38.488-54.1a5.426,5.426,0,0,0-5.308-2.128l-28.1,5a5.42,5.42,0,0,0-2.668,1.3C26.234,401,15.292,411.855,3.4,421.541a9.025,9.025,0,0,0-3.306,7V599.184C96.446,598.644,192.653,599.163,289.031,598.988Z" style="fill:#c0392b"/><path d="M599.9,416.538c-25,15.585-45.838,33.487-69.383,50.553-3.993,2.9-5.153,5.814-3.959,9.981l11.318,37.556a42.881,42.881,0,0,1,1.373,6.173l6.407,43.842c-.368,2.686-2.268,2.949-3.38.476L521.6,523.308a17.125,17.125,0,0,0-9.891-9.085c-14.645-5.23-29.2-10.775-42.842-18.245-7.636-4.181-11.952-3.733-17.031,2.4-11.7,14.515-24.074,28.469-36.128,42.692-2.465,2.912-2.286,5.556.139,8.423,3.5,4.97,11.2,9.524,7.431,16.378-5.546,10.992-9.891,21.5-15.061,33.113,62.349-.157,124.332.436,186.578-.006,5.581-.007,5.1.478,5.1-5.107C599.9,534.7,599.9,475.74,599.9,416.538Z" style="fill:#c0392b"/><path d="M257.885,523.394c5.549,11.984,16.166,21.057,22.53,32.567,10.5,18.982,37.874-1.643,28.078-18.393-5.81-9.935-9.522-20.895-12.043-32.173-3.161-14.139-6.445-28.232-5.122-42.958,1.4-15.069.9-30.349,2.241-45.4,4.659-29.454,8.673-86.426,27.88-108.511,8.019-8.956,11.119-20.95,12.261-32.608,2.352-15.876-15.562-23.356-28.8-19.962-9.092,1.951-16.394,6.992-23.477,12.706-5.921,4.776-8.412,10.314-6.747,17.926,1.919,8.769,3.314,17.653,4.989,26.476a30.375,30.375,0,0,1-.538,13.838c-13.4,61.9-28.131,125.824-23.093,189.416A20.733,20.733,0,0,0,257.885,523.394ZM264.873,430a.749.749,0,0,1,1.483.091c1.9,31.172,3.488,71.854,8.844,101.352a.873.873,0,0,1-1.512.735c-4.471-5.037-11.1-12.64-11.58-17.989C259.97,490.409,258.9,460.654,264.873,430Z" style="fill:#c0392b"/><path d="M340.619,552.83c6.166-.634,7.521-6.3,8.434-11.378,3.658-29.757,12.759-59.37,9.688-89.528-5.407-41.828-9.883-84.024-19.376-125.157-1.136-6.991-10.094-8.757-13.19-2.275-6.9,10.765-6.475,23.78-9.448,35.786a31.538,31.538,0,0,0,.135,17.162,173.24,173.24,0,0,1,6.489,36.254c1.879,27.021,7.305,53.908,5,81.078-1.035,12.1-1.9,24.208-2.842,36.313l.7.042C326.226,541.972,324.03,559.547,340.619,552.83Z" style="fill:#c0392b"/><path d="M529.13,403.766c5.474-3.784,34.395-23.181,43.295-29.221a6.309,6.309,0,0,0,2.657-6.356l-5.963-32.569a6.3,6.3,0,0,0-2.667-4.082c-7.95-5.379-15.884-10.78-23.887-16.077-5.265-2.6-13.261-10.937-19.087-6.983-8.816,5.994-17.7,11.943-24.81,20.027a9.421,9.421,0,0,0-2.238,4.814c-2.616,17.264-5.226,34.532-5.267,52.064-.014,6.064.452,7.335,6.106,9.243,7.118,2.4,14.029,5.121,20.254,9.411C521.421,406.723,525.295,406.417,529.13,403.766Z" style="fill:#c0392b"/><path d="M389.562,598.892a4.544,4.544,0,0,0,3.362-2.09c4.192-8.482,8.29-17.015,12.141-25.657,1.68-3.768,1.406-3.939-2.226-5.616-7.092-3.274-14.29-6.33-21.273-9.819a10.333,10.333,0,0,0-9.039-.63c-4.632,1.816-9.4,3.283-14.011,5.157-12.3,5-24.609,10-36.764,15.346-2.566,1.127-5.354,3.287-6.54,5.706-2.74,5.587-4.559,11.626-6.758,17.5C335.267,599.054,362.585,598.9,389.562,598.892Z" style="fill:#c0392b"/><path d="M337.912,176c-4.706,4.086-5.293,9.542-1.543,15.707a26.105,26.105,0,0,0,27.964,12.034c2.029-.421,2.964-1.56,3.666-3.512,1.89-7.64,7.829-12.355,13.266-17.513,4.286-4.821,10.964-2.383,16.555-3,12.107-.509,7.456-14.105,3.786-20.915-4.432-7.8-12.215-8.452-18.749-2.346-6.066,5.73-14.073,8.623-21.679,11.72-8.71,3.488-8.759,3.542-3,11.137.078.1.024.308.069,1.247a39.936,39.936,0,0,1-14.6-5.231C341.35,173.907,339.754,174.4,337.912,176Z" style="fill:#c0392b"/><path d="M447.45,423.278c3.08-5.472,5.5-11.309,8.342-16.922,1.507-2.979.452-5.148-1.865-6.914-9.739-5.57-20.521-9.314-30.615-14.246-7.127-3.945-9.184,2.138-10.466,8.187-1.592,9.652-3.12,19.314-4.669,28.973C406.636,440.443,424.29,434,434.67,432,440.175,430.9,444.717,428.133,447.45,423.278Z" style="fill:#c0392b"/><path d="M189.488,511.25c.413,4.191.938,8.489,1.224,12.8.179,2.688,1.486,4.062,3.9,5.126,10.807,4.759,21.5,9.774,32.323,14.5,5.077,2.379,9.039-.807,7.53-6.258-4.924-14.267-11.081-28.152-16.58-42.224a5.7,5.7,0,0,0-3.02-2.942c-3.836-.839-15.053-6.1-17.677-2.889C193.164,496.067,189.248,502.88,189.488,511.25Z" style="fill:#c0392b"/><path d="M294.737,84.241a3,3,0,0,0-4.334,2.175c-1.4,7.2-4.241,14.238.012,21.7a85.045,85.045,0,0,1,11.578,43.354c.215,3.133-.136,6.447.788,9.356,1.18,3.714,11.786,7.91,15.721,6.816,13.156-3.708,11.655-19.657.615-24.8-6.2-2.741-6.87-9.736-8.664-15.4-2-8.608-2.558-17.032,2.736-24.968C319,91.43,302.112,87.666,294.737,84.241Z" style="fill:#c0392b"/><path d="M271.213,166.744c.6,8.764,11.7,11.183,18.578,6.51,7.712-4.453,5.3-12.653.281-18.867-9.832-10.244-11.026-23.428-12.512-36.5.576-7.047-1.1-16.6-10-16.356-11.163.372-17.06,10.259-11.055,19.548C265.555,135.072,268.661,150.764,271.213,166.744Z" style="fill:#c0392b"/><path d="M149.115,335.858c-9.483-3.451-20.616-9.551-28.945-.448-2.184,2.163-3.532,4.227-3.664,7.193-.213,4.81-.493,22.749-.284,26.89.321,6.361-.234,5.332,5.427,5.372,4.289-.274,9.255.768,13.26-.815C145.1,366.991,167.739,345.359,149.115,335.858Z" style="fill:#c0392b"/><path d="M460.6,469.4c15.222,7.266,30.594,14.708,47,18.9,7.2.708-5.174-21.724-8.672-25.38-6.283-5.971-11.666-13.338-18.341-18.846a5.525,5.525,0,0,0-5.468-.86c-7.415,2.805-14.346,6.449-21.718,9.458-1.589.7-1.744,1.745-1.1,3.186C454.614,460.524,455.686,466.735,460.6,469.4Z" style="fill:#c0392b"/><path d="M189.927,159.747c-7.692,2.728-11.971,8.531-12.141,16.469-.11,5.137.883,6.315,6.108,7.183,12.575,2.016,25.042,4.867,37.486,7.582,6.065,1.252,18.714,10.687,19.415-1.019-.407-7.524-2.172-14.83-7.254-20.738-4.482-5.211-10.407-5.9-14.772-1.274-3.129,3.317-15.857,5.065-20.857-5.46C196.3,159.1,193.566,158.456,189.927,159.747Z" style="fill:#c0392b"/><path d="M271.887,253.487c5.9.28,11.8-1.619,17.569-2.746,2.731-.565,5.613-.708,8.18-1.686,5.134-1.957,9.539-8.638,8.412-12.832a97.882,97.882,0,0,0-3.324-9.992,6.647,6.647,0,0,0-4.436-4l-13.159-3.613a4.848,4.848,0,0,0-4.618,1.15c-4.8,4.523-16.615,16.052-17.782,20.889A10.223,10.223,0,0,0,271.887,253.487Z" style="fill:#c0392b"/><path d="M169.468,427.511c-33.1,8.27-28.254,4.409-13.87,33.5,2.424,3.678,13.38,2.436,17.783,3.294,27.021,2.022,9.843-17.3,5.58-31.386C176.992,427.982,174.492,426.309,169.468,427.511Z" style="fill:#c0392b"/><path d="M332.987,209.174c-20.709-.766-19.675,13.577-16.693,27.624,3.26,8.4,16.715,8.071,24.339,8.665,10.342,1.088,10.754-11.022,12.463-18.343a5.859,5.859,0,0,0-.492-3.876C347.655,215.22,341.185,209.379,332.987,209.174Z" style="fill:#c0392b"/><path d="M463.841,297.086c1.211-6.849,2.381-13.728,3.019-20.648.455-8.044-29.276-8.15-30.707-1.436-1.441,7.478-3.034,14.964-3.8,22.524C430.782,313.674,459.727,306.88,463.841,297.086Z" style="fill:#c0392b"/><path d="M232,130.743c-9.339,2.788-13.464,18.306-1.659,20.674,14.826,4.846,17.253,21.053,19.955,34.277.963,4.561.887,7.234,6.3,5.689,24.681-6.116,4.312-15.607-.295-29.068-3.526-9.341-7.054-19.02-11.872-27.767C241.584,130.444,236.8,129.219,232,130.743Z" style="fill:#c0392b"/><path d="M343.379,37.631c-7.661-3.675-12.533,3.519-15.991,9.57-5.37,9.887-15.3,11.082-24.517,15.764-2.908,1.294-3.025,3.648-2.3,6.274,1.357,4.9,6.977,9.542,12.094,9.657,5.579.126,10.105.082,12.686-7.683,5.136-17.283,24.844-1.067,24.9-22.571C350.393,42.27,349.441,39.587,343.379,37.631Z" style="fill:#c0392b"/><path d="M411.586,128.492c-6.178-11.21-20.072,3.6-12.282,10.478,5.786,5.487,9.734,12.161,13.372,19.108,4.28,8.174,10.478,11.759,18.18,6.612,4.054-2.71,5.477-7.929,5.478-15.664C435.844,131.344,420.648,143.1,411.586,128.492Z" style="fill:#c0392b"/><path d="M248.16,85.239c.507,15.046,21.724,8.953,18.831-3.551-1.63-6.786,1.771-12.085,5.292-17.51,2.635-5.294,1.539-9.933-3.676-12.695-6.56-3.45-19.453-8.2-20.375,3.269-.306,9.283,4.514,18.263.5,27.431A13.035,13.035,0,0,0,248.16,85.239Z" style="fill:#c0392b"/><path d="M428.725,503.054c.48-7.621.814-15.252,1.244-23.574,2.12-25.056-19.386-.428-26.273,6.624-3.5,3.9-1.966,11.221,2.673,13.913a133.029,133.029,0,0,0,15.653,7.594C425.938,509.242,428.453,507.38,428.725,503.054Z" style="fill:#c0392b"/><path d="M199.187,76.714a9.221,9.221,0,0,0,7.707.984,67.852,67.852,0,0,0,8.766-2.974c4.867-2.206,5.9-7.017,4.179-12.737a24.8,24.8,0,0,1-1.163-9c.74-9.764-2.995-16.435-10.625-20.34-4.394-2.724-10.141,1.681-8.74,6.671,1.8,9.412,5.552,18.826-1.414,27.465C194.913,70.6,195.847,74.5,199.187,76.714Z" style="fill:#c0392b"/><path d="M162.471,160.967c5.112-.292,9.246-3.416,13.045-7.307a11.111,11.111,0,0,0,1.789-13.409,11,11,0,0,0-1.431-1.893c-8.258-7.346-8.127-19.111-13.631-27.938-6.411-6.6-7.251,3.036-6.022,7.835.892,7.556,3.078,15.04,1.423,22.74C156.328,148.22,149.813,160.977,162.471,160.967Z" style="fill:#c0392b"/><path d="M292.285.9c-2.464-.475-3.676,1.213-4.715,2.941A94.656,94.656,0,0,1,267.412,27.1c-2.08,1.771-3.194,3.771-2.857,6.223-.346,6.425,3.839,9.124,8.565,11.2,6.618,2.9,14.645-1.7,14.992-8.917.48-9.223,6.014-16.687,8.24-25.451C297.335,6.627,296.642,1.622,292.285.9Z" style="fill:#c0392b"/><path d="M54.933,288.816c9.949-15.295-8.041-14.374-18.148-16.245-8.012,1.241-12,11.337-13.381,17.24C24.321,310.824,48.093,299.508,54.933,288.816Z" style="fill:#c0392b"/><path d="M223.009,91.751c-2.322-6.089-8.284-7.805-13.235-3.59-4.691,4.593-9.934,11.961-3.845,17.895a44.424,44.424,0,0,1,6.889,11.373c1.887,4.208,2.62,5.13,7.27,4.94,15.443-.8,8.337-11.008,5.828-20.557C224.917,98.466,224.249,95,223.009,91.751Z" style="fill:#c0392b"/><path d="M261.938,203.147c-3-.031-9.372-.75-14.927.44a11.354,11.354,0,0,0-6.96,17.547,21.535,21.535,0,0,0,5.145,5.21C255.365,234.619,280.484,205.989,261.938,203.147Z" style="fill:#c0392b"/><path d="M284.1,189.965c-12.916,9.053,13.768,17.429,20.64,18.321.9.157,2.5-.315,2.852-.983,2.7-5.141,5.4-10.3,7.648-15.653C319.141,182.363,290.541,185.731,284.1,189.965Z" style="fill:#c0392b"/><path d="M361.831,35.175a16.873,16.873,0,0,0,.29,5.249c1.114,5.694,1.059,12.777,9.412,8.7a79.406,79.406,0,0,0,19.483-11.932c5.108-3,2.5-10.319-3.839-8.228C377.408,33.412,363.394,22.207,361.831,35.175Z" style="fill:#c0392b"/><path d="M385.851,98.305c-.793-1.739-1.871-3.661-3.993-2.9-4.039,1.289-5.386,5.209-5.476,8.912.747,6.838,2.97,18.221,10.129,20.089,3.878.439,10-5.82,9.606-9.822-.2-2-.753-4.666-2.142-5.723A26.617,26.617,0,0,1,385.851,98.305Z" style="fill:#c0392b"/><path d="M207.927,360.966c19.384-.344,17.892-28.285-1.514-18.54-8.013,3.55-8.261,4.244-5.868,12.748C202.122,360.782,202.122,360.782,207.927,360.966Z" style="fill:#c0392b"/><path d="M552.086,202.584c-1.15-2.936-1.991-10.775-5.647-11.049-4.4.16-10.54,6.963-10.894,11.462C536.563,218.148,552.908,210.305,552.086,202.584Z" style="fill:#c0392b"/><path d="M487.411,281.207a68.53,68.53,0,0,0,2.279,7.611c.563,1.737,1.816,2.648,3.348,1.328a91.748,91.748,0,0,0,9.718-9.162c4.405-4.624-3.477-8.241-6.715-9.427C491.229,271.127,486.551,276.891,487.411,281.207Z" style="fill:#c0392b"/><path d="M35.243,343.026c-.2,7.577,9.469,10.734,10.689,3.182a5.274,5.274,0,0,0,.05-1.31C45.362,338.2,35.779,334.294,35.243,343.026Z" style="fill:#c0392b"/></svg>