<?xml version="1.0" ?><svg fill="#c0392b" data-name="Layer 4" id="Layer_4" viewBox="0 0 600 600" xmlns="http://www.w3.org/2000/svg"><title/><path d="M551.5,420.824c9.869,7.325,25.3,22.2,29.034,25.88a.99.99,0,0,0,1.684-.712v-9.046a14.662,14.662,0,0,0-5.6-10.716c-38.87-26.986-78.356-78.031-113.553-86.632a2.273,2.273,0,0,0-2.3,3.618c19.4,24.768,23.323,44.341,23.778,54.653a2.448,2.448,0,0,1-4.512,1.424c-9.335-14.689-33.966-50.313-60.25-76.431C392.76,296.02,329.92,278.5,322.167,274.814a8.614,8.614,0,0,0-9.551,1.445c-9.43,8.74-45.837,37.027-87.516-4.314-.2-.2-.4-.392-.594-.574a1.886,1.886,0,0,1,1.824-3.181c8.557,2.491,29.873,8.09,43.119,6.288,31.088-4.229,57.441-32.98,64.943-41.77a2.626,2.626,0,0,0-.763-4.021c-16.913-9.1-37.649-14.846-63.834-14.839-12.914,0-25.59,3.355-37.985,7.126-10.206,3.106-34.695,4.241-57.02,6.218-18.925,1.676-29.643,7.685-46.375,22.88-27.688,25.148-25.436,46.044-42.918,61.194-33.882,29.365-47.373,27.414-65.909,48.983-5.552,6.461,3.223,13.984,6.012,17.035,6.624,7.076,13.907,7.313,21.292.926,5.132-4.439,4.563-13.118,3.654-18.283-.232-1.313,1.258-1.916,2.3-1.081,7.842,6.293,16.05,25.779-9.539,34.895-3.787,1.349-1.943,4.926-.241,7.2,14.081,18.816,40.28,54.751-5.229,84.675a1.49,1.49,0,0,0,.931,2.735c21.471-2.015,35.4-12.364,40.975-18.706a1.7,1.7,0,0,1,2.979,1.2c-.4,6.5-4.452,18.517-27.189,25.579a1.343,1.343,0,0,0,.3,2.62c7.238.5,18.816-1.372,28.3-5.208,44.945-18.174-.408-83.38,80.35-92.08,26.707-2.877,54.744-6.391,94.677,2.182a2.544,2.544,0,0,1,.222,4.92c-14.264,4.257-37.984,5.634-51.087,8a3.02,3.02,0,0,0-.813,5.679c52.072,25.3,19.346,68.587,74.147,127.686,2.418,2.608,5.551,4.3,8.5,2.317l25.756-16.965a7.211,7.211,0,0,1,9.846,1.747l10.575,11.349c2.6,3.58,5.12,4.06,8.254.933,11.469-11.446,42.009-49.815,51.221-59.07a1.961,1.961,0,0,1,3.2,2.129c-9.174,23.025-37.658,71.742-58.344,83.9-3.485,2.047-7.508,2.788-10.3-.134l-8.541-8.944a7.212,7.212,0,0,0-9.376-.909l-20.818,14.71c-2.934,2.074-7.616,1.7-11.03.577-15.46-5.074-32.32-27.163-40.222-52.275a2.4,2.4,0,0,0-4.509-.2c-11.334,27.91-6.545,52.373-4.916,63.786a5.586,5.586,0,0,0,5.531,4.8l342.445-.027c2.21.21,2.824-.776,2.8-2.871L582.2,473.8a11.932,11.932,0,0,0-2.94-7.9c-5.794-6.648-25.159-21.583-31.983-42.036A2.733,2.733,0,0,1,551.5,420.824ZM167.352,286.514c-2.146,9.071-10.274,14.9-17.086,20.478-5.39,3.894-11.322,3.341-16.811-.572-17.787-14.255.283-36.8,17.847-38.859C162.36,266.544,170.249,275.716,167.352,286.514Zm227.505,262.84c-8.044,4.562.106-10.142,2.755-13.708,8.744-10.672,18.814-22.049,24.773-34.4C438.453,467.935,433.976,527.165,394.857,549.354ZM443.52,470.1c-2.969,7.242-10.927,3.189-8.9-3.451C437.668,459.222,446.293,462.49,443.52,470.1Z" style="fill:#c0392b"/><path d="M174.8,211.137s15.806-2.841,38.662-1.8c14.391.654,35.4-5.927,37.661-16.623,1.555-7.368,1.44-14.982,2.312-22.546a1.517,1.517,0,0,1,2.948-.3c1.956,6.028,2.552,17.888,5.778,23.507a2.271,2.271,0,0,0,3.5.56l.042-.038a2.24,2.24,0,0,0,.622-2.3c-5.8-19.339-1.473-37.114-1.6-45.322-.2-12.444-26.33-45.993-64.8-40.087a13.494,13.494,0,0,0-10.168,7.592c-17.924,38.383-19.5,79.605-19.5,92.976C170.251,209.232,172.355,211.565,174.8,211.137Z" style="fill:#c0392b"/><path d="M276,111.738c14.135-35.591,53.323-44.37,53.323-44.37,3.744.049,4.108-3.089,5.009-6.237,5.518-19.269.634-37.414-5.922-43.869C320.771,9.746,306.749,3.6,294.582,5.7c-51.164,8.823-76.243,48.456-91.82,77.8-1.97,3.711.624,8.169,4.8,7.683,24.065-2.8,42.856,4.131,61.349,21.983A4.372,4.372,0,0,0,276,111.738Z" style="fill:#c0392b"/><path d="M403.782,9.948c-9.211-3.868-38.269-9.133-71.9-7.673-2.336.1-1.46,1.885.588,3.011,18.991,10.438,24.127,30.239,18.2,55.557a4.455,4.455,0,0,0,4.5,5.482c13.048-.512,35.04,0,51.828,18.331a13.2,13.2,0,0,0,9.956,4.245,52.668,52.668,0,0,0,18.074-3.451,27.381,27.381,0,0,0,13.524-39.326C441.832,34.46,428.85,20.473,403.782,9.948Z" style="fill:#c0392b"/><path d="M460.134,185.518c29.1-27.36,31.528-77.437,10.009-105.558-1.992-2.6-5.5-3.158-6.729-.119C459.137,90.4,445.466,106,421.194,102.756c-3.244-.433-6.345,3.152-4.46,5.829,27.809,39.483-16.713,41.856-11.512,68.205C408.326,194.386,436.434,207.8,460.134,185.518Z" style="fill:#c0392b"/><path d="M176.014,94.005c19.544-45.464,53.453-71.826,69.216-82.181a2.994,2.994,0,0,0-1.708-5.493,115.818,115.818,0,0,0-60.365,18.8c-19.785,12.994-41.233,35.262-53.188,59.8a3.778,3.778,0,0,0,4.976,5.086C164.551,76.372,171.624,104.218,176.014,94.005Z" style="fill:#c0392b"/><path d="M145.763,102.268c-4.287-.324-20.288,7.482-22.712,19.04-9.125,43.514-1.2,64.412,11.671,95.421.87,2.1,2.806,3.063,5.055,3.285a9.677,9.677,0,0,0,10.389-9.668c.552-44.473,10.4-78.845,14.522-91.356a10.006,10.006,0,0,0-2.57-10.3A21.3,21.3,0,0,0,145.763,102.268Z" style="fill:#c0392b"/><path d="M419.434,208.681a1.911,1.911,0,0,0-.178-3.708c-19.826-3.958-27.783-18.064-26.608-36.452a6.144,6.144,0,0,0-7.386-6.432c-35.051,7.232-45.847-15.848-35.458-43.43a2.216,2.216,0,0,0-3.517-2.462c-13.987,11.657-20.674,31.961-21.124,40.794C322.522,208.816,382.136,219.81,419.434,208.681Z" style="fill:#c0392b"/></svg>