<?xml version="1.0" ?><svg fill="#c0392b" data-name="1" id="_1" viewBox="0 0 600 600" xmlns="http://www.w3.org/2000/svg"><title/><path d="M327.566,357.2a5.737,5.737,0,0,0,7.355.9,115.228,115.228,0,0,0,17.967-14.529,2.993,2.993,0,0,0,.127-4.07C313.6,294.648,81.194,51.6,44.729,13.493A16.6,16.6,0,0,0,32.667,8.314L10.492,8.4a2.494,2.494,0,0,0-1.685,4.241C163.959,172.628,311.106,339.653,327.566,357.2Z" style="fill:#c0392b"/><path d="M363.29,325.137a2.685,2.685,0,0,0,4.043-.243,55.075,55.075,0,0,0,8.052-15.274c1.892-5.487.976-12.028-3.485-15.742a572.944,572.944,0,0,1-59.524-57.953c19.706-11.619,99.449-27.482,81.924,59.029-5.689,28.085-27.366,81.1-106.057,98.038-17.85,3.843-68.768-2.958-42.009-75.581A13.413,13.413,0,0,0,243.4,303.6c-4.088-4.348-8.722-9.32-13.476-14.446a2.882,2.882,0,0,0-4.975,1.58c-3.8,30.25-15.976,63.718-9.644,97.118,1.877,9.9,15.615,40.711,59.463,33.695a2.184,2.184,0,0,1,1.888,3.709l-15.177,14.981c-4.6,4.539-98.025,94.988-91.739,101.042,6.6,6.353,100.9-82.826,105.7-87.18,10.429-9.451,17.7-15.291,17.7-15.291,9.739-8.016,25.148-11.424,27.164,4.753,8.815,43.88,12.269,92.628,62.046,100.879,40.274,6.676,69.575-20.811,87.915-2.926,7.092,6.915,6.2,19.1-1.866,24.756-5.53,3.88-10.126,10.119-4.569,19.09,9.711,15.676,29.263-.942,29.8-14.492,1.453-36.714-22.5-53.779-56.193-47.9-62.129,10.832-108.954-31.679-63.553-135.19a1.23,1.23,0,0,0-2.07-1.28c-26.162,27.443-28.486,73.534-28.486,73.534a1.233,1.233,0,0,1-2.441.184c-3.2-16.733-7.24-53.812,23.453-82.251,5.786-5.361,14.658-4.936,20.572.245,27.585,24.164,112.465,101.022,124.4,141.938,9.818,33.649,45.508,67.316,72.776,37.837,26.108-28.224-4.9-63.042-34.4-72.97-34.427-11.585-108.411-92.578-136.915-124.85a18.961,18.961,0,0,1-2.289-21.607c16.938-30.686,35.795-53.515,63.724-81.316,61.47-61.191,80.734-85.513,77.5-88.953-3.8-4.043-88.368,70.886-93.28,75.606-5.879,5.651-11.622,10.936-17.475,16.352a1.411,1.411,0,0,1-2.234-1.606c4.106-10.812,10.877-34.654.346-54.445-10.22-19.206-47.052-37.115-95.485-9.66-10.484,5.944-42.132,28.507-52.707,18.28-25.03-25.478-124.914-121.993-180.5-199.193-2.726-3.786-7.563-5.329-12.142-5.329H68.413a2.5,2.5,0,0,0-1.718,4.223C100.171,47.86,336.6,298.084,363.29,325.137ZM346.149,211.022c17.728-14,53.714-21.875,69.886-6.845,27.138,25.221,5.246,57.149-3.815,70.664-1.213,1.809-4.25.9-3.95-1.286,5.812-42.228-23-62.5-61.274-60.2A1.3,1.3,0,0,1,346.149,211.022Z" style="fill:#c0392b"/></svg>