<?xml version="1.0" ?><svg fill="#c0392b" id="icon" viewBox="0 0 512 512" xmlns="http://www.w3.org/2000/svg"><title/><path d="M388.81,472.36c-6.8-38-50.48-67.85-50.48-67.85-16-10.27-33.08-23.16-43-30.82a21.67,21.67,0,0,1-8.4-17.15V341.25a21.82,21.82,0,0,1,7.11-16c13.41-12.39,24.55-26.94,30.07-34.61a39.49,39.49,0,0,1,8.69-8.67c16.81-12.38,16.81-26.29,16.81-26.29.43-31.6-20.89-22.65-20.89-22.65C338.33,119,256,118.09,256,118.09S173.67,119,183.24,233c0,0-21.32-8.95-20.89,22.65,0,0,0,13.91,16.81,26.29a39.49,39.49,0,0,1,8.69,8.67c5.52,7.67,16.66,22.22,30.07,34.61a21.82,21.82,0,0,1,7.11,16v15.29a21.67,21.67,0,0,1-8.4,17.15c-9.88,7.66-27,20.55-43,30.82,0,0-43.68,29.87-50.48,67.85a8.31,8.31,0,0,0,8.15,9.79H380.66A8.31,8.31,0,0,0,388.81,472.36Z"/><path d="M137.36,317.82H109.61V290.07A6.57,6.57,0,0,0,103,283.5H70.41a6.57,6.57,0,0,0-6.57,6.57v27.75H36.09a6.57,6.57,0,0,0-6.57,6.57V357a6.57,6.57,0,0,0,6.57,6.57H63.84v27.76a6.57,6.57,0,0,0,6.57,6.57H103a6.57,6.57,0,0,0,6.57-6.57V363.58h27.75a6.57,6.57,0,0,0,6.57-6.57V324.39A6.57,6.57,0,0,0,137.36,317.82Z"/><path d="M475,69H443.31V37.35a7.5,7.5,0,0,0-7.5-7.5H398.58a7.5,7.5,0,0,0-7.5,7.5V69H359.41a7.49,7.49,0,0,0-7.5,7.49v37.24a7.49,7.49,0,0,0,7.5,7.49h31.67v31.68a7.5,7.5,0,0,0,7.5,7.5h37.23a7.5,7.5,0,0,0,7.5-7.5V121.25H475a7.49,7.49,0,0,0,7.49-7.49V76.52A7.49,7.49,0,0,0,475,69Z"/></svg>