<?xml version="1.0" ?><svg fill="#c0392b" data-name="1" id="_1" viewBox="0 0 600 600" xmlns="http://www.w3.org/2000/svg"><title/><path d="M536.2,420.437l-13.924-20.848A14.262,14.262,0,0,0,506.14,393.9l-42.585,13.374a2.19,2.19,0,0,1-1.989-3.826l26.787-20.569a6.3,6.3,0,0,0,1.016-9.024C468.882,349.139,379,240.676,354.478,210.823c-9.036-9.615-17.639-13.818-23.61-15.651-3.113-.957-4.039-4.607-2.186-7.286,34.889-50.422,17.064-86.95,8.6-98.8-1-1.4,1.357-2.488,2.634-1.342,10.8,9.686,21.234,26.62,16.944,59.687a1.529,1.529,0,0,0,2.586,1.294c6.26-6.17,21.052-16.679,42.513-6.648a2.227,2.227,0,0,0,3.152-2.389c-2.222-12.606-15.592-47.328-63.044-98.6C331.405,29.559,294.525,5.329,255.2,5.558a17.941,17.941,0,0,0-15.1,8.385c-12.535,19.94-44.452,75.949-53.207,141.71-2.1,15.8,6.888,28.383,13.646,35.405a10.7,10.7,0,0,1,.718,14.006C182.8,228.7,127.753,300.97,99.983,356.611a13.224,13.224,0,0,0-.666,10.2l3.807,11.107a1.789,1.789,0,0,1-2.788,2L83.743,367.047a4.558,4.558,0,0,0-6.832,1.513C70.447,380.924,66,394.87,63.318,404.842a21.982,21.982,0,0,0,6.668,22.165l17.77,15.737a3.709,3.709,0,0,0,5.9-1.394c43.421-108.078,75-164.153,90.974-188.613a1.725,1.725,0,0,1,3.02,1.642c-20.223,55.478-52.751,133.678-75.206,202.832a75.309,75.309,0,0,0,11.615,68.956c13.086,17.137,28.662,35.975,58.357,55.962A7.548,7.548,0,0,0,194,574.186c-10.5-45.472-30.58-208.852,34.731-354.961,5.558-12.433,23.922-13.534,29.229-1.466,86.871,197.527,56.232,326.707,42.908,365.746a8.255,8.255,0,0,0,9,10.846c82.249-12.261,167.019-70.019,185.46-81.7a6.8,6.8,0,0,0,2.488-8.683l-9.767-20.364a12.239,12.239,0,0,0-15.589-6.068l-24.818,9.929a20.461,20.461,0,0,1-26.039-10.1l-18.36-38.047a15.548,15.548,0,0,1,3.294-18.029l3.009-2.858a7.015,7.015,0,0,0,1.636-7.8L358.541,277.059a2.611,2.611,0,0,1,4.556-2.5c12.67,18.427,35.556,57.7,68.965,137.418a7.046,7.046,0,0,1-1.9,8.068l-4.313,3.7a10.264,10.264,0,0,0-2.429,12.5l13.543,26.183a11.464,11.464,0,0,0,14.831,5.215c18.672-8.281,59.27-26.327,81.367-36.47A7.337,7.337,0,0,0,536.2,420.437ZM245.373,175.085c-21.33-1.244-36.692-22.368-31.161-50.47,3.735-18.972,20.414-52.138,30.857-71.684a9.765,9.765,0,0,1,17.288.1c10.06,19.422,25.3,52.935,25.479,78.064C288.107,168.645,266.7,176.329,245.373,175.085Z" style="fill:#c0392b"/></svg>