<?xml version="1.0" ?><svg fill="#c0392b" data-name="Layer 5" id="Layer_5" viewBox="0 0 600 600" xmlns="http://www.w3.org/2000/svg"><title/><path d="M366.582,578.635a45.517,45.517,0,0,0,28.123,12.836c157.044,11.014,182-25.245,187-37.093,8.485-20.125,5.324-46.639,2.918-59.8a1.78,1.78,0,0,0-3.471-.136c-4.139,15.763-16.809,49.3-49.635,48.889-40.1-.5-77.93-15.3-115.274-29.388a3.548,3.548,0,0,0-4.647,4.345l7.151,23.751a24.2,24.2,0,0,0,13.9,15.377l23.607,6.783a1.966,1.966,0,0,1-.521,3.857c-19.855.136-60.426-1.612-100.582-15.562a3.062,3.062,0,0,0-3.858,4.016A63.381,63.381,0,0,0,366.582,578.635Z" style="fill:#c0392b"/><path d="M398.409,541.827a146.153,146.153,0,0,1-8.533-29.138,20.832,20.832,0,0,0-11.353-15.365c-33.3-16.316-138.277-76.3-185.9-203.4a2.32,2.32,0,0,0-4.426.237,232.139,232.139,0,0,0-6.382,42.275,65.844,65.844,0,0,0,12.847,42.343c52.8,71.378,118.691,131.184,201.574,165.2A1.662,1.662,0,0,0,398.409,541.827Z" style="fill:#c0392b"/><path d="M215.012,101.129c-14.311,9.666-30.457,24.915-30.184,41.647,1.654,9.35,3.138,18.769,5.554,27.933,18.95,71.666,46.377,141.8,91.948,200.81a2.863,2.863,0,0,0,5.122-1.773c-.037-17.139,1.372-33.649,8.29-49.643a7.09,7.09,0,0,0-.517-7.217c-38.187-63.934-71.734-133.6-75.031-209.121A3.334,3.334,0,0,0,215.012,101.129Z" style="fill:#c0392b"/><path d="M165.2,82.322a177.356,177.356,0,0,1,5.976-28.188,3.77,3.77,0,0,0-4.381-4.754c-61.055,12.6-74.779,150.5-2.718,283.594a2.348,2.348,0,0,0,4.405-1.184c-.469-27.169,5.49-46.924,8.8-55.726a11.686,11.686,0,0,0-.752-9.883c-29.4-51.667-33.493-147.067-16.288-171.009A27.611,27.611,0,0,0,165.2,82.322Z" style="fill:#c0392b"/><path d="M216.351,17.077c-26.187,18.7-31.944,54.729-32.525,85.417a3.28,3.28,0,0,0,5.638,2.334c7.611-7.934,15.822-15.02,25.557-20.268a12.433,12.433,0,0,0,6.52-9.913c2.6-31.834,34.064-68.955,129.221,32.571a2.209,2.209,0,0,0,3.827-1.54c-.142-7.424.125-20.317,3.092-29.669a9.3,9.3,0,0,0-2.145-9.256C337.916,48.36,267.4-19.372,216.351,17.077Z" style="fill:#c0392b"/><path d="M483.352,476.5a2.686,2.686,0,0,0-2.646,4.5c17.087,16.3,48.436,32.331,65.31,27.214,25.97-7.877,24.858-60.754,22.186-84.3-5.583-49.173-19.668-84.615-41.734-123.935a4.065,4.065,0,0,0-7.358.6c-4.337,11.847-11.622,34.768-11.284,54.265a51.429,51.429,0,0,0,4.941,20.71c6.168,13.288,21.12,49.63,18.415,84.587C528.955,488.931,499.167,481.248,483.352,476.5Z" style="fill:#c0392b"/><path d="M313.44,411.5c50.375,57.918,120.684,103,197.282,113.85a2.365,2.365,0,0,0,1.507-4.388c-79.075-46.294-146.163-104.754-199-179.635a5.085,5.085,0,0,0-9.131,1.806,137.494,137.494,0,0,0-2.257,42.493A48.2,48.2,0,0,0,313.44,411.5Z" style="fill:#c0392b"/><path d="M98.466,97.97C78.139,86.02,17.989,80.285,13.214,151.649c-4.842,72.37,29.765,138.962,40.118,157.094a1.63,1.63,0,0,0,3.044-.732c.514-10.893,2.5-35.526,10.149-53.56A17.462,17.462,0,0,0,67,242.007c-7.336-21.581-13.064-43.869-9.962-66.829,6.77-50.107,26.9-49.92,40.4-35.637a1.5,1.5,0,0,0,2.59-1.02,194.239,194.239,0,0,1,2.732-31.386A8.894,8.894,0,0,0,98.466,97.97Z" style="fill:#c0392b"/><path d="M375.078,84.306c-16.015,45.432,3.307,46.371,28.124,77.754,37.063,50.324,67.564,99.842,88.636,158.659a1.357,1.357,0,0,0,2.631-.34c1.392-15.945,7.4-36.816,10.888-47.927a19.214,19.214,0,0,0-1.618-15.177C468.3,194.294,428,134.1,375.078,84.306Z" style="fill:#c0392b"/><path d="M77.042,278.959c-3.975,13.609-11.886,46.171-2.33,62.894,27.153,49.674,60.592,95.368,98.155,137.63a2.98,2.98,0,0,0,4.762-.416c4.466-7.312,6.345-15.749,7.067-24.311a26.03,26.03,0,0,0-7.175-20.054c-47.465-50-79.943-101.646-96.692-155.769A1.976,1.976,0,0,0,77.042,278.959Z" style="fill:#c0392b"/><path d="M399.206,333.062a1.637,1.637,0,0,0,3.01-1.113,182.9,182.9,0,0,1-1.6-34.953,20.864,20.864,0,0,0-5.788-15.4c-46.506-48.571-103.871-72.891-125.051-81.382a4.453,4.453,0,0,0-5.955,5.293A171.408,171.408,0,0,0,272.71,230.7a25.84,25.84,0,0,0,13.061,12.959C307.785,253.446,366.7,281.669,399.206,333.062Z" style="fill:#c0392b"/><path d="M71.756,538.629a2.386,2.386,0,0,0-2.361,3.538c5.9,10.58,19.232,33.437,29.625,34.377,21.9,1.8,50.326-7.319,72.592-18.195a35.952,35.952,0,0,0,19.77-26.314,84.936,84.936,0,0,0-2.339-36.84,1.9,1.9,0,0,0-3.486-.429c-10.839,18.416-56.812,47.644-127.222,16.856a1.953,1.953,0,0,0-2.565,2.6l2.318,5a17.943,17.943,0,0,0,9.064,8.91c19.679,8.613,41.859,7.161,41.859,7.161C94.493,540.385,79.25,539.528,71.756,538.629Z" style="fill:#c0392b"/><path d="M420.728,307.021a2.722,2.722,0,0,0-4.619,2.049,214.366,214.366,0,0,0,6.187,42.5A40.858,40.858,0,0,0,430.618,368c21.515,25.61,38.259,54.3,53.689,83.867a3.857,3.857,0,0,0,7.069-.542c4.134-11.936,6.531-39.876-25.944-90.8C452.953,340.955,437.387,323.306,420.728,307.021Z" style="fill:#c0392b"/><path d="M234.57,533.476c19.359,14.3,41.5,23.788,63.439,33.469,3.616,1.591,58.95,25.907,48.326,11.546A126.836,126.836,0,0,1,327.9,546.146c-.972-2.584-2.6-3.823-5-4.863-12.16-5.652-24.972-10.192-36.4-17.256-14.83-10.007-26.534-18.1-40.677-28.189a2.492,2.492,0,0,0-3.911,1.639,103.6,103.6,0,0,1-9.026,29.065A5.552,5.552,0,0,0,234.57,533.476Z" style="fill:#c0392b"/><path d="M207.207,534.342c16.437-20.749,26.834-49.1,25.6-73.683a26.43,26.43,0,0,0-7.379-16.837C213.21,431,200.852,414.853,193.8,405.259a1.512,1.512,0,0,0-2.668,1.328c3.884,13.19,9.209,38.478,3.933,66.246a11.258,11.258,0,0,0,2.1,8.9c4.682,6.158,12.268,21.292,7.775,51.618A1.282,1.282,0,0,0,207.207,534.342Z" style="fill:#c0392b"/><path d="M390.715,176.94a2.276,2.276,0,0,0-3.887,1.489,85.672,85.672,0,0,0,3.705,27.641,34.463,34.463,0,0,0,9.05,15.007,554.93,554.93,0,0,1,44.825,49.209,1.285,1.285,0,0,0,2.186-1.3C438.761,250.283,417.92,204.616,390.715,176.94Z" style="fill:#c0392b"/><path d="M277.4,96.89C271.687,95.608,238.9,87.371,243.381,130a2.577,2.577,0,0,0,3.679,2.067c5.543-2.739,18.671-6.075,41.469,5.294,35.558,17.733,71.637,48.994,84.344,60.613a1.765,1.765,0,0,0,2.9-1.753,159.7,159.7,0,0,1-4.5-31.284,7.94,7.94,0,0,0-2.266-5.193C359.28,149.816,319.216,106.284,277.4,96.89Z" style="fill:#c0392b"/></svg>