<svg width="600" height="600" viewBox="0 0 600 600" fill="none" xmlns="http://www.w3.org/2000/svg">
<g clip-path="url(#clip0_203_514)">
<path d="M159.365 592.476C160.786 594.777 162.772 596.676 165.134 597.993C167.496 599.31 170.156 600.001 172.86 600H233.032C233.702 600.001 234.359 599.822 234.936 599.482C235.512 599.142 235.987 598.653 236.31 598.067C236.633 597.48 236.793 596.818 236.773 596.149C236.753 595.48 236.553 594.829 236.195 594.263C168.238 487.346 84.6952 373.855 7.16523 272.713C6.68481 272.086 6.01991 271.625 5.264 271.395C4.5081 271.165 3.69921 271.178 2.95106 271.432C2.20291 271.686 1.55313 272.168 1.09307 272.81C0.633013 273.453 0.385815 274.223 0.386231 275.013V333.823C0.38476 340.708 2.4255 347.438 6.25023 353.163C56.9722 429.072 111.825 515.467 159.365 592.476Z" fill="#c0392b"/>
<path d="M58.7262 591.768C60.0928 594.262 62.1051 596.342 64.5521 597.79C66.9991 599.238 69.7907 600.002 72.6342 600H108.957C109.627 600 110.285 599.82 110.862 599.479C111.438 599.138 111.912 598.648 112.235 598.06C112.557 597.473 112.715 596.81 112.693 596.14C112.671 595.47 112.469 594.819 112.109 594.254C78.2282 541.082 38.1502 480.47 4.82723 425.615C4.55314 425.172 4.14231 424.83 3.6568 424.641C3.17129 424.452 2.63746 424.426 2.13594 424.567C1.63443 424.708 1.19247 425.009 0.876821 425.423C0.56117 425.838 0.388971 426.344 0.386234 426.865V480.873C0.383743 486.13 1.74434 491.298 4.33523 495.873C21.9002 526.878 42.1002 561.4 58.7262 591.768Z" fill="#c0392b"/>
<path d="M15.6932 593.979C16.8208 595.817 18.4002 597.335 20.281 598.389C22.1618 599.443 24.2812 599.998 26.4372 600H31.1692C31.8202 600 32.46 599.831 33.0252 599.508C33.5905 599.185 34.0616 598.72 34.3918 598.159C34.7221 597.598 34.9002 596.961 34.9083 596.31C34.9164 595.659 34.7544 595.017 34.4382 594.448C25.6802 578.655 14.9222 560.983 5.11223 544.479C4.82744 544.001 4.39357 543.629 3.87725 543.422C3.36092 543.214 2.79067 543.181 2.25403 543.329C1.7174 543.476 1.24404 543.796 0.906625 544.239C0.569211 544.681 0.386391 545.222 0.38623 545.779V561.102C0.385997 567.003 2.10126 572.777 5.32323 577.721C8.87523 583.175 12.4452 588.7 15.6932 593.979Z" fill="#c0392b"/>
<path d="M594 292.947C546.186 252.24 475.335 194.111 420.5 149.936C419.925 149.471 419.553 148.8 419.464 148.066C419.374 147.331 419.575 146.591 420.022 146.001C420.469 145.412 421.128 145.02 421.859 144.908C422.591 144.796 423.337 144.973 423.94 145.402L595.94 263.515C596.288 263.764 596.698 263.912 597.125 263.944C597.551 263.975 597.979 263.888 598.359 263.693C598.74 263.497 599.059 263.2 599.282 262.835C599.505 262.47 599.623 262.05 599.623 261.622V215.166C599.624 211.715 598.763 208.319 597.118 205.286C595.473 202.252 593.096 199.678 590.203 197.797C535.363 162.142 388.515 66.288 295.677 5.18502C290.536 1.80174 284.516 -0.000863019 278.361 1.75712e-05H220.833C220.092 -0.00229527 219.369 0.223767 218.762 0.647394C218.155 1.07102 217.693 1.67161 217.439 2.36729C217.186 3.06298 217.153 3.81993 217.345 4.53497C217.538 5.25001 217.946 5.88836 218.514 6.36302C339.405 107.518 472.85 215.8 596.578 312.5C596.856 312.717 597.189 312.851 597.54 312.887C597.891 312.924 598.245 312.861 598.561 312.706C598.878 312.55 599.145 312.309 599.331 312.01C599.517 311.71 599.615 311.365 599.614 311.012V305.088C599.613 302.779 599.111 300.497 598.142 298.4C597.172 296.304 595.759 294.443 594 292.947Z" fill="#c0392b"/>
<path d="M594.058 101.208C594.643 101.502 595.293 101.642 595.947 101.614C596.601 101.585 597.236 101.39 597.793 101.046C598.35 100.703 598.81 100.222 599.129 99.6508C599.448 99.0792 599.615 98.4355 599.614 97.781V6.049C599.614 5.25468 599.458 4.46812 599.154 3.73422C598.85 3.00033 598.405 2.33349 597.843 1.77177C597.282 1.21006 596.615 0.764475 595.881 0.460472C595.147 0.156469 594.36 1.77079e-07 593.566 1.87936e-07H414.151C413.676 -0.000198994 413.214 0.157932 412.838 0.449448C412.462 0.740964 412.194 1.14927 412.076 1.60996C411.958 2.07065 411.997 2.5575 412.186 2.9937C412.376 3.42991 412.705 3.79064 413.122 4.019C471.2 35.7 536.146 71.988 594.058 101.208Z" fill="#c0392b"/>
<path d="M596.638 138.02C558.219 115.942 439.981 47.207 370.784 2.20802C368.564 0.765593 365.973 -0.00144217 363.326 2.00147e-05H348.649C348.366 -0.00154717 348.091 0.0889591 347.865 0.257841C347.638 0.426722 347.473 0.664786 347.394 0.936C347.315 1.20721 347.326 1.49682 347.426 1.76097C347.526 2.02513 347.71 2.24946 347.949 2.40002C424.6 50.83 553.685 127.17 597.04 152.584C597.3 152.736 597.596 152.817 597.897 152.818C598.198 152.82 598.494 152.741 598.755 152.591C599.017 152.441 599.234 152.225 599.384 151.964C599.535 151.703 599.614 151.407 599.614 151.106V143.172C599.615 142.127 599.341 141.101 598.818 140.196C598.296 139.292 597.544 138.541 596.638 138.02Z" fill="#c0392b"/>
<path d="M310.971 225.431C304.744 196.384 294.117 168.459 279.458 142.621C276.246 137.183 286.336 132.963 290.078 138.045C363.79 238.211 456.374 442.893 497.6 537.888C498.515 540.017 498.655 542.398 497.997 544.619C497.338 546.84 495.924 548.76 493.997 550.047C492.071 551.334 489.755 551.905 487.451 551.663C485.147 551.42 483.002 550.378 481.386 548.719C408.614 473.573 236.88 358.75 69.1823 237.553C68.3388 236.951 67.7411 236.065 67.5 235.058C67.2589 234.051 67.3905 232.99 67.8704 232.072C68.3504 231.154 69.1462 230.441 70.111 230.064C71.0759 229.688 72.1445 229.672 73.1194 230.022C100.751 239.945 113 245.553 172 254.5C207.5 259.883 211.566 233.002 202.287 223.073C150.245 167.367 81.39 101.593 -0.499889 43.3733L-0.499912 -1.00005L40.525 -1.00005C149.415 90.9569 235.405 185.701 281.722 240.053C284.164 242.917 287.495 244.881 291.183 245.631C294.871 246.381 298.704 245.874 302.07 244.191C305.437 242.508 308.142 239.746 309.755 236.346C311.369 232.946 311.797 229.103 310.971 225.431Z" fill="#c0392b"/>
</g>
<defs>
<clipPath id="clip0_203_514">
<rect width="600" height="600" fill="white"/>
</clipPath>
</defs>
</svg>
