<?xml version="1.0" ?><svg fill="#c0392b" id="icon" viewBox="0 0 512 512" xmlns="http://www.w3.org/2000/svg"><title/><path d="M159.17,380l-19.83-19.83a4.56,4.56,0,0,0-6.7.27L64.12,437.68A22.68,22.68,0,1,0,80.6,454.16l78.3-67.49A4.58,4.58,0,0,0,159.17,380Z"/><path d="M469.47,30.54C450.82,45.21,406.94,71,338.85,59.94a14.21,14.21,0,0,0-15.42,8.49C307.81,105.63,251,233.32,169.31,328.21c-17.55-26.74-12.35-48.64-8.77-57.7a11.34,11.34,0,0,0-21.1-8.33c-5.77,14.61-14.94,53.18,24.42,95.64l13.23,14.33a46.16,46.16,0,0,1,11.7,40.37,53,53,0,0,1-2.87,9.39,54.24,54.24,0,0,1-65.63,32,11.34,11.34,0,0,0-6.24,21.81,77,77,0,0,0,35.31,1.81c25.54-4.63,47.59-22.63,57.56-47A76.47,76.47,0,0,0,211,417.08a68.68,68.68,0,0,0-14.67-57.36C239.78,336.58,415.2,232.67,475.81,34.93A4,4,0,0,0,469.47,30.54Z"/></svg>