<?xml version="1.0" ?><svg fill="#c0392b" data-name="1" id="_1" viewBox="0 0 600 600" xmlns="http://www.w3.org/2000/svg"><title/><path d="M116.079,305.688c19.7,15.632,53.641,31.393,50.056,58.218-25.337,189.541,52.641,213.258,71.7,216.221A2.147,2.147,0,0,0,240.066,577c-3.641-6.942-11.66-22.438-15.471-31.436a1.647,1.647,0,0,1,1.532-2.287l6.738.036a6.628,6.628,0,0,1,5.519,3c3.227,4.938,9.7,14.8,13.44,20.21a56.185,56.185,0,0,0,37.523,23.654c239.86,37.323,261.57-70.3,266.041-84.405,12.412-39.146,5.386-80.92.762-100.393a2.355,2.355,0,0,0-4.62.2c-6.148,41.13-20.912,90.793-62.486,106.269-121.664,45.292-213.191-83.8-242.758-144.3-3.9-7.989,1.546-9.325,4.3-5.426C316.628,455.6,384.4,487.6,437.466,491.569c32.224,2.409,72.179-11.759,89.466-50.188,25.8-57.355,25.489-102.313,11-142.425C527.508,270.1,505.69,245,489.491,230.685a66.692,66.692,0,0,0-35.629-16.152c-115.228-14.837-230.323,2.654-258.613,64.706a11.223,11.223,0,0,1-14.29,5.554C94.3,248.824,51.313,128.1,40.566,89.828a1.49,1.49,0,0,0-2.925.406v60.249S37.641,243.464,116.079,305.688ZM470.266,409.994c2.487-9.133,12.9-11.493,19.88-4.934,6.057,5.693,7.871,18.818,3.582,25.935-5,8.3-16.641,8.368-21.21-.19A28.053,28.053,0,0,1,470.266,409.994Zm-224.8,115.338.771,3.744a2.28,2.28,0,0,1-2.211,2.739l-33.586.32a4.59,4.59,0,0,1-4.293-2.849l-1.683-4.1a2.279,2.279,0,0,1,2.008-3.142l1.82-.08a4.455,4.455,0,0,0,4.022-5.879c-2.2-6.546-4.133-13.879-5.326-18.7a4.561,4.561,0,0,1,4.155-5.645l2.629-.16a4.555,4.555,0,0,1,4.754,3.659c1.057,5.346,3.3,15.211,6.787,23.37a4.442,4.442,0,0,0,3.949,2.678l11.853.382A4.6,4.6,0,0,1,245.468,525.332ZM191.7,410.238l1.978.279a4.453,4.453,0,0,0,5.076-4.253c.262-7.782,1.138-23.219,4.055-35.2a4.557,4.557,0,0,1,6.648-2.876l3.327,1.85a4.572,4.572,0,0,1,2.284,4.729,225.863,225.863,0,0,0-3.286,34.477,4.449,4.449,0,0,0,3.834,4.42l4.178.59a2.28,2.28,0,0,1,1.93,2.631l-.849,5.092a2.766,2.766,0,0,1-3.092,2.287l-25.473-3.372a2.765,2.765,0,0,1-2.376-2.355l-.809-5.725A2.278,2.278,0,0,1,191.7,410.238Zm-.97,60.652,6.065-.308a4.451,4.451,0,0,0,4.18-5.122c-1.055-6.842-2.866-19.525-3.384-29.015a4.564,4.564,0,0,1,4.953-4.8l4.367.377a4.556,4.556,0,0,1,4.169,4.39c.21,6.445.889,19.4,3.066,29.855a4.473,4.473,0,0,0,4.208,3.575l7.583.279a4.4,4.4,0,0,1,4.112,3.338l1.275,5.132a2.28,2.28,0,0,1-2.143,2.828l-34.934,1.051a4.1,4.1,0,0,1-4.084-3.039l-1.519-5.679A2.279,2.279,0,0,1,190.732,470.89Z" style="fill:#c0392b"/><path d="M492.577,206.372c7.661,5.785,20.42,16.03,30.5,27.147a2.157,2.157,0,0,0,3.75-1.413c3.012-132.958-61.522-202.127-85.4-223.1A28.205,28.205,0,0,0,422.815,2H398.166a2.156,2.156,0,0,0-1.38,3.815c19.449,16.125,91.107,82.731,89.349,187.477A16.1,16.1,0,0,0,492.577,206.372Z" style="fill:#c0392b"/></svg>