<?xml version="1.0" ?><svg fill="#c0392b" data-name="Layer 5" id="Layer_5" viewBox="0 0 600 600" xmlns="http://www.w3.org/2000/svg"><title/><path d="M81.606,11.057A21.286,21.286,0,0,0,60.8,30.147C56.426,72.362,48.737,176.353,74.093,213.929c44.233,65.552,164.941,73.733,204.361,74.628a8.379,8.379,0,0,0,7.888-11.657C233.493,152.4,123.369,72.78,131.571,67.266,152.012,53.525,258.4,141.692,306.693,260.233c1.354,3.323,5.866,2.334,6.292-1.229,4.207-35.191-1.132-98.478-10.442-127.637C266.506,18.491,131.517,10.158,81.606,11.057Zm90.641,234.015c1.837-14.7,37.4-19.72,48.326-7.168,9.289,10.67,10,27.062-10.19,27.062C195.211,264.965,170.638,257.948,172.247,245.072Z" style="fill:#c0392b"/><path d="M279.4,310.665c-77.623,4.949-163.068-29.933-195.113-44.585a10.119,10.119,0,0,0-14.294,8.491c-4.655,65.234-1.161,143.693,37.879,190.621,55.513,66.73,150.577,70.335,181.327,69.63a7.834,7.834,0,0,0,7.355-9.994C271.69,438.608,203.944,366.767,172.5,336.957a3.322,3.322,0,0,1,3.87-5.332c32.958,17.95,98.366,64.675,137.671,166.94a2.784,2.784,0,0,0,5.362-.688c10.02-88.391-11.582-151.405-22.432-176.394A17.962,17.962,0,0,0,279.4,310.665Zm-94.45,163.141c3.134-30.456,50.775-4.126,49.425,16.1C232.675,519.954,182.974,493.407,184.947,473.806Z" style="fill:#c0392b"/><path d="M335.6,73.225a7.025,7.025,0,0,0-7.781,9c21.6,78.422,13.742,164.074,10,188.617a13.97,13.97,0,0,0,4.1,12.154c15.945,15.42,68.739,59.562,163.228,74.059a4.067,4.067,0,0,0,4.564-4.913c-27.87-131.655-126.891-216.374-119.432-221.771,7.4-5.353,105.234,61.4,141.85,198.691a2.723,2.723,0,0,0,5.279-.071c7.053-29.424,20.9-117.68-44.039-186.828C461.117,107.815,392.118,82.309,335.6,73.225Zm63,183c31.573,6.307,33.645,40.332,13.373,41.41C387.823,298.917,361.15,249.434,398.6,256.223Z" style="fill:#c0392b"/><path d="M528.47,567.2a3.913,3.913,0,0,0,7.325-.539c17.453-59.248,1.989-133.876-5.1-162.038-1.7-6.756-7.385-11.4-14.215-12.771-37.118-7.46-107.941-20.233-180.285-77.123-4.09-3.215-10.384,1.405-8.356,6.2,15.132,35.749,31.524,115.3,26.686,186.493-.649,9.554,3.14,18.84,11.287,23.873,24.436,15.1,78.581,45.29,138.478,57.626a3.921,3.921,0,0,0,4.5-5.117c-31.239-89.5-124.275-186.493-115.254-192.96C405.325,382.386,496.867,496.949,528.47,567.2ZM408.913,503.546c11.6-.916,25.161,4.662,30.5,17.4,4.606,10.978.668,24.844-12.208,22.3a47.625,47.625,0,0,1-24.317-13.368C395.457,521.463,393.234,505.229,408.913,503.546Z" style="fill:#c0392b"/></svg>