<?xml version="1.0" ?><svg fill="#c0392b" data-name="Layer 5" id="Layer_5" viewBox="0 0 600 600" xmlns="http://www.w3.org/2000/svg"><title/><path d="M383.52,552.59a2.856,2.856,0,0,0,5.438-.546c2.868-14.322,10.153-40.856,27.146-61.395a7.373,7.373,0,0,0,.181-9.2c-7.763-10.109-24.807-32.927-22.516-35.506,2.024-2.279,19.258,9.264,29.9,16.754a1.39,1.39,0,0,0,1.885-2.006c-14.728-18.319-49.118-61.88-45.786-65.167,3.566-3.52,51.18,37.5,65.989,50.419a7.372,7.372,0,0,0,9.008.524,215.962,215.962,0,0,1,47.849-24.424,3.918,3.918,0,0,0,.6-7.1c-29.34-16.531-132.313-78.009-172.6-147.852a6.55,6.55,0,0,0-7.7-2.968c-38.23,12.422-56.325,44.8-60.573,86.721A42.616,42.616,0,0,0,273.6,384.268C344.562,460.1,373.527,528.628,383.52,552.59Z" style="fill:#c0392b"/><path d="M100.51,114.4,68.6,94.378a5.73,5.73,0,0,0-7.868,1.862A128.079,128.079,0,0,0,41.6,159.925c-.218,7.637,3.789,15.329,10.959,17.966,56.7,20.854,91.412,54.2,106.251,71.008a8.975,8.975,0,0,0,14.51-1.439c10.5-18.19,35.015-52.255,76.994-65.317a5.586,5.586,0,0,0,3.182-8.155C234.8,142.035,200.88,81.581,183.116,8.816a3.5,3.5,0,0,0-6.389-.991c-18.437,29.343-71,31.705-94.155,61.056a9.514,9.514,0,0,0-.743,10.63L103.3,111.527A2.046,2.046,0,0,1,100.51,114.4Z" style="fill:#c0392b"/><path d="M417.919,573.749c72.838-27.9,157.627-92.453,137.472-153.283a68.613,68.613,0,0,0-36.908-41.118c-56.311-25.305-106.4-50.405-152.357-121.8a9.574,9.574,0,0,0-7.913-3.91,73.66,73.66,0,0,0-12.805,2.135A3.954,3.954,0,0,0,343,261.636c51.882,86.608,142.052,120.5,168.768,135.7,9.092,4.659,25.621,15.6,25.345,34.437-.887,60.709-50.76,88.011-88.473,112.221-13.938,8.947-25.779,4.284-22.45-7.077,9.953-33.966,25.357-54.518,57.125-67.878a5.364,5.364,0,0,1,6.591,7.845c-5.9,9.256-17.69,19.261-26.858,28.069-3.734,3.586,1,9.482,5.3,6.591,14.71-9.9,35.439-26.959,50.144-51.752,6.407-10.8-8.943-14.249-17.507-11.6-73.9,22.829-91.626,85.942-95.879,115.25A9.543,9.543,0,0,0,417.919,573.749Z" style="fill:#c0392b"/><path d="M213.032,359.421c-1.49-3.415-2.357-5.763-5.5-6.078-5.342-.708-8.67,5.667-7.2,10.209C259.027,544.926,65.027,457.2,85.549,574.5c.951,5.438,3.789,6.063,9.191,5.633,6.056.628,7.665-9.064,7.188-13.7-5.147-49.933,50.148-44.121,88.266-67.959,0,0,15.472,28.812,1.261,90.075-1.454,6.268,7.538,6.841,11.443,2.436,23-25.949,14.631-75.051,9.468-96.565a31.7,31.7,0,0,1,1.733-20.117C218.279,464.765,240.486,422.377,213.032,359.421Z" style="fill:#c0392b"/><path d="M238.456,351.386a3.725,3.725,0,0,0,6.33-2.387c2.292-32.237,19.283-93.909,113.788-107.9a2.83,2.83,0,0,0,1.46-4.935l-7.556-6.567a16.154,16.154,0,0,0-12.95-3.767c-24.762,3.626-48.9,18.468-64.087,29.6-3.7,2.715-8.372-1.921-5.625-5.6,13.288-17.792,34.28-31.07,59.127-35.714a4.581,4.581,0,0,0,2.257-7.877l-2.857-2.627a13.885,13.885,0,0,0-15.586-2.236C249.034,233.2,231.872,269.922,228.719,335.4a13.749,13.749,0,0,0,4.1,10.461Z" style="fill:#c0392b"/><path d="M250.865,225.273a37.285,37.285,0,0,0,11.5-6.635c7.562-6.41,23.706-18.451,47.988-28.217,4.986-2,4.661-5.264.829-9.185-2.571-2.61-6.421-2.2-9.7-1.263-57.145,14.063-132.91,44.292-144.7,182.3-3.227,37.789,9.187,73.848,15.561,89.446a6.378,6.378,0,0,0,10.6,1.9c4.744-5.2,10.031-13.424,5.717-22.032C154.849,364.107,172.333,253.508,250.865,225.273Z" style="fill:#c0392b"/><path d="M250.661,39.831a10.932,10.932,0,0,0-8.653-10.262A148.629,148.629,0,0,0,216.5,26.684a5.68,5.68,0,0,0-5.732,6.826c12.406,59.629,43.587,119.277,53.594,137.432a8.8,8.8,0,0,0,9.367,4.386l15.119-2.907a3.16,3.16,0,0,0,2-4.909C257.036,118.925,251.522,60.836,250.661,39.831Z" style="fill:#c0392b"/><path d="M235.035,250.956c-9.471,5.277-29.007,19.47-40.712,51.143a13.017,13.017,0,0,0,2.251,13.055,19.617,19.617,0,0,0,3.306,3.013,106.138,106.138,0,0,0,11.678,7.938,1.727,1.727,0,0,0,2.612-1.529s.69-41.207,22.688-71.552A1.41,1.41,0,0,0,235.035,250.956Z" style="fill:#c0392b"/></svg>