<?xml version="1.0" ?><svg fill="#c0392b" data-name="Layer 5" id="Layer_5" viewBox="0 0 600 600" xmlns="http://www.w3.org/2000/svg"><title/><path d="M566.824,52.483C531.769,34.782,359.78-7.953,155.565,38.664a33.193,33.193,0,0,0-22.538,17.643c-10.321,21.217-9.014,49.961,2.39,69.52a33.779,33.779,0,0,0,31.5,16.654c48.347-3.324,157.671-23.6,363.208,27.861,8.336,2.087,15.9-6.095,21.062-12.293,16.209-21.409,20.371-51.706,8.069-74.887-5.275-9.939-18.781-13.365-27.062,15.707-2.306,8.1-3.972,33.083,3.652,35.874,4.688,1.715,9.859-3.854,6.812-12.788-1.96-5.747-6.145-17.273,1.137-28.538,4.222-6.532,9.745-2.586,11.337,5.171,3.579,17.451,0,41.766-19.155,52.234-4.091,2.236-6.875,1.95-9.683-1.825-6.369-8.564-15.689-35.524.822-69.922,20.807-43.348,55.2-2.425,50.089,41.22-7.142,60.955-37.89,69.542-52.443,65.939-169.282-41.922-308.557-30.58-344.813-26.5a11.909,11.909,0,0,0-10.391,9.613C151.722,264.951-9.091,318.532,4.947,455.506a89.793,89.793,0,0,0,59.691,75.551C175.867,570.115,349.693,580,413.63,582.369a54.97,54.97,0,0,0,44.744-20.329c34.262-42.281,33.023-83.487,25.216-111.678-7.313-26.4-41.566-33.7-58.622-12.258q-1.9,2.383-3.685,5.082c-15.894,24.078-16.254,63.988,1.34,79.506,29.516,26.031,46.408-43.519,28.116-51.519-8.285-3.624-12.581,12.4-7.959,18.5,7.023,9.271-5.092,23.758-10.25,21.25-13.277-6.454-10.43-33.729-.136-54.82,10.159-20.815,41.318-14.9,43,8.2,3.384,46.382-38.587,105.284-56.859,87.006-20.654-20.661-28.092-55.019-24.374-80.629,6.235-49.232,44.245-81.162,77.127-114.717,104.955-107.1,122.9-206.371,124.6-254.309A52.969,52.969,0,0,0,566.824,52.483ZM343.912,486.992c-8.994,17.215-259.378-27.616-270.476-32.107-27.574-11.16-8.318-23.671-1.194-22.556,24.254,2.064,230.639,33.132,264.273,44.136C339.87,477.189,346.662,481.727,343.912,486.992ZM139.424,365.512c11.418,0,22.635,3.057,33.947,4.64,20.921,1.82,106.291,13.708,126.882,21.6,8.542,3.273,15.814,19.6-5.623,19.6-10.646,0-144.429-18.176-158.7-25.4C119.7,377.745,122.053,365.506,139.424,365.512Zm239.614,2.613c-18.762-4.422-242.394-35.806-267.991-42.363-5.812-2.138-6.725-6.376-6.674-11.37,1.059-10.334,29.462-12.053,71.5-2.153,19.615,4.62,155.872,21.307,202.338,35.36C389.436,349.458,393.29,371.215,379.038,368.125Zm-162.1-94.172c1.044-7.951,11.214-7.473,17.651-7.187,15.631-.632,90.97,4.153,98.873,19.216,2.729,5.2-6.687,9.716-12.413,8.435-9.985-1.335-82.193-7.186-97.774-10.7C218.805,282.09,216.277,277.808,216.941,273.953Zm209.812-29.521a11.36,11.36,0,0,1-10.891,5.026c-11.493-1.536-195.271-19.55-216.064-20.2-12.41.979-13.106-16.238-3.234-19.333,8.434-2.523,17.472-1.291,26.165-1.525,0-.125,173.952,16.5,192.6,19.239C421.867,228.133,430.974,238.37,426.753,244.432Zm39.937,9.387c-14.54.187-12.121-22.659,2.2-18.245C482.862,237.984,481.875,256.028,466.69,253.819Z" style="fill:#c0392b"/></svg>