<?xml version="1.0" ?><svg fill="#c0392b" data-name="Layer 5" id="Layer_5" viewBox="0 0 600 600" xmlns="http://www.w3.org/2000/svg"><title/><path d="M344.685,326.979l5.233-3.2a7.41,7.41,0,0,1,9.175,1.388c48.925,49.593,84.413,80.136,109.392,96.509,3.6,2.363,9.322,5.236,15.063,2.25,16.127-8.389,28.341-11.976,36.982-13.451a3.051,3.051,0,0,0,.864-5.734C494.8,391.3,420.05,349.469,390.742,290.821a7.377,7.377,0,0,0-9.37-3.5c-9.54,3.848-29.539,13.516-61.137,36.31-21.5,15.508-50.4-.13-55.427-21.442-4.347-18.437,3.7-30.915,11.9-40,2.708-3,4.361-8.116,1.485-10.958-57.294-56.615-60.837-99.133-110.721-150.3-4.092-4.2-11.513-1.931-15.973,1.871-15.861,13.523-55.635,52.728-59.609,108.7a19.868,19.868,0,0,0,10.418,18.848c33.574,18.147,139.766,81.572,222.739,197.645,22.581,31.589,44.447,75.2,59.9,111.932a3.553,3.553,0,0,0,6.7-.435s11.992-56.188,59.674-91.06c8.12-5.939,8.872-12.106,4.671-16C445,422.261,416.2,396.681,344.253,331.632A2.917,2.917,0,0,1,344.685,326.979Z" style="fill:#c0392b"/><path d="M580.238,526.486c-14.106-10.272-30.233,2.62-45.91-10.286-27.036-20.923-4.767-46.663-2.163-73.112.407-48.563-119.486,33.359-122.058,94.14-.373,8.811,16.129,16.657,18.44,5.833,11.308-52.949,45.377-76.4,66.247-86.032a2.936,2.936,0,0,1,3.1,4.924c-23.437,19.448-44.75,42.139-51.553,65.442a5.739,5.739,0,0,0,6.442,7.271c5.681-.936,13.888-2.3,23.339-3.916,65.935-11.255,42.571,55.064,85.047,55.193C592.843,586.039,608.856,547.325,580.238,526.486Z" style="fill:#c0392b"/><path d="M245.782,77.971a11.812,11.812,0,0,0-12.658-9.226c-12.971,1.232-35.511,4.877-55.333,15.663-2.752,1.5-2.5,5.18.165,6.831,41.3,25.6,68.185,116.668,114.149,151.251,2.5,1.884,5.115,3.551,7.871,2.06,6.452-3.492,18.517-9.553,30.941-13.344a3.914,3.914,0,0,0,1.685-6.5C315.992,207.905,261.393,148.415,245.782,77.971Z" style="fill:#c0392b"/><path d="M41.839,81.089c16.944-1.546,32.385,7.664,36.281,24.156,6.69,22.021-13.045,57.3-9.239,79.82.82,4.851,3.169,6.454,5.551,6.722a6.542,6.542,0,0,0,6.961-5.063C85.8,168.557,111.107,85.771,210.633,60.1c5.036-1.3,6.068-8.168,1.5-10.654-21.191-11.53-80.471,18.82-108.447,51.921a3.445,3.445,0,0,1-5.934-3.216A49.239,49.239,0,0,1,114.724,74.3c2.412-1.849,1.433-6.245-1.6-6.036-24.3,1.673-30.7,1.289-42.736-31.416C56.812-.039,4.986,11.538,4.854,45.287,4.791,61.566,12.093,83.8,41.839,81.089ZM26.426,49.126c6.633,13.772-8.094,20.808-11.6,6.819C12.4,46.245,23.266,42.566,26.426,49.126Z" style="fill:#c0392b"/><path d="M324.573,303.117a160.1,160.1,0,0,1,50.166-27.746,4.1,4.1,0,0,0,.538-7.541c-14.569-7.4-19.382-18.436-20.954-24.308a4.243,4.243,0,0,0-5.111-3c-20.9,5.078-41.491,13.339-57.909,27.485C258.781,297.313,292.111,331.1,324.573,303.117Zm-17.7-26.241c13.332.889,10.431,20.153-3.083,18.513C291.41,293.888,296.6,276.463,306.868,276.876Z" style="fill:#c0392b"/></svg>