<?xml version="1.0" ?><svg fill="#c0392b" data-name="Layer 5" id="Layer_5" viewBox="0 0 600 600" xmlns="http://www.w3.org/2000/svg"><title/><path d="M298.131,37.252C250.512,13.98,97.577,69.4,35.184,129.158c-57.827,55.389-16.633,71.273.816,69.325C194.72,180.763,347.577,61.418,298.131,37.252ZM210.855,80.983c-.563,6.946-55.089,42.053-100.955,49.217a13.285,13.285,0,0,1-7.006-.686C79.177,119.968,212.073,65.955,210.855,80.983Z" style="fill:#c0392b"/><path d="M185.455,289.22c52.6,1.553,101.271-8.469,147.108-26.863a5.107,5.107,0,0,0,2.7-7.031c-4.6-9.042-6.757-19.476-7.744-26.365a3.312,3.312,0,0,0-5.731-1.773c-16.241,18.034-33.554,26.964-45.206,31.28a2.533,2.533,0,0,1-2.384-4.407c11.649-8.793,29.052-23.213,36.834-36.136a20.051,20.051,0,0,0,2.805-11.082,61.332,61.332,0,0,0-3.366-18.357,3.5,3.5,0,0,0-6.256-.654c-75.454,120.423-229.171,83.1-229.171,83.1q11.317,25.563,22.67,51.113c8.794,20.443,5.924,19.754,28.319,17.267,30.133-4.181,59.292-10.921,97.441-27.724a19.6,19.6,0,0,1,7.74-1.658c3.379-.027,8.525-.142,13.983-.528a2.451,2.451,0,0,1,1.315,4.615c-17.48,9.15-49.962,25.7-63.8,29.787-23.156,6.72-47.7,13.734-71.988,10.626-8.278-1.422-10.3,8.39-2.767,10.927,6.251,1.25,10.114,1.139,12.071,8.239,1.905,5.778,6.32,7.933,11.925,7.934,90.95.015,173.066-57.25,215.761-99.731a5.063,5.063,0,0,0-5.2-8.369c-20.382,6.855-45.171,16.134-65.631,20.86-42.746,9.872-75.3,3.915-92.078-1.064A2.045,2.045,0,0,1,185.455,289.22Z" style="fill:#c0392b"/><path d="M557.034,150.22a10,10,0,0,1-2.729-9.838c1.67-6.157,3.676-16.26,2.174-25.507-2.609-16.048-16.331-22.826-29.507-7.98-8.891,10.019-10.115,24.473-10.115,24.473a96.12,96.12,0,0,0-32.741,1.666C416.361,148.16,416.6,192.517,346.694,221.25c-3.9,1.6-5.62,4.656-4.715,8.235,6.6,15.146,45.189-13.631,53.6-20.733,34.146-28.833,49.653-51.718,84.689-60.543,5.189-1.433,14.852-1.931,22.278-2.094a8.839,8.839,0,0,1,8.982,9.792c-1.553,14.225-3.506,37.989-4.884,55.6a273.331,273.331,0,0,1-7.279,44.763c-14.221,57.094-55.169,216.866-70.713,306.5a4.622,4.622,0,0,0,8.984,2.105c14.38-48.508,56.267-227.617,70.883-278.832,9.089-38.273,20.544-75.838,32.737-113.217,1.221-4.087-2.123-9.5-4.191-12.33a1.262,1.262,0,0,0-2.218.326c-1.076,3.164-3.27,8.989-5.958,12.771a3.716,3.716,0,0,1-6.632-1.311c-2.805-11.944,4.148-39.993,7.956-46.711,1.892-4.8,6.2-9.276,11.774-7.76,6.368,3.589,2.542,15.877.045,22.122-11.906-4.649-13.948,5.372-7.56,9.459,52.107,33.336,61.6,107.868,28.921,158.14-8.516,11.791-24.313,7.27-20.958-5.542,1.5-5.56,5.174-9.973,9.152-13.988,3.22-3.595.2-8.755-4.623-6.656-46.554,34.02,12.2,80.239,37.592,13.935C613.648,219.3,571.606,164.24,557.034,150.22Z" style="fill:#c0392b"/><path d="M173.775,497.434c-7.859.142-26.7-5.181-25.635,6.434,2.311,25.281,64.771,30.971,90.159,27.277C383.217,510.057,424.868,420.326,427.918,378.09c1.574-10.176-6.579-14.6-14.493-12.835-3.2,1.951-4.613,7.358-6.764,10.614a230.1,230.1,0,0,1-26.713,39.608C358.211,443.551,300.374,495.149,173.775,497.434Z" style="fill:#c0392b"/><path d="M357.127,288.7c-14.439,44.15-54.15,97.324-104.021,118.228a2.244,2.244,0,0,1-2.07-3.96c30.843-20.037,57.1-45.258,75.684-76.5a2.348,2.348,0,0,0-3.5-3.026c-18.919,15.483-63.012,46.71-125.845,61.388-20.6,4.813-41.237,8.978-62.543,8.464-4.684-.113-5.652,1.434-3.815,5.789,4.138,9.809,8.477,19.535,12.437,29.414,1.747,5.291,7.091,6.335,11.843,6.133,55.461-2.356,88.237-11.92,105.98-18.537a180.752,180.752,0,0,0,28.287-13.375,268.212,268.212,0,0,0,62.177-50.383c19.3-21.172,17.844-33.309,14.859-38.961a29.623,29.623,0,0,1-3.6-13.864c0-2.908.1-6.335.356-10.11C363.639,285.416,358.382,284.856,357.127,288.7Z" style="fill:#c0392b"/><path d="M377.449,337.292c-34.633,63.475-110.217,103.641-184.167,105.945-14.467,1.3-28.933,1.663-43.348-.713-6.316-2.2-11.681,4.436-5.128,8.236,13.521,3.06,9.8,7.7,15.592,18.151,2.754,5.231,6.218,10.427,12.721,10.921,43.239,3.286,113.853-11.1,166.47-52.886,18.629-14.8,36.952-30.139,46.93-51.944,5.633-10.7-7.487-21.343-2.935-31.29C385.809,338.847,381.648,329.6,377.449,337.292Z" style="fill:#c0392b"/><path d="M259.112,219.382c32.552-27.86,37.326-50.864,37.4-61.726a2.894,2.894,0,0,0-5.028-1.958c-69.859,75.468-148.3,85.239-223.606,84.318A2.9,2.9,0,0,0,66.2,245.3C91.5,262.81,183.1,284.439,259.112,219.382Z" style="fill:#c0392b"/><path d="M71.938,227.654c60.334-4.533,125.286-21.385,175.806-54.311,31.1-20.27,40-36.1,41.83-46.082,1.027-5.615-5.539-10.326-9.965-6.722-84.123,68.51-197.4,85.856-223.947,89.083a3.991,3.991,0,0,0-3.067,5.794l1.036,2.009A18.99,18.99,0,0,0,71.938,227.654Z" style="fill:#c0392b"/></svg>