<svg width="600" height="600" viewBox="0 0 600 600" fill="none" xmlns="http://www.w3.org/2000/svg">
<path d="M443.694 94.8181C429.686 84.8251 413.254 78.8271 397.567 71.7781C389.094 68.2221 386.712 62.6531 391.254 54.8681C396.431 46.0001 407.178 28.2001 412.78 19.7681C413.067 19.3385 413.481 19.0097 413.965 18.8279C414.449 18.6462 414.977 18.6206 415.476 18.7549C415.975 18.8891 416.419 19.1764 416.746 19.5762C417.073 19.9761 417.266 20.4685 417.299 20.9841C417.839 28.1931 415.748 35.7391 416.785 42.9201C418.653 65.6251 442.657 81.3911 464.985 77.2521C497.756 70.5521 569.185 24.4061 590.131 10.5401C590.369 10.3873 590.653 10.3233 590.933 10.3595C591.214 10.3956 591.472 10.5295 591.663 10.7376C591.855 10.9457 591.966 11.2146 591.979 11.497C591.991 11.7793 591.903 12.057 591.731 12.2811C577.665 30.0131 541.59 71.3001 534.081 97.1741C526.981 121.63 523.966 145.634 532.601 170.137C541.251 191.074 569.075 190.379 587.952 189.49L589.845 194.89C534.645 235.003 552.7 254.911 535.772 309.299C535.555 310.004 535.096 310.609 534.476 311.007C533.856 311.405 533.115 311.571 532.384 311.476C531.653 311.38 530.98 311.028 530.484 310.483C529.987 309.939 529.7 309.236 529.672 308.499C530.855 259.065 512.545 192.066 474.213 153.189C424.284 94.4191 350.035 84.5161 277.78 88.0461C279.149 83.6681 283.067 82.7331 287.042 81.7901C339.133 67.9281 393.219 76.6901 441.857 98.1011C442.287 98.2892 442.772 98.3107 443.217 98.1612C443.662 98.0118 444.035 97.7021 444.264 97.2925C444.493 96.8829 444.562 96.4027 444.457 95.9453C444.351 95.4879 444.079 95.0861 443.694 94.8181Z" fill="#c0392b"/>
<path d="M180.968 511.535C231.385 551.867 252.609 527.753 205.775 586.281C205.422 586.72 204.935 587.032 204.389 587.171C203.843 587.309 203.266 587.266 202.746 587.049C202.227 586.831 201.791 586.451 201.507 585.965C201.222 585.478 201.103 584.913 201.167 584.353C212.238 538.417 168.206 494.219 39.207 576.643C34.302 579.855 29.007 582.425 23.821 585.164C23.021 585.587 21.775 585.164 20.735 585.137C21.186 583.937 189.335 453.001 68.035 405.791C62.227 403.53 51.773 403.966 45.013 403.065C44.4963 402.993 44.0147 402.763 43.6342 402.406C43.2537 402.049 42.9932 401.583 42.8884 401.072C42.7836 400.561 42.8397 400.03 43.0489 399.552C43.2582 399.075 43.6104 398.673 44.057 398.404C69.747 382.804 93.182 367.017 97.506 334.417C99.5205 320.512 102.972 306.853 107.806 293.66C108.855 290.738 112.935 291.738 112.866 294.842C101.517 437.825 207.727 527.049 320.45 535.568C321.108 535.647 321.714 535.966 322.153 536.463C322.591 536.961 322.831 537.602 322.827 538.265C322.823 538.928 322.575 539.567 322.131 540.059C321.686 540.55 321.076 540.862 320.417 540.933C281.044 547.379 220.407 528.512 183.285 508.066C182.826 507.815 182.289 507.745 181.781 507.87C181.273 507.994 180.83 508.305 180.539 508.74C180.248 509.175 180.131 509.704 180.211 510.221C180.29 510.738 180.56 511.207 180.968 511.535Z" fill="#c0392b"/>
<path d="M351.326 538.26C353.335 540.16 357.557 539.901 360.684 538.965C363.684 538.112 366.377 534.104 363.091 532.513C359.926 530.216 348.488 533.478 351.326 538.26Z" fill="#c0392b"/>
<path d="M323 198C260.145 198 209 249.128 209 312C209 374.872 260.128 426 323 426C385.872 426 437 374.872 437 312C437 249.128 385.855 198 323 198ZM323 362.642C312.984 362.642 303.193 359.672 294.865 354.107C286.537 348.543 280.046 340.633 276.213 331.38C272.38 322.126 271.377 311.944 273.331 302.12C275.285 292.297 280.108 283.273 287.191 276.191C294.273 269.108 303.297 264.285 313.12 262.331C322.944 260.377 333.126 261.38 342.38 265.213C351.633 269.046 359.543 275.537 365.107 283.865C370.672 292.193 373.642 301.984 373.642 312C373.64 325.43 368.304 338.31 358.807 347.807C349.31 357.304 336.43 362.64 323 362.642Z" fill="#c0392b"/>
<path d="M323 125C219.724 125 136 208.724 136 312C136 415.276 219.724 499 323 499C426.276 499 510 415.276 510 312C510 208.724 426.276 125 323 125ZM171.075 313.841C170.966 314.367 170.808 314.881 170.604 315.377C170.403 315.87 170.151 316.34 169.853 316.781C169.553 317.229 169.213 317.649 168.837 318.036C167.299 319.561 165.224 320.421 163.058 320.43C162.52 320.427 161.984 320.375 161.456 320.273C160.929 320.168 160.415 320.011 159.92 319.803C159.422 319.602 158.946 319.35 158.5 319.051C158.06 318.747 157.646 318.408 157.261 318.036C156.869 317.655 156.518 317.234 156.213 316.781C155.914 316.34 155.662 315.87 155.461 315.377C154.838 313.879 154.675 312.229 154.991 310.638C155.097 310.112 155.255 309.597 155.461 309.102C155.662 308.604 155.914 308.128 156.213 307.682C156.8 306.779 157.56 306.001 158.45 305.395C158.896 305.096 159.372 304.844 159.87 304.643C160.367 304.439 160.881 304.281 161.406 304.173C162.733 303.908 164.105 303.974 165.401 304.364C166.697 304.754 167.877 305.457 168.837 306.41C169.209 306.794 169.549 307.209 169.853 307.649C170.152 308.095 170.403 308.571 170.604 309.069C170.81 309.565 170.967 310.079 171.075 310.605C171.295 311.661 171.295 312.752 171.075 313.808V313.841ZM314.966 150.654C315.069 150.128 315.224 149.613 315.429 149.118C315.637 148.622 315.891 148.147 316.188 147.698C316.486 147.246 316.832 146.828 317.22 146.451C318.176 145.506 319.347 144.807 320.634 144.417C321.92 144.027 323.282 143.958 324.602 144.214C325.127 144.32 325.641 144.475 326.138 144.676C326.631 144.887 327.106 145.138 327.558 145.427C328.674 146.18 329.589 147.194 330.224 148.381C330.859 149.568 331.193 150.893 331.199 152.239C331.201 152.78 331.148 153.319 331.042 153.849C330.938 154.372 330.783 154.884 330.58 155.377C330.37 155.874 330.113 156.349 329.812 156.797C329.522 157.248 329.181 157.663 328.796 158.035C328.422 158.421 328.007 158.764 327.558 159.059C327.108 159.354 326.633 159.609 326.138 159.819C325.642 160.024 325.128 160.179 324.602 160.281C324.08 160.387 323.549 160.44 323.016 160.438C321.942 160.437 320.879 160.224 319.888 159.812C318.896 159.4 317.995 158.796 317.237 158.035C316.851 157.661 316.508 157.246 316.213 156.797C315.918 156.347 315.664 155.872 315.453 155.377C315.045 154.381 314.832 153.316 314.826 152.239C314.819 151.707 314.866 151.176 314.966 150.654ZM331.034 473.833C330.931 474.359 330.776 474.874 330.571 475.369C330.362 475.866 330.104 476.342 329.804 476.789C329.514 477.24 329.173 477.655 328.788 478.028C328.03 478.79 327.13 479.395 326.138 479.809C325.146 480.222 324.083 480.436 323.008 480.439C322.467 480.438 321.928 480.382 321.398 480.274C320.874 480.171 320.362 480.013 319.871 479.803C319.372 479.599 318.897 479.345 318.451 479.043C318 478.754 317.584 478.413 317.212 478.028C315.674 476.497 314.807 474.418 314.801 472.248C314.802 471.707 314.857 471.168 314.966 470.638C315.066 470.114 315.221 469.602 315.429 469.11C315.638 468.616 315.889 468.141 316.18 467.69C316.781 466.792 317.552 466.021 318.451 465.42C318.902 465.13 319.377 464.879 319.871 464.668C320.365 464.466 320.876 464.308 321.398 464.198C322.453 463.991 323.538 463.991 324.594 464.198C325.119 464.307 325.633 464.464 326.129 464.668C326.624 464.877 327.099 465.129 327.549 465.42C327.988 465.709 328.4 466.038 328.78 466.402C329.161 466.784 329.502 467.204 329.795 467.657C330.704 469.003 331.187 470.591 331.182 472.215C331.188 472.758 331.139 473.3 331.034 473.833ZM323 442.532C251.025 442.532 192.468 383.975 192.468 312C192.468 240.025 251.025 181.468 323 181.468C394.975 181.468 453.532 240.025 453.532 312C453.532 383.975 394.975 442.532 323 442.532ZM477.196 306.443C477.955 305.682 478.859 305.081 479.854 304.676C480.35 304.47 480.864 304.312 481.39 304.206C482.446 303.983 483.538 303.983 484.594 304.206C485.12 304.312 485.634 304.47 486.13 304.676C486.625 304.877 487.098 305.129 487.542 305.428C487.989 305.724 488.407 306.064 488.788 306.443C489.165 306.823 489.505 307.238 489.804 307.682C490.099 308.13 490.351 308.605 490.555 309.102C490.762 309.597 490.917 310.111 491.018 310.638C491.332 312.229 491.171 313.877 490.555 315.377C490.351 315.868 490.099 316.338 489.804 316.781C489.509 317.233 489.169 317.653 488.788 318.036C488.403 318.41 487.986 318.749 487.542 319.051C486.646 319.644 485.646 320.059 484.594 320.273C483.536 320.482 482.448 320.482 481.39 320.273C480.863 320.171 480.348 320.013 479.854 319.803C479.356 319.602 478.881 319.35 478.434 319.051C477.991 318.751 477.577 318.411 477.196 318.036C476.815 317.653 476.475 317.233 476.18 316.781C475.882 316.34 475.63 315.87 475.429 315.377C475.014 314.383 474.798 313.317 474.793 312.239C474.8 310.066 475.663 307.984 477.196 306.443Z" fill="#c0392b"/>
</svg>
