<?xml version="1.0" ?><svg fill="#c0392b" data-name="Layer 4" id="Layer_4" viewBox="0 0 600 600" xmlns="http://www.w3.org/2000/svg"><title/><path d="M111.933,156.2a4.092,4.092,0,0,1,2.132-6.764c17.694-3.9,31.944-6.665,49.315-11.2,0,0,12.141-2.474,6.21-15.837-9.049-20.388-33.565-19.537-53.131-17.893-2.7.227-9.956,1.881-10.65-2.641-.579-3.779,2.931-4,5.652-4.6,11.213-2.487,22.439-4.921,33.647-7.428,10.432-2.333,15.5-8.35,14.893-19.172-1.016-17.944-3.356-35.814-4-53.779-.442-12.3,5.262-16.314,8.4-.336,1.634,8.322,8.608,43.338,12.732,53.8,3.4,8.631,11.543,12.1,23.341,9.669,27.676-5.7,44.392-9,45.494-3.861.855,3.993-10.16,5.945-20.284,7.885-61.568,11.794-32.373,116.486-23.866,114.216,16.869-4.5,32.825-11.935,49.088-18.286,31.226-12.027,55.2-35.773,78.334-59.081,2.125-2.085,3.843-2.226,5.853.045,31,32.562,65.041,61.984,108.8,74.886,3.841,1.108,4.967,2.585,3.543,6.518-5.384,14.872-8.458,30.959-17.046,44.467-5.12,8.054-11.787,11.82-20.828,10.544-13.146-1.857-26.384-3.528-39.278-6.726-14.1-3.5-14.754,6.261-5.59,8.539,11.35,2.821,22.618,5.238,33.293,10.172,16.264,7.517,24.39,20.006,24.021,37.845-.312,15.109-6.824,54.619-13.292,99.891-.317,2.222,2.069,5.114,3.888,5.332,13.526,1.623,32.726-101.78,36.768-108.422,3.953-6.5,9.715-11.222,17.922-12.113,18.216-1.977,36.481-2.119,53.928,3.731,6.764,2.267,10.394-1.427,10.258-5.377-.21-6.088-5.868-6.122-13.8-9.109a5.221,5.221,0,0,1-3.128-5.158c1.927-17.84,3.629-35.707,5.775-53.52,1.773-8.95,28.368-31.047,44-44.1a4.807,4.807,0,0,1,7.884,3.732c-.569,63.56-8.2,120.387-18.88,183.665-4.406,29.7-10.321,52.786-27.492,77.86-38.115,64.5-99.877,110.516-168.59,138.514a10.171,10.171,0,0,1-14.042-9.47L343.483,537c-.032-5.654,3.029-8.708,8.12-10.229,95.486-27.078,148.626-93.108,157.926-214.111a5.584,5.584,0,0,0-2.83-5.568,3.9,3.9,0,0,0-.957-.334,4.988,4.988,0,0,0-5.757,3.971C482.956,390.653,463.944,450.592,389.766,492.5c-51.232,28.946-83.389,18.508-128.874-18.049C189.876,417.377,165.229,312.368,157.705,221.4c-.687-8.313.619-9.083,8.543-11.785,7.086-2.416,11.164-4.315,18.376-6.281,5.954-1.623,4.089-12.66-3.246-11.191-12.253,2.454-23.97,9.3-34.72.917C134.73,181.261,123.492,168.765,111.933,156.2Z" style="fill:#c0392b"/><path d="M186.97,421.052a6.6,6.6,0,0,1-2.206,8.253c-9.984,6.918-57.448,29.142-57.033,54.193.591,35.615,11.917,69.4,21.7,103.15,3.012,7.565-6.662,10.607-8.3,2.47-9.425-35.443-17.687-70.132-39.04-100.8-11.4-16.378-56.707-11.412-69.737-7a2.621,2.621,0,0,1-1.076.106,3.923,3.923,0,0,1-2.391-6.611c1.693-1.68,4.233-2.3,7.327-3.376,12.812-4.528,26.614-6.636,38.506-13.422C99.9,445.546,75.908,369.1,70.676,346.764c-.921-2.656-1.51-6.808,1.381-8.195a4.038,4.038,0,0,1,3.467,1.8C85.639,371.212,93.288,403.2,110.84,430.81c4.368,6.869,8.932,9.612,12.983,10.31a7.94,7.94,0,0,0,8.337-11.551c-8.963-16.7-50.124-120.242-41.455-258.856a4.1,4.1,0,0,1,7.016-2.6c7.077,7.249,18.217,18.2,23.383,23.934,10.247,11.113,21.377,22,22.459,38.157C149.827,296.159,158.443,360.95,186.97,421.052Z" style="fill:#c0392b"/><path d="M343.314,54.333a3.41,3.41,0,0,1,5.573-2.532c25.132,20.547,55.412,40.024,82.292,57.047,25.641,16.239,54.153,26.177,83.635,33.143,13.689,3.979,28.526,4.676,41.793,9.816a3.821,3.821,0,0,1,1.319,6.227c-11.466,11.733-23.982,22.469-36.03,33.6-6.359,5.663-13.772,8.123-22.465,5.291-7.733-2.518-15.647-4.481-23.458-6.766-2.405-.7-3.494-.049-3.245,2.512-.565,12.853-.6,13.652,11.973,17.216,5.569,1.662,11.042,3.682,16.472,5.764,4.24,1.627,6.656,4.513,6.408,9.512-.79,15.918-1.427,31.844-2.034,47.771a3.693,3.693,0,0,1-4.637,3.436c-7.718-2.048-23.349-6.175-29.73-7.706-9.473-2.271-13.342-8.541-12.863-16.473A600.184,600.184,0,0,1,469.91,158.75c.075-2.94,1.563-7.564-2.641-8.028-4.963-.548-9.242,18.811-13.054,28.8-1.47,3.853-2.172,5.159-6.321,3.768-19.444-6.516-35.787-14.792-51.808-27.361-16.328-12.809-33.369-25.3-46.9-41.073C342.481,107.036,342.846,69.947,343.314,54.333Z" style="fill:#c0392b"/><path d="M322.316,577.617a8.033,8.033,0,0,1-10.249,7.452c-61.546-17.985-109.659-59.361-148.87-110.62-2.083-2.425-1.519-4.137.818-5.739,12.978-8.895,32.967-20.075,32.967-20.075,5.909-2.939,9.321,1.017,10.263,2.348C228.7,481.264,256.7,500.61,289.4,517.533c7.742,4.006,16.418,6.328,24.831,8.877,5.838,1.769,9,4.867,9.475,11.144Z" style="fill:#c0392b"/><path d="M317.64,111.815c-26.373,28.767-51.278,49.015-86.606,63.523a14.317,14.317,0,0,1-18.334-6.815,47.564,47.564,0,0,1-3.5-31.369,30.262,30.262,0,0,1,17.161-20.393c70.873-31.96,77.521-54.082,91.762-66.511a4.147,4.147,0,0,1,6.858,2.876C325.924,67.943,327.021,102.477,317.64,111.815Z" style="fill:#c0392b"/></svg>