<?xml version="1.0" ?><svg fill="#c0392b" data-name="Layer 4" id="Layer_4" viewBox="0 0 600 600" xmlns="http://www.w3.org/2000/svg"><title/><path d="M199.044,128.887c2.133,4.783,7.66,6.543,12.515,4.58C274.566,108,357.394,131.588,392.782,169.1c5.852,7.126,15.967,2.516,16.926-5.708,9.5-44.227,20-88.264,27.739-132.845.244-6.426-3.708-6.468-7.919-3.676-6.751,8.965-11.688,19.905-19.016,28.52-9.719,11.762-20.781,21.821-36.653,25.148-66.382,13.912-87.427-32.683-93.3-52.613a3.377,3.377,0,0,0-6.219-.655c-5.269,9.851-14.384,26.33-20.589,34.471-32.774,43-61.38,5.414-79.44-12.661a2.267,2.267,0,0,0-3.679,2.522Z" style="fill:#c0392b"/><path d="M129,205.762a13.244,13.244,0,0,0-1.653-19.38l-99.63-77.721c-2.288-1.687-5.311-5.31-8.107-1.683-2.579,3.346,1.139,5.823,3.39,7.755,14.205,12.193,62.628,52.782,48.371,95.13C62.2,237.122,32.243,246.587,4.9,253.024c-1.455.705-3.313,2.32-3.391,3.621-.073,1.236,1.6,3.284,3.083,3.8,53.239,18.447,44.587,71.707,42.879,78.97-3.348,14.241-14.54,30.171-41.217,37.844C.1,379.028,2.5,384.8,9.619,383.688c33.751-5.282,54.261-5.856,81.249-9.849,4.848-.747,6.754-3.939,4.781-7.713C58.343,294.771,106.727,230.065,129,205.762Z" style="fill:#c0392b"/><path d="M204.461,370.575c15.82-36.29,35.685-56.763,63.392-84.321,2.915-3.038,5.424-6.1,1.854-11.163-2.76-3.914-9.723-12.478-14.263-18a6.164,6.164,0,0,0-9.018-.548c-33.733,32.268-61.075,71.521-61.075,71.521-7.458,11.395-32.281-1.212-43.064-7.455-2.1-1.216-4.291,1.66-2.469,3.263l.047.041c19.134,16.262,38.521,32.228,57.677,48.464C201.287,375.552,202.576,374.675,204.461,370.575Z" style="fill:#c0392b"/><path d="M433.122,181.85c6.885,5.469,58.551-114.9,79.349-160.732,2.96-10.551-8.648-12.96-11.772-3.889C477,69.612,426.238,176.38,433.122,181.85Z" style="fill:#c0392b"/><path d="M72.05,58.083c43.708,53.81,126.83,143.9,133.04,137.134S78.787,55.754,75.257,52.235a1.931,1.931,0,0,0-.534-.366,3.01,3.01,0,0,0-4.18,2.69A3.737,3.737,0,0,0,72.05,58.083Z" style="fill:#c0392b"/><path d="M113.037,391.274c-34.647,4.066-85.256,18.6-102.4,23.717a1.667,1.667,0,0,0,.228,3.245,18.081,18.081,0,0,0,7.375-.161c19.422-4.475,70.73-17.869,95.267-24.311A1.27,1.27,0,0,0,113.037,391.274Z" style="fill:#c0392b"/><path d="M587.54,308.266c2.519,2,7.491,1.846,6.849-1.861.023-4.031-9.581-11.649-11.881-6.4C582.128,302.826,584.878,306.209,587.54,308.266Z" style="fill:#c0392b"/><path d="M251.722,180.442c-1.187,2.588.457,6.626,2.405,9.369,1.825,2.65,6.627,3.951,7.094.217C262.417,186.179,255.452,176.091,251.722,180.442Z" style="fill:#c0392b"/><path d="M59.4,36.982c.517-4-8.079-12.737-11.006-7.809-.724,2.753,1.59,6.448,3.98,8.815C54.629,40.285,59.583,40.74,59.4,36.982Z" style="fill:#c0392b"/><path d="M405.189,523.747a3.046,3.046,0,0,0,.685-4.41c-4.06-5.142-13.116-16.646-16.83-21.618a6.588,6.588,0,0,0-9.232-1.32c-17.62,13.2-36.579,28.284-36.579,28.284-12.336,11.114-63.3,14.975-125.45-22.061a25.243,25.243,0,0,1-11.732-14.866c-16.086-52.138-9.479-97.194-9.479-97.194a6.459,6.459,0,0,0-1.971-5.171,159.089,159.089,0,0,0-25.121-15.618c-4.217-1.908-7.2-2.252-8.295.72-2.124,5.769-4.223,11.575-5.925,17.466-20.691,71.629,5.093,171.225,7.244,179.954a2.986,2.986,0,0,0,5.836-.186c1.327-7.242,2.712-16.1,3.559-20.77,1.319-7.284,3.178-14.47,4.942-21.674a2.118,2.118,0,0,1,4.115.01l4.281,16.151a18.978,18.978,0,0,0,10.412,12.339c33.078,15.3,68.913,23.634,105.192,27.408,19.225,1.781,34.341-8.645,49.763-19.966C364.07,551.339,389.393,534.474,405.189,523.747Z" style="fill:#c0392b"/><path d="M453.109,491.44c18.021-20.351,58.589-33.974,89.03-46.867,3.4-1.439,4.1-3.234,2.147-6.5-14.655-26.325-25.9-51.8-34.741-80.929-12.07-38.749-16.235-77.468-1.9-116.568,1.2-3.284-.275-4.256-3.3-4.082-60.386,5.7-123.438-.972-176.223-32.61-7.2-3.9-12.764-3.8-18.929,1.281-6.031,4.975-12.371,9.584-18.7,14.185-8.781,6.905-10.713.028-17.054-5.245a7.759,7.759,0,0,0-1.481-.512,3.917,3.917,0,0,0-4.74,4.81,3.829,3.829,0,0,0,.173.466c2.8,6.214,5.97,12.267,9.139,18.308,18.041,34.87,62.83,101.053,57.471,105.34s-37.475-39.228-37.475-39.228a13.622,13.622,0,0,0-18.89-2.238,11.246,11.246,0,0,0-1.217,1.085S239.4,336.907,218.62,377.27c-2.661,5.169-1.683,9.459,2.661,13.119,12.993,10.949,41.185,30.1,37.058,34.691-3.792,4.215-26.171-14.175-41.1-24.331a2.492,2.492,0,0,0-3.887,1.977c-.44,13.157-1.983,41.694,10.467,80.66a14.5,14.5,0,0,0,6.168,7.259c33.073,18.942,89.287,25.842,101.181,18.367,41.553-30.344,83.128-54.95,126.652-82.384,4.465-2.838,5.528-6.062,3.9-10.421-16.968-45.364-20.805-86.538-16.471-118.428.4-3-.53-4.1-3.661-4.858-39.492-9.531-71.759-16.9-108.065-29-2.434-.811-6.526.643-10.324,2.184a5.985,5.985,0,0,1-7.414-2.492l-4.817-8.662a5.97,5.97,0,0,1,3.159-8.683c6.009-2.062,13.1-2.525,17.75-1.1,54.834,16.793,108.989,27.7,127.368,31.194a9.388,9.388,0,0,1,7.636,9.629c-.2,4.373-.714,10.6-.862,19.528-3.343,41.781,9.254,81.652,20.235,121.446.743,2.736.713,4.039-1.962,5.5-25.926,13.812-51.568,28.466-76.293,44.513a5.343,5.343,0,0,0-.838,8.268l78.775,78.259a6.517,6.517,0,0,0,2.782,1.67,1.988,1.988,0,0,0,2.511-2.574C490.308,560.17,445.885,499.6,453.109,491.44Z" style="fill:#c0392b"/><path d="M595.545,443.5c-5.283-6.84-10.948-13.385-16.449-20.057-27.151-36.184-40.35-82.449-42.884-127.284q0-3.249,0-6.5c-1.35-22.435,19.049-2.926,28.579,1.15,1.393.724,4.231.613,5.192-.339,2.208-3.317-1.109-7.961-3.976-10.108-12.613-11.135-25.342-22.12-35.291-35.906-2.423-3.356-5.931-2.639-7.081,1.27C499.524,313.118,532.979,379.859,568,436.614c8.611,12.933-9.247,16.719-17.507,22.144-24.478,13.334-50.54,27.726-74.165,41.3a4.748,4.748,0,0,0-1.814,6.363l4.227,7.892a2.982,2.982,0,0,0,4.636.8c17.727-16.062,53.889-32.706,69.837-41.308,12.562-6.776,26.022-11.887,39.081-17.74C599.322,452.911,600.325,449.683,595.545,443.5Z" style="fill:#c0392b"/><path d="M423.952,541.158a5.952,5.952,0,0,0-7.893-1.272l-70.692,42.957a3.046,3.046,0,0,0,3.057,5.231l80.7-34.271A3.051,3.051,0,0,0,430.3,549.1Z" style="fill:#c0392b"/></svg>