<svg width="600" height="600" viewBox="0 0 600 600" fill="none" xmlns="http://www.w3.org/2000/svg">
<path d="M328.085 3.48717C328.663 3.49802 329.226 3.67048 329.711 3.98509C330.195 4.29971 330.582 4.74387 330.827 5.26714C331.072 5.79041 331.166 6.37187 331.097 6.9456C331.029 7.51934 330.801 8.06241 330.439 8.51317C259.929 109.836 39.5922 363.889 7.88416 400.401C7.54371 400.79 7.09275 401.066 6.59145 401.192C6.09015 401.318 5.56235 401.288 5.07849 401.106C4.59462 400.924 4.1777 400.599 3.88337 400.174C3.58903 399.75 3.43128 399.245 3.43116 398.728L3.43115 339.244C3.42878 334.83 4.66571 330.503 7.00115 326.757C72.8461 221.269 140.821 116.834 208.581 12.4911C210.376 9.72791 212.833 7.45718 215.729 5.88537C218.625 4.31356 221.868 3.49053 225.163 3.49114L273.236 3.49114C273.956 3.49126 274.661 3.68779 275.277 4.0595C275.893 4.4312 276.396 4.96395 276.732 5.60039C277.067 6.23683 277.222 6.95277 277.181 7.67101C277.139 8.38925 276.903 9.08255 276.496 9.67614L137.401 212.765C137.135 213.157 137.031 213.636 137.111 214.102C137.191 214.569 137.448 214.986 137.829 215.267C138.21 215.548 138.685 215.67 139.154 215.608C139.623 215.546 140.05 215.305 140.345 214.935C140.345 214.935 231.901 120.969 312.688 9.52117C314.185 7.58852 316.115 6.03524 318.323 4.98699C320.531 3.93873 322.955 3.42494 325.398 3.48717L328.085 3.48717Z" fill="#c0392b"/>
<path d="M3.43115 194.689L3.43115 10.3193C3.43114 9.42456 3.60772 8.53859 3.95077 7.7122C4.29381 6.88582 4.79657 6.1353 5.43024 5.50359C6.0639 4.87187 6.81601 4.37142 7.64345 4.03093C8.47089 3.69043 9.35739 3.51657 10.2521 3.51933C40.9051 3.62733 74.2521 3.50733 104.831 3.49333C105.424 3.49199 106.008 3.64197 106.527 3.92912C107.046 4.21626 107.484 4.63107 107.798 5.13432C108.112 5.63757 108.293 6.2126 108.323 6.80509C108.353 7.39759 108.231 7.98793 107.969 8.5203C77.8221 69.7603 24.3512 166.766 8.18815 195.924C7.91508 196.416 7.48629 196.803 6.96918 197.025C6.45207 197.247 5.87596 197.29 5.33139 197.149C4.78681 197.008 4.30466 196.689 3.96069 196.244C3.61673 195.799 3.43046 195.252 3.43115 194.689Z" fill="#c0392b"/>
<path d="M7.86716 242.195L143.546 9.22521C144.415 7.50178 145.745 6.05305 147.388 5.04009C149.031 4.02713 150.923 3.48964 152.853 3.48724L157.138 3.48724C157.593 3.48747 158.041 3.60339 158.439 3.82415C158.837 4.04491 159.173 4.36324 159.414 4.74926C159.656 5.13528 159.795 5.57632 159.819 6.03094C159.843 6.48555 159.751 6.93881 159.552 7.3482C159.552 7.3482 60.8262 185.024 8.08816 265.654C7.79033 266.113 7.35223 266.462 6.83927 266.651C6.32631 266.84 5.76603 266.858 5.24209 266.702C4.71815 266.546 4.25868 266.225 3.93229 265.787C3.6059 265.348 3.4301 264.816 3.43116 264.269L3.43116 256.748C3.43057 251.564 4.97496 246.498 7.86716 242.195Z" fill="#c0392b"/>
<path d="M449.955 413.154C496.735 382.489 543.99 346.722 591.59 317.272C592.085 316.968 592.651 316.803 593.231 316.792C593.81 316.781 594.382 316.925 594.888 317.21C595.393 317.494 595.813 317.909 596.104 318.41C596.395 318.912 596.547 319.482 596.543 320.062L596.215 388.072C596.193 393.003 594.904 397.845 592.472 402.135C590.041 406.425 586.548 410.019 582.329 412.572C484.47 471.802 384.16 533.324 287.89 594.489C285.785 595.745 283.382 596.417 280.93 596.435C254.105 596.235 227.281 595.869 200.457 595.5C195.732 595.434 194.21 592.861 196.667 588.837C323.409 487.445 462.649 366.802 590.89 266.41C591.37 266.034 591.946 265.802 592.552 265.738C593.157 265.675 593.769 265.783 594.316 266.05C594.863 266.318 595.324 266.733 595.646 267.25C595.968 267.767 596.139 268.364 596.137 268.974L596.137 278.302C596.138 280.232 595.696 282.138 594.846 283.871C593.995 285.605 592.759 287.12 591.231 288.302C570.645 304.222 486.062 371.865 448.076 410.533C446.628 412.009 448.226 414.287 449.955 413.154Z" fill="#c0392b"/>
<path d="M590.711 462.255C591.244 461.933 591.852 461.759 592.474 461.75C593.096 461.74 593.709 461.896 594.251 462.201C594.793 462.506 595.245 462.949 595.559 463.486C595.874 464.022 596.041 464.633 596.043 465.255C596.057 481.355 595.781 497.379 596.13 513.477C596.251 517.798 594.758 519.95 590.95 521.844C542.832 545.868 494.679 569.83 446.95 594.627C445.247 595.637 443.339 596.254 441.367 596.433C420.667 596.533 399.967 596.521 379.167 596.514C378.474 596.513 377.8 596.286 377.248 595.866C376.696 595.447 376.297 594.858 376.112 594.19C375.926 593.522 375.964 592.812 376.22 592.168C376.477 591.524 376.936 590.982 377.53 590.624L590.711 462.255Z" fill="#c0392b"/>
<path d="M507.668 591.655C535.813 577.755 564.014 563.967 592.108 549.965C595.108 548.465 595.634 548.744 596.159 552.238C597.845 563.472 594.529 570.358 583.074 574.786C568.701 580.341 555.221 588.193 541.34 595.025C540.216 595.73 538.955 596.189 537.64 596.371C528.023 596.447 518.406 596.443 508.789 596.436C508.22 596.436 507.668 596.244 507.223 595.89C506.777 595.537 506.464 595.043 506.334 594.49C506.204 593.936 506.265 593.355 506.507 592.84C506.75 592.325 507.159 591.908 507.668 591.655Z" fill="#c0392b"/>
<path d="M280.612 227.89C227.451 276.918 205.161 339.545 230.942 367.5C256.724 395.454 320.932 378.306 374.107 329.265C427.281 280.224 449.558 217.61 423.776 189.656C397.995 161.701 333.772 178.862 280.612 227.89ZM348.126 301.095C339.655 308.907 330.156 315.224 320.83 319.246C311.505 323.268 302.772 324.814 295.735 323.689C288.699 322.565 283.675 318.819 281.3 312.927C278.924 307.035 279.303 299.261 282.389 290.588C285.475 281.914 291.129 272.731 298.636 264.2C306.143 255.668 315.166 248.172 324.564 242.658C333.962 237.144 343.313 233.861 351.435 233.224C359.556 232.586 366.083 234.623 370.19 239.076C375.696 245.049 376.464 254.938 372.326 266.568C368.189 278.199 359.484 290.618 348.126 301.095Z" fill="#c0392b"/>
<path d="M250.124 194.832C162.795 275.372 126.58 378.159 169.235 424.41C211.891 470.66 317.266 442.862 404.594 362.322C491.923 281.782 528.138 178.996 485.483 132.745C442.827 86.4944 337.452 114.292 250.124 194.832ZM199.654 397.881C199.779 398.201 199.858 398.554 199.891 398.936C199.924 399.313 199.906 399.72 199.835 400.15C199.767 400.585 199.653 401.038 199.495 401.504C198.824 403.387 197.424 405.391 195.596 407.084C195.141 407.502 194.666 407.897 194.177 408.263C193.689 408.626 193.188 408.957 192.684 409.25C192.18 409.548 191.674 409.807 191.173 410.021C190.675 410.228 190.185 410.399 189.706 410.532C189.217 410.667 188.746 410.753 188.301 410.788C187.867 410.823 187.46 410.809 187.086 410.745C185.941 410.56 185.121 409.949 184.731 408.99C184.604 408.671 184.524 408.318 184.494 407.935C184.458 407.555 184.475 407.146 184.543 406.713C184.667 405.851 184.989 404.909 185.491 403.944C185.744 403.462 186.043 402.978 186.381 402.5C186.716 402.021 187.086 401.55 187.485 401.091C188.498 399.938 189.685 398.897 190.942 398.061C192.199 397.226 193.487 396.62 194.693 396.298C195.166 396.18 195.625 396.101 196.063 396.061C196.5 396.028 196.91 396.044 197.285 396.111C197.664 396.173 198.009 396.28 198.318 396.431C198.94 396.733 199.391 397.221 199.641 397.866L199.654 397.881ZM253.926 212.586C253.796 212.271 253.714 211.919 253.683 211.538C253.654 211.153 253.673 210.742 253.739 210.309C253.804 209.875 253.924 209.418 254.096 208.946C254.514 207.778 255.216 206.551 256.143 205.373C257.069 204.196 258.192 203.102 259.414 202.188C259.902 201.826 260.401 201.494 260.903 201.197C261.408 200.907 261.913 200.649 262.415 200.426C263.669 199.892 264.862 199.633 265.889 199.67C266.916 199.706 267.746 200.038 268.307 200.637C268.532 200.878 268.71 201.16 268.839 201.48C268.968 201.795 269.048 202.145 269.079 202.525C269.107 202.911 269.086 203.325 269.017 203.76C268.958 204.187 268.841 204.639 268.669 205.106C268.512 205.571 268.303 206.049 268.045 206.531C267.787 207.014 267.49 207.498 267.158 207.979C266.824 208.457 266.453 208.927 266.05 209.383C265.653 209.838 265.225 210.275 264.775 210.69C263.866 211.527 262.879 212.261 261.87 212.85C260.861 213.438 259.85 213.87 258.895 214.121C258.414 214.254 257.953 214.336 257.518 214.365C257.082 214.394 256.671 214.379 256.289 214.321C255.532 214.194 254.912 213.883 254.462 213.406C254.237 213.172 254.058 212.898 253.926 212.586ZM400.993 344.787C401.124 345.102 401.205 345.453 401.236 345.835C401.264 346.221 401.243 346.635 401.174 347.07C401.115 347.497 400.998 347.949 400.826 348.416C400.501 349.348 399.989 350.322 399.321 351.28C398.654 352.239 397.843 353.164 396.935 354.003C396.477 354.425 395.998 354.821 395.505 355.185C395.02 355.548 394.521 355.877 394.019 356.166C393.514 356.463 393.006 356.72 392.505 356.933C392.004 357.155 391.512 357.326 391.038 357.444C389.105 357.957 387.514 357.703 386.612 356.736C386.39 356.493 386.214 356.208 386.087 355.886C385.955 355.573 385.874 355.223 385.847 354.841C385.819 354.457 385.836 354.048 385.896 353.619C386.033 352.748 386.367 351.801 386.878 350.832C387.14 350.35 387.438 349.867 387.768 349.388C388.102 348.912 388.47 348.443 388.866 347.986C389.673 347.07 390.59 346.224 391.568 345.494C392.057 345.133 392.557 344.803 393.061 344.507C393.565 344.215 394.07 343.957 394.572 343.736C395.063 343.523 395.547 343.35 396.018 343.217C396.498 343.09 396.96 343.013 397.395 342.987C398.719 342.881 399.783 343.215 400.45 343.946C400.68 344.185 400.862 344.466 400.993 344.787ZM381.272 337.034C320.411 393.163 246.711 412.605 216.984 380.373C187.257 348.14 212.586 276.25 273.446 220.121C334.307 163.991 408.007 144.549 437.734 176.782C467.461 209.015 442.132 280.904 381.272 337.034ZM455.449 155.839C455.776 154.906 456.293 153.932 456.967 152.974C457.301 152.495 457.671 152.024 458.072 151.566C458.873 150.642 459.795 149.791 460.781 149.067C461.269 148.705 461.769 148.374 462.274 148.081C462.775 147.784 463.28 147.528 463.778 147.316C464.279 147.099 464.773 146.926 465.251 146.798C465.727 146.675 466.186 146.595 466.622 146.561C467.057 146.531 467.466 146.548 467.844 146.611C468.223 146.672 468.566 146.781 468.869 146.938C469.792 147.405 470.337 148.269 470.435 149.421C470.466 149.801 470.447 150.207 470.38 150.636C470.318 151.068 470.204 151.522 470.039 151.99C469.868 152.458 469.656 152.936 469.405 153.417C468.893 154.381 468.218 155.347 467.417 156.263C466.609 157.182 465.689 158.03 464.708 158.761C464.22 159.126 463.72 159.457 463.215 159.748C462.711 160.047 462.204 160.305 461.704 160.519C461.205 160.731 460.714 160.902 460.237 161.03C459.757 161.156 459.296 161.233 458.86 161.26C458.426 161.296 458.018 161.282 457.645 161.218C456.884 161.096 456.261 160.787 455.811 160.308C454.92 159.33 454.79 157.724 455.449 155.839Z" fill="#c0392b"/>
</svg>
