<?xml version="1.0" ?><svg fill="#c0392b" data-name="1" id="_1" viewBox="0 0 600 600" xmlns="http://www.w3.org/2000/svg"><title/><path d="M318.743,304.961a2.847,2.847,0,0,0,3.834.192c12.667-10.567,22.125-22.414,27.641-35.835a9.476,9.476,0,0,0-2.151-10.285c-97.032-96.68-212.884-236.14-225.921-251.9a4.04,4.04,0,0,0-3.121-1.466h-2.714a1.1,1.1,0,0,0-.835,1.817c4.377,5.091,27.229,34.681,39.036,50.011a1.419,1.419,0,0,1-2.04,1.95c-9.6-8.171-26.183-23.667-46.969-48.595A16.353,16.353,0,0,0,94.475,5.666H24.952a1.1,1.1,0,0,0-.782,1.873C48.022,31.636,294.388,280.522,318.743,304.961Z" style="fill:#c0392b"/><path d="M251.376,339.894a9.491,9.491,0,0,0,9.351,2.147,148.478,148.478,0,0,0,39.988-19.876,2.878,2.878,0,0,0,.394-4.375L8.991,22.649a1.1,1.1,0,0,0-1.883.774V96.857a14.7,14.7,0,0,0,4.446,10.535C42.182,137.215,221.587,311.861,251.376,339.894Z" style="fill:#c0392b"/><path d="M199.8,373.989a3.035,3.035,0,0,0-2.517,4l8.564,25.554a4.206,4.206,0,0,0,5.845,2.508c52.177-28.192,113.74-35.208,113.74-35.208a60.181,60.181,0,0,0,15.43-4.482l43.764-19.418a5.92,5.92,0,0,0,3.526-5.366c.328-43.071,22.866-95.016,29.892-110.178a4.287,4.287,0,0,0-2.54-5.875l-19.214-6.361a3.084,3.084,0,0,0-3.895,2.12C350.907,355.843,221.53,371.47,199.8,373.989Z" style="fill:#c0392b"/><path d="M492.423,551.461c6.8,21.105,21.776,39.156,47.345,42.621,32.892,3.151,54.25-23.85,53.078-51.8-.489-32.154-26.3-55.526-56.988-51.794a19.915,19.915,0,0,0-13.306,7.668l-26.888,34.85A20.123,20.123,0,0,0,492.423,551.461Zm52.954-32.682c32.563,1.134,29.894,48.3-3.246,46.842C509.5,563.042,515.028,519.9,545.377,518.779Z" style="fill:#c0392b"/><path d="M439.109,482.009,470.5,517.5a3.432,3.432,0,0,0,5.279-.164l27.724-35.571a4.966,4.966,0,0,0-.317-6.475l-15.8-16.626a4.966,4.966,0,0,0-5.674-1.092l-41.466,19.046A3.433,3.433,0,0,0,439.109,482.009Z" style="fill:#c0392b"/><path d="M403.3,444.908l15.558,16.411a4.966,4.966,0,0,0,5.594,1.134L468.512,443.2a3.433,3.433,0,0,0,1-5.629L433.274,402.98a3.434,3.434,0,0,0-5.158.48L402.87,438.591A4.968,4.968,0,0,0,403.3,444.908Z" style="fill:#c0392b"/><path d="M389.554,424.13l24.088-34.94a4.966,4.966,0,0,0-.272-6l-14.934-17.94a4.968,4.968,0,0,0-5.988-1.291L352.841,383.2a3.433,3.433,0,0,0-1.049,5.388l32.386,35.894A3.434,3.434,0,0,0,389.554,424.13Z" style="fill:#c0392b"/></svg>