<?xml version="1.0" ?><svg fill="#c0392b" data-name="1" id="_1" viewBox="0 0 600 600" xmlns="http://www.w3.org/2000/svg"><title/><path d="M291.867,4.978C254.453,4.666,103.024,4.908,44.913,172.2c-7.09,24.481-24.2,23.3-32.424-1.617a1.729,1.729,0,0,0-3.351.241C5.635,191.879.212,235.884,27.98,299.389c11.768,26.915,33.828,48.269,45.434,58.247a2.245,2.245,0,0,0,3.522-2.594c-14.849-34.469-59.43-163.823,58.3-258.819,29.614-23.894,71.772-42.781,109.934-48.794,194-30.57,234.555,143.663,238.679,195.724,9.223,116.414-28.516,195.539-44.212,222.858a16.018,16.018,0,0,0,2.805,19.541l41.172,39.5a4.975,4.975,0,0,0,6.887,0l22.632-21.716a4.965,4.965,0,0,0,.363-6.79c-8.324-9.849-30.245-38.827-24.053-64.357C519.1,309.928,507.553,225.3,500.464,192.207a1.384,1.384,0,0,1,2.656-.76c9.27,25.848,22.9,87.68,2.969,201.046a2,2,0,0,0,3.905.862c3.062-11.671,5.784-23.289,7.127-32C554,122.09,441.187,6.222,291.867,4.978Z" style="fill:#c0392b"/><path d="M298.2,95.047C437.9,106.5,460.453,281.2,460.139,335.538a1.376,1.376,0,0,0,2.733.238c12.8-75.484,6.96-253.147-159.5-273.65C218.546,51.677,64.42,112.682,72.1,262.349a1.323,1.323,0,0,0,2.619.191C82.279,202.178,134.791,81.647,298.2,95.047Z" style="fill:#c0392b"/><path d="M576.252,552.37a4.084,4.084,0,0,0-2.963-.52l-50.525,10.419a1.58,1.58,0,0,0-.644,2.8l39.853,26.068a18.872,18.872,0,0,0,11.5,3.91h18.263a2.024,2.024,0,0,0,2.024-2.024V573.68a18.864,18.864,0,0,0-8.989-16.074Z" style="fill:#c0392b"/><path d="M501.782,543.344l4.506,4.36a3.387,3.387,0,0,0,2.965.9l46.453-8.519a1.961,1.961,0,0,0,.922-3.417l-25.255-21.652a3.385,3.385,0,0,0-4.569.148l-25.031,24.454A2.6,2.6,0,0,0,501.782,543.344Z" style="fill:#c0392b"/><path d="M502.732,408.784a2.994,2.994,0,1,0,5.923-.24C508.535,403.161,502.647,403.411,502.732,408.784Z" style="fill:#c0392b"/></svg>