<?xml version="1.0" ?><svg fill="#c0392b" data-name="Layer 5" id="Layer_5" viewBox="0 0 600 600" xmlns="http://www.w3.org/2000/svg"><title/><path d="M462,257.7c9,4.713,23.561,13.127,32.936,18.922a5.094,5.094,0,0,0,7.75-3.92l2.059-24.893a13.331,13.331,0,0,1,11.4-12.087C619.594,220.79,615.517,7.544,473,6.151c-106.627-1.043-124.7,64.356-127.314,95.124A18.825,18.825,0,0,1,328.7,118.467l-15.3,1.428a4.512,4.512,0,0,0-3.481,6.763c5.287,9.079,15.292,26.206,21.707,36.855a4.535,4.535,0,0,0,7.347.615c8.343-10,23.864-16.976,22.245-4.92-8.148,18.878-22.545,35.615-41.031,55a4.278,4.278,0,0,0,.553,6.395l12.655,9.329a4.273,4.273,0,0,0,5.931-.838c11.035-14.394,30.061-48,42.281-40.63,13.465,8.124-18.36,39.323-28.763,50.685a4.056,4.056,0,0,0,.541,5.968l15.82,12.045a4.056,4.056,0,0,0,6-1.242c7.128-12.719,29.693-49.808,43.643-36.6,10.953,10.373-16.959,32.676-29.04,45.063a4.725,4.725,0,0,0,.8,7.256l10.462,6.849a4.732,4.732,0,0,0,6.139-.833c20.761-23.538,30.318-31.656,50.409-41.268,9.195-.432,6.483,8.022,2.522,14.054A5.057,5.057,0,0,0,462,257.7ZM445.2,153.858l-14.807,27.4a6.61,6.61,0,0,1-10.112,1.881l-8.311-7.107a6.61,6.61,0,0,1-.565-9.5c6.351-6.9,17.822-18.737,24.739-22.184C443.226,141.235,448.434,148.249,445.2,153.858ZM374.943,86.38c-1.9-15.278,13.05-31.674,28.291-30.367,32.389,2.776,51.452,18.507,51.452,46.182C450.963,149.088,377.614,131.3,374.943,86.38Zm104.389,44.877c21.9-9.8,43.32,7.486,57.775,28.707,14.5,21.284.715,49.746-23.141,49.926C481.662,213.284,446.285,148.257,479.332,131.257Z" style="fill:#c0392b"/><path d="M60.213,561.581c-5.624,5.693-5.352,11.149.329,16.777a67.687,67.687,0,0,0,18.394,13.185c7.843,3.747,10.8,3.411,15.863-4.419,56.274-87.052,105.509-134.032,139.289-167.077a15.8,15.8,0,0,1,13.924-4.215c7.262,1.329,18.036.966,25.643-9.591a8.206,8.206,0,0,0-1.208-10.846l-36.836-33.433a8.247,8.247,0,0,0-11.42.326c-5.184,5.256-11.309,14.254-8.212,25.572a16.381,16.381,0,0,1-2.62,14.33c-29.891,39.177-72.1,82.417-82.58,76.181-14.88-8.858.173-29.432,8.5-39.037a8.492,8.492,0,0,0,.287-10.8l-21.209-27.156a7.933,7.933,0,0,0-11.916-.672l-3.618,3.689a7.933,7.933,0,0,0-.531,10.511l8.24,10.3A10.328,10.328,0,0,1,96.319,439.96l-10.33-7.652a9.348,9.348,0,0,0-12.174.9l-6.764,6.765a9.351,9.351,0,0,0-.924,12.143c2.5,3.411,5.732,7.741,9.01,11.929a11.311,11.311,0,0,1-.681,14.74L66.4,487.321a24.6,24.6,0,0,1-32.407,2.965L29.5,487a9.347,9.347,0,0,0-11.716.547c-1.158,1.025-2.417,2.148-3.7,3.307a5.293,5.293,0,0,0,.029,7.886c7.863,6.975,24.275,21.5,31.86,27.906,11.082,8.535,19.115-7.58,27.622-12.642,12.012-10.147,25.888,3.808,17.008,15.351C78.93,544.532,69.728,551.8,60.213,561.581Z" style="fill:#c0392b"/><path d="M256.025,353.09a6.238,6.238,0,0,0-.377,9.339L267.919,374.2a6.235,6.235,0,0,0,9.489-1.008c9.475-14.057,34.148-48.694,60.035-68.9a21.83,21.83,0,0,1,17.911-4.06c6.823,1.421,16.549,1.906,24.451-3.724a6.281,6.281,0,0,0,.254-10.084L325,243.648a6.246,6.246,0,0,0-9.775,2.945c-1.843,5.68-2.961,13.665,1.115,21.181a21.825,21.825,0,0,1-1.112,22.435C296.375,318.684,267.921,343.382,256.025,353.09Z" style="fill:#c0392b"/></svg>