<?xml version="1.0" ?><svg fill="#c0392b" data-name="Layer 4" id="Layer_4" viewBox="0 0 600 600" xmlns="http://www.w3.org/2000/svg"><title/><path d="M515.268,182.234C525,177.94,540.7,170.37,538.651,157.685c-9.638-13.454-31.907.262-39.415,10.365C487.157,181.631,503.892,186.652,515.268,182.234Z" style="fill:#c0392b"/><path d="M452.754,175.149a134.9,134.9,0,0,1,16.561-12.511c1.721-1.131,2.925-2.663,2.711-4.83-.509-5.1-6.291-4.923-10.019-3.518C399.42,169.8,386.847,225.9,353.743,272.579a9.174,9.174,0,0,0,4.8,11.454c31,12.965,61.38,46.172,43.44,80.965-1.244,5.226-9.467,10.713-4.992,15.876,5.151,3.578,11.139-2.246,16.171-3.8,47.415-19.247,87.3-66.593,51.909-115.484-6.014-7.5-14.561-12.5-21.4-19.172C422.641,223.566,433.512,191.024,452.754,175.149Z" style="fill:#c0392b"/><path d="M84.693,481.007c-30.3-49.624,8.772-65.955,36.133-100.6,7.965-11.576,8.108-32.678,13.479-45.345,24.2-47.583,80.647-62.713,129.913-67.145,13.247-3.225,19.641-16.528,28.5-25.643,17.172-7.6-8.67,60.731-10.524,67.458-.655,1.858-1.982,4.19-.223,5.849a3.012,3.012,0,0,0,4.415-.309c29.955-44.008,87.233-97.949,85.18-152.643-12.595-63.894-98.523-19.6-116.661-68.617-8.12-34.065,16.7-49.052,47.63-48.656,46.349-1.076,39.487-44.526,28.477-27.763-19.979,27.352-54.732-9.09-101.776,9.774-35.5,10.84-90.985,69.456-56.981,105.053,19.515,17.867,46.282,16.528,51.26,50.092,8.437,77.713-120.126,126.756-119.556,44.681,0-6.657-2.189-30.7-12.516-19.654,1.411,69.847-95.29,129.151-69.273,200.415C51.8,456.972,7.2,470.233,60.452,509.227c2.421,1.57,5.907,5.992,8.443,2.482a2.807,2.807,0,0,0-.984-3.752c-29.9-21.731-33.295-30.869-28.352-66.738-1.52-26.577-28.356-47.509-11.877-75.406a1.161,1.161,0,0,1,2.169.692c-1.233,11.193-1.295,16.389,1.184,22.914C37.353,405.053,47.5,419.3,48.8,436.588c.9,8.11.887,16.6,3.694,24.36,4.426,12.062,13.886,21.311,23.288,29.687C83.153,498.093,86.749,487.156,84.693,481.007Zm131.559-326c-8.126-9.057-19.594-13.451-30.168-18.845-15.322-7.655-23.742-25.734-16.879-41.965.709-1.583,3.072-11.31,4.954-6.967-.8,28.268,30.612,35.47,47.185,51.7,12.218,11.944,13.472,29.123,9.992,45.071a1.106,1.106,0,0,1-2.185-.116A47.674,47.674,0,0,0,216.252,155.006Z" style="fill:#c0392b"/><path d="M205.512,335.6c-9.268-3.4-17.15,4.029-22.21,10.993-12.86,15.491-16.142,49.637,1.856,62.318,17.7,8.616,34.338-10.21,42.479-24.124C236.954,366.077,224.974,341.745,205.512,335.6Z" style="fill:#c0392b"/><path d="M354.237,356.42c-5.186-15.019-22.167-32.661-38.034-19.929-13.137,10.014-23.066,26.461-21.071,43.406.987,7.736,5.51,14.383,10.5,20.149,12.007,17.314,34.166,16.618,47.286.974C365.605,388.909,360.34,370.52,354.237,356.42Z" style="fill:#c0392b"/><path d="M268.379,407.359c-10.3-31.514-27.842,54.025-15.48,47.356,3.592-2.632,3.611-8.124,7.65-10.315,6.364-2.583,8.951,9.4,14.242,10.646C282.991,454.18,272,412.512,268.379,407.359Z" style="fill:#c0392b"/><path d="M131.472,152.636c-7.987-3.089-12.877,6.916-14.153,13.33-1.977,11.18.4,25.028,8.742,33.144C145.329,205.187,144.808,158.383,131.472,152.636Z" style="fill:#c0392b"/><path d="M83.076,525.776c.505,4.294,9.89,11.11,13.7,7.942C102.045,527.751,82.151,514.422,83.076,525.776Z" style="fill:#c0392b"/><path d="M545.91,326.029c-37.472,24.124-24.738,55.587-59.833,80.89-1.33.836-20.916,16.133-17.24,7.455,29.964-21.338,26.625-62.368,53.021-86.1a3.425,3.425,0,0,0-3.817-4.324c-29.077,5.222-36.078,39.022-59.492,52.632C433.1,393.2,404.4,402.922,385.339,428.275c-4.457,8.615-9.335,16.972-17.233,22.951-4.917,4-22.135,16.584-28.008,13-3.087-5.462.5-22.336-10.741-18.675-21.548,21.4-1.53,66.547-27.236,72.358-10.419,2.083-11.517-18.2-12.877-24.311-4.721-21.231-18.129-6.566-15.836,36.956.556,10.554-10.413,12.3-19.194,10.7a11.807,11.807,0,0,1-10.877-10.885c-1.615-21.187-9.393-27.315-10.377-45.46.543-4.188-2.559-8.98-6.783-7.211a5.608,5.608,0,0,0-1.882,1.348c-8.294,8.751-.939,34.758-5.747,37.58-3.5,1.915-6.685-2.008-8.734-4.391-14.1-15.4-6.852-36.977-9.894-55.564-.753-4.31-2.561-12.039-8.7-10.228-8.792,3.054-.506,18.209-6.907,18.522-30.773-.3-17.088-24.395-35.574-36.2a5.269,5.269,0,0,1-.5-.287,41.743,41.743,0,0,1-14.352-22.605,7.039,7.039,0,0,0-12.1-2.918,164.51,164.51,0,0,1-13.152,13.009c-5.58,5.132-11.861,10.19-14.811,17.36-9.879,27.254,17.992,41.462,41.251,41.18,6.905-.114,13.794,1.48,19.431,5.625,8.161,5.42,16.536,13.941,18.725,23.792A16.813,16.813,0,0,1,155.125,524.6c-13.893-1.142-26.615-18.356-40.79-9.807-6.652,6.178,1.25,12.766,6.515,16.424,78.223,66.933,196.576,75.327,279.074,11.327,9.769-4.885,53.469-41.938,42.448-52.553-2.28-1.383-4.209-.206-6.272.633-9.719,3.954-21,5.836-30.481.252-8.51-5.013-13.074-14.671-8.558-24.013,23.07-38.6,91.379-28.633,118.837-88.159,3.623-8.243,6.089-17.008,10.4-24.941,4.2-7.712,10.328-13.95,17.081-19.466,2.046-2.341,7.367-3.658,5.963-7.362A2.531,2.531,0,0,0,545.91,326.029Z" style="fill:#c0392b"/><path d="M578.963,304.046c-4.2-1.018-13.854,5.416-12.206,10.084C570.521,321.148,589.93,307.123,578.963,304.046Z" style="fill:#c0392b"/></svg>