<?xml version="1.0" ?><svg fill="#c0392b" data-name="Layer 4" id="Layer_4" viewBox="0 0 600 600" xmlns="http://www.w3.org/2000/svg"><title/><path d="M582.8,9c-5.08.971-42.369,30.947-56.511,43.886C500,77.191,463.751,88.4,443.146,119.111c-21.51,27.306-49.977,49-80.449,65.45-15.131,8.872-28.343,19.853-38.186,34.606a38.164,38.164,0,0,1-7.027,8.232c-17.28,14.361-38.889,44.654-72.137,58.526a3.473,3.473,0,0,1-4.044-5.383c7.955-9.743,19.21-20.365,26.208-26.64,7.038-6.311,6.846-6.512-.4-12.912-14.929-13.534-29.552-20.687-47.565-25.11a6.755,6.755,0,0,1-3.258-11.2c13.44-14.212,34.5-37.761,41.5-43.891,12.52-10.686,22.77-23.959,34.684-35.189,25.839-22.083,53.316-42.252,78.032-65.628,4.04-3.234.773-8.5-3.876-7.053-4.28.849-8.244,2.294-11.174,5.816-5.349,6.427-12.255,10.939-19,15.733-24.555,17.5-49.45,35.141-68.391,58.966a114.2,114.2,0,0,1-12.429,13.378c-33.6,30.829-117.185,108.958-154.163,137.415a2.464,2.464,0,0,1-3.5-3.4c11.271-15.617,27.578-36.384,34.862-45.944a2.4,2.4,0,0,0-2.52-3.774c-10.75,2.881-33.459,10.757-53.456,29.46-18.526,17.327-28.277,41.3-31.887,57.253-7.744,34.211-2.2,55.675,6,71.859a1.994,1.994,0,0,0,3.76-.647c3.067-26.049,18.745-26.886,26.9-21.072,45,32.064-2.1,96.86-22.093,57.964-.151-.293-.089-.728-.292-.935-.87-.888-1.733-2.261-2.732-2.386-.747-.094-2.166,1.3-2.491,2.288-4.719,14.394-9.294,28.835-13.931,43.256-.715,2.224-.249,3.859,1.972,4.862,8.4,3.794,16.645,8.013,25.263,11.23,4.318,1.612,6.668,3.746,7.262,8.187,2.069,12.488.78,21.249,16.716,19.34,12.157-1.456,2.478-14.124,8.2-19.122,8.657-1.893,3.5,20.1,17.59,14.135a48.4,48.4,0,0,1,8.491-2.44c5.134-.94,5.1-.929,3.8-5.97a72.863,72.863,0,0,1-1.8-10.657c-.691-4.836,6.47-7.782,9.533-4.061,3.837,3.942,5.242,9.482,6.56,14.659.516,2.266,1.307,3.1,3.687,2.522,2.714-.663,5.515-.969,8.274-1.453,5.115-.9,4.871-.874,4.263-6-.344-6.681-3.163-18.4,5.969-19.9,7.147-.273,6.4,16.919,8.085,22.555,24.92-2.867,5.38-24.273,20.892-36.349,9.289-7.5,40.784-25.243,25.751-62.452-.857-2.121.365-3.523,2.392-2.461,9.848,5.161,12.268,14.882,11.283,22.121a2.54,2.54,0,0,0,4.124,2.314c9.973-8.154,34.7-23.979,43.444-39.48,34.011-60.285-15.107-75.081,46.462-137.229,5.062-6.287,9.471-13.094,14.321-19.558,16.037-22.243,42.4-31.134,62.336-48.772,12.784-11.612,28.665-20.957,37.884-35.537,20.14-31.85,51.339-44.9,60.977-49.953,30.874-15.8,45.814-42.162,74.619-61.026,4.5-3.053,8.567-6.825,10.734-11.914C592.007,10.329,587.516,7.444,582.8,9ZM119.648,472.471c-2.463-3.19-4.661-7.3-9.054-6.72-3.121.576-4.327,5.367-5.6,9.374a1.4,1.4,0,0,1-2.671.011c-1.15-3.619-.939-7-.908-10.171.113-11.7.789-23.4,1.457-35.093.792-4.193,4.5-5.534,5.326-.54,4.324,14.077,9.944,27.853,13.563,42.11A1.2,1.2,0,0,1,119.648,472.471Zm77.912-73.75c-10.372,41.514-51.12,32.811-63.5,25.279-34.7-21.6.043-81.056,32.774-84.458,15.838-1.953,25.781,9.6,30.3,26.22A65.4,65.4,0,0,1,197.56,398.721Z" style="fill:#c0392b"/><path d="M589.731,285.836c-6.769,4.766-20.144,15.522-25.091,22.762-13.954,18.639-24.882,40.4-44.214,54.173a287.854,287.854,0,0,0-77.774,84.891c-20.019,32.162-48.415,58.49-70.859,88.8C363.448,547.635,333.529,558.9,317.241,589a3.95,3.95,0,0,0,3.43,5.813c11.979.165,24.643.166,34.875.118a42.066,42.066,0,0,0,34.421-18.237c20.956-30.381,39.091-65.441,74.374-93.11,17.1-13.407,49.661-25.845,57.86-45.944,37.939-93.01,68.77-79.308,71.413-94.115l.067-55.624A2.509,2.509,0,0,0,589.731,285.836Z" style="fill:#c0392b"/><path d="M586.605,412.774c-6.711,6.813-11.975,14.956-17.619,22.622-24.056,32.677-5.435,56.213-29.25,76.63-11.351,9.68-52,25.056-59.086,38.287-3.662,7.293-8.271,27.629-10.508,38.151a5.342,5.342,0,0,0,5.265,6.449l115.98-.748a5,5,0,0,0,4.974-5c0-14.779.308-171.2.308-171.2S596.081,403.155,586.605,412.774Z" style="fill:#c0392b"/><path d="M595.952,217.208c.207-9.562.1-19.131.1-28.952-37.517,26.121-57.341,70.739-96.022,95.569-23.567,15.766-43.49,35.356-60.934,57.6C387.285,407.213,326.372,465.27,277.377,533.405c-15.924,22.121-33.171,40.184-53.55,57.858a2.378,2.378,0,0,0,1.5,4.177c5.506.125,12.261.225,16.986.286a21.5,21.5,0,0,0,12.712-3.953c14.764-10.454,30.712-32.155,36.648-39.794,50.6-70.924,114.288-130.642,168.791-198.288,27.539-38.543,73.614-56.97,101.444-95.2,10.018-12.709,20.119-25.349,31.807-36.622A7.488,7.488,0,0,0,595.952,217.208Z" style="fill:#c0392b"/><path d="M120.071,547.394c-7.665,3.012-10.187-16.808-16.006-18.627-4.074,1.7-12.85,2.5-10.72,8.794,7.133,21.053,10.667,40.334,37.139,38.468,22.836-3.2,45.342-8.6,67.507-15.117,16.517-4.855,43.369-42.354,52.467-55.317,1.127-1.606,5.6-7.39,3.4-9.188s-4.067,2.769-6.722,6.211c-13.13,17.023-19.062,12.948-18.564,9.139,3.056-23.382,9.96-31.812,24.564-54.559a154.343,154.343,0,0,1,35.52-38.958c6.619-5.894,12.415-12.748,18.792-18.923C338.451,371.2,358.574,333.109,389.568,305c17.343-16.955,35.016-34.034,53.2-50.128,8.858-7.839-1.37-16.563-18.058,2.215-10.436,11.744-23.67,20.491-35.875,30.15-15.834,11.683-29.41,25.4-40.1,42.043-28.89,44.522-69.392,79.415-107.9,115.309-4.778,4.541-10.213,24.894-33.774,45.866-3.786,3.37-4.764,7.974-3.755,13.181,1.367,6.548.711,15.036-3.675,20.483a4.011,4.011,0,0,1-7.017-1.511,61.665,61.665,0,0,0-1.652-6.088c-2.015-6.754-2.044-6.745-8.757-5.153-2.914,1.068-8,.3-6.741,4.88.754,3.535,1.691,7.046,2.189,10.617.7,5.019-1.466,7.084-6.454,6.605-5.87-.4-7.066-6.834-8.71-11.354-1.7-8.249-8.239-6.847-14.53-5.043a2.717,2.717,0,0,0-1.713,3.761c1.953,4.208,2.93,8.2,4.389,12.779.59,2.16-.008,4.6-2.233,5.518a5.532,5.532,0,0,1-7.689-4.05,119.082,119.082,0,0,1-3.863-13.245c-.6-2.795-1.764-3.1-4.1-2.323-15.746,5.569-19.386,1.852-11.333,19.679C123.171,543.708,122.727,546.26,120.071,547.394Z" style="fill:#c0392b"/><path d="M3.332,270.463a.8.8,0,0,0,1.494.393c16.858-29.1,31.734-29.3,73.566-57.606,45.663-30.9,76.356-76.882,126.624-99.481C242.832,92.2,265.587,51.455,305.139,32.274c10.184-5.439,27.613-12,37.618-22.639a2.539,2.539,0,0,0-1.851-4.268l-30.253-.109a32.564,32.564,0,0,0-12.165,2.265c-9.593,3.819-26.669,13.966-46.112,40.783-21.476,29.621-52.1,32.887-83.853,52.255-46.184,28.17-28.851,51.3-161.208,131.868-2.448,1.49-4.138,3.593-3.973,6.916Z" style="fill:#c0392b"/><path d="M8.518,188.608c65.842-40.39,36.033-60.4,103.5-108.723,17.049-12.213,55.128-19,68.241-35.542,24.12-30.435,42.569-32.387,58.805-38.455a.835.835,0,0,0-.3-1.616H185.679a19.227,19.227,0,0,0-7,1.307,30.888,30.888,0,0,0-15.551,13.346c-6.827,11.761-13.788,16.79-26.3,20.859a131,131,0,0,0-64.748,49.86c-10.128,15.8-26.642,24.9-42.8,33.391-6.895,3.874-13.74,7.836-20.662,11.658a5.861,5.861,0,0,0-3.377,5.914c.141,15.393-.007,30.758-.029,46.151A2.175,2.175,0,0,0,8.518,188.608Z" style="fill:#c0392b"/><path d="M69.943,25.285c26.106-3.852,43.684-13.522,43.981-20.042L10.179,6.924c-2.691.066-3.258,1.211-3.321,3.6L6.8,87.018C47.22,65.6,25.23,31.882,69.943,25.285Z" style="fill:#c0392b"/><path d="M475.246,216.272c-7.821-.184-8.966,11.792-.976,12.228C481.392,228.852,483.669,216.173,475.246,216.272Z" style="fill:#c0392b"/></svg>