<?xml version="1.0" ?><svg fill="#c0392b" data-name="Layer 4" id="Layer_4" viewBox="0 0 600 600" xmlns="http://www.w3.org/2000/svg"><title/><path d="M299.844,395.72l21.863-18.767a2.026,2.026,0,0,0-2.222-3.353c-30.653,15.372-65.315,30.86-101.858,41.153a5.166,5.166,0,0,0-2.029,8.86C315.059,510.8,442.085,587.222,576,596.662a14.452,14.452,0,0,0,14.455-19.8c-33.841-83.937-86.178-160.06-147.546-226.153a3.751,3.751,0,0,0-6.493,2.433c-.378,15.713,9.728,29.83,15.85,44.08,13.845,29.436,29,58.335,41.753,88.246a1.387,1.387,0,0,1-1.156,1.932c-20.973,1.436-150.641-41.216-192-68.042A14.535,14.535,0,0,1,299.844,395.72Zm41.646,58.772c20.356,9.154,97.547,42.554,152.181,48.166a17.571,17.571,0,0,1,13.773,9.347l6.867,13.138a1.307,1.307,0,0,1-1.24,1.91c-49.6-2.9-139.617-32.576-173.094-70.516A1.3,1.3,0,0,1,341.49,454.492Z" style="fill:#c0392b"/><path d="M572.245,57.43c-45.3,1.758-124.037,36.579-174.729,75.74a2.149,2.149,0,0,0,2.064,3.716c43.927-16.649,121.716-39.731,71.034,11.73C415.7,204.377,271.38,293.018,195.777,323.7c-6.482,2.8-7.964,1.235-11.929-2.251C132.623,262.36,55.463,150.905,60.459,68.039a1.812,1.812,0,0,1,3.579-.284c5.777,26.861,21.514,93.372,37.583,103.018,2.94,1.765,1.464-5.775.267-8.5-8.859-25.283-21.343-50.824-20.136-77.654,1.019-22.63,84.706,25.99,91.178,28.57,2.441.82,2.793-1.154,2.222-2.859C144.542,75.676,49.078,12.98,30.886,8.737,22.236,6.72,9.123-2.784,4.818,9.389-12.792,115.26,80.961,262.541,142.669,345.134c-12.082,5.065-38.975,16.427-53.693,22.648a1.376,1.376,0,0,0,.76,2.624c89.478-15.239,190.158-72.424,232.626-98.519a2.425,2.425,0,0,1,2.848,3.907c-32.4,28.044-110.519,83.9-246.41,114.887-24.923,5.683-28.616-14.4-24.263-22.924,4.525-11.429,13.833-19.528,22.613-27.7a1.878,1.878,0,0,0-2.174-3.025c-14.561,7.8-41.349,24.6-60.2,50.8-74.535,103.575,189.906,16.454,223.125.341,115.256-46.029,230.444-105.4,308.618-204.708C564.766,162.048,636.34,54.943,572.245,57.43Z" style="fill:#c0392b"/><path d="M204.84,141.664a3.737,3.737,0,0,0,5.292-3.539c-.8-4.224-10.1-12.858-14.082-8.021C192.69,134.242,201.552,140.094,204.84,141.664Z" style="fill:#c0392b"/></svg>