<?xml version="1.0" ?><svg fill="#c0392b" data-name="Layer 4" id="Layer_4" viewBox="0 0 600 600" xmlns="http://www.w3.org/2000/svg"><title/><path d="M374.271,157.268c-3.583-1.96-9-3.918-10.578.365-1.627,4.422,5.687,7.483,8.414,8.048C377.724,166.455,378.38,159.9,374.271,157.268Z" style="fill:#c0392b"/><path d="M299.092,341.193c0-4.937-6.364-5.456-12.435-3.422-5.28,1.769-4.363,7.255,2.734,8.013C289.4,345.9,299.091,346.538,299.092,341.193Z" style="fill:#c0392b"/><path d="M589.381,161C474.4,109.662,349.467,49.116,232.46,1.47A19.944,19.944,0,0,0,224.932,0h-24.84a1.889,1.889,0,0,0-.784,3.611c88.968,40.179,179.28,82.822,267.66,124.139a1.782,1.782,0,0,1-1.34,3.3C350.238,91.272,234.921,44.551,119.606,4.277A76.911,76.911,0,0,0,94.247,0H5.743A5.743,5.743,0,0,0,0,5.743v14.04c0,2.906,1.681,5.9,4.52,6.525C139.067,55.763,454.756,162.842,595.4,229.117A3.238,3.238,0,0,0,600,226.17V177.384A17.94,17.94,0,0,0,589.381,161Z" style="fill:#c0392b"/><path d="M597.756,274.589c-16.427-.083-119.459-.532-189.9.94a1.938,1.938,0,0,1-.323-3.855c53.481-7.815,141.361-17.52,166.728-20.674a2.944,2.944,0,0,0,.8-5.624c-30.9-13.39-124.257-53.736-139.2-59.04-3.29-1.592-7.282-.77-8.416,3.282-1.826,5.283,11.094,8.869,14.427,12.059,4.007,2.345,6.618,10.055-30.826,13.038-107.944,5.8-216.517,2.836-324.481,11.211-22.582,1.666-51.877,3.324-76.858,5.319a9.718,9.718,0,0,0-8.94,9.694v6.582a3.911,3.911,0,0,0,4.222,3.9c54.4-4.346,114.456-8.5,170.086-10.747a2.348,2.348,0,0,1,.535,4.653C122.328,255.5,64.868,265.9,12.139,274.9A13.668,13.668,0,0,0,.771,288.378v68.491a3.909,3.909,0,0,0,4.858,3.8c186.764-46.563,399.811-73,592.054-67.336A2.249,2.249,0,0,0,600,291.078V276.847A2.256,2.256,0,0,0,597.756,274.589Z" style="fill:#c0392b"/><path d="M595.846,490.944C483.4,446.191,272.345,383.375,217.967,367.4a3.613,3.613,0,0,1,.048-6.949c13.136-3.647,33.348-9.169,42.175-11.108a2.976,2.976,0,0,0,1.931-1.517,4.287,4.287,0,0,0-3.941-6.289c-35.241.947-72.262,6.874-103.024,13.823a3.23,3.23,0,0,0-.339,6.2C304.65,413.42,453.43,467.645,596.15,538.82a2.66,2.66,0,0,0,3.85-2.382V497.069A6.589,6.589,0,0,0,595.846,490.944Z" style="fill:#c0392b"/><path d="M597.222,579.3C528.858,537.719,450.554,499.863,378.4,466.684,288.532,426.7,195.319,387.8,97.8,372.141c-18.73-2.611-37,3.311-54.586,9.591a3.224,3.224,0,0,0,.209,6.143c148.723,41.657,282.345,126.88,412.667,208.477A23.934,23.934,0,0,0,468.8,600h17.283a1.5,1.5,0,0,0,.823-2.753c-24.768-16.253-69.108-46.057-91.925-61.425a2.366,2.366,0,0,1,2.165-4.173c42.581,15.938,87.819,44.683,125.065,63.282A48.331,48.331,0,0,0,543.8,600h54.524A1.671,1.671,0,0,0,600,598.329V584.252A5.8,5.8,0,0,0,597.222,579.3Z" style="fill:#c0392b"/><path d="M352.088,551.2c-22.393-14.281-44.744-28.643-67.936-41.622a1.926,1.926,0,0,0-2.858,1.778c.1,2.125.576,4.788,2.158,6.434C301.3,533.829,334.6,566.072,337.906,595.1a5.447,5.447,0,0,0,5.38,4.9H404.6a2.588,2.588,0,0,0,1.874-4.37C386.918,575.1,370.98,562.284,352.088,551.2Z" style="fill:#c0392b"/><path d="M260.239,595.95A2.243,2.243,0,0,0,261.57,600h57.3a4.128,4.128,0,0,0,4.169-4.576c-1.2-14.171-14.74-34.1-22.6-44.377a2.579,2.579,0,0,0-4.531.863C290.553,570.241,275.822,584.5,260.239,595.95Z" style="fill:#c0392b"/><path d="M334.961,152.073c4.895.678,7.019-5.436,1.934-7.227C299.529,134.708,84.309,76.96,6.636,60.851A4.879,4.879,0,0,0,.771,65.634V78.2A4.882,4.882,0,0,0,4.512,82.95C113.707,109.223,334.961,152.073,334.961,152.073Z" style="fill:#c0392b"/></svg>