<?xml version="1.0" ?><svg fill="#c0392b" data-name="Layer 4" id="Layer_4" viewBox="0 0 600 600" xmlns="http://www.w3.org/2000/svg"><title/><path d="M583.365,582.79C443.854,533.5,119.788,400.783,29.157,11.9a10.128,10.128,0,0,0-9.735-7.822L15.279,4.02A2.88,2.88,0,0,0,12.4,7.393c16.76,94.758,62.9,188.165,84.432,230.19a1.742,1.742,0,0,1-2.962,1.789C74.125,214.12,25.743,145.3,7.412,56.493a1.119,1.119,0,0,0-2.216.23L6.9,258.168c.033,3.663,1.32,6.449,3.363,9.43C97.73,395.169,248.622,515.227,402.582,592.811a34.127,34.127,0,0,0,15.36,3.622h14.066a.922.922,0,0,0,.431-1.737c-19.9-10.422-123.826-65.95-180.62-118.169a2.855,2.855,0,0,1,3.376-4.562C371.792,539.471,472.162,588.4,472.162,588.4a63.685,63.685,0,0,0,30.117,7.689l84.269.341c2.407.086,3.478-.621,3.653-3.239C590.715,585.449,590.825,585.455,583.365,582.79Z" style="fill:#c0392b"/><path d="M316.631,346.651c-116.2-113.4-162.3-275.612-175.083-326.03A21.676,21.676,0,0,0,120.481,4.282L61.613,4.4c-3.929-.066-3.687-.053-3.091,3.706,36,227.309,231.835,429.918,459.194,529.488a2.536,2.536,0,0,0,2.7-4.225c-28.476-24.932-101.357-91.8-174.8-183.97-45.462-57.052-136.026-193.1-172.4-337.517-1.277-5.072-7.341-5.453-9.84-5.388a1,1,0,0,0-.967,1.114C175.921,129.638,281.654,288.94,320.229,343.6A2.371,2.371,0,0,1,316.631,346.651Z" style="fill:#c0392b"/><path d="M592.386,66.024a23.9,23.9,0,0,0,3.124-11.783V17.387a.984.984,0,0,0-1.865-.439c-25.9,51.294-62.162,97.571-96.21,144.033,6.077-18.325,16.239-35.436,24.147-53.139,16.053-32.608,26.945-67.167,38.784-101.373.481-1.938-.8-2.913-3.886-2.9H527a6.759,6.759,0,0,0-5.81,3.275,45.481,45.481,0,0,0-2.978,6.562C509.878,34.587,462.2,179.8,380.255,285.668c-1.945,2.513-1.573,4.166.051,6.446,20.525,28.784,39.778,58.685,64.716,83.967,2.787,2.837,2.831,2.855,5.639.162,49.485-47.459,96.706-97.046,140.7-149.673a11.065,11.065,0,0,0,2.843-7.534c-.242-24.684-.135-69.645-.092-84.4a1.782,1.782,0,0,0-3.137-1.158c-45.612,53.09-89.78,100.335-132.08,140.018-4.623,4.338-11.477-1.866-7.6-6.882C492.635,213.129,559.579,123.927,592.386,66.024Z" style="fill:#c0392b"/><path d="M341.486,223.021c-1.493,2.483-1.564,4.3-.081,6.686,4.326,7.157,7.765,13.805,12.37,21.036C398.375,174.187,443.551,90.207,473.162,6.1a1.908,1.908,0,0,0-1.813-2.537L403,3.933a5.224,5.224,0,0,0-4.739,2.852c-18.1,28.29-35.817,56.842-54.3,84.875-13.037,19.655-26.758,38.858-40.325,58.156-1.618,2.3-1.395,3.982-.267,6.214,8.444,16.247,15.847,32.48,24.582,48.582a1.787,1.787,0,0,0,2.979.249c7.277-9.351,37.537-48.918,76.4-109.179a2.339,2.339,0,0,1,4.124,2.173C400.225,124.177,377.906,170.7,341.486,223.021Z" style="fill:#c0392b"/><path d="M215.64,4.025l-22.447.208a1.162,1.162,0,0,0-1.113,1.45c36.4,141.039,109.877,271.981,209.521,378.036a12.615,12.615,0,0,0,1,1.19c3.4,3.589,8.864-1.522,5.611-5.247C381.388,348.95,279.686,222.369,222.469,9.229A7.012,7.012,0,0,0,215.64,4.025Z" style="fill:#c0392b"/><path d="M262.4,540.623c-30.385-17.674-60.88-40.55-60.88-40.55-1.959-1.979-3.533-1.354-5.207.67C165.3,538.234,118.739,578.8,103.7,592.018a2.3,2.3,0,0,0,1.512,4.029l92.577.352a29.717,29.717,0,0,0,16.616-4.934,259.061,259.061,0,0,0,48.79-43.075A4.825,4.825,0,0,0,262.4,540.623Z" style="fill:#c0392b"/><path d="M85.76,403.885a1.065,1.065,0,0,0-1.938-.845C41.016,474.726,5.2,500.428,5.2,500.428s-1.246,32.44-.429,42.189c42.382-31.446,80.5-68.188,118.939-104.26,2.742-2.582,2.655-2.647-.1-5.221L97.846,411.1a2.8,2.8,0,0,0-4.316.85c-14.017,27.558-32.924,48.933-44.572,60.63a1.553,1.553,0,0,1-2.383-1.972C62.3,447.661,81.245,418.665,85.76,403.885Z" style="fill:#c0392b"/><path d="M594.707,547.158V532.414a8.268,8.268,0,0,0-5.218-7.708c-45.988-18.034-99.417-61-109.739-71.616-11.152-11.473-19.729-5.591-1.96,13.547,31.12,33.516,72.709,62.352,114.574,82.019A1.649,1.649,0,0,0,594.707,547.158Z" style="fill:#c0392b"/><path d="M352.617,7.707c-24.2,60.339-56.356,102.418-63.791,114.37-.8,1.289-1.865,3.137-1.49,4.3,1.252,3.893,3.1,7.594,4.888,11.748,30.35-43.169,54.863-85.557,74.041-134.152C359.04,3.979,353.782,4.282,352.617,7.707Z" style="fill:#c0392b"/><path d="M438.6,411.584c-7.154-6.383-9.048,2.251-3.742,7.074C442.081,424.448,445.125,417.555,438.6,411.584Z" style="fill:#c0392b"/><path d="M170,471.978c-6.743-5.465-13.553-10.848-20.243-16.377-1.563-1.291-2.628-1.556-4.04.1-54.438,61.583-134.8,136.38-134.8,136.38a2.3,2.3,0,0,0,1.616,3.941h30.84a29.211,29.211,0,0,0,20.208-8.118c37-35.445,76.126-69.055,106.962-110.228C172.991,474.455,173.02,474.428,170,471.978Z" style="fill:#c0392b"/></svg>