<svg width="600" height="600" viewBox="0 0 600 600" fill="none" xmlns="http://www.w3.org/2000/svg">
<path d="M524.577 326.951L516.431 336.232C515.59 337.189 515.04 338.367 514.846 339.628C514.652 340.888 514.823 342.177 515.338 343.344C518.214 349.862 523.714 362.263 526.203 375.36C526.266 375.724 526.21 376.098 526.044 376.428C525.878 376.758 525.61 377.025 525.281 377.191C524.951 377.356 524.577 377.411 524.214 377.346C523.85 377.282 523.518 377.102 523.265 376.833C485.499 335.74 467.256 313.601 449.702 229.278C425.869 91.7962 362.465 42.6071 314.194 31.0414C314.001 30.9937 313.799 30.9872 313.604 31.022C313.408 31.0569 313.221 31.1324 313.056 31.2437C312.891 31.3551 312.751 31.4998 312.645 31.6686C312.539 31.8374 312.469 32.0265 312.441 32.2238L308.853 54.2724C308.719 55.1009 308.854 55.9502 309.237 56.6966C309.619 57.443 310.23 58.0473 310.98 58.4214C320.004 62.9599 336.793 73.5723 347.968 86.7994C348.234 87.1182 348.375 87.523 348.364 87.9382C348.354 88.3535 348.193 88.7508 347.912 89.0561C347.631 89.3613 347.249 89.5537 346.836 89.5972C346.424 89.6407 346.01 89.5325 345.671 89.2926C336.28 82.6642 320.853 72.6052 308.173 68.3314C307.965 68.2636 307.745 68.2416 307.528 68.2667C307.311 68.2919 307.102 68.3637 306.915 68.4773C306.728 68.5908 306.568 68.7434 306.445 68.9247C306.322 69.1059 306.24 69.3116 306.204 69.5276L305.06 76.1297C304.909 76.9842 305.046 77.8649 305.449 78.6326C305.853 79.4004 306.501 80.0114 307.29 80.3692C355.315 101.788 398.604 157.975 409.176 199.952C438.136 314.927 463.482 359.315 472.694 372.721C473.688 374.174 474.163 375.921 474.04 377.678C473.918 379.436 473.206 381.1 472.02 382.401L461.888 393.558C453.695 402.216 461.642 408.317 467.48 415.148C503.516 457.313 486.404 517.057 479.107 537.13C478.908 537.677 478.88 538.271 479.024 538.834C479.169 539.398 479.48 539.904 479.917 540.287C480.354 540.67 480.896 540.911 481.473 540.98C482.049 541.048 482.633 540.941 483.148 540.671C564.391 498.635 586.96 415.224 531.518 327.501C531.157 326.928 530.668 326.447 530.089 326.097C529.511 325.747 528.859 325.537 528.185 325.484C527.511 325.43 526.834 325.535 526.207 325.79C525.581 326.044 525.023 326.442 524.577 326.951Z" fill="white"/>
<path d="M103.613 99.7706C89.3364 60.1333 56.7282 44.8979 43.6305 40.2391C42.9959 40.0154 42.3169 39.9473 41.6505 40.0405C40.9841 40.1337 40.3498 40.3855 39.8009 40.7748C39.2519 41.164 38.8042 41.6793 38.4954 42.2775C38.1866 42.8757 38.0258 43.5392 38.0263 44.2125L38 69.673C38.005 71.1347 38.4618 72.5591 39.3076 73.7509C40.1535 74.9427 41.347 75.8436 42.7247 76.3299C93.3588 94.5373 77.1823 181.498 156.098 199.236C235.014 216.974 257.95 252.895 265.353 257.822C272.756 262.75 327.171 294.583 320.083 375.841C312.962 457.464 321.247 485.101 337.728 505.115C338.479 506.04 338.899 507.191 338.92 508.383C338.941 509.575 338.561 510.74 337.842 511.691L326.221 527.195C325.383 528.309 324.977 529.689 325.077 531.08C325.177 532.47 325.777 533.778 326.766 534.76C339.498 547.348 383.372 586.617 439.57 557.467C468.951 542.227 478.24 492.621 472.294 465.549C472.158 464.896 471.834 464.297 471.362 463.825C470.89 463.354 470.291 463.031 469.638 462.895C468.985 462.76 468.307 462.818 467.687 463.063C467.066 463.308 466.531 463.729 466.147 464.274C433.163 512.034 398.608 476.16 385.887 460.967C385.323 460.292 384.612 459.755 383.809 459.397C383.006 459.038 382.131 458.868 381.253 458.9C380.374 458.931 379.514 459.163 378.738 459.577C377.963 459.992 377.292 460.578 376.777 461.292L366.642 474.846C366.278 475.335 365.807 475.735 365.265 476.014C364.723 476.293 364.124 476.443 363.514 476.454C362.905 476.466 362.301 476.337 361.749 476.078C361.197 475.819 360.712 475.436 360.331 474.96C355.299 468.628 346.865 452.44 348.121 415.842C349.041 388.89 351.975 363.724 352.727 336.76C354.937 257.526 300.205 240.434 284.193 222.124C268.181 203.814 165.303 166.729 165.303 166.729C134.437 157.737 114.138 128.992 103.613 99.7706Z" fill="#D9D9D9"/>
</svg>
