<?xml version="1.0" ?><svg fill="#c0392b" data-name="Layer 4" id="Layer_4" viewBox="0 0 600 600" xmlns="http://www.w3.org/2000/svg"><title/><path d="M595.689,375.036a11.613,11.613,0,0,0-9.117-11.371,37.893,37.893,0,0,0-8.013-.9c-11.345-.032-54.825,9.7-99.87-15.383-9.187-5.116-30.324-12.379-39.532-5.552-8.951,6.515-36.785,30.637-42.875,72.645a178.451,178.451,0,0,0-1.11,34.889c2.6,49.4,31.209,52.993,21.275,135.236a9.608,9.608,0,0,0,.154,3.5c1.559,6.221,10.7,5.567,11.554-.789,4.876-36.322-1.369-58.9-5.279-78.558a2.083,2.083,0,0,1,3.915-1.314c11.819,24.229,21.363,51.036,22,78.029a7.238,7.238,0,0,0,7.172,7.065l139.32.2Z" style="fill:#c0392b"/><path d="M154.974,596.3a19.34,19.34,0,0,0,15.1-7.259c14.624-18.272,46.424-69.182,9.087-131.5-20.817-34.742-61.52-36.311-98.2-14.23-33.589,20.223-42.413,96.412,11.084,95.2a2.489,2.489,0,0,1,1.764,4.292c-6.988,6.687-22.426,16.852-44.079,4.913-61.749-34.044-4.708-127.075,44.113-162.179,54.914-39.484,112.43-61.419,126.252-70.417a19.949,19.949,0,0,0,8.28-11.783,6.722,6.722,0,0,0-6.358-8.493C191.558,294.33,75.135,298.1,11.287,381.59a33.984,33.984,0,0,0-6.976,20.643v187.98A6.085,6.085,0,0,0,10.4,596.3Z" style="fill:#c0392b"/><path d="M536.715,8.113a7.934,7.934,0,0,0-7.189-4.408c-29.875.154-59.751.087-89.627.087-29.755,0-59.51.07-89.264-.089-3.712-.02-5.842,1.063-7.976,4.181-38.617,56.432-24.5,96.081-13.564,113.857a4.483,4.483,0,0,0,8.279-2.149c4.891-95.281,75.082-101.934,98.895-101.431a40.248,40.248,0,0,1,18.061,4.526c16.342,8.681,9.238,20.219.288,16.017-7.429-3.487-43.323-7.133-53.37,31.077C395.9,90.124,407.089,109.53,414.1,116.54,478.893,181.334,577.867,92.412,536.715,8.113Z" style="fill:#c0392b"/><path d="M284.531,400.583c14.182-12.985,36.763-21.685,43.237-23.134a11.426,11.426,0,0,0,8.211-7.3c5.442-15.021,22.993-53.239,65.661-72.294a32.725,32.725,0,0,0,13.818-11.832c11.554-17.357,32.686-56.355,7.807-79.516-3.624-3.374-9.687-1.588-12.731,1.534-11.994,10.914-22.1,38.245-39.332,37.359a4.946,4.946,0,0,0-5.257,5.483c1.208,10.237,1.923,28.281,2.285,40.155a2.277,2.277,0,0,1-4.4.88c-8.354-21.4-13.261-46.029-21.577-66.926-6.23-15.654-27.837-3.653-35.25,2.6-36.845,31.08,17.752,89.952-36.068,102.934-25.688,6.2-36.3,29.217-37.613,41.615C229.641,403.14,262.8,420.475,284.531,400.583Z" style="fill:#c0392b"/><path d="M4.311,321.762A3.753,3.753,0,0,0,9.4,325.277c26.123-10.05,51.166-27.924,69.772-47.929,58.659-63.069,127.044-41.175,161.235-23.59,7.141,3.672,14.767-4.084,10.9-11.122-16.393-29.826-52.875-75-120.1-63.762C71.7,188.818,52.123,242.15,8.961,245.767a5.072,5.072,0,0,0-4.65,5.054Z" style="fill:#c0392b"/><path d="M307.588,14.151C307.1,8.54,303.441,3.8,297.809,3.8L238.67,3.792a3.725,3.725,0,0,0-3.523,4.976c7.968,21.712-1.828,47.357-11.966,91.754-4.836,21.178-4.81,82.568,57.411,105.049,3.256,1.176,4.792-2.81,3.276-6.15-27.047-59.584-6.286-99.13,4.145-115.412C307.605,53.428,309.114,31.716,307.588,14.151Z" style="fill:#c0392b"/><path d="M4.44,194.769a11.388,11.388,0,0,0,13.871,11.092c72.88-16.22,75.1-100.648,45.1-127.349A83.6,83.6,0,0,0,15.273,57.758,10.062,10.062,0,0,0,4.32,67.8Z" style="fill:#c0392b"/><path d="M209.406,13.161A10.209,10.209,0,0,0,199.26,3.793c-19.269,0-63.4-.01-73.2,0a6.684,6.684,0,0,0-6.685,6.929c.46,11.532,4.266,34.5,24.181,49.143C166,76.364,215.231,79.116,209.406,13.161Z" style="fill:#c0392b"/><path d="M470.434,196.482c-.479,9.609,8.57,34.891,32.146,36.21a40.112,40.112,0,0,0,37.8-25.224C557.116,161.1,474.286,139.482,470.434,196.482Z" style="fill:#c0392b"/><path d="M421.259,334.517c5.613-3.725,12.122-8.418,11.126-16.032-9.317-35.151-57.7,24.641-65.752,37.884-7.03,10.628-13.955,21.7-16.056,34.483.46,6.512,4.617,10.317,10.656,11.8,20.419,5.009,25.081-25.533,29.831-36.341C397.648,353.009,409.5,343.167,421.259,334.517Z" style="fill:#c0392b"/><path d="M295.655,449.1c-20.021-1.485-30.337,21.224-16.515,34.931,5.8,7.355,10.693,14.432,20.248,17.1,15.621,4.893,29.8-5.3,29.861-21.433C329.416,462.135,312.184,449.244,295.655,449.1Z" style="fill:#c0392b"/><path d="M139.489,92.42c-42.15,1.6-20.875,48.595,22.056,34.241,18.439-6.165,11.11-21.8-1.752-28.051C153.2,95.407,147.283,92.212,139.489,92.42Z" style="fill:#c0392b"/><path d="M374.531,185.931c17-3.563,7.547-45.41-3.875-46.064C346.4,138.315,347.35,191.627,374.531,185.931Z" style="fill:#c0392b"/></svg>