<svg fill="#c0392b" xmlns="http://www.w3.org/2000/svg" x="0px" y="0px" width="100" height="100" viewBox="0 0 50 50">
<path d="M 41.4375 1.09375 C 41.136719 1.117188 40.796875 1.222656 40.5 1.40625 L 28.46875 8.65625 C 29.386719 8.832031 30.246094 9.050781 31.0625 9.28125 L 41.71875 3.53125 C 42.53125 3.089844 42.9375 2.234375 42.59375 1.625 C 42.371094 1.242188 41.941406 1.054688 41.4375 1.09375 Z M 31.0625 9.28125 L 18.78125 15.90625 C 18.59375 16.007813 18.316406 15.871094 18.15625 15.59375 C 18 15.3125 18.007813 14.984375 18.1875 14.875 L 28.46875 8.65625 C 26.742188 8.328125 24.839844 8.113281 22.75 8.03125 C 22.410156 7.414063 21.753906 7 21 7 C 20.246094 7 19.589844 7.417969 19.25 8.03125 C 15.746094 8.164063 12.78125 8.703125 10.28125 9.46875 C 9.933594 9.179688 9.488281 9 9 9 C 7.996094 9 7.175781 9.753906 7.03125 10.71875 C 2.25 12.957031 0.03125 16.0625 0.03125 18.0625 C 0.03125 23.46875 9.613281 28.054688 20.96875 28.0625 C 32.324219 28.054688 41.9375 23.46875 41.9375 18.0625 C 41.9375 17.367188 41.640625 16.539063 41.09375 15.65625 L 22.25 21.3125 C 22.074219 21.371094 21.859375 21.175781 21.78125 20.90625 C 21.6875 20.632813 21.753906 20.371094 21.9375 20.3125 L 39.6875 13.90625 C 37.929688 12.144531 35.105469 10.417969 31.0625 9.28125 Z M 39.6875 13.90625 C 40.273438 14.492188 40.746094 15.089844 41.09375 15.65625 L 47.375 13.78125 C 48.402344 13.476563 49.070313 12.679688 48.84375 12 C 48.628906 11.328125 47.597656 11.074219 46.59375 11.4375 Z M 41.96875 23.03125 C 40.242188 25.058594 37.472656 26.773438 34 28 L 34 44.28125 C 34.597656 44.628906 35 45.261719 35 46 C 35 46.214844 34.96875 46.429688 34.90625 46.625 C 40.003906 44.449219 41.96875 41.289063 41.96875 39.46875 Z M 0.03125 23.0625 L 0.03125 39.6875 C 0.03125 41.21875 1.917969 44.375 7.09375 46.59375 C 7.035156 46.402344 7 46.210938 7 46 C 7 45.261719 7.40625 44.628906 8 44.28125 L 8 28 C 4.53125 26.78125 1.765625 25.078125 0.03125 23.0625 Z M 10 28.625 L 10 44.28125 C 10.59375 44.628906 11 45.261719 11 46 C 11 46.691406 10.660156 47.296875 10.125 47.65625 C 12.605469 48.359375 15.613281 48.851563 19.25 48.96875 C 19.089844 48.683594 19 48.351563 19 48 C 19 47.261719 19.40625 46.628906 20 46.28125 L 20 30.03125 C 16.367188 29.957031 12.980469 29.453125 10 28.625 Z M 32 28.625 C 29.023438 29.453125 25.632813 29.953125 22 30.03125 L 22 46.28125 C 22.59375 46.628906 23 47.261719 23 48 C 23 48.351563 22.90625 48.683594 22.75 48.96875 C 26.378906 48.851563 29.414063 48.359375 31.90625 47.65625 C 31.367188 47.296875 31 46.695313 31 46 C 31 45.261719 31.402344 44.628906 32 44.28125 Z"></path>
</svg>