<?xml version="1.0" ?><svg fill="#c0392b" data-name="Layer 4" id="Layer_4" viewBox="0 0 600 600" xmlns="http://www.w3.org/2000/svg"><title/><path d="M492.113,261.5c-15.971.968-13.555,18.157-25.755,22.1-12.494,3.583-33.4,2.785-42.534,3.07,5.254-6.83,10.122-13.09,14.916-19.406,4.1-5.407,9.131-10.141,13-16.484A2.143,2.143,0,0,0,450,247.5c-10.523-.347-20.857-1.571-28.6,6.767-8.377,9.041-17.375,17.475-26.022,26.252-5.035,5.06-11.053,6.8-18.137,6.538-18.331-.073-39.368-2.307-53.377,11.972-4.962,5.064,4,8.105,7.715,10.012a69.257,69.257,0,0,0,27.251,5.306q41.465.166,82.927.661c18.791.546,28.127.613,38.529,18.06,5.723,8.566,16.256,8.243,25.4,8.029,3.252-.085,4.123-2.649,2.354-5.836-5.573-10.04-11-20.167-16.884-30.023-2.136-3.581-1.748-6.149.25-9.548,5.482-9.323,10.6-18.864,15.755-28.374C511.817,259.026,496.559,261.6,492.113,261.5Z" style="fill:#c0392b"/><path d="M238.925,137.557a2.2,2.2,0,0,0-3.53,1.745c-.064,10.217-1.276,21.421,7.142,28.844,9.377,8.506,17.989,17.8,26.883,26.8,4.463,4.573,5.926,10.085,5.775,16.419.227,17.352-2.474,36.486,9.109,50.989,10.766,17.737,18.965-22.313,18.114-29.989-.074-29.475.28-58.952.8-88.422.705-10.592.834-23.306,10.835-29.708,11-5.818,18.979-18.674,15.145-31.22-.769-2.547-2.856-3.314-5.563-1.816-10.046,5.561-20.127,11.066-30.032,16.869-3.392,1.988-5.972,2.264-9.556.107-9.263-5.575-18.842-10.63-28.341-15.808-8.434-4.855-6.02,9.526-6.188,14.136.938,16.9,17.3,14.044,21.927,25.8a38.361,38.361,0,0,1,2.042,8.2c.5,11.9,2.26,23.243,1.437,35.216C262.39,156.352,250.935,146.55,238.925,137.557Z" style="fill:#c0392b"/><path d="M329.405,516.3c.8-12.263-1.743-21.158-12.914-27.484-8.356-4.977-12.088-12.624-12.51-22.007-2.294-34.75-.964-69.6-1.943-104.358-.129-5.535-7.138-36.568-15.819-25.829-13.859,14.722-10.643,35.724-11.028,54.285.747,8.782-5.04,15.14-10.876,20.9q-10.648,10.546-21.43,20.956a24.118,24.118,0,0,0-6.535,10.98,54.456,54.456,0,0,0-.6,17.411,2.6,2.6,0,0,0,4.151,1.818c12-8.97,22.881-18.479,34.613-26.983.417.827.7,1.12.684,1.4-.654,11.954-1.077,23.929-2.114,35.851a16.755,16.755,0,0,1-10.159,14.415c-5.7,2.859-11.132,6.595-12.673,13.207-1.009,3.954-3.254,23.476,5,18.294,9.514-5.151,19.072-10.236,28.38-15.743,3.572-2.113,6.28-2.423,9.976-.221,9.719,5.788,19.708,11.123,29.6,16.625C327,521.92,329.192,520.739,329.405,516.3Z" style="fill:#c0392b"/><path d="M73.13,341.283c12.278.8,21.141-1.76,27.475-12.934,4.982-8.354,12.632-12.074,22.016-12.494,34.752-2.283,69.6-.97,104.358-1.939,5.987-.188,37.927-7.506,25.034-16.484-13.368-11.6-32.353-11.467-49.029-10.378-11.273,1.119-19.441-3.865-26.479-11.92-6.167-6.312-12.526-12.452-18.44-18.994-7.665-9.056-18.861-9.764-29.8-8.558a2.642,2.642,0,0,0-1.818,4.215c8.973,11.992,18.479,22.877,26.988,34.626-.852.4-1.151.672-1.434.656-11.954-.657-23.929-1.085-35.851-2.122a16.764,16.764,0,0,1-14.4-10.174C96.49,262.027,85.2,259.7,72.656,261.709c-3.234.38-4.04,2.391-2.389,5.439,5.152,9.513,10.235,19.073,15.746,28.378,2.122,3.584,2.384,6.294.192,9.977-5.784,9.721-11.123,19.707-16.623,29.6C67.475,338.889,68.671,341.074,73.13,341.283Z" style="fill:#c0392b"/><path d="M340.754,267.1c25.221-23.677,49.717-48.212,74.855-72.009,7.9-7.573,17-10.634,27.9-7.555C453.85,190.8,463.8,184.685,470.1,176.8c3.09-3.278,2.287-5.451-2.079-6.71-11.026-3.181-22.007-6.532-33.11-9.415-3.81-.99-5.321-2.894-6.27-6.577-2.695-10.465-5.825-20.82-8.9-31.184-2.438-9.317-10.653,2.163-14.06,5.222-13.658,15.514,7.543,25.6-7.949,42.149Q387.3,182.051,376.7,193.673a12.191,12.191,0,0,1-2.37,1.487c-.935-7.193-5.1-37.674-6.269-46.189a1.2,1.2,0,0,0-1.983-.728c-9.53,8.472-17.771,16.486-16.421,30.305.608,11.271.01,22.6.067,33.91.033,6.526-3.119,11.206-7.637,15.586-12.542,13.024-29.009,25.458-29.636,45.075C309.978,286.8,336.779,271.314,340.754,267.1Z" style="fill:#c0392b"/><path d="M413.039,482.382c2.965,2.5,5.1,1.716,6.2-2.083,3.241-11.18,6.553-22.343,9.529-33.594.929-3.512,2.538-5.172,6.137-6.095,10.629-2.728,21.145-5.9,31.667-9.025,4.121-1.224,4.67-3.184,1.857-6.517-9.2-11.6-16.774-15.261-31.157-9.925-6.621,2.288-12.821-1.3-17.848-5.277-6.012-5.324-16.889-15.473-22.131-20.595a2.117,2.117,0,0,1,1.213-3.61c5.676-.74,32.174-4.406,41.1-5.641a1.608,1.608,0,0,0,.981-2.658c-8.123-9.229-16.382-17.208-29.827-15.822-11.269.631-22.6.008-33.91.057-6.536.029-11.182-3.189-15.556-7.7-13.019-12.544-25.476-29.006-45.1-29.57-13.533-2.381,1.967,24.45,6.177,28.382,23.806,25.33,48.475,49.928,72.34,75.232,7.135,7.477,10.182,16.232,7.331,26.558C398.719,466.536,404.4,475.094,413.039,482.382Z" style="fill:#c0392b"/><path d="M149.087,447.752c2.805,10.95,6.064,21.784,9.214,32.643,1.087,3.746,3.273,4.472,6.247,1.909,5.725-5.375,12.1-11.52,11.7-19.982.065-8.4-4.193-16.958.289-24.955,5.487-10.33,14.389-18.259,22.178-26.82q25.191-25.679,50.669-51.075a65.445,65.445,0,0,0,12.569-17.293c1.609-4.858,10.287-18.567-.225-17.913-20.438.662-32.614,17.5-46.263,30.421-6.454,7.856-16.63,7.094-25.851,7.372-12.154.735-24.942-2.721-36.644,1.383-6.353,2.871-10.459,8.094-15.314,13.224a2.373,2.373,0,0,0,1.245,3.956c11.867,2.394,37.051,4.633,44.48,5.6a12.63,12.63,0,0,1-1.226,2.015c-6.32,5.918-12.479,12.029-19.065,17.637-6.054,4.03-13.068,11.695-20.965,9.585-15.571-4.894-22.8-3.515-33.1,9.682-2.786,3.312-2.183,5.238,2.017,6.485,10.2,3.029,20.38,6.2,30.713,8.722C146.159,441.419,148.007,443.536,149.087,447.752Z" style="fill:#c0392b"/><path d="M174.861,132.67c-2.424-4.959-6.547-8.361-10.615-11.783-3.284-2.762-5.229-2.135-6.472,2.055-3.026,10.2-6.208,20.377-8.72,30.71-1.075,4.418-3.214,6.248-7.419,7.322-9.663,2.466-19.2,5.437-28.767,8.263a5.87,5.87,0,0,0-2.918,1.586c-1.145,1.47-.308,8,1.1,9.516,5.86,7.253,15.2,9.1,24.007,6.933,9.546-2.6,19.081.443,26.143,7.218,23.939,21.463,46.45,44.4,69.157,67.137,3.249,4.8,35.54,26.419,34.774,12.431-.333-20.637-17.45-33.018-30.443-46.744-7.842-6.465-7.059-16.646-7.342-25.862-.63-28.285,6.563-33.068-14.475-52.109a2.271,2.271,0,0,0-3.775,1.38l-5.84,43.965-1.419.377c-7.523-9.88-31.615-29.131-27.788-41.584C175.65,146.648,178.647,139.307,174.861,132.67Z" style="fill:#c0392b"/><path d="M285.048,32.444c-4.317,10.375-9.243,20-11.085,31.285C275.1,73.037,281.1,80.635,287.194,87.4c1.143,1.394,2.245,1.181,3.235-.159,3.454-4.673,7.17-9.184,10.25-14.094a16.71,16.71,0,0,0,1.841-14.411c-2.571-7.9-5.246-15.763-7.95-23.617C293.224,30.491,287.429,26.13,285.048,32.444Z" style="fill:#c0392b"/><path d="M554.312,306.433c4.658-1.433,8.854-6.889,2.638-9.573-11.755-5.3-26.648-14.253-39.614-8.763-5.881,2.658-10.461,7.025-15.357,11-1.419,1.152-1.108,2.258.205,3.233,6.786,5.1,13.893,11.5,22.306,13.137C535.193,313.923,544.138,309.547,554.312,306.433Z" style="fill:#c0392b"/><path d="M19.494,304.277c8.319,4.919,18.442,6.642,27.47,10.15,10.362,3.091,18.982-4.124,26.653-10.874a4,4,0,0,0,0-6.014c-7.385-6.452-15.607-13.068-25.725-10.935a104.245,104.245,0,0,0-27.437,10.33C16.6,298.963,16.354,301.275,19.494,304.277Z" style="fill:#c0392b"/><path d="M286.971,514.105c-2.948,3.812-6.12,7.476-8.776,11.482a20.52,20.52,0,0,0-3.816,12.834c1.109,10.392,5.811,20.952,10.529,30.277,2.682,6.209,8.091,2.431,9.591-2.371,2.7-7.857,5.384-15.717,7.967-23.611,3.991-11.4-6.009-20.058-11.908-28.549C289.394,512.6,288.2,512.523,286.971,514.105Z" style="fill:#c0392b"/><path d="M104.973,492.577c7.45-3.665,14.905-7.324,22.314-11.071,5.654-2.858,8.455-7.869,9.637-13.808.905-4.547,1.445-9.171,2.026-13.777.422-3.343.025-3.67-4.985-3.512-8.369,1.057-21,2.123-25.867,11.278a108.379,108.379,0,0,0-11.575,25.841C94.22,493.729,100.455,495.02,104.973,492.577Z" style="fill:#c0392b"/><path d="M440.473,467.022c1.144,6.344,4.012,11.616,10.033,14.638,5.568,2.487,15.478,5.061,21.741,6.559a3.755,3.755,0,0,0,4.547-4.448c-1.426-6.529-4.1-16.965-7.56-22.328-4.075-7.186-20-10.733-27.581-12.043a2.976,2.976,0,0,0-3.447,3.388C438.9,457.3,439.99,464.341,440.473,467.022Z" style="fill:#c0392b"/><path d="M476.069,108.306a101.826,101.826,0,0,0-26.713,12.015c-9.466,5.471-9.03,17.123-11.177,26.547.136,4.084.46,4.422,4.426,3.893,4.272-.571,8.559-1.082,12.792-1.876,6.144-1.154,11.313-3.951,14.263-9.778Q475.287,128,480.7,116.78a9.749,9.749,0,0,0,1.039-4.288C481.638,108.292,480.085,107.1,476.069,108.306Z" style="fill:#c0392b"/><path d="M340.444,137.205c-6.158,3.815-18.337,14.486-23.936,19.487a9.311,9.311,0,0,0-3.1,6.571l-.872,21.5A1.6,1.6,0,0,0,315.227,186c5.75-5.367,18.588-17.371,23.261-21.887,2.743-2.65,4.556-5.6,4.47-9.607-.109-5.125-.055-10.253-.038-15.918A1.62,1.62,0,0,0,340.444,137.205Z" style="fill:#c0392b"/><path d="M341.942,460.7c-.017-9.711,2.2-19.149-5.687-26.3-7.933-7.276-13.484-15.651-21.356-22.958-2.334-1.372-3.482,1.119-3.053,3.145.4,4.937.6,12.7.689,18.428a17.143,17.143,0,0,0,5.707,12.5c5.96,5.336,15.251,13.392,20.735,16.839A1.931,1.931,0,0,0,341.942,460.7Z" style="fill:#c0392b"/><path d="M147.108,327.785c-4.214.078-16.561,17.818-21.925,26.326a1.973,1.973,0,0,0,1.639,3.03c10.043.107,19.779,1.763,27.051-6.5,6.676-7.135,13.985-13.677,20.931-20.566.821-.814,4.1-3.887-1.905-4.419C164.307,324.9,155.692,326.935,147.108,327.785Z" style="fill:#c0392b"/><path d="M423.14,348.663c2.264,2.365,4.733,4.18,8.1,4.379,6.156.365,12.314.693,19.238,1.073a1.075,1.075,0,0,0,.99-1.622c-3.806-6.28-14.718-20.236-19.178-25.877a7.058,7.058,0,0,0-5.164-2.665c-7.13-.389-18.385-.439-23.851-.568a2.171,2.171,0,0,0-1.723,3.549C406.551,333.125,418.65,343.972,423.14,348.663Z" style="fill:#c0392b"/><path d="M173.605,218.98c-3.549-3.793-23.386.562-33.794,2.559a2.389,2.389,0,0,0-1.268,4c1.7,1.776,12.477,14.265,26.724,13.832,8.455-.257,16.936.385,25.408.474,1.35.015,3.322-.345,3.932-1.253,1.153-1.716-1.013-2.494-2.026-3.371C186.289,229.77,179.865,224.469,173.605,218.98Z" style="fill:#c0392b"/><path d="M223.533,396.618c-5.565,6.411-10.986,12.948-16.56,19.353-3.633,3.643.777,23.719,2.765,33.934a2.191,2.191,0,0,0,3.7,1.129c3.463-3.457,6.546-6.6,9.839-9.5,3.788-3.34,4.642-7.513,4.422-12.141-.491-10.3.242-20.508.253-30.9C227.958,393.657,224.319,395.712,223.533,396.618Z" style="fill:#c0392b"/><path d="M364.056,452.648a1.862,1.862,0,0,0,3.132-1.008c1.215-6.761,3.809-21.428,4.832-29.095a6.68,6.68,0,0,0-1.267-4.455c-4.188-5.14-12.775-14.58-17.193-19.193a2.112,2.112,0,0,0-3.627,1.233c-.785,7.729.106,23.885-.092,30.42C349.474,440.37,357.443,446.167,364.056,452.648Z" style="fill:#c0392b"/><path d="M409.06,217.4a6.812,6.812,0,0,0-4.543,1.276c-6.954,5.678-13.755,11.543-20.547,17.417a8,8,0,0,0-1.308,2.432c2.858,2.425,6.117.733,9.385.713,8.306.009,16.615.072,24.915.33,9.64.09,15.484-7.376,21.861-13.887a2.179,2.179,0,0,0-1.152-3.665C430.765,220.711,416.761,218.427,409.06,217.4Z" style="fill:#c0392b"/><path d="M116.131,146.866c1.508,1.268,3.681,1.589,5.606,1.938,4.555.824,9.149,1.448,13.744,2.026,3.337.421,3.666.022,3.55-3.927-.716-13.187-5.535-25.683-18.786-31.508C113.889,112.6,105.058,137.556,116.131,146.866Z" style="fill:#c0392b"/><path d="M579.775,506.423c-71.8-1.749-54.111-28.565-61.124-82.336-.554-4.252-7.491-3.243-7.616,1.179-2.089,73.866-2.263,81.073-60.382,80.169-1.993-.031-3.32,1.516-3.348,3.7-.022,3.7,4.065,4.116,6.862,4.077,61.9-.866,54.779,38.143,59.3,81.19.344,3.275,5.543,3.5,5.523.406-.572-87.791,17.758-76.28,61.1-81.209C584.088,513.147,583,506.5,579.775,506.423Z" style="fill:#c0392b"/><path d="M511.566,397.884c.9,8.229,7.186,5.832,6.838-2.068C517.921,387.259,511.264,391.481,511.566,397.884Z" style="fill:#c0392b"/><path d="M154.452,88.05C82.648,86.3,100.341,59.486,93.328,5.715c-.554-4.252-7.491-3.243-7.616,1.179C83.623,80.76,83.449,87.967,25.33,87.063c-1.993-.031-3.32,1.515-3.348,3.7-.022,3.7,4.065,4.116,6.862,4.077,61.9-.866,54.779,38.143,59.3,81.19.344,3.275,5.543,3.495,5.523.405-.572-87.79,17.758-76.279,61.1-81.208C158.764,94.775,157.678,88.129,154.452,88.05Z" style="fill:#c0392b"/></svg>