<?xml version="1.0" ?><svg fill="#c0392b" data-name="1" id="_1" viewBox="0 0 600 600" xmlns="http://www.w3.org/2000/svg"><title/><path d="M294.1,262.966a5.072,5.072,0,0,0-6.049-.688L260.909,278.24a4.725,4.725,0,0,0-.937,7.51Q421,427.8,576.151,592.7a16.821,16.821,0,0,0,11.716,4.711h6.116a3.59,3.59,0,0,0,3.643-3.535V559.332a14.169,14.169,0,0,0-4.414-10.238Q438.091,418.727,294.1,262.966Z" style="fill:#c0392b"/><path d="M119.005,581.849c17.409-33.067,70.718-140.018,85.008-235.433,14.385-96.045,28.606-116.328,33.494-136.925a7.327,7.327,0,0,0-1.5-6.389l-1.96-2.363a2.858,2.858,0,0,0-4.111-.264l-21.291,19.656c-15.4,14.67-1.619,30.024-18.687,51.254-94.688,117.773-84.745,240.7-77.69,309.223A3.6,3.6,0,0,0,119.005,581.849Z" style="fill:#c0392b"/><path d="M284.87,359.044c-1.467-5.412-3.374-10.626-6.981-15.168-5.99-8.171-30.833-31.377-41.317-41.05a3.148,3.148,0,0,0-5.273,1.956c-2.513,29.683-2.236,59.686,7.51,88.3,3.139,13.941,48.967,88.147,72.256,119.538a2.047,2.047,0,0,0,3.688-1.378C309.771,467.435,288.445,372.229,284.87,359.044Z" style="fill:#c0392b"/><path d="M75.5,183.911a5.625,5.625,0,0,0,7.29,3c53.985-21.487,92.594,14.886,102.9,26.2a4.071,4.071,0,0,0,5.835.144L216.715,188.4a4.91,4.91,0,0,0,.282-6.742c-13.329-15.465-66.7-77.654-74.874-91.4a1.377,1.377,0,0,1,2.163-1.655c11.621,10.732,36.034,33.659,48.511,48.18a1.7,1.7,0,0,0,2.946-1.523,142.4,142.4,0,0,1-5.274-47.491,4.884,4.884,0,0,0-2.969-4.733L5.105,2.759a1.9,1.9,0,0,0-2.59,2.392Z" style="fill:#c0392b"/><path d="M275.154,247.828a7.39,7.39,0,0,0,1.625-9.293c-3.516-6.121-10.463-14.376-13.03-16.563-5.15-3.667-7.512-1.575-10.056,3.265q-8.426,16.846-16.84,33.7c-1.718,3.486-.465,7.231,3.353,9.651,3.279,2.093,4.849,1.89,8.164-.7,4.218-3.292,8.512-6.491,12.8-9.693C265.489,254.588,270.84,251.587,275.154,247.828Z" style="fill:#c0392b"/></svg>