<?xml version="1.0" ?><svg fill="#c0392b" data-name="Layer 4" id="Layer_4" viewBox="0 0 600 600" xmlns="http://www.w3.org/2000/svg"><title/><path d="M490.827,200.685c21.041.208,58.426,5.24,103,31.753a1.584,1.584,0,0,0,2.371-1.658c-2.646-14.224-20.338-60.33-106.949-65.394-23.8-1.391-93.351,3.626-117.3,68.738-28.616,77.81,19.489,123.266,25.593,129.185,40.9,39.667,102.88,58.958,123.369,49.542a11.018,11.018,0,0,0,6.3-8.757l1.579-13.553a3.7,3.7,0,0,0-3.062-4.09c-12.479-2.061-100.474-22.586-117.858-84.292-.744-2.639.923-4.895,3.653-4.641.047,0,.095.009.142.015a3.371,3.371,0,0,1,2.424,1.63c19.8,32.689,56.287,56.207,95.308,61.414,7.708,1.271,26.9,3.668,27.8-3.82a155.849,155.849,0,0,1,8.216-22.305c1.257-2.675.762-4.786-2.077-6.338-92.124-50.353-118.312-71.731-133.752-89.176-2.214-2.5-.321-5.855,3-5.51,34.368,3.562,135.48,57.51,149.523,66.511a4.99,4.99,0,0,0,6.2-.663s9.631-11.4,23.2-14.478a6.3,6.3,0,0,0,4.7-5.849V267.6a13.7,13.7,0,0,0-4.26-9.968c-24.738-23.365-57.824-41.206-101.746-51.878A2.571,2.571,0,0,1,490.827,200.685Z" style="fill:#c0392b"/><path d="M386.168,167.807c.563-23.8-9.864-45.145-26.544-61.669-18.772-20.147-47.9-24.549-74.15-25.754-55.634.694-80.952,48.276-85.008,67.94-8.538,41.4,23.35,91.079,56.93,105.442,37.836,16.185,82.88,7.059,88.911-12.7,6.677-21.139,20.727-38.41,32.5-56.824C382.223,179.164,385.855,174.182,386.168,167.807Zm-164.614,3.437C223.27,141.3,235.4,153.071,237.728,156.4c3.916,5.83,6.843,12.062,6.757,19.484C241.972,202.434,220.475,190.089,221.554,171.244Zm33.476-61.358c7.925-9.595,18.171-13.577,29.484-6.841,6.347,3.779,5.438,11.336-1.259,14.613C269.658,124.312,249.005,117.181,255.03,109.886Zm25.616,125.663c-5.441,2.9-12.615,2.445-17.778-11.081a44.042,44.042,0,0,1-.328-27.958c3.353-9.415,12.9-4.177,16.63-1.062,6.643,5.552,9.751,16.264,9.637,26.122A15.916,15.916,0,0,1,280.646,235.549Zm58.741-96.6a20.982,20.982,0,0,1-11.381,3.123c-9.89-.017-19.152-2.307-27.4-8.277-4.436-3.212-5.408-7.433-.775-10.2,21.365-12.741,40.51-8.788,44.88-1.057C348.307,128.905,345.4,135.1,339.387,138.95Z" style="fill:#c0392b"/><path d="M592.357,307.052c-19.818,8.931-29.882,23.231-36.441,44.6C514.463,486.682,565.772,567.233,583.345,590a1.158,1.158,0,0,0,2-1.112c-3.467-9.185-8.9-25.262-9.971-38.245a1.8,1.8,0,0,1,3.377-1.015c4.135,7.789,8.537,19.907,12.63,27.891a2.468,2.468,0,0,0,4.665-1.127V309.422A2.61,2.61,0,0,0,592.357,307.052Z" style="fill:#c0392b"/><path d="M12.143,529.662c69.066-26.5,129.6-30.773,205.055-13.743,9.583,2.163,16.8,8.077,23.956,15.524,7.724,8.037,24.265,7.885,23.522.607-1.154-13.342-11.422-38.4-17.1-51.413a14.288,14.288,0,0,0-12.725-8.57c-38.894-1.036-76.23-1.771-115.186-6.135q-28.332-2.57-56.784-2.447c-5.855-.364-24.367,1.765-38.973,9.487A36.054,36.054,0,0,0,4.9,504.909v20.282C4.9,528.912,8.67,531,12.143,529.662Z" style="fill:#c0392b"/><path d="M149.538,352.209c112.851-21.391,196.668,17.512,207.431-1.754,1.351-2.418.924-5.254-.084-7.834-10.009-25.6-11.526-45.447-12.472-54.579a5.781,5.781,0,0,0-4.526-5.082c-5.3-1.112-9.2.938-13.221,3.883-29.387,22.073-98.985,46.018-157.508,24.687-11.016-4.015-24.771-8.855-24.757,7.7,0,5.925.367,20.647.1,28.652A4.253,4.253,0,0,0,149.538,352.209Z" style="fill:#c0392b"/><path d="M9.732,261.811c14.393,8.854,50.846,34.473,64.635,74.074C83,360.691,95.9,365.542,100.434,366.059c12.09,1.59,29.751-4.818,29.188-19.293-.34-12.666.7-25.365.534-38.041-.139-10.6-4.589-14.741-11.54-17.566a23.015,23.015,0,0,0-16.832-.35,8.655,8.655,0,0,1-7.944-.926c-47.5-33.015-80.436-109.5-88.276-129.048a.934.934,0,0,0-1.8.354V172.8a14.7,14.7,0,0,0,.833,4.868,229.161,229.161,0,0,0,29.767,60.5,1.048,1.048,0,0,1-1.494,1.437c-6.65-5.088-18.571-16.532-26.894-39.491a1.153,1.153,0,0,0-2.212.463V251.1A12.566,12.566,0,0,0,9.732,261.811Z" style="fill:#c0392b"/><path d="M523.174,452.923c3.792-7.688-1.309-15.789-9.834-15.95-15.986.1-31.717-2.967-47.55-4.777-5.025-.623-10.286.024-12.907,4.571-2.538,4.4-3.386,14.917,6.462,23.624,3.473,3.071,19.963,6.581,27.171,8.363a1.245,1.245,0,0,1,.331,2.287,5.247,5.247,0,0,1-2.163.528c-4.757.358-9.512.788-14.277.969-5.169.2-7.929,1.313-7.33,6.5,6.773,58.706-5.708,109.92-6.658,115.925a1.014,1.014,0,0,0,1,1.171l4.847.025a1.832,1.832,0,0,0,1.919-1.683c1.048-12.432,3.117-20.148,4.632-24.377a1.365,1.365,0,0,1,2.63.207l4.338,23.611a2.9,2.9,0,0,0,2.807,2.378c12.148.168,23.821-.351,36.034-.045,1.51.038,2.293-.484,2.01-1.955-6.113-31.807-23.751-64.286.6-130.369C518.321,461,521.8,455.718,523.174,452.923Z" style="fill:#c0392b"/><path d="M268.932,479.961a3.356,3.356,0,0,0-2.055,4.5c4.348,10.263,7.136,21.008,9.343,31.938.751,2.542,3.276,9.729,6.2,4.99,24.5-39.693,74.787-70.692,99.839-79.318a16.819,16.819,0,0,1,12.662.724c21.5,10.165,36.215-11.594,28.645-22.294-7.6-10.746-30.39-30.276-40.4-42.159a16.249,16.249,0,0,0-20.38-3.951c-2.981,1.713-10.824,6.144-11.185,24.348-.066,3.376-1.5,5.521-3.74,7.63-9.376,8.819-34.159,33.741-81.78,59.312-4.34,2.33,1.129,5.959,4.475,4.5,21.907-9.522,48.4-27.316,57.958-35.268a1.6,1.6,0,0,1,2.455,1.918C326.375,446.762,309.2,466.834,268.932,479.961Z" style="fill:#c0392b"/><path d="M403.515,137.118A17.8,17.8,0,0,0,420.064,147a166.436,166.436,0,0,0,35.891-4.925c15-3.925,6.058-25.621-.485-32.618-9.4-10.638-15.893-23.85-17.457-37.992-1.7-15.3-6.076-40.448,2.431-63.35a2.743,2.743,0,0,0-2.553-3.722H388.06a2.152,2.152,0,0,0-1.86,3.234c8.686,15.093,18.246,37.228,19.822,49.083,2.494,18.108,2.1,26.83-5.208,53.29C399.542,114.6,398.754,127.376,403.515,137.118Z" style="fill:#c0392b"/><path d="M595.388,3.689c-3.632-.4-5.157,4.655-6.907,7.159-11.134,22.421-21.845,45.082-35.3,66.244-10.413,16.376-20.563,32.83-35.335,46.084q-.408.366-.789.734c-8.978,8.68-4.231,23.958,8.018,26.393a205.833,205.833,0,0,1,33.745,9.664c24.856,5.727,15.91-18.146,13.641-26.544-2.079-8.177,15.836-34.2,20.857-42.231a10.241,10.241,0,0,0,2.108-5.9c.322-17.625.961-70.677.777-79.574C596.184,5,595.769,3.75,595.388,3.689Z" style="fill:#c0392b"/><path d="M5.344,67.813C9.6,65.189,21.936,58.094,36.117,54.668a1.171,1.171,0,0,1,.89,2.135c-7.269,4.449-19.737,12.749-28.5,22.184A16.943,16.943,0,0,0,3.942,90.95c.266,10.414.67,31.659,0,45.622a.984.984,0,0,0,1.89.429C29.317,82.154,70.728,57.31,98.784,48.47a5.5,5.5,0,0,0,3.967-5.563c.985-14.627-72.225-.269-95.781,13.017a6.307,6.307,0,0,0-3.2,5.5v5.507A1.035,1.035,0,0,0,5.344,67.813Z" style="fill:#c0392b"/><path d="M146.531,115.822c34.2,46.882,48.247,18.511,46.826,9.386-2.406-15.456-19.369-26.517-35.462-29.79C143.457,90.906,138.086,104.243,146.531,115.822Z" style="fill:#c0392b"/><path d="M213.839,96.269c13.459-2.38,14.769-13.522,8.929-23.147C214.93,60.2,197.177,53.611,182.86,56.357c-9.091,2.224-14.033,10.183-8.411,17.629C181.72,83.615,199.792,98.946,213.839,96.269Z" style="fill:#c0392b"/></svg>