<?xml version="1.0"?><svg fill="#c0392b" data-name="Layer 4" id="Layer_4" viewBox="0 0 600 600" xmlns="http://www.w3.org/2000/svg"><title/><path d="M251.561,350.363c2.153,12.982,11.112-5.244,19.416,2.944,6.543,6.453,11.864,3.093,9.916-5.347-3.584-20.482-7.494-38.808-10.564-53.809-.464-2.266-3.338-2.26-4.271-.143C255.284,318.445,250.809,345.829,251.561,350.363Z" style="fill:#c0392b"/><path d="M579.819,283.433a7.229,7.229,0,0,0-9.21-8.691c-11.478,2.489-28.356,24.418-8.978,27.971C569.653,301.086,577.917,291.316,579.819,283.433Z" style="fill:#c0392b"/><path d="M271.116,174.429c-2.84-6.237-11.493,1.925-13.583,4.6-.713.914-.541,3.534.427,4.546C262.165,187.975,272.346,177.128,271.116,174.429Z" style="fill:#c0392b"/><path d="M179.049,391.83c-2.067-2.9-3.6-2.534-6.527-.194q-.964.771-1.924,1.549a70.85,70.85,0,0,0-19.091,24.121C108.77,505.087,38.925,502.659,31.794,565.753c-.444,3.924,5.666-1.1,7.8-3.154,59.689-54.2,57.515-44.653,114.335-4.5a211.968,211.968,0,0,0,79.27,34.852c60.855,12.562,119.572-3.861,159.282-69.729C479.307,379.2,513.091,436.367,541.122,322.485c-3.645-3.95-21.856,27.439-57.217,24.468-5.058-.425-6.9,2.959-8.225,7.487-26.287,89.816-86.187,101.1-111.711,132.715a2.423,2.423,0,0,1-4.27-2.027c2.595-11.195,8.852-28.139,23.734-38.26,11.381-7.741,51.394-26.787,65.656-84.842,37.337-151.992,89.524-70.966,103.176-211.738,2.574-5.789-4.252-10.755-9.118-7.165-5.5,3.2-10.941,6.52-16.394,9.814a20.843,20.843,0,0,1-31.628-18.321c.591-22.878,14.548-59.8,69.857-114.565,2.57-2.987,7.109-7.736,3.273-11.481-4.074-3.507-8.338,1.768-12.573,2.639-30.423,11.366-66.233.555-93.5,20.427C447.821,42.6,405.378,55.07,381.567,61.477a5.772,5.772,0,0,1-6.086-9.078c8.3-10.875,18.982-25.873,22.353-35.091C401.873,6.265,397.519,1.4,385.869,3.72c-9.673,1.93-19.329,4.022-28.877,6.489-29.982,7.2-50.287,15.228-84.027,36.136-26.654,19.436-93.642-6.045-140.7,56.623C114.771,131,93.128,155.937,77.152,184.923c-23.976,43.5-48.6,27.377-57.144,66.691a2.773,2.773,0,0,0,4.671,2.55C43.3,235.12,66.092,228.86,80.6,205.522c36.3-58.39,67.72-80.653,91.513-85.828,15.4-3.35,11.756,3.678,3.863,10.756-9.518,8.534-19.85,16.271-28.57,23.5-33.444,23.784-45.127,64.81-68.578,96.76-9.077,9.737-24.431,13.175-36.549,35.62a85.161,85.161,0,0,0-8.609,25.127c-9.269,50.438-8.619,104.715,12.608,151.61a20.149,20.149,0,0,0,28.053,9.675c12.735-6.847,29.8-21.374,45.808-52.183,13.81-36.637,53.745-40.9,81.46-78.223a123.543,123.543,0,0,1,16.369-17.865c13.266-12.008,25.941-24.408,32.112-41.026,12.642-34.047-5.727-47.886-27.645-52.619-4.652-1.417-4.966-2.285-2.383-6.475,3.55-5.347,8.006-10.063,12.142-14.96,1.751-2,3.243-4.15,1.054-6.493-2.679-2.88-6.288-.53-8.844,1.324-13.132,9.735-28.632,17.206-37.376,31.679-12.225,17.579-12.732,33-16.327,53.534-3.775,21.567,6.64,37.457,11.668,43.662a11.262,11.262,0,0,1,2.229,9.923c-3.728,14.07-24.182,27.915-32.133,20.487-28.659-26.776-33.575-102.97-3.673-147.988,78.76-118.573,171.111-63.8,195.226-46.04a6.438,6.438,0,0,1,.612,9.845c-28.726,27.5-49.793,29.435-58.726,78.83-3.941,21.793,1.7,41.261,18.633,58.663,15.565,16,37.607,12.837,48.484-6.656,25.17-45.105,23.59-73.335-9.733-94.705-4.243-2.721-12.6-9.437-5.455-16.194,35.275-33.376,44.359-50.765,80.219-67.883a4.171,4.171,0,0,1,5.167,6.228c-9.128,12.373-24.3,31.036-29.758,40.056-9.714,15.328-7.032,30.763,4.433,48.695a77.507,77.507,0,0,1,10.948,26.92c4.986,25.715,3.7,59.842-37.843,94.15-28.594,22.8-40.334,46.835-60.572,91.647-3.687,8.164-14.458,11.028-11.288-5.041,5.144-26.074,20.926-58.429,12.88-59.442-9.09-1.144-10.849,25.935-18.159,41.166-4.668,9.883-12.56,3.772-12.56-3.64,0-9.215,10.019-36.539,2.4-38.927-5.231-1.639-13.769,27.838-19.544,49.634-1.745,6.589-8.753,3.183-9.969-.016-2.708-7.122-5.893-16.142-2.708-34.3,1.377-7.85-3.631-21.479-7.636-10.725a277.714,277.714,0,0,0-12.2,44.785c-.5,2.677-3.661,3.677-5.119,1.377-4.7-7.419-11.228-20.076-12.756-35.027a64.946,64.946,0,0,0-.922-7.113,3.169,3.169,0,0,0-6.095-.316c-7.915,23.635,2.42,83.258,14.025,107.341a1.308,1.308,0,0,0,2.463-.358c2.219-12.29,6.632-28.411,13.093-23.368,6.824,5.326-1.589,45.733,7.97,45.713,10.365-.021,5.748-57.126,21.322-56.267,14.63.807-6.286,51.982,2.962,53.7,6.67,1.24,6.246-34.249,18.558-30.6,7.694,2.28,3.328,23.483-.391,32.335-.912,2.17-1.765,6.188.7,5.513,15.971-4.379,10.426-58.778,46.287-89.512a3.311,3.311,0,0,1,5.185,3.83c-6.175,14.014-17.563,16.882-26.591,70.465-9.013,53.5-43.88,43.616-65.843,41.42-26.348-3.343-46.755-15.761-45.828-45.231C202.037,452.732,181.879,395.808,179.049,391.83Zm282.7-304.84a6.994,6.994,0,0,1,6.6,10.292c-2.786,7.6-19.287,18.418-21.345,5.021C446.889,96.351,455.772,87.125,461.748,86.99ZM352.768,404.813c1.85-3.253,10.832-12.852,14.5-6.257,1.588,2.854-8.627,15.661-13.63,11.209C352.488,408.74,351.264,407.457,352.768,404.813Z" style="fill:#c0392b"/></svg>