<?xml version="1.0" ?><svg fill="#c0392b" data-name="Layer 4" id="Layer_4" viewBox="0 0 600 600" xmlns="http://www.w3.org/2000/svg"><title/><path d="M585.671,311.572c-.009-4.791-5.085-10.839-11.1-9.583-125.047,11.158-249.953,81.068-304.56,197.358-3.6,8.02-24.17,56.16-29.218,72.909-2.222,7.373-2.276,13.283,2.774,19.329,1.81,2.166,3.425,3.266,6.132,3.376,112.416,5.25,318.325-17.878,331.987-217.575.306-4.469-5.773-7.031-8.207-3.271-40.082,61.913-90.344,90.2-101.9,98.1-1.9,1.3-4.737-1.268-3.076-2.867C516.942,422.724,585.735,345.681,585.671,311.572Zm-145.226,188.6c-3.392.008-5.527-2.378-4.819-5.389,1-5.395,13.986-11.97,14.414-3.4C449.365,495.133,443.815,500.163,440.445,500.171Z" style="fill:#c0392b"/><path d="M514.5,287.846c-17.446-5.346-61.436-11.636-141.639,10.306-5.373,1.47-44.378,13.864-39.895,20.525,1.446,2.343,3.957.67,5.825-.239a226.273,226.273,0,0,1,54.819-17.609,1.555,1.555,0,0,1,.851,2.973c-16.976,6.828-34.053,13.5-50.435,21.864-9.011,3.878-3.465,16.272,1.185,24.04A4.193,4.193,0,0,1,340.812,356c-12.181-2.492-33.221-15.306-37.531-73.183-5.88-78.956,3.069-143.753-94.508-113.069-11.484,3.333-23.232,5.869-34.837,8.819C100.682,197.185,61.9,139.425,47.525,110.682a2.044,2.044,0,0,1,3.4-2.231c20.894,25.115,71.652,76.169,125.66,56.44a1.593,1.593,0,0,0-.13-3.034c-48.321-13.251-61.108-88.981-158.723-94.864a3.21,3.21,0,0,0-3.29,4.025c7.181,27.224,13.5,54.8,24.534,80.8C67.588,218.538,146.23,205.226,205.2,183.058c48.347-18.175,71.993-4.867,71.475,31.991-1.769,23.732-9.515,46.3-17.64,68.31-20.356-14.9-58.2-21.782-75.5-22.759-37.087-2.093-74.356,5.928-99.49,33.143-2.507,2.516-1.8,4.714,1.009,6.909,51.49,40.289,111.814,5.1,128.141-5.888a2.26,2.26,0,0,0-.821-4.092c-27.791-5.38-64.79-4.607-94.823-1.02a1.457,1.457,0,0,1-.676-2.813c34.156-16.594,84.687-27.395,136.76,11.178,11.652,8.631-23.353,66.8,33.469,117.268,5.379,4.778,9.129,2.526,13.165-.906,55.513-58.657,119.381-90.473,214.213-119.876A3.484,3.484,0,0,0,514.5,287.846Z" style="fill:#c0392b"/><path d="M334.615,139.606c16.151-6.96,52.8-17.789,67.664-57.944,8.932-24.131,12.166-49.157,8.531-74.413-.218-2.868-1.512-3.352-3.92-2.42C371.458,16,338.13,34.718,313.572,62.95c-19.087,21.145-14.823,50.562-9.55,76.253,1.888,10.718,4.527,21.409-.482,31.654a6.943,6.943,0,0,0,.1,6.333,47.743,47.743,0,0,1,5.078,16.777,1.1,1.1,0,0,0,2.095.307c3.291-7.7,4.317-13.095,4.983-25.1,2.575-46.421,21.711-91.574,55.752-123.51a2.11,2.11,0,0,1,3.321,2.5C359.59,78.131,341.965,105.514,334.615,139.606Z" style="fill:#c0392b"/><path d="M227.768,545.4c11.385-31.382,25.04-61.73,42.545-90.253,3.653-6.039,4.558-12.255,1.149-18.42-4.7-8.5-9.778-16.79-15.09-25.7a2.956,2.956,0,0,0-4.826-.349c-22.362,27.144-44.274,79.5-29.034,134.534A2.763,2.763,0,0,0,227.768,545.4Z" style="fill:#c0392b"/></svg>