<?xml version="1.0" ?><svg fill="#c0392b" data-name="Layer 4" id="Layer_4" viewBox="0 0 600 600" xmlns="http://www.w3.org/2000/svg"><title/><path d="M253.47,226.532c-1.25-4.493,1.974-9.508,6.631-9.261,55.554,2.944,79.464-3.188,89.66-8.331a3.08,3.08,0,0,0-1.4-5.823c-39.223-.066-120.182-5.333-127.984-38.254-1.548-6.53-1.227-12.861,3.627-18.294,2.193-2.454,4.344-3.424,7.833-2.764a410.607,410.607,0,0,0,76.448,7.42c24.936,0,49.711-2.043,73.629-9.269,36.85-11.133,47.465,37.105,29.163,44.357-3.631,1.439-18.668,2.2-17.965,23.723,1.388,42.489-3.993,78.509,19.356,174.193,8.927,36.58,13.208,57.392,15.227,68.386a10.851,10.851,0,0,1-8.907,12.674c-28.852,4.736-116.4,15.3-262.5.722-10.249-1.023-17.98-7.912-16.479-18,13.73-92.266,76.756-98.742,109.837-95.837,18.987,1.667,44.371,17.912,55.133,25.364,1.824,1.263,3.818-.62,3.1-2.721-5.085-14.968-13.871-27.319-39.514-36.337-3.38-1.189-4.36-4.648-3.94-8.427C270.986,271.019,258.656,245.168,253.47,226.532Z" style="fill:#c0392b"/><path d="M399.991,79.721c6.542-3.918,18.6,5.517,18.849,12.956-.115,7.745-8.118,11.759-13.953,14.929-32.894,15.457-69.271,21.771-105.246,22.969-28.415,1.205-55.884-5.564-82.354-15.7-6.624-2.6-12.447-6.482-16.513-12.76-7.231-10.354,1.343-18.829,6.9-27.4,3.278-4.421,3.656-8.86,1.493-13.9-6.046-14.1-11.936-28.261-17.868-42.408-1.912-4.017-5.122-11.177,1.63-11.961,75.3-.49,150.653,0,225.968-.184,8.5,0,17-.248,25.494-.156,5.968.438,9.906,17.866-12.255,22.536-16.554,3.489-17.613,15.688-16.741,18.6,1.682,5.621-.5,9.575-5.03,12.666-24.344,18.308-58.729,25.48-92.013,29.388a2.269,2.269,0,0,0-.058,4.5C336.666,96.532,369.808,97.8,399.991,79.721Z" style="fill:#c0392b"/><path d="M29.69,572.429c54.466-42.195,31.285-78.975-15.269-89.564a2.24,2.24,0,0,1,.139-4.4c58.089-8.984,55.164-54.38,9.3-72.568-2.6-1.029-.69-5.189,2.033-4.578,22.321,5.008,66.069,16.976,93.88,38.6,1.936,1.5-3.057,2.261-5.4,2.766-58.73,12.644-37.449,47.435-12.555,59.912,61.466,30.807,166.793,26.2,211.853,22.464a4.982,4.982,0,0,1,3.713,8.688c-10.023,9.063-20.575,24.951-20.653,51.7-.006,2.04-.586,4.022-3.214,4.383-2.612.359-2.724-1.877-3.645-3.343-9.976-18.459-22.974-39.994-52.448-41.77-38.857-2.34-54.837,32.1-57.724,42.751a1.645,1.645,0,0,1-3.054.316c-38.766-74.52-93.251-38.807-144.131-11A2.6,2.6,0,0,1,29.69,572.429Z" style="fill:#c0392b"/><path d="M584.65,499.642c4.46.53,2.943,8.051-1.493,8.757-15.848,2.522-43.405,2.25-54.319,3.139-27.275,2.02-124.76,1.414-74.244,77.984,1.965,2.979-4.053,6.093-6.283,3.3-20.064-25.081-31.721-42.5-68.078-63.791a6.146,6.146,0,0,1,1.932-11.341c30.725-5.859,113.508-18.636,125.258-46.363,3.125-7.374,1-42.282-53.348-49.18a15.239,15.239,0,0,1-11.331-9.168l-3.65-10.393a4.1,4.1,0,0,1,1.958-4.981c15.559-8.212,58.454-28.212,59.885-27.885,4.308.982,4.515,2.59,2.037,6.28-11.73,17.233-17.565,28.655,5.869,38.128,18.337,6.071,53.719,5.043,70.747,4.109,3.419-.188,6.41,5.4,3.136,6.407C539.037,438.043,518.392,491.774,584.65,499.642ZM491.2,493.677a.825.825,0,0,0,.569,1.534c23.571-5.252,42.9-10.854,42.862-28.417-.04-17.214-14.324-24.372-22.386-27.042a2.008,2.008,0,0,0-2.328,2.985C528.01,470.794,508.91,484.464,491.2,493.677Z" style="fill:#c0392b"/><path d="M534.625,180.188c-2.992,34.8-9.623,70.581-22.689,98.624-2.847,6.111-24.79,25.073-44.811,43.087-2.667,2.4-10.933,4.282-10.351.742,2.613-15.882,51.58-112.415,71.858-144.188C530.383,175.711,534.9,176.947,534.625,180.188Z" style="fill:#c0392b"/><path d="M142.1,173c21.741,13.5,43.682,71.473,52.562,97.219a3.147,3.147,0,0,1-5.269,3.182c-29.37-31.306-76.952-100.222-77.249-111.173-.078-2.892,1.863-5.219,4.38-3.793C123.942,162.641,135.2,169.183,142.1,173Z" style="fill:#c0392b"/><path d="M91.852,304.265a3.008,3.008,0,0,1-3.125,5.065c-23.8-10.247-66.69-29.2-73.793-35.706-3.474-3.183-2.7-7.313,1.577-9.24,1.989-.9,4.74-1.55,6.722-.814C54.123,275.048,78.149,292.649,91.852,304.265Z" style="fill:#c0392b"/><path d="M472.984,237.392a2.454,2.454,0,0,1-4.677-1.384c.783-4.574,18.378-58.354,47.107-107.61,1.332-2.285,2.335-4.086,5.239-3.121,2.369.787,3.142,2.562,1.825,5.718C510.232,161.566,475.676,230.966,472.984,237.392Z" style="fill:#c0392b"/><path d="M126.365,409.24c1.566,1.032,3.12,2.359,2.007,4.487-1.261,2.409-3.37,1.676-5.233.847-5.145-2.29-94.274-43.351-89.4-49.351S97.12,389.951,126.365,409.24Z" style="fill:#c0392b"/><path d="M192.935,310.664c-1.467,6.708-18.184-2.071-33.02-23.731-3-4.378-12.74-17.961-19.694-28.307a1.806,1.806,0,0,1,2.722-2.335C158.5,270.628,186.038,297.079,192.935,310.664Z" style="fill:#c0392b"/><path d="M530.294,98.09c-1.029,3.049.805,7.673,4.075,5.811,3.482-1.234,7.055-11.1,3.222-13.031a2.633,2.633,0,0,0-2.442.148C532.93,92.255,531.171,95.365,530.294,98.09Z" style="fill:#c0392b"/><path d="M116.28,234.661c2.226,2.323,7.174,2.837,7.037-.923.518-3.658-6.575-11.392-10.06-8.887a2.629,2.629,0,0,0-1,2.232C112.327,229.623,114.27,232.622,116.28,234.661Z" style="fill:#c0392b"/><path d="M537.155,345.29c-2.648,1.829-3.941,6.632-.207,7.094,3.53,1.092,12.292-4.682,10.372-8.52a2.628,2.628,0,0,0-2.045-1.341C542.756,342.187,539.487,343.629,537.155,345.29Z" style="fill:#c0392b"/></svg>