<svg width="600" height="600" viewBox="0 0 600 600" fill="none" xmlns="http://www.w3.org/2000/svg">
<g clip-path="url(#clip0_1352_1942)">
<path d="M599.491 461.882V364.824C599.49 363.241 598.865 361.721 597.752 360.595C596.639 359.469 595.127 358.827 593.544 358.807C558.644 358.324 523.984 353.223 509.114 319.918C479.438 258.067 474.457 188.473 466.553 120.918C465.473 111.691 464.699 102.424 464.522 93.1361C464.086 70.3111 452.337 60.9361 447.447 65.3271C422.296 97.1961 436.047 212.856 438.788 230.303C439.164 232.674 440.086 234.925 441.482 236.878C442.878 238.831 444.709 240.433 446.831 241.556C457.162 247.029 476.237 261.417 478.567 293.743C480.118 305.774 479.557 324.854 481.034 336.893C484.243 373.278 512.669 363.593 509.062 392.955C509.008 393.431 508.8 393.876 508.469 394.222C508.138 394.568 507.702 394.796 507.229 394.87C506.756 394.945 506.271 394.862 505.85 394.635C505.428 394.407 505.093 394.048 504.896 393.611C502.382 387.811 498.502 382.705 493.587 378.73C446.412 349.21 475.987 299.222 457.264 273.646C452.934 267.732 448.535 264.594 444.485 263.109C436.142 260.05 427.716 267.344 429.185 276.109C444.747 369.176 398.624 469.75 461.585 462.443C550.452 452.13 567.975 463.318 593.031 467.334C593.824 467.467 594.637 467.426 595.413 467.214C596.188 467.001 596.908 466.622 597.523 466.104C598.138 465.585 598.632 464.939 598.972 464.21C599.312 463.481 599.489 462.686 599.491 461.882Z" fill="white"/>
<path d="M284.855 488.819C186.201 535.311 86.9132 585.087 -8.22478 638.454C-17.6116 643.722 -28.278 646.277 -39.0329 645.834C-49.7877 645.391 -60.2077 641.967 -69.1291 635.944L-130.418 594.563C-130.854 594.268 -131.197 593.855 -131.406 593.372C-131.615 592.889 -131.681 592.356 -131.597 591.836C-131.512 591.317 -131.281 590.832 -130.93 590.44C-130.579 590.048 -130.123 589.764 -129.616 589.622C32.8669 544.015 193.895 491.768 347.73 422.078C348.129 421.896 348.576 421.85 349.004 421.946C349.431 422.041 349.816 422.274 350.099 422.609C350.382 422.944 350.547 423.362 350.571 423.799C350.594 424.237 350.474 424.67 350.228 425.033L337.857 443.355C324.601 463.002 306.29 478.709 284.855 488.819Z" fill="white"/>
<path d="M392.353 203.237C333.366 84.5306 237.297 -121.953 217.803 -163.941C217.38 -164.853 217.229 -165.843 217.361 -166.839C217.492 -167.836 217.903 -168.812 218.563 -169.697C219.223 -170.582 220.116 -171.353 221.175 -171.952C222.233 -172.552 223.432 -172.965 224.681 -173.161L329.29 -189.674C330.426 -189.853 331.579 -189.855 332.683 -189.679C333.787 -189.503 334.82 -189.153 335.722 -188.649C336.624 -188.145 337.378 -187.497 337.941 -186.743C338.503 -185.988 338.862 -185.141 338.998 -184.251L398.006 201.8C398.093 202.357 397.917 202.934 397.51 203.424C397.104 203.914 396.496 204.282 395.8 204.458C395.105 204.635 394.37 204.608 393.735 204.383C393.1 204.158 392.609 203.75 392.353 203.237Z" fill="white"/>
<path d="M380.741 439.386C380.637 442.693 379.693 445.919 377.997 448.76C324.326 538.752 275.798 632.079 227.69 725.256C224.155 732.115 221.344 732.448 216.076 731.952C215.595 731.904 215.133 731.74 214.729 731.473C214.325 731.207 213.992 730.846 213.759 730.423C213.526 729.999 213.4 729.525 213.391 729.041C213.382 728.557 213.491 728.079 213.709 727.647C265.831 624.085 320.908 522.103 377.458 420.899C377.681 420.499 378.032 420.187 378.454 420.011C378.877 419.835 379.346 419.805 379.787 419.927C380.227 420.05 380.614 420.316 380.886 420.685C381.157 421.053 381.297 421.502 381.283 421.959L380.741 439.386Z" fill="white"/>
<path d="M327.642 299.906C331.68 298.444 335.587 296.643 339.32 294.521C339.6 294.342 339.824 294.089 339.968 293.79C340.113 293.491 340.171 293.158 340.137 292.827C340.103 292.497 339.978 292.183 339.776 291.919C339.574 291.656 339.302 291.454 338.992 291.336C315.458 282.478 273.758 278.693 273.758 278.693C267.963 276.249 265.268 287.352 265.398 290.535C268.203 310.856 271.48 331.571 274.297 351.891C276.206 363.803 303.512 377.184 316.635 384.423C317.068 384.663 317.448 384.987 317.753 385.376C318.058 385.766 318.281 386.212 318.41 386.69C318.539 387.167 318.57 387.666 318.503 388.155C318.435 388.645 318.269 389.117 318.016 389.541C314.258 395.995 309.233 401.621 303.243 406.082C297.968 409.837 291.724 406.638 286.977 403.23C271.014 391.772 253.652 382.869 236.04 374.369C229.504 371.213 213.924 362.341 192.401 360.924C176.119 359.852 151.636 363.352 134.539 363.631C133.814 363.643 133.112 363.379 132.574 362.893C132.036 362.407 131.702 361.735 131.64 361.013C131.576 360.278 131.797 359.547 132.257 358.97C132.718 358.394 133.383 358.017 134.114 357.918C134.114 357.918 234.123 346.464 232.726 339.832C231.855 335.695 195.993 335.32 195.993 335.32C193.215 335.308 191.937 334.323 190.931 331.792C178.028 301.123 166.585 274.747 151.928 245.538C151.718 245.121 151.378 244.783 150.959 244.577C150.539 244.372 150.064 244.309 149.606 244.398C149.147 244.488 148.731 244.725 148.42 245.074C148.109 245.422 147.921 245.863 147.884 246.329L146.446 264.827C147.014 269.644 144.6 271.995 139.852 271.487C5.75337 257.178 -198.911 297.354 -230.71 303.855C-230.997 303.914 -231.295 303.879 -231.562 303.757C-231.828 303.635 -232.049 303.432 -232.192 303.176C-232.336 302.92 -232.394 302.626 -232.359 302.335C-232.325 302.044 -232.198 301.771 -231.999 301.557L-226.718 295.828C-224.496 293.417 -221.677 291.636 -218.546 290.663C-203.095 285.863 -151.511 271.12 -75.0898 262.376C-74.5559 262.284 -74.0755 261.997 -73.7421 261.57C-73.4087 261.143 -73.2461 260.607 -73.2862 260.067C-73.3262 259.527 -73.5659 259.021 -73.9586 258.648C-74.3514 258.274 -74.8689 258.061 -75.4105 258.048C-75.4105 258.048 -123.753 250.801 -185.186 259.35C-185.916 259.453 -186.661 259.328 -187.318 258.993C-187.975 258.657 -188.512 258.126 -188.856 257.473C-189.2 256.821 -189.334 256.078 -189.239 255.346C-189.145 254.614 -188.827 253.93 -188.329 253.385L-81.0185 135.823C-75.9236 130.238 -69.5153 126.012 -62.3744 123.529C-55.2336 121.046 -47.586 120.385 -40.1248 121.605C36.4743 134.129 117.714 145.636 193.748 160.28C206.813 162.777 219.6 166.555 231.924 171.56C281.565 191.811 330.407 214.231 379.563 235.649C385.711 238.368 387.061 241.804 385.983 248.263C378.514 289.132 375.579 331.065 382.08 372.276C382.77 377.843 381.881 379.275 376.231 380.359C373.912 380.804 369.111 381.225 364.827 381.537C359.371 381.957 353.893 381.089 348.834 379.003C330.637 371.409 313.379 361.921 296.437 351.847C294.002 350.37 291.928 348.367 290.369 345.984C288.81 343.6 287.804 340.898 287.426 338.075C285.433 325.141 283.833 312.143 282.243 299.151C281.82 295.699 283.383 294.358 286.826 294.223C310.809 293.283 319.439 331.948 325.258 331.206C330.368 330.555 326.574 315.534 324.661 305.221C324.458 304.126 324.645 302.995 325.189 302.024C325.734 301.053 326.602 300.303 327.642 299.906Z" fill="white"/>
<path d="M73.4308 -12.2298L98.2043 -24.4528C101.167 -25.9313 104.506 -26.4847 107.787 -26.0412C111.068 -25.5977 114.141 -24.1777 116.605 -21.9657C123.381 -15.8798 132.607 -7.56377 137.647 -2.87187C199.809 54.9087 300.025 142.658 348.217 194.761C348.718 195.304 348.996 196.015 348.997 196.753C348.997 197.491 348.72 198.203 348.22 198.746C347.72 199.289 347.034 199.624 346.298 199.684C345.562 199.745 344.831 199.526 344.249 199.071L73.4308 -12.2298Z" fill="white"/>
<path d="M-152.829 373.466C-85.0389 367.884 48.6665 367.611 70.3934 367.604C71.2421 367.604 72.0643 367.9 72.7185 368.44C73.3728 368.981 73.8182 369.732 73.9782 370.566C74.0715 371.054 74.0643 371.555 73.957 372.04C73.8498 372.525 73.6447 372.983 73.3545 373.386C73.0642 373.789 72.6948 374.128 72.2688 374.383C71.8429 374.639 71.3693 374.804 70.8772 374.87C53.5286 377.201 -48.4894 395.535 -96.1307 404.142C-103.781 405.525 -111.649 405.12 -119.117 402.959C-126.586 400.798 -133.453 396.939 -139.183 391.684C-144.599 386.716 -150.168 381.565 -154.301 377.63C-154.639 377.308 -154.877 376.895 -154.986 376.441C-155.094 375.987 -155.069 375.511 -154.914 375.071C-154.758 374.631 -154.479 374.245 -154.109 373.961C-153.739 373.676 -153.294 373.504 -152.829 373.466Z" fill="white"/>
<path d="M98.1459 362.464C94.9855 362.978 91.7717 366.745 94.9323 368.754C97.8858 371.468 109.924 369.494 107.598 364.287C105.774 362.119 101.444 361.879 98.1459 362.464Z" fill="white"/>
</g>
<defs>
<clipPath id="clip0_1352_1942">
<rect width="600" height="600" fill="white"/>
</clipPath>
</defs>
</svg>
