<?xml version="1.0" ?><svg fill="#c0392b" data-name="Layer 4" id="Layer_4" viewBox="0 0 600 600" xmlns="http://www.w3.org/2000/svg"><title/><path d="M171.4,430.963a2.882,2.882,0,0,0,5.014,2.4c25.987-30.39,25.255-79.926,22.727-102.707a16.854,16.854,0,0,1,8.59-16.578c7.139-3.979,22.708-11.126,33.307-15.893a59.886,59.886,0,0,1,30.3-5.152c9.527.924,18.6,3.48,28.432,7.424,24.023,9.033,75.76,34.628,97.379,45.461a1.786,1.786,0,0,0,2.022-2.9A227.154,227.154,0,0,0,345.6,306.2a4.267,4.267,0,0,1-1.245-6.726L374.9,266.59l-.533-.7c-9.124,4.759-34.471,17.184-46.579,23.1a1.331,1.331,0,0,1-1.52-2.144c21.564-20.9,65.433-44.466,93.859-54.748,8.37-3.228,16.579-2.279,25.462-.631,36.105,6.7,71.218,30.578,94.99,31.227,12.4.338,24.548-.05,36.465-3.847,5.558-1.77,12.018,2.144,13.438,8.245.808,3.473.489,211.536.418,252.563a6.825,6.825,0,0,1-7.141,6.813c-16.64-.778-59.641-5-99.228-27.453-21.826-12.379-40.784-56.811-49.848-78.226a2.166,2.166,0,0,0-4.146,1.1c6.986,45.617,28.745,75.927,34.487,79.721,47.069,33.529,64.9,39.709,120.527,47.531a6.35,6.35,0,0,1,5.47,6.287v38.09l-150.345-.188c-6.087-.483-8.383-3.063-8.018-9.2.689-13.155-5.98-27.391-16.5-35.129.389,2.214.464,3.293.774,4.3,3.235,10.542,3.426,21.323,2.535,32.181-.106,1.289-.283,2.9-1.082,3.723-2.808,2.881-5.557,2.614-7.637-.889-.6-1-.451-2.6-.3-3.892,1.863-16.052-2.182-30.812-10.279-44.464-4.149-7-9.1-13.535-13.913-20.112-3.947-5.39-3.343-7.452,2.14-11.061,6.009-3.956,21.808-14.37,31.162-20.3a2.075,2.075,0,0,0-1.341-3.815c-30.482,3.616-84.4,26.078-101.629,26.984-36,1.893-71.979.166-107.947-1.037-13.532-.453-25.866,4.054-38.559,7.294-41.521,10.624-84.149,24.5-127.339,22.627A20.774,20.774,0,0,1,23.3,524.108l-8.826-41.692A253.17,253.17,0,0,1,15.75,371.791c1.69-7.151,3.247-14.328,4.542-21.557C41.584,244.544,71.549,132.043,107.48,29.566A30.659,30.659,0,0,1,129.89,9.705c14.045-3.031,89.833-5.464,120.821.153,3.89.705,5.813,2.015,7.223,5.483,11.281,26.619,29.413,74.29,38.209,97.625a11.64,11.64,0,0,1-9.185,15.62c-14.6,2.168-30.62,4.75-44.163,5.75a11.385,11.385,0,0,1-8.441-2.911c-8.739-7.856-29.722-27.329-25.778-29.746,4.677-2.864,10.989-1.43,14.1-.43a18.287,18.287,0,0,1,2.892,1.237c4.337,2.281,9.018,3.941,13.494,5.984,2.792,1.275,4.54-.543,5.634-3.386a12.8,12.8,0,0,0-8.329-16.677C203.62,78.319,181.269,80.356,171,83.451c-3.594,1.083-7.528,3.3-8.873,12.444-8.066,54.854-6.86,119.221,3.014,172.83C185.019,376.633,178.663,391.5,171.4,430.963Z" style="fill:#c0392b"/><path d="M285.5,29.932a4.679,4.679,0,0,1,4.322-6.113c10.93-.35,20.115,4.434,21.037,17.4.423,6.308,3.613,40.74,4.778,51.652-.053,3.968,2.49,12.911-3.1,13.728-2.6.313-4.051-1.478-4.672-3.678C301.568,78.06,293.455,54.337,285.5,29.932Z" style="fill:#c0392b"/><path d="M326.67,54.41a3.807,3.807,0,0,1,6.052-3.335,87.033,87.033,0,0,1,8.594,6.936c2.037,1.924,3.106,5.56,3.423,8.475,1.225,11.281-2.624,34.119-4.448,43.974a7.247,7.247,0,0,1-7.008,6.02c-1.924-.007-3.409-.669-3.464-2.619C329.8,97.328,327.674,68.449,326.67,54.41Z" style="fill:#c0392b"/></svg>