<?xml version="1.0" ?><svg fill="#c0392b" data-name="Layer 4" id="Layer_4" viewBox="0 0 600 600" xmlns="http://www.w3.org/2000/svg"><title/><path d="M339.376,25.407A48.1,48.1,0,0,0,321,9.438c-55.024-24.557-91.888,26.809-87.885,78.076a2.253,2.253,0,0,1-3.227,2.211c-1.4-.678-2.732-1.339-4.038-2.054-5.524-2.938-12.416,2.054-12.154,7.822-.617,11.115,1.028,21.676,10.1,29.514,4.692,4.054,9.094,8.576,15.3,10.476a5.092,5.092,0,0,1,2.395,1.652c9.59,14.241,12.484,24.837,30.4,31.761,1.976,1.062,56.159,20.616-4.144,8.654A2.506,2.506,0,0,0,264.732,180c.051,14.909-.456,43.418-54.668,26.594-14.531-4.51-40.275-6.209-67.817,24.5-12.567,14.013-24.432,4.438-49.111,20.932-8.18,5.467-15.977,16.29-19.847,22.169a1.269,1.269,0,0,1-2.321-.809,49.9,49.9,0,0,1,16.483-33.551,12.662,12.662,0,0,0,3.719-8.7c-.7-22.325-17.614-26.613-6.867-65.679,12.21-44.384,4.031-22.653,41.818-39.285,1.806-.7,2.8-.117,3.246,1.709.431,1.79.124,3.16-1.695,4.088a55.318,55.318,0,0,0-8.246,5.127,3.139,3.139,0,0,0-.678,4.443c1.479,1.832,3.653,2.195,6.322,2.079,3.752-.161,12.015-1.931,16.4-2.922a2.947,2.947,0,0,0,2.227-3.521c-1.7-7.6-6.338-28.174-8.15-34.808-1.265-4.631-4.479-6.533-9.1-6.624-13.569-.881-27.2-.9-40.8-1.075-2.221-.013-4.687.391-6.161,2.459C50.691,132.079,17.709,212.476,12.413,266.557c-.584,5.958-.364,19.229-.147,27.587a12.483,12.483,0,0,0,7.24,11.024c18.8,8.646,40,9.3,60.328,11.969,13.126,1.77,26.222,3.761,39.33,5.667,11.562,1.681,22.814,4.368,33.179,10.036,9.309,4.422,19.335,8.614,29.778,8.616a3.6,3.6,0,0,0,3.393-4.816c-3.971-11.193-8.3-29.924-7.828-44.51a1.982,1.982,0,0,1,3.823-.676c3.268,8.282,8.262,21.172,9.631,26a23.459,23.459,0,0,0,15.618,16.274c11.368,3.138,42.1,12.077,62.108,17.264a16.669,16.669,0,0,0,20.83-15.17c.742-12.8,2.462-32.195,2.353-48.277-.106-15.659-10.833-28.846-24.811-35.9-6.778-3.421-18.153-8.908-37.668-9.117a1.848,1.848,0,0,1-.5-3.623c14.352-4.112,37.145-9.11,65.624,13.784,4.672,3.755,6.44,3.24,8.534,1.625,31.186-24.052,58.413-19.07,70.914-15.42a1.764,1.764,0,0,1-.3,3.442c-18.582,2.146-67.5,10.579-69.166,41.4-.955,17.673.788,35.873,0,53.541-1.523,10.366,11.3,14.3,15.911,14.26,30.507-.242,64.95-10.335,67.448-11.725,12.814-7.129,13.693-8.4,17.789-22.374,1.134-5.611,4.407-13.672,7.233-20.389a1.817,1.817,0,0,1,3.489.628c.642,11.737-.727,23.052-5.067,38.185a4.421,4.421,0,0,0,4.774,5.627c20.217-2.6,39.239-13.918,59.6-14.746,84.83-3.451,100.128-18.989,111.467-31.558,2.536-2.478-3.053-36.493-6.177-50.472-4.4-23.529-32.125-114.113-61.338-144.312a19.464,19.464,0,0,0-12.4-5.072l-37.964.471c-4.072.4-6.723,2.21-7.926,6.142-1.386,4.531-7.439,28.607-8.718,36.179-.926,5.487-.54,5.7,4.8,5.63,4.758-.063,21.083-2.977,21.083-2.977a2.259,2.259,0,0,0-.86-3.153c-4.4-2.31-13.1-5.153-9.221-11.331.331-.527,2.107,0,3.087.382,8.711,3.426,17.5,6.6,26.971,6.958,5.714-1.592,14.792,29.555,15.341,34.738,3.593,33.909-11.431,37.172-9.922,64.209a6.754,6.754,0,0,0,2.74,5.1c5.217,3.792,17,14.426,19.233,34.358a1.723,1.723,0,0,1-3.135,1.157c-7.393-10.927-26.056-33.963-51.911-33.752-8.237.067-13.981-3.426-17.383-9.458-11.227-19.91-40.458-30.168-62.22-23.6-68.271,20.62-66.027-25.112-59.471-42.01,2.455-7.756,6.4-15.04,9.688-22.532.785-1.79,2.33-2.516,4.062-3.265a86.4,86.4,0,0,0,11.408-5.615c8.971-5.4,14.332-15.1,17-24.984,2.6-8.343,2.518-25.165-11.445-17.369-1.322.742-2.651,1.47-4.146,2.285a2.25,2.25,0,0,1-3.312-2.235C357.769,67.466,353.568,44.4,339.376,25.407Zm-65.6,91.441a25.372,25.372,0,0,1-6.838.225c-10.526-1.372-13.533-9.231-16.247-18.268-2.359-6.84,3.244-11.082,10.267-8.052C277.243,97.779,311.83,111.449,273.778,116.848Zm66.383-20.525c-.709,11.937-5.1,20.837-16.954,21.121-7.222.71-28.114-5.03-15.553-13.4C320.86,95.249,340.91,83.711,340.161,96.323Z" style="fill:#c0392b"/><path d="M303.594,596.887a1.823,1.823,0,0,0,1.19-3.2l-44.361-38.215a3.094,3.094,0,0,1,2.655-5.375,58.511,58.511,0,0,1,13.339,5.055c17.144,8.628,58.793,33.238,70.178,40a11.509,11.509,0,0,0,6.323,1.617l87.673.123a1.8,1.8,0,0,0,1.564-2.713c-9.194-15.515-18.15-31.7-21.089-40.984a1.742,1.742,0,0,1,3.027-1.607c9.341,11.872,24.688,31.209,29.573,40.024a10.261,10.261,0,0,0,8.979,5.284h5.041a1.521,1.521,0,0,0,1.158-2.513c-22.877-26.437-43.773-68.837-66.173-94.93-3.3-5.729-2.307-13.133-3.8-19.483-.939-6.038-3.32-7.72-9.433-6.767-20.184,5.917-63.462,24.059-86.856,23.345-30.31-.925-69.395-16.87-98.073-24.835a5.167,5.167,0,0,0-6.448,3.827s10.76,57.623-38.62,121.356Z" style="fill:#c0392b"/><path d="M261.849,403.508c5.912.846,18.5,4.039,25.064-2.568,4.083-4.111,3.7-15.747,2.228-24.709a11.031,11.031,0,0,0-9.026-8.549c-24.564-3.141-46.072-12.927-61.9-16A7.836,7.836,0,0,0,208.863,359c-.573,15.462,4.255,31.413,8.77,42.733a68.13,68.13,0,0,1,3.572,38.645c-.553,2.765-1.115,5.5-1.652,8.173a8.3,8.3,0,0,0,5.18,9.33c11.07,4.384,34.655,13.228,57.817,18.741a97.551,97.551,0,0,0,45.315-.107,223.3,223.3,0,0,0,48.81-17.919,8.28,8.28,0,0,0,4.489-9.234c-.848-3.6-2.609-7.489-3.026-10.13-2.174-8.242-3.437-16.511-1.491-25.035.937-5.872,14.854-48.427,14.676-50.453-.333-3.773-1.431-4.6-5.279-4.681-14.182-.31-30.6,2.023-74.151,10.247-9.612,1.815-11.964,48.037-11.964,48.037a86.3,86.3,0,0,1-4.156,26.757c-.791,2.4-4.574,2.764-5.318.351-2.258-7.328-3.122-13.965-5.7-23.805a7.439,7.439,0,0,0-6.64-5.206c-9.549-.139-15.268-4.725-18.294-8.664A2.075,2.075,0,0,1,261.849,403.508Zm46.654,6.17a3.065,3.065,0,0,1,3.961-2.881,47.33,47.33,0,0,0,27.886-.094,2.32,2.32,0,0,1,2.817,3.234c-5.655,10.471-22.757,14.969-33.363,7.589a3.007,3.007,0,0,1-1.3-2.463Z" style="fill:#c0392b"/><path d="M154.048,132.292c1.668-1,1.819-1.4,2.218-3.258.961-4.477,1.865-8.968,2.655-13.478,1.331-7.592.351-9.691-6.121-13.725-6.9-5.245-2.095,21.39-.834,29.475A1.39,1.39,0,0,0,154.048,132.292Z" style="fill:#c0392b"/><path d="M445.583,130.805C447,122.137,449.3,104.7,449.3,104.7c.093-2.848-3.218-2.794-6.17-.674a10.643,10.643,0,0,0-4.14,10.189c.978,6.85,3.036,18.3,3.67,19.024C444.449,135.393,445.5,132.48,445.583,130.805Z" style="fill:#c0392b"/><path d="M535.673,385.8H496.964a3.442,3.442,0,0,0-3.443,3.443v44.585H448.936a3.442,3.442,0,0,0-3.443,3.443v38.71a3.443,3.443,0,0,0,3.443,3.443h44.585V524.01a3.442,3.442,0,0,0,3.443,3.443h38.709a3.443,3.443,0,0,0,3.444-3.443V479.425H583.7a3.444,3.444,0,0,0,3.443-3.443v-38.71a3.443,3.443,0,0,0-3.443-3.443H539.117V389.244A3.443,3.443,0,0,0,535.673,385.8Z" style="fill:#c0392b"/></svg>