<?xml version="1.0" ?><svg fill="#c0392b" data-name="Layer 4" id="Layer_4" viewBox="0 0 600 600" xmlns="http://www.w3.org/2000/svg"><title/><path d="M78.459,599.229c-.628-2.963,1.552-3.711,3.6-4.469,6.09-2.247,12.251-4.313,18.292-6.683,33.643-13.48,68.33-24.87,99.54-43.636,9.965-5.715,29.764-17.025,34.926-68.658.4-3.955,1.2-5.073,3.979-2.31,12,11.923,33.623,24.828,50.827,31.33a12.111,12.111,0,0,0,9.276-.277c14.8-6.727,22.319-19.146,25.968-29.239,0,0-15.179,5.755-22.951,8.094-10.267,3.473-19.837,2.425-29.635-3.121-33.122-18.608-61.091-44.634-80.1-77.559-12.844-21.063-11.527-25.529-36.251-35.339-19.752-10.778-28.8-45.1-27.255-66.228.019-10.618,6.544-23.634,19.144-22.209,7.177.721,12.371,4.409,17.971,7.878,1.647,1.434,5.786,4.953,5.6,2.765-8.685-102.9,50.13-140.965,78.019-151.143,71.6-26.132,110.981,9.2,127.209,27.188a15.524,15.524,0,0,0,14.435,4.889c33.856-6.5,47.878-17.017,47.878-17.017s-22.34-23.815-69.549-40.753c-4.65-1.668-11.831-10.1-2.675-10.646q14.646-.009,29.29.28a36.066,36.066,0,0,1,12.327,2.4c19.233,7.46,37.474,18.107,55.438,28.226,4.084,2.433,4.178,2.516,7.65-.668,4.741-4.5,10.195-9.013,12.06-15.52,5.433-14.933-19.225-17.963-29.2-19.606A680.376,680.376,0,0,0,196.8,108.787a7.932,7.932,0,0,1-3.941.3c-5.6-1.486-11.214-3-16.664-4.939-1.717-.612-4.408-1.2-4.15-4.2.263-3.067,2.373-3.976,4.988-4.643C193.643,91.07,250.62,77.5,252.048,76.226,199.364,58.015,150.521,51.757,94.989,51.288c-1.974-.63-2.275-2.733-.478-3.748a11.8,11.8,0,0,1,4.728-1.229c17.32-1.436,28.33-2,45.6-.37,8.874.835,17.717,2,26.572,3.048a6.914,6.914,0,0,0,4.906-1.3l.065-.048a1.47,1.47,0,0,0-.465-2.6c-17.224-4.908-47.526-14.169-98.3-9.793-5.361.462-12.139,2.238-10.656,9.043,2.688,16.271,14.083,29.524,24.6,40.99,3.951,4.027,1.078,10.446-3.261,6.89-14.288-11.24-51.4-45.24-53.844-79.9C34,5.7,37.356,1.45,43.981,1.172c109.8-4.613,221.658,31.509,284.407,58.783a14.913,14.913,0,0,0,8.216,1.1c61.182-7.025,159.837-13.037,207.368,17.938,14.941,9.737,10.609,24.363,6.943,31.243a1.908,1.908,0,0,1-3.589-.814c-1.715-47.271-108.772-49.012-158.847-45.055a1.25,1.25,0,0,0,.042,2.494c39.442,1.724,100.152,4.922,133.5,33.513,10.194,8.74,6.458,26.134-3.27,33.805-79,62.291-180.378,70.968-217.837,71.944a2.712,2.712,0,0,0-.749,5.294c19.483,6.318,57.01,14.906,97.985,5.309,5.295-1.24,7.311.287,9.189,5.415,9.251,25.26,10.748,57.045,9.209,66.206-.97,6.022,5.481.481,7.578-.885,16.659-10.716,30.263-10.832,35.239,10.887,3.5,21.6-4.254,47.862-18.6,64.336-5.313,5.851-13.065,8.34-20,11.683a36.634,36.634,0,0,0-16.615,16.062A275.916,275.916,0,0,1,378.8,430.474c-12.491,15.03-27.678,24.669-26.745,46.88.377,21.79,7.307,43.547,23.779,58.4,21.864,22.313,52.049,31.835,80.211,43.351,11.89,4.783,23.756,9.633,35.728,14.2,3.045,1.162,4.139,3.629,5.688,5.927ZM263.49,301.242c-6.164-19.77-36.321-32.743-47.054-11.984-16.109,31.156,3.088,60.628,15.382,68.472,8.864,5.614,15.86,6.087,21.382,1.133C262.179,350.81,273.827,334.4,263.49,301.242Zm102.189,9.872c1.1-18.116-12.284-35.735-30.845-26.515-17.647,9.411-23.281,32.045-19.986,50.661,2.237,11.395,9.05,23.013,21.9,23.629C346.111,359.463,362.659,347.865,365.679,311.114Z" style="fill:#c0392b"/><path d="M90.236,147.446a1.853,1.853,0,0,1-.39,3.1c-49.376,23.6-29.567,44.956-21.408,48.6,31.634,14.117,67.743,11.182,77.032,11.908,2.691.21,5.334,1.564,7.874,2.679.422.185.641,2.332.2,2.732a32.027,32.027,0,0,1-6.313,4.717c-35.7,18.753-86.337,21.935-109.642,18.132-35.488-5.629-41.175-46.9-17.864-70.064C29.8,158.236,61.72,141.114,71.511,136a4.914,4.914,0,0,1,5.387.544C80.317,139.327,86.453,144.327,90.236,147.446ZM13.744,206.97c4.167,33.71,52.38,27.076,79.082,22.6a.6.6,0,0,0-.045-1.183c-26.928-2.864-53.351-6.6-76.584-22.9A1.569,1.569,0,0,0,13.744,206.97Z" style="fill:#c0392b"/><path d="M501.84,321.947c2.516-7.9,4.8-15.89,7.611-23.686,2.887-8,2.992-7.749-3.722-12.629a147.8,147.8,0,0,1-13.419-11.167,12.171,12.171,0,0,1-3.433-5.9c-1.04-4.622,2-7.7,6.948-8.071,6.627-.5,13.224-1.484,19.856-1.784,3.265-.148,4.141-1.837,4.864-4.42a83.691,83.691,0,0,1,11.879-25.182c3.741-6.065,11.608-11.059,15.686-2.406a185.724,185.724,0,0,1,8.047,24.653c.788,3.2,2.412,4.668,5.737,5.127,7.734,1.069,15.416,2.516,23.113,3.843,23.4,3.522-3.921,22.208-11.826,27.965-2.7,1.845-3,3.748-2.17,6.725,1.741,6.247,3.068,12.609,4.532,18.931.657,3.7,1.649,8.714-2.241,10.963-3.073,1.654-6.534,2.054-9.484-.19-6.4-5.023-12.614-10.342-18.787-15.652-2.1-1.932-3.866-1.636-6.124-.009-7.432,5.356-15.018,10.5-22.564,15.694C510.728,329.228,502.8,332.214,501.84,321.947Z" style="fill:#c0392b"/><path d="M37.875,480.23c2.41-7.764,4.56-15.62,7.3-23.266,3.1-8.671,3.218-8.436-4.034-13.738A134.829,134.829,0,0,1,28.169,432.3a11.812,11.812,0,0,1-3.288-5.961c-.87-4.492,2.067-7.45,6.723-7.819,6.791-.539,13.555-1.484,20.353-1.831,3.052-.155,3.884-1.689,4.556-4.137A83.091,83.091,0,0,1,68.6,386.925c3.609-5.87,11.37-10.608,15.461-2.438,3.592,8.031,5.639,16.725,8.19,25.132.809,2.94,2.321,4.4,5.426,4.847,7.729,1.111,15.415,2.525,23.112,3.851,23.731,3.153-3.34,22.139-11.39,27.827-2.956,1.955-3.208,3.975-2.313,7.139,1.868,7.386,3.993,14.826,5.02,22.382.106,2.715.073,5.61-2.565,7.136-3.019,1.746-6.5,2.26-9.47.049-6.585-5.056-12.892-10.517-19.225-15.894-1.95-1.744-3.6-1.5-5.7-.006-7.587,5.425-15.3,10.673-22.99,15.956C46.7,487.238,38.976,490.112,37.875,480.23Z" style="fill:#c0392b"/><path d="M102.065,180.011c2.488-8.247,4.407-16.7,7.244-24.827,2.75-7.218,2.651-7.073-3.664-11.33-5.758-4.359-12.4-8.177-16.81-13.991-3.255-4.969-.4-10.594,5.454-11.193,6.774-.693,13.518-1.7,20.3-2.285,2.669-.228,3.666-1.345,4.3-3.816a86.2,86.2,0,0,1,11.306-26c6.387-10.129,14.1-10.354,17.861,1.823,2.1,5.962,4.5,11.862,5.98,17.982,1.2,4.973,3.886,6.636,8.655,7.061a243.559,243.559,0,0,1,25.621,3.858c15.34,4.869-10.735,23.229-16.07,27.556-2.24,1.662-2.743,3.25-1.956,5.9,1.894,6.383,3.482,12.857,5.166,19.3.775,3.656,2.025,8.693-1.718,11.089-2.988,1.767-6.507,2.187-9.491.064-6.688-4.919-13.136-10.218-19.652-15.368-2.033-1.758-3.659-1.339-5.686.189-7.316,5.514-14.755,10.866-22.174,16.243C111.329,186.794,103.34,190.205,102.065,180.011Z" style="fill:#c0392b"/><path d="M470.575,184.034a1.687,1.687,0,0,1,.577-2.44c13.3-7.38,28.621-7.873,29.993-6,36.4,49.811-1.259,72.548-59.349,57.312-3.8-1-8.333-3.428-6.71-8.309.165-.574,2.476-.923,3.714-.736,10.72,1.621,58.9-1.715,40.564-27.178C476.5,192.711,473.757,188.6,470.575,184.034Z" style="fill:#c0392b"/></svg>