<?xml version="1.0" ?><svg fill="#c0392b" data-name="Layer 4" id="Layer_4" viewBox="0 0 600 600" xmlns="http://www.w3.org/2000/svg"><title/><path d="M460.259,181.686c48.881-43.812,76.387-107.557,77.62-172.9.057-2.058-.344-3.235-2.69-3.007-77.637.052-387.639.009-464.984.023-4.4,0-4.436.037-4.329,4.131C68.137,211.462,311.281,317.537,460.259,181.686Z" style="fill:#c0392b"/><path d="M495.585,462.994c20.335,31.993,62.689,98.624,79.352,124.8,3.92,6.21,3.959,6.185,10.5,5.008,5.081-.386,3.517-4.827,1.551-7.766C536.778,503.79,479.455,412.612,433.052,328.238a8.846,8.846,0,0,0-11.637-3.708c-14.532,7.171-31.743,10.761-42,12.4a8.875,8.875,0,0,0-7.315,10.419C386.614,424,410.229,512.872,424.432,588.422c.6,2.945,1.862,4.64,5.274,4.568l108.571-.235c4.9-.038,6.329-2.26,4.445-6.844-12.9-25.1-38.164-88.72-50.8-121.063A2.061,2.061,0,0,1,495.585,462.994Z" style="fill:#c0392b"/><path d="M87.023,592.757l76.25.43c11.58.254,11.945-3.687,13.729-13.6,13.4-69.053,39.525-162.171,54.968-232.564a6.548,6.548,0,0,0-5.218-7.839c-15.394-2.868-32.692-10.9-46.825-16.462a6.525,6.525,0,0,0-8.112,3.013C154.531,357.851,61.05,530.7,32.7,589.729a1.716,1.716,0,0,0,1.557,2.452c5.387,0,10.178-.017,14.969.011a5.127,5.127,0,0,0,5.107-3.2c24.748-55.647,63.227-143.131,96.221-193.617a3.973,3.973,0,0,1,7.054,3.543Z" style="fill:#c0392b"/><path d="M274.273,594.081c21.246.1,28.52.152,49.766.171,5.324,0,5.7-.313,5.19-5.7-6.42-55.765-10.539-111.751-13.72-167.788-.984-17.395-3.067-52.784-3.943-67.648a6.423,6.423,0,0,0-7-6.035,177.285,177.285,0,0,1-34.024-.116,6.444,6.444,0,0,0-6.994,5.336c-5.354,32.017-30.654,183.309-39.7,237.426-.662,4.1-.54,4.15,3.291,4.206,3.789.055,7.581.089,11.37.045,4.511-.051,5.309-.793,5.822-5.382l26.7-174.062a2.737,2.737,0,0,1,5.442.5c-1.533,48.854-4.222,126.537-7.133,173.909C269.051,593.634,269.574,594.06,274.273,594.081Z" style="fill:#c0392b"/><path d="M558.509,347.01c-19.41-18.071-41.215-40.78-60.891-59.411a5.027,5.027,0,0,0-6.96.049c-9.023,8.745-20.648,14.631-27.541,17.633a5.028,5.028,0,0,0-2.046,7.584c42.22,57.627,86.829,116.471,129.076,173.906,3.021,4.877,6.438,4.176,6.258-1.855.088-15.821.052-31.642.052-47.464h-.071C594.585,370.437,607.841,392.885,558.509,347.01Z" style="fill:#c0392b"/><path d="M8.258,442.061,126.085,304.649a4.166,4.166,0,0,0-.767-6.091c-16.619-9.513-24.11-17.232-35.364-25.634a5.945,5.945,0,0,0-7.5.311l-71.6,63.455a18.711,18.711,0,0,0-7.592,15.286l.8,88.475A2.418,2.418,0,0,0,8.258,442.061Z" style="fill:#c0392b"/><path d="M585.067,5.748H573.942a4.191,4.191,0,0,0-4.177,3.792c-2.712,28.647-25.756,211.174-175.431,256.665-82.3,25.014-175.727,13.283-236.78-24.029a4.17,4.17,0,0,0-5.609,1.042A4.069,4.069,0,0,0,153,248.892C193.171,276.543,253.7,293.256,306.25,293.1c186.392,4.268,273.278-140.586,283.01-282.891A4.194,4.194,0,0,0,585.067,5.748Z" style="fill:#c0392b"/><path d="M359.35,588.981c.694,4.536,1.474,5.078,6.178,5.134,3.293.039,16.135-.31,19.261-.287,6.472.048,6.76-.219,5.514-6.774-9.822-48.36-38.41-209.688-46.55-240.329a2.28,2.28,0,0,0-2.612-1.651l-5.768,1.045a2.276,2.276,0,0,0-1.865,2.434c6.151,72.007,13.492,145.79,22.635,217.479C357.14,573.691,358.182,581.347,359.35,588.981Z" style="fill:#c0392b"/><path d="M591.908,210.364l-17.892-5.925a6.6,6.6,0,0,0-8.04,3.511,114.707,114.707,0,0,1-22.7,32.626c-3.993,3.613-.454,8.1,3.082,10.41,15.753,11.89,28.157,21.932,43.4,34.471,3.57,3.392,6.881.291,6.449-3.895.066-12.666.039-25.333.039-38h-.087c0-11.061-.066-17.371.02-27.226A6.237,6.237,0,0,0,591.908,210.364Z" style="fill:#c0392b"/><path d="M9.134,284.791c10.215-8.05,36.846-29.068,49.3-39.151,3.722-3.013,3.851-4.691.53-8.071-10.311-10.5-18.9-22.354-27.011-34.536-3.111-4.672-7.072-6.125-12.135-5.425-2.914.4-7.3,1.546-11.017,2.5a5.232,5.232,0,0,0-3.932,5.073L4.9,282.8A2.613,2.613,0,0,0,9.134,284.791Z" style="fill:#c0392b"/><path d="M96.983,207.7c3.847,2.879,9.16-3.052,5.6-6C39.681,149.75,26.732,60.159,31.754,10.039a3.89,3.89,0,0,0-3.867-4.291H13.867a3.889,3.889,0,0,0-3.9,3.92C10.922,88.038,40.392,165.354,96.983,207.7Z" style="fill:#c0392b"/><path d="M4,497.025v12.616c1.523,7.042,6.2-1.132,8.16-3.687C54.4,448.682,143.6,318.675,143.6,318.675c1.719-2.345,2.379-3.569,2.03-4.984-.438-1.782-2.783-2.252-4.6-.1L5.723,490.522A12.519,12.519,0,0,0,4,497.025Z" style="fill:#c0392b"/><path d="M596.739,334.727a7.649,7.649,0,0,0-2.981-6.059l-79.29-60.008a2.564,2.564,0,0,0-3.568.429l-2.349,2.936a2.558,2.558,0,0,0,.137,3.362c9.9,10.445,67.562,64.06,83.907,79.444a2.459,2.459,0,0,0,4.144-1.794Z" style="fill:#c0392b"/><path d="M5.288,323.17c8.98-8.947,47.677-42.161,65.582-57.509,2.524-2.262,2.832-4.582,1.161-6.465-2.434-2.743-4.124-.338-5.763,1.05-6.023,5.1-50.047,41.367-60.6,51.28A7.644,7.644,0,0,0,3.261,317.1v5.224A1.189,1.189,0,0,0,5.288,323.17Z" style="fill:#c0392b"/><path d="M126.528,233.347c3.226,2.043,9.075,1.226,7.847-3.069-.444-4.363-10.817-11.255-14.12-7.376a3.126,3.126,0,0,0-.516,2.858C120.54,228.667,123.632,231.57,126.528,233.347Z" style="fill:#c0392b"/></svg>