<?xml version="1.0" ?><svg fill="#c0392b" data-name="Layer 4" id="Layer_4" viewBox="0 0 600 600" xmlns="http://www.w3.org/2000/svg"><title/><path d="M77.254,449.6a3.8,3.8,0,0,0-5.16-.229l-7.253,6.153a4.384,4.384,0,0,0-.284,6.422l20.928,21.2a7.328,7.328,0,0,1,2.158,5.476c-.4,8.174-7.326,22.423-38.239,43.714-5.391,3.9-11.507-.3-17.6.714A31.349,31.349,0,0,0,2.955,562.331c-.212,48.022,70.879,40.774,61.386-6a10.173,10.173,0,0,1,2.2-9.331c23.414-25.774,42.079-38.158,51.54-30.823l20.145,20.411a4.383,4.383,0,0,0,6.707-.56l5.483-7.807a3.8,3.8,0,0,0-.4-4.848ZM34.124,578.767c-19.262-.6-19.257-28.552,0-29.144C53.385,550.218,53.381,578.175,34.124,578.767Z" style="fill:#c0392b"/><path d="M225.191,301.386a27.911,27.911,0,0,0,6.88-9.7c3.382-7.3-2.261-15.938-10.128-10.655C209.722,288.071,208.77,313.8,225.191,301.386Z" style="fill:#c0392b"/><path d="M163.815,367.809c-16.827-59.139,2.043-80.4,12.276-87.263a3.575,3.575,0,0,1,5.364,4.13,67.706,67.706,0,0,1-3.972,8.808c-24.682,49.976,34.6,83.051,16.483,16.12-17.549-59.951,89.7-40.995,108.007-121.074,10.736-46.96-74.243-61.656-131.664-24.89-82.486,54-67.11,174.649-11.574,242.354q-23.94,21.18-47.574,42.226a5.31,5.31,0,0,0-.2,7.685l10.819,10.965,50.556-44.02c3.174,3.861,6.364,7.744,9.5,11.668L132.855,478.1,145,490.406a5.29,5.29,0,0,0,7.33.245q21.41-19.833,42.419-39.043c13.6,19.448,23.781,40.429,23.107,64.967-.353,9.444-2.219,20.073,3.764,27.389,8.637,10.758,25.275,4.542,30.05-7.26,3.711-8.428,2.681-18.172.377-27.088C234.878,443.2,179.994,424.669,163.815,367.809Zm7.012-165.567c-20.844-33.037,77.661-53.056,64.254-12.294C225.794,209.311,183.082,221.666,170.827,202.242Z" style="fill:#c0392b"/><path d="M50.963,248.865c5.412,10.59,10.1,17.564,14.176,21.655A6.36,6.36,0,0,0,75.963,265.8c-.777-28.214,4.9-53.941,14.281-78.243a27.885,27.885,0,0,0-.869-22.749C84.717,155.724,75.008,149,61.6,151.06c-19.969,3.064-25.9,28.43-26.506,44.081C34.758,214,42.492,232.01,50.963,248.865Zm-3.995-70.08c3.03-5.975,11.59-9.949,17.158-4.746,6.984,6.527,3.335,20.085-1.628,26.624-5.576,8.14-16.484,2.557-17.722-5.983A25.949,25.949,0,0,1,46.968,178.785Z" style="fill:#c0392b"/><path d="M62.584,317.032c14.264.078,16.78,17.526,23.213,31.351,5.549,11.343,14.756,24.018,10.289,36.412-2.34,4.7-12.879,3.334-16.817.462-15.719-9.135-26.94-20.431-30.907-38.665C42.872,321.359,54.14,316.987,62.584,317.032Zm-.587,39c3.051,3.944,8.642-.049,9.5-3.9,1.519-6.057-5.911-23.368-13.6-15.794C52.532,341.755,57.871,351.579,62,356.036Z" style="fill:#c0392b"/><path d="M163.067,87.5A3.4,3.4,0,0,0,168.4,91c8.219-6.135,23.964-14.019,46.9-9.071C275.97,95.022,285.644,51.917,256.1,36.685c-16.932-8.729-36.238-3.44-50.994,2.169C188.488,44.759,168.5,63.9,163.067,87.5Zm67.347-46.138c12.779-.664,27.326,6.82,16.847,15.163C231.9,69.2,194.467,45.106,230.414,41.358Z" style="fill:#c0392b"/><path d="M384.079,158.133a24.255,24.255,0,0,0,16.334-14.112c2.3-5.475,5.818-15,2.842-20.768-4.7-9.111-19.248-7.28-24.837-.279C370.348,132.142,363.3,162.334,384.079,158.133Z" style="fill:#c0392b"/><path d="M300.731,103.1c3.912-5.888,4.165-13.627,8.946-19.073a5.3,5.3,0,0,1,9.315,3.735,124.872,124.872,0,0,0,2.2,30.449c2.209,11.62,5.165,22.75,5.7,34.826.779,17.586-10.192,35.438-4.357,52.047,2.782,9.121,13.683,15.425,21.079,6.841,4.071-4.786,4.584-11.029,4.222-16.969-.964-15.808-7.651-31.149-6.417-46.938,3.692-64.35,111.32-54.91,103.056-118.309C435.09-6.337,366.3-3.307,334.862,40.633,326.446,50.942,319.076,62.259,309.044,71c-9.052,8.582-26.8,16.229-26.395,30.478C284.109,111.986,296.016,110.857,300.731,103.1Zm59.754-58.768c14.28-28.474,55.89-29.65,54.168-9.382C415.038,56.854,352.871,76.972,360.485,44.334ZM341.949,78.942c8.375-9.5,28.446-7.608,19.1,8.428C348.7,105.343,333.88,88.544,341.949,78.942Z" style="fill:#c0392b"/><path d="M493.319,66.506c7.447-3.465,14.165-12.717,8.258-20.566-8.457-11.433-29.963.541-31.565,12.1C470.386,69.189,485.2,70.91,493.319,66.506Z" style="fill:#c0392b"/><path d="M531.921,30.771c4.267-1.985,8.116-7.287,4.731-11.784-5.062-6.522-16.98.2-18.086,6.934C518.78,32.308,527.265,33.3,531.921,30.771Z" style="fill:#c0392b"/><path d="M478.514,382.516c3.092-4.384-2.769-9.953-7.687-7.808-47.955,22.027-96.341-10.018-60.384-18.9,14.483-1.55,12.587-17.24.537-21-13.444-5.439-52.246.446-82.072,18.912-15.35,6.966-57.769,47.512-31.6,60.856,12.639,3.06,15.9-12.481,18.2-21.558,7.313-27.521,32.351-20.381,53.392-2.937C402.844,418.718,459.07,414.569,478.514,382.516ZM387.1,353.92c-3.814,14.983-26.574,10.824-25.5-.756.6-4.038,7.107-9.575,17.49-8.577C387.081,345.3,388.088,349.7,387.1,353.92Z" style="fill:#c0392b"/><path d="M360.1,407.255c-14.6-7.05-27.988,12.352-12.891,21.2C363.506,435.766,377.175,417.4,360.1,407.255Z" style="fill:#c0392b"/><path d="M539.789,254.17c-13.985,2.95-23.949,18.106-28.115,31.408-3.2,10.505-10.2,29.415-26.729,32.933-5.464,1.124-11.119-.188-16.694.029-20.932-.19-27.719,27.689-4.287,27.942,12.373.834,21.442-8,30.489-15.321,18.287-12.812,13.475,22.483,9.973,36.262-24.818,92.209-116.443,41.067-126.138,78.136.185,6.372,7.028,10.636,13.37,11.252,21.893,1.569,38.342-21.991,66.385-23.56,8.947-.963,17.987-.368,26.974-.846C603.016,428.434,638.288,245.108,539.789,254.17Zm12.446,121.18c-5.572,4.413-19.454-2.787-10.377-21.62C555.125,332.664,570.018,361.267,552.235,375.35Zm14.175-61.59c-2.184,15.9-23.914,30.684-35.094,14.047-10.3-16.739-2.411-59.31,23.6-52.027C567.624,280.811,568.763,302.61,566.41,313.76Z" style="fill:#c0392b"/><path d="M539.3,186.592c-13.555,2.533-33.089,15.193-26.083,31.147,5.852,12.478,19.48,8.946,26.677-.244C547.712,209.25,562.04,182.6,539.3,186.592Z" style="fill:#c0392b"/><path d="M349.631,457.813C316.9,437,273.262,455.535,272.454,486.845a3.925,3.925,0,0,0,7.014,2.694c23.071-29.588,35.308,8.972,64.247,1.194C358.812,487.377,362.555,466.283,349.631,457.813Zm-13.07,16.457c-8.364,6.54-26.563-7.684-13.5-14.972C330.307,456.937,346.213,465.031,336.561,474.27Z" style="fill:#c0392b"/><path d="M193.918,374.947a3.7,3.7,0,0,0-.934,4.338,62.945,62.945,0,0,0,10.47,16.469c32.8-26.068,315.886-281.41,345.144-294.375.727,15.83-315.333,282.87-335.995,305.767a126.277,126.277,0,0,0,10.267,11.828,5.356,5.356,0,0,0,7.444.225c125.952-114.28,239.839-212.916,333.47-302.636a88.463,88.463,0,0,0,26.524-49.75c-16.893-.6-45.013,7.952-59.04,20.928C413.05,184.509,301.084,280.638,193.918,374.947Z" style="fill:#c0392b"/></svg>