<?xml version="1.0" ?><svg fill="#c0392b" data-name="Layer 4" id="Layer_4" viewBox="0 0 600 600" xmlns="http://www.w3.org/2000/svg"><title/><path d="M596.409,170.857a29.359,29.359,0,0,0-5.988-17.936c-38.674-50.3-107.4-80.538-132.974-90.5a15.852,15.852,0,0,0-17.126,3.708L411.163,99.993a7.363,7.363,0,0,0,1.093,10.645C574.725,235.48,628.8,468.659,529.1,592.4a2.1,2.1,0,0,0,1.674,3.361h65.638V290.275a28.59,28.59,0,0,0-3.283-13.357c-36.389-68.932-107.757-144.75-136.537-173.948a1.841,1.841,0,0,1,2.347-2.813c66.888,45.214,115.263,104.134,133.942,128.8a1.965,1.965,0,0,0,3.531-1.191V212.3c1.612-21.508-60.62-80.195-75.416-94.574a2.162,2.162,0,0,1,2.534-3.468c40.683,22.847,64.653,49.514,71.1,57.23A1,1,0,0,0,596.409,170.857Z" style="fill:#c0392b"/><path d="M323.973,187.027l-21.752,22.259a6.673,6.673,0,0,0-1.321,7.4,407.518,407.518,0,0,1,28.852,97.027,1.333,1.333,0,0,1-2.572.661c-8.315-24.161-22.149-50.081-43.963-76.816-3.736-3.957-7.606-1.641-10.558,1.979a7.027,7.027,0,0,0-.56,9.394c77.714,90.874,54.448,175.948,39.093,205.3-1.082,2.067-4.007,1.531-3.708-.783,9.438-61.023-20.7-143.341-51.047-178.073a11.825,11.825,0,0,0-17.8-1.017l-26.658,27.28a3.8,3.8,0,0,0,3.525,6.38c12.946-2.929,31.4-3.257,42.01,13.776A176.3,176.3,0,0,1,278.4,384.225c9.587,69.737-6.192,171.928-173.119,207.4a2.093,2.093,0,0,0,.436,4.139H164a64.721,64.721,0,0,0,20.444-3.324c50.627-16.848,206.223-87.382,157.422-298.015-.551-2.28,2.262-3.124,3.6-1.2,114.85,164.973-32.449,267.216-78.67,298.725a2.09,2.09,0,0,0,1.181,3.816H302.49a16.857,16.857,0,0,0,9.609-2.992c60.229-41.767,128.69-98.9,128.69-174.809,0-110.236-81.358-203.907-107.215-230.894A6.679,6.679,0,0,0,323.973,187.027Z" style="fill:#c0392b"/><path d="M391.971,133.882c-5.565-4.443-9.657.733-13.378,4.708a6.591,6.591,0,0,0,.61,9.757C488.3,235.453,505.762,336.268,508.15,376.611a2.246,2.246,0,0,1-4.4.739C471.206,265.037,387.683,180.113,362,160.238c-3.468-2.7-8.015,2.14-4.746,5.337C484.3,291.819,533.562,486.6,394.412,592.027a2.1,2.1,0,0,0,1.313,3.733H474.5a16.989,16.989,0,0,0,13.371-6.551C633.192,410.221,491.641,219.158,391.971,133.882ZM510.957,419.923c-5.409-.827-7-9.284-3.209-12.821h0C516.649,398.556,519.5,421.889,510.957,419.923Z" style="fill:#c0392b"/><path d="M370.159,31.693q-1.724,1.024-3.414,2.1a133.049,133.049,0,0,0-19.4,15.12S82.667,289.693,73.88,296.578c-21.134,16.56-45.736,35.935-67.994,53.481-2.321,1.637-2.42,4.719-2.288,7.289a.529.529,0,0,0,.856.416Q24.47,342,44.424,326.161q13.161-10.439,26.323-20.878L74,302.7a.944.944,0,0,1,1.234,1.428L7.646,367.513A12.817,12.817,0,0,0,3.6,376.861v28.393a2.193,2.193,0,0,0,3.713,1.58L356.42,70.849s12.542-11.917,24.42-15.459C375.77,77.118,127.524,301.913,7.705,438.026A16.447,16.447,0,0,0,3.6,448.909c0,10.822,0,32.042,0,32.042A2.192,2.192,0,0,0,7.37,482.47L387.6,87.042c21.093-22.45,31.758-48.713,44.524-78.094a2.451,2.451,0,0,0-2.937-3.332A268.688,268.688,0,0,0,370.159,31.693Z" style="fill:#c0392b"/></svg>