<?xml version="1.0" ?><svg fill="#c0392b" data-name="Layer 4" id="Layer_4" viewBox="0 0 600 600" xmlns="http://www.w3.org/2000/svg"><title/><path d="M355.362,175.736S224.513,119.815,149.28,95.9A15.912,15.912,0,0,0,136.2,97.493q-5.9,3.581-11.508,7.623a4.425,4.425,0,0,0-.281,6.957c452.349,380.164,395.8,389.974,395.8,389.974-88.295-2.085-375.061-342.7-407.388-381.431a4.433,4.433,0,0,0-6.441-.385q-4.338,4.083-8.4,8.45a15.738,15.738,0,0,0-3.416,15.392c77.134,179.645,33.969,486.492,493.776,427.4C588.348,571.475,653.258,283.189,355.362,175.736Z" style="fill:#c0392b"/><path d="M178.692,73.422c-5.671-5.162-15.991-10.1-23.813-13.385-14.375-6.209-31.165,3.033-44.406,11.515a9.553,9.553,0,0,1-10.928-.461L73.66,51.406c-2.016-1.771-2.325-5.278-2.307-7.961-.58-20.951-30.781-23.32-32.338-2.369A16.2,16.2,0,0,0,52.1,57.654a8.8,8.8,0,0,1,5.465,3.675l9.52,19.507a7.012,7.012,0,0,0,7.64,3.806l17.253-3.361a1.507,1.507,0,0,1,1.348,2.55L76.614,100.364c-14.48,14.474-24.521,27.475-25.314,30.142-2.029,6.824,2.585,27.471,14.038,41.042,2.367,2.805,7.034,4.026,10.319,2.389a8.382,8.382,0,0,0,4.306-9.951c-4.26-13.446-7.776-29.928,3.635-42.028a179.155,179.155,0,0,1,49.82-39.428c10.463-5.635,25.987-.125,36.858,4.471C178.653,90.466,185.516,79.65,178.692,73.422Z" style="fill:#c0392b"/><path d="M9.739,454.929c6.744,21.734,15.851,63.789,63.906,95.674a2.959,2.959,0,0,1-2.187,5.357c-47.829-7.42-68.029-57.306-65.59-100.492A1.98,1.98,0,0,1,9.739,454.929Z" style="fill:#c0392b"/><path d="M236.622,552.515C156.411,478.227,132.767,405.8,118.97,335.713a2.732,2.732,0,0,0-5.411.448c-1.748,44.355,14.708,88.487,13.311,104.223s-34.751,19.221-59.253-53.872c-1.222-3.645-3.717-3.775-3.922.064-.586,10.975,3.427,26.559,8.338,38.976.87,2.2-1.832,11.089-10.739.4-17.9-21.479-31.176-75.045-22.612-136.414.445-3.192-4.424-4.007-5.411-.938-49.524,140.486,42.474,297.26,200.49,274.4A6.127,6.127,0,0,0,236.622,552.515Z" style="fill:#c0392b"/><path d="M43.29,253.828c2.54-1,4.082-4.89,4.556-8.082.5-3.047-1.964-7.135-4.766-4.861C39.7,242.755,37.818,254.363,43.29,253.828Z" style="fill:#c0392b"/><path d="M474.847,27.184c23.337,4.265,75.272,17.5,107.007,54.187a3.084,3.084,0,0,0,5.27-2.933c-13.656-48.575-67.811-63.248-112.2-55.327A2.064,2.064,0,0,0,474.847,27.184Z" style="fill:#c0392b"/><path d="M440.508,177.054c-.437-2.813-4.035-5.275-7.172-6.49-2.984-1.2-7.707.358-6.038,3.73C428.422,178.165,439.794,182.741,440.508,177.054Z" style="fill:#c0392b"/><path d="M564.78,109.747c-47.593-65.3-152.992-66.8-201.456-63.427a2.123,2.123,0,0,0-.076,4.228c54.368,6.284,133.118,14.63,162.676,65.2,8.583,18.68,4.313,38.886.073,48.453a1.713,1.713,0,0,1-3.275-.74c.324-12.322-2.877-68.3-80.029-77.176a1.387,1.387,0,0,0-.7,2.666c28.237,10.61,79.736,36.788,59.262,92.6A16.413,16.413,0,0,1,483.7,192.2c-5.679-.753-12.3-1.726-17.88-2.756a1.286,1.286,0,0,0-.827,2.4c68.168,36.337,97.081,76.739,111.556,101.506,1.491,2.55,5.061,1.644,5.642-1.253C590.074,252.808,600.467,158.709,564.78,109.747Z" style="fill:#c0392b"/></svg>