<?xml version="1.0" ?><svg fill="#c0392b" data-name="Layer 4" id="Layer_4" viewBox="0 0 600 600" xmlns="http://www.w3.org/2000/svg"><title/><path d="M353.68,246.874c-7.361-27.794-20.247-62.218-42.261-87.748a3.6,3.6,0,0,0-5.446,0c-22.014,25.53-34.9,59.954-42.261,87.748a277.611,277.611,0,0,0-9.111,71.084V396.5q-.075,3.443-.154,6.884c-.273,12.495-.541,24.991-.978,37.481-.423,12.093-4.142,65.6-5.609,80.243-.925,9.239-1.915,18.471-2.919,27.7-1.076,9.9-5.844,38.847-6.48,44.23a.828.828,0,0,0,.828.924H241a3.375,3.375,0,0,0,3.356-3.006c.9-8.153,7.024-43.286,11.772-64.21a.952.952,0,0,1,1.9.107l-3.426,62.43a3.145,3.145,0,0,0,3.145,3.145h38.809a3.145,3.145,0,0,0,3.145-3.145V269.264a147.62,147.62,0,0,1,4.676-36.861l2.475-9.595a1.905,1.905,0,0,1,3.69,0l2.475,9.595a147.62,147.62,0,0,1,4.676,36.861V589.286a3.145,3.145,0,0,0,3.145,3.145h38.809a3.145,3.145,0,0,0,3.145-3.145V317.958A277.611,277.611,0,0,0,353.68,246.874Z" style="fill:#c0392b"/><path d="M101.025,589.964c38.853-42.548,65.452-76.548,82.067-101.714,2.125-3.217-2.688-6.644-5.386-3.89L75.3,588.936a4.015,4.015,0,0,0,2.868,6.824h9.728A17.8,17.8,0,0,0,101.025,589.964Z" style="fill:#c0392b"/><path d="M203.551,458.092c-3.969-.2-11.9,8.915-6.832,11.416,2.762.5,6.217-2.055,8.361-4.586C207.165,462.531,207.232,457.626,203.551,458.092Z" style="fill:#c0392b"/><path d="M544.462,8.537,407.81,151.238a3.459,3.459,0,0,1-5.389-4.293c4.374-6.6,9.844-14.277,16.543-22.713C437.6,100.763,504.555,28.5,521.661,9.991A17.9,17.9,0,0,1,534.809,4.24h7.819A2.54,2.54,0,0,1,544.462,8.537Z" style="fill:#c0392b"/><path d="M210.6,398.943h0a11.434,11.434,0,0,0-15.591-.885C155.859,430.738,7.291,573.952,7.291,573.952a10.417,10.417,0,0,0-3.051,7.365v4.028A10.415,10.415,0,0,0,14.655,595.76h0a62.813,62.813,0,0,0,44.259-18.243L210.7,414.658A11.444,11.444,0,0,0,210.6,398.943Z" style="fill:#c0392b"/><path d="M595.76,17.481h0a13.241,13.241,0,0,0-22.6-9.363L413.381,175.23a10.374,10.374,0,0,0-2.46,4.15c-.027.088-.053.177-.079.266-2.97,10.086,9.2,17.778,17.188,10.941L576.646,63.4A64.712,64.712,0,0,0,595.76,17.481Z" style="fill:#c0392b"/><path d="M4.732,17.481h0a13.241,13.241,0,0,1,22.6-9.363L187.111,175.23a10.374,10.374,0,0,1,2.46,4.15c.026.088.053.177.079.266,2.97,10.086-9.2,17.778-17.188,10.941L23.846,63.4A64.712,64.712,0,0,1,4.732,17.481Z" style="fill:#c0392b"/><path d="M54.758,8.537l136.653,142.7a3.459,3.459,0,0,0,5.389-4.293c-4.375-6.6-9.844-14.277-16.544-22.713C161.619,100.763,94.665,28.5,77.56,9.991A17.9,17.9,0,0,0,64.411,4.24H56.593A2.54,2.54,0,0,0,54.758,8.537Z" style="fill:#c0392b"/><path d="M404.177,418.2h0a11.433,11.433,0,0,1,15.591-.885c39.146,32.68,172.941,156.642,172.941,156.642a10.417,10.417,0,0,1,3.051,7.365v4.028a10.415,10.415,0,0,1-10.415,10.415h0a62.813,62.813,0,0,1-44.259-18.243L404.074,433.91A11.444,11.444,0,0,1,404.177,418.2Z" style="fill:#c0392b"/><path d="M552.667,508.735,428.917,404.566c-3.219-2.713.648-8.272,3.942-5.65,99.084,78.844,123.979,107.716,123.979,107.716A2.539,2.539,0,0,1,552.667,508.735Z" style="fill:#c0392b"/><path d="M584.014,530.258c-.07-3.974-9.709-11.262-11.858-6.034-.31,2.79,2.477,6.061,5.148,8.027C579.833,534.167,584.731,533.9,584.014,530.258Z" style="fill:#c0392b"/><path d="M152.294,284.553c-12.751-1.761-92.475-6.817-114.017-8.166-7.019-.439-14.028,1.614-18.852,5.862l-.087.077a14.9,14.9,0,0,0,0,22.133l.087.077c4.824,4.248,11.833,6.3,18.852,5.861,10.729-.671,35.889-2.262,60.021-3.908a1.361,1.361,0,0,1,.444,2.672c-23.569,6.253-54.871,14.783-60.474,17.429l-.272.13c-4.828,2.367-2.161,9.7,3.072,8.459,24.153-5.724,96.18-22.809,109.728-26.2,16.33-4.082,16.266-15.591,16.266-15.591S167.062,286.593,152.294,284.553Z" style="fill:#c0392b"/><path d="M447.443,310.851c12.751,1.761,92.475,6.817,114.017,8.166,7.019.439,14.028-1.614,18.852-5.862a19.921,19.921,0,0,0,2.25-2.323,13.968,13.968,0,0,0,0-17.641,20.08,20.08,0,0,0-2.25-2.323c-4.824-4.248-11.833-6.3-18.852-5.861-10.729.671-35.889,2.262-60.021,3.908a1.361,1.361,0,0,1-.444-2.672c23.569-6.253,54.871-14.783,60.474-17.429l.272-.13c4.828-2.367,2.161-9.7-3.072-8.459-24.153,5.724-96.18,22.809-109.728,26.2-16.33,4.082-16.266,15.591-16.266,15.591S432.675,308.811,447.443,310.851Z" style="fill:#c0392b"/><path d="M329.138,4.24H293.662a4.945,4.945,0,0,0-4.9,5.6l7.124,53.015c.185,1.638-1.888,2.023-2.651.561-9.243-17.7-14.575-30.4-14.622-30.493-2.578-4.719-10.087-1.634-8.315,3.443,10.494,30.069,20.068,47.86,28,58.329,7.668,10.124,23.771,5.822,25.465-6.764L334.04,9.83A4.944,4.944,0,0,0,329.138,4.24Z" style="fill:#c0392b"/></svg>