<svg fill="#c0392b" xmlns="http://www.w3.org/2000/svg" x="0px" y="0px" width="100" height="100" viewBox="0 0 50 50">
<path d="M 36.980469 6 C 36.847656 6.003906 36.714844 6.03125 36.589844 6.085938 C 34.535156 7.011719 22.195313 8.617188 15.425781 6.445313 C 17.550781 12.59375 22.515625 25.988281 30.890625 43.398438 L 49.328125 36.941406 C 49.589844 36.851563 49.800781 36.660156 49.910156 36.40625 C 50.023438 36.15625 50.027344 35.871094 49.921875 35.617188 L 37.921875 6.617188 C 37.820313 6.367188 37.621094 6.171875 37.371094 6.070313 C 37.242188 6.019531 37.109375 5.996094 36.980469 6 Z M 13.484375 6.179688 C 13.4375 6.210938 13.382813 6.234375 13.339844 6.277344 C 13.335938 6.28125 13.328125 6.285156 13.324219 6.289063 C 13.246094 6.367188 13.179688 6.457031 13.125 6.5625 L 0.101563 33.382813 C -0.0273438 33.644531 -0.03125 33.953125 0.0859375 34.21875 C 0.199219 34.488281 0.429688 34.691406 0.710938 34.777344 C 0.765625 34.792969 6.457031 36.523438 7.84375 36.972656 C 8.296875 37.117188 8.789063 36.929688 9.023438 36.515625 C 10.671875 33.609375 12.042969 29.878906 12.925781 27.160156 C 13.808594 30.628906 15.339844 35.871094 17.414063 39.949219 C 17.535156 40.183594 17.742188 40.363281 17.996094 40.445313 L 28.6875 43.953125 C 28.6875 43.953125 28.691406 43.949219 28.691406 43.953125 C 28.789063 43.980469 28.894531 44 29 44 C 29.070313 44 29.144531 43.980469 29.21875 43.964844 C 20.46875 25.75 15.441406 11.921875 13.484375 6.179688 Z"></path>
</svg>