<?xml version="1.0" ?><svg fill="#c0392b" data-name="1" id="_1" viewBox="0 0 600 600" xmlns="http://www.w3.org/2000/svg"><title/><path d="M137.716,535.639a3.069,3.069,0,0,0,3.97-3.493c-1.719-9.42-8.695-20.1-13.662-26.759a16.049,16.049,0,0,1-2.259-14.9l7.246-27.833a5.526,5.526,0,0,1,10.853,1.863l-1.728,25.071a12.768,12.768,0,0,0,4.313,10.5c6.9,6.032,23.138,16.132,24.289,29.235a7.02,7.02,0,0,0,7.978,6.313c94.855-13.3,233.678-82.362,278-105.385a58.291,58.291,0,0,0,22.489-20.7c19-30.226,64.5-103.015,72.1-119.231a11.786,11.786,0,0,0-3.166-14.091l-75.3-62.265a15.772,15.772,0,0,1-5.619-14c3.348-28.424,13.912-119.868,14.849-149.788a15.1,15.1,0,0,0-7.068-13.253C347.585-43.307,184.521,67.807,99.644,167.463q-1.2,1.493-2.357,3.021a49.527,49.527,0,0,0-9.055,39.05C101.819,282.273,73.7,313.645,34.725,347.9a26.232,26.232,0,0,0-8.894,19.344c-.5,36.14,11.058,104.777,15,116.363C53.38,506.461,119.971,529.766,137.716,535.639Zm-3.47-170.678L346.734,114.455a9,9,0,0,1,9.729-2.707l25.222,8.489a9,9,0,0,1,4.048,14.275l-40.859,49.152a18.155,18.155,0,0,0-2.915,18.3l51.006,128.574a8.681,8.681,0,0,1-8.214,11.88l-125.963-2.1a5.861,5.861,0,0,1-4.6-9.367l19.571-26.208a14.478,14.478,0,0,1,11.55-5.82c11.994-.041,25.992-.356,34.435-.574a5.462,5.462,0,0,0,4.974-7.368L304.657,236.97a4.846,4.846,0,0,0-8.335-1.331L175.9,386.929a7.4,7.4,0,0,1-8.631,2.224L137.046,376.58A7.4,7.4,0,0,1,134.246,364.961Z" style="fill:#c0392b"/><path d="M529.232,62.042a9.1,9.1,0,0,0-8.674-.978L510.27,65.292a9.031,9.031,0,0,0-5.385,6.349l-9.65,118.344a15.04,15.04,0,0,0,6.623,12.914l66.059,44.58A8.024,8.024,0,0,0,579.9,243.7l11.588-30.283a32.67,32.67,0,0,0,1.852-16.1C589.811,171.506,575.637,94.553,529.232,62.042Z" style="fill:#c0392b"/><path d="M221.777,586.255a22.878,22.878,0,0,0,14.6,4.3c33.888-1.774,131.291-11.655,166.619-15.3a70.221,70.221,0,0,0,25.305-7.6c8.683-4.533,20.311-10.864,29.249-16.682a14.84,14.84,0,0,0,6.763-12.215c.212-14.719.253-47.316-3.02-66.319-.94-5.454-6.911-7.149-11.672-4.327C347.69,528.527,248.559,552.229,204.658,561.06a6.2,6.2,0,0,0-2.4,11.109Z" style="fill:#c0392b"/><path d="M582.811,367.438l-3.987-56.708a3.823,3.823,0,0,0-7.4-1.045c-16.024,43.121-41.235,81.831-50.167,94.889a10.378,10.378,0,0,0-.938,10.018l25.256,63.544a2.615,2.615,0,0,0,4.9-.123l29.076-85.442A64.049,64.049,0,0,0,582.811,367.438Z" style="fill:#c0392b"/><path d="M65.48,271.489c9.287-26.52,3.588-46.6-6.347-57.142-9.462-10.035-26.11-7.366-32.515,4.85-6.652,12.688-17.536,35.086-19.7,49.6a52.813,52.813,0,0,0,.1,15.95l5.659,36.187a5.1,5.1,0,0,0,7.739,3.538c5.971-3.724,14.262-10.857,21.023-17.022A88.4,88.4,0,0,0,65.48,271.489Z" style="fill:#c0392b"/><path d="M498.238,527.894l25.1-16.611a8.963,8.963,0,0,0,3.181-11.254l-24.7-56.594a4.336,4.336,0,0,0-6.469-1.688l-5.666,4.087a6.827,6.827,0,0,0-2.831,5.856c.546,11.819,3.99,56.045,5.524,73.389A3.78,3.78,0,0,0,498.238,527.894Z" style="fill:#c0392b"/></svg>