<?xml version="1.0" ?><svg fill="#c0392b" data-name="Layer 4" id="Layer_4" viewBox="0 0 600 600" xmlns="http://www.w3.org/2000/svg"><title/><path d="M2.887,280.233a2.282,2.282,0,0,0,3.8,1.7c42.193-37.609,77.419-68.376,99.975-86.913,0,0,19.734-15.819,43.063-34.73a1.742,1.742,0,0,1,2.4,2.511c-7.636,8.447-17.469,19.282-27.761,30.516q-8.693,9.486-17.983,18.4L7.49,306.558a14.953,14.953,0,0,0-4.6,10.791v36.232a2.282,2.282,0,0,0,3.876,1.633L132.295,232.777c51.354-55.122,76.086-106.57,82.838-122.017a2.6,2.6,0,0,0-2.993-3.564c-19.021,4.63-89.254,24.55-148.794,78.2l-55.307,48a14.949,14.949,0,0,0-5.152,11.292Z" style="fill:#c0392b"/><path d="M585.99,18.6c-54.77,14.884-105.044,43-147.168,81.042L8.427,488.3a16.8,16.8,0,0,0-5.54,12.468v54.058a1.8,1.8,0,0,0,3.045,1.3C144.226,423.273,399.643,179.135,482.359,108.383c0,0,19.411-16.2,42.358-35.56a1.744,1.744,0,0,1,2.446,2.471c-7.466,8.593-17.076,19.612-27.138,31.037q-8.5,9.657-17.617,18.751L25.723,579.648a1.8,1.8,0,0,0,1.27,3.077H95.148a12.744,12.744,0,0,0,10.339-5.28c25.747-35.674,55.8-74.584,83.844-107.785l319.4-324.033C558.888,89.616,582.608,37.786,589.11,22.1a2.6,2.6,0,0,0-3.07-3.5Z" style="fill:#c0392b"/><path d="M592.228,266.374c-53.165,19.872-100.631,52.509-139.067,94.27,0,0-83.875,111.692-240.282,218.246a2.06,2.06,0,0,0,1.153,3.767h7.678a18.652,18.652,0,0,0,11.309-3.814c11.541-8.791,41.553-32.023,76.113-61.707l-57.1,62.039a2.056,2.056,0,0,0,1.52,3.452c10.2-.065,24.847-.153,41.523-.239a14.963,14.963,0,0,0,11.155-5.082c80.467-91.47,154.214-174.015,191.088-211.978,0,0,17.841-17.926,38.91-39.327a1.742,1.742,0,0,1,2.666,2.226c-6.644,9.248-15.2,21.115-24.175,33.429q-7.577,10.4-15.813,20.3L335,578.822a2.061,2.061,0,0,0,1.591,3.38c11.592-.043,23.235-.077,34.321-.1a14.937,14.937,0,0,0,11.539-5.482L527.011,399.981c44.78-60.4,63.618-114.195,68.646-130.418a2.6,2.6,0,0,0-3.381-3.207Z" style="fill:#c0392b"/></svg>