<?xml version="1.0" ?><svg fill="#c0392b" data-name="Layer 4" id="Layer_4" viewBox="0 0 600 600" xmlns="http://www.w3.org/2000/svg"><title/><path d="M208.13,469.738c-.835-1.164-.032-2.822,1.3-2.308a.8.8,0,0,1,.258.132c65.962,59.663,170.793,64.4,219.67,36.151C527,454.1,578.59,357.234,557.854,248.71a3.34,3.34,0,0,1,.125-1.559,4.74,4.74,0,0,1,7.795-2.2,3.213,3.213,0,0,1,.525.681,65.961,65.961,0,0,1,4.787,11.978c35.987,116.784-41.3,261.286-151.325,308.47-45.212,17.628-95.491,18.7-142.3,7.169-30.582-6.083-60.518-14.943-87.408-31.155-10.506-5.645-20.559-12.143-30.711-18.429a19.637,19.637,0,0,1-5.41-4.875c-3.9-5.205-2.666-8.87,3.472-11.221,6.68-2.557,13.309-5.269,20.082-7.55,8.32-2.427,10.087-7.67,13.966-14.489,3.65-6.588,4.489-5.952,10.868-1.921,26.956,19.708,69.224,40.945,108.078,44.2a1.568,1.568,0,0,0,.559-3.069C285.417,517.3,228.454,498.061,208.13,469.738Z" style="fill:#c0392b"/><path d="M321.988,75.259a1.778,1.778,0,0,0-.753,3.421c38.49,16.114,59.945,31.86,86.323,55.731,1.567,1.345,4.373,2.826,5.13,4.758a1.656,1.656,0,0,1-2.617,1.8c-10.379-8.317-63.913-49.492-119.518-60.336-102.016-19.9-248.715,60.238-257,229.635-.147,2.991-.268,6.516-3.781,6.368-1.981-.083-4.975-2.883-5.532-4.984-16.069-82.25,14.5-160.8,73.711-215.594C192.967,8.138,296.165,2.9,389.511,43.875c33.625,14.762,59.229,40.249,85.578,65.019,2.25,2.238,1.808,3.97-1.173,5.267-16,6.966-25.8,9.213-41.733,16.343-3.168,1.418-5.185.6-7.426-1.7C380.581,83.407,339.4,76.082,321.988,75.259Z" style="fill:#c0392b"/><path d="M436.215,176.75c-8.734,6.535-18.269,12.24-26.055,19.757C366.8,238.572,324.539,281.764,282.329,324.98c-2.767,2.821-5.274,3.4-8.323-.163-3.992-4.663-8.675-8.726-12.865-13.229-4.082-4.387-3.605-7.034.568-11.426,44.617-50.643,95.135-95.487,149.779-135.021,23.761-16.7,49.056-33.381,77.294-41.376-.375,16.118-10.617,29.895-18.467,43.232-38.653,68.214-92.986,124.75-147.687,180.162-13.163,15.547-22.488,2.8-33.006-7.991-.829-.9.787-5.115,2.311-6.929,40.692-44.4,84.25-86.145,125.785-129.756,7.177-7.51,13.046-16.269,19.513-24.457Z" style="fill:#c0392b"/><path d="M236.537,464.9c-5.959-3.124-6.575-7.948-1.866-12.534Q245.4,441.914,256.6,431.949c7.909-7.057,8.238-7.342,17.254-2.176,51.984,27.548,117.364,32.189,181.866-5.937,2.556-1.51,5.645,1.324,4.133,3.878C440.692,460.068,350.615,524.692,236.537,464.9Z" style="fill:#c0392b"/><path d="M274.964,106.209c43.7.125,82.122,18.949,115.465,45.788,1.787,1.339,2.568,2.262.187,3.967-11.365,8.139-22.454,16.684-34.085,24.416-2.141,1.423-7.334,1.011-9.429-.666-49.9-37.558-122-57.388-179.242-25.4-3.671,1.658-6.343,5.776-10.642,5.6.078-.916-.2-2.135.29-2.7,3.671-4.259,6.892-9.222,11.359-12.424C200.57,122.058,234.674,105.6,274.964,106.209Z" style="fill:#c0392b"/><path d="M325.408,403.828c-15.3.713-22.278-5.618-29.19-11.955-5.77-5.289-11.491-10.642-17.006-16.192-2.176-2.19-3.452-2.11-5.625,0-5.119,4.976-10.614,9.563-15.791,14.482-2.435,2.313-4.442,2.4-5.877-.63-4.983-10.7-9.154-21.767-13.2-32.849-4.427-11.047,11.38-10.125,2.81-18.712-6.928-7.189-13.51-14.708-20.36-21.974-13.591-13.385-5.6-31.1-.35-46.3,1.116-3.445,2.5-4.425,5.361-1.287,5.049,5.533,10.389,10.8,15.455,16.32a5.136,5.136,0,0,1,1.306,3.862c-1.961,8.983,1.2,16.683,6.7,23.162A505.008,505.008,0,0,0,306,368.017c14.615,12.42,21.253,3.814,26.988,8.1,5.652,5.164,11.1,10.55,16.623,15.854,1.409,1.353,3.037,3.014.037,4.031C340.083,399.247,330.424,402.224,325.408,403.828Z" style="fill:#c0392b"/><path d="M273.732,187.29c15.4,5.5,35.327,18.081,43.483,23.444a3.682,3.682,0,0,1,.592,5.667c-3.8,3.845-9.938,10.045-11.845,11.944-3.76,3.742-6.265,3.748-10.194.225-25.4-23.066-63.51-42.529-96.347-26.6-6.256,3.035-8.508-3.516-4.314-6.244,64.6-42.023,113.375-8.6,127.729,4.2a1.008,1.008,0,0,1-1.139,1.643c-9.679-4.962-30.309-15-47.441-16.677A1.236,1.236,0,0,0,273.732,187.29Z" style="fill:#c0392b"/><path d="M129.5,467.562a11.192,11.192,0,0,1,7.43-9.14c5.311-1.843,12.674-2.944,17.709,2.215a24.168,24.168,0,0,1,7.231,14.994,11.211,11.211,0,0,1-6.048,10.925c-6.927,3.594-17.661,7.984-24.362,10.631a3.872,3.872,0,0,1-5.259-4.1Z" style="fill:#c0392b"/><path d="M210.641,386.4c3.174-8.109,10.958-14.441,16.069-21.494,2.257-2.794,3.405-2.366,4.679.828,4.181,10.483,8.765,20.812,12.663,31.4a8.661,8.661,0,0,1-1.48,7.467,171.759,171.759,0,0,1-15.339,13.437c-.675.551-3.136.311-3.368-.2-4.458-9.806-8.708-19.706-12.986-29.593A10.436,10.436,0,0,1,210.641,386.4Z" style="fill:#c0392b"/><path d="M216.213,425.308c-.34.853-.519,2.528-1.448,3.427-4.4,4.266-8.889,8.477-13.669,12.3-.846.678-4.306-.065-4.726-.988-3.625-7.951-6.943-16.052-10.029-24.231-.426-1.128.575-3.2,1.509-4.364,3.849-4.775,7.937-9.357,11.917-14.027,1.588-1.862,3.383-3.368,4.871-.185,3.794,8.112,7.378,16.322,10.981,24.521A16.964,16.964,0,0,1,216.213,425.308Z" style="fill:#c0392b"/><path d="M188.57,449.758c-1.862,4.632-6.172,6.943-9.394,10.391-3.391,3.99-6.344,3.213-9.531-.1q-5.691-5.912-11.523-11.687c-1.8-1.782-2.34-3.3-.367-5.485,5.108-5.651,10.061-11.445,14.979-17.264,2.6-3.082,4.2-3.072,5.834.941C182.033,434.476,186.1,441.214,188.57,449.758Z" style="fill:#c0392b"/><path d="M479.29,399.522c2.782-.528,5.111-4.186,6.215-7.345,1.1-3.006-.611-7.65-3.908-5.879C477.785,387.543,473.613,399,479.29,399.522Z" style="fill:#c0392b"/><path d="M136.427,191.372c2.814-.311,5.418-3.779,6.763-6.844,1.327-2.912-.02-7.674-3.444-6.163C135.85,179.313,130.807,190.415,136.427,191.372Z" style="fill:#c0392b"/></svg>