<?xml version="1.0" ?><svg fill="#c0392b" data-name="1" id="_1" viewBox="0 0 600 600" xmlns="http://www.w3.org/2000/svg"><title/><path d="M276.541,328.485c37.783-45.142,86.607-109.06,46.656-221.853a2.982,2.982,0,0,0-5.782.829,101.711,101.711,0,0,1-1.789,13.286c-7.618,37.091-60.784,35.279-65.652-2.272-.545-4.21-.919-8.61-1.063-13.173-1.684-53.193-44.53-36.164-38.959-88.921a1.211,1.211,0,0,0-2.175-.861c-4.655,6.335-13.983,20.375-17.717,35.661-4.89,20.017-5.695,61.905-44.525,63.059-83.024,2.466-84.616-88.4-84.967-107.672a1.475,1.475,0,0,0-2.585-.946C47.77,17.386,16.475,66.586,28.941,145.4c5.293,33.469,33.71,58.411,54.018,72.288,19.241,13.148,23.332,40.319,7.965,57.838-21.024,23.967-60.91,11-70.435.329a2.461,2.461,0,0,0-4.3,1.622c-.115,38.047,21.991,75,58.346,91.069C163.133,407.708,247.044,363.727,276.541,328.485ZM117.3,184.572c-6.278-6.069-7.052-15-7.283-23.222-.047-4.5,3.031-7.968,7.4-9.379,11.988-2.944,16.7,14.176,16.4,23.488C135.729,185.079,124.312,192.047,117.3,184.572Zm143.657,75.716c-10.436,39.284-49.989,74.758-91.36,38.556-22.894-20.033-24.765-45.63-23.836-59.155a5.181,5.181,0,0,1,8.225-3.846c48.5,35.878,69.859-6.509,34.985-56.173a6.008,6.008,0,0,1,5.551-9.45C219.389,172.941,278.977,192.445,260.954,260.288Z" style="fill:#c0392b"/><path d="M422.6,358.042a186.66,186.66,0,0,0-14.173-15.055l-66.8-63.563a3.283,3.283,0,0,0-5.335,1.22l-4.526,11.994a11.377,11.377,0,0,0,.5,9.16c9.061,17.883,44.425,84,85.59,112.412l51.049,45.2a2.578,2.578,0,0,1-3.138,4.076q-7.539-5.03-15.073-10.067c-21.853-16.076-46.8-28.826-65.469-48.751-16.125-18.877-57.833-71.527-68.482-84.994a2.522,2.522,0,0,0-4.213.392c-6.662,12.663-19.313,25.282-27.335,32.552a4.01,4.01,0,0,0,.191,6.109l57.97,46.281a1.69,1.69,0,0,1-1.939,2.757c-14.744-8.809-61.065-34.385-70.21-39.3a6.82,6.82,0,0,0-6.073-.193l-3.334,1.523a1.435,1.435,0,0,0-.133,2.544C388.33,446.788,519.271,558.654,552.607,587.761a28.879,28.879,0,0,0,19,7.124h16.907A2.987,2.987,0,0,0,591.5,591.9V576.632a22.3,22.3,0,0,0-4.846-13.877C561.28,530.848,444.042,383.53,422.6,358.042Z" style="fill:#c0392b"/><path d="M309.351,70.624c11.432-.257,13.167-24.908,6.456-31.395-9.937-9.52-15.136.115-15.759,14.419C300.032,60.453,300.938,70.356,309.351,70.624Z" style="fill:#c0392b"/><path d="M23.2,239.383c1.369-6.255,1.369-23.829-6.466-23.8-11.186.042-8.6,17.018-5.878,24.514C12.986,246.375,21.637,246.5,23.2,239.383Z" style="fill:#c0392b"/></svg>