<?xml version="1.0" ?><svg fill="#c0392b" data-name="Layer 4" id="Layer_4" viewBox="0 0 600 600" xmlns="http://www.w3.org/2000/svg"><title/><path d="M12.451,262.062A1057.659,1057.659,0,0,0,205.584,222.15c2.693-.831,4.135,2.169,2.5,4.477-14.985,21.219-74.9,63.791-151.246,73.279-3.33.414-9.439-1.46-1.982-11.14,1.185-1.538,2.048-3.686,3.492-5.743a1.276,1.276,0,0,0-1.668-1.846C45.1,287.823,18.613,306.384,9.378,315.789c-5.414,5.513-5.517,14.557,5.808,14.557,216.233,0,455.1-159.561,558.992-316.4a2.6,2.6,0,0,0-2.131-4.027l-38.522-.438c-8.618-.026-16.9,3.235-21.609,11.274,0,0-47.09,93.291-126.677,127.106a1.952,1.952,0,0,1-2.055-3.248C439.437,92.736,467.3,27.438,474.263,13.322a2.585,2.585,0,0,0-2.307-3.736c-31.027,0-62.053.073-93.078-.1-3.888-.022-5.942,1.112-7.341,4.678C352.565,62.525,287.577,193.6,8.4,210.594c-2.857.174-3.563,1.035-3.541,3.739.109,13.482.392,26.978-.126,40.441C4.518,260.379,7.545,262.6,12.451,262.062Z" style="fill:#c0392b"/><path d="M484.2,337.739a1.94,1.94,0,0,0-2.48-2.79c-13.554,6.622-42.089,23.674-68.41,29.714a2.6,2.6,0,0,1-2.316-4.586c76.717-55.66,194.108-145.569,136.718-157.843-20.278-4.337-76.577,25.471-73.569,10.441,4.365-21.808,41.4-67.115,58.076-108.647a2.352,2.352,0,0,0-4-2.38C403.84,256.021,257.355,317.228,207.268,321.909a3.238,3.238,0,0,1-2.652-5.439c4.642-4.855,9.744-7.451,13.512-10.473a1.09,1.09,0,0,0-1.168-1.829c-21.529,11.272-45.8,16.688-57.6,20.608a12.537,12.537,0,0,0-5,3.107c-5.918,6.019-11.845,12.038-17.473,18.324-12.4,12.531,9.615,12.083,17.617,11.671,110.512-5.689,257.072-65.079,293.98-79.556a2.83,2.83,0,0,1,2.585,5c-58.465,40.587-143.1,69.93-180.228,81.639a1.425,1.425,0,0,0,.617,2.772c27.05-3.742,73.734-9.173,80.111-3.11,18.611,17.695-20.657,63.249-39.5,83.072a2.981,2.981,0,0,0,3.063,4.9C352.366,440.354,449.8,391.258,484.2,337.739Z" style="fill:#c0392b"/><path d="M63.746,161.342a33.9,33.9,0,0,0,10.092-4.631C143.888,106.458,220.474,45.4,299.272,10.185a.669.669,0,0,0-.317-1.281c-7.583.616-24.839,2.481-35.9,7.285-54.837,23.817-100.695,51.043-148.02,80.38A1.116,1.116,0,0,1,113.7,94.79c38.5-35.168,78.018-55.107,132.95-83.518a.889.889,0,0,0-.4-1.678c-17.743,0-35.486-.025-53.229.025a69.353,69.353,0,0,0-24.85,4.731C112.228,36.033,56.975,67.987,5.7,98.1L5.162,173.35S44.111,166.264,63.746,161.342Z" style="fill:#c0392b"/><path d="M315.9,398.007C150.462,452.059,86.119,453.876,84.632,436.025c-1.951-23.414,41.029-42.906,53.793-48.162a1.6,1.6,0,0,0-1-3.026l-.055.015c-31.855,7.193-98.131,24.285-126.838,62.315a.726.726,0,0,0,1.027,1.009c5.665-4.551,22.537-19.732,41.311-26.608a.774.774,0,0,1,.73,1.344c-9.1,6.9-30.718,25.15-30.5,42.814.151,12.19,15.468,20.1,25.25,23.913a1.276,1.276,0,0,1-.522,2.463c-10.5-.529-28.237-2.315-38.549-8.29a1.035,1.035,0,0,0-1.536,1.09,10.225,10.225,0,0,0,3.71,6.25,12.274,12.274,0,0,0,4.017,2.158c66.8,21.96,163.394,3.636,302.126-91.823A1.958,1.958,0,0,0,315.9,398.007Z" style="fill:#c0392b"/><path d="M4.723,197.9C211.856,183.159,301.66,93.461,355.289,14.333a2.778,2.778,0,0,0-2.279-4.342c-7.322-.013-14.195-.04-21.065.039-3.073.035-4.663,1.9-6.168,4.694C269.35,119.4,135.263,173.35,4.723,189.439Z" style="fill:#c0392b"/><path d="M433.664,414.567c1.169-1.334-.378-3.345-1.8-2.349-19.454,13.587-62.212,43.409-79.134,54.884-6.183,3.992-7.94,10.3-6.842,17.882,1.235,8.522,2.985,17.048,3.01,25.69.055,19.307-18.784,52.466-33.9,75.948-1.916,2.978,1.736,6.361,4.18,3.871,23.01-23.454,57.387-58.355,73.217-73.726,4.126-4.066,5.571-8.336,3.7-14.141-3.978-16.227-14.865-31.948-.319-45.865C402.526,449.962,422.37,427.454,433.664,414.567Z" style="fill:#c0392b"/><path d="M593.408,329.685c-12.206,13.646-24.267,27.022-36.2,40.515-14.839,16.626-27.8,35.025-45,49.358-18.537,16.152-36.776,31.395-55.436,47.61,6.37-.248,10.639-.719,16.269-2.544,41.488-12.1,80.178-30.534,117.371-52.371a5.429,5.429,0,0,0,3.136-5.426c-.364-13.356.344-26.353-.352-39.746-18.855,16.1-36.766,32.187-57.886,43.978C546.84,394.6,598.947,347.816,593.408,329.685Z" style="fill:#c0392b"/><path d="M592.409,63.945a23.734,23.734,0,0,0,1.155-6.277V52.26a.507.507,0,0,0-.976-.2c-21.082,50.236-52.123,100.121-63.411,112.428a1.454,1.454,0,0,0,1.6,2.336c11.175-4.408,34.752-13.741,54.234-35.387,12.847-14.274,9.992-36.935,9.992-36.935-.007-2.535-3.613-3.246-4.441-.85-4.3,12.448-13.937,30.291-28,43.046a.714.714,0,0,1-1.065-.936C569.388,122.118,583.587,95.933,592.409,63.945Z" style="fill:#c0392b"/><path d="M5.162,85.647A1291.16,1291.16,0,0,1,140.388,10.226a.8.8,0,0,0-.34-1.529c-7.324.018-14.776.073-22.225-.052A21.376,21.376,0,0,0,107.954,11C53.776,37.056,20.21,60.757,9.182,69.008a10.045,10.045,0,0,0-4.02,8.051Z" style="fill:#c0392b"/><path d="M506.054,312.8c-5.874,6.188,1.728,8.133,6.163,3.547C517.566,310.081,511.543,307.162,506.054,312.8Z" style="fill:#c0392b"/><path d="M236.2,376.182c7.3-3.787,2.813-8.768-4.384-5.615C224.054,374.08,230.369,378.756,236.2,376.182Z" style="fill:#c0392b"/></svg>