<svg width="600" height="600" viewBox="0 0 600 600" fill="none" xmlns="http://www.w3.org/2000/svg">
<path d="M346.767 50.643C365.87 37.5132 400.33 13.6167 409.023 6.19743C409.251 6.01598 409.407 5.76903 409.467 5.49584C409.526 5.22265 409.485 4.93891 409.351 4.68975C409.216 4.44059 408.995 4.24031 408.724 4.12077C408.452 4.00124 408.146 3.9693 407.852 4.03004L402.465 5.14685C399.399 5.78065 396.535 7.07024 394.102 8.91269C371.51 26.018 245.38 117.785 76.8749 167.501C76.1564 167.714 75.5146 168.106 75.0188 168.633C74.523 169.161 74.1922 169.804 74.062 170.493C73.9319 171.183 74.0074 171.892 74.2804 172.544C74.5535 173.196 75.0136 173.767 75.6111 174.194L170.358 242.111C174.265 244.904 179.141 246.272 184.062 245.955C276.336 240.165 376.445 167.05 402.316 146.984C404.321 145.43 405.95 143.502 407.095 141.325C408.241 139.148 408.877 136.771 408.964 134.35L412.999 20.1611C413.014 19.7152 412.894 19.2742 412.652 18.8885C412.41 18.5028 412.057 18.1879 411.631 17.9794C411.206 17.771 410.726 17.6776 410.246 17.7097C409.766 17.7418 409.306 17.8983 408.917 18.1612C389.681 31.1386 369.426 42.7651 348.321 52.9439C347.993 53.1022 347.614 53.1402 347.257 53.0504C346.901 52.9605 346.594 52.7494 346.398 52.4591C346.202 52.1688 346.131 51.8207 346.199 51.4841C346.268 51.1475 346.47 50.8471 346.767 50.643Z" fill="#c0392b"/>
<path d="M593.072 270.315C566.531 260.991 470.959 225.118 433.675 180.149C432.959 179.24 432.037 178.488 430.974 177.947C429.911 177.406 428.733 177.088 427.523 177.016C426.313 176.944 425.101 177.119 423.973 177.53C422.844 177.941 421.826 178.577 420.991 179.394C339.454 254.905 227.732 272.823 199.565 276.243C197.773 276.462 196.139 277.312 195.004 278.619C193.868 279.925 193.317 281.588 193.465 283.261L197.34 327.549C198.154 336.882 202.499 345.647 209.606 352.29C238.044 378.88 353.026 472.175 346.073 479.176C342.109 483.163 221.756 398.494 199.755 382.765C199.22 382.385 198.58 382.154 197.909 382.101C197.237 382.047 196.564 382.173 195.967 382.464C195.371 382.754 194.876 383.197 194.541 383.74C194.207 384.283 194.046 384.903 194.079 385.528C192.833 496.713 192.46 553.46 194.079 587.047C195.641 590.601 196.325 593.565 199.755 595.708C203.185 597.85 207.224 598.996 211.357 599L589.698 598.51C592.431 598.51 595.051 597.502 596.983 595.708C598.915 593.914 600 591.48 600 588.943V279.647C600.003 277.622 599.341 275.644 598.103 273.977C596.866 272.31 595.111 271.032 593.072 270.315Z" fill="#c0392b"/>
<path d="M592.12 107.41C517.559 76.0986 453.554 28.0809 437.436 15.5243C437.085 15.2512 436.658 15.0762 436.203 15.0198C435.749 14.9634 435.287 15.028 434.871 15.2058C434.455 15.3837 434.102 15.6677 433.853 16.0246C433.604 16.3814 433.47 16.7965 433.466 17.2214L432.002 133.519C431.958 136.796 432.749 140.037 434.309 142.977C435.869 145.918 438.154 148.477 440.98 150.445C464.702 166.964 531.007 210.343 595.309 226.874C595.858 227.016 596.435 227.038 596.995 226.939C597.555 226.84 598.083 226.623 598.537 226.303C598.991 225.984 599.359 225.571 599.613 225.098C599.867 224.625 599.999 224.104 600 223.575V118.717C599.998 116.329 599.253 113.993 597.856 111.988C596.458 109.982 594.467 108.393 592.12 107.41Z" fill="#c0392b"/>
<path d="M166.816 541.91C164.297 488.801 158.497 426.65 157.935 365.874C157.602 340.354 157.021 309.633 157.108 284.107C157.561 276.156 152.3 269.72 145.821 265.575L51.0942 195.331C50.4101 194.703 49.5445 194.274 48.6025 194.094C47.6604 193.915 46.6825 193.993 45.7875 194.319C44.8925 194.646 44.1189 195.207 43.5606 195.934C43.0023 196.66 42.6834 197.522 42.6426 198.414C40.7794 241.281 43.5606 410.14 43.5603 584.497C44.2655 588.813 46.6149 592.751 50.1818 595.596C53.7487 598.44 58.2966 600.003 62.9992 600H162.127C162.88 600 163.623 599.838 164.297 599.526C164.971 599.215 165.559 598.763 166.013 598.205C166.468 597.647 166.777 597 166.916 596.313C167.055 595.626 167.021 594.918 166.816 594.245C166.916 584.497 166.916 560.949 166.816 541.91Z" fill="#c0392b"/>
</svg>
