<?xml version="1.0" ?><svg fill="#c0392b" data-name="Layer 4" id="Layer_4" viewBox="0 0 600 600" xmlns="http://www.w3.org/2000/svg"><title/><path d="M168.062,431.467c-8.147-4.4-19.763-13.345-23.834-16.547a1.547,1.547,0,0,0-2.329.5c-3.386,6.491-6.765,11.175-10.15,17.587a5.09,5.09,0,0,0-.245,4.25,138.8,138.8,0,0,0,9.145,18.859,3.8,3.8,0,0,0,5.1,1.417c34.3-18.621,71.128-29.929,125.77-32.042,4.47-.072,5.271-6.594.762-7.476C167.218,397.372,130.007,341.731,120.015,320.8a2.025,2.025,0,0,0-3.844.692c-2.207,25.064-2.392,51,4.43,77.27a1.19,1.19,0,0,0,2.241.2,103.335,103.335,0,0,1,8.947-16.157c11.834,8.192,33.66,28.534,33.66,28.534l18.006-8.05C180.529,419.835,168.062,431.467,168.062,431.467Z" style="fill:#c0392b"/><path d="M494.53,421.481c-8.254,36.09-25.82,73.776-57.679,94.576-15.838,9.655-27.2-.929-31.659-16.317a1.068,1.068,0,0,0-2.042,0c-3.191,10.662-7.258,22.068-15.689,29.733-9.313,7.77-21.681,0-24.763-10.249-2.181-5.579-3.241-11.5-4.68-17.29-4.315-6.662-4.318,37.792-23.426,40.483-19.2.233-27.518-25.084-32.828-40.006a1.069,1.069,0,0,0-2.042,0c-5.539,15.121-11.732,35.759-29.431,39.944-22.883,2.657-21.725-46.72-26.822-40.421-2.339,9.411-3.652,22.348-12.575,28.124-18.783,10.878-28.464-16.441-32.557-30.316a1.068,1.068,0,0,0-2.042,0c-11.347,37.111-40.294,14.377-55.929-5.922-16.883-20.879-27.729-46.208-33.409-72.338-.261-1.2-2.041-.878-2.08.282-.442,13.1-.055,26.269.627,39.351,1.845,25.368,3.307,51.519,11.333,75.788,6.755,16.327,24.614,22.128,39.6,28.55,94.786,36.2,205.2,35.438,298.756-4.3,22.013-8.641,31.106-19.25,34.292-42.959,5.854-31.744,7.769-64.182,7.126-96.428C496.515,420.635,494.827,420.311,494.53,421.481Z" style="fill:#c0392b"/><path d="M299.911,417.877c-9.06,1.311-3.462,10.535,3.5,7.146C308.34,422.423,304.391,417.163,299.911,417.877Z" style="fill:#c0392b"/><path d="M437.313,410.194c5-4.567,22.316-20.2,32.392-27.115a103.438,103.438,0,0,1,9.338,17.265.778.778,0,0,0,1.467-.089c7.252-26.644,7.206-52.989,5.075-78.442a2.02,2.02,0,0,0-3.833-.7c-10.07,20.872-46.5,76.707-151.674,96.9-4.332.829-3.912,7.31.664,7.471C379.1,428.28,413.348,435.1,440.635,450.4c6.9,3.763,7.865,12.014,4.4,18.634a78.89,78.89,0,0,1-6.658,12.214.926.926,0,0,0,1.384,1.209c20.8-18.5,26.1-35.934,27.883-39.939,4.708-10.147-3.985-17.969-8.154-26.811a1.6,1.6,0,0,0-2.41-.534c-4.129,3.218-15.721,12.061-23.854,16.406,0,0-12.417-11.685-15.272-28.24l16.242,7.344A2.869,2.869,0,0,0,437.313,410.194Z" style="fill:#c0392b"/><path d="M430.411,168.071c-27.428-5.241-51.562-24.209-58.072-52.134a1.065,1.065,0,0,0-2.081.282c-1.513,45.465-1.107,91.1-1.491,136.559a1.06,1.06,0,0,0,2.119,0,37.59,37.59,0,0,1,6.947-21.5,12,12,0,0,1,22.019,3.406,71.184,71.184,0,0,1,3.69,19.867c.059.96,1.485,1.553,1.973.534,9.146-18.852,24.223-25.805,32.055-1.612,3.1,10.835,2.864,22.785,1.336,33.794-.179,1.078,1.393,2,1.935.816,8.812-16.466,34-17.237,47.147-5.6,19.134,17.259,18.935,46.125,16.641,69.884a1.068,1.068,0,0,0,1.807.749C519.485,338.031,529,320.443,539.005,303.3,578.437,233.752,486.486,183.606,430.411,168.071Z" style="fill:#c0392b"/><path d="M111.352,284.446c12.8-13.506,39.874-13.825,49.294,3.64.538,1.173,2.115.274,1.935-.815A81.771,81.771,0,0,1,163.2,256.2c6.353-25.766,22.588-22.226,32.775-1.113.488,1.016,1.915.426,1.974-.535,1.064-9.249,1.465-24.8,11.673-28.624C224.19,222,230.134,241.656,230.6,252.778a1.06,1.06,0,0,0,2.118,0q.032-8,.062-16c.139-61.914.653-123.864.48-185.77-2.908-4.311-4.819,14.506-5.417,16.075-7.553,57.575-19.843,92.547-80.078,108.989-31.444,12.4-63.555,29.568-83.159,58.048a1,1,0,0,1-1.757-.927c12.273-39.436,82.088-68.531,87.244-68.88a2.635,2.635,0,0,0,1.778-3.136,2.588,2.588,0,0,0-3.135-1.78C78.366,180.509,27.067,239.557,63.511,305.05c9.682,16.538,18.853,33.567,31.539,48.067a1.069,1.069,0,0,0,1.808-.749C94.605,329.411,94.417,302.233,111.352,284.446Z" style="fill:#c0392b"/><path d="M227.574,295.64a1.068,1.068,0,0,0-1.03,1.77,486.349,486.349,0,0,1,69.032,89.063,1.069,1.069,0,0,0,1.828,0,484.138,484.138,0,0,1,63.579-86.5c1-.6.047-2.374-1.008-1.9a370.326,370.326,0,0,1-37.366,3.771c-4.877-79.4,4.876-158.727,15.144-237.319.6-2.5-3.612-4.493-4.954-5.913a1.01,1.01,0,0,0-1.64.632c-3.928,43.583-9.537,87.758-12.715,131.215-10.705,14.654,3.092-116.888,2.074-139.78C302.16,36.407,283.552,22.417,265.155,8.189,267.5,102,273.963,204.32,270.542,301.061,256.142,299.944,241.805,298.1,227.574,295.64Z" style="fill:#c0392b"/><path d="M370.952,94.669c4.273-.064,4.829-11.44,1.458-12.236C365.751,80.454,366.841,94.52,370.952,94.669Z" style="fill:#c0392b"/></svg>