<svg fill="#c0392b" xmlns="http://www.w3.org/2000/svg" x="0px" y="0px" width="100" height="100" viewBox="0 0 64 64">
<path d="M 34.744141 1 C 34.744141 1 24.132813 6.0792344 28.507812 20.740234 C 28.623812 21.129234 28.779234 21.823281 28.990234 22.738281 C 21.426234 27.071281 16.841156 34.222078 18.035156 39.705078 C 19.143156 44.792078 23.740453 50.457547 34.689453 48.935547 C 34.761453 49.267547 34.820281 49.535469 34.863281 49.730469 C 35.778281 53.897469 34.998875 56.491406 32.546875 57.441406 C 31.870067 57.70318 31.237268 57.750362 30.65625 57.675781 A 3.827 3.827 0 0 0 27.675781 51.453125 A 3.827 3.827 0 0 0 24.820312 57.830078 A 3.827 3.827 0 0 0 24.826172 57.835938 C 25.868381 59.268568 28.287242 61 31.138672 61 C 35.646672 61 39.792406 56.881344 38.066406 49.027344 L 31.818359 20.429688 L 31.816406 20.433594 C 29.667406 12.530594 34.652344 7.7441406 34.652344 7.7441406 C 34.652344 7.7441406 36.348141 9.6937969 36.369141 12.216797 C 36.379141 13.471797 36.121594 15.479687 33.808594 18.304688 L 35.210938 24.275391 C 39.716938 19.195391 39.489047 13.465031 39.498047 11.707031 C 39.531047 5.1140313 34.744141 1 34.744141 1 z M 30.152344 28.091797 L 30.935547 31.599609 C 25.479547 34.942609 26.522469 40.316156 27.480469 42.535156 L 29.371094 41.65625 C 29.311094 41.51725 28.511719 37.981813 31.886719 35.882812 L 34.001953 45.726562 C 26.807953 47.173562 23.729484 42.363937 23.271484 39.585938 C 22.623484 35.658938 24.321344 32.312797 30.152344 28.091797 z M 37.632812 30.085938 C 37.263232 30.072982 36.907844 30.079406 36.574219 30.097656 L 37.648438 34.667969 C 38.713437 34.990969 39.775969 35.720594 40.167969 37.308594 C 40.692969 39.433594 40.180547 41.088297 39.435547 42.279297 L 40.40625 46.421875 C 43.07225 44.547875 46.612469 40.895969 44.855469 35.417969 C 43.500969 31.194344 40.219873 30.176623 37.632812 30.085938 z"></path>
</svg>