<?xml version="1.0" ?><svg fill="#c0392b" data-name="Layer 4" id="Layer_4" viewBox="0 0 600 600" xmlns="http://www.w3.org/2000/svg"><title/><path d="M246.5,388.273c44.239-44.733,99.1-80.208,131.659-132.728,2.135-4.473,5.888-12.472,2.361-16.913-2.457-2.938-7.463-.976-9.442,1.1-7.229,8.363-12.455,18.646-17.015,28.267-10.772,24.014-30.385,42.2-43.993,54.3-31.779,30.963-73.344,57.069-102.3,93.11-56.8,69.1-61.828,143.123-44.454,166.976a4.534,4.534,0,0,0,6.757.7c4.316-4.19,5.068-15.428,6.161-31.672C178.908,511.521,183.4,444.751,246.5,388.273Z" style="fill:#c0392b"/><path d="M559.407,286.068c-20.61-29.856-51.378,4.438-68.925,20.5-18.851,17.771-36.746,33.99-58.846,46.19-4.617,1.745-2.541,8.067,2.273,6.688,38.83-7.5,82.152-7.75,112.586-35.251C556.97,314.366,567.028,299.62,559.407,286.068Zm-38.276,29.971c-10.784,8.592-17.818-.519-13.824-9.195,2.663-5.3,9.993-11.323,18.039-12.168C529.732,294.215,538.362,302.31,521.131,316.039Z" style="fill:#c0392b"/><path d="M454.147,383.249c-55.388-18.647-107.332,25.315-148.378,56.977-.023-9.109-.066-17.506-.115-24.8a38.688,38.688,0,0,1,22.168-35.248c59.4-28.038,120.7-56.007,165.773-104.383,22.9-24.862,44.66-50.949,56.073-83.3,24.354-62.613-10.645-120.068-72.772-75.027-61.609,46.514-63.779,139.414-120.532,190.589-32.432,34.8-161.823,127.266-142.939,175.543,7.954,5.305,15.228-3.237,17.422-10.134,2.057-14.371-.526-29.749,30.859-55.059a214.852,214.852,0,0,1,31.439-20.98c-.089,7.632-.268,25.227-.331,47.132a11.541,11.541,0,0,1-4.674,9.233c-44.412,32.979-75.123,81.931-81.456,137.087a1.108,1.108,0,0,0,1.655,1.078l1.733-1.006A7.072,7.072,0,0,0,213.2,586.4c11.176-43.873,21.906-67.278,46.168-94.648a.973.973,0,0,1,1.536,1.191c-4.162,6.143-20.467,37.348-24.447,56.788-.74,3.613-1.977,8.932,3.4,8.225a4.153,4.153,0,0,0,2.562-2.406c13.18-24.014,28.178-45.611,50.51-61.077.764,90.376,4.37,93.3,5.557,94.264,3.2.537,5.616-.194,6.92-82.8a31.938,31.938,0,0,1,19.44-28.935c16.437-6.941,33.614-11.451,52.179-14.872,20.822-4.286,41.767-4.441,61.427-13.146C466.416,439.87,489.772,398.189,454.147,383.249ZM495.7,143.3c9.741,5.917,2.309,18.629-1.913,25.86-4.234,6.287-13.978,22.51-23.884,27.3a9.345,9.345,0,0,1-12.553-4.661C449.213,173.424,477.606,137.06,495.7,143.3Zm-36.918,70.62c10.258-4.811,14.059,4.68,8.692,12.669-3.357,5.817-9.8,14.364-16.786,9.512C444.24,230.013,453.355,217.1,458.778,213.92Zm-174.253,181a1.389,1.389,0,0,1-1.609-2.254c22.444-19.111,55.4-49.624,102.886-66.76,8.976-3.109,53.528-23.273,78.036-34.831a1.673,1.673,0,0,1,1.818,2.773C397.272,349.746,353.9,355.724,284.525,394.923ZM391.88,411.3c4.143-9.476,18.069-12.034,27.716-12.2C462.933,402.384,382.118,440.7,391.88,411.3Z" style="fill:#c0392b"/><path d="M270.25,211.719c12.312-2.029,22.95,5.153,22.93,17.785,1.449,22.943-29.915,22.7-21.3,27.763,11.786,1.884,21.458,11.334,21.3,23.673l-.362,31.982a1.633,1.633,0,0,0,2.731,1.209c5.006-5.4,9.748-8.289,9.847-12.594-.027-19.765-3.466-39.038,21.228-44.267a1.82,1.82,0,0,0,.166-3.477c-13.371-5.075-22.773-11.407-21.395-26.88,1.352-11.308,11.586-17,22.751-15.193,53.257,7.686,86.236-23.129,58.353-70.573-13.972-22.779,14.659-11.454,9.266-18.778-21.075-12.6-29.987-34.115-32.841-42.782a1.721,1.721,0,0,0-3.3.189c-4.047,15.479-3.867,38.475,12.373,62.266,24.528,32.706,1.565,56.746-34.665,54.393A31.889,31.889,0,0,1,305.4,164.587V77.123c.281-10.6,11.273-8.93,16.561-3.9a1.441,1.441,0,0,0,2.283-1.518A619.54,619.54,0,0,0,301.11,5.39c-3.836-10.231-20.64,46.669-26.7,66.076a1.441,1.441,0,0,0,2.325,1.481c5.106-5.441,16.393-4.5,16.449,5.335V164.6a31.569,31.569,0,0,1-32.118,31.841c-36.166,2.352-59.234-21.673-34.663-54.391,16.228-23.837,16.433-46.73,12.371-62.27a1.72,1.72,0,0,0-3.3-.188c-2.855,8.669-11.771,30.194-32.85,42.788a1.559,1.559,0,0,0,.824,2.881c14.732.025,14.468,5.516,8.451,15.889C184.056,188.62,216.915,219.38,270.25,211.719Zm38.569-11.689c-.227,12.641-19.013,12.638-19.238,0C289.807,187.388,308.594,187.389,308.819,200.03Z" style="fill:#c0392b"/><path d="M106.331,296.144c30.205,29.688,69.39,46.6,107.7,63.138,5.441,2.357,12.02,6.113,17.38,1.6,5.748-4.12,11.3-8.535,16.945-12.8a.5.5,0,0,0,0-.853,196.2,196.2,0,0,1-68.4-86.776.822.822,0,0,1,1.49-.688c16.511,31.181,40.774,58.493,71.138,76.646q1.551.927,3.121,1.818a3.1,3.1,0,0,0,2.581.219l5.641-2.023a.624.624,0,0,0,.1-1.132c-11.278-6.325-26.678-15.259-35.992-23.695a190.354,190.354,0,0,1-17.925-18.626c-24.939-29.673-39.878-66.386-44.245-104.9-3.415-30.116-9.624-60.77-31.8-82.6-20.156-19.147-64.725-30.43-81.4-1.716C14.221,168.823,57.656,249.161,106.331,296.144Zm19.82-88.106C124.184,228.631,96.92,224.9,98.809,203.6c-.173-12.193,11.324-28.238,22.722-15.371C125.7,193.821,126.594,201.243,126.151,208.038Zm-35.3-81.531c.065.159.114.169.148.028,7.723,11.732,9.7,27.25,7.807,41.019-2.233,13.908-17.039,23.178-29.194,13.693-15.355-10.886-15.393-32.5-10.1-48.835C64.054,114.335,79.53,113.621,90.847,126.507Z" style="fill:#c0392b"/><path d="M164.333,437.285c3.311.678,5.718-.784,7.324-3.62l4.939-6.887c15.937-17.092-1.483-9.313-22.956-39.858a131.145,131.145,0,0,0,36.311,18.195,3.856,3.856,0,0,0,3.438-.612l2.256-1.689a.57.57,0,0,0-.205-1.009c-43.758-11.469-70.172-90.144-122.426-59.68-19.25,11.223-19.112,36.553-11.9,54.229a56.4,56.4,0,0,0,20.51,25.512C105.633,438.963,136.5,434.942,164.333,437.285Zm-44.685-47.26c-7.37,6.436-19.03,1.971-25.913-3.248-8.94-6.791-12.508-23.412-.752-29.258C109.457,348.632,135.358,375.988,119.648,390.025Z" style="fill:#c0392b"/><path d="M444.47,575.881c7.593-39-27.554-86.764-37.449-99.261a6.139,6.139,0,0,0-6.345-2.127l-2.9.747a1.333,1.333,0,0,0-.625,2.223c5.305,5.434,22,23.3,26.8,37.624,0,0-35.425-39.786-71.092-23.728a34.483,34.483,0,0,0-4.425,2.2,2.162,2.162,0,0,0,.892,3.662c29.855,7.091,54.377,27.066,72.116,51.553a189.717,189.717,0,0,1,18.207,29.674c.42.852.746,2.009,1.575,2.564a2.263,2.263,0,0,0,3.432-1.425A29.412,29.412,0,0,0,444.47,575.881Z" style="fill:#c0392b"/><path d="M365.281,533.948c-2.551-1.8-8.7-9.242-11.619-7.7a2.066,2.066,0,0,0-.566,2.817c6.551,9.727,13.122,19.8,17.223,30.856a74.142,74.142,0,0,1,4.346,25.68c-.464,5.832.543,12.59,8.137,9.414,6.015-2.536,8.251-9.3,8.251-15.35C391.12,561.023,378.4,545.814,365.281,533.948Z" style="fill:#c0392b"/><path d="M345.219,514.578c-.2-3.969-10.071-10.94-12.047-5.645-.22,2.8,2.672,5.978,5.406,7.856C341.168,518.621,346.055,518.193,345.219,514.578Z" style="fill:#c0392b"/></svg>