<?xml version="1.0" ?><svg fill="#c0392b" data-name="Layer 5" id="Layer_5" viewBox="0 0 600 600" xmlns="http://www.w3.org/2000/svg"><title/><path d="M300.591,583.832a5.718,5.718,0,0,0,10.094-.3L446.7,307.845a16.427,16.427,0,0,0-.133-14.8L302.216,13.286a5.717,5.717,0,0,0-10.044-.216l-154.116,269.5a16.426,16.426,0,0,0-.009,16.292Zm3.349-296.745c31.332,3.113,104.242,11.7,116.918,13.341,6.888.889,3.186,5.745,1.281,6.328-34.621,10.6-71.749,1.227-119.118,16.944-1.94.644-3.794-1.477-4.383-3.435-1.944-6.467-2.231-21.612-.919-29.381C298.206,288,301.032,286.8,303.94,287.087Zm-133.951,6.125c26.681-2.079,72.947-1.326,79.306-21.541,13.41-42.631,35.465-216.827,45.157-216.827,11.066,0-10.479,173.28-10.955,239.492s25.246,238.9,14.86,238.9c-7.3,0-25-108.383-34.28-172.832-5.406-37.538-36.9-50.951-75.894-53.959-9.58,0-16.082-2.989-20.219-6.033A3.986,3.986,0,0,1,169.989,293.212Z" style="fill:#c0392b"/><path d="M409.265,87.346c-.046,8.959,13.414,8.758,13.414.406C422.684,79.638,409.314,78.019,409.265,87.346Z" style="fill:#c0392b"/><path d="M62.405,506.157,70.614,592.6c.762,5.69,7.132,5.69,7.894,0L86.739,506c1.288-9.615,6.915-17.323,14.31-19.6L142.44,476.8c4.092-1.261,4.092-8.729,0-9.99L100.034,456.9c-6.871-2.118-12.261-8.945-14-17.731l-7.591-47.885c-1.022-5.165-6.742-5.165-7.763,0l-7.563,47.735c-1.753,8.865-7.223,15.729-14.171,17.782L6.11,466.8c-4.141,1.224-4.141,8.788,0,10.012L47.923,486.5C55.4,488.712,61.106,496.46,62.405,506.157Z" style="fill:#c0392b"/><path d="M593.927,82.525l-42.406-9.906c-6.871-2.118-12.261-8.945-14-17.731L529.93,7c-1.022-5.165-6.742-5.165-7.763,0L514.6,54.738c-1.753,8.865-7.223,15.729-14.171,17.782L457.6,82.514c-4.141,1.224-4.141,8.788,0,10.012l41.813,9.692c7.474,2.209,13.183,9.958,14.481,19.654l8.21,86.446c.762,5.69,7.132,5.69,7.894,0l8.231-86.606c1.288-9.616,6.915-17.324,14.309-19.6l41.392-9.594C598.019,91.254,598.019,83.786,593.927,82.525Z" style="fill:#c0392b"/></svg>