<svg width="600" height="600" viewBox="0 0 600 600" fill="none" xmlns="http://www.w3.org/2000/svg">
<g clip-path="url(#clip0_220_662)">
<g clip-path="url(#clip1_220_662)">
<path fill-rule="evenodd" clip-rule="evenodd" d="M522.089 292.228C523.79 300.909 522.877 310.827 522.164 316.054C522.098 316.537 521.936 317.003 521.687 317.423C521.437 317.843 521.106 318.208 520.712 318.497C520.318 318.786 519.87 318.993 519.395 319.104C518.919 319.216 518.426 319.231 517.945 319.148C515.222 318.671 512.471 318.091 509.707 317.423L517.891 286.194C518.628 286.644 519.301 287.198 519.887 287.843C521.008 289.076 521.77 290.593 522.089 292.228ZM354.5 138.885C342.797 127.107 329.12 115.684 312.24 105.033C310.676 104.051 308.872 103.517 307.026 103.489C305.179 103.461 303.361 103.941 301.768 104.876L299.906 105.965C298.194 106.97 296.224 107.45 294.242 107.347C292.259 107.244 290.35 106.562 288.751 105.384C269.588 91.139 251.618 75.3568 235.017 58.1941C234.287 57.4341 233.39 56.8557 232.396 56.505C231.403 56.1543 230.341 56.0412 229.296 56.1748C228.251 56.3084 227.252 56.6849 226.379 57.2741C225.505 57.8634 224.782 58.649 224.267 59.5681C208.86 87.145 184.91 109.608 173.414 119.487C170.011 122.412 170.763 126.919 173.146 130.722C192.425 161.458 241.976 184.481 280.168 126.629C284.33 120.325 289.194 121.47 288.195 127.723C287.946 129.144 287.458 130.513 286.751 131.77C285.613 133.871 283.183 138.11 278.789 144.729C278.271 145.507 278.072 146.456 278.235 147.377C278.398 148.298 278.91 149.12 279.664 149.674C286.288 154.514 302.598 166.778 314.819 178.82C315.079 179.075 315.389 179.273 315.729 179.402C316.069 179.531 316.433 179.588 316.796 179.569C317.159 179.55 317.515 179.456 317.84 179.292C318.165 179.129 318.452 178.899 318.684 178.619L322.889 173.549C323.242 173.124 323.68 172.776 324.174 172.527C324.668 172.279 325.208 172.135 325.761 172.105C326.313 172.075 326.865 172.16 327.383 172.354C327.901 172.548 328.373 172.847 328.77 173.233L334.432 179.226C335.137 179.907 335.567 180.823 335.641 181.801C335.716 182.778 335.428 183.748 334.834 184.528C330.147 190.687 318.916 205.48 312.616 214.065C311.99 214.918 311.052 215.489 310.007 215.654C308.962 215.818 307.894 215.563 307.037 214.943L300.768 210.294C299.93 209.687 299.359 208.781 299.173 207.763C298.988 206.746 299.202 205.696 299.772 204.833L305.119 196.739C305.459 196.224 305.608 195.606 305.539 194.993C305.471 194.38 305.189 193.81 304.743 193.383C293.184 182.279 275.677 168.913 268.307 163.41C267.368 162.735 266.24 162.374 265.083 162.379C263.927 162.383 262.801 162.754 261.868 163.437C225.194 195.511 186.517 175.593 161.163 146.088C157.293 141.584 149.931 142.38 145.272 146.059C130.48 157.749 95.254 181.832 44.3667 192.936C43.2099 193.185 42.133 193.717 41.2329 194.485C40.3328 195.253 39.6376 196.233 39.2098 197.336C38.7821 198.439 38.6352 199.632 38.7823 200.806C38.9295 201.98 39.3661 203.099 40.0529 204.063C52.6967 221.687 92.0962 260.596 203.169 284.828C242.336 293.373 275.564 305.333 303.397 318.497C311.502 302.686 329.391 261.057 336.106 221.032C335.628 220.542 335.155 220.055 334.687 219.571C333.985 218.844 333.476 217.953 333.205 216.98C332.934 216.007 332.91 214.981 333.136 213.996L335.583 203.292C335.666 202.927 335.847 202.59 336.106 202.319C336.365 202.048 336.693 201.852 337.055 201.752C337.417 201.652 337.799 201.652 338.16 201.752C338.522 201.852 338.85 202.048 339.109 202.32C339.663 202.902 340.219 203.483 340.776 204.063C344.851 189.965 353.3 157.194 354.5 138.885ZM500 354.447C502.727 354.139 505.102 353.973 507.024 353.888C508.631 353.814 510.177 353.253 511.458 352.281C512.739 351.309 513.695 349.971 514.199 348.444L517.737 339.247C517.907 338.729 517.96 338.18 517.891 337.64C517.823 337.099 517.635 336.581 517.342 336.122C517.048 335.663 516.656 335.275 516.193 334.987C515.731 334.698 515.211 334.516 514.669 334.454C513.028 334.254 511.373 334.006 509.707 333.715L500 354.447Z" fill="#AFAFAF" fill-opacity="0.6"/>
<path fill-rule="evenodd" clip-rule="evenodd" d="M569.082 369.439C565.905 380.561 559.52 403.943 555.246 426.462C553.825 433.95 547.381 441.429 538.98 439.899C498.385 432.525 467.424 455.423 453.589 468.421C452.976 468.992 452.207 469.369 451.379 469.502C450.551 469.635 449.703 469.519 448.941 469.169C448.179 468.819 447.539 468.25 447.101 467.535C446.663 466.82 446.448 465.991 446.482 465.154C446.711 458.819 446.507 453.332 446.046 448.5C464.198 431.05 499.4 391.236 495 371.575C500.074 371.05 505.336 371.004 510.779 371.456C520.914 371.867 523.243 365.225 525.42 359.015C527.313 353.615 529.092 348.541 535.79 348.714C544.862 348.945 553.775 352.716 564.953 359.174C566.686 360.181 568.033 361.738 568.781 363.597C569.529 365.457 569.635 367.512 569.082 369.439Z" fill="#AFAFAF" fill-opacity="0.6"/>
<path d="M547.756 465.178C548.845 458.896 543.469 456.893 538.01 455.24C514.292 448.063 478.311 463.121 463.696 475.807C459.026 479.86 455.617 485.143 455.736 491.326C456.004 505.115 459.09 531.985 475.988 563.628C487.276 584.756 537.029 527.079 547.756 465.178Z" fill="#AFAFAF" fill-opacity="0.6"/>
<path d="M537.411 297.96C537.627 303.048 537.471 312.805 534.827 327.088C533.585 333.802 541.422 335.133 541.422 335.133C554.878 337.968 560.27 340.146 570.529 344.436C574.932 346.277 578.613 343.604 579.953 339.116C583.35 326.814 586.794 315.704 590.1 303.376C591.209 299.166 589.43 294.54 584.615 291.524C571.673 287.063 550.491 290.83 541.418 292.802C540.249 293.051 539.206 293.705 538.473 294.649C537.74 295.593 537.364 296.766 537.411 297.96Z" fill="#AFAFAF" fill-opacity="0.6"/>
</g>
<g clip-path="url(#clip2_220_662)">
<path d="M415.486 113.423C409.595 112.287 403.572 111.998 397.6 112.563C391.88 113.161 386.533 115.687 382.439 119.726C378.344 123.764 375.744 129.075 375.066 134.786C368.285 190.35 341.213 375.319 278.713 401.628C278.008 401.924 277.395 402.403 276.936 403.015C276.478 403.627 276.191 404.35 276.105 405.11C276.019 405.87 276.137 406.639 276.447 407.337C276.758 408.036 277.249 408.64 277.87 409.086C316.674 437.3 309.77 464.934 331.782 471.897C358.468 480.338 365.725 446.32 367.72 429.82C368.593 422.498 370.491 415.335 373.356 408.541C383.804 383.872 401.903 352.528 411.055 337.174C411.789 335.943 412.758 334.869 413.907 334.012C415.056 333.156 416.363 332.535 417.752 332.183C419.142 331.832 420.587 331.758 422.005 331.966C423.423 332.173 424.786 332.658 426.017 333.392L468.265 358.574C470.099 359.668 472.288 360.003 474.366 359.509C476.444 359.014 478.248 357.73 479.394 355.927L492.437 335.412C493.6 333.587 493.994 331.378 493.534 329.264C493.075 327.15 491.799 325.303 489.984 324.125C476.276 315.256 456.358 300.997 445.652 293.247C443.606 291.769 442.158 289.606 441.57 287.151C440.983 284.696 441.295 282.112 442.449 279.867C458.446 248.682 510.21 131.103 415.486 113.423Z" fill="#AFAFAF"/>
<path d="M432.368 22.1738C429.722 21.9773 427.097 22.7647 424.995 24.3849C422.894 26.0051 421.465 28.3441 420.982 30.9532C417.807 48.1939 414.074 70.0767 411.959 82.6185C411.751 83.8766 411.797 85.1636 412.095 86.4035C412.392 87.6435 412.935 88.8114 413.691 89.8383C414.447 90.8652 415.401 91.7304 416.496 92.3829C417.592 93.0354 418.807 93.462 420.07 93.6375C475.301 101.769 519.75 156.153 464.29 275.232C463.524 276.869 463.382 278.729 463.889 280.464C464.397 282.199 465.52 283.689 467.048 284.654L483.622 295.093C485.158 296.062 487.005 296.413 488.789 296.075C490.574 295.738 492.164 294.737 493.24 293.273C500.346 283.606 515.411 263.289 524.682 252.111C581.174 183.965 570.127 145.235 553.952 131.116C552.976 130.252 551.791 129.658 550.514 129.393C549.238 129.129 547.914 129.202 546.675 129.607C545.436 130.012 544.324 130.733 543.449 131.7C542.575 132.667 541.969 133.846 541.691 135.12C536.989 156.773 529.274 173.881 524.266 185.914C522.886 189.22 517.695 187.68 518.579 184.207C533.669 124.982 532.316 29.489 432.368 22.1738Z" fill="#AFAFAF"/>
<path d="M205.354 428.084C201.58 429.938 199.717 434.973 202.336 438.262C212.555 451.097 224.132 466.102 222.284 492.726C221.916 498.007 224.206 502.662 229.344 503.931C249.377 508.879 269.523 512.88 289.634 517.614C294.593 519.062 297.2 514.809 298.095 510.299C306.954 465.687 273.989 431.486 259.985 419.254C258.228 417.723 256.142 416.616 253.89 416.018C251.637 415.42 249.277 415.347 246.992 415.804C235.477 418.093 219.952 420.912 205.354 428.084Z" fill="#AFAFAF"/>
<path d="M406.429 532.525C410.373 526.54 414.379 519.311 415.495 513.701C416.435 508.971 415.792 504.381 414.773 499.759C412.709 490.37 411.807 479.48 409.944 469.691C409.351 466.539 410.027 463.281 411.823 460.624L417.781 451.783C418.605 450.563 418.939 449.078 418.718 447.622C418.496 446.167 417.734 444.848 416.585 443.929C411.371 439.759 397.965 430.039 390.797 424.617C390.295 424.239 389.715 423.979 389.098 423.857C388.481 423.735 387.845 423.755 387.237 423.914C386.629 424.074 386.066 424.369 385.588 424.778C385.111 425.187 384.733 425.699 384.482 426.275C382.901 429.885 381.043 434.827 380.813 438.553C379.128 446.203 379.822 454.248 377.382 461.771C369.706 485.436 354.416 494.449 338.74 491.869C333.378 490.987 327.472 485.946 323.436 482.247C323.029 481.873 322.52 481.629 321.974 481.546C321.427 481.463 320.868 481.545 320.369 481.781C319.869 482.018 319.452 482.398 319.17 482.874C318.888 483.349 318.754 483.898 318.786 484.45C319.413 494.199 318.769 503.987 316.87 513.57C315.565 519.678 320.262 523.864 325.951 524.658C340.354 527.582 378.268 534.629 394.41 537.617C396.692 538.045 399.05 537.789 401.188 536.884C403.325 535.978 405.149 534.462 406.429 532.525ZM381.157 518.204C369.946 513.319 376.583 496.856 387.909 501.163C398.558 505.581 392.081 522.745 381.157 518.204Z" fill="#AFAFAF"/>
<path d="M452.46 409.986L442.162 399.401C440.524 397.718 439.47 395.553 439.156 393.226C438.842 390.899 439.285 388.532 440.418 386.475L448.682 371.479C449.333 370.297 449.512 368.912 449.181 367.604C448.851 366.296 448.037 365.161 446.903 364.43L427.846 352.148C426.826 351.488 425.586 351.258 424.397 351.506C423.208 351.753 422.164 352.46 421.492 353.472C416.325 361.256 404.434 379.834 396.414 397.435C395.973 398.405 395.882 399.499 396.157 400.528C396.433 401.558 397.057 402.46 397.923 403.081C404.549 407.835 420.944 419.712 436.611 431.939C437.263 432.449 438.015 432.815 438.818 433.013C439.621 433.212 440.456 433.237 441.27 433.089C442.084 432.941 442.857 432.621 443.538 432.153C444.22 431.684 444.794 431.076 445.223 430.369L453.272 417.103C453.945 415.994 454.229 414.693 454.082 413.405C453.936 412.117 453.365 410.914 452.46 409.986Z" fill="#AFAFAF"/>
<path d="M176.147 439.358C167.879 441.154 155.606 445.978 150.29 448.152C147.245 449.345 144.729 451.588 143.195 454.476C141.192 458.383 140.01 463.78 143.327 467.491C152.032 477.218 179.218 487.927 192.61 493.656C195.854 495.044 203.227 496.018 203.704 485.937C205.107 456.289 181.799 438.13 176.147 439.358Z" fill="#AFAFAF"/>
</g>
</g>
<defs>
<clipPath id="clip0_220_662">
<rect width="600" height="600" fill="white"/>
</clipPath>
<clipPath id="clip1_220_662">
<rect width="600" height="600" fill="white" transform="translate(-88 391.778) rotate(-58.5354)"/>
</clipPath>
<clipPath id="clip2_220_662">
<rect width="545.914" height="545.914" fill="white" transform="translate(214.429 -76) rotate(21.2014)"/>
</clipPath>
</defs>
</svg>
