<?xml version="1.0" ?><svg fill="#c0392b" data-name="Layer 4" id="Layer_4" viewBox="0 0 600 600" xmlns="http://www.w3.org/2000/svg"><title/><path d="M285.789,223.932C167.8,50.382,14.048,11.362,14.048,11.362,61.2,199.277,271.471,294.352,409.9,441.785L421.368,430.6a3.544,3.544,0,0,0,.03-5.047C402.63,404.671,59.2,69.5,54.706,53.621l-1.749-2.435a1.434,1.434,0,0,1,1.972-2.021c13.382-.238,354.88,348.976,375.531,367.193a3.542,3.542,0,0,0,4.935.068l13.124-12.387c-1.76-2.091-17.566-15.994-39.973-37.828a.587.587,0,0,1,.764-.888c20.155,15.41,38.3,27.819,44.045,31.694,2.588,2.038,5.609-2.241,7.408-3.534C368.735,337.48,307.015,255.151,285.789,223.932Z" style="fill:#c0392b"/><path d="M238.543,324.087a5.453,5.453,0,0,0-6.666,1.06c-42.768,45.9-77.642,75.635-80.384,78.892l13.124,12.387a3.545,3.545,0,0,0,4.936-.067l83.8-83.262Q246.092,328.36,238.543,324.087Z" style="fill:#c0392b"/><path d="M321.6,215.132a10.012,10.012,0,0,0-.956,9.714,237.039,237.039,0,0,0,14.116,27.485C366.107,223.409,511.794,68.909,545.082,49.164a1.435,1.435,0,0,1,1.973,2.022c-17.482,29.667-179.1,183.8-205.333,212.092a236.691,236.691,0,0,0,15.092,19.984,10.038,10.038,0,0,0,13.411,1.769C540.354,175.7,589.372,7.879,585.964,11.362,585.964,11.362,438.949,47.232,321.6,215.132Z" style="fill:#c0392b"/><path d="M247.831,385.126c11.057-10.264,21.334-19.11,34.391-30.409q-6.957-5.952-14.295-11.437a5.488,5.488,0,0,0-7.173.486l-82.141,81.786a3.545,3.545,0,0,0,.031,5.047l11.472,11.186S242.594,393.068,298,369.3c-2.536-2.017-5.889-5.138-9.355-3.31-6.626,2.962-20.783,8.395-39.837,20.378A.793.793,0,0,1,247.831,385.126Z" style="fill:#c0392b"/><path d="M591.9,554.738c-9.165-26.129-48.177-31.952-67.367-50.843-21.67-18.552-34.09-46.425-54.105-66.253a7.968,7.968,0,0,1,.458-11.731c6.025-5.03,11.914-10.315,18.589-14.468,6.74-4.159,14.214-6.98,21.172-10.764,13.906-6.506,27.085-24.226,14.734-37.931-5.408-5.242-14.265-5.586-21.126-2.474-10.593,5.056-16.676,15.246-22.332,25.375-10.408,22.4-52.867,55.765-70.26,73.138-5.3,4.917-10.641,9.861-16.706,13.8-10.9,7.027-25.237,11.538-31.023,24.089-6.582,14.742,5.966,27.786,20.978,21.631,12.86-5.472,17.664-19.908,24.778-30.863,10.958-14.674,18.326-23.193,37.813-40.791a1.243,1.243,0,0,1,1.952,1.373l-6.235,18.332a5.207,5.207,0,0,0,1.332,5.416c23.681,22.96,55.952,38.238,74.355,65.87,8.147,12.233,13.236,26.464,22.636,37.762C560.4,601.105,599.169,586.979,591.9,554.738ZM571.142,569.5c-12.436,9.577-31.4-13.682-19.515-23.932C564.062,535.992,583.024,559.251,571.142,569.5Z" style="fill:#c0392b"/><path d="M236.079,496.678c-5.792-12.554-20.128-17.06-31.023-24.089-12.327-8.335-52.838-47.756-64.652-58.255-12.252-10.555-20.257-25.257-28.379-38.79-7.311-12.319-24.581-24.112-37.394-12.795-5.686,5.513-6.011,14.986-2.449,22.06,7.55,14.654,25.239,18.581,38.356,26.634a116.836,116.836,0,0,1,13.268,9.99c5.425,4.084,11.818,9.48,5.779,16.209-20.015,19.828-32.434,47.7-54.1,66.254-19.239,18.918-58.2,24.711-67.369,50.841C.791,586.827,39.6,601.18,58.47,575.407c9.4-11.3,14.489-25.528,22.636-37.761,17.47-26.232,47.438-41.331,70.691-62.437a7.316,7.316,0,0,0,2.2-7.117l-4.645-19.44a1.892,1.892,0,0,1,3.027-1.91c14.2,11.316,25.311,25.1,27.56,27.616a112.072,112.072,0,0,1,10.387,13.088c7.115,10.953,11.924,25.4,24.778,30.863C229.985,524.445,242.722,511.483,236.079,496.678ZM47.862,565.066C34.64,580.587,16.85,566.075,29.394,550,42.616,534.484,60.405,549,47.862,565.066Z" style="fill:#c0392b"/></svg>