<?xml version="1.0" ?><svg fill="#c0392b" data-name="Layer 4" id="Layer_4" viewBox="0 0 600 600" xmlns="http://www.w3.org/2000/svg"><title/><path d="M577.133,274.135C521.386,367.871,466.952,464.683,417.967,562.15a58.064,58.064,0,0,1-51.881,32H292.135a2.757,2.757,0,0,1-2.1-4.543c109.142-128.72,213.362-262.129,301.861-405.969a2.009,2.009,0,0,1,3.723,1.051v22.108A131.728,131.728,0,0,1,577.133,274.135Z" style="fill:#c0392b"/><path d="M402.456,7.95C276.2,39.547,57.571,89.451,13.12,99.567a6.61,6.61,0,0,1-8.075-6.411l-.517-82.88a6.826,6.826,0,0,1,6.827-6.869H401.89A2.306,2.306,0,0,1,402.456,7.95Z" style="fill:#c0392b"/><path d="M590.357,594.478c-28.916-.3-57.61-.086-86.555-.124a3.651,3.651,0,0,1-3.273-5.259q45.629-92.946,90.545-186.164a2.389,2.389,0,0,1,4.542,1.039V589.281A5.2,5.2,0,0,1,590.357,594.478Z" style="fill:#c0392b"/><path d="M595.616,296.912a19.484,19.484,0,0,1-2.452,9.455C542.315,397.983,496.711,492.773,451.521,587.4c-3.32,6.965-6.12,7.386-11.4,7.053a2.979,2.979,0,0,1-2.5-4.229C486.5,485.093,538.382,381.449,591.76,278.536a2.043,2.043,0,0,1,3.856.941Z" style="fill:#c0392b"/><path d="M417.828,214.705a75.888,75.888,0,0,0,5.021-11.839,1.793,1.793,0,0,0-2.385-2.137c-23.374,9.273-56.779,34.518-56.779,34.518-5.932,2.089-.459,12.118,1.778,14.386,15.743,13.152,32.1,26.278,47.851,39.421,9.424,7.531,38.632-.931,53.212-4.4a3.689,3.689,0,0,1,4.464,2.859,55.356,55.356,0,0,1,.192,22.176c-1.378,6.327-8.151,8.159-13.956,8.83-19.519,2.257-38.355,7.345-57.106,12.9-6.96,2.06-24.456,5.973-41.337,19.4-12.771,10.157-28.535,29.214-41,40.919a2.863,2.863,0,0,1-3.906.012h0a2.87,2.87,0,0,1-.251-3.954s66.308-75.739,60.813-79.707c-3.427-2.476-30.218,21.366-30.218,21.366-2.064,1.859-3.672,1.99-6.119.794-30.176-14.019-56.384-25.842-86.875-37.6a2.139,2.139,0,0,0-2.461,3.305l11.377,14.657c3.66,3.182,3.455,6.546-.4,9.363C150.88,399.574,26.441,566.955,7.281,593.153a1.384,1.384,0,0,1-2.5-.834l.055-7.791A18.625,18.625,0,0,1,7.41,575.21c8.206-13.945,36.465-59.548,87.139-117.417a2.18,2.18,0,0,0-3.148-2.987s-40.65,27.15-80.363,74.794A3.582,3.582,0,0,1,4.7,527.3l.347-159.174a45.429,45.429,0,0,1,20.7-38.026c65.11-42.249,132.97-88.372,199.087-128.672A202.41,202.41,0,0,1,260.673,184.1c50.356-18.4,101.58-34.657,152.362-51.868,6.379-2.122,9.689-.488,13.235,5.017,21.96,35.268,47.99,68.275,80.518,94.4,4.255,3.656,4.56,5.313,1.108,9.916-1.417,1.889-4.687,5.429-7.647,8.541a34.907,34.907,0,0,1-13.54,8.881c-18.574,6.619-37.727,11.205-57.04,15.144A19.068,19.068,0,0,1,413.738,270c-10.174-8.232-20.1-16.775-30.014-25.32-2.635-2.27-2.38-4.314.077-6.729,17.116-16.826,49.507,5.984,53.314,1.521,3.344-3.919-9.566-12.483-17.918-18.829A4.76,4.76,0,0,1,417.828,214.705Z" style="fill:#c0392b"/><path d="M4.693,251.376l-.307-27.623a16.509,16.509,0,0,1,10.2-15.515c8.418-3.478,19.906-8.2,26.316-10.715,78.981-31.06,201.441-83.471,269.261-104.39a2.939,2.939,0,0,1,2.17,5.442Z" style="fill:#c0392b"/><path d="M111.734,592.289c46.413-49.724,145.177-139.851,161.251-154.469a3.65,3.65,0,0,1,4.645-.219h0a3.651,3.651,0,0,1,.6,5.271c-11.271,13.393-74.438,95.574-103.906,133.985a50.421,50.421,0,0,1-40.239,19.736c-7.35-.034-14.935-.1-20.64-.233A2.419,2.419,0,0,1,111.734,592.289Z" style="fill:#c0392b"/><path d="M5.448,133.558c-.287-.562-.538-.839-.564-1.136-.626-7.206-.628-7.23,6.328-9C153.98,87.651,322.259,42.549,466.244,7.452a1.84,1.84,0,0,1,1.506,3.283c-6.088,4.282-12.544,7.841-19.9,9.717C309.376,55.593,144.031,98.879,5.448,133.558Z" style="fill:#c0392b"/><path d="M290.066,415.351c-1.993,2.506-1.838,7.455,1.852,6.816,4.011.022,11.593-9.535,6.369-11.824C295.479,409.965,292.113,412.7,290.066,415.351Z" style="fill:#c0392b"/></svg>