<?xml version="1.0" ?><svg fill="#c0392b" data-name="Layer 4" id="Layer_4" viewBox="0 0 600 600" xmlns="http://www.w3.org/2000/svg"><title/><path d="M514.808,112.487c-8.347,11.483-17.011,23.628-20.933,37.356a77.382,77.382,0,0,0-1.3,16.293,22.951,22.951,0,0,0,4.375,13.362c25.3,34.455,33.179,64.449,35.5,82.436a2.372,2.372,0,0,1-4.6,1.046c-7.257-21.427-17.2-44.335-32.995-60.054a1.773,1.773,0,0,0-2.74,2.216c14.518,22.643,42.4,79.435,27.419,164.983-2.9,16.524-10.687,35.272-14.557,43.932a1.6,1.6,0,0,0,2.342,1.987c16.968-11.223,75.755-55.663,86.536-138.76,4.4-33.917,3.421-95.795-44.433-160.368C540.44,104.805,525.426,96.756,514.808,112.487Z" style="fill:#c0392b"/><path d="M90.148,415.586a2.384,2.384,0,0,0,3.512-2.821C84.53,387.2,54.886,288.183,110.8,209.851a2.15,2.15,0,0,0-.369-2.973c-2.835-2.094-6.677-.929-7.712.5-7.155,9.9-15.512,24.946-22.341,40.725a1.757,1.757,0,0,1-3.335-1.059c3.227-14.849,10.183-37.606,24.775-58.436a17.347,17.347,0,0,0,3.064-10.976c-1.233-21.089-8-85.729-44.443-66.894C8.524,137.572-5.284,244.661,10.823,305.829,28.165,371.688,73.846,405.378,90.148,415.586Z" style="fill:#c0392b"/><path d="M133.358,513c8.183,24,16.948,35.253,33.53,30.965,8.073-2.088,15.319-7.268,20.9-14.4,6.236-7.968,12.352-16.337,15.338-26.309,20.554-68.634-32.461-57.518-37.7-189.357-.083-2.1-2.494-2.715-3.312-.844C141.738,359.653,109.482,442.994,133.358,513Z" style="fill:#c0392b"/><path d="M421.2,81.376c-2.925,10.3-4.874,20.879-7.26,31.331-10.178,44.581,21.953,47.223,13.909,98.779l-4.665,18.993a2.392,2.392,0,0,0,3.621,2.582c13.442-8.754,49.364-36.635,49.364-84.6C473.749,80.26,435.015,32.722,421.2,81.376Z" style="fill:#c0392b"/><path d="M287.966,553.248c6.9-36.416-28.729-25.842-36.2-86.145-.264-2.13-2.491-2.647-3.329-.77-12.441,27.846-21.7,62.228-12.657,91.6C246.1,591.468,282.863,580.173,287.966,553.248Z" style="fill:#c0392b"/><path d="M342.646,468.169c-3.385,26-3.688,42.576-20.714,56.863-6.852,5.75-10.8,15.294-9.99,25.111,1.236,15.093,9.787,24.542,18.881,26.42,8.645,1.786,15.876.8,22.4-6.4,28.9-31.908,1.219-87.262-7.495-102.773C344.881,465.872,342.88,466.378,342.646,468.169Z" style="fill:#c0392b"/><path d="M190.567,112.707c-2.386-10.452-4.334-21.026-7.26-31.331-13.813-48.654-52.548-1.116-54.969,67.081,0,47.969,35.921,75.85,49.364,84.6a2.392,2.392,0,0,0,3.621-2.582l-4.665-18.993C168.613,159.93,200.746,157.288,190.567,112.707Z" style="fill:#c0392b"/><path d="M281.873,72.588c-2.386-10.451-4.335-21.026-7.261-31.331C260.8-7.4,222.065,40.141,219.644,108.338c0,47.969,35.921,75.85,49.363,84.6a2.393,2.393,0,0,0,3.622-2.582l-4.666-18.993C259.919,119.811,292.051,117.17,281.873,72.588Z" style="fill:#c0392b"/><path d="M327.667,44.529c-2.925,10.305-4.874,20.879-7.26,31.331-10.178,44.581,21.954,47.222,13.909,98.779l-4.665,18.992a2.392,2.392,0,0,0,3.621,2.583c13.443-8.754,49.364-36.635,49.364-84.6C380.215,43.413,341.48-4.125,327.667,44.529Z" style="fill:#c0392b"/><path d="M433.112,543.962c16.464,4.874,25.346-6.969,33.53-30.964,23.876-70-8.381-153.345-28.754-199.945-.818-1.871-3.229-1.254-3.312.844-3.111,78.246-23.05,106.137-34.449,130.232h0S359.789,522.257,433.112,543.962Z" style="fill:#c0392b"/></svg>