<svg width="600" height="600" viewBox="0 0 600 600" fill="none" xmlns="http://www.w3.org/2000/svg">
<g clip-path="url(#clip0_683_1942)">
<g clip-path="url(#clip1_683_1942)">
<path d="M81.0172 444.249L106.72 264.327H124.522C125.553 264.344 126.577 264.153 127.533 263.766C128.489 263.379 129.358 262.804 130.087 262.075C131.17 260.992 131.905 259.61 132.197 258.106C132.49 256.602 132.326 255.046 131.729 253.635C131.131 252.225 130.125 251.025 128.841 250.19C127.557 249.355 126.053 248.922 124.522 248.947H88.7069L88.7069 215.554C89.87 214.889 90.9412 214.075 91.8933 213.133C94.7778 210.248 96.3983 206.336 96.3983 202.257C96.3983 198.177 94.7778 194.265 91.8933 191.38C89.0088 188.496 85.0965 186.875 81.0172 186.875C76.9379 186.875 73.0256 188.496 70.1411 191.38C67.2566 194.265 65.6361 198.177 65.6361 202.257C65.6361 206.336 67.2566 210.248 70.1411 213.133C71.0932 214.075 72.1644 214.889 73.3275 215.554L73.3275 248.947H37.5129C36.4899 248.926 35.4731 249.11 34.5219 249.487C33.5707 249.864 32.7044 250.427 31.9736 251.143C31.2428 251.86 30.6622 252.714 30.2658 253.658C29.8695 254.601 29.6653 255.614 29.6653 256.637C29.6653 257.66 29.8695 258.673 30.2658 259.616C30.6622 260.56 31.2428 261.414 31.9736 262.13C32.7044 262.847 33.5707 263.41 34.5219 263.787C35.4731 264.164 36.4899 264.347 37.5129 264.327H55.314L81.0172 444.249ZM81.0172 335.404L70.8634 264.327H91.171L81.0172 335.404Z" fill="white"/>
</g>
<path d="M562.651 319.079C547.951 308.816 533.176 298.647 518.461 288.399C513.095 284.673 507.661 281.03 502.354 277.216C497.801 273.907 500.299 267.888 500.312 263.197C502.503 234.624 506.167 205.95 508.488 177.51C508.263 176.961 507.886 176.487 507.402 176.144C506.918 175.8 506.346 175.601 505.754 175.57C505.161 175.539 504.572 175.676 504.054 175.966C503.537 176.257 503.112 176.688 502.83 177.21L497.878 187.059L470.537 241.441C465.781 250.9 461.025 260.359 456.27 269.818C453.161 276 450.053 282.182 446.945 288.365C444.999 291.447 443.545 295.765 447.256 298.175C463.578 308.807 479.901 319.438 496.226 330.068C499.826 332.353 504.941 334.786 503.665 339.921C499.51 359.234 495.354 378.547 491.199 397.86C489.488 407.642 486.224 417.42 485.291 427.217C486.846 430.784 490.553 429.366 492.059 426.41C514.968 396.758 534.759 364.852 557.533 335.099C560.4 330.5 569.387 324.129 562.651 319.079Z" fill="white"/>
<path d="M482.663 133.736C485.607 130.308 480.91 125.543 477.556 128.572C419.108 181.339 359.449 239.051 304.764 293.783C303.574 294.972 301.962 295.641 300.281 295.644C298.599 295.647 296.984 294.984 295.791 293.799C225.503 224.222 162.091 164.535 123.24 128.531C119.902 125.439 115.04 130.238 118.068 133.631C173.488 195.711 227.838 253.231 282.002 307.72C283.183 308.91 283.846 310.52 283.846 312.197C283.846 313.874 283.183 315.483 282.002 316.674C212.976 386.444 153.802 449.312 118.021 487.925C114.921 491.267 119.548 496.112 123.03 493.173C221.262 410.3 429.853 195.224 482.663 133.736Z" fill="white"/>
<path d="M332.05 330.227C331.8 329.977 331.503 329.779 331.176 329.645C330.849 329.51 330.499 329.442 330.146 329.444C329.792 329.445 329.443 329.517 329.117 329.654C328.792 329.792 328.497 329.993 328.25 330.245L318.324 340.359C317.827 340.866 317.551 341.55 317.558 342.26C317.565 342.97 317.852 343.649 318.359 344.147C371.732 396.684 423.237 444.468 477.464 493.2C480.884 496.273 485.671 491.471 482.59 488.059C433.915 434.145 382.915 381.346 332.05 330.227Z" fill="white"/>
<path d="M352.168 503.57C335.675 466.117 319.614 428.37 302.897 391.048C296.247 385.464 294.548 398.685 292.015 402.531C285.449 417.571 278.882 432.611 272.315 447.651L252.592 492.826C249.438 499.992 245.981 507.126 244.669 514.919C237.831 542.761 251.634 573.68 277.751 586.028C304.288 600.651 337.401 584.208 350.206 558.728C359.13 541.739 358.691 521.3 352.168 503.57ZM292.035 550.917C273.186 575.575 252.135 531.164 267.161 514.7C275.072 503.259 288.705 512.485 292.309 522.722C296.385 531.474 297.376 542.466 292.035 550.917Z" fill="white"/>
<path d="M271.891 230.956C288.482 238.515 308.391 237.256 325.28 231.275C345.68 223.137 357.815 200.467 355.88 178.969C354.143 165.427 344.817 154.556 335.941 144.81C332.259 140.715 334.531 134.785 336.661 130.51C341.488 119.676 351.124 110.692 353.326 98.834C353.608 72.462 319.788 73.375 306.083 57.615C297.353 48.215 300.838 33.943 308.088 24.746C309.771 21.212 324.001 10.261 316.097 8.47595C301.838 16.963 263.771 47.911 265.141 65.444C268.376 78.332 284.241 81.254 293.43 88.857C308.306 100.699 285.356 112.172 277.766 120.295C269.818 127.333 262.84 135.395 257.014 144.271C238.008 171.072 239.793 215.156 271.891 230.956ZM307.991 126.656C301.78 139.304 289.115 150.383 290.368 165.582C292.033 178.672 300.626 166.95 307.482 166.398C315.37 164.816 323.109 170.046 326.688 176.863C343.075 212.931 287.462 227.299 274.537 195.096C267.25 168.717 282.562 138.814 305.243 124.902C307.287 123.3 309.594 123.716 307.996 126.66L307.991 126.656Z" fill="white"/>
</g>
<defs>
<clipPath id="clip0_683_1942">
<rect width="600" height="600" fill="white"/>
</clipPath>
<clipPath id="clip1_683_1942">
<rect width="246.098" height="246.098" fill="white" transform="translate(255.034 311.017) rotate(135)"/>
</clipPath>
</defs>
</svg>
