<?xml version="1.0" ?><svg fill="#c0392b" data-name="Layer 5" id="Layer_5" viewBox="0 0 600 600" xmlns="http://www.w3.org/2000/svg"><title/><path d="M276.78,544c53.3,18.985,78.62-29.632,81.115-62.419,5.13-67.446-15.655-175.549-15.655-175.549-2.486-28.842-44-26.62-42.452-16.41.965,7.551,26.914,5.683,23.188,16.566-3.8,11.106-27.273,9.957-41.559-4.351-9.081-9.095-21.61-1.263-24.379,11.287C243.627,373.886,217.383,522.841,276.78,544Zm57.41-166.213c-.49,22.864-34.457,20.29-34.4-.043C299.781,355.7,332.968,354.09,334.19,377.785Zm-54.639-51.019c14.211.839,15.481,23.443-.274,23.768C263.71,349.981,265.217,327.253,279.551,326.766Z" style="fill:#c0392b"/><path d="M292.364,238c.513-19.689-27.27-18.167-28.23-1.47C264.524,254.853,291.457,257.317,292.364,238Z" style="fill:#c0392b"/><path d="M326.442,199.09c.022-10.165-15.863-11.19-16.49-.923C309.485,207.537,326.717,209.705,326.442,199.09Z" style="fill:#c0392b"/><path d="M203.35,372.324C186.234,464.8,192.249,527,221.743,562.455,239.662,584,265.991,594.922,300,594.922S360.338,584,378.257,562.455C407.75,527,413.767,464.8,396.65,372.328c-18.38-114.868-27.8-189.993-31.69-223.557a11.036,11.036,0,0,1,6.79-11.441,42.468,42.468,0,0,0,26.166-40.1c-.494-23.181-19.947-41.485-43.133-41.485H340.7l5.851-29.919A17.407,17.407,0,0,0,329.465,5.078H268.012a17.407,17.407,0,0,0-17.084,20.748l5.851,29.919H245.215c-23.186,0-42.639,18.306-43.133,41.487a42.47,42.47,0,0,0,26.167,40.1,11.035,11.035,0,0,1,6.79,11.441C231.157,182.318,221.737,257.412,203.35,372.324Zm51.059-251.637a11.405,11.405,0,0,0-6.582-1.98h-2.843c-11.131,0-20.624-8.638-21.045-19.762A20.578,20.578,0,0,1,244.48,77.6H355.014c11.131,0,20.625,8.638,21.046,19.762a20.577,20.577,0,0,1-20.541,21.349H310.305a11.165,11.165,0,0,0-11.286,10.722,10.926,10.926,0,0,0,10.924,11.13H330.92a12.444,12.444,0,0,1,12.368,11.009c3.945,34.038,13.421,109.458,31.806,224.343.014.088.029.176.046.263,15.67,84.579,11.067,142.551-13.683,172.307-13.762,16.547-33.865,24.59-61.457,24.59s-47.7-8.043-61.458-24.59c-24.749-29.756-29.353-87.728-13.682-172.307.016-.087.031-.175.045-.263,25.746-160.879,34.023-244.39,34.1-245.215A10.928,10.928,0,0,0,254.409,120.687Z" style="fill:#c0392b"/></svg>