<svg fill="#c0392b" xmlns="http://www.w3.org/2000/svg" x="0px" y="0px" width="100" height="100" viewBox="0 0 64 64">
<path d="M 32 7 L 23 13 L 23 15 L 32 9 L 41 15 L 41 13 L 32 7 z M 15 11 L 8 15.900391 L 8 17.900391 L 15 13 L 22 17.900391 L 22 15.900391 L 15 11 z M 32 11 L 24 16 L 24 27 L 30 27 L 30 20 L 34 20 L 34 27 L 40 27 L 40 16 L 32 11 z M 49 11 L 42 15.900391 L 42 17.900391 L 49 13 L 56 17.900391 L 56 15.900391 L 49 11 z M 15 15 L 9 19 L 9 27 L 21 27 L 21 19 L 15 15 z M 49 15 L 43 19 L 43 27 L 55 27 L 55 19 L 49 15 z M 13 20 L 17 20 L 17 24 L 13 24 L 13 20 z M 47 20 L 51 20 L 51 24 L 47 24 L 47 20 z M 9 29 C 6.239 29 4 31.239 4 34 L 4 48 L 4 49.160156 C 4.458 47.000156 5.1038594 44.866312 6.0058594 42.820312 C 7.2658594 39.930312 9.0154688 37.250391 11.105469 34.900391 C 13.105469 32.660391 15.394219 30.72 17.824219 29 L 9 29 z M 23 29 C 20.39 30.4 17.795 32.340078 15.625 34.330078 C 13.215 36.510078 11.164219 39.079687 9.5742188 41.929688 C 6.8342187 46.779687 5.505 52.35 5.125 58 L 17.025391 58 C 17.075391 55.94 17.225391 53.880547 17.525391 51.810547 C 17.955391 48.750547 18.735859 45.700313 20.005859 42.820312 C 21.265859 39.930312 23.015469 37.250391 25.105469 34.900391 C 27.105469 32.660391 29.394219 30.72 31.824219 29 L 23 29 z M 37 29 C 34.39 30.4 31.795 32.340078 29.625 34.330078 C 27.215 36.510078 25.164219 39.079687 23.574219 41.929688 C 20.834219 46.779687 19.505 52.35 19.125 58 L 31.025391 58 C 31.075391 55.94 31.225391 53.880547 31.525391 51.810547 C 31.955391 48.750547 32.735859 45.700313 34.005859 42.820312 C 35.265859 39.930312 37.015469 37.250391 39.105469 34.900391 C 41.105469 32.660391 43.394219 30.72 45.824219 29 L 37 29 z M 51 29 C 48.39 30.4 45.795 32.340078 43.625 34.330078 C 41.215 36.510078 39.164219 39.079687 37.574219 41.929688 C 34.834219 46.779687 33.505 52.35 33.125 58 L 45.025391 58 C 45.075391 55.94 45.225391 53.880547 45.525391 51.810547 C 45.955391 48.750547 46.735859 45.700313 48.005859 42.820312 C 49.265859 39.930312 51.015469 37.250391 53.105469 34.900391 C 55.105469 32.660391 57.394219 30.72 59.824219 29 L 51 29 z M 60.005859 32.509766 C 58.255859 33.779766 56.614766 35.189766 55.134766 36.759766 C 53.164766 38.849766 51.515156 41.239609 50.285156 43.849609 C 49.045156 46.449609 48.234141 49.270156 47.744141 52.160156 C 47.414141 54.080156 47.225234 56.03 47.115234 58 L 56.005859 58 C 58.215859 58 60.005859 56.21 60.005859 54 L 60.005859 32.509766 z"></path>
</svg>