<?xml version="1.0" ?><svg fill="#c0392b" id="icon" viewBox="0 0 512 512" xmlns="http://www.w3.org/2000/svg"><title/><path d="M76.65,205.6c6.17-10.08,12.52-20.33,19-30.51a5.11,5.11,0,0,0-3.14-7.74c-16.54-3.44-34.36-7.11-46.81-9.58a3.48,3.48,0,0,0-3.5,5.32l26.18,42.52A4.84,4.84,0,0,0,76.65,205.6Z"/><path d="M370.77,274.88a517.63,517.63,0,0,1,13.61,50,5,5,0,0,0,9.65.62l14.48-41.68C397.87,281.55,384.64,278.52,370.77,274.88Z"/><path d="M452.1,161.81a23.91,23.91,0,0,1-6.94,3.43,25,25,0,0,1-21.74-3.62c-16.9-12-26-31.42-24.85-53.19.72-13.89,11.85-24.78,25.35-24.78a25.32,25.32,0,0,1,3,.18c4.15.51,8.51.92,12.87,1.25a3.83,3.83,0,0,0,3.93-4.69c-3.1-14.41-6-26-8-33.33a15.79,15.79,0,0,0-11.59-11.33C370.6,23.12,313.5,33.6,313.5,33.6c-31.95,9.29-63,20.24-85.54,28.67a5.24,5.24,0,0,0-2.76,7.2,117.39,117.39,0,0,1,11.44,38.78c2,18.79-7.74,36.72-24.18,44.63a55.48,55.48,0,0,1-24.24,5.35,41.61,41.61,0,0,1-6.1-.29c-17.66-2.59-24.38-18.32-26.84-27.61a3,3,0,0,0-5.42-1.05c-44.73,63.9-98.3,157.49-114,185.31a35.24,35.24,0,0,0-4.54,17.35V467a15.3,15.3,0,0,0,15.06,15.53H238a13.35,13.35,0,0,0,13.14-13.82c-.31-15.74-.52-32-.66-48.32a7.24,7.24,0,0,0-11.65-5.89l-.13.1a37.2,37.2,0,0,1-17.36,7.73,35.9,35.9,0,0,1-30.49-9.76c-17.94-17.3-25.07-38.82-25.83-41.22,0-.16-.09-.31-.14-.47-11.15-38.54,4.88-63.72,15.43-75.3a36.51,36.51,0,0,1,26.9-12,35.77,35.77,0,0,1,9.9,1.4c7.71,2.21,16.44,5.16,25.34,8.41a6.2,6.2,0,0,0,8.25-5.93c.19-19.39.41-35,.56-44.68a50.32,50.32,0,0,1,5.35-21.86A284.84,284.84,0,0,1,318.26,140a11,11,0,0,0,3-11.32c-4.21-13.47-7.42-21.87-7.47-22a8.86,8.86,0,0,1,4.77-11.38,8.43,8.43,0,0,1,11,4.91c.14.36,1.53,4,3.62,10.11a436.56,436.56,0,0,0,17.52,43.42l14.4,30.78a18.12,18.12,0,0,1-8.57,24.12l-29.31,13.48c-7.65,3.51-7.3,14.76.52,17.85,33.21,13.13,80.55,23.18,100,27a13.41,13.41,0,0,0,13.86-6l8.78-13.57A42,42,0,0,0,457,227.84a409.68,409.68,0,0,0-.59-63.93,2.74,2.74,0,0,0-4.27-2.1Z"/><path d="M211.83,304.63a16.72,16.72,0,0,0-17,4.9c-8.34,9.17-19,27.3-10.87,55.46,0,0,5.79,18.4,20.5,32.59a16.54,16.54,0,0,0,21.81,1.05c16.06-12.6,47.52-37.78,66.39-56.05a4.59,4.59,0,0,0-1.3-7.45C276.52,328.64,237.77,312.07,211.83,304.63Z"/><path d="M169.64,36.73l4.35,90a11.27,11.27,0,0,0,10,10.82,38,38,0,0,0,20.11-3.23c8.83-4.25,13.89-13.9,12.84-23.89-1.65-15.73-9.68-44.07-42.4-76A2.87,2.87,0,0,0,169.64,36.73Z"/><path d="M478,106.93c-10.88,0-33.86-.39-53.37-2.78a5.58,5.58,0,0,0-6.19,5.36c-.44,8.61,1.12,24.47,16.3,35.27a5.44,5.44,0,0,0,6.29.08c6.84-4.75,24.12-17.33,38.94-33.15A2.84,2.84,0,0,0,478,106.93Z"/></svg>