<svg fill="#c0392b" xmlns="http://www.w3.org/2000/svg" x="0px" y="0px" width="100" height="100" viewBox="0 0 48 48">
<path d="M 42.998047 2 L 41.998047 3 L 41.998047 4 L 40.826172 5.1230469 L 39.964844 4.2636719 C 39.987844 4.1816719 40 4.0929531 40 4.0019531 C 40 3.4499531 39.552 3.0019531 39 3.0019531 C 38.448 3.0019531 38 3.4499531 38 4.0019531 C 38 4.5539531 38.448 5.0019531 39 5.0019531 C 39.088 5.0019531 39.174859 4.9917031 39.255859 4.9707031 L 40.105469 5.8183594 L 38.783203 7.0820312 L 37.964844 6.265625 C 37.987844 6.181625 38.001953 6.0939531 38.001953 6.0019531 C 38.001953 5.4499531 37.553953 5.0019531 37.001953 5.0019531 C 36.449953 5.0019531 36.001953 5.4499531 36.001953 6.0019531 C 36.001953 6.5539531 36.449953 7.0019531 37.001953 7.0019531 C 37.087953 7.0019531 37.172906 6.9917031 37.253906 6.9707031 L 38.060547 7.7773438 L 18.001953 27.001953 L 21.001953 30.001953 L 41.203125 8.9140625 L 42.03125 9.7421875 C 42.00925 9.8241875 41.998047 9.9100469 41.998047 9.9980469 C 41.998047 10.550047 42.446047 10.998047 42.998047 10.998047 C 43.550047 10.998047 43.998047 10.550047 43.998047 9.9980469 C 43.998047 9.4460469 43.550047 8.9980469 42.998047 8.9980469 C 42.907047 8.9980469 42.819281 9.0102031 42.738281 9.0332031 L 41.898438 8.1933594 L 43.162109 6.8730469 L 44.03125 7.7421875 C 44.00925 7.8251875 43.998047 7.9129531 43.998047 8.0019531 C 43.998047 8.5539531 44.446047 9.0019531 44.998047 9.0019531 C 45.550047 9.0019531 45.998047 8.5539531 45.998047 8.0019531 C 45.998047 7.4499531 45.550047 7.0019531 44.998047 7.0019531 C 44.908047 7.0019531 44.821281 7.0121563 44.738281 7.0351562 L 43.855469 6.1503906 L 43.998047 6 L 44.998047 6 L 45.998047 5 L 45.998047 3 L 44.998047 2 L 42.998047 2 z M 23.001953 15.001953 C 19.023953 15.001953 16.993859 21.001953 15.505859 21.001953 L 15.001953 21.001953 L 15.001953 22.001953 C 15.496953 22.226953 16.001953 22.530953 16.001953 23.001953 C 16.001953 25.180953 12.602953 28.001953 10.001953 28.001953 C 9.5099531 28.001953 9.1189531 27.461953 9.0019531 27.001953 L 8.0019531 27.001953 C 8.0019531 28.788953 0.001953125 28.988953 0.001953125 36.001953 C 0.001953125 38.981953 2.1299531 42.129953 4.0019531 44.001953 C 5.0928086 45.092809 6.6214686 46.257993 8.2929688 47.050781 C 4.5280361 47.130065 0.001953125 47.296516 0.001953125 47.498047 C 0.001953125 47.775424 8.652027 47.99706 11.972656 47.998047 C 11.981715 47.998083 11.990944 48.000003 12 48 C 12.010382 48 12.018945 47.998082 12.029297 47.998047 C 17.000869 47.997432 30.001953 47.775659 30.001953 47.498047 C 30.001953 47.271095 21.548085 47.09151 15.660156 47.029297 C 19.15884 44.905303 19.598888 40 21 40 L 21 39 C 20.54 38.883 20 38.492 20 38 C 20 35.399 22.821 32 25 32 C 25.471 32 25.775 32.505 26 33 L 27 33 L 27 32.494141 C 27 31.006141 33 28.977 33 25 C 33 23.383 32.335094 21.938047 31.371094 20.623047 L 21.722656 30.691406 C 21.334656 31.096406 20.688969 31.103031 20.292969 30.707031 L 17.292969 27.707031 C 16.896969 27.311031 16.903594 26.667297 17.308594 26.279297 L 27.376953 16.630859 C 26.061953 15.666859 24.618953 15.001953 23.001953 15.001953 z M 14.501953 28.001953 C 14.612953 28.001953 14.766875 28.000484 14.921875 28.021484 C 15.079875 28.042484 15.269219 28.090031 15.449219 28.207031 C 15.841219 28.464031 16.001953 28.924 16.001953 29.5 L 16.001953 30 C 16.001953 30.552 15.553953 31 15.001953 31 C 14.449953 31 14.001953 30.552 14.001953 30 C 14.001953 29.448 14.449266 29.000531 14.822266 29.019531 C 14.758266 29.008531 14.664953 29 14.501953 29 C 14.134953 29 13.794406 29.136859 13.441406 29.380859 C 13.078406 29.632859 12.734516 29.972469 12.353516 30.355469 C 11.985516 30.723469 11.577906 31.132359 11.128906 31.443359 C 10.669906 31.761359 10.134 32.000953 9.5 32.001953 C 9.388 32.001953 9.233125 32.003422 9.078125 31.982422 C 8.920125 31.961422 8.7307812 31.913875 8.5507812 31.796875 C 8.1587813 31.538875 8.0019531 31.078953 8.0019531 30.501953 L 8.0019531 30.001953 C 8.0019531 29.449953 8.4499531 29.001953 9.0019531 29.001953 C 9.5539531 29.001953 10.001953 29.449953 10.001953 30.001953 C 10.001953 30.492953 9.6466406 30.901328 9.1816406 30.986328 C 9.2386406 30.995328 9.3339531 31.001953 9.5019531 31.001953 C 9.8679531 31.001953 10.207547 30.867047 10.560547 30.623047 C 10.923547 30.371047 11.265484 30.031437 11.646484 29.648438 C 12.014484 29.280437 12.422094 28.871547 12.871094 28.560547 C 13.329094 28.242547 13.866953 28.001953 14.501953 28.001953 z M 5.9863281 31.001953 C 6.5373281 30.993953 6.9939531 31.435328 7.0019531 31.986328 C 7.0069531 32.331328 6.83425 32.637062 6.40625 32.914062 C 4.45125 34.032062 3.7872344 34.946969 2.9902344 36.542969 C 2.9122344 36.709969 2.742875 36.826125 2.546875 36.828125 C 2.270875 36.833125 2.0411094 36.604891 2.0371094 36.337891 C 2.0151094 34.942891 2.8359062 32.388625 5.5039062 31.140625 C 5.7179062 31.033625 5.8463281 31.004953 5.9863281 31.001953 z M 12.5 32 C 12.628 32 12.755516 32.048984 12.853516 32.146484 L 15.853516 35.146484 C 16.048516 35.342484 16.048516 35.657516 15.853516 35.853516 C 15.657516 36.048516 15.342484 36.048516 15.146484 35.853516 L 12.146484 32.855469 C 11.951484 32.659469 11.951484 32.342484 12.146484 32.146484 C 12.244484 32.048984 12.372 32 12.5 32 z M 18.003906 32.001953 L 18.503906 32.001953 C 19.079906 32.001953 19.539875 32.160734 19.796875 32.552734 C 19.913875 32.732734 19.959469 32.921078 19.980469 33.080078 C 20.001469 33.235078 20.001953 33.390953 20.001953 33.501953 C 20.001953 34.135953 19.760359 34.671859 19.443359 35.130859 C 19.132359 35.579859 18.723469 35.987469 18.355469 36.355469 C 17.972469 36.737469 17.632859 37.078406 17.380859 37.441406 C 17.136859 37.795406 17.001953 38.136953 17.001953 38.501953 C 17.001953 38.669953 17.008578 38.763312 17.017578 38.820312 C 17.102578 38.355312 17.510953 38.001953 18.001953 38.001953 C 18.553953 38.001953 19.001953 38.449953 19.001953 39.001953 C 19.001953 39.553953 18.553906 40.001 18.003906 40 L 17.503906 40 C 16.925906 40 16.464031 39.843172 16.207031 39.451172 C 16.090031 39.271172 16.044438 39.080875 16.023438 38.921875 C 16.002437 38.767875 16.003906 38.613953 16.003906 38.501953 C 16.003906 37.868953 16.243547 37.332047 16.560547 36.873047 C 16.871547 36.424047 17.280438 36.016438 17.648438 35.648438 C 18.031438 35.266437 18.371047 34.923547 18.623047 34.560547 C 18.867047 34.207547 19.003906 33.868953 19.003906 33.501953 C 19.003906 33.339953 18.995375 33.243688 18.984375 33.179688 C 19.003375 33.552688 18.555906 34.001953 18.003906 34.001953 C 17.451906 34.001953 17.003906 33.553953 17.003906 33.001953 C 17.003906 32.449953 17.451906 32.001953 18.003906 32.001953 z M 11.001953 34.001953 C 11.758953 35.180953 12.752953 36.184953 14.001953 37.001953 C 11.743953 38.915953 8.3989531 40.463953 6.0019531 43.001953 L 5.0019531 42.001953 C 7.5389531 39.604953 9.0869531 36.258953 11.001953 34.001953 z"></path>
</svg>