<?xml version="1.0" ?><svg fill="#c0392b" data-name="Layer 4" id="Layer_4" viewBox="0 0 600 600" xmlns="http://www.w3.org/2000/svg"><title/><path d="M112.686,263.017l-5.921-25.884a34.081,34.081,0,0,0-5.105-11.656l-36.119-52.72h0L61.4,208.843a12.179,12.179,0,0,0,3.426,9.937l45.1,45.748A1.633,1.633,0,0,0,112.686,263.017Z" style="fill:#c0392b"/><path d="M431.855,599.147s-42.049-59.114-62.694-105.565a1.985,1.985,0,0,0-3.8.655l-.893,12.239a17.657,17.657,0,0,0,2.608,10.6L381.926,541a1.607,1.607,0,0,1-2.485,2L57.629,230.5a17.262,17.262,0,0,0-14.52-4.644L4.76,231.561l13.2,12.159a18.7,18.7,0,0,0,12.659,4.893,114.342,114.342,0,0,1,31.49,4.726c5.61,2.649-4.186,5.2-20.334,7.515-1.782.256-1.9,2.953-.464,4.042,3.971,3.014,11.38,7.944,19.575,9.914l9.833,2.36a72.322,72.322,0,0,1,33.619,18.549l243.44,232.652a2.561,2.561,0,0,1-1.625,4.408l-26.927,1.52a1.986,1.986,0,0,0-.754,3.772C353.688,554.937,398.6,579.992,431.855,599.147Z" style="fill:#c0392b"/><path d="M482.234,438.075S388.9,306.861,350.818,212.515l-2.973,40.745a35.227,35.227,0,0,0,5.2,21.137l29.612,47.717A3.2,3.2,0,0,1,377.7,326.1S191.353,166.454,83.771,4.881A8.68,8.68,0,0,0,76.589.853H57.636C72.682,23.48,114.313,66.49,143.6,104.84a1.208,1.208,0,0,1-1.806,1.594C106.111,75.15,74.628,39.1,42.967,3.258a8.437,8.437,0,0,0-5.9-2.405H4.76l309.8,296.074a5.107,5.107,0,0,1-3.241,8.79l-69.284,3.911C314.024,343.038,411.381,397.27,482.234,438.075Z" style="fill:#c0392b"/><path d="M137.013,459.941a1.986,1.986,0,0,0-3.8.655l-.893,12.239a17.656,17.656,0,0,0,2.608,10.6l14.848,23.926a1.607,1.607,0,0,1-2.485,2L.042,376.645v11.533a12.608,12.608,0,0,0,3.9,9.114l111.693,97.439a2.56,2.56,0,0,1-1.625,4.407l-26.927,1.52a1.986,1.986,0,0,0-.754,3.772c33.409,16,75.545,39.375,108.18,58.087a1.34,1.34,0,0,0,1.769-1.925C185.83,545.478,154.094,498.375,137.013,459.941Z" style="fill:#c0392b"/><path d="M562.571,348.743l-5.921-25.884a34.067,34.067,0,0,0-5.105-11.655l-36.119-52.721-4.14,36.086a12.178,12.178,0,0,0,3.426,9.937l45.1,45.748A1.633,1.633,0,0,0,562.571,348.743Z" style="fill:#c0392b"/><path d="M599.958,408.81a6.66,6.66,0,0,0-2.02-4.777l-90.424-87.809a17.263,17.263,0,0,0-14.52-4.644l-38.349,5.707,13.2,12.159a18.693,18.693,0,0,0,12.66,4.893A114.373,114.373,0,0,1,512,339.065c4.739,2.238-18.687,5.436-26.069,6.374a.987.987,0,0,0-.508,1.734c4.214,3.595,15.675,12.618,25.354,13.363l9.834,2.36a72.335,72.335,0,0,1,33.618,18.55l45.732,43.706Z" style="fill:#c0392b"/><path d="M302.344,75.047a1.986,1.986,0,0,0-3.8.655l-.893,12.239a17.656,17.656,0,0,0,2.608,10.6l14.848,23.926a1.607,1.607,0,0,1-2.485,2L187.724,3.179A8.234,8.234,0,0,0,181.99.853H166.927L280.964,109.837a2.561,2.561,0,0,1-1.625,4.408l-26.927,1.519a1.986,1.986,0,0,0-.754,3.772c35.213,16.866,80.12,41.921,113.38,61.076C365.038,180.612,322.989,121.5,302.344,75.047Z" style="fill:#c0392b"/><path d="M537.9,176.639a1.846,1.846,0,0,0-3.531.609l-.83,11.378a16.419,16.419,0,0,0,2.424,9.854l13.8,22.243a1.494,1.494,0,0,1-2.31,1.859L322.494,4.129A11.6,11.6,0,0,0,314.418.853H300.241l217.78,208.129a2.38,2.38,0,0,1-1.511,4.1l-25.033,1.413a1.846,1.846,0,0,0-.7,3.507c32.736,15.679,74.484,38.972,105.4,56.779C596.181,274.778,557.09,219.823,537.9,176.639Z" style="fill:#c0392b"/><path d="M596.7,112l-4.184-4.084L510.137,4.921A10.834,10.834,0,0,0,501.676.853h-9.6c13.24,12.618,29.091,31.114,45.58,51.047a.891.891,0,0,1-1.287,1.231l-53.4-48.982a11.594,11.594,0,0,0-8.1-3.3H449.119L599.958,145.008V119.737A10.813,10.813,0,0,0,596.7,112Z" style="fill:#c0392b"/></svg>