<?xml version="1.0" ?><svg fill="#c0392b" data-name="1" id="_1" viewBox="0 0 600 600" xmlns="http://www.w3.org/2000/svg"><title/><path d="M109.95,251.525c67.28,12.033,120.374-21.344,141.671-87.962,9.734-30.447,19.692-130.836-97.15-156.544C93.983-6.291-12.576,34.368,6.852,154.16,19.327,231.075,85.828,247.21,109.95,251.525ZM37.492,127.145c9.454-35.442,45.4-14.729,49.972,12.131C102.921,213.705,24.081,182.605,37.492,127.145Z" style="fill:#c0392b"/><path d="M235.715,263.918c22.014-13.659,29.9-35.281,32.478-45.338a14.01,14.01,0,0,0-1.091-9.852l-.535-1.049a7.973,7.973,0,0,0-14.252.132c-14.676,29.259-41.108,45.912-54.186,52.722a7.969,7.969,0,0,0-2.783,11.73,71.528,71.528,0,0,0,15.456,15.4,40.516,40.516,0,0,0,46.836.877c14.552-9.89,26.159-20.3,31.853-32.961a13.817,13.817,0,0,0-.025-11.19l-1.646-3.761a7.979,7.979,0,0,0-14.171-.893c-9.416,16.012-21.331,26.247-35.668,29.662A3,3,0,0,1,235.715,263.918Z" style="fill:#c0392b"/><path d="M505.171,516.209c23.679,14.374,72.27,58.165,86.788,70.285a2.147,2.147,0,0,0,3.521-1.655,15.255,15.255,0,0,0-6.093-12.174c-162.315-122.4-263.9-267-281.916-293.64a3.572,3.572,0,0,0-5.816-.133c-11.1,14.7-28.17,25.784-35.8,30.3a3.571,3.571,0,0,0-.787,5.531c27.51,29.09,227.67,240.753,260.843,275.91A15.2,15.2,0,0,0,536.97,595.4h44.825a2.15,2.15,0,0,0,1.528-3.662c-13.344-13.549-62.588-55.167-79.721-73.583A1.261,1.261,0,0,1,505.171,516.209Z" style="fill:#c0392b"/></svg>