<?xml version="1.0" ?><svg fill="#c0392b" data-name="1" id="_1" viewBox="0 0 600 600" xmlns="http://www.w3.org/2000/svg"><title/><path d="M228.5,304.655a4.285,4.285,0,0,0,6.235.23l46.654-46.079a4.285,4.285,0,0,0-.334-6.39c-21.736-17.442-26.345-40.385-6.01-63.2a4.274,4.274,0,0,0-.134-5.877l-67.772-67.724a4.253,4.253,0,0,0-5.911-.1C183.22,132.346,91.588,217.948,85.38,224.935a6.121,6.121,0,0,0,.165,8.318c13.149,13.645,55.3,57.346,64.086,65.9a5.459,5.459,0,0,0,7.337.264C166.762,291.14,200.853,273.069,228.5,304.655Z" style="fill:#c0392b"/><path d="M377.331,5.46c-17.208,9.09-87.516,44.944-151.337,58.9-2.595.567-4.094,4.7-1.6,5.624,21.549,7.951,28.492,21.15,4.925,40.36-3.039,2.477-1.743,7.605,1.011,10.395,11.007,11.147,39.618,35.389,54.587,50.931a1.586,1.586,0,0,0,2.713-1.31l-.908-6.978c-3.187-17.814,12.208-39.383,32.694,2.158,1.264,2.563,5.309,1.546,5.92-1.246C338.447,104.479,371.446,26.125,379.5,7.458A1.562,1.562,0,0,0,377.331,5.46Z" style="fill:#c0392b"/><path d="M7.861,271.7,103.54,375.44c3.256,3.531,8.846,5.714,12.827,3.026,21.713-14.659,39.788-36.308,39.788-36.308a11.569,11.569,0,0,0-1.577-14.292l-98.4-101.721c-3.8-3.94-10.047-5.1-14.512-1.933C22.925,237.5,6.7,257.229,6.7,257.229,3.189,262.052,4.19,267.717,7.861,271.7Z" style="fill:#c0392b"/><path d="M591.742,561.58C495.761,496.331,425.791,423.354,410.1,406.461a8.3,8.3,0,0,0-8.143-2.391L377,410.446a2.249,2.249,0,0,0-.882,3.907C394.38,429.576,482.647,504.634,553.632,591.6a8.487,8.487,0,0,0,6.575,3.129h27.672a1.616,1.616,0,0,0,1.19-2.709l-71.028-73.465a1.145,1.145,0,0,1,1.548-1.683c17.826,14.662,47.441,38.594,73.287,57.458a1.617,1.617,0,0,0,2.6-1.285V568.6A8.5,8.5,0,0,0,591.742,561.58Z" style="fill:#c0392b"/><path d="M356.188,394.229a5.247,5.247,0,0,0,5.093,1.388l24.719-6.6a3.072,3.072,0,0,0,1.386-5.134l-29.478-29.667a2.217,2.217,0,0,0-3.618.706l-9.79,23.367a4.65,4.65,0,0,0,.975,5.059Z" style="fill:#c0392b"/><path d="M264.348,320.632a4.566,4.566,0,0,0,6.382.023l29.106-28.237a4.566,4.566,0,0,0,.194-6.353l-10.2-11.19a4.567,4.567,0,0,0-6.615-.14l-29.138,29.354a4.566,4.566,0,0,0,.038,6.471Z" style="fill:#c0392b"/><path d="M114.3,131.735c-14.239,13.376-4.8,30.365,1.12,38.343a5.144,5.144,0,0,0,7.744.594l29.869-29.434a5.139,5.139,0,0,0-.489-7.758C144.811,127.632,128.44,118.453,114.3,131.735Z" style="fill:#c0392b"/><path d="M299.821,338.289a3.871,3.871,0,0,0,5.228.078l16.535-14.693a3.871,3.871,0,0,0,.183-5.615l-11.1-11.238a3.873,3.873,0,0,0-5.373-.132L288.6,322.006a3.873,3.873,0,0,0-.039,5.671Z" style="fill:#c0392b"/><path d="M329.068,366.985a3.136,3.136,0,0,0,5.313-.837l8.927-22.073a4.067,4.067,0,0,0-1.011-4.513l-7.752-7.164a2.91,2.91,0,0,0-4.048.1l-14.858,15.1a3.858,3.858,0,0,0-.208,5.182Z" style="fill:#c0392b"/></svg>