<?xml version="1.0" ?><svg fill="#c0392b" data-name="Layer 4" id="Layer_4" viewBox="0 0 600 600" xmlns="http://www.w3.org/2000/svg"><title/><path d="M591.179,481.525a76.238,76.238,0,0,0-26.9,2.356c-14.345,3.976-27.818,10.057-41.025,16.773-15.935,8.529-45.558,19.1-48.363-7.946-.334-14.575,4.217-24.981,3.925-39.16a1.452,1.452,0,0,0-2.414-1.043c-12.73,11.145-24.922,19.67-42.706,24.341a2.307,2.307,0,0,1-1.848-4.161c26.077-16.948,86.988-64.228,60.409-122.034,27.65,11.855,26.04,34.609,22.251,47.825a2.027,2.027,0,0,0,3.624,1.694c6.047-8.733,11.86-23.551,1-41.407-20.27-33.339-62.293-45.84-98-60.128-53.307-18.8-162.728-8.877-262.353-97.4C53.262,107.46,145.179,62.714,171.663,52.419a9.117,9.117,0,0,0,5.764-9.573L176.19,32.42c-29.379,11.262-97.882,39.589-98.966,76.089a160.733,160.733,0,0,0,31.71,94.331,1.419,1.419,0,0,1-2.128,1.864C83.2,181.6,60.02,152.152,53.583,119.84A56.545,56.545,0,0,1,67.776,69.713c10.489-11.034,32.173-24.429,46.491-32.678a2.59,2.59,0,0,0-1.923-4.757c-15.4,3.87-39.6,12.588-61.334,31.758C4.357,105.181,55.831,184.072,91.791,214.642c29.987,27.824,70.42,52.552,104.661,74.07,1.548,2.973.226,7.371.432,11.133a6.67,6.67,0,0,1-4.585,6.712c-50.417,16.467-65.1,52.943-69.295,70.127a1.8,1.8,0,0,1-3.538-.241c-4.295-35.295,21.24-70.6,51.279-83.409a2.608,2.608,0,0,0,.249-4.694l-25.343-13.833c-4.854-2.649-10.38-2.344-15.834-1.433-27.03,4.513-92.087,63.219-40.715,145.683,2.367,3.8,7.252,7.519,12.17,4.815a133.75,133.75,0,0,1,32.22-10.606c4.643-1.7,3.931-6.329,3.282-11.077-10.159-74.375,59.042-84.853,59.042-84.853.967,52.446-7.445,121.913-7.445,121.913-76.441-28.055-115.818,23.193-115.794,64-.044,2.13-.51,2.853-2.848,2.483-21.675-3.48-45.121-3.264-62.542,12.536a7.078,7.078,0,0,0-2.748,6c-.032,22.387-.2,72.1-.2,72.1H16.612a8.444,8.444,0,0,0,8.073-6.008c3.359-11.03,14.267-33.265,47.469-31.881,29.6,1.234,45.966,15.224,61.117-21.134,14.577-26.848,47.58-30.8,73.741-19.559,7.61,2.236,27.626,9.886,35.75-4.628a20.126,20.126,0,0,0,2.435-9.423L249.26,309.9c19.122,3.659,37.78,9.614,56.746,14.157,5.343,1.39,5.476,1.486,5.337,7.017l-2.02,140.7c-.145,17.688,12.235,37.265,33.522,23.537a71.793,71.793,0,0,1,34.379-11.672c35.605-2.2,58.171,11.776,67.1,42.965A21.3,21.3,0,0,0,467.6,541.641c32.123-3.976,64.608,19.3,63.056,49.547-.124,3.7,2.059,3.36,4.434,3.357q28.15-.029,56.3-.017c4.31,0,4.359-.045,4.36-4.235q.021-51.856,0-103.714C595.751,482.049,595.675,481.9,591.179,481.525Zm-456.99-12.682a35.87,35.87,0,0,1-14.1,20.329c-9.116,6.706-20.881.577-19.363-13.742,1.535-14.477,27.832-33.85,33.433-15.866A16.4,16.4,0,0,1,134.189,468.843ZM380.863,453.3c-2.775.842-4.509.24-5.715-2.727-3.881-9.549-3.9-7.623,4.728-10.272,14.335-4.4,28.469-9.29,41.168-17.439,21.067-13.533,32.649-35.532,7.471-53.548a86.554,86.554,0,0,0-18.173-9.925,1.223,1.223,0,0,0-1.1,2.176c20.3,12.451,55.156,42.36-31.695,64.179-10.515,2.641-11.841-10.059-11.977-12.143-2.474-24.252-4.2-48.94-.341-72.962,3.276-20.392,58.811,14.585,64.683,17.771,29.983,15.263,37.869,44.36,10.4,67.325C423.159,440.023,402.161,447.613,380.863,453.3Zm195.712,61.267c-6.122,12.277-18.465,20.171-32.28,21.712a10.222,10.222,0,0,1-10.929-13.8c4.763-10.75,31.3-29.575,41.469-19.5A10.066,10.066,0,0,1,576.575,514.565Z" style="fill:#c0392b"/><path d="M470.867,216.281A566.377,566.377,0,0,1,418.7,247.232c-11.073,5.781-22,11.852-32.939,17.877-.814.448-1.255,1.574-1.87,2.385,1.486,1.26,3.073,2.593,5.119,1.788,58.818-17.743,122.2-59.621,158.806-109.176C578,114.666,495.7,28.588,442.292,5c-17.763-7.843-31.9,29.775-31.9,29.775-.929,2.755-.016,4.7,2.731,5.961,36.1,17.9,77,51.6,66.714,96.529-6.566,36.789-83.183,71.585-115.217,86.587C363.638,154.1,375.1,66.767,405.559,5.29h-6.544a8.65,8.65,0,0,0-8.171,5.814L377.355,49.966a1.562,1.562,0,0,1-3,0c-2.137-7.741,2.629-26.084,8.538-45.083L328.96,5.1c-3.175-.077-3.841,1.144-3.884,4.008-6.066,80.407-4.593,160.961-3.725,241.48a6.923,6.923,0,0,0,4.973,6.586c9,2.61,18.992,4.918,28.3,6.737a20.686,20.686,0,0,0,15.707-3.214c7.161-4.934,13.477-10.029,21.543-14.653C438.192,216.175,547,179.07,523.057,108.48l1.249-.645C560.749,156.906,509.063,192.124,470.867,216.281Z" style="fill:#c0392b"/><path d="M198.243,203.547c-.039,6.592,6.324,9.818,11.209,12.9a238.518,238.518,0,0,0,42.67,20.289c1.478.46,2.178-.156,2.169-1.657-.71-58.38-1.449-106.315-1.2-166.9.288-15.287.706-37.009,1.1-58.731.094-5.183.057-5.206-4.944-5.208q-24.69-.008-49.38.014c-9.586-.473-7.578,8.827-6.786,15.276,2.362,51.122,5.19,102.241,5.551,153.427C198.729,183.146,198.16,193.349,198.243,203.547Z" style="fill:#c0392b"/><path d="M578.728,227.368c2.986-18.535-19.138-28.327-35.554-24.665-29.48,6.577-33.662,26.424-33.4,38.171a12.942,12.942,0,0,1-7.713,12.2c-26.409,11.531-32.914,33.846-22.77,42.161a22.637,22.637,0,0,0,15.047,5.483c17.81-.084,30.715-10.254,34.341-26.7,1.574-7.145,4.971-13.032,12.06-15.062C574.733,249.221,577.513,236.825,578.728,227.368Zm-51.006,7.9c-15.272-9.043,17-32.43,19.509-13.306C547.432,230.272,535.342,238.519,527.722,235.263Z" style="fill:#c0392b"/><path d="M79.16,279.679c-1.894-38.606-28-53.476-39.815-81.264-2.73-7.018-6.041-13.821-9.338-20.6-2.116-4.35-6.092-6.368-10-5.626-10.662,3.153-6.337,20.341-.243,26.9,17.651,18.989,8.661,27.39,6.921,48.555-.5,18.575,4.1,31.732,13.878,43.992C51.977,307.692,80.184,300.575,79.16,279.679ZM51.8,264.567c-.2,7.214-9.156,9.776-12.886,3.43A29.871,29.871,0,0,1,34.6,251.8c-.838-9.664,8.592-10.506,13.038-3.174A25.941,25.941,0,0,1,51.8,264.567Z" style="fill:#c0392b"/><path d="M537.68,447.478a8.709,8.709,0,0,0,5.722.257c13.893-3.852,21.19-10.569,26.806-24.283,1.481-3.424-.717-6.423-4.295-6.65C551.743,412.648,524.723,441.962,537.68,447.478Z" style="fill:#c0392b"/><path d="M21.877,441.6c-7.9,8.188,2.186,20.672,8.731,26.485a9.165,9.165,0,0,0,15.774-6.861C46.833,448.255,33.671,432.631,21.877,441.6Z" style="fill:#c0392b"/><path d="M561.2,31.8c7.068-5.1,12.782-16.268,8.928-19.646-5.882-3.715-13.992,3.637-18.281,11C548.327,29.2,555.53,35.892,561.2,31.8Z" style="fill:#c0392b"/><path d="M502.577,419.622c-3.7.363-9.5,9.218-6.191,12.062a2.642,2.642,0,0,0,2.425.453c2.462-.675,4.909-3.311,6.4-5.784C506.932,423.6,506.213,418.587,502.577,419.622Z" style="fill:#c0392b"/><path d="M136.085,25.3a2.645,2.645,0,0,0,1.74,1.75c2.41.841,5.921.06,8.554-1.128,2.978-1.293,5.231-5.827,1.65-7.039C144.778,17.086,134.979,21.086,136.085,25.3Z" style="fill:#c0392b"/></svg>