<?xml version="1.0" ?><svg fill="#c0392b" data-name="Layer 4" id="Layer_4" viewBox="0 0 600 600" xmlns="http://www.w3.org/2000/svg"><title/><path d="M7.14,346.743c-2.9,42.092,7.931,78.849,29.987,113.73C47.994,477.66,68.978,502.241,89.142,512.6c7.121,3.657,10.8-3.1,8.9-10.88-2.98-12.2-9.533-33.115,9.975-56.2,24.116-28.535-14.907-52.336-39.508-38.069A10.306,10.306,0,0,1,55.008,404.9c-11.274-15.2-20.66-56.215-18.862-78.626,4.891-60.954,49.248-91.883,73.272-104.283a5.138,5.138,0,0,0-3.119-9.649c-15.268,2.207-37.472,13.609-62.442,45.881-3.966,5.126-5.233,4.136-10.449-.025-8.646-7.869-19.084,1.165-19.99,10.326-.8,9.866.752,19.977.279,29.823C11.616,314.5,8.428,330.494,7.14,346.743ZM28.7,359.435a1.27,1.27,0,0,1,2.506.025c2.848,19.124,10.918,41.908,19.284,55.11a7.313,7.313,0,0,1-.079,7.865c-1.5,2.338-4.547,7-6.674,10.679a2.843,2.843,0,0,1-4.877.054C29.253,417.8,23.523,390.1,28.7,359.435Z" style="fill:#c0392b"/><path d="M247.126,81.993c-7.917,38.83-26.007,50.857-35.773,72.4C164.439,257.9,255.336,323.582,343.3,290.156c28.873-10.973,94.415-53.659,82.735-159.951C414.793,27.9,273.278-46.278,247.126,81.993Zm49.315,61.984c.162,24.333-12.67,47.57-31.316,62.656-11.426,9.372-29.7,6.513-33.131-6.761-7.739-29.935,9-65.569,31.544-76.647C280.22,115.5,295.64,127.473,296.441,143.977Z" style="fill:#c0392b"/><path d="M433.076,411.374c-6.747,2.054-11.958,7.89-17.106,12.448-10.123,9.869-25.628,17.983-39.7,12.358-29.565-15.833-11.109-40.647-6.736-64.3,3.332-23.37-17.076-47.9-41.376-42.048-15.053,3.158-33.123,23.385-29.62,44.859,2.29,15.934,14.744,28.3,13.841,44.838-1.487,34.386-66.9,30.046-67.481-7.289-.747-6.868-4.518-30.529-12.936-30.535-10.411.436-9.041,14.542-11.352,21.934-1.855,9.721-13.151,17.5-24.921,12.966a52.832,52.832,0,0,1-15.9-9.218c-4.445-3.391-15.7-16.475-17.687-4.567,14.5,46.526,108.646,72.42,154.061,71.914,10.961-1.031,29.2-1.54,42.057-3.962,24.831-6.467,80.69-21.974,84.022-51.333C442.994,414.126,438.368,410.3,433.076,411.374ZM335.005,371.6c-3.716,9.962-18.35,9.542-20.658-.616-3.106-10.6,1.617-19.058,12.464-22.393,7.579-2.258,9.558,7.542,10.676,12.927C336.615,365.183,336.173,368.529,335.005,371.6Z" style="fill:#c0392b"/><path d="M551.511,439.258c-15.271,14.021-24.309-7.018-45.064,11.271-20.059,16.39-21.222,44.279-34.4,64.9-22.624,35.4-35.225,32.318-69.474,46.015-7.526,3.011-6.514,11.651,1.521,10.966,100.129-13.977,243.664-125.9,168.046-303.158-9.7-22.724-5.912-49.043-17.884-70.651-5.546-8.751-17.888-20.093-33.183-12.747-15.1,7.251-17.091,36.884-2.252,54.419,50.355,52.239,72.718,109.284,45.885,179.939A44.8,44.8,0,0,1,551.511,439.258Z" style="fill:#c0392b"/><path d="M119.079,531.825c34.7,36.825,140.777,65.952,195.606,49.637,5.668-1.686,5.7-7.108,1.268-9.078a7.192,7.192,0,0,0-3.873-.478c-6.433.85-35.244,3.8-49.437-9.368-19.686-18.259-32.991-46.965-70.144-32.236-10.343,4.1-27.8,18.926-65.1-7.511C119.649,517.3,113.345,525.34,119.079,531.825Z" style="fill:#c0392b"/><path d="M137.309,344.717c.445,9.2,10.3,7.726,10.787-1.457,2.035-38.285,21.477-47.54,32.851-57.068a12.966,12.966,0,0,0,2.193-17.631q-2.436-3.315-5.625-7.639C160.148,237.385,142,250.236,142.3,275.108,142.672,307.031,136.118,320.048,137.309,344.717Z" style="fill:#c0392b"/><path d="M470.419,386.1c5.653-15.413,21-51.367-5.306-101.462-7.56-14.4-13.068-12.568-15.641-10.186-3.571,3.068-.749,5.992,5.233,17.292,13.667,25.812,5.854,53.678-9.068,77.651C433.255,388.355,458.538,411.361,470.419,386.1Z" style="fill:#c0392b"/><path d="M192.852,54.523c-14.228,8.083-22.41,24.14-24.635,37.129-.48,9.784,1.963,15.5,7.828,19.081,20.461,12.3,46.322-26.342,43.55-44.481C217.725,52.321,204.392,46.5,192.852,54.523Z" style="fill:#c0392b"/><path d="M236.847,353.774c7.16-3.893,8.894-8.025,8.894-19.952-2.961-28.5-32-16.842-27.668,7.047C218.967,349.553,228.035,359.2,236.847,353.774Z" style="fill:#c0392b"/><path d="M478.512,140.2c-5.27-.019-9.037,3.04-11.04,7.934-3.764,9.389-4.388,28.527,8.575,30.334,10.983.857,14.695-12.1,15.367-21.006C490.2,149.927,487.978,139.9,478.512,140.2Z" style="fill:#c0392b"/><path d="M151.754,383.924c9.067-.413,7.154-14.074-1.191-13.733C141.715,370.954,143.773,383.845,151.754,383.924Z" style="fill:#c0392b"/><path d="M424.305,245.354a3.786,3.786,0,0,0-1.233,3.3c.327,3.64,3.387,7.769,6.455,10.514,3.406,3.134,10.556,3.425,10.021-1.961C439.961,251.9,429.084,241.443,424.305,245.354Z" style="fill:#c0392b"/><path d="M141.068,205.781c-3.805,3.848,1.934,8.123,6.553,7.83,4.112-.2,9.089-1.486,11.634-4.108a3.791,3.791,0,0,0,1.116-3.338C159.119,200.119,144.082,201.4,141.068,205.781Z" style="fill:#c0392b"/><path d="M350.205,579.641c3.253,1.666,8.377,1.281,12.337.15,4.467-1.208,8.528-7.1,3.687-9.521-4.261-3.177-18.913.441-18.154,6.569A3.787,3.787,0,0,0,350.205,579.641Z" style="fill:#c0392b"/></svg>