<?xml version="1.0" ?><svg fill="#c0392b" data-name="Layer 4" id="Layer_4" viewBox="0 0 600 600" xmlns="http://www.w3.org/2000/svg"><title/><path d="M479.913,474.307c-44.123-27.028-76.933-51.383-87.089-105.473-2.281-8.729-4.351-31.711-17.833-20.13-9.838,10.209-9.588,25.739-6.907,38.774,7.4,46.671,70.232,84.076,113.106,92.433C486.034,479.948,482.106,475.332,479.913,474.307Z" style="fill:#c0392b"/><path d="M522.615,490.587c1.34-4.755-6.177-7.474-13.04-8.877-4.8-.98-4.47,3.417-4.47,3.417C504.6,490.784,521.223,495.526,522.615,490.587Z" style="fill:#c0392b"/><path d="M220.789,251.355c-.315,7.485,8.666,5.963,8.614-1.194C230.069,242.871,220.721,245.194,220.789,251.355Z" style="fill:#c0392b"/><path d="M16.879,577.369a15.937,15.937,0,0,0,15.719,13.1h104.67a4.609,4.609,0,0,0,3.788-7.227c-65.543-95.752-68.643-196.427-36.507-305.164,1.572-5.318,9.417-4.117,9.279,1.426a602.564,602.564,0,0,0,1.659,62.648c7.941,98.834,68.814,185.907,159.537,225.913,2.087.92,4.1,1.776,6.024,2.559,4.1,1.473,5.468-2.438,2.443-4.37-69.39-77.711-95.807-187.764-66.051-287.736.651-2.582.438-8.4-3.5-5.91-16.413,23.893-26.028,51.563-33.239,79.552a2.925,2.925,0,0,1-5.623.126c-22.325-71.737-15.61-149.825,10.669-219.722,16.217-42.226,42.265-79.475,70.618-114.168,4-9.883-3.883-10.653-10.331-6.425C98.283,116.662-16.416,389.59,16.879,577.369ZM181.488,412.723c6.616-.469,5.142,12.4,6.544,16.945a35.251,35.251,0,0,0,.188,3.713,3.93,3.93,0,0,1-7.59,1.718C177.306,426.53,173.994,414.158,181.488,412.723Z" style="fill:#c0392b"/><path d="M301.638,140.431c-25.161,37.655-80.479,136.2-69.308,261.147,3.653,40.865,17.993,80.186,42.547,113.055,54.091,72.409,125.577,75.832,125.577,75.832h13.792a1.514,1.514,0,0,0,.482-2.95c-26.888-8.9-102.274-38.632-125.331-98.217a2.972,2.972,0,0,1,4.984-3.053c48.247,53.266,121.568,84.933,156.019,97.677a105.347,105.347,0,0,0,36.55,6.543h8.963c1.869,0,2.537-2.708.778-3.341-122.636-44.123-260.2-195.9-188.9-443.834A3.433,3.433,0,0,0,301.638,140.431Z" style="fill:#c0392b"/><path d="M381.817,452.039a2.127,2.127,0,0,0-3.521,2.3c43.6,96.807,115.973,89.831,151.832,128.842a22.205,22.205,0,0,0,16.324,7.285H582.49a6.406,6.406,0,0,0,6.073-8.475c-3.33-9.692-11.395-26.268-30.317-42.074a116.051,116.051,0,0,0-41.058-21.873C475.92,505.629,411.857,486.494,381.817,452.039Z" style="fill:#c0392b"/></svg>