<?xml version="1.0" ?><svg fill="#c0392b" data-name="Layer 4" id="Layer_4" viewBox="0 0 600 600" xmlns="http://www.w3.org/2000/svg"><title/><path d="M576.461,67.029C433.141-52,123.731,56.419,2.987,273.339a2.71,2.71,0,0,0,4.293,3.222C53.8,229.6,310.706,1.854,486.62,150.064c114.192,96.209,3.928,315.835-115.707,424.327a4.41,4.41,0,0,0,2.96,7.682H477.151a58.118,58.118,0,0,0,51.683-31.329c45.711-88.551,74.354-200.975,66.482-294.414-20.93-248.423-243.8-202.4-345.091-168.139a2.334,2.334,0,0,1-1.734-4.325c81.205-37.8,249.9-94.649,348.542,37.513a1.434,1.434,0,0,0,2.581-.862V96.36a17.379,17.379,0,0,0-4.351-11.547A186.151,186.151,0,0,0,576.461,67.029Z" style="fill:#c0392b"/><path d="M596.668,500.142c-4.753,16.292-16.478,52.013-34.846,79.541a1.531,1.531,0,0,0,1.266,2.39h34.023a2.489,2.489,0,0,0,2.489-2.5l-.463-79.078A1.26,1.26,0,0,0,596.668,500.142Z" style="fill:#c0392b"/><path d="M7.032,541.66c332.39-83.034,363.621-224.479,360.559-284.718a3.394,3.394,0,0,1,6.66-1.068c16.8,59.008,15.737,202.584-317.119,326.2H273.37c116.982-62.175,201.927-173.916,218.5-295.7,6.95-82.254-45.925-154.264-139.1-160.527-61.7-4.147-143.7,22.688-196.08,60.06a1.974,1.974,0,0,0,1.815,3.469c102.984-39.571,166.545-22.757,181.281,33.127C368.29,330.6,250.52,459.121,4.8,509.671a5.413,5.413,0,0,0-4.415,5.256V536.48A5.345,5.345,0,0,0,7.032,541.66Z" style="fill:#c0392b"/></svg>