<?xml version="1.0" ?><svg fill="#c0392b" data-name="Layer 4" id="Layer_4" viewBox="0 0 600 600" xmlns="http://www.w3.org/2000/svg"><title/><path d="M34.175,25.681A7.4,7.4,0,0,1,38.5,13.365l25.722-4A37.742,37.742,0,0,1,99,22.478c54.009,64.66,151.244,207.188,348.357,385.459a3.831,3.831,0,0,1-.914,6.3l-20.147,9.6A11.973,11.973,0,0,1,413,421.813c-26.79-24.841-197.708-185.683-210.919-201.2C175.046,188.851,91.038,327.767,103.31,380.2c.8,3.4-1.531,6.783-4.622,8.411-2.038,1.073-4.721,2.508-7.026,3.745A4.419,4.419,0,0,1,85.2,389.1c-2.375-16.135,9.135-132.708,93.679-193.742l-1.408-1.437a13.694,13.694,0,0,0-17.561-1.644C90.5,239.926,54.917,360.73,65.227,401.439a5.688,5.688,0,0,1-2.832,6.383c-11.44,6.187-31.973,17.192-47.817,25.127A5.926,5.926,0,0,1,6,427.649V74.943A23.024,23.024,0,0,1,24.524,52.158c3.467-.64,7.08-.834,8.79,1.2,27.219,32.288,70.806,62.47,70.806,62.47a4.142,4.142,0,0,0,4.8-6.522C88.909,86.786,46.816,39.489,34.175,25.681Z" style="fill:#c0392b"/><path d="M198.89,484.613a2.194,2.194,0,0,0,3.119,2.989c15.175-11.082,49.463-43.127,97.846-129.519a3.845,3.845,0,0,1,5.743-1.129l2.794,2.216a8.655,8.655,0,0,1,2.472,9.464C257.614,499.128,185.6,556.643,157.819,574.985a42.711,42.711,0,0,1-23.242,7.042l-122.653.883a5.592,5.592,0,0,1-5.637-5.55c-.15-19.818-.623-87.038-.385-115.143-.02-3.655,1.017-5.512,4.371-6.987C168.243,385.734,203.05,316.756,222.3,287.2a6.642,6.642,0,0,1,10.039-1.449c10.738,9.667,32.562,31.322,43.646,42.394a14.919,14.919,0,0,1,3.471,15.625C265.141,383.558,215.677,459.411,198.89,484.613Z" style="fill:#c0392b"/><path d="M533.308,92c-.333,3-1.79,4.51-4.308,5.9-74.007,40.79-134.33,89.612-178.312,162.36-3.025,4.845-7.266,5.6-11.528,2-16.487-13.347-27.182-25.348-42.1-40.415-3.824-3.78-4.229-5.837-1.034-10.4,11.592-16.8,111.514-118.472,197.946-164.383a3.421,3.421,0,0,0-2.309-6.374C463.03,46.858,363.8,87.869,283.2,186.319c-4.567,5.578-15.482,12.394-20.049,5.308-2.747-3.342-.387-7.941,2.525-11.436C343.349,86.955,473.565,4.6,522.967,22.443c6.907,2.525,11.988,6.355,12.295,14.7C535.562,45.308,534.432,81.9,533.308,92Z" style="fill:#c0392b"/><path d="M506.445,203.066a3.224,3.224,0,0,0,4.945,3.724c12.923-9.667,38.479-31.12,63.746-65.783,1.884-2.585,5.978.169,4.7,3.1-13.927,31.956-36.65,98.651-149.586,166.9-4.357,2.633-5.729-1.922-4.305-5.321,12.184-39.791,20.708-80.906,36.549-119.464,12.126-28.238,36.6-49.027,63.047-63.612,5.088-2.781,8.664-.629,7.887,5.18C532.735,132.967,514.451,181.831,506.445,203.066Z" style="fill:#c0392b"/><path d="M593.988,487.335c-11.606-2.222-24.407-4.834-35.322-7-8.719-1.641-.746-13.216,3.495-16.107,6.084-4.345,9.769-8.871,13.5-16.247-3.574,1.466-6.42,2.4-9.043,3.768-3.426,1.784-6.519,4.273-10.042,5.792-17.456,7.08-37.246,7.051-55.8,5.479-11.521-1.036-22.971-3.638-34.531-3.72l-.234,1.045c4.066,1.86,8,4.163,12.235,5.464,4.944,1.517,7.942,4.62,10.532,8.876,14.288,23.476,9.62,41.577,5.659,50.167a4.607,4.607,0,0,1-7.447,1.3c-14.209-14.24-49.2-51.508-57.709-62.454-7.8-10.028,4.377-17.475,9.581-20.223q31.309-16.605,62.781-32.9c24.189-13.075,21.24-7.3,44.332,3.626,9.788,4.631,23.771-8.215,41.956-21.244a3.824,3.824,0,0,1,6.053,3.1Z" style="fill:#c0392b"/><path d="M508.019,496.7c.383-6.561-2.1-16.569,5.651-19.5,4.534-1.485,7.441,1.431,10.088,4.51q33.931,39.725,67.876,79.442a10.6,10.6,0,0,1,2.53,6.926l-.073,13.912a8.321,8.321,0,0,1-14.149,5.9c-19.38-19.033-53.384-52.473-66.234-65.4a14.684,14.684,0,0,1-4.183-9.185C508.922,507.747,508.506,502.176,508.019,496.7Z" style="fill:#c0392b"/><path d="M480.775,589.949l-13.179-13.7a3.673,3.673,0,0,1,.127-5.227c11.536-10.8,37.085-30.483,39.906-32.5,4.4-3.444,14.811,10.295,7.774,17.247,0,0-17.558,23.676-29.546,34.4A3.667,3.667,0,0,1,480.775,589.949Z" style="fill:#c0392b"/><path d="M450.307,510.727a4.667,4.667,0,0,1-1.1,6.381c-7.4,5.446-14.879,10.937-22.327,16.468-2.151,1.6-3.735,1.719-5.777-.5-4.666-5.072-9.625-9.877-14.541-14.714-1.721-1.693-2.287-3.021.086-4.658,6.888-4.753,13.473-9.969,20.6-14.344C437.484,493.079,445.64,503.841,450.307,510.727Z" style="fill:#c0392b"/><path d="M476.716,535.513a7.122,7.122,0,0,1-.741,8.885c-5.1,5.344-12.733,12.973-18.633,18.929a4.048,4.048,0,0,1-5.667.084l-14.847-14.1a4.049,4.049,0,0,1,.393-6.207c6.479-4.728,14.248-10.781,19.845-15.026C465.392,521.767,472.693,529.474,476.716,535.513Z" style="fill:#c0392b"/><path d="M407.564,469.613a7.926,7.926,0,0,1,7.8,2.2c1.877,1.981,9.33,9.905,4.644,15.106a102.677,102.677,0,0,1-22.1,18.839c-4.8,2.961-23.472-16.706-18.123-20.947C388.2,478.139,397.2,472.369,407.564,469.613Z" style="fill:#c0392b"/></svg>