<?xml version="1.0" ?><svg fill="#c0392b" data-name="Layer 4" id="Layer_4" viewBox="0 0 600 600" xmlns="http://www.w3.org/2000/svg"><title/><path d="M184.746,268.308a53.858,53.858,0,0,0-14.967.893A3.6,3.6,0,0,0,167,273.769c32.221,105.713,65.3,214.225,97.57,320.078a3.8,3.8,0,0,0,3.639,2.692h32.6a2.064,2.064,0,0,0,1.951-2.737L192.612,274.46A9.2,9.2,0,0,0,184.746,268.308Z" style="fill:#c0392b"/><path d="M212.62,474.87q-29.86-97.953-59.72-195.908a3.037,3.037,0,0,0-4.433-1.727c-4.592,3.053-21.031,12.234-18.533,19.8,14.034,58.972,28.72,114.734,44.224,169.537a20.089,20.089,0,0,1-3.187,17.454c-29.893,40.252-80.7,93.668-95.024,108.53a2.353,2.353,0,0,0,1.7,3.984H91.41a6.467,6.467,0,0,0,5.247-2.678c26.555-36.783,70.065-91.314,83.12-107.588,10.335,35.943,21.034,71.587,32.144,107.574a3.819,3.819,0,0,0,3.645,2.692h31.371a2.049,2.049,0,0,0,1.966-2.645Z" style="fill:#c0392b"/><path d="M119.208,105.729c-5,5.682-19.527,20.974-16.957,28.544,4.5,16.793,8.095,33.244,10.777,48.5a2.475,2.475,0,0,0,4.43,1.037,155.148,155.148,0,0,1,13.719-15.978c3.246-2.77,6.223-6.578,4.689-11.072-4.32-14.206-8.564-30.713-12.44-49.794A2.483,2.483,0,0,0,119.208,105.729Z" style="fill:#c0392b"/><path d="M239.028,247A9.336,9.336,0,0,0,249,244.306l16.685-18.973c-55.213-24.293-95.019,11.467-102.7-4.2-5.336-8.8-12.352-22.386-19.634-42.071a2.488,2.488,0,0,0-4.119-.87,155.417,155.417,0,0,0-20.738,27.174,9.488,9.488,0,0,0-1.334,6c1.049,9.57,1.616,18.224,1.691,25.632a9.863,9.863,0,0,1-7.331,9.591c-20.6,5.55-40.45,7.379-59.561-.773a9.333,9.333,0,0,0-9.086.99L23.785,260.442C94.367,324.367,149.211,216.183,239.028,247Z" style="fill:#c0392b"/><path d="M116.219,90.507a8.567,8.567,0,0,0,2.741-7.758Q116.566,68.4,114.5,52.365c-.374-8.478-25.292,1.129-33.982,7.2a4.807,4.807,0,0,0-1.783,5.907c6.009,13.99,11.371,28.6,16.053,43.292a2.477,2.477,0,0,0,4.368.707A125.721,125.721,0,0,1,116.219,90.507Z" style="fill:#c0392b"/><path d="M71.65,49.9s17.817-17.024,45.671-12.287c14.555,2.475,5.75-25.372-2.439-30.731C103.091-2.1,63.476,8.208,54.527,19.387,43.824,30.347,54.911,61.723,71.65,49.9Z" style="fill:#c0392b"/><path d="M491.272,154.079c-2.49.747-7.637-.356-7.6,3.389q1.434,13.046,3.837,27.693a1.586,1.586,0,0,0,2.8.738q6.861-8.451,13.951-16.711a13.81,13.81,0,0,0,3.22-10.875c-.437-2.133.069-6.045-3.113-5.829Q497.812,153.215,491.272,154.079Z" style="fill:#c0392b"/><path d="M502.732,100.222c-4.4,5.532-8.624,11.2-12.774,16.926-3.359,5.163-8.675,9.99-8.2,16.643.361,2.167-.628,7.511,3.149,7.17,4.114-.548,12.282-1.623,18.109-2.306a2.472,2.472,0,0,0,2.178-2.631,275.771,275.771,0,0,1-.146-34.9A1.3,1.3,0,0,0,502.732,100.222Z" style="fill:#c0392b"/><path d="M512.307,185.938a1.86,1.86,0,0,0-3.241-.828q-6.838,8.133-13.461,16.445c-3.176,3.868-3.733,9.079-2.388,13.795C514.3,341.125,501.046,482.8,398.072,592.659a2.259,2.259,0,0,0,1.578,3.88h9.28c26-4.209,79.1-107.4,92.517-181.436a1.817,1.817,0,0,1,3.593.443c-2.358,61.339-23.113,128-60.679,177.364a2.264,2.264,0,0,0,1.809,3.629h57.544a14.29,14.29,0,0,0,13.068-8.435C575.939,458.773,550.208,318.249,512.307,185.938Z" style="fill:#c0392b"/><path d="M571.37,27.355l.013-.006C539.835-5.3,500.747,25.671,489.671,60.891A196.889,196.889,0,0,1,468.9,103.068c-57.381,88.169-130.552,177.962-209.945,279.38a6.048,6.048,0,0,0-1.285,3.723l.443,6.4a1.418,1.418,0,0,0,2.424.9C289.23,364.7,494.9,82.582,506.677,73.459a14.154,14.154,0,0,0,2.8-5.237c5.288-18.187,16.644-24.837,24.762-27.251a4.5,4.5,0,0,1,5.785,4.257c.2,13.088,9.482,17.263,18.275,17.263C574.392,62.739,581.827,39.277,571.37,27.355Z" style="fill:#c0392b"/></svg>