<?xml version="1.0" ?><svg fill="#c0392b" data-name="Layer 4" id="Layer_4" viewBox="0 0 600 600" xmlns="http://www.w3.org/2000/svg"><title/><path d="M191.607,252.473a4.467,4.467,0,0,0-5.905-1.826l-16.926,8.46a1.656,1.656,0,0,0-.716,2.272L347.549,592.2a5.948,5.948,0,0,0,5.245,3.112c8.978-.026,18.042-.046,26.728-.058a1.65,1.65,0,0,0,1.443-2.457C309.235,464.378,207.347,280.832,191.607,252.473Z" style="fill:#c0392b"/><path d="M155.847,270.559a4.462,4.462,0,0,0-5.994-2l-16.108,8.051c22.8,57.991,56.2,116.118,82.227,173.592a48.925,48.925,0,0,1,2.913,35.112c-11.473,39.076-22.752,76.343-32.824,107.7a1.982,1.982,0,0,0,1.894,2.588h21.26a5.106,5.106,0,0,0,4.957-3.895q7.372-30.173,14.958-59.928a.769.769,0,0,1,1.506.292l-7.979,63.236c2.653.052,7.21,1.071,7.579-2.814,1.01-11.2,4.762-50.939,10.59-90.971q21.89,45.208,43.907,90.684a5.923,5.923,0,0,0,5.355,3.341c6.983-.033,16.772-.077,28.016-.121a2.188,2.188,0,0,0,1.975-3.128C265.152,477.957,180.223,325,155.847,270.559Z" style="fill:#c0392b"/><path d="M74.009,86.969c40.979-20,5.692-97.677-36.32-79.978C-3.289,26.99,32,104.668,74.009,86.969ZM44.847,51.976C34.928,29.029,56.1,19.415,66.852,41.984,76.771,64.931,55.6,74.544,44.847,51.976Z" style="fill:#c0392b"/><path d="M216.063,215.928c12.953-1.312,28.242,5.649,40.055-1.464,29.067-20.954,3.395-44.392-20.3-32.565-19.079,8.761-40.675,19.078-61.857,29.379-8.579,3.763-11.35-6.521-14.831-11.884-2.649-5.028-8.5-4.156-13.219-3.521-8.207.747-16.442,1.171-24.681,1.316-4.314.076-11.488-.033-16.1-.122a2.758,2.758,0,0,0-2.564,3.9l13.885,30.6a7.5,7.5,0,0,1-3.48,9.8c-37.547,20.484-70.43,28.051-70.669,54.977.505,7.377,5.96,15.186,13.346,15.509,23.546,1.03,17.307-25.319,34.543-34.742C108.047,269.055,195.107,219.814,216.063,215.928Z" style="fill:#c0392b"/><path d="M91.883,145.975q-7.288-.187-14.565-.675L91.9,177.441a11.192,11.192,0,0,0,9.771,6.572,351.646,351.646,0,0,0,43.585-1.091,2.758,2.758,0,0,0,2.134-4.116C121.389,136.241,140.23,147.113,91.883,145.975Z" style="fill:#c0392b"/><path d="M60.694,108.659l9.131,20.124a5.693,5.693,0,0,0,4.763,3.327,355.181,355.181,0,0,0,36.784.829c3-.148,9.351.624,7.4-4.312C88.113,76.909,110.808,98.968,64,103.241A3.842,3.842,0,0,0,60.694,108.659Z" style="fill:#c0392b"/><path d="M265.427,335.725l9.991,16.872a1.662,1.662,0,0,0,3.022-.38c16.62-55.826,33.746-108.552,51.259-156.709a4.688,4.688,0,0,0-3.062-6.094,180.325,180.325,0,0,0-19.276-4.665,4.687,4.687,0,0,0-5.393,3.381c-4.05,15.094-18.853,70.074-37.788,138.175A12.117,12.117,0,0,0,265.427,335.725Z" style="fill:#c0392b"/><path d="M315.069,166.985l8.19,2.227a14.545,14.545,0,0,0,18.217-11.867c.042-.284.092-.566.127-.85.012.051,1.851-23.748,26.883-21.278,35.9,4.786,50.946,25.781,55.682,47.229,13.12,66-61.255,79.466-83.431,75.388,2.718,3.91,5.7,10.752,11.475,10.275,20.879-.317,36.037-4.284,47.934-10.331-10.481,9.685-25.205,17.956-45.768,20.759l16.97,25.754a8.567,8.567,0,0,0,9.549,3.514,230.54,230.54,0,0,0,60.228-27.111c26.724-17.031,50.284-40.7,65.825-68.228,11.519-20.947,15.989-44.389,19.23-68.2A337.046,337.046,0,0,0,527.8,89.208a11.9,11.9,0,0,0-8.556-10.844L389.475,40.7s-9.117,47.3-36.91,66.643c7.155-27.962,18.908-54.865,24.025-83.279,2.923-12.747-13.123-16.706-22.729-14.051a8.169,8.169,0,0,0-6.034,6.6C336.6,84.662,323.6,124.308,310.161,157.046A7.394,7.394,0,0,0,315.069,166.985Z" style="fill:#c0392b"/><path d="M577.433,102.911a12.567,12.567,0,0,0-8.96-10.255L546.888,86.39a3.2,3.2,0,0,0-4.094,3.216c1.6,42.876-1.914,81.888-17.881,120.664-17.772,37.237-50.153,68.917-86.146,89.358A252.929,252.929,0,0,1,389.2,320.987c-2.586.3-5.048,2.709-3.348,5.313l16.684,25.32a11.118,11.118,0,0,0,12.483,4.531C452.14,345.018,603.869,287.841,577.433,102.911Z" style="fill:#c0392b"/></svg>