<?xml version="1.0" ?><svg fill="#c0392b" data-name="Layer 4" id="Layer_4" viewBox="0 0 600 600" xmlns="http://www.w3.org/2000/svg"><title/><path d="M596.343,176.32c-32.522-15.48-68.844-13.62-103.958-14.449-4-.061-7.376-1.528-10.8-3.356-7.3-3.893-12.041-10.311-17.178-16.443-23.2-28.559-52.286-24.689-83.3-16.078a2.629,2.629,0,0,1-2.86-4.034c7.507-11.113,21.244-14.519,30.545-16.285,11.061-2.1,25.792-83.97-64.224-88.06-109.8-4.988-156.036,61.715-170.343,86.663a15.238,15.238,0,0,1-16.447,7.3c-45.866-9.872-127.954,11.607-154.816,42.751-5.839,6.77-1.412,13.718,8.933,13.8,56.908-1.477,110.021,4.443,166.654,4.124a76.309,76.309,0,0,0,21.932-3.284c6.929-2.122,13.989-4.875,19.275-7.019,19.4-6.976,39.444-20.408,60.563-18.328a2.3,2.3,0,0,1,.886,4.3C252.6,164.106,245.54,195,198.377,192.255c-23.418-1.364-48.49,4.186-62.793,8.1a2.655,2.655,0,0,0,.36,5.2c25.78,3.305,89.457,10.99,162.162,16.218,42.984,3.091,84.9,2.364,127.527,2.117,26.8-.441,54.223.705,80.75-3.3a4.116,4.116,0,0,0,2.29-2.722c.136-.564-1.227-1.92-2.145-2.229-10.78-3.383-22.507-2.641-33.671-2.866-25.038.7-50.167-1.64-74.011-9.482-.028-.625-.029-.66-.056-1.285,36.731-15.619,78.041-6.918,116.821-9.637,23.632-.443,47.241-3.163,70.87-1.045,4.719-.124,13.757-1.174,14.557-6.779C601.619,180.462,600.491,177.926,596.343,176.32Z" style="fill:#c0392b"/><path d="M271.367,286.242c34,103.09,214.783,258.55,323.739,305.921,2.408.527,3.625-.413,3.5-3.186l.036-15.044c.374-3.785-1.348-5.116-4.608-6.242C481.1,528.889,350.3,406.072,278.76,281.466,275.177,275.225,269.343,280.1,271.367,286.242Z" style="fill:#c0392b"/><path d="M568,73.937c-24.441-21.842-57.821-9.195-76.76,3.62a15.358,15.358,0,0,1-7.345,2.476c-15.46.3-29.36,5.375-42.368,13.289-4.2,2.547-14.964,11.166-4.589,12.629,27.5,3.879,44.921,21.743,52.347,31.151a13.216,13.216,0,0,0,11.686,4.914c14.422-1.419,47.263-3.054,78.549,6.694,16.872,5.257,11.316-28.146-15.481-36.086C571.163,100.484,579.5,84.217,568,73.937Z" style="fill:#c0392b"/><path d="M79.178,40.525C64.743,57.252,32.6,108.111,81.362,95.171c31.112-8.255,60.242-9.025,71.4-4.809A7.176,7.176,0,0,0,161.5,87.3c6.241-10.614,16.5-34.1,44.44-47.882,6.626-3.269,14.385-12.1,8.345-16.446C177.215-3.679,109.527,3.505,79.178,40.525Z" style="fill:#c0392b"/><path d="M42.507,255.393c16,101.731,82.948,247.734,151.9,327.42a27.046,27.046,0,0,0,20.451,9.376c6.221,0,12.394.037,18.73.032a1.582,1.582,0,0,0,1.064-2.752C138.49,501.064,83.775,378.2,49.579,254.2,48.323,248.23,41.662,248,42.507,255.393Z" style="fill:#c0392b"/><path d="M138.766,265.753C179.039,392.311,257.291,508.57,362.942,589.188a14.789,14.789,0,0,0,8.752,3c4.891.072,9.881.025,15.24,0a1.185,1.185,0,0,0,.7-2.143c-112.681-82.6-191.468-199.82-241.227-329.272C142.113,253.068,135.631,259.973,138.766,265.753Z" style="fill:#c0392b"/><path d="M398.864,258.822c-10.189,9.934,64.6,89.228,76.275,98.26,36.537,36.28,76.8,68.006,122.257,92.425l1.157-.772.1-13.3c.207-3.909-1.141-5.822-4.63-7.571C457.752,359.557,403.686,254.188,398.864,258.822Z" style="fill:#c0392b"/><path d="M215.662,254.21c-7.039-.026-3.491,11.672-.97,17.659,44.966,106.769,98.342,165.956,178.615,238.117a5.5,5.5,0,0,0,6.259.885c3.194-1.755,4.075-6.386,1.252-8.425C325.565,429.635,277.363,374.862,226.2,266.616,223.81,261.557,222.389,253.938,215.662,254.21Z" style="fill:#c0392b"/><path d="M253.552,393.609c-3.964-2.26-6.077.449-6.126,4.293,43,72.254,101.343,137.739,170.072,186.337a43.468,43.468,0,0,0,25,7.976c6.338.015,12.8,0,19.565-.008a.9.9,0,0,0,.437-1.679C366.493,536.113,318.51,481.68,253.552,393.609Z" style="fill:#c0392b"/><path d="M594.175,517.95C505.781,478.291,433.5,421.7,371.106,343.322c-2.031-2.552-5.535-4.306-8.268-2.738-1,.84-1,3.156-1,4.826C422.829,426.529,506.781,490.7,598.016,534.749c1.2-3.082-.059-6.46.6-9.667C599.037,521.365,597.563,519.471,594.175,517.95Z" style="fill:#c0392b"/><path d="M93.2,592.255c2.775.02,5.561-.008,8.4-.2a1.409,1.409,0,0,0,.959-2.341C55.761,536.691,21.531,477.3.429,410.376a.759.759,0,0,0-1.485.22l-.109,24.341A37.323,37.323,0,0,0,.5,446.121c19.082,61.71,53.288,112.8,69.35,134.305A29.422,29.422,0,0,0,93.2,592.255Z" style="fill:#c0392b"/><path d="M81.344,483.386C49.733,416.061,16.92,348.58.444,275.544a.657.657,0,0,0-1.3.125c-.133,9.483-.309,27.851-.309,27.851-1.008,58.961,47.911,131.836,76.179,183.194C77.957,490.493,81.651,487.162,81.344,483.386Z" style="fill:#c0392b"/><path d="M169.58,452.564c28.354,47.67,58.456,96.76,99.043,134.838a18.858,18.858,0,0,0,13.971,5.146c2.464-.145,10.993.031,10.993.031-47.314-40.172-81.694-94.018-116.963-144.275A4.116,4.116,0,1,0,169.58,452.564Z" style="fill:#c0392b"/><path d="M598.219,481.323c.245-3.7-.9-5.713-4.433-7.085-31.194-12.115-78.435-36.868-100.635-64.5-3.989-4.965-11.43,1.388-5.793,6.877,32.836,31.051,71.741,55.632,110.757,78.016Z" style="fill:#c0392b"/><path d="M501.9,325.865c27.09,29.974,60.877,53.7,96.464,72.466l.2-11.667a3.773,3.773,0,0,0-2.275-3.535c-10.251-4.422-52.637-24.142-89.526-62.419C501.685,315.442,496.773,320.65,501.9,325.865Z" style="fill:#c0392b"/><path d="M89.836,242.391c.765,40.957,20.723,94.989,37.418,131.268.989,2.431,2.893,5.218,5.866,3.987,3.977-1.745,2.085-6.5.726-9.341-18.461-38.563-31.678-95.722-37.956-126.6A3.058,3.058,0,0,0,89.836,242.391Z" style="fill:#c0392b"/><path d="M511.835,269.868c-5.413-3.584-7.9,4.424-4.507,7.787,25.085,31.786,56.522,56.763,91.22,77.64,0-5.481-.13-9.974.054-14.453.1-2.3-1.306-3.118-2.827-4.212-14.735-10.592-29.778-20.8-44.025-32.012C537.8,293.859,525.65,280.794,511.835,269.868Z" style="fill:#c0392b"/><path d="M275.763,535.642c-6.823-7.13-12.955-15.5-20.8-21.461-2.888-1.344-6.543.693-6.046,4.145,3.4,8.861,11.855,15.187,17.2,22.988a370.7,370.7,0,0,0,46.342,48.226c4.215,3.556,14.446,3.658,20.223,3.4a1.678,1.678,0,0,0,1.013-2.953C323.437,581.229,290.67,552.894,275.763,535.642Z" style="fill:#c0392b"/><path d="M338.229,263.3c2.8,8.176,7.221,14.618,12.089,21.448,15.92,18.423,29.535,39.325,48.648,54.643,5.894,4.541,9.483-2.764,4.533-7.135-17.325-22.751-37.227-43.567-52.205-68.04C347.046,256.994,342.771,255.2,338.229,263.3Z" style="fill:#c0392b"/><path d="M.872,541.881c5.905,13.093,14.372,26.646,21.665,39.638A20.851,20.851,0,0,0,40.708,592.2H43.34a1.5,1.5,0,0,0,1.174-2.421c-19.565-24.747-32.306-43.034-45.556-80.029,0,7.729-.014,15.457.01,23.186A21.913,21.913,0,0,0,.872,541.881Z" style="fill:#c0392b"/><path d="M531.776,592.214a.678.678,0,0,0,.249-1.309,212.539,212.539,0,0,1-55.251-31.681c-8.591-6.671-13.551-1.267-6.2,5.8,9.159,8.8,21.253,17.3,28.916,22.373a29.185,29.185,0,0,0,15.984,4.826C520.824,592.246,526.224,592.223,531.776,592.214Z" style="fill:#c0392b"/><path d="M111.186,538.084c-6.261-2.541-7.794,3.784-4.74,8.146q13.236,21.96,26.671,43.8c2.1,2.852,9,2.74,12.808,2.438a1.543,1.543,0,0,0,1.153-2.4C135.365,572.56,123.882,554.668,111.186,538.084Z" style="fill:#c0392b"/><path d="M595.661,289.244c-11.173-6.9-22.23-13.978-33.33-20.991-4.117-3.822-10.762.23-7.6,5.375,11.53,13.428,28.106,21.8,42.937,31.161.1.06.316-.066.885-.2C597.657,299.648,600.936,292.312,595.661,289.244Z" style="fill:#c0392b"/><path d="M146.566,400.855a3.786,3.786,0,0,0-1.958,2.924c-.519,3.618,1.508,8.34,3.863,11.717,2.593,3.833,9.485,5.761,10.2.4C160.3,410.83,152.116,398.148,146.566,400.855Z" style="fill:#c0392b"/><path d="M429.156,539.72c3.849,2.57,10.959,1.75,9.6-3.489-.412-5.3-12.778-13.95-16.893-9.346a3.787,3.787,0,0,0-.708,3.447C422.038,533.877,425.7,537.483,429.156,539.72Z" style="fill:#c0392b"/><path d="M446.688,375.907c-2.645-2.562-4.645-5.651-7.632-7.609a4.588,4.588,0,0,0-6.422,1.207c-2.7,4.385,5.193,9.515,9.167,12.3C445.5,383.54,450.129,379.582,446.688,375.907Z" style="fill:#c0392b"/><path d="M108.276,205.342a3.452,3.452,0,0,0,1.533-2.818c-.159-5.626-13.858-6.87-17.26-3.421-4.029,2.847.441,7.6,4.632,8.072C100.9,207.649,105.574,207.29,108.276,205.342Z" style="fill:#c0392b"/></svg>