<?xml version="1.0" ?><svg fill="#c0392b" id="icon" viewBox="0 0 512 512" xmlns="http://www.w3.org/2000/svg"><title/><path d="M282.52,297.72a7.09,7.09,0,0,1-9.13-10.85c58.43-49.17,106.94-117.35,138.16-167.48.4-.86.83-1.7,1.28-2.54,10.79-20,27.74-57.18,17-77.55-4.13-7.82-15.38-7.91-20-.4-21.74,35-93.85,145.45-179.45,215.2-3.5,2.85-7,8.24-10,13.72a5.58,5.58,0,0,0,7.94,7.35,292.87,292.87,0,0,0,39.09-30.46A7.09,7.09,0,0,1,277,255.09c-31.14,29-64.37,47-86.29,57-30.21,17.89-93.36,53.21-153.93,74-6.15,2.11-5.06,11.13,1.42,11.66,32.65,2.68,90.26,1.2,144.11-19.91A548.93,548.93,0,0,0,252.94,346c62.88-33.75,112.62-88,139.35-154.19q1.51-3.76,2.94-7.58a3.55,3.55,0,0,0-6.17-3.36C359.77,220.52,323.38,263.33,282.52,297.72Zm-27.28,20.17a6.88,6.88,0,0,1-.39,1.32,8,8,0,0,1-.65,1.23,7.7,7.7,0,0,1-.9,1.08,6.88,6.88,0,0,1-1.06.88,9.07,9.07,0,0,1-1.23.65,7.71,7.71,0,0,1-1.32.4,6.49,6.49,0,0,1-1.39.14,7.14,7.14,0,0,1-5-2.07,8.3,8.3,0,0,1-.88-1.08,6.55,6.55,0,0,1-.65-1.23,7.71,7.71,0,0,1-.4-1.32,6.43,6.43,0,0,1-.14-1.39,7.1,7.1,0,0,1,8.48-6.95,7.71,7.71,0,0,1,1.32.4,10.35,10.35,0,0,1,1.23.65,7.64,7.64,0,0,1,1.06.9,7,7,0,0,1,2.09,5A6.43,6.43,0,0,1,255.24,317.89Z"/><path d="M38.87,124.77c10.92-2,21.9-7.66,31.61-12.89A227.83,227.83,0,0,0,100,92.47a460,460,0,0,0,53.59-47.86C162.79,35,148.55,20.75,139,30c-16.13,15.74-32.6,31.41-50.64,45A257.59,257.59,0,0,1,62,92.47c-9.88,5.68-20.39,9.62-30.47,14.8S28.79,126.62,38.87,124.77Z"/><path d="M107.52,153.59a251.23,251.23,0,0,1-31.74,18.86c-5.38,2.66-10.79,5.28-16.32,7.63s-11.47,4-15.57,8.43c-2.92,3.14-2.13,9.6,2.76,10.44,11.58,2,25.25-5.67,35.49-10.58a242.09,242.09,0,0,0,34-20.09C125,162.06,116.54,147.32,107.52,153.59Z"/><path d="M132.2,93.08c-13.06,11.82-33.72,19.42-34.82,21.49a5.27,5.27,0,0,0-.85,5.24,8.56,8.56,0,0,0,2.33,4.29,56.27,56.27,0,0,0,25.88,15.15,67.64,67.64,0,0,0,36.66-.47,96.06,96.06,0,0,0,25.33-11.92,54.94,54.94,0,0,0,16.14-15.71c4.28-6.5,6.57-13.15,5.78-21.5a27.15,27.15,0,0,0-1.56-7c5.66-6.46,11-13.68,13.55-21.53,2-6.13-5.62-8.95-9.78-5.69-5.3,4.17-9.85,9.47-14.44,14.66,0,0-17.53,24.69-39.14,36.7a5.1,5.1,0,0,1-5.63-8.47c7.2-5.51,19-15.32,27.15-26.13a4.12,4.12,0,0,0-3.64-6.57,42.56,42.56,0,0,0-14.65,3.6C149.33,74.35,141.21,84.92,132.2,93.08Z"/><path d="M200.44,158c-17.06,16-34.59,31.7-53.24,45.84-9.21,7-18.72,13.61-28.51,19.75-10.12,6.34-22.45,11.11-31.4,19-6.84,6,.76,14.72,7.95,13.67,11.54-1.7,23.34-10,33.11-16.1a357.71,357.71,0,0,0,30.24-21.52c19-14.91,37.19-31.07,54.77-47.67,17.25-16.3,33.8-33.42,48.49-52.07a326.13,326.13,0,0,0,20.72-29.22c2.94-4.73,5.75-9.57,8.38-14.49,2.88-5.38,6.66-11.31,7.52-17.41,1-7.08-7.59-14.76-13.55-7.89-3.91,4.51-6,10-8.83,15.23s-5.82,10.46-9,15.52A286,286,0,0,1,247.61,108C233.24,125.91,217.16,142.36,200.44,158Z"/><path d="M256.8,160.93c-4.93,4.78-12.64,10.64-13.67,17.78-.61,4.3,1.73,9,6.73,8.84,7.64-.19,13.61-6.34,19.05-11.18,5.84-5.22,11.36-10.88,16.84-16.47a443.34,443.34,0,0,0,31.13-35.27c19.38-24.58,36.19-51.41,47.43-80.73,3.93-10.26-13.51-17.74-17.9-7.54a336,336,0,0,1-45,76.09c-9,11.39-18.64,22.27-28.72,32.71C267.49,150.53,262.15,155.73,256.8,160.93Z"/><path d="M177.72,237c-23.18,9.27-43.22,25.91-64.87,38.41-22,12.72-45.94,20.88-69.92,29-13.09,4.43-7.65,22.48,5.61,20.36,26.3-4.21,49.5-18,71.72-31.84,21.71-13.5,45.56-28.78,61.6-48.81C184.16,241.18,182.14,235.18,177.72,237Z"/><path d="M468,143.15c-15,21.45-27.29,44.74-41.83,66.53S396.27,252.57,380,273c-29.76,37.44-62.29,73.85-100.55,102.83A374.06,374.06,0,0,1,246.66,398c-11.65,7-24.1,12.45-35.79,19.32-8.92,5.24-3,19.27,7,16.64,23.19-6.06,45.43-20.49,64.77-34.28a456.69,456.69,0,0,0,56.44-48c37.05-36.84,69.84-78.34,99-121.62,17.1-25.35,34.83-51.57,46.55-79.89C488.85,140.05,473.51,135.28,468,143.15Z"/><path d="M289,323.09a.08.08,0,0,0,0-.15A.08.08,0,0,0,289,323.09Z"/><path d="M162.88,433.15c-.6-.79-1.21-1.57-1.82-2.36a8.76,8.76,0,0,0-3.74-2.41,5.84,5.84,0,0,0-2.94-.79,8.73,8.73,0,0,0-4.64.21L147,429a11.7,11.7,0,0,0-1.56,1.13,8.55,8.55,0,0,0-1.3,1,8.94,8.94,0,0,0-3,3.31,8.66,8.66,0,0,0-1.4,4.38,9,9,0,0,0,.21,4.7,11.92,11.92,0,0,0,5.41,7l2.82,1.19a11.87,11.87,0,0,0,6.26,0l.58-.13a9,9,0,0,0,3.36-1.58,15.33,15.33,0,0,0,1.44-1.11c.18-.15.35-.31.52-.47s.19-.17.27-.26.38-.43.56-.65a14.94,14.94,0,0,0,3-5.37,8.82,8.82,0,0,0,.2-4.64A8.62,8.62,0,0,0,162.88,433.15Z"/><path d="M470,246.12c-2.92,3.78-6.45,6.74-9,10.84-2.46,3.94-4.62,8.07-7,12.07-4.76,8-9.35,16.1-14.26,24a443.8,443.8,0,0,1-68.46,84.75c-6.71,6.47-13.67,12.62-20.7,18.74-6.53,5.68-15.28,11.36-19.53,19a7.27,7.27,0,0,0,8.11,10.55c8.9-2,17-9.76,24-15.38,7.54-6.08,14.73-12.66,21.74-19.33a442.51,442.51,0,0,0,71.71-88.51,258.34,258.34,0,0,0,13.59-24.4c2-4.2,4-8.42,5.75-12.72,2.17-5.22,2.35-10.22,3.45-15.69C480.52,244.1,473.46,241.59,470,246.12Z"/><path d="M299,442.4c-6.73-1.81-13.33.63-19.36,3.61-7.4,3.65-14.63,7.64-22.07,11.23a165.8,165.8,0,0,1-21.7,8.78c-6.91,2.21-14.15,2.12-18.78,8.2-1.39,1.82-.8,5.2.86,6.68,6,5.32,13.91,3,21.05,1.26,8.17-2,15.94-5.27,23.54-8.8,7.45-3.46,14.71-7.3,22-11.06,7.08-3.66,14.08-7.59,17-15.4C302.21,445.05,300.74,442.88,299,442.4Z"/><path d="M362.05,456.87a90,90,0,0,1-10.48,8.19c-4.34,2.82-9.27,4.71-12.08,9.2-2.4,3.82-.08,9.11,4.17,10.25,9.19,2.48,19.85-5.6,26.56-11.21,5.18-4.33,15.54-15.45,11-22.81C376.32,442.56,366.13,453.27,362.05,456.87Z"/><path d="M476.39,401a42.56,42.56,0,0,0-4.74-14.28,4.11,4.11,0,0,0-7.48.42c-4.79,12.63-6.81,27.8-7.64,36.79a5.08,5.08,0,0,1-10.14-.25c-1.33-24.61,10.19-52.53,10.19-52.53,1.95-6.63,4-13.29,4.71-20,.54-5.24-5.88-10.18-10-5.23-5.26,6.33-8.53,14.66-11,22.87a27.79,27.79,0,0,0-6.72,2.38c-7.46,3.77-11.86,9.24-15.08,16.31a54.76,54.76,0,0,0-4.69,22,96.15,96.15,0,0,0,3.39,27.72,67.61,67.61,0,0,0,19.08,31.19,56.05,56.05,0,0,0,26.54,13.8,8.53,8.53,0,0,0,4.86-.31,5.26,5.26,0,0,0,4-3.5c1.16-2-3.4-23.5-.36-40.81C473.41,425.65,478,413.18,476.39,401Z"/></svg>