<?xml version="1.0" ?><svg fill="#c0392b" data-name="Layer 4" id="Layer_4" viewBox="0 0 600 600" xmlns="http://www.w3.org/2000/svg"><title/><path d="M77.342,442.558a3.8,3.8,0,0,0-5.16-.23l-7.253,6.153a4.384,4.384,0,0,0-.284,6.422l20.928,21.2a7.328,7.328,0,0,1,2.158,5.476c-.4,8.174-7.326,22.423-38.239,43.714a9.823,9.823,0,0,1-7.872,1.519c-46.734-8.664-53.234,61.731-5.464,61.5A31.334,31.334,0,0,0,65.309,559.97c1.281-6.925-4-14.225,1.317-20.022,23.1-26.05,37.506-32.331,45.477-33.061a7.561,7.561,0,0,1,6.063,2.24l20.145,20.409a4.383,4.383,0,0,0,6.707-.56l5.483-7.807a3.8,3.8,0,0,0-.4-4.848ZM34.212,571.72c-19.219-.488-19.215-28.659,0-29.144C53.431,543.064,53.427,571.235,34.212,571.72Z" style="fill:#c0392b"/><path d="M279.509,316.419a5.539,5.539,0,0,0,7.157-.089c25.591-21.059,227.817-201.53,250.213-214.713l11.809-7.283a1.413,1.413,0,0,1,1.766,2.175c-16.276,20.274-231.381,208-256.568,231.352,4,3.07,8.3,6.289,12.9,9.61a5.549,5.549,0,0,0,6.94-.366c92.989-83.289,177.643-158.116,250.145-227.589A88.457,88.457,0,0,0,590.4,59.766c-16.907-.6-44.952,7.913-59.04,20.929q-137.988,112.95-265.3,224.184C269.277,307.766,273.815,311.721,279.509,316.419Z" style="fill:#c0392b"/><path d="M166.358,90.1c62.307-4.59,107.662,41.69,171.189,111.822a5.357,5.357,0,0,0,7.342.569l14.386-11.651c-22.572-25.9-97.594-113.056-161.09-125.952C144.276,53.939,134,93.7,132.071,111.187a1.4,1.4,0,0,0,2.628.785C142.061,97.411,152.812,91.1,166.358,90.1Z" style="fill:#c0392b"/><path d="M573.146,219.306c-6.985-16.751-29.15-21.96-40.353-12.213-11.491,10-6.6,16.528-4,18.253,4.088,2.715,13.313.806,10.84-9.378.584-4.872,18.384-5.811,21.522,9.068a17.564,17.564,0,0,1-3.864,14.5c-6.2,7.386-29.008,22.562-72.671-18.067-7.318-6.3-13,2.876-17.886,7.286C517.005,284,567.765,283.061,596.693,275.907V238.446a64.484,64.484,0,0,1-22.878,8.821C576.7,241.822,578.838,232.957,573.146,219.306Z" style="fill:#c0392b"/><path d="M459.808,243.362a5.192,5.192,0,0,0-7.57-.274l-27.9,27.6c16.567,20.66,78.5,90.407,172.359,108.727V354.763c-71.27-3.986-118.561-44.737-137.563-64.616a1.33,1.33,0,0,1,1.744-1.994c49.426,36.167,105.954,42.82,135.819,43.517V296.69C525.875,309.533,477.182,263.386,459.808,243.362Z" style="fill:#c0392b"/><path d="M417.119,283.162c-2.812-2.954-5.59-.012-7.6,2.168,82.636,96.09,157.5,128.745,187.169,138.61V409.608C558.739,395.755,485.146,360.15,417.119,283.162Z" style="fill:#c0392b"/><path d="M183.788,236.552a27.658,27.658,0,0,1,5.338-32.282c10.027-9.6,24.335-1.4,28.9,3.773,5.335,6.036,6.724,17.559-2.815,19.5-4.148.845-7.824-1.954-10.55-5.147a3.585,3.585,0,0,0-6.29,2.852c11.782,35.544,60.846.007,24.789-31.8-7.485-5.848-34.785-16.917-50.277,5.146-17.1,24.355,4.8,58.967,4.8,58.967C265.913,395.381,414.321,520.89,574.814,593.95h21.879V574.692C469.616,521.067,399.64,466.014,375.241,444.63A1.521,1.521,0,0,1,377,442.165c69.643,39.9,142.7,75.847,219.7,96.568v-19.8C357.1,452.419,212.757,292.674,183.788,236.552Z" style="fill:#c0392b"/><path d="M180.325,291.414A345.132,345.132,0,0,1,138.4,212.2l0,.019s-28.6-53.114-27.544-106.13c7.783-73.794,79.617-76.785,140.339-33.386,0,0,65.569,45.516,118.646,103.156a5.347,5.347,0,0,0,7.3.515L404.759,154c-41.893-42.82-86.713-82.738-135.44-110.471a1.169,1.169,0,0,1,1.027-2.1c78.6,31.837,131.678,87.612,143.025,100.233,2.82,3.071,6-.523,8.229-2.374C270.262-26.931,141.27,9.414,141.27,9.414h0c-75.122,13.14-87.852,103.26-81.421,158.6a1.9,1.9,0,0,1-3.678.842C37.1,113.447,38.412,50.022,86.071,13.813a1.556,1.556,0,0,0-1.561-2.667C-39.63,78.791,70.77,287.2,147.517,394.709a11.922,11.922,0,0,1-1.8,15.855q-17.291,15.321-34.422,30.57a5.328,5.328,0,0,0-.245,7.724l10.819,10.966,44.649-38.877q4.5,6.1,9.075,12.159L132.943,471.05l12.145,12.309a5.386,5.386,0,0,0,7.421.161q15.773-14.611,31.329-28.882a6.128,6.128,0,0,1,8.957.733c17.8,22.523,36.294,44.407,55.061,65.076-23.5-6.723-59.08.349-63.881,30.2-1.529,8.3-.4,16.958,4.352,23.935,10.911,16.033,28.821,9.124,28.821,9.124,11.04-4.842,13.1-12.266,12.608-18.142a2.623,2.623,0,0,0-4.956-.931c-3.429,6.937-10.493,11.13-18.549,8.176-9.724-4.082-7.787-13.516-3.96-20.164,20.215-32.5,85.086,11.294,98.663,22.238,6.965,6.612,13.929,12.952,20.824,19.068l-.044-.049.057.049h50.824C291.9,532.683,156.119,411.209,89.829,246.77a2.339,2.339,0,0,1,4.179-2.069c39.75,67.139,159.261,248.358,343.6,349.249h90.34C349,508.773,229.03,360.214,180.325,291.414Z" style="fill:#c0392b"/><path d="M131.93,134.723c-2.626,3.058-.236,15.081,4.915,12.568,2.116-1.905,2.208-6.263,1.51-9.554C137.731,134.58,133.84,131.481,131.93,134.723Z" style="fill:#c0392b"/></svg>