<?xml version="1.0" ?><svg fill="#c0392b" data-name="Layer 4" id="Layer_4" viewBox="0 0 600 600" xmlns="http://www.w3.org/2000/svg"><title/><path d="M547.037,266.693c6.287.453,28.893,4.312,28.893,4.312v-8.079a7.661,7.661,0,0,0-6.795-7.638c-51.659-5.59-100.412-32.882-113.988-51.024-21.215-28.35-38.525-44.249-47.987-51.871a33.045,33.045,0,0,1-10.812-15.871c-8.055-25.729-32.667-94.149-75.831-129.057-3.589-2.9-6.121-1.87-7.61,1.636a3.851,3.851,0,0,0,.643,4.052c2.612,2.963,8.2,9.647,11.554,16.158a.921.921,0,0,1-1.334,1.18,72.18,72.18,0,0,0-14.5-7.04,3.367,3.367,0,0,0-4.235,1.83C281.916,79.64,283.9,139.4,283.9,139.4c-20.139,2.35-62.651,16.532-88.039,37.951-12.645,10.667-55.459,18.463-112.839,19.48-17.939.318-38.783,1.545-56.141,6.548a3.881,3.881,0,0,0-2.789,4.133c.517,5.018,2.187,15.117,7.54,24.346a11.63,11.63,0,0,0,7.985,5.637c11.836,2.121,23.469-1.654,30.342-11.081a1.367,1.367,0,0,1,2.465.953,50.129,50.129,0,0,1-1.562,8.254A22.924,22.924,0,0,1,55.78,250.941a59.523,59.523,0,0,1-11.143,2.331,3.666,3.666,0,0,0-3,4.881C48.225,276.491,60.077,303.4,81.914,309.4c114.648,31.47,160.7,76.214,177.805,147.647,8.941,37.342,20.949,56,27.746,63.869a3.77,3.77,0,0,0,6.505-1.59l6.73-27.495a4.935,4.935,0,0,1,7.97-2.6c15.458,12.979,58.178,46.209,100.4,55.388a1.907,1.907,0,0,1,.029,3.72c-16.628,4.1-57.359,2.668-89.882-26.821a2.938,2.938,0,0,0-4.821,1.363c-2.081,7.468-6.162,22.452-8.812,34.393a3.526,3.526,0,0,1-5.435,2.13q-19.45-13.213-33.787-36.819a3.133,3.133,0,0,0-5.425.088c-5.208,9.311-14.756,32.837-4.174,67.566a5.657,5.657,0,0,0,5.416,3.989h2.843c-3.149-21.417-1.153-35.159.742-42.374a1.975,1.975,0,0,1,3.815-.01c2.21,7.981,5.664,23.353,10.968,35.574a11.352,11.352,0,0,0,10.419,6.81H569.8a5.892,5.892,0,0,0,5.892-5.887l.236-296.531c0-3.51-5.039-7.235-8.21-8.742-5.545-2.637-16.6-7.373-21.973-13.843A1.542,1.542,0,0,1,547.037,266.693ZM316.142,51.175c3.518-8.208,10.776,5.172,14.656,11.431,23.528,37.95,22.893,61.146,20.421,71.607A8.394,8.394,0,0,1,342.9,140.7l-30.432-.567a8.54,8.54,0,0,1-8.35-7.783C302.757,117.085,302.843,82.207,316.142,51.175ZM233.133,196.626A331.589,331.589,0,0,1,276.4,181.554c3.271-1.339,16.158-2.463,12.845,4.025-5.409,8.636-12.451,16.247-18.448,24.508-3.45,5.227-11.128,5.534-16.3,6.217-11.389-.309-20.877-3.887-27.165-12.751C224.533,199.67,230.45,198,233.133,196.626ZM379.391,341.875a55.235,55.235,0,0,1-14.757,7.336,173.584,173.584,0,0,1-48.454,8.118c2.32,9.906,1.769,19.2-10.223,20.61-26.485,4.36-52.656-4.4-75-18.39-.947-.82-3.073-1.417-3.014-2.835.285-.382.842-.928,1.162-.855a35.13,35.13,0,0,1,4.729,1.405c19.439,7.38,40.763,12.932,61.521,8.263,3.559-.8,7.838-2.035,7.293-6.583-.185-3.68-.053-7.376-.187-11.061-.081-2.229.724-3.49,3.038-3.676,3.29-.266,6.59-.945,9.861-.82,11.5.437,22.779-1.187,33.964-3.491,8.607-1.726,19.039-12.752,11.354-21.021-3.054-3.415-9.913-10.41-2.36-11.86,72.383-13.891,71.865-38.274,64.124-52.454a4.093,4.093,0,0,1,5.668-5.518c17.207,10.218,37.109,32.6,5.658,50.957-13.624,7.952-30.54,10.9-51.69,16.118a3.6,3.6,0,0,0-2.386,5.054C383.144,328.324,387.209,336.372,379.391,341.875Zm116.594,188.9c-12.654,7.055-32.034,9.008-41.8,9.549a34.328,34.328,0,0,1-12-1.489c-23.2-7.144-38.137-17.9-46.351-25.324a2.889,2.889,0,0,1,2.774-4.915c15.078,4.626,34.432,9.813,47.885,12.822a80.639,80.639,0,0,0,12.78,1.8l35.5,2.121A2.9,2.9,0,0,1,495.985,530.774Z" style="fill:#c0392b"/><path d="M228.077,51.613c-4.048-3.849-11.987-10.671-20.393-13.874-1.8-.687-3.33.018-4.293,2.107-12.379,26.874-16.295,71.475.685,111.94a2.151,2.151,0,0,0,3.879.2c2.5-4.747,1.979-12.4.883-18.039-8.035-41.337-2.387-70.1,3.061-70.709,15.475-1.719,28.189,46.029,33.77,66.521a5.443,5.443,0,0,0,6.836,3.775l10.189-3.1c10.639-3.976,8.534-39.433,8.143-48.168-1.179-3.111-4.065,1.233-6.23,5.386a2.333,2.333,0,0,1-4.27-.326c-3.968-11.479-13.4-41.18-38.029-60.816-2.826-2.253-10.28-8.693-12.473-2.378-.959,2.542-.4,4.839,1.782,6.088,10.835,6.219,17.988,15.4,17.623,20.508C229.18,51.567,228.685,52.191,228.077,51.613Z" style="fill:#c0392b"/></svg>