<?xml version="1.0" ?><svg fill="#c0392b" data-name="Layer 5" id="Layer_5" viewBox="0 0 600 600" xmlns="http://www.w3.org/2000/svg"><title/><path d="M94.316,133c45.167,56.129,108.726,126.044,161.809,258.8,14.875,37.2,50.4,62.235,65.07,72.067a2.234,2.234,0,0,0,3.225-2.885l-21.958-42.626a22.182,22.182,0,0,0-8.541-9.094c-25.587-14.8-39.1-44-46.859-70.958-26.144-90.873-84.04-261.065-135.731-285.955a6.815,6.815,0,0,0-9.349,4.064c-4.464,13.318-14.714,41.938-19.3,38.572-5.958-4.37,5.969-36.521,7.521-46.691A7.471,7.471,0,0,0,86.18,40.5L16.946,5.49a2.75,2.75,0,0,0-3.608,3.861C27.421,32.917,69.047,101.6,94.316,133Z" style="fill:#c0392b"/><path d="M51.086,187.522a18.343,18.343,0,0,0,14,8.856c13.961,1.353,40.68,3.92,54.275,5.079a2.817,2.817,0,0,0,2.152-4.876c-45.822-42-96.64-130.547-112.205-151.853a2.21,2.21,0,0,0-3.977,1.518C11.636,115.126,39.545,168.149,51.086,187.522Z" style="fill:#c0392b"/><path d="M140.838,279.032H127.347a1.509,1.509,0,0,0-.518,2.928c37.073,13.554,68.4,47.35,86.9,71.154a3.2,3.2,0,0,0,5.43-3.307c-11.466-24.8-29.111-64.013-69.115-115.09-15.118-19.3-43.166-17.359-66.592-17.392a3.921,3.921,0,0,0-3.214,6.163c17.47,24.932,45.456,36.629,62.427,50.476A2.863,2.863,0,0,1,140.838,279.032Z" style="fill:#c0392b"/><path d="M568.589,119.635c-30.6-15.451-261.453-44.94-370.293-10.948a8.7,8.7,0,0,0-5.519,11.337l9.286,25.091A68.322,68.322,0,0,0,267.551,189.7c56.2-1.145,142.959,4.282,268.127,35.618,7.475,1.871,14.255-5.465,18.887-11.023,14.534-19.2,18.266-46.365,7.235-67.152-4.73-8.912-16.841-11.984-24.266,14.085-2.068,7.259-3.563,29.666,3.275,32.168,4.2,1.538,8.84-3.455,6.108-11.466-1.758-5.154-5.511-15.489,1.019-25.591,3.786-5.857,8.739-2.319,10.166,4.637,3.21,15.648,0,37.452-17.176,46.839-3.669,2-6.165,1.748-8.683-1.637-5.712-7.68-14.069-31.855.737-62.7,18.657-38.87,52-3.091,47.74,36.083-6.262,57.645-36.387,66.481-49.436,63.249-132.8-32.886-245.4-32.461-293.177-28.576a7.736,7.736,0,0,0-6.614,10.4l37.531,101.415c2.506,6.772,10.389,9.45,17.592,9.96,40.112,2.845,111.809,5.208,110.829,20.648-.777,12.228-69.608,3.835-81.244,2.709-9.274-.613-18.508-1.717-27.75-2.685A4.221,4.221,0,0,0,284.372,363c7.945,13.8,15.511,18,21.4,20.384a20.082,20.082,0,0,1,11.571,12.862c11.232,37.154,25.758,64.517,35.627,80.519a8.145,8.145,0,0,1-9.085,12.123c-36.383-9.976-65.529-30.775-88.266-53.744a38.681,38.681,0,0,0-20.945-10.83c-16.81-2.9-44.583-7.524-58.128-8.632-10.9-.7-10-19.253.722-19.583.938-.022,28.588,3.45,43.067,5.278A3.92,3.92,0,0,0,224,395.2a437.923,437.923,0,0,0-50-57.427,33.029,33.029,0,0,0-46.485.687C89.4,377.639,58.194,417.066,64.749,481.029a80.518,80.518,0,0,0,53.526,67.747c99.719,35.017,255.547,43.88,312.909,46.011a49.055,49.055,0,0,0,39.859-17.861c31.029-38.042,29.933-75.149,22.909-100.51C487.4,452.74,456.68,446.2,441.386,465.425q-1.7,2.136-3.3,4.556c-14.253,21.591-14.575,57.38,1.2,71.294,26.467,23.343,41.614-39.023,25.211-46.2-7.428-3.249-11.281,11.117-7.136,16.59,6.3,8.314-4.566,21.3-9.191,19.055-11-5.345-8.332-28.951-.589-47.428,7.763-18.523,34.486-16.012,38.594,3.647,8.7,41.632-23.75,106.134-52.66,85.765-21.416-15.088-23.083-55.105-19.749-78.069,5.591-44.147,39.675-72.779,69.161-102.868C577.038,295.729,593.13,206.715,594.65,163.729A47.5,47.5,0,0,0,568.589,119.635ZM295.428,296.759c-10.821-1.477-9.165-17.08,1.5-18.387,3.224-.365,99.99.309,100.071,18.387C397.047,307.414,322.433,300.445,295.428,296.759ZM300,507.852c-18.561-3.444-52.484-7.077-71.064-10.415-20.861-3.214-77.2-14.2-100.54-16.422-10.02-.955-10.913-17.1-1.685-18.369,17.637-2.415,142.889,21.085,157.11,23.457,7.811,1.956,19.5,3.263,25.5,8.672C315.6,502.1,306.075,509.557,300,507.852ZM422.833,364.746c.132-11.194,16.753-10.506,17.059.464C439.748,376.434,422.945,375.776,422.833,364.746Z" style="fill:#c0392b"/></svg>